<?xml version="1.0" encoding="utf-8"?>
<!-- Generator: Adobe Illustrator 22.0.1, SVG Export Plug-In . SVG Version: 6.00 Build 0)  -->
<svg version="1.1" id="Layer_1" xmlns="http://www.w3.org/2000/svg" xmlns:xlink="http://www.w3.org/1999/xlink" x="0px" y="0px"
	 viewBox="0 0 837.3 364.6" style="enable-background:new 0 0 837.3 364.6;" xml:space="preserve">
<style type="text/css">
	.st0{fill:#FFFFFF;}
</style>
<g>
	<path class="st0" d="M112.7,71.9c-0.2,1.2,0,2.3,0.3,3.3c0.4,1,0.8,2.3,1.2,4c0,2.4-0.2,4.9-0.5,7.6c-0.3,2.6-0.5,5.2-0.5,7.8
		c0,4.4,0,8.8,0,13.3s-0.2,9.4-0.7,14.7c-0.3,3.3-0.5,6.3-0.7,8.8c-0.2,2.6,0.1,5.3,0.7,8.1c0,0.5,0.1,1,0.3,1.7
		c0.2,0.7,0.3,1.2,0.3,1.7c0,1.2-0.3,2.4-0.8,3.6c-0.5,1.2-0.8,2.4-0.8,3.6c-0.3,2.9-0.2,5.8,0.5,8.8c0.6,3,0.8,6,0.5,8.8
		c-1.2,0.3-2,0.2-2.4-0.2c-0.4-0.5-0.9-0.7-1.7-0.7c-4.1,0-7.8-0.4-11.1-1.1c-3.3-0.8-6.6-1.1-9.9-1.1c-2.9,0.3-5.8,0.7-8.8,1.1
		c-3,0.5-6,0.3-8.8-0.5c-0.3-0.1-0.5-0.5-0.5-1.1c0-0.6-0.1-1.2-0.2-1.9c-0.2-0.7-0.3-1.4-0.6-2c-0.2-0.7-0.6-1.1-1.2-1.2
		c0.8-0.5,1-1.3,0.8-2.6c-0.2-1.3-0.5-2.3-0.8-3.1c0.8-1.2,0.9-2.6,0.6-4.2c-0.4-1.6-0.6-3.4-0.6-5.5c0-1.2,0.1-2.2,0.3-3.1
		c0.2-0.8,0.3-1.4,0.3-1.7c-0.3-1.2-0.8-1.8-1.4-1.9c-0.6-0.1-0.9-0.6-0.9-1.5c3.2-0.8,6.2-1.1,9.3-0.9c3,0.2,5.6,0.2,7.7,0.2
		c0.8-1.2,1-2.4,0.8-3.7c-0.2-1.3,0-1.9,0.8-1.9c-0.8-4.8-1-10.4-0.8-16.8c0.2-6.4,0.2-12.6-0.1-18.6c-0.5-9.9-0.9-19.5-1.4-28.8
		C81.8,55.5,81.7,46.6,82,38c-2.6-0.8-4.7-1.2-6.6-1.2c-1.8-0.1-3.6,0-5.3,0.1c-1.7,0.2-3.5,0.4-5.4,0.7c-1.9,0.3-4.2,0.5-6.9,0.5
		c-0.3,8.4-0.3,16.7,0.1,24.9c0.4,8.1,0.8,16.2,1.2,24.1c0.5,7.9,0.8,15.7,1,23.5c0.2,7.8,0,15.6-0.8,23.4c0.5,0.6,1.1,1,1.8,1.2
		c0.8,0.2,1.5,0.5,2.3,0.7c0.8,0.2,1.4,0.6,2,1c0.6,0.5,1,1.1,1.1,2c-0.3,0-0.8-0.1-1.4-0.3c-0.6-0.2-0.9-0.1-0.9,0.3
		c0.3,2.4,0.6,5,1,7.9c0.4,2.9,0.3,6.1-0.3,9.7c0,0.5-0.1,1.1-0.3,1.8c-0.2,0.8-0.3,1.5-0.3,2.3c0,0.8,0.4,1.5,1.1,2.4
		c0.8,0.8,1.1,1.6,1.1,2.4c-5.7,0.8-11.8,0.9-18.1,0.6c-6.3-0.4-12.1-0.6-17.4-0.6c-1.7-16-2.7-31.8-3.1-47.5
		c-0.4-15.7-0.7-31.3-1-46.8c-0.2-6.5,0.3-13.1,1.5-19.8c1.1-6.7,1.5-13.3,1-19.8c-0.3-4.4-0.8-8.5-1.6-12.3
		c-0.8-3.8-0.8-7.8,0-11.9c10.1,0,20.8,0,32.1-0.1c11.3-0.1,22.1-0.3,32.5-0.6c3.2-0.5,6.3-0.6,9.5-0.3s6.2,1.2,9,2.8
		c0.6,2.4,0.8,4.9,0.7,7.3c-0.2,2.5-0.4,5-0.7,7.5c-0.3,2.5-0.5,5-0.7,7.5c-0.2,2.5,0.1,4.9,0.7,7.3c0,0.9,0.3,1.8,0.9,2.6
		c0.6,0.8,1.1,1.8,1.4,3.1c0.5,2.1,0.2,4.3-0.7,6.7c-0.9,2.3-1.2,4.7-0.9,7.1c0,0.8,0.3,1.4,0.8,2c0.5,0.6,0.8,1.3,0.8,2
		c0,1.7-0.2,3.3-0.6,4.9C112.4,68.6,112.4,70.3,112.7,71.9z M35.8,116.2c0,0.3,0.3,0.3,1,0.1c0.7-0.2,0.9-0.6,0.6-1
		C36.3,115.3,35.8,115.6,35.8,116.2z M39,87.1c0.3-0.3,0.6-0.5,1-0.7c0.4-0.1,0.6-0.5,0.6-0.9c-0.8-0.3-1.3-0.2-1.7,0.3
		C38.5,86.3,38.5,86.8,39,87.1z M42.1,36.4c0-0.8-0.3-1.3-1-1.7c-0.7-0.4-1.4-0.3-2.1,0.1c0,0.8,0.3,1.2,1,1.4
		C40.7,36.4,41.4,36.4,42.1,36.4z M39.4,45.7v1.6H41C41,46.2,40.4,45.7,39.4,45.7z M40.6,50c-0.5,0.5-0.2,0.7,0.8,0.7
		c1,0,1.2-0.2,0.8-0.7c0-0.3-0.2-0.4-0.5-0.2C41.4,49.9,41,50,40.6,50z M46.2,16.3l-3.2,3.8c0.8,0,1.7-0.5,2.7-1.4
		C46.8,17.9,47,17.1,46.2,16.3z M44.6,29.2c0,0.3,0.1,0.6,0.2,1c0.1,0.4,0.6,0.6,1.4,0.6c0.5-0.5,0.5-0.9,0.1-1.5
		C46,28.8,45.4,28.7,44.6,29.2z M46.2,79.1c0.5,0.3,1,0.3,1.6,0.1c0.6-0.2,0.9-0.6,0.9-1c-0.8,0-1.3-0.4-1.6-1.1
		c-0.3-0.8-0.8-1.1-1.6-1.1c-0.5,0.8-0.3,1.4,0.3,1.8C46.6,78.2,46.7,78.7,46.2,79.1z M88.3,148.3c0-0.8,0.1-1.3,0.3-1.6
		c0.2-0.3,0.3-0.8,0.3-1.6c-0.8-0.3-1.4-0.3-2,0.1c-0.6,0.4-1.5,0.3-2.7-0.1c0.3,0.8,0.4,1.2,0.2,1.5c-0.2,0.2-0.2,0.6-0.2,1
		c0.8,0,1.4,0,2,0.1C86.8,147.8,87.5,148,88.3,148.3z M92.3,136.3c0.3-0.5,0.4-0.9,0.2-1.2c-0.2-0.4-0.2-0.8-0.2-1.2
		c-1.2,0-1.8,0.5-1.8,1.6c0.5,0,0.8,0.2,0.9,0.5C91.6,136.2,91.9,136.3,92.3,136.3z M98.6,152.3h-1.6c0,0.5,0.3,0.8,0.8,0.9
		C98.4,153.3,98.6,153,98.6,152.3z"/>
	<path class="st0" d="M220.7,78.2c0,8.6,0.1,16.9,0.3,24.9c0.2,8,0.3,16.7,0.3,26c0,3.2,0.1,6.1,0.3,8.8c0.2,2.7,0.1,5.1-0.3,7.2
		c-0.8,2.1-2,3.9-3.7,5.3c-1.7,1.4-3.4,3.2-5.1,5.3c-0.6,0.8-1.2,1.7-1.8,2.9c-0.6,1.2-1.2,2.4-1.9,3.5c-0.7,1.1-1.4,2.1-2,3.1
		s-1.5,1.4-2.4,1.6c-1.2,0.5-3,0.3-5.3-0.5c-2.3-0.8-6.7-1.1-6.7-1.1h-28.2c0,0-4.2,0.1-6.7,0.3c-2.5,0.2-4.6,0.1-6.2-0.3
		c-0.8,0-1.2-0.1-1.5-0.2c-0.2-0.1-0.5-0.6-0.4-1.4v0.9c-0.3-1.2-0.7-2.1-1.5-2.6c-0.8-0.5-1.5-1-2.3-1.7h-1.3v1.8v0.9
		c0.6,0.5,0.7,0.7,0.8,0.3h0.2v1.3c0.7,0,1.1,0.2,1.4,0.5c0.1,0.2,0.3,0.2,0.5,0.3h0.9l0.9-0.7c-0.5,0.3-0.9,0.6-1.5,1
		c-0.5,0.4-1.2,0.6-1.9,0.6c-0.8,0-1.4-0.3-2-1c-0.6-0.7-1.2-1.5-1.8-2.5c-0.6-1-1.2-2-1.7-2.9c-0.5-1-1.1-1.8-1.7-2.4
		c-0.6-1.2-1.4-2.3-2.3-3.3c-0.9-1-1.8-1.9-2.7-2.8c-0.9-0.9-1.7-1.8-2.5-2.8c-0.8-1-1.2-2.1-1.4-3.3c-0.8-1.2-1-2.7-0.7-4.5
		c0.3-1.8,0.5-3.8,0.7-5.9c0.3-9.5,0.1-19.6-0.5-30.4c-0.6-10.8-0.8-21.6-0.5-32.4c0.3-9.9,0.4-19.8,0.3-29.6
		c-0.1-9.8,0.1-20.3,0.6-31.6l33.9,2.3c0.1,6.5,0.1,12.9-0.2,19.3c-0.3,6.4-0.6,12.8-0.9,19.2c-0.3,6.4-0.5,12.7-0.6,19
		c-0.1,6.3,0.2,12.4,0.8,18.4c1.1,1.5,1.6,3.4,1.6,5.7c0,1.7-0.2,3.2-0.5,4.7c-0.3,1.5-0.7,3.1-1.1,4.7c-0.3,4.8-0.6,9.8-1,15
		c-0.4,5.2-0.6,10.4-0.6,15.7c1.8,0.5,4,0.7,6.4,0.8c2.5,0.1,5,0,7.7-0.1c2.6-0.1,5.2-0.3,7.8-0.5c2.6-0.1,4.9-0.2,7-0.2
		c-0.6-9.6-1.2-19.7-1.7-30.1c-0.5-10.4-0.9-20.8-1.1-31.3c-0.2-10.5-0.3-20.8-0.3-31.1c0-10.2,0.2-20,0.7-29.4
		c5.3-1.2,10.5-1.9,15.8-2.1c5.3-0.2,10.8-0.6,16.5-1c0.8,10.1,1.1,21,1,32.7C220.7,54.1,220.7,66,220.7,78.2z M132.8,99.3
		c0.5,0,0.6-0.3,0.6-0.8c-0.1-0.5,0.3-0.8,1-0.8c0-0.6-0.5-0.9-1.6-0.9c0.5,0.5,0.6,0.9,0.3,1.2C132.9,98.4,132.8,98.8,132.8,99.3z
		 M134.4,117.8v-0.9c0-0.3-0.2-0.6-0.5-0.8c-0.3-0.2-0.7,0-1.1,0.8c0.5,0,0.8,0.2,0.9,0.5C133.9,117.6,134.1,117.8,134.4,117.8z
		 M134.1,94.3h-0.7v1.6c0.3,0,0.5-0.1,0.6-0.2C134,95.5,134.1,95,134.1,94.3z M152.2,78.2c-0.5,0-0.8,0.1-0.9,0.3
		c-0.2,0.2-0.4,0.1-0.7-0.3c0,0.8,0.3,1.1,1,1.1C152.3,79.4,152.5,79,152.2,78.2z M152.9,113c0.5,0,0.8-0.2,0.9-0.6
		c0.1-0.4,0.5-0.8,0.9-1.2c-0.9,0-1.4-0.1-1.6-0.5c-0.2-0.3-0.2-0.7-0.2-1.1l-2.3-1.6c0,1.7,0.3,2.7,0.9,3.1
		C152.1,111.5,152.6,112.1,152.9,113z"/>
	<path class="st0" d="M338.4,6.1c0.5,1.8,0.7,4.1,0.8,6.9c0.1,2.8,0.1,5.6,0,8.6c-0.1,2.9-0.2,5.8-0.2,8.7c-0.1,2.9,0,5.3,0.1,7.2
		c-5.7-0.3-11.5-0.6-17.3-0.8c-5.8-0.2-11.6,0-17.3,0.8c-0.5,4.5-0.8,9.5-0.9,14.9c-0.2,5.4-0.3,11-0.3,16.6
		c-0.1,5.7-0.1,11.2-0.1,16.6s-0.1,10.3-0.2,14.7c-0.3,11.3-0.8,22.4-1.5,33.3c-0.7,10.9-1,22.5-1,34.7c-2.4-0.1-5-0.2-7.8-0.2
		c-2.8,0-5.5,0-8.2,0.1c-2.7,0.1-5.4,0.1-8,0.2c-2.6,0.1-5.1,0-7.3-0.1c-0.5-9.5-0.7-19.3-0.7-29.5s-0.4-21.7-1.1-34.5
		c-0.2-1.2-0.3-2.5-0.5-4c-0.2-1.4-0.2-2.7-0.2-4c0-1.2,0.3-2.3,0.8-3.2c0.5-0.9,0.8-1.7,0.8-2.5c0.5-2.1,0.4-4.3-0.2-6.6
		c-0.6-2.3-1.1-4.7-1.4-7.2c-0.8-5.7-0.7-11.9,0.2-18.5c0.9-6.6,1.4-13.6,1.4-21c-3.5-0.1-6.6-0.2-9.4-0.2c-2.8,0-5.5,0-8.1,0
		c-2.6,0-5.3,0-7.9,0.1c-2.6,0.1-5.5,0.1-8.5,0.1c0.5-5.7,0.7-11,0.8-15.9c0.1-4.9,0.1-9.8,0.1-14.6c14.2,0,27.3,0.1,39.3,0.2
		c12.1,0.2,24,0.1,35.7-0.2c4.8-0.1,9.6-0.3,14.4-0.6C329.3,6.2,333.9,6.1,338.4,6.1z M270.6,150.1l2.3-1.8
		C271.4,148.3,270.6,148.9,270.6,150.1z M272.2,129.1c0.3,0.3,0.8,0.4,1.5,0.3c0.7-0.1,1-0.5,1-1.2
		C273,128.2,272.2,128.5,272.2,129.1z M280.3,30.3h-1.8c0,1.1,0.3,1.6,0.9,1.6C280,31.4,280.3,30.9,280.3,30.3z M281.4,72.6v-0.7
		c-1.1,0-1.6,0.5-1.6,1.6c0.5,0,0.8-0.1,0.9-0.5C280.9,72.7,281.1,72.6,281.4,72.6z M283.5,14.5c0,0.5,0.3,0.7,0.8,0.7
		c0.5,0,0.8-0.2,0.8-0.7c-0.5,0-0.8-0.1-1.1-0.2C283.7,14.1,283.5,14.2,283.5,14.5z M288.3,83.9c1.1,0,1.6-0.2,1.6-0.7
		c-0.3-0.5-0.6-0.6-1-0.6C288.4,82.7,288.3,83.1,288.3,83.9z M294.4,92.7v-1.6c-0.3,0-0.7-0.2-1.1-0.7c-0.5-0.5-0.8-0.5-1.1,0
		c0.3,0.8,0.6,1.3,0.8,1.7C293.1,92.5,293.6,92.7,294.4,92.7z"/>
	<path class="st0" d="M429.4,132.3c1.2-1.2,3-1.5,5.4-1c2.4,0.5,4.6,0.6,6.6,0.3V163c-5.4,0.2-11.5,0.2-18.1,0
		c-6.6-0.1-13.4-0.3-20.2-0.3c-6.9-0.1-13.7-0.1-20.5,0c-6.8,0.1-13,0.4-18.5,1c-1.4-1.4-2.6-2.9-3.7-4.5c-1.1-1.7-2.2-3.3-3.3-5
		c-1.1-1.7-2.2-3.2-3.4-4.7c-1.2-1.5-2.6-2.9-4.3-4.3c0-0.3,0.3-0.5,1-0.7c0.7-0.1,1.2-0.5,1.5-0.9c-0.3-0.3-0.7-0.3-1.1,0.1
		c-0.5,0.4-0.9,0.3-1.4-0.1c0.9-13.7,1.1-27.6,0.7-41.6c-0.5-14-0.7-29.2-0.7-45.4c0-5.7-0.1-11.4-0.2-17
		c-0.2-5.6-0.1-11.2,0.2-16.9c0.5-2.9,0.7-5.8,0.7-8.7c0-2.9,0.6-5.7,1.8-8.2l33.2-1.6c0.8,0,0.9,0.2,0.6,0.7
		c-0.4,0.5-0.6,1.1-0.6,1.8c-0.5,2.4-0.6,5-0.3,7.8c0.2,2.8,0.5,5.5,0.7,8.1c0.2,2.6,0.2,5.1,0,7.5c-0.2,2.3-0.9,4.2-2.1,5.5
		c0.5,4.4,1,9.5,1.6,15.3c0.6,5.8,0.9,11.7,0.9,17.7c-0.2,1.8-0.5,3.7-0.9,5.8c-0.5,2-0.8,4-1.1,5.9c-0.3,1.9-0.4,3.7-0.3,5.5
		c0.1,1.8,0.6,3.4,1.7,4.7c-1.7,6.8-2.6,13.8-2.8,21.1c-0.2,7.3-0.9,14.2-2.1,20.7c7.5,1.5,15.2,2,23.1,1.6
		C411,133.4,419.8,132.9,429.4,132.3z M360.1,11.3c0-0.3,0-0.6-0.1-0.9c-0.1-0.3-0.3-0.2-0.8,0.2c-0.3,0-0.3,0.1-0.1,0.3
		C359.3,11.2,359.7,11.3,360.1,11.3z M371,86.3h-1.6v1.6C370.4,87.9,371,87.3,371,86.3z M370.5,56.5c0.5,0.8,0.5,1.2,0,1.2
		c-0.5,0.1-0.7,0.5-0.7,1.2c1.1-0.5,1.7-0.3,1.9,0.5c0.2,0.8,0.9,1.1,2.1,1.1c0.3-0.5,0.5-1,0.6-1.7c0.1-0.7,0.1-1.2,0.1-1.5
		c-0.8-0.5-1.4-0.6-2-0.5C372,57.1,371.3,57,370.5,56.5z M377.1,74.6c0.8-2,0.6-3.3-0.5-4.1c-1.1-0.8-2-1.5-2.7-2.3h-0.5
		c-0.3,0-0.5,0.2-0.5,0.7l2.5,2.5c-0.8,0.8-1.6,1.2-2.5,1.2c-0.9,0.1-1.7,0.7-2.5,1.9c1.7,0,3-0.3,4-0.9
		C375.5,73.1,376.3,73.4,377.1,74.6z M375.5,41.2c-0.8,0-1.3,0.3-1.6,0.9c-0.3,0.6-0.9,1.1-1.8,1.6c0.9,0.3,1.7,0.3,2.4-0.1
		C375.2,43.2,375.5,42.4,375.5,41.2z M373,92c1.1,0,1.6-0.3,1.6-0.9C373.5,91.1,373,91.4,373,92z M377.1,67.8
		c0.8-0.5,0.9-0.8,0.5-1.1c-0.5-0.3-0.9-0.5-1.4-0.5c0.3,0.3,0.5,0.5,0.5,0.7c0,0.2,0.1,0.3,0.2,0.5
		C376.9,67.5,376.9,67.7,377.1,67.8z M377.1,63.8c0.8,0,1.3,0.1,1.7,0.2c0.4,0.2,0.3,0.6-0.1,1.4c0.8,0,1.2-0.1,1.5-0.5
		c0.2-0.3,0.6-0.7,1-1.1c-0.8-0.5-1.5-0.9-2.4-1.2C377.9,62.2,377.4,62.6,377.1,63.8z M380.2,103.3c-0.3-0.5-0.4-1-0.3-1.6
		c0.1-0.6,0-0.9-0.3-0.9c-0.5,0.5-0.6,1-0.6,1.6C379.1,103,379.5,103.3,380.2,103.3z"/>
	<path class="st0" d="M540.9,133.3h0.2c0.3,0,0.5,0.2,0.5,0.7l5.7,35.3h-22.6c0,0-3.7-10.3-4.7-15.1c-1.1-4.8-2.4-9.4-4.1-13.8
		c-4.4,0-9.2-0.1-14.6-0.5c-5.3-0.3-10.4-0.5-15.3-0.5c-2.1,4.4-3.5,9-4.2,13.9c-0.7,4.9-1.5,9.8-2.4,14.6c-3.9,0-8,0.2-12.2,0.6
		c-4.2,0.4-8.7,0.2-13.6-0.6l5.7-38.9c0.8,0.8,1.8,0.8,3.2,0c-0.8-0.5-1.4-0.6-1.8-0.5c-0.5,0.2-0.9,0-1.4-0.5
		c1.7-9.6,3.1-19.5,4.2-29.6c1.1-10.1,2.4-20.3,4-30.7L470,50c0.3-1.7,0.9-3,1.8-4c0.9-1,1.4-2.3,1.4-4c0.8-2.6,1.3-5.2,1.6-7.8
		c0.3-2.6,0.8-5.2,1.6-7.6c1.2-3.6,2.2-7.2,2.9-10.8c0.8-3.6,1.1-7.2,1.1-10.6h6.6c-0.5,0-0.8,0.1-0.9,0c-0.2-0.1-0.5-0.2-0.9-0.2
		c0,0.8,0.5,1,1.5,0.8c1-0.2,1.8-0.5,2.6-0.8c0.5,0,0.6,0.2,0.5,0.5c-0.2,0.3,0,0.7,0.5,1.1c0.3-0.5,0.6-0.8,0.9-0.9
		c0.3-0.1,0.2-0.4-0.2-0.4H507c2.9-0.7,5-1,6.6-1.2c1.5-0.1,2.6,1.2,3.2,4.1l2.3,12c0.8,1.7,1.4,3.4,1.9,5.3c0.5,1.9,1,3.7,1.5,5.3
		c0,0.3-0.2,0.4-0.5,0.3c-0.3-0.1-0.5,0-0.5,0.3v0.9c0.1-0.6-0.2-0.9-0.8-0.9c-0.5,0-1.2,0.5-1.2,0.5v0.5v-0.9v0.9
		c0,0-1,0.1-1.4,0.2c-0.4,0.2-0.6,0.6-0.6,1.4v1.3h0.9h0.7l-0.7,0.2l1.1-0.7v0.7c-0.8,0.8-1,1.6-1,1.6V38l2-0.9v0.5
		c0,0-0.3,0.5,0.2,0.5c0.9,0,1.4-0.3,1.6-0.9c0.1-0.6,0.2-1.1,0.2-1.6v-0.2h-2.5h0.7c0.5-0.9,0.9-1.2,1.2-1.3
		c0.4-0.1,0.6-0.4,0.6-0.7l1.6,5.4c2.7,9.5,4.9,19.2,6.4,29.2c1.6,9.9,3.4,19.9,5.5,29.8c0,1.1-0.2,1.6-0.7,1.6
		c0.8,1.2,1.4,2.7,1.8,4.5c0.5,1.8,0.9,3.5,1.4,5.2c0.5,3.6,1,7.3,1.6,11.1c0.6,3.8,0.9,7.3,0.9,10.6
		C541.7,131.6,540.9,133.3,540.9,133.3z M487.6,11.3l-0.7,0.9h1.6h1.9v-0.9l1,0.9v-2h-1V9.8l-0.3,0.5h-0.9h-0.5
		c-0.2,0.4-0.3,0.5-0.5,0.6C488.1,11,487.9,11.2,487.6,11.3z M492.6,109c2,0.3,4.8,0.4,8.5,0.2c3.7-0.1,6.7-0.2,9.2-0.2
		c-1.2-7.2-2.5-14.4-3.7-21.5c-1.3-7.1-3-13.6-5.1-19.7c-1.7,6.5-3.4,13.1-5.1,20C494.6,94.7,493.3,101.7,492.6,109z M524.6,153.3
		h1.8h0.7l2.5,1.6l-0.9-2.5c-0.5-0.5-1.2-0.7-2.3-1.1h-0.9h-0.9l-1.3-0.5v0.9c0.1,0.8,0.4,1.2,0.6,1.4
		C524.1,153.2,524.3,153.3,524.6,153.3z"/>
	<path class="st0" d="M667.3,84.7c0.6-12.5,0.8-24.3,0.6-35.7c-0.2-11.3-0.1-23,0.3-35l32.9-2.5c-0.3,14.1-0.5,27.9-0.6,41.3
		c-0.1,13.4-0.1,27-0.1,40.6v-1.2h-1.3c-0.2,0.6-0.3,0.6-0.5,0.6c-0.3,0.3-0.5,0.5-0.5,0.7c-0.5,0.5-0.7,1-0.7,1.6
		c0,0.6,0.2,0.9,0.7,0.9l0.9,0.7l0.3-0.7v-0.9c0.4-0.5,1-0.7,1-0.7v-0.9v30.5c0,3.8,0,7.3-0.1,10.6c-0.1,3.3-0.3,6.8-0.8,10.4
		c-1.4,1.7-2,3.3-1.9,5.1c0.1,1.7,0.3,3.5,0.7,5.2c0.4,1.7,0.6,3.4,0.7,5.1c0.1,1.7-0.6,3.2-1.9,4.7c-3,0-7.4,0-13.3,0.1
		c-5.9,0.1-11.8,0.2-17.8,0.3c-6,0.2-11.3,0.3-15.9,0.3c-4.6,0.1-7.1,0.1-7.6,0.1c-0.8-0.1-2.3-0.2-4.7-0.2c-2.4,0-5,0-7.8,0.1
		c-2.8,0.1-5.4,0.2-7.9,0.3c-2.5,0.2-4,0.3-4.6,0.5c-0.8,0-1.8-0.1-3.3-0.5c-1.4-0.3-2.7-0.4-3.9-0.2c-3,0.2-6,0.2-8.9,0
		c-2.9-0.1-5.9-0.3-8.8-0.5c-2.9-0.1-5.8-0.2-8.7-0.1c-2.9,0.1-5.6,0.5-8.3,1.2c-1.7-1.2-2.8-2.7-3.5-4.5c-0.7-1.8-1.6-3.8-2.8-5.9
		c-1.2-1.7-2.9-3.3-5.2-4.8c-2.3-1.6-3.8-3.4-4.5-5.5c-0.5-1.7-0.5-3.4-0.1-5.3c0.4-1.9,0.6-3.6,0.8-5.3c0.3-3.9,0.4-8.2,0.2-12.7
		c-0.2-4.6-0.2-8.9-0.2-13c0-1.2-0.3-2.4-0.8-3.6c-0.5-1.2-0.8-2.4-0.8-3.6c-0.3-6.8,0-13.6,0.8-20.4c0.8-6.8,0.9-12.9,0.1-18.2
		c0.3-0.8,0.6-1.1,0.9-1.1c0.3,0,0.2-0.1-0.2-0.5c1.2-0.5,1.4-0.6,0.6-0.6c-0.8,0.1-1.2-0.3-1.2-1V12.2v-0.5c0-0.3,0.2-0.5,0.7-0.5
		c2.4,0,5.1,0.2,7.9,0.5c2.9,0.3,5.8,0.6,8.7,0.9c2.9,0.3,5.8,0.6,8.7,1c2.9,0.4,5.5,0.6,7.9,0.8c0,4.5,0.1,9.1,0.5,13.6
		c0.3,4.5-0.2,8.4-1.4,11.5c0.5,14.2,0.5,27.6,0.2,40.2c-0.3,12.6-0.9,25-1.8,37.2c-0.3,3.6-0.6,6.9-0.8,10c-0.2,3,0,6.2,0.8,9.5
		c4.1,0.8,8.3,0.8,12.7,0c4.4-0.8,8.7-1.3,13.1-1.6c0-6.3,0-12.9-0.1-19.7c-0.1-6.8-0.3-13.4-0.6-19.9c-0.3-7.2-0.4-14.4-0.3-21.4
		c0.1-7-0.1-14.1-0.6-21.4c-0.2-3.6-0.3-6.9-0.3-9.8c-0.1-2.9-0.2-5.9-0.2-8.8c-0.1-2.9-0.1-5.9-0.1-8.9c0-3,0-6.2,0-10.1
		c4.8-1.2,9.9-1.6,15.3-1.2c5.4,0.4,11,0.6,16.7,0.6c-0.2,10.8-0.3,21.1-0.4,31c-0.2,9.8-0.3,19.6-0.6,29.2c-0.2,9.6-0.6,19.3-1,29
		c-0.5,9.8-1.1,19.9-1.8,30.4c1.8,0.3,3.9,0.6,6.4,0.9c2.5,0.3,5,0.5,7.4,0.7c2.5,0.2,4.9,0.2,7.2,0.1c2.3-0.1,4.4-0.3,6.2-0.8
		c0-5.3-0.3-10.5-1-15.6c-0.7-5.2-1.2-10.4-1.5-15.6c-0.2-1.6-0.5-3.1-0.9-4.4c-0.5-1.3-0.7-2.7-0.7-4.4c0.3-1.5,0.6-3,0.9-4.6
		C666.9,88.2,667.1,86.5,667.3,84.7z M570.8,49.3c-0.5-0.5-0.6-0.8-0.3-0.9c0.2-0.1,0.3-0.4,0.3-0.7c-1.7,0.8-2.5,1.8-2.5,3.2
		c0.6,0.3,0.9,0.3,1,0.1c0.1-0.2,0.1-0.5,0.1-0.8c0-0.3,0.1-0.6,0.2-0.8C569.8,49.2,570.1,49.2,570.8,49.3z M572.8,45.3h-0.9
		c0,0.8,0.1,1.5,0.3,2.1c0.2,0.7,0.9,1,2.1,1v-1.6c-0.3,0-0.5-0.1-0.7-0.5C573.6,46.1,573.3,45.7,572.8,45.3z M573.2,115.3
		c1.7-0.3,3-1.3,4-2.9c1-1.7,1.2-3.3,0.8-5c-0.5,0.3-0.9,0.4-1.4,0.2c-0.5-0.1-1.1-0.2-1.8-0.2c0,0.3,0,0.8-0.1,1.4
		c-0.1,0.6-0.3,0.9-0.8,0.9c0.5,0.8,0.4,1.4-0.1,2c-0.5,0.6-1,1.3-1.5,2c0.5,0,0.8,0.2,1,0.6C573.6,114.7,573.5,115,573.2,115.3z
		 M573.2,153.9c-0.5,0.5-0.3,0.8,0.5,1.1c0.8,0.3,1.1,0.2,1.1-0.2c-0.5,0-0.8-0.1-0.9-0.5C573.8,154.1,573.5,153.9,573.2,153.9z
		 M573.9,41.6c0,0.5,0.5,0.7,1.6,0.7h0.5c0.3,0,0.5-0.2,0.5-0.7c-0.5-0.5-0.9-0.6-1.2-0.3C574.8,41.5,574.4,41.6,573.9,41.6z
		 M578,62.2c-0.8-0.5-1.5-0.5-2.3-0.2c-0.8,0.3-1.4,0.6-1.8,0.9c0,0.9,0.1,1.5,0.5,1.7c0.3,0.2,0.5,0.5,0.5,0.8
		c0.8-0.3,1.4-0.7,1.8-1.2C577.1,63.6,577.5,62.9,578,62.2z M576,46.3h0.4v-1h-0.9c-0.2,0.1-0.2,0.4-0.2,0.9c0,0.5,0.1,0.7,0.2,0.7
		C575.5,46.4,575.6,46.1,576,46.3z M582.1,153.9c0.3-0.8,0.4-1.2,0.2-1.5c-0.2-0.2-0.2-0.5-0.2-0.8c-0.5,0-0.9,0.1-1.2,0.2
		c-0.4,0.2-0.8,0.1-1.2-0.2c0.5,0.8,0.5,1.4,0.1,1.9c-0.4,0.5-0.4,1.2-0.1,2.1c0.5-0.5,0.8-1.1,1-1.8
		C580.8,153.2,581.3,153.2,582.1,153.9z"/>
	<path class="st0" d="M733.2,4.1c13.2-0.8,26.4-1.5,39.4-2.3c13-0.8,25.6-1.4,37.8-1.8c-0.2,2.4-0.4,5-0.8,7.8
		c-0.4,2.8-0.7,5.6-0.9,8.4c-0.2,2.8-0.3,5.6-0.2,8.4c0.1,2.8,0.5,5.4,1.2,7.8c-2.1,0.6-4.5,1-7.2,1.1c-2.7,0.2-5.6,0.2-8.6,0.1
		c-3-0.1-6.1-0.2-9.1-0.5c-3.1-0.2-6.1-0.5-8.9-0.8h-26.1c-0.3,5.3-0.2,10.4,0.2,15.3c0.5,5,0.7,10.6,0.7,16.9l54.5,2.3l4.1,32.2
		c0.5,0.8,0.3,1.1-0.6,1.1c-0.8,0-1.2,0.5-1,1.4c0.3,6,0.3,11.7-0.1,17c-0.4,5.3-0.6,10.6-0.6,15.9c0,1.4,0.1,3.6,0.2,6.6
		c0.1,3.1,0.2,6.3,0.2,9.6c0,3.3-0.2,6.4-0.4,9.2c-0.3,2.9-0.9,4.8-1.8,5.9c-0.5,0.4-2,0.8-4.6,1.1c-2.6,0.3-5.6,0.5-8.9,0.7
		c-3.3,0.1-6.5,0.2-9.6,0.2c-3.1,0-5.3-0.1-6.6-0.2c0-0.7-0.3-1.1-0.9-1.1c-0.6,0-1.1,0-1.4,0h-0.9h-0.9v1l0.9,0.2
		c-2-0.3-3.8-0.4-5.2-0.3c-1.5,0.1-3,0.1-4.6,0.1h3v-0.9c0-0.7-0.2-1.4-0.6-2.1c-0.4-0.7-1-1-1.7-1h-1.3l-0.9,1.3l-1.4,0.7v0.9v0.1
		h1.4h0.6v1.2c-4.2-0.1-8.2-0.2-12-0.2c-3.8,0-7.5,0-11.2,0c-3.7,0-7.4,0-11.3,0.1c-3.8,0.1-7.9,0.1-12.3,0.1c0-5.3,0-10.8,0.1-16.6
		c0.1-5.8,0.3-10.7,0.6-14.8c1.2,0.5,2.6,0.5,4.1,0c1.5-0.5,3.1-0.5,4.7,0c1.2,0,2.1,0.3,2.8,0.8c0.7,0.5,1.6,0.8,2.8,0.8
		c1.7,0.5,3.3,0.5,5,0.2c1.7-0.3,3.5-0.4,5.6-0.2c5.7,0.3,11.7,0.7,18.1,1.1c6.3,0.5,12.3,0.1,18.1-1.1c0-6.5-0.3-12.7-0.9-18.7
		c-0.6-6-1.1-12.6-1.4-19.9c-9.5,0.3-19.2,0-29-0.8c-9.9-0.8-19.5-1.6-29-2.4c0-5.3-0.5-10.6-1.4-16c-0.9-5.4-1-10.5-0.2-15.4
		c0-0.9,0.1-1.7,0.3-2.5c0.2-0.8,0.3-1.3,0.3-1.6c0.1-0.9,0.3-2.7,0.3-5.5c0.1-2.8,0.1-6,0.1-9.6s0-7.4-0.1-11.5
		c-0.1-4.1-0.1-7.9-0.1-11.5c0-3.6,0-6.8-0.1-9.5c-0.1-2.7-0.1-4.6-0.1-5.6c0.1-1.4,0.6-2.2,1.4-2.5c0.8-0.3,1.8-0.4,3.2-0.2
		c1.4,0.2,3.1,0.3,5.3,0.3C727.3,4.9,730,4.7,733.2,4.1z M725.3,62.2c0.5,0.3,0.9,0.4,1.5,0.3c0.5-0.1,0.6-0.5,0.1-1.2
		C725.9,61.3,725.3,61.6,725.3,62.2z M729.7,72.6c0,0.5-0.2,0.8-0.5,1c-0.3,0.2-0.5,0.7-0.5,1.5c0.8-0.5,1.2-0.6,1.5-0.5
		c0.2,0.2,0.6,0,1-0.5c0-0.3-0.2-0.4-0.5-0.3c-0.3,0.1-0.5,0-0.5-0.3V73C730.4,72.7,730.2,72.6,729.7,72.6z M729.4,76.7
		c-0.5,0.8-0.2,1.1,0.9,1.1c1.1,0,1.6-0.4,1.6-1.1c-0.9-0.3-1.5-0.4-1.7-0.2C730,76.6,729.7,76.7,729.4,76.7z M732.6,75.1
		c0.5-0.5,0.8-0.9,1.1-1.4c0.3-0.5,0.5-1.1,0.5-1.8c-0.3-0.8-0.8-0.8-1.5-0.2c-0.7,0.6-1.2,0.9-1.7,0.9c0.5,0.5,0.6,1,0.6,1.6
		C731.5,74.8,731.8,75.1,732.6,75.1z M732.4,68.5v1.8c0.5,0,1,0,1.7-0.1c0.7-0.1,1.2-0.3,1.5-0.8c-0.8,0-1.3-0.1-1.6-0.5
		C733.7,68.7,733.1,68.5,732.4,68.5z M735.7,75.1c0,0.6,0.6,0.9,1.8,0.9C737.5,75.4,736.9,75.1,735.7,75.1z M751.1,83.9
		c-0.3,0-0.8,0-1.4,0.1c-0.6,0.1-0.9,0.3-0.9,0.8c0.3,0.3,0.8,0.4,1.4,0.3C750.8,85.1,751.1,84.6,751.1,83.9z M754.3,66.3
		c-0.3,0-0.7-0.1-1.1-0.3c-0.5-0.2-0.8-0.1-1.1,0.3c-0.5,0.8-0.2,1.1,0.8,1.1C753.8,67.4,754.3,67,754.3,66.3z M754.3,15.4
		c0.6,0,0.9-0.3,0.9-0.9C754.6,14.1,754.3,14.4,754.3,15.4z"/>
	<path class="st0" d="M87.2,329.3h0.3c0.3,0,0.4,0.2,0.4,0.7l5.6,34.3H71c0,0-3.7-9.9-4.7-14.7c-1.1-4.8-2.4-9.4-4.1-13.8
		c-4.4,0-9.2-0.1-14.6-0.5c-5.3-0.3-10.4-0.5-15.3-0.5c-2.1,4.4-3.5,9-4.2,13.9c-0.7,4.9-1.5,9.8-2.4,14.6c-3.9,0-8,0.2-12.2,0.6
		c-4.2,0.4-8.7,0.2-13.6-0.6l5.7-38.9c0.8,0.8,1.8,0.8,3.2,0C8.1,324,7.5,323.9,7,324c-0.5,0.2-0.9,0-1.4-0.5
		c1.7-9.6,3.1-19.5,4.2-29.6c1.1-10.1,2.4-20.3,4-30.7l2.5-17.9c0.3-1.7,0.9-3,1.8-4c0.9-1,1.4-2.3,1.4-4c0.8-2.6,1.3-5.2,1.6-7.8
		c0.3-2.6,0.8-5.2,1.6-7.6c1.2-3.6,2.2-7.2,2.9-10.8c0.8-3.6,1.1-7.2,1.1-11h6.6c-0.5,0.4-0.8,0.5-0.9,0.4c-0.2-0.1-0.5-0.2-0.9-0.2
		c0,0.8,0.5,1,1.5,0.8c1-0.2,1.8-0.5,2.6-0.8c0.5,0,0.6,0.2,0.5,0.5c-0.2,0.3,0,0.7,0.5,1.1c0.3-0.5,0.6-0.8,0.9-0.9
		c0.3-0.1,0.2-0.4-0.2-0.8h16.3c2.9-0.3,5-0.6,6.6-0.8c1.5-0.1,2.6,1.2,3.2,4.1l2.3,12c0.8,1.7,1.4,3.4,1.9,5.3
		c0.5,1.9,1,3.7,1.5,5.3c0,0.3-0.2,0.4-0.5,0.3c-0.3-0.1-0.5,0,0.1,0.3v0.9c-0.6-0.6-0.9-0.9-1.5-0.9c-0.5,0-0.5,0.5-0.5,0.5v0.5
		l-1-0.9v0.9c0,0-0.7,0.1-1.1,0.2c-0.4,0.2-0.6,0.6-0.9,1.4v0.9h1.2h0.7l-0.7,0.6l0.8-0.7v0.7c-0.5,0.8-1,1.6-1,1.6v0.9l2-0.9v0.5
		c0,0,0.1,0.5,0.5,0.5c0.9,0,1.4-0.3,1.6-0.9c0.1-0.6,0.2-1.1-0.1-1.6v-0.6h-2.2h0.7c0.5-0.5,0.9-0.8,1.2-0.9
		c0.4-0.1,0.6-0.4,0.6-0.7l1.6,5.4c2.7,9.5,4.9,19.2,6.4,29.2c1.6,9.9,3.4,19.9,5.5,29.8c0,1.1-0.2,1.6-0.7,1.6
		c0.8,1.2,1.4,2.7,1.8,4.5c0.5,1.8,0.9,3.5,1.4,5.2c0.5,3.6,1,7.3,1.6,11.1c0.6,3.8,0.9,7.3,0.9,10.6C88,327,87.2,329.3,87.2,329.3z
		 M33.9,206.7l-0.7,1.5h1.6h2.6v-1.5l1,0.9v-1.4h-1v-1.1l-1,1.1h-0.9H35c-0.2-0.2-0.3-0.1-0.5,0C34.4,206.4,34.2,206.6,33.9,206.7z
		 M38.9,304.4c2,0.3,4.8,0.4,8.5,0.2c3.7-0.1,6.7-0.2,9.2-0.2c-1.2-7.2-2.5-14.4-3.7-21.5c-1.3-7.1-3-13.6-5.1-19.7
		c-1.7,6.5-3.4,13.1-5.1,20C40.9,290.1,39.6,297.1,38.9,304.4z M71,349.3h1.8h0.7l2.5,1l-0.9-2.5c-0.5-0.5-1.2-0.7-2.3-0.5h-0.9H71
		l-1.6-1.1v0.9c0.4,0.8,0.7,1.2,0.9,1.4C70.4,348.6,70.7,348.7,71,349.3z"/>
	<path class="st0" d="M197.1,273.6c0,8.6,0.1,16.9,0.3,24.9c0.2,8,0.3,16.7,0.3,26c0,3.2,0.1,6.1,0.3,8.8c0.2,2.7,0.1,5.1-0.3,7.2
		c-0.8,2.1-2,3.9-3.7,5.3c-1.7,1.4-3.4,3.2-5.1,5.3c-0.6,0.8-1.2,1.7-1.8,2.9c-0.6,1.2-1.2,2.4-1.9,3.5c-0.7,1.1-1.4,2.1-2,3.1
		c-0.7,0.9-1.5,1.4-2.4,1.6c-1.2,0.5-3,0.3-5.3-0.5c-2.3-0.8-6.7-1.5-6.7-1.5h-28.5c-1.9,0-4.1,0.1-6.6,0.4
		c-2.4,0.2-4.5,0.1-6.1-0.4c-0.7,0-1.2-0.1-1.4-0.2c-0.2-0.2-0.5-0.6-0.8-1.4v1c0-1.3-0.4-2.2-1.1-2.7c-0.7-0.6-1.5-1.1-2.2-1.5
		h-0.7v2.2v0.9c0,0.5,0,0.7,0.2,0.9h0.8v0.7c0.1,0,0.5,0.2,0.8,0.5c0.1,0.2,0.3,0.2,0.5-0.1h0.9l0.9-0.3c-0.5,0.3-0.9,0.6-1.5,1
		c-0.5,0.4-1.2,0.6-1.9,0.6c-0.8,0-1.4-0.3-2-1c-0.6-0.7-1.2-1.5-1.8-2.5c-0.6-1-1.2-2-1.7-2.9c-0.5-1-1.1-1.8-1.7-2.4
		c-0.6-1.2-1.4-2.3-2.3-3.3c-0.9-1-1.8-1.9-2.7-2.8c-0.9-0.9-1.7-1.8-2.5-2.8c-0.8-1-1.2-2.1-1.4-3.3c-0.8-1.2-1-2.7-0.7-4.5
		c0.3-1.8,0.5-3.8,0.7-5.9c0.3-9.5,0.1-19.6-0.5-30.4c-0.6-10.8-0.8-21.6-0.5-32.4c0.3-9.9,0.4-19.8,0.3-29.6
		c-0.1-9.8,0.1-20.3,0.6-31.6l33.9,2.3c0.1,6.5,0.1,12.9-0.2,19.3c-0.3,6.4-0.6,12.8-0.9,19.2c-0.3,6.4-0.5,12.7-0.6,19
		c-0.1,6.3,0.2,12.4,0.8,18.4c1.1,1.5,1.6,3.4,1.6,5.7c0,1.7-0.2,3.2-0.5,4.7c-0.3,1.5-0.7,3.1-1.1,4.7c-0.3,4.8-0.6,9.8-1,15
		c-0.4,5.2-0.6,10.4-0.6,15.7c1.8,0.5,4,0.7,6.4,0.8c2.5,0.1,5,0,7.7-0.1c2.6-0.1,5.2-0.3,7.8-0.5c2.6-0.1,4.9-0.2,7-0.2
		c-0.6-9.6-1.2-19.7-1.7-30.1c-0.5-10.4-0.9-20.8-1.1-31.3c-0.2-10.5-0.3-20.8-0.3-31.1c0-10.2,0.2-20,0.7-29.4
		c5.3-1.2,10.5-1.9,15.8-2.1c5.3-0.2,10.8-0.6,16.5-1c0.8,10.1,1.1,21,1,32.7C197.1,249.5,197.1,261.4,197.1,273.6z M109.2,294.7
		c0.5,0,0.6-0.3,0.6-0.8c-0.1-0.5,0.3-0.8,1-0.8c0-0.6-0.5-0.9-1.6-0.9c0.5,0.5,0.6,0.9,0.3,1.2
		C109.3,293.8,109.2,294.2,109.2,294.7z M110.4,313.2v-0.9c0-0.3-0.2-0.6-0.5-0.8c-0.3-0.2-0.7,0-1.1,0.8c0.5,0,0.8,0.2,0.9,0.5
		C109.9,313,110.1,313.2,110.4,313.2z M111.1,290.3h-0.7v1.6c0.3,0,0.5-0.1,0.6-0.2C111,291.5,111.1,291,111.1,290.3z M128.6,273.6
		c-0.5,0-0.8,0.1-0.9,0.3c-0.2,0.2-0.4,0.1-0.7-0.3c0,0.8,0.3,1.1,1,1.1C128.7,274.8,128.9,274.4,128.6,273.6z M129.3,308.4
		c0.5,0,0.8-0.2,0.9-0.6c0.1-0.4,0.5-0.8,0.9-1.2c-0.9,0-1.4-0.1-1.6-0.5c-0.2-0.3-0.2-0.7-0.2-1.1l-2.3-1.6c0,1.7,0.3,2.7,0.9,3.1
		C128.5,306.9,129,307.5,129.3,308.4z"/>
	<path class="st0" d="M297.2,204.5c0,5.3-0.1,10.5-0.2,15.6c-0.2,5.1-0.1,10.1,0.2,14.9c-3.8-1.5-7.9-2.5-12.3-3.1
		c-4.4-0.5-9-0.8-13.8-0.8s-9.5,0.1-14.4,0.3c-4.8,0.2-9.6,0.3-14.2,0.3c-0.5,5.3-0.5,10.5-0.2,15.6c0.3,5.1,0.6,10.1,0.9,14.9
		c5.7,1.7,11.7,2.2,18,1.6c6.2-0.6,12.6-1.1,19.1-1.6c0.1,2.1,0.2,4.6,0.1,7.3c-0.1,2.8-0.1,5.6-0.1,8.6c0,2.9,0,5.8,0.1,8.7
		c0.1,2.9,0.3,5.4,0.8,7.7c-6.5,0.8-12.8,1-19.1,0.7c-6.3-0.3-12.5-0.3-18.9,0c0.8,11.3,1,22.9,0.7,34.7
		c-0.3,11.8-0.2,22.9,0.2,33.3c-5.7,0-10.8,0.1-15.3,0.2c-4.4,0.1-9.1,0.1-13.9-0.2c-0.9-11.6-1.4-22.7-1.5-33.3
		c-0.1-10.6-0.1-22.4-0.1-35.4c0-2.1-0.1-4.1-0.2-6.1c-0.2-2-0.1-4,0.2-6.1c0-1.7,0.3-3.1,0.8-4.4c0.5-1.3,0.8-2.7,0.8-4.4
		c0-0.8-0.2-1.4-0.5-1.9c-0.3-0.5-0.7-1.2-1.1-2.1c0-2.4,0.2-4.9,0.6-7.6c0.4-2.6,0.2-5.2-0.6-7.6c0.5-4.1,0.8-7.8,0.9-11.3
		c0.1-3.5,0.3-6.9,0.3-10.2c0.1-3.3,0.1-6.7,0.1-10.1c0-3.4,0.1-7.1,0.2-11.2c-0.3-0.9-0.1-1.3,0.6-1.2c0.7,0.1,1-0.1,1-0.6
		c-0.8-2.3-0.8-4.7,0-7.2c5.7-1.2,11.9-1.8,18.4-1.9c6.6-0.1,13.1,0,19.5,0.3c7.2,0.5,14.5,0.6,21.9,0.6
		C283.8,201.6,290.7,202.5,297.2,204.5z M219,362.2c0,0.5,0.2,0.6,0.6,0.3c0.4-0.2,0.7-0.3,1-0.3c-0.3,0-0.6-0.1-1-0.2
		C219.2,361.9,219,361.9,219,362.2z M220.4,201.6v0.7h0.9c0,0.5,0.1,0.5,0.3,0.2c0.2-0.3,0.3-0.6,0.3-0.9c-0.3-0.5-0.6-0.5-1-0.1
		C220.6,201.9,220.4,201.9,220.4,201.6z M230.3,355c0.5,0.5,0.8,0.6,0.9,0.3c0.1-0.2,0.4-0.3,0.7-0.3c0-1.2-0.3-1.9-1-2
		c-0.7-0.1-1.4-0.2-2.1-0.2c0.3,0.8,0.4,1.4,0.3,1.8c-0.1,0.5,0,0.9,0.3,1.4c-0.2,0-0.3,0.1-0.5,0.2c-0.2,0.2-0.2,0.6-0.2,1.4
		c0.8,0,1.2-0.2,1.4-0.6C230.2,356.5,230.3,355.9,230.3,355z"/>
	<path class="st0" d="M465.2,355.6c0,1.7,0.2,3.1,0.6,4.3c0.4,1.2,0.2,2.2-0.6,2.9c-4.1,0-8.2,0-12.3,0.1c-4.1,0.1-7.8-0.3-11-1
		c0-0.5-0.3-0.7-0.9-0.7h-0.9h-0.7v0.7c-0.6,0.6-1.7,0.9-3.2,0.9c-0.5-0.5-1.1-0.5-2-0.2c-0.9,0.3-1.4,0.1-1.4-0.7
		c-1.7,0.5-3.4,0.9-5.2,1.4c-1.8,0.5-3.3,0.3-4.5-0.5c-0.3,0-0.7,0-1.1,0.1c-0.5,0.1-0.8,0.1-1.1,0.1c-6.9,0.3-13.3,0.4-19.1,0.2
		c-5.8-0.2-11.6-0.2-17.3-0.2c-0.8-8.1-1.3-15.9-1.7-23.2c-0.4-7.3-0.3-14.4,0.1-21.4c0.5-5.7,0.5-11.5,0.1-17.3
		c-0.4-5.8-0.4-11.3-0.1-16.6c0.1-1.7,0.4-3.2,0.7-4.7c0.3-1.5,0.6-2.9,0.9-4.1c-0.6-1.8-0.9-3.5-1-5.2c-0.1-1.7,0-3.3,0.1-5
		c0.1-1.7,0.2-3.4,0.2-5.1c0-1.7-0.3-3.7-0.9-5.8c0.8-3.8,1.1-8.1,1.1-12.9c0-4.8-0.1-9.7-0.2-14.6c-0.2-4.9-0.1-9.6,0.1-14.1
		c0.2-4.5,0.9-8.4,2.1-11.5c2.9,0,5.7,0,8.5-0.1c2.8-0.1,5.6-0.3,8.5-0.8c5-0.1,10.2-0.3,15.7-0.5c5.5-0.1,11-0.2,16.4-0.1
		c5.4,0.1,10.8,0.3,16,0.8c5.3,0.5,10.2,1.2,14.9,2.3c0,4.8-0.2,10-0.5,15.6c-0.3,5.6-0.5,10.5-0.5,14.9c-3.6-1.8-7.5-2.9-11.8-3.3
		c-4.2-0.4-8.6-0.5-13.1-0.2c-4.5,0.2-9,0.5-13.6,0.9c-4.5,0.4-8.9,0.5-13.1,0.3c-0.9,5.3-1.2,10.8-1,16.7c0.2,5.9,0.6,11,1,15.4
		c2,0.5,4.2,0.4,6.7-0.1c2.5-0.5,4.8-0.2,6.9,1c0.5-0.5,0.5-0.7,0.1-0.8c-0.4-0.1-0.9-0.1-1.7-0.1c0.5-0.3,1.1-0.4,1.8-0.3
		c0.8,0.1,1,0.5,0.7,1.2c2.9-1.7,6.3-2.5,10.2-2.6c3.9-0.1,7.5-0.3,10.8-0.6c0.5,2.9,0.6,5.6,0.6,8.1c-0.1,2.6-0.2,5.1-0.2,7.7
		c-0.1,2.6-0.2,5.2-0.2,7.8c-0.1,2.6,0.1,5.5,0.6,8.5c-6.5,0.5-12.4,0.8-17.9,1.1c-5.4,0.3-11.5,0.5-18.3,0.5
		c0.8,6.3,0.8,12.5,0.2,18.6c-0.6,6.1-0.7,12.3-0.2,18.6c9.6,0,18.9,0.1,27.9,0.2c9,0.2,17.1,0.1,24.5-0.2c0.3,3.2,0.1,6.9-0.6,11.3
		C464.8,348,464.7,352,465.2,355.6z M395.3,307.7c-0.5,0.8-0.7,1.3-0.7,1.6h1.6C396.2,308.2,395.9,307.7,395.3,307.7z M396.2,312.3
		c0,0.5,0.4,0.7,1.2,0.7c0.8,0,1.2-0.2,1.2-0.7c-0.5-0.3-0.9-0.4-1.2-0.2C397,312.2,396.6,312.3,396.2,312.3z M398.7,282.4
		c0.5,0,1-0.1,1.6-0.3c0.6-0.2,1.2-0.5,1.7-0.9c0.5-0.4,0.9-0.8,1.1-1.2c0.2-0.5,0.1-0.9-0.3-1.4c-0.9,0.8-1.7,1.4-2.5,1.9
		C399.5,281.1,399,281.7,398.7,282.4z M400.2,291.5c0,1.1,0.5,1.6,1.6,1.6c0.5-0.5,0.5-0.9,0.1-1.5C401.6,291.1,401,291,400.2,291.5
		z M401.8,341.4c0.5,0.3,1,0.3,1.6,0c0.6-0.3,0.9-0.8,0.9-1.6c-0.8,0.3-1.2,0.1-1.5-0.6c-0.2-0.7-0.6-1-1-1
		c-0.5,0.8-0.4,1.4,0.2,1.8C402.6,340.5,402.6,341,401.8,341.4z M419.7,222.1c-0.6,0-0.9,0.2-0.9,0.5c-0.2,0.2-0.2,0.3,0,0.5
		c0.6,0,0.9,0.5,0.9,1.6c0.5,0,1-0.3,1.6-0.9c-0.5-0.3-0.8-0.5-1.1-0.5C419.8,223.2,419.7,222.9,419.7,222.1z M427.6,205.2
		c-0.3,0-0.6,0.1-1,0.2c-0.4,0.2-0.6,0.6-0.6,1.4c0.5,0.5,0.9,0.5,1.5,0.1C428,206.5,428,205.9,427.6,205.2z M430.1,216.7
		c0,0.5-0.2,0.9-0.5,1.2c-0.3,0.4-0.5,0.8-0.5,1.2c0.9-0.5,1.5-0.6,1.7-0.5c0.2,0.2,0.5,0,0.8-0.5h-0.5c-0.2,0-0.2-0.2-0.2-0.7
		c-0.2-0.1-0.2-0.3-0.2-0.5C430.4,216.9,430.2,216.7,430.1,216.7z M431.7,220.3h-2.5c0,0.8,0.5,1.2,1.6,1.5
		C431.8,222,432.1,221.5,431.7,220.3z M434.8,215.6c-0.8-0.3-1.4-0.2-1.8,0.3c-0.5,0.5-0.9,1-1.4,1.5c0.5,0,0.6,0.3,0.6,0.8
		c-0.1,0.5,0.3,0.8,1,0.8c0.5-0.5,0.8-0.9,1.1-1.4C434.7,217.1,434.8,216.5,434.8,215.6z M433.4,212.4v1.6c0.5,0,1,0,1.6-0.1
		c0.6-0.1,0.9-0.3,0.9-0.6c-0.5,0-0.8-0.1-1-0.5C434.6,212.5,434.1,212.4,433.4,212.4z M436.4,218.9c0,0.8,0.1,1.1,0.5,0.9
		c0.3-0.1,0.7-0.2,1.1-0.2C438,219.2,437.5,218.9,436.4,218.9z"/>
	<path class="st0" d="M592.3,280.1c0.6-12.5,0.8-24.3,0.6-35.7c-0.2-11.3-0.1-23,0.3-35l32.9-2.5c-0.3,14.1-0.5,27.9-0.6,41.3
		c-0.1,13.4-0.1,27-0.1,40.6v-0.6h-1.6c-0.2,0-0.3,0-0.5,0c-0.3,0.3-0.5,0.5-0.5,0.7c-0.5,0.5-0.7,1-0.7,1.6c0,0.6,0.2,0.9,0.7,0.9
		l0.9,0.7l0.6-0.7v-0.9c0-0.5,1-0.7,1-0.7V289v30.5c0,3.8,0,7.3-0.1,10.6c-0.1,3.3-0.3,6.8-0.8,10.4c-1.4,1.7-2,3.3-1.9,5.1
		c0.1,1.7,0.3,3.5,0.7,5.2c0.4,1.7,0.6,3.4,0.7,5.1c0.1,1.7-0.6,3.2-1.9,4.7c-3,0-7.4,0-13.3,0.1c-5.9,0.1-11.8,0.2-17.8,0.3
		c-6,0.2-11.3,0.3-15.9,0.3c-4.6,0.1-7.1,0.1-7.6,0.1c-0.8-0.1-2.3-0.2-4.7-0.2c-2.4,0-5,0-7.8,0.1c-2.8,0.1-5.4,0.2-7.9,0.3
		c-2.5,0.2-4,0.3-4.6,0.5c-0.8,0-1.8-0.1-3.3-0.5c-1.4-0.3-2.7-0.4-3.9-0.2c-3,0.2-6,0.2-8.9,0c-2.9-0.1-5.9-0.3-8.8-0.5
		c-2.9-0.1-5.8-0.2-8.7-0.1c-2.9,0.1-5.6,0.5-8.3,1.2c-1.7-1.2-2.8-2.7-3.5-4.5c-0.7-1.8-1.6-3.8-2.8-5.9c-1.2-1.7-2.9-3.3-5.2-4.9
		c-2.3-1.6-3.8-3.4-4.5-5.5c-0.5-1.7-0.5-3.4-0.1-5.3c0.4-1.9,0.6-3.6,0.8-5.3c0.3-3.9,0.4-8.2,0.2-12.7c-0.2-4.6-0.2-8.9-0.2-13
		c0-1.2-0.3-2.4-0.8-3.6c-0.5-1.2-0.8-2.4-0.8-3.6c-0.3-6.8,0-13.6,0.8-20.4c0.8-6.8,0.9-12.9,0.1-18.2c0.3-0.8,0.6-1.1,0.9-1.1
		c0.3,0,0.2-0.1-0.2-0.5c1.2-0.5,1.4-0.6,0.6-0.6c-0.8,0.1-1.2-0.3-1.2-1v-48.5v-0.5c0-0.3,0.2-0.5,0.7-0.5c2.4,0,5.1,0.2,7.9,0.5
		c2.9,0.3,5.8,0.6,8.7,0.9c2.9,0.3,5.8,0.6,8.7,1c2.9,0.4,5.5,0.6,7.9,0.8c0,4.5,0.1,9.1,0.5,13.6c0.3,4.5-0.2,8.4-1.4,11.5
		c0.5,14.2,0.5,27.6,0.2,40.2c-0.3,12.6-0.9,25-1.8,37.2c-0.3,3.6-0.6,6.9-0.8,10c-0.2,3,0,6.2,0.8,9.5c4.1,0.8,8.3,0.8,12.7,0
		c4.4-0.8,8.7-1.3,13.1-1.6c0-6.3,0-12.9-0.1-19.7c-0.1-6.8-0.3-13.4-0.6-19.9c-0.3-7.2-0.4-14.4-0.3-21.4c0.1-7-0.1-14.1-0.6-21.4
		c-0.2-3.6-0.3-6.9-0.3-9.8c-0.1-2.9-0.2-5.9-0.2-8.8c-0.1-2.9-0.1-5.9-0.1-8.9c0-3,0-6.2,0-10.1c4.8-1.2,9.9-1.6,15.3-1.2
		c5.4,0.4,11,0.6,16.7,0.6c-0.2,10.8-0.3,21.1-0.4,31c-0.2,9.8-0.3,19.6-0.6,29.2c-0.2,9.6-0.6,19.3-1,29
		c-0.5,9.8-1.1,19.9-1.8,30.4c1.8,0.3,3.9,0.6,6.4,0.9c2.5,0.3,5,0.5,7.4,0.7c2.5,0.2,4.9,0.2,7.2,0.1c2.3-0.1,4.4-0.3,6.2-0.8
		c0-5.3-0.3-10.5-1-15.6s-1.2-10.4-1.5-15.6c-0.2-1.6-0.5-3.1-0.9-4.4c-0.5-1.3-0.7-2.7-0.7-4.4c0.3-1.5,0.6-3,0.9-4.6
		C591.9,283.6,592.1,281.9,592.3,280.1z M495.4,244.7c-0.5-0.5-0.6-0.8-0.3-0.9c0.2-0.1,0.3-0.4,0.3-0.7c-1.7,0.8-2.5,1.8-2.5,3.2
		c0.6,0.3,0.9,0.3,1,0.1c0.1-0.2,0.1-0.5,0.1-0.8c0-0.3,0.1-0.6,0.2-0.8C494.4,244.6,494.8,244.6,495.4,244.7z M496.8,240.3h-0.9
		c0,0.8,0.1,1.5,0.3,2.1c0.2,0.7,0.9,1,2.1,1v-1.6c-0.3,0-0.5-0.1-0.7-0.5C497.6,241.1,497.3,240.7,496.8,240.3z M497.9,310.7
		c1.7-0.3,3-1.3,4-2.9c1-1.7,1.2-3.3,0.8-5c-0.5,0.3-0.9,0.4-1.4,0.2c-0.5-0.1-1.1-0.2-1.8-0.2c0,0.3,0,0.8-0.1,1.4
		c-0.1,0.6-0.3,0.9-0.8,0.9c0.5,0.8,0.4,1.4-0.1,2c-0.5,0.6-1,1.3-1.5,2c0.5,0,0.8,0.2,1,0.6C498.2,310.1,498.2,310.4,497.9,310.7z
		 M497.9,349.3c-0.5,0.5-0.3,0.8,0.5,1.1c0.8,0.3,1.1,0.2,1.1-0.2c-0.5,0-0.8-0.1-0.9-0.5C498.4,349.5,498.2,349.3,497.9,349.3z
		 M498.5,237.6c0,0.5,0.5,0.7,1.6,0.7h0.5c0.3,0,0.5-0.2,0.5-0.7c-0.5-0.5-0.9-0.6-1.2-0.3C499.4,237.5,499,237.6,498.5,237.6z
		 M502.6,257.6c-0.8-0.5-1.5-0.5-2.3-0.2c-0.8,0.3-1.4,0.6-1.8,0.9c0,0.9,0.1,1.5,0.5,1.7c0.3,0.2,0.5,0.5,0.5,0.8
		c0.8-0.3,1.4-0.7,1.8-1.2C501.7,259,502.2,258.3,502.6,257.6z M500.6,241.3h0.8v-1h-1.3c-0.2,0.5-0.2,0.8-0.2,1.3s0.1,0.7,0.2,0.7
		C500.1,241.8,500.3,241.5,500.6,241.3z M506.7,349.3c0.3-0.8,0.4-1.2,0.2-1.5c-0.2-0.2-0.2-0.5-0.2-0.8c-0.5,0-0.9,0.1-1.2,0.2
		c-0.4,0.2-0.8,0.1-1.2-0.2c0.5,0.8,0.5,1.4,0.1,1.9c-0.4,0.5-0.4,1.2-0.1,2.1c0.5-0.5,0.8-1.1,1-1.8
		C505.4,348.6,505.9,348.6,506.7,349.3z"/>
	<path class="st0" d="M699.9,338.3l1.8,24.9c-11.3-0.9-22.1-1.1-32.4-0.5c-10.3,0.6-20.5,0.8-30.6,0.5c0-5.3,0.1-10.6,0.2-15.9
		c0.1-5.3,0.6-10.2,1.4-14.6c1.7-0.5,3.4-0.5,5.3-0.1c1.9,0.4,3.7,0.4,5.3,0.1c0.3-5.3,0.6-10.1,1-14.6c0.4-4.4,0.6-9.3,0.6-14.6
		c0.3-0.8,0.8-0.8,1.5-0.2c0.7,0.6,1.2,0.7,1.7,0.2c0-0.6-0.2-1-0.5-1.1c-0.3-0.1-0.7-0.3-1.1-0.3c-0.5-0.1-0.8-0.1-1.1-0.2
		c-0.3-0.1-0.5-0.3-0.5-0.8c0.3-6.8,0.5-13.8,0.6-21c0.1-7.2,0.1-14.7,0.1-22.4c0-0.6,0.5-0.9,1.6-0.9c0-0.8-0.3-1.1-0.8-1
		c-0.5,0.1-0.8-0.1-0.8-0.6c0-1.2,0-2.3,0.1-3.4c0.1-1.1,0.3-1.8,0.8-2.3c-0.8-2.1-0.9-4.5-0.6-7.2c0.4-2.7,0.6-5.6,0.6-8.8
		c-1.7-0.3-4-0.3-7,0c-3,0.3-5.5,0.3-7.5,0l1.6-29.8c6.5-0.5,13.8-0.5,21.9-0.1c8.1,0.4,15.9,0.1,23.3-0.8c2.9-0.3,5.5-0.6,7.8-1
		c2.3-0.4,8.2-0.6,8.2-0.6v32.2H683c-0.3,15.6-0.6,31.6-1,47.9c-0.4,16.3-0.6,33.2-0.6,50.5c3.3,0.5,6.5,0.6,9.6,0.3
		c3.1-0.2,8.4-0.3,8.4-0.3v4.6h-1.1h-0.9v1.1c0.3,0.8,0.4,1.2,0.6,1.5c0.2,0.2,0.3,0.4,0.3,0.4h1.1l0,0h0.1
		C699.8,338.9,699.9,338.7,699.9,338.3z M659.7,223c0.3,0.3,0.6,0.4,1,0.3c0.4-0.1,0.6-0.5,0.6-1.2c0,0.5-0.3,0.6-0.8,0.5
		C659.9,222.4,659.7,222.6,659.7,223z M668.5,210.3h-1.6c0,0.9,0.4,1.4,1.1,1.4C668.8,211.6,668.9,211.2,668.5,210.3z M669.4,241.5
		l-2.5-1.8c0,1.7,0.3,2.7,0.9,3.2c0.6,0.5,1.1,1.1,1.6,1.8c0.3,0,0.5-0.2,0.7-0.6c0.1-0.4,0.5-0.7,0.9-1c-0.8,0-1.2-0.2-1.4-0.6
		C669.5,242.2,669.4,241.8,669.4,241.5z M669.4,287.4c0.8,0.3,1.2,0.2,1.4-0.3c0.1-0.5,0.2-0.9,0.2-1.2c-0.8,0-1.2,0.2-1.4,0.5
		C669.5,286.6,669.4,287,669.4,287.4z M675.1,247.2c0.3,0.3,0.6,0.3,1,0.1c0.4-0.2,0.6-0.6,0.6-1c-0.8-0.5-1.2-0.5-1.4-0.2
		C675.1,246.4,675.1,246.7,675.1,247.2z M676.4,250.4v-1.6c-0.5,0-0.8,0.1-0.9,0.3c-0.2,0.2-0.4,0.3-0.7,0.3
		C674.8,250.1,675.3,250.4,676.4,250.4z M677.3,225.3c0.5,0.5,1,0.6,1.6,0.6c0.6-0.1,0.9-0.5,0.9-1.2c-0.3-0.5-0.8-0.5-1.5-0.2
		C677.7,224.7,677.3,225,677.3,225.3z M680.7,351.2c1.1,0,1.6-0.3,1.6-0.9l-0.9-0.9c0,0.5-0.1,0.8-0.3,0.9
		C680.8,350.4,680.7,350.7,680.7,351.2z M687,212.3h-1.6v0.9c0-0.5,0.3-0.6,0.8-0.5C686.7,212.9,687,212.7,687,212.3z M687.9,353.4
		c0.3-0.3,0.6-0.6,1-0.8c0.4-0.2,0.6-0.7,0.6-1.5c-0.8,0-1.3,0.3-1.7,0.9C687.4,352.7,687.5,353.1,687.9,353.4z"/>
	<path class="st0" d="M836.4,340.4v4.7v18.5c-5.7,0-11.6,0.2-17.6,0.7c-6,0.5-12,0.3-18-0.5c-2.6-0.3-5.2-0.3-7.9-0.1
		s-5.5,0.2-8.4-0.1c-7.3,0-15,0-23.2,0.1c-8.2,0.1-15.8,0.1-22.8,0.1c-0.6,0-2,0-4.2,0.1c-2.2,0.1-4.5,0.1-7,0.2
		c-2.5,0.1-4.8,0.1-6.8,0.1s-3.3-0.2-3.7-0.5c-0.9,0-1.4-0.8-1.6-2.5c-0.2-1.7-0.2-3.5-0.1-5.7c0.1-2.1,0.2-4.3,0.5-6.4
		c0.2-2.2,0.3-3.9,0.3-5.1c-0.5-3.2-0.6-6.2-0.5-9c0.1-2.9,0.3-5.7,0.5-8.6c0.5-7.1,0.8-14.5,1-22.4c0.2-7.8,0.4-15.7,0.5-23.5
		c0.1-7.8,0.1-15.5,0.1-22.9s0-21.2,0-21.2s0.1-3.3,0-6.2c-0.1-2.9-0.1-6,1-9.2v-8.7c-1.1-2.6-1-4.3-0.9-4.9c0.1-0.8,1-1.2,2.6-1.5
		s3.4-0.4,5.3-0.6c2-0.1,3.8-0.3,5.5-0.6c1.7-0.2,2.9-0.7,3.5-1.5l68.7-3.3h9.5c-0.2,2.5-0.4,5.1-0.7,7.8c-0.3,2.7-0.5,5.5-0.7,8.2
		c-0.2,2.8-0.2,5.5,0,8.1c0.1,2.6,0.6,5.1,1.4,7.3c-2,0.8-3.9,1.2-5.8,1.4c-1.9,0.2-4.3,0.2-7.1,0.2c-8.7-0.9-16.9-1.3-24.4-1.1
		c-7.5,0.2-15.5,0.2-24,0.2c-0.3,6.5,0,13.1,0.8,20c0.8,6.9,0.9,13.9,0.1,21.1c-0.8,3.3-1.4,6.6-1.8,9.8c-0.5,3.2,0.1,5.9,1.8,8
		c-1.7,7.2-2.7,14.1-3.2,20.5c-0.5,6.4-1.1,13.3-1.8,20.7c3.6,1.2,7.5,1.8,11.5,1.9c4.1,0.1,8.3,0,12.7-0.3c5.3-0.3,10.5-0.6,15.6-1
		c5.1-0.4,9.9-1.2,14.2-2.4c-0.3-5.3-0.2-10,0.2-14.2c0.5-4.2,0.7-8.3,0.7-12.2c0-0.6,0.5-0.9,1.6-0.9c-1.2-0.3-1.6-0.9-1.1-1.7
		c0.5-0.8-0.5-2.5-0.5-2.5h-13.9v-2h-3v0.5l0.9,1.5h-21c0-1.8,0-4.1,0.1-6.9c0.1-2.8,0.1-5.7,0.2-8.7c0.1-3,0.1-6,0.2-8.9
		c0.1-2.9,0.1-5.5,0.1-7.8c8.2,0,16.9,0.3,26.2,0.9c9.3,0.6,18.7,1.1,28.2,1.6l16.1,22.6c0,8.6,0,16.5,0.1,23.7
		c0.1,7.2,0.3,14.9,0.8,23.1c-0.6,0.5-1.1,0.6-1.5,0.6c-0.4-0.1-0.7-0.2-0.9-0.5c-0.2-0.2-0.5-0.4-0.7-0.6c-0.2-0.1-0.6,0-1,0.5
		c0,0.8,0.1,1.2,0.5,1.4c0.3,0.2,0.7,0.2,1.1,0c0.5-0.1,0.8-0.3,1.1-0.3C836.2,339.8,836.4,340,836.4,340.4z M737.7,257.6l-1.6-1.6
		c0,0.8-0.1,1.2-0.3,1.5c-0.2,0.2-0.3,0.5-0.3,0.8c0.3,0.5,0.6,0.3,0.8-0.3C736.4,257.3,736.9,257.1,737.7,257.6z M735.4,355.9
		c0.3,0,0.7-0.1,1.1-0.5c0.5-0.3,0.8-0.5,1.1-0.5c-0.3-0.3-0.6-0.5-1-0.5c-0.4,0-0.6-0.4-0.6-1.1c-0.5,0-0.7,0.3-0.7,0.9
		c0.3,0,0.4,0.2,0.2,0.5C735.5,355.1,735.4,355.4,735.4,355.9z M743.3,266.3H741c0.5,0.6,1,0.9,1.6,0.9c0,0.2,0.1,0.2,0.2,0
		C743.1,267.2,743.3,266.9,743.3,266.3z M741.7,337.4c0.5,0.5,1,0.6,1.6,0.6c0.6-0.1,0.9-0.6,0.9-1.5c-0.5,0-1,0-1.6,0.1
		C742,336.7,741.7,336.9,741.7,337.4z M746.4,348.7v-0.9c-0.5,0.5-0.7,0.8-0.8,1c-0.1,0.2-0.1,0.7-0.1,1.5c0.5-0.5,0.9-0.6,1.2-0.5
		c0.4,0.2,0.8,0,1.2-0.5c0-0.3-0.3-0.4-0.8-0.3C746.7,349.1,746.4,349,746.4,348.7z M745.8,351.8c0,0.5,0.5,0.8,1.5,0.9
		c1,0.2,1.3-0.1,1-0.9c-0.5-0.3-0.8-0.4-1-0.2C747,351.8,746.5,351.8,745.8,351.8z M749.9,350.3c0.5-0.5,0.8-0.9,1.1-1.4
		c0.3-0.5,0.5-1.1,0.5-1.8c-0.8-0.8-1.4-0.9-1.9-0.5c-0.5,0.5-0.9,0.8-1.2,1.1c0.3,0.5,0.5,1,0.5,1.6
		C748.7,349.9,749.1,350.3,749.9,350.3z M749.4,343.7v0.9c0.5,0.5,1,0.7,1.6,0.7c0.6,0,0.9-0.2,0.9-0.7c-0.5,0-0.8-0.1-1-0.5
		C750.6,343.8,750.1,343.7,749.4,343.7z M753,350.3c0,0.6,0.5,0.9,1.6,0.9C754.6,350.6,754.1,350.3,753,350.3z M765.9,360
		c0,0.3,0.4,0.3,1.2,0.1c0.8-0.2,1.2-0.6,1.2-1c-0.5,0-1,0-1.6,0.1C766.2,359.3,765.9,359.5,765.9,360z M768.4,341.4
		c0,0.3,0.4,0.5,1.2,0.5c0.8,0,1.2-0.1,1.2-0.5c-0.5,0-0.8-0.1-0.9-0.2c-0.3,0-0.6,0-0.8-0.1C769,341,768.7,341.1,768.4,341.4z
		 M781.3,347.3h0.9c0.3,0,0.5-0.3,0.5-0.8c0-0.5-0.2-0.8-0.5-0.8c-0.5,0.5-0.8,0.8-1,0.9C780.9,346.8,781,347,781.3,347.3z
		 M781.3,346.2c1.5-0.6,2.6-1.7,3.2-3.2c-0.8,0-1.5,0.3-2.1,1S781.3,345.4,781.3,346.2z M797.5,337.9c0.8,0,1.2-0.1,1.4-0.2
		c0.1-0.1,0.2-0.6,0.2-1.4h-0.9c0,0.3-0.1,0.5-0.3,0.7C797.7,337.1,797.5,337.4,797.5,337.9z M798.2,359c0-0.5,0.1-0.7,0.5-0.7h0.5
		c-0.5-0.5-0.8-0.8-1.1-0.9c-0.3-0.1-0.5,0.2-0.5,0.9c0.3,0,0.4,0.1,0.3,0.3C797.8,358.8,797.9,359,798.2,359z M807.9,332.6
		c0,0.3,0.3,0.4,0.8,0.3c0.5-0.1,0.8-0.5,0.8-1.2c-0.3,0.5-0.6,0.6-1,0.5C808.1,332,807.9,332.2,807.9,332.6z"/>
</g>
</svg>
