<?xml version="1.0" encoding="utf-8"?>
<!-- Generator: Adobe Illustrator 22.0.1, SVG Export Plug-In . SVG Version: 6.00 Build 0)  -->
<svg version="1.1" id="Layer_1" xmlns="http://www.w3.org/2000/svg" xmlns:xlink="http://www.w3.org/1999/xlink" x="0px" y="0px"
	 viewBox="0 0 778 182.2" style="enable-background:new 0 0 778 182.2;" xml:space="preserve">
<style type="text/css">
	.st0{fill:#FFFFFF;}
</style>
<g>
	<path class="st0" d="M13.4,77.9c3.6-1.7,8.2-2.6,13.8-2.7c5.6-0.3,11.5,0.5,17.6,2.2c9.7,0.8,16.1,0.9,19,0.2
		c12.1-2.2,22.4-2,30.8,0.6c4.3,1.2,11.2,1.2,20.8,0.2l26.4-0.4c3.2,0.8,6.6,0.7,10.2-0.2c8.9-0.3,15.2,1.4,18.8,5.1
		c1.6,2.1,2.4,4.2,2.4,6.3c0,1.7-1.1,3.5-3.2,5.3c-1.6,1.3-3.5,2-5.6,2h-7c-4.1,1.3-8.5,1.3-13,0h-4.8c-7.7,1.2-15.7-0.3-23.8-4.3
		c-4.5-2-8.7-2.3-12.6-1c-5.9,2.3-10.3,3.3-13.4,2.9c-3.5-0.7-6.2-0.7-8.2,0c-3.1,0.9-6.9,1.2-11.4,0.8c-3.6-0.4-7.7,0-12.2,1.2
		c-6.1,1.6-11.2,2.1-15.2,1.6c-3.5-0.4-9.7,0-18.6,1.2c-10.1,0.8-16.8,0.3-20-1.4c-3.1-1.8-4.5-4.2-4.2-7C-0.2,87.4,0.7,85,2.8,83
		c1.6-1.6,3.1-2.5,4.6-2.7C9.4,80,11.4,79.2,13.4,77.9z"/>
	<path class="st0" d="M207.6,155.1c4.5-3.5,8.8-4.5,12.8-3.2c3.2,0.8,5.9,1.1,8,0.8c3.1-0.9,6.5-0.7,10.2,0.8c4,0.9,6.4,2.3,7.2,4
		c0.8,2.1,0.5,3.9-0.8,5.4c-1.9,2.1-4.5,3.7-8,4.6l-17.6,3c-4.1,1.2-7.7,1.1-10.6-0.4c-2.9-1.5-4.5-3.8-4.6-7
		C204,159.8,205.1,157.1,207.6,155.1z M338.5,72.3c-2,0.9-9-0.1-20.9-3.2l-2.4-0.2c-5.4-0.8-10.7,1.9-16,8.2l-0.4,8l-0.4,11.6
		l6.1,5.6h8.3c5.4,0.7,10.6,0.5,15.6-0.6c6.3-1.1,11.4-0.9,15.2,0.4c4,1.5,6,4.1,6.1,8c0,3.5-1.8,6.1-5.5,7.8c-3.7,1.9-8.7,2-15,0.4
		l-13-1c-4.1-0.3-8.3,0.2-12.6,1.4l-4.9,4.4c0.5,2.5,0.5,4.6,0,6.2v7.4c3.2,4.4,6.5,7.4,10,9c7.6-1.1,17-0.3,28.2,2.2l10,1.6
		c4.7-0.8,9.2-0.5,13.6,1c4,1.2,7.1,3.2,9.2,6c1.7,2.1,2.3,4.6,1.6,7.4c-0.8,2.8-3.1,4.5-6.8,5.2c-5.3,1.2-10.4,1-15.2-0.6
		c-5.9-3.2-11.2-4.9-16-5.2l-9.4-1.2c-2.1-1.1-4.3-1.4-6.4-1l-8-0.6c-3.7-0.7-8.5-0.7-14.4-0.2c-6.9,0.9-12.7,1.3-17.2,1l-13.2,0.8
		c-2.7,0.4-5.6,0.1-8.8-0.8c-2.7-0.7-4.2-2-4.6-4c-0.4-2.3,0.7-4.1,3.2-5.4c5.2-3.6,12-5.4,20.4-5.4c3.7-3.3,6.3-6.3,7.6-8.8
		c0.4-1.2,0.7-6,0.8-14.4c-1.7-1.9-3.7-3.3-6-4.4c-6.5-0.9-11.1-2.1-13.6-3.4c-2.3-1.2-3.3-2.7-3.2-4.4c0-1.9,1.5-3.8,4.6-5.8
		c2.9-1.6,7.1-2.6,12.4-3l5.4-5.6c0.5-6.9,0.5-13.6,0-20l-6.4-4.6c-4.1,0.4-7.8,0.3-11-0.4l-3-0.4c-13.7-1.1-23.2,1.3-28.4,7
		c0.1,1.6,0,3.3-0.4,5.2c-0.7,2-1.9,3.5-3.8,4.4c-1.9,0.8-3.7,0.7-5.6-0.4c-1.7-1.2-2.9-2.7-3.6-4.6l-2-3.2c-1.9-2.1-2.9-6.2-3-12.2
		l-0.4-4.4c-2.7-6.7-2.2-15.4,1.4-26.2c1.3-4.7,2-8.9,2-12.6c0-2.3,0.7-4.5,2-6.6l2.8-3.6l3-3.2c1.6-2.1,3.3-3.5,5-4
		c1.6-0.7,3.5-0.2,5.8,1.4l0.4,0.4c2.3,1.1,2.3,6.5,0,16.2c-4.3,10.9-5.9,18.7-5,23.4h0.2c4.1,3.2,8,5.7,11.6,7.6l3.8,2.4h0.1
		c0,0,9.3-0.9,13.6,1h10c4.3-3.9,10.7-9.4,10.7-9.4v-4.4c-0.7-17.7-0.7-27.7-0.2-30c1.3-3.3,4-5.4,7.9-6.2c4.9-0.3,8.5,1.7,10.9,6
		c1.7,4,2,8.1,1,12.4c-1.1,3.6-2.1,11-3.2,22.2c2,1.9,4.7,3.9,8.3,6.2c4.9,0,9-0.6,12.2-1.8c2.8-1.2,8.2-1.8,16.4-1.8
		c5.1,0.1,9.3,1.3,12.6,3.4c1.7,1.2,2.8,3.5,3.2,7c0.1,1.6-0.7,3.5-2.6,5.8c-2.2,2.4-4.3,3.6-6.3,3.6H338.5z M222,113.3
		c0.1-3.3,1.5-5.9,4.2-7.6c3.2-2.5,7-3.1,11.4-1.6c5.9,0.5,9.8,1.5,11.8,2.8c2,1.7,3,3.5,3,5.4c0,1.7-1.5,3.4-4.6,5
		c-10.1,4.7-17.3,5.7-21.6,3.2C223.3,118.7,221.9,116.3,222,113.3z"/>
	<path class="st0" d="M494.3,16.1c3.2,4.7,3.2,12.3,0,22.6l-1.2,3.8c3.6,6.6,6.7,10.7,9.3,12.3c1.7,0.5,2.6,1.6,2.6,3.2
		c1.8,1.3,2.2,2.9,1.2,4.8c-1.5,2.1-4.9,3.8-10.3,5.1c-6.9,1.2-13.1,1.5-18.6,1l-5.5-0.4c-1.8,0.7-3.6,0.7-5.1,0.2
		c-2.1-0.7-5.2-0.6-9.3,0.2c-6.2,3.6-10,6.9-11.3,10.1l0.4,0.4c0.5,1.3,0.6,2.8,0.2,4.6c-0.7,1.2-0.7,2.2-0.2,3.2l-1.4,6.7
		c-0.4,1.2-0.4,2.5,0,4c0.1,2.8-0.3,6.1-1.4,9.9l0.4,4.7c1.2,4,1.6,8.2,1.2,12.7l0.6,4.2l1.4,6.9c0.8,4,2.2,6.5,4.4,7.5
		c2.9,2.9,5.3,4.4,7.1,4.4l12.3,1.2c2,0.4,3.4,1.5,4.2,3.2c0.5,1.3,0.5,3.4,0,6.1c-0.4,1.6-2.2,3-5.3,4.2l-11.3,2.6
		c-2.9,1.6-7,1.5-12.3-0.4c-2.6-1.4-4.2-2.7-4.7-3.8l-1.4-2l-3-5.3l-2.4-5.1c-0.3-2.2-0.8-3.8-1.6-4.6c-2.1-5.4-2.9-10.4-2.4-15
		c0.1-1.5,0-3-0.4-4.6c-0.7-1.8-0.6-3.6,0.2-5.3c0.4-1.3,0.3-2.6-0.4-3.8c-0.4-1.6-0.3-4.3,0.4-8.1v-4.6c-0.4-1.3-0.3-3.2,0.2-5.5
		c0.3-1.8,0.2-4.3-0.2-7.3c-1.1-4.5-1.1-7.9,0-10.3c-1.5-3-3.4-5.7-5.7-8.1h-1.6l-6.9,1c-6.7,1.7-12.3,1.5-16.6-0.8
		c-2.1-1.5-3.4-3.5-4-6.1c-0.3-3.3,0.9-5.7,3.4-7.3c9.4-5.7,19.3-6.5,29.7-2.6c5.4,1.7,9.4,2,11.9,0.8c5.4-3.3,12.1-4.6,20.2-3.8
		c2.1,0.4,4,0.3,5.7-0.2h2.4c5-3.6,8.6-7.3,10.9-11.1l-2.8-7.1c-5-7.8-4.8-14.7,0.6-20.8c1.3-2.2,2.6-3.6,3.8-4.2l3.6-1
		c1.7-0.4,3-0.2,4,0.6l1.8,0.6C492.4,9.9,493.6,12.2,494.3,16.1z M485,156.7c-0.3-2.7,0.3-4.1,1.8-4.4c5.1-1.9,10.4-2.9,16-3.2
		c4.4,0.4,8.7,0.4,13,0c3.3-1.5,6.4-1.7,9.2-0.6c4,0.5,8.2,0.6,12.6,0.2c4-1.2,8.2-0.4,12.6,2.4c4.4,1.6,6.7,3.2,6.8,4.8
		c0.8,2.1,1,4.1,0.6,6c-0.5,2.1-3.1,4-7.6,5.6c-1.5,0.8-4.3,0.7-8.6-0.2c-3.3-1.1-6.7-1.2-10-0.4c-5.7,0.8-10.1,0.9-13.2,0.4
		c-2.1-1.1-4.3-1.3-6.4-0.8c-2.3,0.4-4.7,0.1-7.4-1c-3.5-1.5-6.8-2-10-1.6l-7.8-2.2C485.4,160.8,484.9,159.1,485,156.7z M514.2,56.5
		c4-2,8.8-3,14.4-3l12.4-1.4c1.6-0.7,3.8-0.6,6.6,0.2h6c4-0.4,8.3-0.1,12.8,1c3.2,0.8,5.5,2.3,7,4.6c1.2,1.7,1.7,3.4,1.4,5
		c-0.7,3.2-2.4,5.4-5.2,6.6c-3.1,1.3-8.5,1.3-16.2,0l-6.6-0.6c-2,0.4-3.9,0.5-5.6,0.2l-5.2-0.6l-9.6-1.2c-2.7,0.4-5.8-0.1-9.4-1.6
		c-4.1-1.9-6.2-3.6-6.2-5.2C510.6,59.1,511.7,57.7,514.2,56.5z"/>
	<path class="st0" d="M631.6,51.9c3.3-5.5,6.1-8.9,8.2-10.4l8.4-8.6c2.1-2.7,4.4-3.1,6.8-1.4c2,1.6,2.5,3.8,1.6,6.6
		c-2.9,8-6.1,13.8-9.4,17.4l-6.2,7.6c-6.3,8.7-13.4,15.3-21.4,19.8l-4.4,3.4c-1.7,2-3.9,3.7-6.6,5c-3.3,1.7-6.5,2-9.4,0.8
		c-3.1-1.5-4.9-3.2-5.4-5.2c-0.7-2.5-0.1-5.6,1.8-9.2c0.5-1.5,1.8-2.5,3.8-3.2c8.7-5.7,14.7-9.4,18.2-11
		C624.4,60.1,629.1,56.2,631.6,51.9z M622.2,144.5c0.8-6.9,0.8-11.7,0-14.2c-1.1-2.3-1.3-4.4-0.6-6.4c0.5-1.5,0.4-3.1-0.4-5
		c-0.8-1.7-0.8-3.5,0-5.2c0.4-2.1,0.3-4.4-0.2-6.8l-0.6-8c0-2.8,0.9-4.9,2.8-6.4c4.4-4.9,8.4-6.2,12-3.8c1.6,1.3,3.3,1.7,5.2,1.2
		c2-0.7,4-0.8,6-0.4c1.2,0.4,2.4,0.3,3.6-0.2h3.8c9.5,0.8,16.3,3.7,20.4,8.6c3.6,8,4.8,18.3,3.6,30.8c-0.4,6-1.7,9.5-3.8,10.6
		c-1.3,0.5-2.3,1.8-3,3.8c-1.1,1.9-2.6,2.9-4.6,3c-2.1,0-4.1,0.9-5.8,2.8c-1.6,1.3-4.4,1.7-8.4,1l-6.4,1c-5.5,0-8.7,1.5-9.6,4.6
		c-0.7,1.3-1.7,2.3-3.2,2.8c-2.1,0.4-4.1,0.2-5.8-0.6C623.1,155.7,621.4,151.3,622.2,144.5z M639.9,102.3c-2.3,0-3.6,1.3-4.2,4
		c-1.1,4.6-1.3,7.8-0.6,9.5c0.5,1.7,0.5,3.5,0,5.4c-0.7,2.1-0.3,4.2,1,6.4c0.5,1.3,0.7,3.1,0.4,5.2c0,2,0.8,3.3,2.4,4
		c1.1,0.4,2.3,0.3,3.8-0.2c1.7-0.4,3.1-0.3,4.2,0.2c0.8,0.4,1.5,0.3,2-0.4h3.4c1.7-0.3,3.5-0.9,5.4-1.8c2.1-1.5,3.4-2.6,3.8-3.6
		l2-6.4c1.1-2.6,1.1-5.3,0.2-8l-1.4-7.8c-0.3-2.3-1.7-4.2-4.2-5.8c-1.7-0.9-3.5-1.3-5.4-1c-2,0.5-3.8,0.5-5.4,0
		c-1.5-0.4-2.8-0.3-4,0.2H639.9z M657.6,58.5c2.1-2.3,4.8-2.9,8-1.8c2.8,0.8,6.3,0.5,10.4-1c4.7-1.5,9.4-1.8,14.2-1
		c3.7,0.9,7,0.9,9.8,0c4.1-1.5,7.6-1.4,10.4,0.2c2.5,1.7,4.1,4.4,4.6,8c-0.4,3.2-1.6,5.3-3.6,6.4c-2.7,1.3-5.2,1.5-7.6,0.4
		c-4.1-0.7-7.6-0.5-10.4,0.4c-3.7,1.7-7.1,2-10.2,0.8c-3.3-0.7-7.5-0.2-12.6,1.4c-4.5,1.7-8.6,1.9-12.2,0.4c-2.5-1.9-3.8-4.2-3.8-7
		C654.8,62.9,655.8,60.5,657.6,58.5z M660.2,27.9c-2.4-1.7-3.5-4.1-3.4-7.2c0.5-4.5,2-8.3,4.4-11.2c2.4-3.6,6.5-6.1,12.4-7.4
		l7.6-1.8h5.8c2.4-0.7,5.5-0.3,9.2,1c8.9,1.6,15.5,6.9,19.6,15.8c1.7,4.4,1.4,7.5-1,9.4c-2.3,1.2-4.3,1.4-6.2,0.6
		c-2.1-1.2-4.4-3.4-6.8-6.6c-1.2-1.5-3.3-2.5-6.4-3c-12.8-2.3-22.3,0.7-28.4,9C664.8,29.2,662.5,29.7,660.2,27.9z M728.2,98.9
		c-5.5-0.7-11,0-16.6,2l-4.2,0.4c-0.7,3.1-0.9,6.2-0.6,9.4c0.4,4,0.2,6.7-0.6,8.2c-0.8,5.2-1,8.3-0.6,9.4c1.1,5.1,1.4,9.8,1,14.2
		c-0.9,4.3-0.9,7.7,0,10.2v5.2l0.4,5c0.5,2.9,0.7,6.1,0.4,9.6c-0.5,3.6-1.7,6.2-3.4,7.8c-2.4,1.7-4.8,2.3-7.2,1.6
		c-2.3-1.1-4.1-2.9-5.4-5.4c-0.9-3.2-0.7-8,0.6-14.4c0.5-3.1,0.6-5.4,0.2-7c-0.7-1.6-0.7-3.8-0.2-6.6l0.4-9.8
		c-0.4-2.5-0.1-5.4,0.8-8.6l0.6-4.6l-0.4-4.2l-1-4.8c-0.7-1.9-0.9-4.1-0.6-6.6l-0.4-6.6c-0.9-6.1-0.7-10.4,0.8-12.8
		c1.6-2.7,3.6-4.3,6-4.8c2.3-0.4,4.2-0.1,5.8,1l2,2c5.2-0.8,14.5-1.2,27.8-1.2c7.5-0.8,13.1,1.1,16.8,5.8c3.2,4,4.4,7.8,3.6,11.4
		c-0.7,2.1-0.9,6.9-0.6,14.2c0.1,6.4-0.3,11.9-1.2,16.6c-4.3,8.7-7.7,13.5-10.4,14.6c-1.1,0.1-2.3,1-3.6,2.6c-1.2,1.2-2.5,1.9-4,2
		l-2,1.2c-2.9,0.8-5.9,0.5-9-0.8l-4-1.4c-1.9-0.7-3.9-2.7-6.2-6c-2.7-3.9-3.7-6.7-3-8.6c0.8-2.5,2.4-4.1,4.8-4.8
		c1.6-0.7,3.9-0.1,6.8,1.6c1.6,2.4,3.9,3.9,6.8,4.4c1.7,0.1,3.5-0.5,5.4-1.8l4.2-5c1.6-3.2,2.5-9.3,2.6-18.2l-2.2-12
		C737.1,100.8,733.6,99.3,728.2,98.9z M732.8,65.5c-1.7-1.1-5-5.5-9.8-13.2c-4.3-4.3-6.9-8.9-8-13.8c-0.7-2.9,0-5.1,2-6.6
		c2.1-1.9,4.3-1.5,6.4,1c2,2,3.9,3.5,5.6,4.6l11,11.8c3.6,4.7,6.7,7.7,9.4,9.2c4,2,7.5,4.2,10.4,6.6c2.9,2.5,6,4.5,9.2,5.8
		c4.3,1.7,7.1,4.5,8.4,8.2c0.9,3.2,0.6,6.3-1,9.4c-0.7,0.9-2.6,2-5.8,3.2c-2.3,0.8-5.3,0.5-9-1c-3.3-1.1-6.2-2.8-8.6-5.2l-5.8-4.6
		c-3.2-1.6-6.3-5.1-9.2-10.4C736.6,68.4,734.8,66.7,732.8,65.5z"/>
</g>
</svg>
