<?xml version="1.0" encoding="utf-8"?>
<!-- Generator: Adobe Illustrator 22.0.1, SVG Export Plug-In . SVG Version: 6.00 Build 0)  -->
<svg version="1.1" id="Layer_1" xmlns="http://www.w3.org/2000/svg" xmlns:xlink="http://www.w3.org/1999/xlink" x="0px" y="0px"
	 viewBox="0 0 42.6 47" style="enable-background:new 0 0 42.6 47;" xml:space="preserve">
<style type="text/css">
	.st0{fill:#FFFFFF;}
</style>
<g>
	<g>
		<g>
			<path d="M42.1,42.6c0,2.1-1.7,3.9-3.9,3.9H4.4c-2.1,0-3.9-1.7-3.9-3.9V4.4c0-2.1,1.7-3.9,3.9-3.9h33.8c2.1,0,3.9,1.7,3.9,3.9
				V42.6z"/>
			<path class="st0" d="M38.2,47H4.4C2,47,0,45,0,42.6V4.4C0,2,2,0,4.4,0h33.8c2.4,0,4.4,2,4.4,4.4v38.2C42.6,45,40.6,47,38.2,47
				L38.2,47z M4.4,1.1C2.5,1.1,1,2.6,1,4.5v38.2c0,1.9,1.5,3.4,3.4,3.4h33.8c1.8,0,3.4-1.5,3.4-3.4V4.5c0-1.9-1.5-3.4-3.4-3.4H4.4
				L4.4,1.1z"/>
		</g>
		<g>
			<g>
				<path class="st0" d="M22.8,39c6.8,0.6,10.5-3.6,10.4-9.1c0-3.3-2.1-6.1-4.3-7.7c1.6-1.8,3.3-3.6,3.3-6.7c0-5.4-4.3-8.1-9.3-7.6
					c-7.3,0.8-9.1,9.7-3.8,14C13,26.2,13.3,38.2,22.8,39z M26.8,14.1c1.1,2.1-0.5,4.3-1.6,5.7c-1.5-0.6-3.9-2-4.2-3.8
					C20.5,12.6,25.5,11.5,26.8,14.1z M23.4,24.5c1.5,0.8,3.5,1.8,4.3,3.4c1.5,3-0.7,6.4-3.6,6.4C18.7,34.4,19.4,25.7,23.4,24.5z"/>
			</g>
			<g>
				<polygon class="st0" points="40.9,22.1 37.2,22.1 37.2,18.5 35.4,18.5 35.4,22.1 31.7,22.1 31.7,24 35.4,24 35.4,27.7 
					37.2,27.7 37.2,24 40.9,24 				"/>
			</g>
			<g>
				<path class="st0" d="M10.9,8.2c0.8,0,1.6,0,2.4,0c0,10,0,20,0,30c-1.8,0-3.6,0-5.4,0c0-7,0-13.9,0-20.9C5.6,18.6,3.1,20,2,20.6
					c0-1.8,0-3.5,0-5.3C5.4,13.3,8.4,11,10.9,8.2z"/>
			</g>
		</g>
	</g>
</g>
</svg>
