<?xml version="1.0" encoding="utf-8"?>
<!-- Generator: Adobe Illustrator 22.0.1, SVG Export Plug-In . SVG Version: 6.00 Build 0)  -->
<svg version="1.1" id="Layer_1" xmlns="http://www.w3.org/2000/svg" xmlns:xlink="http://www.w3.org/1999/xlink" x="0px" y="0px"
	 viewBox="0 0 1038.3 168.9" style="enable-background:new 0 0 1038.3 168.9;" xml:space="preserve">
<style type="text/css">
	.st0{fill:#FFFFFF;}
</style>
<g>
	<path class="st0" d="M42.8,79.6c-1.1,0.6-2,1.3-2.6,2.2c-0.5,0.1-1.5,0.1-3.1-0.1c-1.6-0.2-3.3-0.3-5.1-0.5
		c-1.8-0.2-3.5-0.5-4.9-0.6c-1.5-0.2-2.3-0.3-2.4-0.3c-0.1-0.1-0.2-0.2-0.3-0.4c-0.1-0.1-0.2-0.2-0.3-0.4c-0.1,0-0.2,0-0.4-0.1
		c-0.1-0.1-0.2-0.2-0.2-0.3c-0.1,0-0.3,0-0.5,0c-0.2,0-0.3-0.1-0.3-0.2c-0.2,0.4-0.5,0.5-0.8,0.5c-0.3,0-0.6-0.2-0.8-0.5
		c-0.1,0-0.2-0.1-0.3-0.3c-0.1-0.2-0.1-0.4-0.1-0.6c-0.4,0.4-0.8,0.5-1.3,0.5c-0.5,0-0.9-0.2-1.3-0.5c-0.1-0.1-0.2-0.2-0.4-0.4
		c-0.1-0.1-0.2-0.2-0.2-0.4c-0.1,0-0.2-0.1-0.2-0.2c0-0.1,0-0.3,0-0.5c-0.6-0.4-1.2-0.8-1.7-1.2c-0.5-0.4-1.1-0.8-1.7-1.2
		c-0.7-0.5-1.4-0.9-1.9-1.4c-0.5-0.4-1.1-0.8-1.6-1.2c-0.5-0.2-1-0.6-1.5-1.1c-2.3-2.2-4-4.8-4.9-7.7c-1-2.9-1.7-5.7-2.2-8.2
		c-0.4-1.3-0.7-2.6-1-3.7c-0.3-1.1-0.6-2-1-2.6c0.2-0.5,0.4-0.9,0.5-1.3c0.2-0.4,0.5-0.9,0.7-1.5c0.2-0.6,0.5-1.3,0.7-2
		c0.2-0.7,0.5-1.6,0.7-2.7c0.2-1,0.4-2.2,0.4-3.6c0.1,0,0.3-0.1,0.5-0.2C3.8,37.2,3.9,37,4,36.8c0-0.1,0.1-0.4,0.2-0.7
		c0.1-0.4,0.2-0.7,0.4-1.1c0.4-1.3,1.1-3.1,2.1-5.2c1-2.1,3.4-4.5,7-7l15.6-6.4c0.4,0,0.8-0.1,1.2-0.2c0.4-0.1,0.8-0.3,1.2-0.5
		c0.4-0.1,0.7-0.2,0.9-0.1c0.2,0.1,0.4,0.3,0.5,0.6c0.4,1.1,0.9,1.8,1.6,2c0.7,0.2,1.5,0.4,2.5,0.4c0.1,0,0.3,0,0.5,0.1
		c0.2,0.1,0.5,0.1,0.9,0.1c0.2-0.5,0.5-0.9,0.9-1.1h0.5c0.6,0.5,1.3,0.7,2.1,0.7c0.8,0,1.4-0.1,1.9-0.2h0.4c2.9,0.4,5.6,1.4,8,3.1
		c2.4,1.7,4.1,3,5,3.8c0.2,0.4,0.4,0.6,0.5,0.7c0.2,0.4,0.6,0.8,1.1,1.3c0.5,0.5,1.1,0.9,1.8,1.3c0,0.1,0.3,0.6,0.9,1.6
		c0.6,0.9,1.4,1.4,2.4,1.6c0,0.2,0.2,1,0.6,2.3c0.4,1.3,0.8,2.8,1.2,4.7c0.5,1.8,0.9,3.9,1.2,6.1c0.3,2.3,0.5,4.4,0.5,6.5
		c0,0.4-0.1,0.8-0.2,1.2c-0.1,0.4-0.2,0.9-0.4,1.4c-0.1,0.4-0.2,0.8-0.4,1.3c-0.1,0.5-0.2,0.9-0.4,1.3c-0.4,0.7-0.6,1.4-0.8,2
		c-0.2,0.6-0.3,1.2-0.3,1.6c1.5,0,1.3,1.2-0.4,3.6c-1.7,2.4-3.8,4.8-6.4,7.4c-2.1,1.8-4.1,3.5-6.2,4.9c-2.1,1.5-3.7,2.2-4.9,2.2
		C45.4,78.4,43.9,79,42.8,79.6z M32.8,36.9c-1,0.2-2,0.4-2.8,0.6c-0.9,0.4-1.6,0.8-2.2,1.2c-0.6,0.4-0.9,0.9-0.9,1.6
		c-0.4,1-0.8,1.8-1.4,2.5c-0.5,0.7-1.1,1.3-1.7,1.9c-0.5,0.5-1.2,1-2,1.6c0.1,1.3,0.3,2.6,0.6,3.7c0.3,1.1,0.6,2,0.8,2.7
		c0.2,0.9,0.6,1.7,1.1,2.6c0.7,0,1.6,0.3,2.5,0.9c0.9,0.6,1.8,1.3,2.7,2c1.1,1,2.2,1.8,3.2,2.4c1,0.6,2,0.4,3-0.5
		c1.8-0.6,3.4-1.3,4.8-2c1.6-1,3.2-2.3,4.8-4.1c1.6-1.8,2.4-4,2.4-6.7c0-0.4-0.1-0.8-0.2-1.4c-0.1-0.5-0.2-1.1-0.4-1.7
		c-0.2-0.7-0.5-1.4-0.9-2c-0.4-0.6-0.9-1-1.5-1.3c-0.4-0.2-0.7-0.5-0.9-0.7c-0.4-0.2-0.7-0.5-1-0.6c-0.3-0.2-0.6-0.2-0.8,0.1
		c-0.6,0-1.2-0.1-1.6-0.2c-0.7-0.1-1.5-0.4-2.3-0.8c-0.8-0.4-1.6-1.2-2.5-2.3C34.8,36.5,33.9,36.7,32.8,36.9z M101.5,150.7
		c-0.7,0.9-1.3,1.8-1.7,2.7c-0.7,1.1-1.5,2.2-2.2,3.3c-0.7,1.1-1.6,2.1-2.6,3.1c-1,1-2.1,1.9-3.5,2.8c-1.3,0.9-3,1.7-4.9,2.5
		c-1,0.4-1.9,0.7-2.7,0.9c-0.8,0.2-1.6,0.4-2.3,0.4c-1.5,0.4-2.7,0.7-3.8,1.1c-1,0.4-1.7,0.9-2.1,1.5c-0.2,0-0.5,0-0.7,0
		c-0.2,0-0.5-0.1-0.9-0.2c-0.5,0-0.9-0.1-1.4-0.2c-0.4-0.1-0.9-0.2-1.4-0.4c-1,0-2,0-2.9-0.1c-1-0.1-1.9-0.1-2.7-0.1
		c-0.9-0.1-1.8-0.2-2.7-0.2c-0.2-0.2-0.5-0.4-0.7-0.5c-0.2-0.1-0.5-0.2-0.7-0.4c-0.2-0.1-0.5-0.2-0.7-0.2c-0.2,0-0.4-0.1-0.5-0.2
		c-0.2,0.1-0.5,0.2-0.6,0.3c-0.2,0.1-0.3,0.1-0.5,0.1c-0.1,0-0.2,0-0.4,0c-0.1,0-0.2-0.1-0.4-0.2c-0.2,0.2-0.5,0.4-0.7,0.4
		c-0.2,0-0.5-0.2-0.7-0.5c-0.2,0-0.4,0-0.5-0.1c-0.1-0.1-0.2-0.2-0.2-0.5c-1.5,0.7-3.8,0.2-6.9-1.5c-3.1-1.7-6.1-4.2-9.1-7.5
		c-2.3-2.6-4.4-5.4-6.1-8.6c-1.8-3.2-2.9-6.6-3.4-10.2c0-0.6,0.1-1.2,0.2-1.8c0.1-0.5,0.2-1.1,0.3-1.8c0.1-0.7,0.2-1.5,0.3-2.2
		c0-1.1,0-2.3,0.1-3.5c0.1-1.2,0-2.3-0.1-3.1c1.1-1,2-2.1,2.7-3.4c0.7-1.3,1.3-2.7,1.9-4.1c0.6-1.6,1.3-3.3,2.2-5
		c0.9-1.8,2.1-3.4,3.8-5c1.7-1.6,4-3.1,6.9-4.5c2.9-1.4,6.6-2.7,11.3-3.8c0.7-0.1,1.5-0.2,2.2-0.2c1.5-0.1,3.1-0.2,5-0.3
		c1.9-0.1,3,0.2,3.4,0.8c0.9,0.6,1.7,1,2.5,1.2c0.8,0.2,1.6,0.3,2.3,0.5c0.7,0.1,1.5,0.2,2.2,0.1c0.7-0.1,1.5-0.2,2.2-0.3
		c1.5-0.1,2.8-0.1,4.1,0.1s2.5,1.1,3.6,2.7c0.2-0.1,0.5-0.2,0.9-0.2s0.7,0.1,1.1,0.4c0.5,0.1,0.9,0.3,1.4,0.5
		c0.4,0.2,0.9,0.5,1.6,0.7c0.6,0.5,1.3,0.9,2,1.4c0.7,0.4,1.5,0.8,2.4,1.2c0.7,1.2,1.4,2.1,2,2.7c0.2,0.4,0.6,0.7,1,1
		c0.4,0.3,0.8,0.5,1.2,0.5c0,0.1,0.7,1.3,2.1,3.5c1.4,2.2,2.5,5.4,3.2,9.7c0.4,2.8,0.4,6,0,9.7c-0.4,3.7-1.3,7.7-2.7,12.1
		C102.9,148.8,102.1,149.8,101.5,150.7z M71.2,120.6c-0.5,0.2-1,0.4-1.5,0.5c-0.5,0.1-1,0.2-1.5,0.2c-0.5,0.1-1,0.2-1.5,0.4
		c-0.5,0.1-0.9,0.2-1.3,0.2c-1.8,0.2-3.5,0.6-5,1c-1.5,0.4-2.5,1.2-2.8,2.3l-3.5,11.3c0.2,0.7,0.5,1.4,0.9,2
		c0.4,0.6,0.8,1.2,1.3,1.6c0.7,1.2,1.9,2.6,3.5,4c1.5-0.1,2.8,0,4,0.5c1.2,0.4,2.4,0.9,3.7,1.4c1.5,0.7,3,1.3,4.6,1.6
		c1.6,0.4,3.5,0.2,5.7-0.5c0.6-0.6,1.2-1.2,1.6-1.6c0.5-0.5,1-1.1,1.6-1.8c0.6-0.7,1.2-1.6,1.8-2.6c1.5-2.2,2.5-4.8,3.1-7.9
		c0.6-3-0.2-6-2.4-9L71.2,120.6z M93.1,78.4c-0.2,0.3-0.4,0.5-0.6,0.6c-0.2,0-0.6,0-1-0.1c-0.4-0.1-0.9-0.2-1.4-0.3
		c-0.9-0.2-1.9-0.5-3.1-0.6c-1.2-0.2-2.6-0.2-4-0.1c-0.2,0.5-0.6,0.7-1.2,0.7s-1.2-0.1-1.9-0.4c-0.5,0-1-0.1-1.5-0.2
		C77.8,78,77.4,78,77,78c-0.5,0-0.9,0.1-1.2,0.2c-0.3,0.1-0.5,0.4-0.6,0.7c-0.2-1.1-0.4-2.1-0.5-3.1c-0.1-1-0.1-1.9-0.1-2.7
		c0-0.7,0-1.4,0.1-2.1c0.1-0.7,0.2-1.2,0.3-1.7c0-0.9,0-1.4-0.1-1.6c-0.1-0.2-0.3-0.4-0.6-0.4c0.4-0.7,0.7-1.3,0.9-1.8
		c0-0.5,0-1,0-1.5c0-0.5-0.1-0.9-0.4-1.3c0.4-0.2,0.6-0.5,0.7-0.8c0.1-0.3,0.2-0.6,0.2-1c0-0.2-0.1-0.5-0.3-0.7
		c-0.2-0.2-0.4-0.5-0.6-0.7c2.6-0.4,4.3-0.5,5.1-0.5c0.9,0,1.6,0.1,2.4,0.2c0.7,0.2,1.8,0.4,3.3,0.5c1.5,0.1,4.2-0.2,8.2-0.6
		c1.3,0.5,2.4,0.8,3.3,0.8c0.9,0.1,1.6,0,2.2-0.3c0.5-0.1,0.8-0.4,0.9-0.8c0.1-0.4,0.1-0.9,0-1.6c0.2-0.6,0.3-1.5,0.3-2.7
		c-0.1-1.2-0.3-2.6-0.6-4c-0.2-0.7-0.5-1.5-0.6-2.3c-0.2-0.8-0.4-1.5-0.6-2.1c-0.2-0.7-0.5-1.3-0.6-1.8c-0.2-0.5-0.3-0.9-0.3-1.3
		c-1.1-0.1-2-0.2-2.6-0.3c-0.6-0.1-1.1-0.1-1.5-0.1c-0.5,0-0.9,0.1-1.3,0.2l-0.5,1.8c-0.1,0-0.4,0-0.7,0c-0.4,0-0.8-0.1-1.3-0.2
		c-0.6-0.1-1.3-0.2-2-0.3c-0.7-0.1-1.5-0.2-2.4-0.3c-2,0-3.9,0-5.9,0.1c-2,0.1-3.4,0.3-4.2,0.8c0-1.3,0-2.5,0-3.5
		c0-1-0.1-1.8-0.2-2.6c0-0.9-0.1-1.6-0.2-2.2c-0.1-0.6-0.2-1.2-0.2-1.8c-0.2-1.3-0.4-2.8-0.5-4.4c-0.1-1.6-0.1-4-0.1-7.3l8.1-0.4
		c0,0.6,0.1,1,0.2,1.3c0.1,0.2,0.3,0.4,0.5,0.4c0.2,0.1,0.6,0.2,1,0.1c0.4-0.1,1-0.2,1.7-0.3c0.9-0.1,1.9-0.3,3.1-0.5
		c1.2-0.2,2.7-0.3,4.6-0.3c0.6,0.7,1.1,1.3,1.6,1.6c0.4,0.4,0.8,0.5,1.2,0.5c0.1,0,0.3-0.1,0.5-0.2c0.2-0.1,0.3-0.4,0.3-0.7
		c1.5,0.6,2.4,0.7,2.9,0.3c0.5-0.4,0.7-1.1,0.7-2.1c0-0.9-0.2-1.9-0.5-3c-0.4-1.2-0.7-2.2-0.9-3c-0.2-0.4-0.4-0.8-0.5-1.3
		c0.1-0.4,0.2-0.7,0.2-0.9c0-0.2,0-0.4,0-0.5c-0.1-0.2-0.2-0.5-0.4-0.6c-0.1-0.2-0.2-0.4-0.4-0.6c-0.1,0-0.2,0-0.3-0.1
		c-0.1-0.1-0.1-0.2-0.1-0.3c0-1.5,0.4-2.6,1.3-3.3c0.9-0.7,1.9-1,3.1-0.7c0,0.1,0,0.2,0.1,0.3c0.1,0.1,0.2,0.1,0.3,0.1
		c0.1,0,0.2,0,0.3,0.1c0.1,0.1,0.2,0.1,0.3,0.1c1.1,0,2.1,0,3.1,0.1c1,0.1,1.8,0.2,2.6,0.3c0.7,0.1,1.4,0.2,1.9,0.4
		c0.5,0.1,1.1,0.2,1.7,0.4c1.1,0.4,2.1,0.5,2.9,0.5c0.9,0,2.1-0.5,3.8-1.6c0.7,0.4,1.2,0.5,1.4,0.5s0.4-0.2,0.6-0.5
		c0-0.1,0.1-0.2,0.4-0.3c0.2-0.1,0.7,0.1,1.5,0.5c0.1,0.7,0.2,1.4,0.3,2c0.1,0.6,0,1.2-0.1,1.6c0,0.5-0.1,0.9-0.2,1.4
		c-0.1,0.4-0.2,0.8-0.2,1.2c-0.2,0.5-0.4,0.9-0.5,1.4c-0.1,0.4-0.1,0.9-0.1,1.4c0,0.4,0.1,0.8,0.2,1.3c0.1,0.5,0.4,1,0.9,1.5
		c-0.1,1.1-0.3,2-0.5,2.8c-0.2,0.8-0.3,1.4-0.5,1.7c-0.4,1.1-0.5,1.8-0.5,2.1c0.1,0.3,0.5,0.8,1.2,1.4h-0.7c-0.4,0-0.5,0.2-0.5,0.5
		c0,0.4,0.5,1,1.5,2c0,2.6-0.3,4.5-0.8,5.9c-0.5,1.3-1.1,2.5-1.7,3.5c-0.7,1.1-1.2,2.2-1.5,3.2c-0.2,1,0.1,2.4,1.1,4.1
		c-0.2,1.7-0.4,3.3-0.5,4.7c-0.1,1.4-0.1,2.7-0.1,3.9c0,1.1,0,2.1,0.1,3.1c0.1,1,0.2,1.8,0.3,2.6c0.1,1.6,0.2,3,0.2,4.1
		c0,1.2-0.2,2.5-0.5,3.9c-0.6,0.4-0.9,0.7-0.8,1c0.1,0.3,0.3,0.6,0.6,0.8c0.2,0.4,0.6,0.7,1.1,1c0.5,0.3,1,0.5,1.5,0.6
		c0,0.6,0,1.2,0,1.6c0,0.5,0,1,0,1.5c-0.1,0.4-0.2,0.7-0.4,1.1c-0.1,0.4-0.2,0.7-0.2,0.9c-0.1,0.5-0.2,0.9-0.4,1.4
		c-0.1,0.4-0.2,0.9-0.2,1.6c0,0.6,0.1,1.3,0.2,2.2c0.1,0.9,0.4,1.8,0.7,2.9c-1,0.4-1.4,0.9-1.3,1.5c0.1,0.6,0.4,1.2,0.7,1.8
		c0.1,0.6,0.2,1.1,0.4,1.6c0.1,0.4,0.1,0.8-0.2,1c-0.4,0.4-1,0.6-1.8,0.8c-0.9,0.2-2.2,0.2-4,0.1c-2,0.4-3.4,0.6-4.4,0.6
		c-1,0.1-1.6,0-2-0.1c-0.4,0-0.5-0.1-0.5-0.2c0.1-0.1,0.2-0.3,0.3-0.5c0.1-0.2,0-0.5-0.4-0.6c-0.4-0.2-1.8-0.1-4.4,0.3
		c-0.6,0.7-1.3,1.2-2,1.3c-0.7,0.1-1.3,0.1-1.8-0.2c-0.7-0.1-1.2-0.4-1.5-0.7c-0.2-0.4-0.3-0.7-0.2-1.1c0.1-0.6,0.2-1.6,0.1-2.9
		C99,88,99,86.6,99,85.1c0-0.6,0-1.2-0.1-1.7c-0.1-0.5-0.1-1-0.1-1.4c0-0.5,0-0.9,0-1.1c0-0.2,0-0.4,0-0.5c1-0.7,1.7-1.5,2.2-2.2
		c0.5-0.7,0.5-1.3,0.2-1.6c-0.4-0.2-1.2-0.3-2.4-0.3c-1.2,0.1-3,0.3-5.3,0.8C93.4,77.7,93.2,78.1,93.1,78.4z"/>
	<path class="st0" d="M296.9,158.8c-0.8,1.1-1.7,1.6-2.7,1.6h-0.9c-1.5-0.1-3.1-0.3-4.8-0.5c-1.7-0.2-3.4-0.3-4.9-0.5
		c-1.6-0.1-3-0.2-4.2-0.2c-1.2,0-2,0.1-2.4,0.4c-0.6-0.2-1.2-0.3-1.7-0.2c-0.5,0.1-0.9,0.4-1,0.7H274c-0.7-0.4-2.2-0.5-4.3-0.4
		c-2.1,0.1-3.2,0.4-3.2,0.7c-1.2,0.1-2.4,0.2-3.7,0.2c-1.2,0-2.5,0-3.8,0c-1.3,0-2.7-0.1-4.1-0.2c-1.4-0.1-2.8-0.2-4.1-0.4
		c-1,0-1.9,0-2.8-0.1c-0.9-0.1-1.9-0.1-2.8-0.1c-0.9-0.1-1.8-0.2-2.7-0.3c-1-0.1-1.9-0.1-2.7-0.1c-1.5,0-2.8,0-3.9-0.1
		c-1.2-0.1-2.2-0.2-3.2-0.5c-0.7,0-1.4-0.1-2.1-0.2c-0.7-0.1-1.3-0.2-1.9-0.2c-0.5,0-1,0-1.5,0.1c-0.5,0.1-0.9,0.2-1.3,0.3
		c-0.2-0.2-0.5-0.4-0.8-0.5c-0.3-0.1-0.6-0.2-1-0.2c-0.6,0-1.1,0.1-1.6,0.2c-0.4,0.1-0.8,0.3-1,0.5c-0.7,0.1-1.5,0.2-2.3,0.3
		c-0.8,0.1-1.5,0.1-2.1,0.1c-1,0.2-2.1,0.4-3.3,0.5c-0.7-0.2-1.3-0.5-1.6-0.7c-0.7-0.4-1.6-0.7-2.5-0.9c-0.9-0.2-1.7-0.4-2.5-0.4
		c-5.5,0.7-10.2,1.2-14,1.6c-3.8,0.3-7,0.5-9.4,0.5c-1.8,0-3.3,0-4.4-0.1c-1.1-0.1-2-0.2-2.6-0.3c-0.7,0-1.3-0.1-1.8-0.4
		c-0.4,0.2-0.7,0.4-0.9,0.5c-0.4,0.4-0.8,0.6-1.3,0.6c-0.5,0.1-1-0.3-1.5-1h-0.4c-1.5,0.2-3.1,0.4-4.8,0.5c-1.7,0.1-3.2-0.1-4.4-0.7
		c-1.2-0.5-2-1.4-2.5-2.8c-0.4-1.4-0.1-3.6,1-6.5c0.6,0,1-0.1,1.3-0.3c0.2-0.2,0.4-0.5,0.5-0.8c0-0.2-0.1-0.5-0.2-0.9
		c-0.1-0.4-0.2-0.9-0.4-1.5c-0.4-0.6-0.7-1.4-1-2.3c-0.3-0.9-0.5-1.9-0.5-3c0.1,0,0.2-0.1,0.4-0.3c0.1-0.2,0.2-0.5,0.2-0.8
		c0-0.2,0-0.5-0.1-0.7c-0.1-0.2-0.2-0.5-0.3-0.7c0.5,0,0.7-0.3,0.7-1c0-0.7,0-1.4,0-2.1c-0.1-0.1-0.2-0.3-0.3-0.5
		c-0.1-0.2-0.1-0.3-0.1-0.5c0-0.1,0-0.2,0-0.3c0-0.1,0-0.2,0-0.3v-2.9c0-1.3-0.1-2.3-0.3-2.9c-0.2-0.6-0.9-2.1-2.1-4.4
		c-0.2-0.1-0.4-0.4-0.5-0.8c-0.1-0.4-0.1-0.9-0.1-1.4c-0.1-0.7-0.2-1.5-0.2-2.4c0-0.9,0-1.6,0-2.4c0.1-0.6,0.2-1.2,0.3-1.6
		c0.1-0.5,0.1-0.8,0.1-0.9l14.6-2.2l4.4,2.6l1.8-0.9l8.6,0.2l-1.1,5.5l0.9,11.7c-0.4,0.9-0.7,1.5-1.1,1.9c-0.4,0.4-0.6,0.7-0.7,0.8
		c-0.2,0.1-0.4,0.2-0.5,0.4c-0.1,0.1-0.1,0.2-0.1,0.4c-0.4,1.7,0.3,3.1,1.9,4.3c1.6,1.2,3.3,1.8,5,1.9c1.2,0.2,2.3,0.1,3.2-0.4
		c0.9-0.5,1.5-1.3,1.7-2.4c2.7,0.7,5.2,1.3,7.4,1.6c2.3,0.4,4.4,0.5,6.5,0.5c2.1,0.1,4.2,0.2,6.4,0.1c2.2-0.1,4.6-0.2,7.3-0.3
		c2,0,4.1-0.1,6.6-0.2c2.4-0.1,5.1-0.2,8.1-0.4c0.9,0.6,1.8,0.9,2.9,0.7c0.1,0,0.3,0,0.5,0c0.2,0,0.4,0,0.6,0c0.2,0,0.5,0,0.8-0.1
		c0.3-0.1,0.6-0.2,1-0.3c1.3-0.6,2.7-0.9,4.2-0.9s2.6,0,3.5,0c0.4,0.1,0.7,0.2,1.1,0.4l2.4,0.9c1.7-0.5,2.7-0.9,3.1-1.3
		c0.1-0.1,0.2-0.2,0.2-0.4c0-0.1-0.1-0.2-0.2-0.4c0.1,0,0.8-0.1,2.1-0.4c1.3-0.2,2.8-0.5,4.7-0.9c1.8-0.2,3.8-0.5,5.8-0.8
		c2-0.3,3.9-0.6,5.6-0.8c1.1-0.1,2.1-0.2,2.9-0.4c0.9-0.1,1.4-0.2,1.6-0.2c0.2,0.1,0.5,0.2,0.8,0.4c0.3,0.1,0.6,0.2,0.8,0.2
		c0.2,0.1,0.5,0.2,0.7,0.3c0.2,0.1,0.5,0.1,0.7,0.1c0,0.1,0.1,0.2,0.4,0.4h12.1c1.5,0.4,2.1,1.5,1.8,3.4c-0.2,1.9-0.5,3.4-0.9,4.7
		c-0.1,0.5-0.3,1-0.5,1.6c0,0.1,0,0.4-0.1,0.7c-0.1,0.4-0.1,0.9-0.1,1.5c-0.1,0.6-0.2,1.3-0.2,2s0.1,1.5,0.2,2.2
		c0,0.4,0,0.7,0.1,1.1c0.1,0.4,0.1,0.7,0.1,0.9c0.1,0.4,0.2,0.7,0.3,1c0.1,0.3,0.2,0.6,0.3,0.8C298.1,156.8,297.7,157.7,296.9,158.8
		z M267,76.7c0-1.3,0-2.7,0.1-4.2c0.1-1.5,0.1-2.8,0.1-4c0-1.2-0.1-2.2-0.2-2.8c-0.1-0.7-0.3-0.9-0.5-0.8V62c-0.1-1.5-0.2-3.5-0.3-6
		c-0.1-2.6-0.1-5.1-0.1-7.5c0-2.4,0-4.5,0.1-6.3c0.1-1.8,0.2-2.8,0.3-3c0.1-0.4,0.2-0.8,0.3-1.3c0.1-0.5,0.2-0.9,0.3-1.3
		c0-0.5,0-0.9,0.1-1.4c0.1-0.4,0.2-0.9,0.3-1.4c0.2-3.9,0-7.3-0.8-10.2c-0.8-2.9-1.2-4.4-1.2-4.7c-0.1-0.9-0.2-1.7-0.2-2.5
		c0-0.8,0.1-1.6,0.2-2.3c0.5-3.2,1.6-5,3.5-5.6s3.5-0.6,4.9-0.1c1.1,0.5,2.1,0.8,2.9,1c0.9,0.2,1.7,0.3,2.6,0.3
		c0.9,0.1,1.6,0.1,2.4,0c0.7-0.1,1.5-0.2,2.2-0.4c0.4,0,0.8,0,1.3-0.1c0.5-0.1,1-0.1,1.5-0.1c0.4-0.1,0.8-0.2,1.3-0.2
		c0.5,0,1,0,1.6,0c0.6,0.1,1.2,0.4,1.7,0.7c0.5,0.4,0.9,1.2,1,2.6c0,0.9-0.1,1.9-0.2,3.1c-0.1,1.2-0.4,2.7-0.7,4.6
		c-0.5-0.1-0.8-0.1-1,0.2c-0.2,0.2-0.2,0.6-0.1,1.1c0,0.5,0.1,1,0.3,1.6c0.2,0.6,0.4,1.2,0.6,1.8c0.2,0.7,0.5,1.4,0.6,1.9
		c0.2,0.5,0.3,0.9,0.3,1.2c-0.4,0.9-0.6,1.5-0.8,2c-0.2,0.5-0.2,0.9-0.1,1.1c0,0.2,0.1,0.4,0.2,0.5c0.1,0.1,0.3,0.2,0.5,0.2
		c-2.1,2.1-3.1,4.3-3.2,6.8c-0.1,2.4,0.2,4.4,0.6,5.9c0,0.7,0.2,1.6,0.5,2.6c0.1,3.1,0.2,5.6,0.2,7.6c0,2-0.1,3.6-0.2,4.8
		c0,1.3-0.1,2.4-0.3,3c-0.2,0.7-0.3,1.2-0.3,1.6c0,0.2,0,0.4-0.1,0.5c-0.1,0.1-0.1,0.3-0.1,0.5c0,0.1,0,0.3,0,0.5s0.1,0.3,0.2,0.5
		c-1-0.1-1.4,0.1-1.3,0.7c0,0.4,0.1,0.8,0.3,1.4c0.2,0.5,0.5,1.3,1,2.1c-0.5,0.9-0.8,1.7-0.8,2.5c-0.1,0.8,0,1.6,0.3,2.5
		c0.1,0.7,0.3,1.4,0.5,2.1c0.2,0.7,0.5,1.2,0.7,1.6c0,0.4,0.1,0.6,0.4,0.7c-0.5,0.7-0.8,1.7-0.9,2.9c-0.1,1.2-0.1,2.1,0.2,2.6
		c0,0.2,0.1,0.4,0.2,0.4c0.1,0,0.3,0,0.5,0l-0.2,20.1v3.5c0.1,0.9-0.1,1.6-0.7,2.1c-0.6,0.5-1.3,0.6-2,0.3c-0.4,0-0.7-0.1-0.9-0.3
		c-0.2-0.2-0.4-0.4-0.5-0.6c-0.7-0.1-1.5-0.2-2.3-0.3c-0.8-0.1-1.6,0-2.5,0.1c-1,0-2,0.1-2.9,0.2c-1,0.1-1.9,0.2-2.7,0.2
		c-2.8,0.5-5.4,0.8-7.7,0.8c-2.3,0.1-3.5-0.6-3.5-2.1c0-0.6,0-1.2,0-1.6c0-0.5,0-1.1,0.1-1.7c0.1-0.7,0.2-1.4,0.3-2.1
		c0.1-1.8,0.2-3.8,0.4-5.9c0.1-2.1,0.2-3.3,0.2-3.7c-1.5,0-2.6,0-3.4,0.1c-0.8,0.1-1.4,0.2-1.7,0.3c-0.5,0.1-0.8,0.3-0.9,0.5
		c-0.1,0.2-0.2,0.5-0.2,0.7c-0.1,0.1-0.2,0.2-0.4,0.4c0,0.1-0.1,0.2-0.2,0.4l-17.8-0.4H239c-0.1-1-0.2-1.8-0.2-2.6s0-1.5,0-2.3
		c0-0.8,0.1-1.6,0.2-2.3v-1.5c-1.7,0.1-3.2,0.2-4.4,0.4c-1.2,0.1-2.3,0.2-3.1,0.2c-1,0.1-1.8,0.2-2.5,0.3c-0.7,0.1-1.4,0.1-2.1,0.1
		c-0.7,0-1.6,0-2.5-0.1c-0.9-0.1-1.9-0.2-3-0.3c-0.4,1-0.6,1.8-0.7,2.6c-0.1,0.7-0.2,1.4-0.2,2c0,0.5,0.1,1,0.2,1.5
		c0.1,0.5,0.3,1,0.5,1.5c0.4,1.2,0.7,2.7,0.9,4.6c0.2,1.8,0,4.7-0.7,8.6h-2.2c-1.1,0.1-2.3,0.2-3.5,0.3c-1.2,0.1-2.4,0.1-3.5,0.1
		s-2,0-2.8-0.1c-0.8-0.1-1.3-0.2-1.4-0.5h-0.7c-1.1-0.2-2.5-0.3-4.2-0.2c-1.7,0.1-3.2,0.3-4.4,0.5c-0.1,0-0.3,0.1-0.5,0.4
		c-0.7,0.4-1.6,0.4-2.5,0.2c-0.9-0.2-1.4-0.7-1.6-1.5c-0.2-0.6-0.4-1.2-0.5-1.8c-0.1-0.6,0-1.2,0.1-1.8c0-0.7,0.1-1.4,0.2-2
		c0.1-0.6,0.2-1.2,0.4-1.8c0-0.6,0.1-1.2,0.2-1.9c0.1-0.7,0.2-1.4,0.2-2.1c0-0.6-0.1-1.2-0.2-1.9c-0.1-0.7-0.3-1.4-0.5-2.1
		c0.4-0.4,0.7-0.9,1.1-1.6c0.4-0.7,0.6-1.3,0.7-1.9c0-0.6-0.2-1-0.6-1.2c-0.4-0.2-1.3,0.3-2.5,1.4c-0.4-1.1-1.5-1.7-3.5-1.7
		c-2-0.1-4,0.1-6.2,0.5c-2.8,0.5-5.3,1.1-7.6,1.8c-2.3,0.7-3.4,1.1-3.6,1.1l-8.4-1.5c0.4-1.5,0.6-2.7,0.7-3.8c0.1-1.2,0.2-2.6,0.2-4
		c0-1.5-0.4-2.7-1.1-3.7c-0.6-1.8-0.9-3.1-0.8-3.8c0.1-0.7,0.3-1.4,0.6-2.1c0-0.2,0.1-0.6,0.2-1.1c0.1-0.5,0.2-1.1,0.2-1.8h2
		c1.9,0.4,4,0.6,6,0.6c2.1,0.1,3.5-0.3,4.2-1c0,0.1,0,0.2,0.1,0.4c0.1,0.1,0.2,0.2,0.3,0.2c0.4,0.6,0.9,0.9,1.6,0.8
		c0.7-0.1,1.3-0.4,1.6-1c0,0.2,0.2,0.4,0.6,0.5c0.4,0.1,1,0.2,1.7,0.2c0.6,0,1.3,0,2.2-0.1c0.9-0.1,1.8-0.2,2.7-0.3
		c0.9,0,1.7,0,2.5,0c0.8,0,1.6,0,2.3,0c0.6,0,1.1,0,1.6,0.1c0.4,0.1,0.8,0.2,1,0.3c0.4,0.5,1,0.9,1.9,1.4c0.9,0.4,2.3,0.6,4.1,0.6
		c1.6,0,3.5-0.1,5.9-0.4c2.3-0.2,5-0.7,8.1-1.3c0.6,0.4,1.2,0.6,1.6,0.8c0.5,0.2,0.9,0.2,1.3,0.1c0.2,0,0.4-0.2,0.5-0.5
		c0.1-0.3,0.2-0.7,0.2-1.2c3.7,0.1,6.6,0.2,8.8,0.2c1,0,1.9,0,2.8,0.1c0.9,0.1,1.7,0.1,2.5,0.1c0.7,0,1.3,0,1.8,0c0.5,0,0.8,0,0.9,0
		l3.5-1.5c0.1,0.4,0.3,0.6,0.5,0.8c0.2,0.2,0.4,0.3,0.6,0.3c0.2,0,0.5,0,0.9-0.1c0.4-0.1,0.8-0.2,1.3-0.3c0.4,0,0.9,0,1.5-0.1
		c0.6-0.1,1.3-0.2,2-0.3c0.7,0,1.6,0,2.5,0s1.9,0.1,3,0.2c0.2,1.5,0.3,2.6,0.2,3.4c-0.1,0.8-0.2,1.5-0.4,2.1
		c-0.1,0.4-0.2,0.7-0.2,0.9c0,0.2,0,0.5,0,0.7c0,0.4,0,0.7,0,1c0,0.3,0.1,0.6,0.4,1c0.4,0,0.8,0,1.2,0c0.4,0,0.9,0,1.6,0
		c0.5,0,1,0,1.6-0.1c0.6-0.1,1.2-0.1,1.8-0.1c1.1,0,2.1,0,3.1,0c1,0,1.8-0.1,2.4-0.2v0.4c0.4,0.6,0.8,1.1,1.4,1.4
		c0.5,0.3,1.8,0.3,3.8-0.1V76.7z M217.5,61.2c-1.3,0.1-2.1,0.5-2.5,1.2l-12.1-0.2c0.4-0.7,0.2-1-0.5-0.8c-0.7,0.2-1.2,0.5-1.6,1
		c-0.4-1.1-0.7-1.7-1-1.8c-0.3-0.1-0.7-0.1-1.2,0c-0.2,0.1-0.4,0.2-0.5,0.3c-0.1,0.1-0.3,0.1-0.5,0.1c-0.1,0.1-0.3,0.2-0.5,0.3
		c-0.2,0.1-0.3,0.1-0.5,0.1c-0.7-0.6-2.1-1.4-4-2.3c-2-0.9-3.6-1.6-4.9-2.1c-0.6-0.2-1.3-0.5-2-0.9c-2-1.8-3.4-3.8-4.5-6
		c-1-2.2-1.9-4.2-2.5-6c-0.4-1.1-0.7-2-1.1-2.7s-0.7-1.3-1.1-1.6c0.1-2.8,0.3-5.1,0.5-7c0.1-1.1,0.3-2.2,0.5-3.4
		c0.2-1.2,0.3-2.2,0.5-3.2c0.2-0.1,0.5-0.5,0.9-1c0.4-0.5,0.7-1.2,1.1-2.1c0.7-1.7,1.9-3.8,3.6-6.2c1.6-2.4,4.1-4.8,7.4-7l14.6-3.3
		c0.1,0,0.3,0,0.5,0c0.2,0,0.3-0.1,0.5-0.2c0.1,0,0.2,0,0.4-0.1c0.1-0.1,0.3-0.2,0.5-0.3c0.2-0.1,0.5-0.2,0.7-0.1
		c0.2,0.1,0.4,0.3,0.4,0.6c0,0.4,0.2,0.7,0.5,1c0.3,0.3,0.8,0.5,1.6,0.5c0.7,0.1,1.6,0.1,2.5-0.1s1.9-0.5,2.8-0.8
		c0.7,0.4,1.3,0.6,1.7,0.7c0.4,0.1,0.8,0.2,1.2,0.2s0.5-0.2,0.4-0.7c1.3,0.2,2.7,0.6,4.2,1.2c1.5,0.5,2.9,1.2,4.4,1.9
		c1.8,1.1,3.4,2.1,4.8,3c1.3,0.9,2.1,1.4,2.2,1.4c-0.2,0.1-0.4,0.2-0.4,0.4c0,0.1,0.1,0.2,0.2,0.4c0,0.1,0.1,0.2,0.2,0.3
		c0.1,0.1,0.2,0.2,0.4,0.3c0.1,0.1,0.3,0.2,0.5,0.4c0.2,0.1,0.5,0.2,0.7,0.4c0.1,1,0.3,1.7,0.5,2.2c0.1,1,0.4,1.8,0.7,2.6
		c0.4,0.7,0.9,0.7,1.6,0c0.4,1.7,0.7,3.2,1.1,4.6c0.4,1.8,0.7,3.9,1,6.1c0.3,2.3,0.5,4.1,0.5,5.6c0,0.4-0.1,0.8-0.3,1.3
		c-0.2,0.5-0.4,1-0.6,1.6c-0.1,0.6-0.3,1.3-0.6,1.9c-0.3,0.7-0.5,1.3-0.6,1.7c-0.4,0.9-0.7,1.6-1,2.3c-0.3,0.7-0.5,1.2-0.5,1.6
		c1.1,0,1.2,0.5,0.4,1.6c-0.9,1-2.2,2.3-4,3.8c-1.2,1.1-2.5,2.1-3.9,3.1c-1.4,1-2.7,1.8-3.9,2.6c-0.6-0.2-1.2-0.3-1.7-0.3
		c-0.5,0.1-1.1,0.3-1.6,0.6c-0.4,0.4-0.8,0.7-1.2,1.1c-0.4,0.4-0.8,0.7-1.2,1.1C220,61.3,218.8,61.2,217.5,61.2z M205.7,24.9
		c-2,0.5-2.9,1.3-2.7,2.6c-0.5,0.4-1,0.9-1.6,1.6c-0.6,0.7-1.2,1.3-1.8,1.9c-0.7,0.6-1.5,1.4-2.4,2.4c0.2,1.6,0.6,2.9,1.1,4
		c0.5,1.1,1,2,1.5,2.6c0.5,0.7,0.9,1.3,1.3,1.6c0.4,0.3,0.6,0.5,0.7,0.5c1.1,0,2,0.2,2.7,0.6c0.7,0.4,1.4,0.9,2.1,1.4
		c0.7,0.6,1.5,1.1,2.4,1.5c0.9,0.4,2.1,0.2,3.7-0.4c1.8-0.6,3.4-1.3,4.6-2c1.5-0.7,2.8-1.8,4.1-3.2c1.3-1.4,1.8-3.1,1.6-5
		c0-0.6,0-1.3-0.1-2.1c-0.1-0.8-0.2-1.6-0.3-2.3c-0.4-0.9-0.8-1.5-1.2-2c-0.4-0.5-1-0.6-1.7-0.4c-0.4-0.1-0.7-0.3-0.9-0.5
		c-0.2-0.1-0.5-0.3-0.9-0.5c-0.4-0.2-0.7-0.2-0.9-0.1c-0.6,0-1.1-0.1-1.5-0.2c-0.7-0.1-1.5-0.4-2.3-0.7c-0.8-0.4-1.6-1-2.3-2
		C209.3,24.1,207.6,24.4,205.7,24.9z"/>
	<path class="st0" d="M462.4,158.5c-1,1.1-1.9,1.6-2.7,1.6c-0.5,0-0.9,0-1.4-0.1c-0.4-0.1-0.9-0.2-1.4-0.3c-0.4,0-0.7,0-1.1-0.1
		c-0.4-0.1-0.7-0.2-0.9-0.3c-0.6,0-1.2-0.1-1.6-0.2c-0.5-0.1-0.9-0.2-1.3-0.2s-0.7,0-1.1,0.1c-0.4,0.1-0.7,0.2-0.9,0.3
		c-0.1,0-0.3,0-0.5,0c-0.1,0-0.3-0.1-0.5-0.2c-0.4,0-0.7,0.1-1.1,0.2c-0.4,0.1-0.5,0.3-0.5,0.5c-0.2-0.1-0.6-0.2-1.1-0.4
		c-0.5-0.1-1-0.2-1.6-0.2c-1.1,0-2.2,0.1-3.4,0.3c-1.2,0.2-1.7,0.4-1.7,0.6c-1.1,0.1-2.3,0.2-3.5,0.2c-1.2,0-2.4,0-3.5,0
		c-1.2,0-2.5-0.1-3.8-0.2c-1.3-0.1-2.5-0.2-3.8-0.4c-1,0-1.9,0-2.7-0.1c-0.9-0.1-1.8-0.1-2.7-0.1c-0.9-0.1-1.8-0.2-2.7-0.3
		c-1-0.1-1.9-0.1-2.7-0.1c-1.5,0-2.7,0-3.8-0.1c-1.1-0.1-2.1-0.2-3.1-0.5c-0.7,0-1.4-0.1-2.1-0.2c-0.7-0.1-1.3-0.2-1.7-0.2
		c-0.6,0-1.2,0-1.7,0.1c-0.5,0.1-1,0.2-1.4,0.3c-0.1-0.2-0.3-0.4-0.6-0.5c-0.3-0.1-0.6-0.2-1-0.2c-0.6,0-1.1,0.1-1.6,0.2
		c-0.4,0.1-0.8,0.3-1.2,0.5c-0.7,0.1-1.4,0.2-2.1,0.4c-0.7,0.1-1.4,0.2-2.1,0.2c-1,0.1-2.1,0.2-3.3,0.4c-0.7-0.2-1.3-0.5-1.6-0.7
		c-0.7-0.4-1.6-0.7-2.6-0.9c-1-0.2-1.8-0.3-2.6-0.2c-5.5,0.7-10.5,1.2-14.9,1.5c-4.5,0.2-8.3,0.4-11.6,0.4c-2.4,0-4.5,0-6.3-0.1
		c-1.8-0.1-3.3-0.2-4.5-0.3c-1.2,0-2.4-0.1-3.7-0.4c-0.4,0.4-0.7,0.5-0.9,0.5c-0.4,0.4-0.8,0.6-1.3,0.6c-0.5,0.1-1-0.2-1.5-0.8
		c-0.7,0-1.6,0-2.7,0c-1,0-2.1-0.1-3.2-0.2c-1.7-0.1-3.3-0.4-4.8-0.9c-1.5-0.5-2.5-1.1-2.8-1.8c-0.2-0.4-0.4-0.9-0.4-1.5
		c0-0.6,0.1-1.3,0.2-2c0.1-0.9,0.5-2,1.1-3.3c0.1-0.1,0.2-0.3,0.2-0.5c0-0.7-0.1-1.3-0.2-1.6c0.1-0.7,0.2-1.3,0.1-1.7
		c-0.1-0.4-0.2-1-0.3-1.7c-0.4-0.6-0.6-1.4-0.8-2.4c-0.2-1-0.3-2.3-0.3-4c0.1,0,0.2-0.1,0.2-0.2c0.1-0.1,0.2-0.2,0.4-0.4
		c0-0.2,0-0.5-0.1-0.8c-0.1-0.3-0.2-0.6-0.3-0.8c0.4,0,0.6-0.2,0.8-0.6c0.2-0.4,0.3-0.9,0.5-1.4c0.1-0.4,0.2-0.9,0.3-1.5
		c0.1-0.6,0.1-1.1,0.1-1.5v-2.2c0-2.2-0.2-3.8-0.5-4.8c-0.3-1-1.2-2-2.7-3.1c0-0.1-0.1-0.3-0.2-0.5c-0.1-0.2-0.2-0.5-0.2-0.7
		c-0.2-0.7-0.4-1.6-0.4-2.7c0-1,0.1-2,0.2-3c0-0.9,0.1-1.6,0.2-2.4c0.1-0.7,0.2-1.2,0.2-1.3l11.7-1.6l7.9,2.6l1.6-1.8l8.6,1.1
		l-1.1,13.9l1.5,8.2l-2.7,2.2c-0.1,0.5-0.2,0.9-0.1,1.3c0.1,0.4,0.2,0.7,0.5,1.1c0.5,1.1,1.4,2,2.7,2.8c1.3,0.8,2.7,1.3,4.2,1.6
		c1.5,0.2,2.8,0.2,3.9-0.1c1.2-0.3,1.9-1.1,2.1-2.3c7.2-0.9,12.1-1.2,14.6-1c2.6,0.2,4.8,0.5,6.6,1c0.7,0.2,1.6,0.5,2.5,0.6
		s2.1,0.3,3.6,0.5c1.3,0,3,0,5,0c2,0,4.5-0.2,7.6-0.5c0.5,0.5,1,0.8,1.5,0.9c0.4,0,0.9,0,1.7,0c0.8,0,1.7-0.2,2.7-0.5
		c2-0.4,3.9-0.5,5.9-0.5s3.8,0.1,5.4,0.4c1.3,0.2,2.9,0.5,4.6,0.7c1.1-0.1,1.9-0.4,2.4-0.7c0.1-0.1,0.4-0.3,0.9-0.5
		c0.1-0.1,0.2-0.2,0.2-0.4c0-0.1-0.1-0.2-0.2-0.4c0.1,0,0.6-0.1,1.6-0.2c0.9-0.1,2.1-0.2,3.6-0.4c1.5,0,3.1-0.1,4.9-0.2
		c1.8-0.1,3.7-0.2,5.5-0.4h13.5c0.4,0,0.8,0.1,1.2,0.3c0.4,0.2,0.8,0.3,1.2,0.5c0.4,0.2,0.7,0.4,1.1,0.5h3.3
		c1.1,0.2,1.7,0.7,1.8,1.5c0.1,0.7,0.1,1.5-0.2,2.2c-0.4,0.7-0.8,1.6-1.3,2.7c0,0.1,0,0.3-0.1,0.5c-0.1,0.2-0.1,0.5-0.1,0.9
		c0,0.4,0,0.8,0,1.4s0,1.1,0,1.6c0,1.1,0,2.3,0.1,3.5c0.1,1.2,0.2,2.3,0.5,3.1C463.8,156.5,463.4,157.4,462.4,158.5z M377.5,36.3
		c-2.2-0.2-4.6-0.3-7.1-0.5c-2.6-0.1-5-0.1-7.2,0c-2.3,0.1-3.6,0.4-4.1,0.9c-1.1-0.1-2.1-0.2-2.9-0.3c-0.9-0.1-1.6-0.1-2.4-0.1
		c-0.6,0.1-1.2,0.2-1.7,0.4c-0.5,0.1-1,0.2-1.4,0.4c-0.2,0.1-0.5,0.2-0.7,0.4c-0.1,0-0.2,0-0.4,0c-0.1,0-0.2,0-0.4,0h-12.6H334
		c-0.4,0.2-0.4-0.2-0.2-1.3c0-0.1,0-0.3,0.1-0.6c0.1-0.3,0.1-0.6,0.1-0.8c0.1-0.2,0.2-0.5,0.3-0.9c0.1-0.4,0.2-0.8,0.3-1.3
		c-0.1-0.4-0.2-0.7-0.2-1.1c-0.1-0.1-0.2-0.3-0.4-0.5c0-0.1,0-0.2,0-0.4c0-0.1,0-0.2,0-0.4c0-0.6,0-1.1,0.1-1.5
		c0.1-0.4,0.2-0.7,0.3-1.1c0.1-0.6,0.2-1.5,0.4-2.6c0.1-1.1,0-3.2-0.4-6.4c1.8,0.2,3.2,0.2,4,0c0.9-0.2,1.7-0.5,2.6-0.9
		c0.6-0.2,1.4-0.5,2.3-0.6s2.5-0.3,4.7-0.3c0,1.1,0.4,2,1.2,2.6c0.8,0.6,1.9,1,3.2,1.1c1.1,0.1,2.4,0,4-0.3c1.6-0.3,3.2-0.8,4.9-1.6
		c0.5,0.6,1,0.9,1.5,1c0.5,0.1,1,0.1,1.5,0.1c0.1,0,0.2,0,0.4,0.1c0.1,0.1,0.3,0.1,0.5,0.1c-0.1-0.1-0.2-0.3-0.3-0.5
		c-0.1-0.2-0.1-0.4-0.1-0.6c0-0.1,0-0.3-0.1-0.5c-0.1-0.2-0.1-0.4-0.1-0.6c-0.1-0.5-0.2-1.1-0.4-1.7c-0.1-0.7-0.2-1.6-0.4-2.8
		c-0.1-1.2-0.2-2.8-0.3-4.7c-0.1-1.9-0.1-4.3-0.1-7.2c3.8-1,6.7-1.4,8.8-1.2c2.1,0.2,3.7,0.5,4.8,0.8c0.4,0.1,0.7,0.2,1.1,0.3
		c0.4,0.1,0.7,0.1,1.1,0.1c0.2,0,0.5-0.1,0.8-0.3c0.3-0.2,0.6-0.5,1-1h0.2c0.2,0,0.7,0,1.4,0c0.7,0,1.4,0,2.1,0c0.7,0,1.4,0.1,2,0.2
		c0.6,0.1,1.1,0.4,1.5,0.7c0,2.8-0.1,5-0.3,6.6c-0.2,1.6-0.3,2.8-0.5,3.7c-0.4,0.9-0.5,1.5-0.5,1.8c0.1,0.4,0.5,0.7,1.4,0.9
		c0.1,0.5,0.2,0.9,0.2,1.3c0,0.4-0.1,0.7-0.4,1.1c-0.2,0.4-0.6,0.5-1.1,0.5c-0.2,1.7,0,2.6,0.7,2.7c0.7,0.1,2.3-0.1,4.8-0.5
		c0.4,0,0.8-0.1,1.2-0.2c0.4-0.1,0.9-0.2,1.6-0.2c0.6,0.7,1.4,1.1,2.4,1.1c1,0,2.2-0.4,3.7-1.1c0.1,0,0.3-0.1,0.5-0.2
		c0.2-0.1,0.5-0.3,0.9-0.5c0.7,0.4,1.2,0.5,1.6,0.4c0.3-0.1,0.3-0.4,0.1-0.7c0.4,0,0.7,0,1,0c0.3,0,0.6,0,1,0c0.4,0,0.7,0.1,1.1,0.2
		c0.4,0.1,0.7,0.2,1.1,0.2c0.2,0.1,0.5,0.2,0.8,0.3c0.3,0.1,0.6,0.1,1,0.1c0.2,0.1,0.6,0.2,1,0.2c0.4,0,0.9,0,1.4,0l-0.9,3.1
		c0,0.1,0,0.3,0.1,0.5c0.1,0.2,0.1,0.6,0.1,1.1c0.1,0.5,0.2,1,0.4,1.6c0.1,0.5,0.2,1.1,0.4,1.7c0,1.1,0,2.2,0.1,3.4
		c0.1,1.2,0.1,2.1,0.1,2.8c-0.5,0.7-0.8,1.3-0.9,1.7c-0.1,0.4-0.2,0.8-0.2,1c0,0.2,0.1,0.4,0.2,0.4l-15.2,0.2l-1.8-1.1l-13.9,1.6
		C380.9,36.6,379.7,36.5,377.5,36.3z M385.9,41.8c0.4,0.2,0.9,0.4,1.4,0.6c0.5,0.1,0.9,0.3,1.4,0.5c0.4,0.2,0.9,0.4,1.6,0.5
		c1.5,0.6,2.9,1.2,4.3,1.7c1.4,0.5,2.5,1.1,3.4,1.6c0,0.2,0.2,0.6,0.5,1c0.3,0.4,0.7,0.8,1.2,1.2c0.4,0.4,0.7,0.8,1.1,1.2
		c0.4,0.4,0.7,0.8,1.1,1c0.4,0.4,0.7,0.7,0.9,0.9c0.2,0.2,0.4,0.4,0.5,0.4c0,1,0.1,1.8,0.2,2.6c0.1,1.1,0.4,2.2,0.7,3.3
		c0.4,1.1,0.9,1.6,1.6,1.6c0.2,0.7,0.4,1.4,0.5,2c0.4,1,0.7,2.2,0.9,3.6c0.2,1.4,0.4,2.9,0.4,4.5c-0.1,0.6-0.3,1.2-0.5,1.8
		c-0.2,0.6-0.4,1.2-0.6,1.8c-0.2,0.6-0.5,1.3-0.7,1.9c-0.2,0.7-0.5,1.3-0.7,1.9c-0.2,0.6-0.5,1.2-0.6,1.7c-0.2,0.5-0.4,1.1-0.6,1.6
		c-0.1,0.5-0.2,1-0.4,1.5c-0.1,0.5-0.2,0.9-0.2,1.3c-1.1,0.7-2.2,1.6-3.3,2.5c-1.1,0.9-2.2,1.8-3.3,2.7c-1.8,1.5-3.5,2.8-5,4
		c-1.5,1.2-2.7,2-3.4,2.2c-0.7,0.4-1.5,0.5-2.2,0.5c-0.7,0-1.3,0-1.8,0c-0.4,0.1-0.7,0.2-1.1,0.2c-0.4,0-0.7,0.1-0.9,0.2
		c-0.2,0.1-0.5,0.2-0.7,0.4c-0.2,0.1-0.4,0.2-0.5,0.4c-0.4,0.1-1.2,0.2-2.6,0.2c-1.3,0-2.9,0-4.6,0l-9.7-0.4
		c-0.1,0.1-0.3,0.2-0.5,0.2c-0.2,0-0.4-0.1-0.5-0.2c-0.4,0-0.6-0.1-0.8-0.4c-0.2-0.2-0.3-0.5-0.3-0.9c-0.1,0.4-0.3,0.5-0.6,0.5
		c-0.3,0-0.6-0.1-1-0.4c-0.5-0.1-0.9-0.4-1.3-0.7c-0.4-0.4-0.5-0.8-0.4-1.3c-0.4-0.1-0.7-0.3-1.1-0.6c-0.4-0.3-0.7-0.6-1.1-0.8
		c-0.4-0.2-0.7-0.5-1.1-0.8c-0.4-0.3-0.7-0.6-1.1-1c-1.2-0.7-2.7-1.6-4.4-2.6c-1.1-1.1-2-2.2-2.7-3.2c-0.7-1-1.3-2-1.6-3
		c-0.4-1-0.6-1.9-0.8-2.8c-0.2-0.9-0.3-1.8-0.5-2.7c-0.1-0.4-0.2-0.7-0.2-1.1c0-0.4-0.1-0.7-0.2-1.1c-0.1-0.2-0.2-0.5-0.4-0.8
		c-0.1-0.3-0.2-0.6-0.4-0.8c0-0.6,0.1-1.2,0.2-1.6c0-0.4,0.1-0.9,0.2-1.6c0.1-0.7,0.2-1.4,0.4-2.3c0-0.4,0-0.8,0-1.3
		c0-0.5,0.1-1,0.2-1.5c0-0.5,0-1,0-1.5c0-0.5,0.1-1,0.2-1.6c0.2,0,0.5-0.1,0.6-0.2c0.2-0.1,0.4-0.4,0.6-0.7c0.1-0.2,0.2-0.5,0.4-0.9
		c0.1-0.4,0.3-0.8,0.5-1.3c0.2-0.9,0.6-1.9,1.2-3c0.5-1.2,1.4-2.3,2.5-3.6c1.1-1.2,2.6-2.4,4.4-3.5s4.3-2.1,7.5-2.9
		c0.1,0.1,0.3,0.2,0.5,0.2c0.2,0,0.4-0.1,0.6-0.2c0.2,0,0.5-0.2,0.7-0.5c0.2-0.4,0.4-0.7,0.5-1.1c0.4-0.1,0.9-0.2,1.5-0.4
		c0.6-0.1,1.2-0.2,1.8-0.2c0.6-0.1,1.3-0.2,2-0.4c0.7-0.1,1.5-0.2,2.2-0.4l13-0.4C385,41.4,385.4,41.6,385.9,41.8z M372.5,62.1
		c-0.7,0.1-1.4,0.1-2.1,0.1c-0.5,0-0.9,0-1.4,0c-0.4,0-0.9,0.1-1.4,0.2c-0.5,0-0.9,0.1-1.3,0.3c-0.4,0.2-0.6,0.4-0.7,0.6
		c-1.1,2.3-1.5,4.3-1.2,5.9c0.3,1.6,0.8,2.9,1.6,3.8c0.7,1.1,1.5,1.9,2.4,2.4c0.9,0.5,1.3,0.7,1.5,0.7c0.2,0,0.5,0,0.8,0
		c0.3,0,0.6,0.1,1,0.2c0.4,0.1,0.7,0.2,1.1,0.4c0.4,0.1,0.7,0.2,1.1,0.4c0.9,0.4,1.8,0.7,2.8,1c1,0.3,2.2,0.2,3.4-0.3
		c1.2-0.5,2.5-1.6,3.8-3.2c1.3-1.6,2.9-4.2,4.6-7.6c0-0.6,0-1.2-0.1-1.8c-0.1-0.6-0.2-1.3-0.3-2c-0.7-1.3-1.7-2.4-2.8-3.2
		c-1.2-0.8-2.2-1.4-3-1.7c-0.2-0.1-0.4-0.3-0.5-0.5c-0.4-0.4-0.8-0.7-1.4-1c-0.5-0.3-0.8-0.1-0.8,0.6h-1.3c-1,0-2.1,0.2-3.4,0.6
		c-1.3,0.4-1.7,1.4-1.4,3C373.5,61.7,373.2,62.1,372.5,62.1z M449.4,40.4c0.5,0.8,1.4,1.5,2.7,2.1c1.1,0.5,2.6,0.7,4.4,0.5
		c1.8-0.1,4-1,6.6-2.7l11.2,0.2l0.4,8.2l-1.6,1.1l0.5,5.5c1,0.7,1.4,2.4,1.3,4.9l-4.2,3.3l-3.7-1.5l-1.8,1.1l-10.4,0.2
		c0.5-0.9,0.3-1.4-0.6-1.6c-0.9-0.2-1.9-0.1-2.8,0.3c-0.9,0.5-1.4,1.3-1.6,2.3c-0.2,1,0.6,2.4,2.6,3.9c-1.3,1.1-2,2.8-1.8,5
		c0.1,2.3,0.4,4.8,0.9,7.6c0.4,2.2,0.6,4.5,0.8,7c0.2,2.4,0.1,4.8-0.3,7c0.1,0.6,0.1,1.1-0.2,1.4c-0.2,0.3-0.6,0.5-1.1,0.5
		c-0.6,0-1.3,0-2.2-0.1c-0.9-0.1-1.7-0.2-2.6-0.5c-0.9,0-1.7-0.1-2.6-0.2c-0.9-0.1-1.7-0.2-2.6-0.4c-0.9,0-1.7,0-2.5,0
		c-0.8,0-1.5,0.1-2.1,0.2c-0.6,0.6-1.4,1-2.4,1.2c-1,0.2-2,0.2-2.9-0.1c-0.7,0-1.3-0.2-1.8-0.5c-0.5-0.4-0.7-0.7-0.5-1.1
		c0-0.4,0-1.3-0.1-2.9c-0.1-1.6-0.1-3.2-0.1-4.8c-0.1-0.5-0.2-1-0.3-1.6c-0.1-0.5-0.1-1.1-0.1-1.6c0-0.4,0-0.7,0-0.9
		c0-0.2,0-0.4,0-0.5c0.2,0,0.5-0.1,0.6-0.4c0.2-0.2,0.3-0.5,0.3-0.9c0-0.4-0.1-0.7-0.2-1.1c-0.1-0.4-0.2-0.7-0.2-1.1
		c0-0.1,0.1-0.3,0.2-0.5c0.1-0.4,0.3-1,0.5-1.8c0.2-0.9,0.3-1.9,0.3-3.1c0-1.1-0.1-2.4-0.4-3.8c-0.2-1.5-0.8-3.1-1.6-4.9
		c0.1-0.1,0.2-0.2,0.4-0.4c0.1-0.1,0.2-0.2,0.4-0.4c0-0.2,0-0.5-0.1-0.9c-0.1-0.4-0.2-0.7-0.3-1.1c-0.1-0.2-0.2-0.5-0.4-0.7
		c-0.1-0.2-0.2-0.4-0.2-0.5l2.7-3.1c-0.2,0-0.4-0.1-0.4-0.2c-0.4-0.4-0.8-1.8-1.4-4.3c-0.5-2.5-0.5-7.6,0.3-15.3h0.2
		c0.2-0.1,0.5-0.9,0.7-2.3c0.2-1.4-0.2-4.4-1.5-8.9c0.2-0.2,0.4-0.4,0.5-0.5c0-0.4,0-0.8-0.1-1.4c-0.1-0.5-0.3-1-0.6-1.4
		c0.2-0.1,0.4-0.4,0.5-0.8c0.1-0.4,0.2-0.9,0.2-1.4c0-0.5-0.1-1-0.2-1.6c-0.1-0.6-0.2-1.3-0.2-2c-0.5-1.7-0.8-3.5-0.8-5.4
		c-0.1-1.9,0.7-3.5,2.3-4.8c1,0,1.9,0,2.8,0.1c0.9,0.1,1.9,0.1,2.8,0.1c1.5,0.2,3,0.3,4.6,0.3c1.6-0.1,3.5-0.6,5.7-1.6h1.5
		c2.7,0.4,4.4,1,5.1,2c0.7,1,0.8,3.8,0.2,8.6c-0.1,0.2-0.3,0.8-0.5,1.7c-0.2,0.9-0.3,2.1-0.3,3.6c-0.1,1.3-0.1,3,0,4.9
		c0.1,2,0.5,4,1.1,6.2c-0.4,0-1.1,0.8-2.2,2.4c-1.1,1.6-1.6,2.6-1.6,2.9C448.5,39.1,448.8,39.6,449.4,40.4z"/>
	<path class="st0" d="M685.1,95.3c2.7-0.2,5.1-0.4,7.3-0.6c2.1-0.1,3.8-0.3,5.2-0.5c1.4-0.2,2.2-0.3,2.5-0.3v21
		c-0.7,0-1.4,0.1-2,0.2c-0.6,0.1-1.2,0.2-1.6,0.2c-1.1,0.1-2,0.2-2.8,0.2c-0.8,0-1.6,0-2.3,0c0-0.7-0.3-1.2-0.9-1.6
		c-0.6-0.3-1.3-0.5-2.2-0.5c-1.8,0-3.8,0.4-5.9,1.1c-2.1,0.7-3.5,1.5-4.4,2.2c-0.1,0.1-0.3,0.2-0.5,0.1c-0.2-0.1-0.5-0.2-0.9-0.5
		c-0.2-0.1-0.5-0.3-0.7-0.5c-0.2-0.2-0.5-0.3-0.7-0.3c-2.2,0.4-4.8,0.6-7.9,0.7c-3.1,0.1-5.9,0.1-8.4,0c-1.3,0-2.6,0-3.7,0
		c-1.1,0-2,0-2.7,0c-0.9,0-1.7-0.1-2.6-0.2c0-2.1-0.6-3.1-1.7-3c-1.2,0.1-2.1,0.6-2.8,1.7c-0.9,1.1-1.3,2.4-1.2,3.8
		c0.1,1.5,1.2,2.6,3.4,3.5c-0.1,1.1-0.3,2-0.5,2.7c-0.2,0.7-0.3,1.3-0.5,1.6c-0.4,0.7-0.6,1.4-0.7,2c-0.1,0.6-0.1,1.5,0,2.6
		c-0.2,0-0.4,0.1-0.5,0.3c-0.1,0.2-0.2,0.4-0.2,0.6c-0.1,0.5-0.1,1,0.1,1.5c0.2,0.5,0.5,1,0.8,1.6c-0.5,0.6-0.9,1.1-1.1,1.5
		c-0.2,0.4-0.4,0.7-0.4,1.1c0,0.5,0.1,1,0.2,1.5c0.1,0.5,0.3,1,0.5,1.6c0.4,1.8,0.8,4.5,1.3,8c0.5,3.5,0.5,8.6,0.2,15.5
		c-0.9-0.1-1.9-0.3-3.1-0.5c-1.2-0.2-2.4-0.3-3.7-0.3c-1.6,0.1-3.2,0.4-4.8,0.7c-1.6,0.4-3.1,0.9-4.5,1.6l-9.3-1.8
		c0.2-1,0.3-1.7,0.2-2.1c-0.1-0.4-0.3-0.8-0.5-1c-0.1,0-0.2-0.1-0.3-0.2c-0.1-0.1-0.1-0.3-0.1-0.5c0-0.7,0.1-1.8,0.2-3.2
		c0.1-1.4,0.2-3.2,0.4-5.4v-7.9c0.5,0,0.8-0.1,1-0.3c0.2-0.2,0.2-0.6-0.1-1.2c-0.1-0.1-0.2-0.3-0.3-0.5c-0.1-0.2-0.2-0.4-0.3-0.6
		c-0.1-0.1-0.3-0.3-0.5-0.6c-0.2-0.3-0.3-0.6-0.5-1c0.5-5.5,0.5-8.7,0.1-9.5c-0.4-0.9-0.8-1.3-1.2-1.3c-0.2,0-0.4,0-0.5,0
		c-0.1,0-0.2-0.1-0.2-0.2c0-0.4,0-0.8,0.1-1.3c0.1-0.5,0.2-0.9,0.3-1.3c0.1-0.5,0.2-0.9,0.4-1.4c0.1-0.4,0.2-0.9,0.4-1.4
		c0.1-0.7,0.3-1.4,0.5-2.1c0.2-0.7,0.3-1.4,0.3-2.1s-0.1-1.5-0.2-2.2c-0.1-0.7-0.4-1.5-0.7-2.4c-0.9-0.4-1.6-0.5-2.2-0.5
		c-0.6,0-1.1,0.1-1.5,0.2c-0.7,0.4-1.2,1-1.5,2c-1.5-0.9-3.1-1.4-5-1.7c-1.9-0.3-3.8-0.5-5.8-0.5c-3.9,0.2-7.5,0.9-10.9,2.1
		c-3.4,1.2-5.1,2.3-5.2,3.4l-4.2-1.5l-23.6,0.2c0.2-1.1,0.5-2.1,0.7-3.1c0.4-1.6,0.6-3.5,0.7-5.7c0.1-2.2-0.2-3.8-0.9-4.9
		c-0.2-0.4-0.4-0.8-0.5-1.2c-0.1-0.4-0.1-0.8-0.1-1.2c0-0.4,0.1-0.7,0.4-0.9l-0.2-5.5h4.6c1.6,0,3.2,0,4.8,0c1.6,0,2.8,0,3.7,0
		c0,0.1,0,0.2,0.1,0.3c0.1,0.1,0.2,0.1,0.5,0.1h1.5c0,0.2,0.1,0.5,0.3,0.6s0.4,0.3,0.6,0.3c0.5,0.2,1,0.3,1.6,0.1s1-0.5,1.4-0.8
		c0,0.5,0.7,0.7,2,0.5c1.3-0.1,2.7-0.4,4.2-0.7c0.5,0,0.9,0,1.4-0.1c0.4-0.1,0.9-0.1,1.4-0.1c0.4-0.1,0.7-0.2,1-0.2
		c0.3,0,0.6,0,0.8,0h5.5c3,0,5.5,0,7.3,0s3.7,0,5.5,0c1.8-0.1,3.9-0.2,6.2-0.4c2.3-0.1,5.5-0.4,9.7-0.7l1.5-1.3
		c0.1,0.1,0.3,0.2,0.5,0.2c0.7,0.4,2.1,0.8,4.2,1.3c2.1,0.5,4.3,0.9,6.6,1.1c2.2,0.4,4.4,0.4,6.5,0.1c2.1-0.3,3.8-1.2,4.8-2.7h0.4
		c0.5,0,1.3,0.3,2.5,0.8c1.2,0.5,1.8,0.8,1.9,0.8h0.7c0.9,0,2.4-0.1,4.7-0.2c2.3-0.1,4.6-0.2,7-0.4c2.4,0,4.8,0.1,7,0.3
		c2.3,0.2,3.9,0.5,4.8,0.8C679.8,95.5,682.5,95.4,685.1,95.3z M604.3,74.7c-1,0-2.1,0.1-3.5,0.2c-0.7,0.1-1.5,0.2-2.2,0.3
		c-0.7,0.1-1.6,0.1-2.6,0.1c-1,0.1-2.1,0.2-3.3,0.2c-1.2,0-2.6-0.1-4-0.2c-2.6,0-4.1-0.1-4.5-0.2c-0.4-0.1-0.5-0.5-0.3-1.3v-1.5
		c0-1.2,0-2.5-0.1-3.8c-0.1-1.3-0.1-2.6-0.1-3.8c-0.1-1.2-0.2-2.3-0.2-3.2s0-1.7,0-2.3V58l2-8.2c0.5-0.5,0.6-1.1,0.4-1.8
		c-0.2-0.7-0.6-1.5-1.1-2.2c-0.1-0.1-0.2-0.3-0.4-0.5c-0.1-0.2-0.2-0.4-0.4-0.6c-0.1-0.1-0.2-0.3-0.4-0.5c-0.1-0.2-0.2-0.5-0.2-0.9
		c0.5,0,0.7-0.1,0.7-0.4c0-0.2,0-0.5,0-0.9l-0.2-0.4c0.7-0.4,1.1-1.1,1.2-2.1c0.1-1-0.1-2-0.5-2.8c-0.1-0.5-0.3-0.8-0.5-1
		c-0.2-0.2-0.5-0.3-0.9-0.3c-1.3,0.2-2-0.9-2.1-3.3c-0.1-2.4,0.1-4.8,0.5-7.1c0-1.2,0.2-2.7,0.5-4.4c-0.6-0.5-0.8-1.1-0.5-1.9
		c0.2-0.8,0.5-1.6,0.9-2.3c0.2-0.4,0.4-0.8,0.5-1.3c0.1-0.5,0.1-0.9,0-1.3c5-0.1,8.9-0.2,11.6-0.1c2.7,0.1,4.8,0.1,6.1,0.1
		c1.3,0.1,2.1,0.3,2.4,0.5c0.2,0.2,0.4,0.3,0.5,0.5c0,0.1,0.1,0.2,0.3,0.3c0.2,0.1,0.8,0.1,1.9,0.1c0.1,0,0.3,0,0.5,0.1
		c0.2,0.1,0.4,0.1,0.6,0.1c0.1,0,0.3,0,0.5,0.1c0.2,0.1,0.5,0.1,0.7,0.1c0.6,0.4,1.3,0.6,2,0.6c0.7,0.1,1.3-0.1,1.8-0.5
		c0,0.2,0.1,0.4,0.3,0.5c0.2,0.1,0.5,0.2,0.8,0.2c0.4,0.2,0.8,0.3,1.4,0.3c0.5-0.1,0.9-0.3,1.2-0.8c0.2,0.6,0.5,1,0.8,1.2
		c0.3,0.2,0.6,0.3,1,0.3c0.5,0,1-0.1,1.6-0.3c0.5-0.2,1.2-0.5,2.1-0.8c1.2-0.4,2.9-0.9,5.1-1.6c2.2-0.7,5-1.2,8.4-1.7
		c0.1,0.1,0.3,0.2,0.5,0.3c0.2,0.1,0.5,0.1,0.9,0.1c1.1,0.7,2.2,1.2,3.2,1.5c1,0.2,2-0.2,3-1.5c0.5,0.2,0.9,0.4,1.3,0.5
		c0.4,0.1,0.7,0.1,1.1,0.1s0.7,0,1,0c0.3,0,0.7-0.1,1.2-0.2c1.1-0.1,2.6-0.2,4.6-0.3c1.9-0.1,5,0.1,9.1,0.5v0.9
		c0,0.4,0.2,0.5,0.5,0.5c0.4-0.1,1.7-0.3,4-0.8c1.7,0,3-0.1,3.9-0.2c0.9-0.1,1.7-0.3,2.5-0.5c0.9-0.1,1.9-0.2,3.2-0.3
		c1.3-0.1,3.7-0.1,7.2-0.1c0,0.1,0.1,0.6,0.2,1.5c0.1,0.9,0.4,1.8,0.7,2.9c0.2,1.6,0.6,3.1,1,4.7c0.4,1.5,0.8,2.3,1.2,2.3
		c-0.2,0.4-0.4,0.7-0.5,0.9c-0.1,0.2-0.2,0.4-0.4,0.5c-0.2,0.1-0.4,0.2-0.5,0.4c-0.1,0.1-0.2,0.2-0.4,0.2c-0.7,0.4-1.3,1.2-1.6,2.4
		c-0.4,1.2-0.4,4.7-0.2,10.4c0.1,0.4,0.3,0.7,0.5,1c0.2,0.3,0.3,0.6,0.5,0.8c0.2,0.4,0.4,0.7,0.5,0.9c0.1,0.2,0.2,0.5,0.4,0.7
		c0.2,1.2,0.2,2.2-0.1,2.9c-0.3,0.7-0.7,1.3-1.2,1.6c0.1,0.4,0.3,0.7,0.5,1c0.2,0.3,0.3,0.5,0.5,0.5c0.1,0.5,0.1,0.9-0.1,1.2
		c-0.2,0.3-0.5,0.5-0.8,0.5c0,2.3,0,4.3-0.1,5.9c-0.1,1.6-0.2,2.9-0.3,4c-0.1,0.6-0.2,1.1-0.3,1.5c-0.1,0.4-0.1,0.7-0.1,1.1
		c0,0.4,0,0.7,0.1,1c0.1,0.3,0.3,0.6,0.6,0.8c0.1,0.2,0.2,0.5,0.3,0.9c0.1,0.4,0.1,0.8,0.1,1.3c0,0.5,0,0.9,0,1.4c0,0.4,0,0.8,0,1.2
		c0,0.7,0,1.3,0,1.7c0,0.4,0.1,0.8,0.2,1c0.1,0.4-0.1,0.8-0.5,1.2c-0.5,0.4-1,0.7-1.5,0.8c-0.4,0.1-0.7,0.2-1,0.2
		c-0.3,0-0.5-0.1-0.5-0.4c-0.4-0.4-1.2-0.4-2.6,0c-1.3,0.4-2.7,0.8-4.2,1.3c-0.7,0.2-1.4,0.5-2,0.6c-0.6,0.2-1.2,0.3-1.6,0.3
		c-0.5,0.1-0.9,0.2-1.1,0.2c-0.2,0-0.4-0.1-0.4-0.4c0.2-1.5-1.4-2.3-5-2.7c-3.6-0.3-7.8-0.3-12.5,0.1c-2.3,0.1-4.6,0.3-7,0.5
		c-2.3,0.2-4.5,0.5-6.6,0.7c-2.1,0.2-4,0.5-5.9,0.7c-1.8,0.2-3.4,0.4-4.6,0.5c-0.7-0.9-2.4-1.3-5.1-1.3c-2.7,0-5.3,0.1-7.9,0.2
		c-0.7,0.1-1.4,0.2-1.9,0.3c-0.5,0.1-1.1,0.1-1.6,0.1c-0.5,0-0.9,0-1.3,0s-0.7-0.1-0.9-0.2C606.3,74.8,605.2,74.7,604.3,74.7z
		 M658.4,36.8c0.2-1.3,0.3-2.1,0.1-2.3c-0.2-0.2-0.8-0.4-1.9-0.6c-0.4,0.1-0.6,0.2-0.8,0.2c-0.2,0-0.4,0-0.6,0c-2,0.4-4.3,0.6-7,0.7
		c-2.7,0.1-5.4,0.2-8,0.2c-2.7,0-5,0-7-0.1c-2-0.1-3-0.1-3.1-0.1c-0.4,0-0.7,0-1-0.1c-0.3-0.1-0.6-0.2-1-0.3c-0.4,0-0.7,0-1-0.1
		c-0.3-0.1-0.6-0.2-0.8-0.3c-2.7-0.6-5.1-1-7.1-1.2c-2.1-0.2-3.1,0.4-3.1,1.7c-0.2-0.2-0.5-0.5-0.8-0.7c-0.3-0.2-0.6-0.5-1-0.7
		c-1-0.4-1.9-0.6-2.8-0.6c-0.9-0.1-1.7,0-2.3,0.1c-0.6,0.2-0.9,0.5-0.8,0.8c0.1,0.3,0.7,0.6,1.9,0.8v2.6c-0.1,1.6-0.6,2.6-1.5,3.1
		l0.7,13.4l-0.4,0.2c-0.4,0.4-0.6,0.9-0.6,1.5c-0.1,0.6,1.4,0.5,4.3-0.2c2.2,0.7,4.7,1,7.4,0.9c2.7-0.1,5.5-0.4,8.1-0.7
		c1,0,2-0.1,3-0.2c1-0.1,2-0.2,3-0.4c1,0,2,0,2.9,0c1,0,2,0,2.9,0c0.2,0.4,1,0.8,2.3,1.3c1.3,0.5,2.8,0.7,4.5,0.7
		c1.1,0.1,2.3,0.1,3.5,0c1.2-0.1,2.4-0.4,3.5-0.7c0.4,0.7,1,1.1,2,1c1-0.1,1.8-0.4,2.4-1c0.4-0.4,0.6-0.9,0.7-1.5
		c0.1-0.6-0.1-1.2-0.7-1.6c0.4-0.4,0.6-1.5,0.6-3.3c0.1-1.8,0.1-3.7,0.1-5.7c0-1.5-0.1-2.8-0.2-3.9c-0.1-1.2-0.2-2-0.4-2.5V36.8z"/>
	<path class="st0" d="M866.6,123.5c-0.3,2.6-0.5,4.5-0.5,5.9c0,1.3,0.1,2.3,0.4,2.7c0.2,0.5,0.6,0.9,1.1,1.1
		c-0.2,0.1-0.5,0.6-0.6,1.4c-0.2,0.8-0.3,1.7-0.5,2.8c-0.1,1.1-0.2,2.3-0.4,3.5c-0.1,1.2-0.2,2.2-0.2,2.9v1.5c0.5,0,0.9,0.6,1.1,1.7
		c0.2,1.2,0.4,2.5,0.4,4.1c0,1.5-0.2,3-0.5,4.5c-0.3,1.5-0.7,2.7-1.2,3.4c-0.4,0.4-0.6,0.6-0.8,0.7c-0.2,0.1-0.4,0.2-0.6,0.2
		c0.6,0.6,0.5,1.1-0.4,1.5c-0.9,0.4-2.1,0.6-3.8,0.7c-1.6,0.1-3.4,0.2-5.4,0.1c-2-0.1-3.8-0.3-5.4-0.6c-0.4,0-0.7,0-0.9,0
		c-0.2,0-0.5-0.1-0.7-0.2c-0.2,0-0.5,0-0.7-0.1c-0.2-0.1-0.4-0.2-0.5-0.3c-0.6,0-3.2,0-7.9-0.1c-4.6-0.1-10.1-0.2-16.5-0.3
		c-6.3,0-12.9,0-19.8,0c-6.8,0-12.7,0.1-17.6,0.2c-1.8,0-3.4,0.1-4.8,0.2c-1.3,0.1-2.5,0.2-3.5,0.2c-4-0.4-7.7-0.6-11.2-0.7
		c-3.4-0.1-6.2,0-8.2,0.4c-0.5,0.1-0.9,0.2-1.2,0.4c-0.3,0.1-0.6,0.2-0.8,0.2c-1.7-0.7-2.7-1.1-2.9-1.2c-0.2-0.1-1.2,0.2-2.7,0.8
		c-0.2,0.1-0.5,0.2-0.8,0.3c-0.3,0.1-0.6,0.2-0.8,0.3c-0.2,0.1-0.5,0.2-0.8,0.3c-0.3,0.1-0.6,0.2-1,0.3c-0.1-0.2-0.3-0.4-0.6-0.5
		c-0.3-0.1-0.7-0.2-1.2-0.2c-0.5,0-1.1,0.1-1.7,0.2c-0.7,0.1-1.4,0.2-2.1,0.2c-2.2,0.4-4.5,0.6-7,0.7c-2.4,0.1-4.3-0.5-5.7-2
		c-0.2-0.1-0.5-0.3-0.6-0.5c-0.2-0.2-0.4-0.4-0.6-0.5c-0.1-0.2-0.2-0.4-0.4-0.5c-0.1-0.1-0.2-0.3-0.4-0.5c-0.5-0.4-0.8-0.7-1-0.9
		c-0.2-0.2-0.3-0.7-0.3-1.3c0-0.6,0.1-1.5,0.2-2.7c0.1-1.2,0.3-2.9,0.5-5.2l2.2-0.2c-0.1-0.5-0.2-1-0.2-1.5
		c-0.2-0.7-0.5-1.7-0.6-2.8c-0.2-1.2-0.3-2.3-0.5-3.4c-0.2-1.2-0.5-2.3-0.6-3.2c-0.2-0.9-0.3-1.5-0.3-1.7c0.5-0.4,1-0.7,1.5-1.1
		c0.5-0.4,0.9-0.8,1.3-1.3c1.2-1.6,1.6-3.2,1-4.8s-1.6-2.6-3.2-2.8l0.5-12.4l-1.5-2c0-0.1,0-0.3,0.1-0.5c0.1-0.2,0.2-0.3,0.3-0.5
		c0-0.2,0-0.4,0.1-0.5c0.1-0.1,0.2-0.3,0.3-0.5c0.4-0.6,0.5-1.2,0.5-1.7c0-0.5-0.2-1.1-0.5-1.6c0.1-0.5,0.2-0.9,0.4-1.3
		c0.1-0.4,0.2-0.7,0.2-1.1c0.1-0.4,0.2-0.8,0.2-1.2c0-0.4,0-0.9,0-1.6v-2.6l7.3,1.3l13.9-1.1c1.1,1,2.3,1.5,3.5,1.6
		c1.2,0.1,2.1,0.1,2.6,0h0.4l-0.5,13.2c2.9,0.5,6.3,0.8,10.1,0.9c3.8,0.1,7.6,0.1,11.5,0c3.8-0.1,7.4-0.3,11-0.5
		c3.5-0.2,6.5-0.5,9-0.8c1.2,0,2.3,0,3.3-0.1c1-0.1,1.6-0.2,2-0.3l4.2,1.8c0.2,0,1.6-0.1,4.1-0.2c2.5-0.1,5.4-0.3,8.7-0.5
		c3.4-0.2,6.9-0.5,10.4-0.7c3.5-0.2,6.5-0.5,9-0.7c1.1,0,2.4-0.1,3.8-0.4l-0.4-4.8c0.2-0.1,0.4-0.3,0.5-0.5c0.1-0.2,0.1-0.5,0.1-0.9
		c-0.1-0.4-0.2-0.7-0.3-1c-0.1-0.3-0.1-0.6-0.1-0.8c-0.1,0-0.2-0.1-0.2-0.4c-0.9-2.3-0.9-3.8-0.2-4.6c0.7-0.7,1.6-1,2.7-0.9
		c0.1,0.1,0.2,0.2,0.4,0.2c0.1,0,0.3,0,0.5,0c0.1,0.1,0.3,0.2,0.5,0.2c0.2,0,0.4,0,0.6,0c0.4,0.4,0.7,0.6,1.1,0.8
		c0.4,0.2,0.8,0.3,1.3,0.5c0.4,0,0.8,0,1.3,0c0.5,0,1.1-0.1,1.8-0.2c1.3-0.2,3.3-0.5,5.9-0.7c2.6-0.2,6.2-0.2,10.8,0.2
		c0.4,0,0.7,0.2,1,0.6c0.3,0.4,0.5,1,0.5,1.7s-0.1,1.6-0.2,2.7c-0.1,1-0.3,2-0.5,2.8c-0.2,0.2-0.4,0.5-0.5,0.6
		c-0.1,0.2-0.1,0.3-0.1,0.5c-0.1,0.2-0.2,0.4-0.2,0.5c0,0.1,0,0.2,0,0.3c0.1,0.1,0.2,0.2,0.3,0.4c0.1,0.1,0.2,0.2,0.3,0.4
		c-0.4,1.2-0.5,2.2-0.5,2.8c0,0.7,0.1,1.1,0.2,1.2c0.1,0.4,0.5,0.4,1.1,0.2C867.4,117.5,866.9,121,866.6,123.5z M803.8,20.4
		c-0.2,0.8,0.1,1.2,0.8,1.2c-0.6,2.2-0.9,3.8-1,4.9c-0.1,1.1,0,1.9,0.1,2.4c0.1,0.5,0.3,0.7,0.5,0.6c0.2-0.1,0.3-0.1,0.5-0.1
		c-0.5,4.6-0.9,8.4-1.1,11.3c-0.2,2.9-0.4,5.2-0.4,6.9c0,1.6,0.1,2.7,0.4,3.5c0.2,0.7,0.5,1.2,0.9,1.3c-0.2,0.2-0.4,0.8-0.5,1.7
		c-0.1,0.9-0.2,2-0.4,3.2c-0.1,1.3-0.2,2.7-0.4,4.1c-0.1,1.4-0.2,2.7-0.2,3.8v2.7c0.7,0.6,1.1,1.2,1.2,1.7c0.1,0.5,0.1,1.4,0.1,2.5
		c0,0.5,0,1.1,0,1.7c0,0.7,0.1,1.4,0.2,2.1c0.2,1.5,0.1,2.7-0.5,3.6c-0.5,0.9-1,1.6-1.4,1.9c-0.4,0.4-0.6,0.7-0.8,1
		c-0.2,0.3-0.2,0.5-0.1,0.6c1.1,1.5,0.9,2.2-0.6,2.3c-1.5,0.1-3.3-0.1-5.4-0.5c-0.5,0-1-0.1-1.5-0.2c-0.5-0.1-1-0.2-1.5-0.4h-0.4
		c-0.7,0-1.7,0-2.9-0.1c-1.2-0.1-2.7-0.1-4.4-0.1c-1.6-0.1-3.4-0.2-5.5-0.1c-2.1,0.1-4.3,0.2-6.6,0.5h-1.5c-3.5-0.5-6.3-0.7-8.3-0.7
		c-2,0-3.6,0.3-4.8,0.9c-0.6-0.2-1-0.5-1.3-0.6c-0.2-0.2-0.4-0.3-0.4-0.5l-0.2-0.2h-0.2c-0.2,0.2-0.6,0.5-1.1,0.8
		c-0.5,0.3-1.3,0.8-2.6,1.4c0-0.6-0.4-0.9-1.3-0.8c-0.9,0.1-1.9,0.2-3.1,0.5c-0.9,0.2-1.7,0.4-2.7,0.5c-0.9,0.1-1.8,0.2-2.7,0.2
		c-0.9,0-1.7-0.2-2.5-0.5c-0.8-0.3-1.4-0.9-1.9-1.7c-1.5-1.8-2.3-3.2-2.5-4.1c-0.2-0.9-0.2-3,0.1-6.3c0-0.4,0-0.7,0-1.1
		c0-0.4,0-0.8,0-1.3c0-0.5,0-1,0.1-1.5c0.1-0.5,0.1-1,0.1-1.6l1.6-2.4l-0.2-9.3c0-0.4,0-0.7-0.1-1c-0.1-0.3-0.1-0.5-0.1-0.6
		c1.8-1.3,2.9-3,3.2-4.9c0.3-2,0-3.5-1-4.6c-0.2-0.2-0.5-0.4-0.8-0.5c-0.3-0.1-0.6-0.2-1-0.4l-0.2-13l-1.1-2.2
		c0.2-1,0.4-2.1,0.5-3.4c0.1-1.3,0.1-2.3,0-3.2c-0.1,0-0.2-0.1-0.4-0.3c-0.1-0.2-0.2-0.4-0.2-0.6c0.4-1,0.5-1.6,0.5-2
		c0-0.4,0-0.9,0-1.6v-2.6l6.2,0.4l10.6-2c0.7,1.1,1.7,1.7,3,1.8c1.3,0.1,2.3,0.1,3,0c0.4,0,0.8-0.1,1.3-0.2l-0.4,16.7
		c2.2,0.4,4.3,0.6,6.4,0.7c2.1,0.1,4,0.1,5.7,0c0.6,0,1.2-0.1,1.7-0.2c0.5-0.1,1.1-0.3,1.6-0.5l4.8,0.7c0.5-0.6,0.9-1.1,1.1-1.5
		v-0.2l-0.5-9.1c0.7,0.2,1-0.1,0.9-1c-0.1-0.9-0.3-1.7-0.5-2.5c-0.1-0.2-0.2-0.5-0.4-0.7c-0.5-0.7-0.5-1.6-0.2-2.7
		c0.4-1,0.9-1.7,1.6-2.1c0.2-0.1,0.5-0.2,0.9-0.2s0.7,0.1,1.1,0.4c2.8,0.1,4.7,0.3,5.6,0.5c0.9,0.2,1.6,0.4,1.9,0.5
		c0.6,0.4,1.4,0.5,2.3,0.5s3.3-0.2,7-0.5c0.4,0,0.7,0,1,0c0.3,0,0.6,0.1,1,0.4c0.2,0.4,0.5,0.9,0.6,1.5c0.2,0.6,0.2,1.4-0.1,2.4
		C804.3,18.9,804,19.6,803.8,20.4z M842.4,136.2c-0.3-1.6-0.8-3.4-1.6-5.2c-0.4,0.1-0.8,0.2-1.4,0.2s-1.1-0.1-1.7-0.2
		c-0.7,0-1.5-0.1-2.2-0.2c-0.7-0.1-1.5-0.2-2.4-0.4c-3.1-0.4-6.3-0.7-9.8-0.9c-3.5-0.2-6.3,0-8.3,0.7c-0.4-0.2-0.8-0.5-1.3-0.6
		c-0.5-0.2-0.9-0.3-1.3-0.5c-1.1-0.1-2.1-0.2-3-0.1c-0.9,0.1-1.7,0.5-2.5,1.2c-3.5,0-7.2,0.1-11.1,0.2c-3.8,0.1-7.7,0.2-11.6,0.2
		c-7.1,0.2-13.6,0.4-19.7,0.5c-6,0.1-10,0.1-12,0.1l-1.5,2v2.7c0,0.7,0,1.5,0.1,2.2c0.1,0.7,0.1,1.4,0.1,2c0.1,0.6,0.2,1.2,0.4,1.6
		c0.1,0.5,0.3,0.8,0.5,0.9c2.4-0.4,4.3-0.5,5.7-0.5c1.3,0,2.9,0.1,4.8,0.2c1.3,0.1,3,0.2,5,0.3c2,0.1,4.7,0,8.1-0.1
		c0.9,0.6,1.9,1,3,1.1c1.2,0.1,2.3,0.1,3.4,0c0.9,0,1.6-0.1,2.3-0.4c0.7-0.2,1.2-0.5,1.6-0.9c0.6,0.6,1.3,0.9,2,0.9
		c0.4,0.1,0.9,0.2,1.6,0.1c0.7-0.1,1.4-0.4,2.1-1c2.4-0.1,4.7-0.2,6.8-0.4c2.1-0.1,4-0.2,5.9-0.2c1.8,0,3.5,0,5.1,0.1
		c1.6,0.1,3.2,0.1,4.8,0.1c1.8,0.2,3.7,0.4,5.6,0.5c1.9,0.1,3.9,0.1,5.9,0.1c2.2,0,4.6-0.1,7.1-0.4c2.6-0.2,5.5-0.7,8.8-1.3
		C842.5,139.4,842.7,137.9,842.4,136.2z M784.1,63.8c0.1-1.2,0-2.2-0.1-3.2c-0.1-1-0.3-1.9-0.5-2.8s-0.3-1.9-0.5-2.8
		c-0.4-1.1-0.7-2.3-1-3.5c-0.3-1.2-0.5-2.7-0.5-4.4c-0.2,0.6-0.8,1-1.6,1.3c-0.8,0.2-1.9,0.4-3.2,0.5c-1.2,0-2.6,0-4.2-0.1
		c-1.6-0.1-3.2-0.2-4.8-0.3c-1.3,0-2.7-0.1-3.9-0.2c-1.3-0.1-2.5-0.2-3.6-0.2l-1.6,3.8v12.4c0,1,0.1,1.8,0.2,2.4
		c0.1,0.6,0.3,0.9,0.5,0.9c0.4,0,0.9,0,1.5,0c0.6,0,1.2,0,1.8,0c0.7,0,1.5,0.1,2.2,0.2c0.7,0.1,1.5,0.2,2.4,0.2c1,0.1,2,0.2,3.1,0.3
		c1.1,0.1,2.1,0,3.1-0.1c0.9,0,1.7-0.1,2.5-0.2c0.8-0.1,1.5-0.4,2.1-0.7c0.6,0.4,1.1,0.6,1.5,0.7c0.6,0.1,1.2,0.2,1.9,0.2
		c0.7,0,1.4-0.2,2.1-0.7C783.8,66.2,784,64.9,784.1,63.8z M859.4,60c-0.2,0.2-0.5,0.5-0.7,0.6c-0.2,0.2-0.4,0.5-0.5,0.8
		c-0.1,0.4-0.1,0.9,0,1.5c0.1,0.6,0.4,1.3,0.9,2.2c-1.1,2.3-1.6,3.8-1.6,4.5c0.1,0.7,0.3,1.2,0.6,1.6c0.1,0.4,0.3,0.8,0.6,1.2
		c0.3,0.4,0.5,1,0.6,1.7c0.2,0.9,0.4,2,0.4,3.4c0,1.4-0.1,3.2-0.2,5.4c-0.7,1.1-1.4,1.7-2,1.8c-0.6,0.1-1.2,0.1-1.8,0
		c-0.4,0-0.7,0-1,0.1c-0.3,0.1-0.6,0.1-1,0.1c-2.2,0.6-3.8,0.9-4.8,0.8c-1-0.1-1.8-0.3-2.6-0.6c-0.7-0.2-1.4-0.4-2.1-0.5
		c-0.7-0.1-1.6-0.1-2.7,0c-0.7,0.7-1.5,1.2-2.2,1.4c-0.7,0.2-1.5,0.2-2.2-0.1c-0.6,0-1-0.2-1.3-0.5c-0.2-0.3-0.4-0.6-0.4-1
		c0-1.1,0-2.1-0.1-3.1c-0.1-1-0.2-1.8-0.3-2.6c-0.1-0.5-0.3-1.1-0.5-1.8c0.6,0,1.1-0.2,1.5-0.6c0.4-0.4,0.6-0.8,0.7-1.2
		c0-0.4-0.1-0.6-0.4-0.8c-0.2-0.2-0.5-0.3-0.9-0.5v-1.5c0.4-2.2,0.6-4.4,0.7-6.5c0.1-2.1-0.1-3.3-0.7-3.6c0-0.1,0-0.4,0.1-0.7
		c0.1-0.4,0.2-0.7,0.5-1.1c0.2-0.7,0.5-1.5,0.7-2.4c0.2-0.9,0.1-1.5-0.4-2c-0.5-0.4-1.5-0.5-3-0.4c-1.5,0.1-3.9,0.8-7.2,2h-0.4
		c-0.5-0.1-1.6-0.3-3.5-0.5s-4.9,0.1-9.3,0.8l-0.7-10.4l0.7-0.7c0-0.5-0.1-1.2-0.2-2c0-0.7-0.1-1.8-0.2-3.1
		c-0.1-1.3-0.3-3.2-0.5-5.5l2.7-1.5c4,1.1,6.4,1.7,7.1,1.7c0.7,0.1,1.2-0.1,1.5-0.5c0-0.1,0-0.2,0.1-0.4c0.1-0.1,0.3-0.2,0.6-0.4
		c0.4-0.1,0.9-0.2,1.6-0.3c0.7-0.1,1.8-0.1,3.1-0.1c0.1,0.2,0.2,0.5,0.4,0.6c0.1,0.2,0.2,0.3,0.4,0.5c0.2,0.7,0.6,1.2,1,1.5
		c0.4,0.2,1.2-0.2,2.3-1.5c1.1,1,1.9,1.1,2.4,0.4c0.5-0.7,0.7-1.8,0.7-3.3c0-1.5-0.1-3.1-0.3-4.8c-0.2-1.8-0.3-3.3-0.5-4.7
		c-0.1-0.6-0.2-1.3-0.4-2c0.5-0.1,0.7-0.5,0.7-1s-0.2-1.1-0.5-1.6c-0.1-0.1-0.2-0.3-0.4-0.5c-0.1-0.2-0.2-0.4-0.2-0.6
		c-0.7-2.6-0.7-4.8,0.2-6.6c0.9-1.8,1.8-2.9,2.9-3.3c0.4,0,0.7,0,0.9,0c0.2,0,0.5,0.1,0.9,0.2c1.1,0.7,2,1.3,2.7,1.7
		c0.7,0.4,1.2,0.6,1.7,0.6c0.4,0.1,0.7,0.2,1,0.1c0.3-0.1,0.6-0.2,1-0.5c0.5-0.2,1.3-0.5,2.6-0.9c1.2-0.4,3.3-0.5,6.2-0.5
		c0,0.4,0.2,0.5,0.7,0.5c0.5,0,1-0.1,1.5-0.4c0.4,0,0.8,0,1.4,0c0.5,0,1,0.1,1.4,0.2c0.6,5.2,0.9,8.5,0.8,9.9
		c-0.1,1.3-0.3,2.3-0.6,2.9c-0.2,0.4-0.4,0.8-0.5,1.4c-0.1,0.5,0,1.6,0.1,3.2c-0.7,0-1.2,0.5-1.4,1.5c-0.2,1-0.2,2.1-0.1,3.3
		c0,0.9,0.1,1.7,0.3,2.6c0.2,0.9,0.4,1.6,0.6,2.2c-0.1,0.4-0.2,0.6-0.4,0.8c-0.1,0.2-0.2,0.3-0.2,0.5c-0.4,0.7-0.5,1.3-0.5,1.8
		c0,0.5,0.4,0.7,1.3,0.5c-0.4,1.3-0.5,2.4-0.5,3.3c0.1,0.9,0.3,1.8,0.6,2.7c0.1,0.6,0.2,1.3,0.4,2.1c0.1,0.8,0.2,1.7,0.4,2.8
		c0.1,1.1,0.2,2.4,0.1,3.9c-0.1,1.5-0.2,3.3-0.5,5.4H859.4z"/>
	<path class="st0" d="M919.5,41.7c-0.3,0.1-0.6,0.2-1,0.4c-0.4,0.1-0.7,0.2-1,0.3c-0.3,0.1-0.4,0-0.3-0.3c0.1-0.7-0.6-0.9-2.3-0.6
		c-1.6,0.3-3.6,0.7-5.8,1.2c-1.5,0.4-2.9,0.7-4.2,1.1c-1.3,0.4-2.6,0.6-3.7,0.7c-0.6,0.1-1.3,0.2-1.9,0.3c-0.7,0.1-1.3,0.1-1.9,0.1
		c-0.6,0-1.2,0-1.8,0.1c-0.6,0.1-1.2,0.1-1.6,0.1c-0.7,0.1-1.4,0.2-2,0.2L891,37l-0.9-0.5l2.4-17.4l10.4-1.6c0,0.1,0.4,0.7,1.1,1.7
		c0.7,1,2,1.7,3.8,2.1c1.1,0.4,2.4,0.5,3.9,0.4c1.5-0.1,3.4-0.7,5.6-1.8c0.1,0.1,0.3,0.2,0.5,0.3c0.2,0.1,0.3,0.1,0.5,0.1
		c0.2,0.1,0.4,0.2,0.5,0.3c0.1,0.1,0.3,0.1,0.5,0.1h0.5c0.2,0,0.6-0.1,1.1-0.2c0.2,0,0.5,0,0.8,0c0.3,0,0.6,0,1,0
		c3.8,0.4,7.1,0.5,10,0.5c2.9-0.1,5.2-0.2,7-0.3c1.1,0,2-0.1,2.8-0.3c0.8-0.2,1.4-0.4,1.9-0.6c1.8,0.7,3.3,0.9,4.4,0.6
		c1.1-0.3,2-0.6,2.7-1c0.7-0.4,1.4-0.5,2.1-0.5c0.7,0,1.6,0.6,2.7,1.8c0.7,0,1.3,0.1,1.6,0.3s0.7,0.4,1.1,0.6
		c0.1,0.2,0.2,0.4,0.4,0.5c0.1,0.1,0.3,0.2,0.5,0.3c0.1,0,0.3,0,0.5-0.1c0.2-0.1,0.5-0.2,0.9-0.5L961.5,39c-0.4,0.1-0.5,0.4-0.5,0.9
		c0.1,0.5,0.2,1,0.5,1.5c0,0.2,0,0.5,0,0.6s0.1,0.3,0.2,0.5c0,0.2,0,0.5,0.1,0.6c0.1,0.2,0.1,0.3,0.1,0.5c-0.1,0-0.7,0.2-1.8,0.5
		c-1.1,0.3-2.4,1.1-3.8,2.3c-1.1,1-2.1,2.2-3.1,3.8c-1,1.5-1.8,3.5-2.6,5.9c-0.5,0-1.1,0.2-1.8,0.5c-0.7,0.3-1.3,0.6-1.6,1
		c-0.2,0.2-0.4,0.5-0.5,0.8c-0.1,0.3,0.1,0.5,0.5,0.6c-2.4,1.1-3.8,2.5-4.2,4.3c-0.4,1.8-0.1,3.4,0.9,4.8c0.7,1.1,1.7,2,2.8,2.8
		c1.2,0.8,2.5,1.3,3.9,1.4c2.3,2.6,4.3,4.7,5.9,6.3c1.6,1.6,3,3.1,4.2,4.3c0.4,0.5,0.8,0.9,1.2,1.4c0.4,0.4,0.8,0.9,1.2,1.4
		c0.5,0.5,0.9,0.9,1.3,1.4c0.4,0.4,0.8,0.8,1.3,1.2c0,0.4,0.2,0.8,0.5,1.2c0.3,0.4,0.8,0.8,1.4,1c0.2,0.2,0.5,0.4,0.9,0.5
		c0.4,0.1,0.7,0.2,0.9,0.2c0,0.4,0,0.6,0.1,0.6c0.1,0.1,0.2,0.1,0.5,0.1h1.3c0,0.2,0.1,0.5,0.3,0.8c0.2,0.3,0.5,0.6,0.8,1
		c0.6,0.7,1.2,1.6,1.8,2.7c0.6,1,0.7,1.9,0.4,2.5c-1.8,2.3-3.4,3.9-4.6,4.7c-1.2,0.8-2.4,1.4-3.7,1.7c-1.1,0.5-2.4,1.1-3.8,1.9
		c-1.5,0.8-3.3,2.3-5.5,4.5c-0.9-0.5-1.7-1.1-2.6-1.7c-0.9-0.7-1.6-1.4-2.4-2.1c-0.7-0.6-1.5-1.3-2.2-2c-1.6-2.7-3.3-5.1-5.2-7.2
		c-1.9-2.1-3.6-3.9-5-5.4c-1.6-1.2-3.3-2.6-5.1-4c0-0.5-0.1-1-0.3-1.5c-0.2-0.5-0.4-0.9-0.6-1.3c-0.2-0.5-0.5-0.9-0.8-1.4
		c-0.3-0.4-0.6-0.9-0.8-1.4v-0.2c-1.5,0.4-3,1.1-4.6,2.2c-1.6,1.1-3.1,2.3-4.4,3.7c-1.2,1.2-2.2,2.5-2.8,3.9
		c-0.7,1.4-0.7,2.5-0.1,3.4c0,0.1,0,0.2,0,0.3c0,0.1,0.1,0.1,0.2,0.1c0,0.1,0.1,0.2,0.2,0.2c-0.1,0.1-0.6,0.6-1.4,1.5
		c-0.8,0.9-1.7,1.8-2.7,2.9c-1,1-1.9,2-2.8,3c-0.9,1-1.6,1.8-2.1,2.3c0,0.1-0.1,0.2-0.2,0.4c-0.2,0.2-0.5,0.5-0.6,0.9
		c-0.2,0.4-0.3,0.7-0.5,1.1c-0.4,1.1-0.8,2.2-1.4,3.2c-0.5,1-1.2,1.4-1.9,1.2c-1-0.4-1.9-0.9-2.7-1.6c-0.8-0.7-1.6-1.5-2.3-2.4
		c-0.6-0.5-1.2-1-1.7-1.6c-0.5-0.5-1.1-1-1.7-1.4c-0.5-0.5-1.1-0.9-1.7-1.1c-0.7-0.2-1.4-0.4-2.1-0.4c-0.6,0.4-1.4,0.3-2.3-0.1
		c-0.9-0.4-1.8-1-2.7-1.7c-1.2-1-2.2-2-3-3.2c-0.8-1.2-0.8-2.1-0.1-2.8c2.9-2.9,5.4-5.5,7.5-7.7c2.7-2.9,5.3-5.9,8-8.8
		c2.6-2.9,3.9-4.8,3.8-5.5c0.1,0.4,0.3,0.5,0.5,0.5c0.2-0.1,0.5-0.3,0.9-0.6c0.4-0.5,0.7-1.1,1.1-1.9c0.4-0.8,0.6-1.5,0.7-2.1
		c0.5-0.1,1.1-0.4,1.7-0.8c0.7-0.4,1.4-0.9,2.1-1.6c0.7-0.7,1.5-1.8,2.2-3.1c0.7-1.3,1.5-3,2.2-4.9c1.5-0.2,2.6-0.5,3.4-0.7
		c0.8-0.2,1.4-0.5,1.7-0.9c0.4-0.2,0.4-0.6,0-1.1c0.1-0.6,0.3-1.2,0.6-1.9c0.3-0.7,0.6-1.3,1-1.9c0.4-0.7,0.8-1.4,1.2-2
		c0.4-0.6,0.8-1.2,1.2-1.8c0.9-1.3,1.6-2.6,2.2-3.8c0.6-1.2,0.8-2.1,0.5-2.8c-0.2-0.9-1-1.5-2.4-1.8c-1.3-0.4-3.5-0.5-6.4-0.4
		C920,41.5,919.8,41.6,919.5,41.7z M1019.6,59.3c2.3-0.5,4.1-1.1,5.6-1.8h0.4c0.7,0.1,1.8,0.2,3.1,0.2c1.3,0,2.7-0.1,4-0.2
		c1.3,0,2.5,0,3.6-0.1c1-0.1,1.7-0.1,2.1-0.1v10.6l-1.6,1.1l0.5,7.5l-0.5,1.5l0.4,3.3l-5.9,0.9l-2-0.9c-0.1,0-0.5,0.1-1.2,0.2
		c-0.7,0.1-1.4,0.2-2.3,0.4c-1,0.1-1.9,0.2-2.7,0.4c-0.9,0.1-1.5,0.2-1.8,0.2h-0.4c-2.1-1.1-3.8-1.7-5-1.9c-1.3-0.2-3.1,0.6-5.4,2.3
		l-0.4,0.4c0,0.6,0.1,1.1,0.4,1.4c0.2,0.3,0.5,0.6,0.9,1c-0.2,0.1-0.5,0.3-0.9,0.5c-0.2,0.1-0.4,0.2-0.5,0.4c-0.1,0.1,0,0.5,0.1,1.1
		c0.1,0.5,0.3,1.3,0.5,2.3c0.2,1,0.7,2.5,1.3,4.5c-0.1,0.6-0.2,1.3-0.4,1.9c-0.1,0.7-0.2,1.4-0.4,2.1c-0.1,0.7-0.2,1.5-0.4,2.2
		c-0.1,0.7-0.2,1.5-0.4,2.2c-0.4,2.7-0.7,5.3-1,8c-0.3,2.6-0.5,5-0.5,7.2c0,2.2,0.2,4,0.5,5.4c0.4,1.4,1,2.1,1.8,2.1
		c-0.2,0.9-0.4,1.6-0.4,2.4c-0.2,1.3-0.4,2.9-0.5,4.8c-0.1,1.8-0.2,3.7-0.2,5.7c-0.1,1.8-0.1,3.6,0,5.3c0.1,1.7,0.4,3,0.7,3.8
		c-0.4,0.1-0.6,0.3-0.7,0.5c-0.1,0.2-0.2,0.4-0.2,0.6c0,0.2,0.1,0.6,0.3,1c0.2,0.4,0.4,0.9,0.6,1.4c0,0.2,0.1,0.5,0.2,0.8
		c0.1,0.3,0.2,0.6,0.4,0.8c0.1,0.4,0.2,0.7,0.4,1.1c0.1,0.4,0.2,0.7,0.4,1.1c-0.4,1.1-0.9,2.7-1.6,4.8c-0.7,2.1-1.5,3.7-2.2,4.8
		c-0.4,0.4-0.7,0.7-1,0.9c-0.3,0.2-0.6,0.2-0.8-0.2c-1.1-0.7-2.2-1.3-3.4-1.6c-1.2-0.4-2.3-0.6-3.4-0.7c-1.1,0-2.2,0-3.3,0.1
		c-1.1,0.1-2.1,0.1-3.1,0.1c-1.1,0.2-2.2,0.4-3.2,0.5c-1,0.1-2,0-3-0.1c-0.9-0.5-1.4-1.1-1.7-1.8c-0.3-0.7-0.5-1.5-0.5-2.4
		c-0.1-1-0.1-1.9,0-2.8c0.1-0.9,0.3-1.8,0.5-2.7c0.1-0.6,0.2-1.2,0.3-1.8c0.1-0.6,0.1-1.2,0.1-1.6c0-0.5-0.1-0.9-0.3-1.2
		c-0.2-0.3-0.5-0.5-1-0.5c-0.2-1.8-0.3-3.4-0.3-4.8c0.1-1.3,0.1-2.5,0.1-3.5c0.1-1.1,0.2-2,0.4-2.7c0.1-0.7,0.3-1.5,0.5-2.2
		c0.1-0.7,0.3-1.5,0.5-2.4c0.2-0.9,0.3-1.9,0.3-3.1c0.1-1.2,0.1-2.6,0-4.2c-0.1-1.6-0.3-3.6-0.5-6c0.4-0.6,0.6-2.1,0.8-4.4
		c0.2-2.3,0.3-4.8,0.3-7.3l-0.4-11.9c0.2-0.2,0.4-0.5,0.5-0.8c0.1-0.3,0.1-0.6,0.1-1s-0.1-0.7-0.2-1.1c-0.1-0.4-0.2-0.8-0.2-1.3
		c-0.4-0.7-0.6-1.6-0.6-2.5c-0.1-0.9,0.5-1.7,1.6-2.3c-0.4-2.8-0.5-5.2-0.5-7c0-1.9,0-3.5,0-4.8c-0.1-1.1-0.2-2-0.3-2.8
		c-0.1-0.8-0.2-1.6-0.3-2.3c-0.1-0.6-0.3-1.2-0.6-1.9c-0.3-0.7-0.7-1.4-1.2-2.3c0-0.6,0.1-1.2,0.2-1.7c0.1-0.5,0.2-1.1,0.4-1.6
		c0-0.4,0.1-0.8,0.2-1.3c0.1-0.5,0.2-1,0.4-1.5c0.2-1,0.5-2,0.7-3.2c0.2-1.2,0.5-2.7,0.7-4.7c0.2-1.8,0.5-4.2,0.6-7.1
		c0.2-2.9,0.4-6.6,0.6-11l-3.3-3.3c0.1-0.9,0.2-1.6,0.2-2.4c0-1.5,0-3.2,0-5.3c0-2.1-0.2-3.2-0.5-3.5c-0.2,0-0.4-0.2-0.5-0.5
		c-0.1-0.3-0.2-0.6-0.2-1c-0.1-1-0.1-2.3,0.1-3.8c0.2-1.6,0.6-3.3,1.4-5.1c0.7-0.2,1.4-0.4,1.9-0.5c0.5-0.1,1.1-0.2,1.6-0.2
		c0.5,0,1,0,1.5,0.1c0.5,0.1,1,0.1,1.5,0.1c0.7,0.2,1.5,0.4,2.3,0.4c0.8,0,1.7-0.2,2.8-0.5c0,0.7,0,1.1,0.1,1.2
		c0.1,0.1,0.2,0,0.5-0.1c0.1-0.1,0.4-0.2,0.8-0.4c0.4-0.1,1.1-0.1,1.9,0.2c0.4,0.7,0.7,1.1,1,1.1c0.3,0,0.8-0.2,1.4-0.5
		c0.4-0.1,0.8-0.3,1.4-0.5c0.5-0.2,1.2-0.4,1.9-0.5c0.7-0.1,1.6-0.2,2.6-0.2c1,0,2.1,0.1,3.5,0.4v15.4c0,3.7,0,7.3-0.1,10.9
		c-0.1,3.6-0.1,6.7-0.1,9.4c-0.7,0.9-1.2,1.7-1.4,2.7s-0.3,1.9-0.3,2.8c0.1,1,0.3,2,0.5,2.9c0.2,1,0.5,1.9,0.7,2.7
		c0,0.5,0.1,0.9,0.2,1.4c0.1,0.4,0.2,0.8,0.4,1.2C1014.7,59.3,1017.3,59.8,1019.6,59.3z"/>
</g>
</svg>
