<?xml version="1.0" encoding="utf-8"?>
<!-- Generator: Adobe Illustrator 22.0.1, SVG Export Plug-In . SVG Version: 6.00 Build 0)  -->
<svg version="1.1" id="Layer_1" xmlns="http://www.w3.org/2000/svg" xmlns:xlink="http://www.w3.org/1999/xlink" x="0px" y="0px"
	 viewBox="0 0 894.6 363.6" style="enable-background:new 0 0 894.6 363.6;" xml:space="preserve">
<style type="text/css">
	.st0{fill:#FFFFFF;}
</style>
<g>
	<path class="st0" d="M84.1,8.8c0,5.3-0.1,10.5-0.2,15.6c-0.2,5.1-0.1,10.1,0.2,14.9c-3.8-1.5-7.9-2.5-12.3-3.1
		c-4.4-0.5-9-0.8-13.8-0.8c-4.7,0-9.5,0.1-14.4,0.3c-4.8,0.2-9.6,0.3-14.2,0.3c-0.5,5.3-0.5,10.5-0.2,15.6
		c0.3,5.1,0.6,10.1,0.9,14.9c5.7,1.7,11.7,2.2,18,1.6c6.3-0.6,12.6-1.1,19.1-1.6c0.1,2.1,0.2,4.6,0.1,7.3c-0.1,2.8-0.1,5.6-0.1,8.6
		s0,5.8,0.1,8.7c0.1,2.9,0.3,5.4,0.8,7.7c-6.5,0.8-12.8,1-19.1,0.7c-6.3-0.3-12.5-0.3-18.9,0c0.8,11.3,1,22.9,0.7,34.7
		c-0.3,11.8-0.2,22.9,0.2,33.3c-5.7,0-10.8,0.1-15.3,0.2c-4.4,0.1-9.1,0.1-13.9-0.2C1,156.1,0.5,145,0.4,134.4
		C0.3,123.7,0.3,111.9,0.3,99c0-2.1-0.1-4.1-0.2-6.1c-0.2-2-0.1-4,0.2-6.1c0-1.7,0.3-3.1,0.8-4.4c0.5-1.3,0.8-2.7,0.8-4.4
		c0-0.8-0.2-1.4-0.5-1.9c-0.3-0.5-0.7-1.2-1.1-2.1c0-2.4,0.2-4.9,0.6-7.6c0.4-2.6,0.2-5.2-0.6-7.6c0.5-4.1,0.8-7.8,0.9-11.3
		c0.1-3.5,0.3-6.9,0.3-10.2c0.1-3.3,0.1-6.7,0.1-10.1S1.7,20.1,1.9,16c-0.3-0.9-0.1-1.3,0.6-1.2c0.7,0.1,1-0.1,1-0.6
		C2.7,12,2.7,9.6,3.5,7c5.7-1.2,11.9-1.8,18.4-1.9C28.4,5,35,5.1,41.4,5.4C48.7,5.9,56,6.1,63.4,6C70.7,5.9,77.7,6.9,84.1,8.8z
		 M6,166.6c0,0.5,0.2,0.6,0.6,0.3c0.4-0.2,0.7-0.3,1-0.3c-0.3,0-0.6-0.1-1-0.2C6.1,166.2,6,166.3,6,166.6z M7.6,6.6v0.7h0.9
		c0,0.5,0.1,0.5,0.3,0.2c0.2-0.3,0.3-0.6,0.3-0.9c-0.3-0.5-0.6-0.5-1-0.1C7.8,6.9,7.6,6.9,7.6,6.6z M17.3,159.3
		c0.5,0.5,0.8,0.6,0.9,0.3c0.1-0.2,0.4-0.3,0.7-0.3c0-1.2-0.3-1.9-1-2c-0.7-0.1-1.4-0.2-2.1-0.2c0.3,0.8,0.4,1.4,0.3,1.8
		c-0.1,0.5,0,0.9,0.3,1.4c-0.2,0-0.3,0.1-0.5,0.2c-0.2,0.2-0.2,0.6-0.2,1.4c0.8,0,1.2-0.2,1.4-0.6C17.2,160.9,17.3,160.2,17.3,159.3
		z"/>
	<path class="st0" d="M179.9,71.6c-0.2,1.2,0,2.3,0.3,3.3c0.4,1,0.8,2.3,1.2,4c0,2.4-0.2,4.9-0.5,7.6c-0.3,2.6-0.5,5.2-0.5,7.8
		c0,4.4,0,8.8,0,13.3s-0.2,9.4-0.7,14.7c-0.3,3.3-0.5,6.3-0.7,8.8c-0.2,2.6,0.1,5.3,0.7,8.1c0,0.5,0.1,1,0.3,1.7
		c0.2,0.7,0.3,1.2,0.3,1.7c0,1.2-0.3,2.4-0.8,3.6c-0.5,1.2-0.8,2.4-0.8,3.6c-0.3,2.9-0.2,5.8,0.5,8.8c0.6,3,0.8,6,0.5,8.8
		c-1.2,0.3-2,0.2-2.4-0.2c-0.4-0.5-0.9-0.7-1.7-0.7c-4.1,0-7.8-0.4-11.1-1.1c-3.3-0.8-6.6-1.1-9.9-1.1c-2.9,0.3-5.8,0.7-8.8,1.1
		c-3,0.5-6,0.3-8.8-0.5c-0.3-0.1-0.5-0.5-0.5-1.1c0-0.6-0.1-1.2-0.2-1.9c-0.2-0.7-0.3-1.4-0.6-2c-0.2-0.7-0.6-1.1-1.2-1.2
		c0.8-0.5,1-1.3,0.8-2.6c-0.2-1.3-0.5-2.3-0.8-3.1c0.8-1.2,0.9-2.6,0.6-4.2c-0.4-1.6-0.6-3.4-0.6-5.5c0-1.2,0.1-2.2,0.3-3.1
		c0.2-0.8,0.3-1.4,0.3-1.7c-0.3-1.2-0.8-1.8-1.4-1.9c-0.6-0.1-0.9-0.6-0.9-1.5c3.2-0.8,6.2-1.1,9.3-0.9c3,0.2,5.6,0.2,7.7,0.2
		c0.8-1.2,1-2.4,0.8-3.7c-0.2-1.3,0-1.9,0.8-1.9c-0.8-4.8-1-10.4-0.8-16.8c0.2-6.4,0.2-12.6-0.1-18.6c-0.5-9.9-0.9-19.5-1.4-28.8
		c-0.5-9.3-0.5-18.2-0.2-26.8c-2.6-0.8-4.7-1.2-6.6-1.2c-1.8-0.1-3.6,0-5.3,0.1c-1.7,0.2-3.5,0.4-5.4,0.7c-1.9,0.3-4.2,0.5-6.9,0.5
		c-0.3,8.4-0.3,16.7,0.1,24.9c0.4,8.1,0.8,16.2,1.2,24.1s0.8,15.7,1,23.5c0.2,7.8,0,15.6-0.8,23.4c0.5,0.6,1.1,1,1.8,1.2
		c0.8,0.2,1.5,0.5,2.3,0.7s1.4,0.6,2,1c0.6,0.5,1,1.1,1.1,2c-0.3,0-0.8-0.1-1.4-0.3c-0.6-0.2-0.9-0.1-0.9,0.3c0.3,2.4,0.6,5,1,7.9
		c0.4,2.9,0.3,6.1-0.3,9.7c0,0.5-0.1,1.1-0.3,1.8c-0.2,0.8-0.3,1.5-0.3,2.3c0,0.8,0.4,1.5,1.1,2.4c0.8,0.8,1.1,1.6,1.1,2.4
		c-5.7,0.8-11.8,0.9-18.1,0.6c-6.3-0.4-12.1-0.6-17.4-0.6c-1.7-16-2.7-31.8-3.1-47.5c-0.4-15.7-0.7-31.3-1-46.8
		c-0.2-6.5,0.3-13.1,1.5-19.8c1.1-6.7,1.5-13.3,1-19.8c-0.3-4.4-0.8-8.5-1.6-12.3c-0.8-3.8-0.8-7.8,0-11.9c10.1,0,20.8,0,32.1-0.1
		c11.3-0.1,22.1-0.3,32.5-0.6c3.2-0.5,6.3-0.6,9.5-0.3s6.2,1.2,9,2.8c0.6,2.4,0.8,4.9,0.7,7.3c-0.2,2.5-0.4,5-0.7,7.5
		c-0.3,2.5-0.5,5-0.7,7.5c-0.2,2.5,0.1,4.9,0.7,7.3c0,0.9,0.3,1.8,0.9,2.6c0.6,0.8,1.1,1.8,1.4,3.1c0.5,2.1,0.2,4.3-0.7,6.7
		c-0.9,2.3-1.2,4.7-0.9,7.1c0,0.8,0.3,1.4,0.8,2c0.5,0.6,0.8,1.3,0.8,2c0,1.7-0.2,3.3-0.6,4.9C179.7,68.4,179.6,70,179.9,71.6z
		 M103.8,115.9c0,0.3,0.3,0.3,1,0.1c0.7-0.2,0.9-0.6,0.6-1C104.3,115,103.8,115.3,103.8,115.9z M107,86.8c0.3-0.3,0.6-0.5,1-0.7
		c0.4-0.1,0.6-0.5,0.6-0.9c-0.8-0.3-1.3-0.2-1.7,0.3C106.5,86.1,106.5,86.5,107,86.8z M110.1,36.2c0-0.8-0.3-1.3-1-1.7
		c-0.7-0.4-1.4-0.3-2.1,0.1c0,0.8,0.3,1.2,1,1.4C108.7,36.1,109.4,36.2,110.1,36.2z M106.6,44.7v1.6h1.6
		C108.2,45.2,107.7,44.7,106.6,44.7z M108.6,49.7c-0.5,0.5-0.2,0.7,0.8,0.7c1,0,1.2-0.2,0.8-0.7c0-0.3-0.2-0.4-0.5-0.2
		C109.4,49.6,109,49.7,108.6,49.7z M114.2,16l-3.2,3.8c0.8,0,1.7-0.5,2.7-1.4C114.8,17.6,115,16.8,114.2,16z M112.6,28.9
		c0,0.3,0.1,0.6,0.2,1c0.1,0.4,0.6,0.6,1.4,0.6c0.5-0.5,0.5-0.9,0.1-1.5C113.9,28.5,113.4,28.5,112.6,28.9z M114.2,78.9
		c0.5,0.3,1,0.3,1.6,0.1c0.6-0.2,0.9-0.6,0.9-1c-0.8,0-1.3-0.4-1.6-1.1c-0.3-0.8-0.8-1.1-1.6-1.1c-0.5,0.8-0.3,1.4,0.3,1.8
		C114.5,78,114.7,78.4,114.2,78.9z M156.2,148c0-0.8,0.1-1.3,0.3-1.6c0.2-0.3,0.3-0.8,0.3-1.6c-0.8-0.3-1.4-0.3-2,0.1
		c-0.6,0.4-1.5,0.3-2.7-0.1c0.3,0.8,0.4,1.2,0.2,1.5c-0.2,0.2-0.2,0.6-0.2,1c0.8,0,1.4,0,2,0.1C154.8,147.5,155.5,147.7,156.2,148z
		 M160.3,136c0.3-0.5,0.4-0.9,0.2-1.2c-0.2-0.4-0.2-0.8-0.2-1.2c-1.2,0-1.8,0.5-1.8,1.6c0.5,0,0.8,0.2,0.9,0.5
		C159.6,135.9,159.9,136,160.3,136z M166.6,152.3h-1.6c0,0.5,0.3,0.8,0.8,0.9C166.4,153.3,166.6,153,166.6,152.3z"/>
	<path class="st0" d="M279.2,69.1c-1.7-0.5-3.1-0.5-4.4,0c-1.3,0.5-2.8,0.5-4.4,0c1.2,8.1,2.7,16.3,4.5,24.5
		c1.8,8.2,3.7,16.5,5.5,24.7c1.9,8.3,3.7,16.5,5.5,24.7c1.8,8.2,4.5,24.1,4.5,24.1h-29.1l-7.2-23.5c-1.4-4.4-2.7-8.5-4.1-12.4
		c-1.4-3.9-2.4-7.8-3.2-11.8c0-1.2-0.1-2.1-0.2-2.7c-0.2-0.6-0.1-1.1,0.2-1.4c0-0.5-0.3-0.8-0.8-1c-0.5-0.2-0.8-0.7-0.8-1.5
		c-1.2-6.9-2.5-14.1-3.7-21.4c-1.3-7.3-3-14.4-5.1-21.4h-7.2c0,8.5,0.3,16.2,0.9,23.2c0.6,7,1.1,14.4,1.4,22.1
		c0.5,9.1,0.5,17.7,0.1,26c-0.4,8.3-1.2,16.5-2.4,24.7h-9.7h1.1v-2h-1.1h-0.9h-0.7c-0.6,0.7-0.9,0.8-0.9,1.1
		c-0.2,0.2,0.6,0.5,0.6,0.5v0.4h0.3h-5.7c-1.7,0.3-3.4,0.4-5.2,0.6c-1.8,0.2-3.3,0.1-4.5-0.3c-1.4-0.8-2.2-2-2.6-3.6
		c-0.4-1.7-0.5-3.5-0.5-5.7c0.1-2.1,0.2-4.3,0.5-6.4c0.2-2.2,0.3-4.2,0.1-6c0-1.7-0.5-3.2-1.4-4.7c-0.9-1.5-1.5-2.9-1.8-4.1
		c-0.6-2.4-0.5-5.3,0.3-8.6c0.8-3.3,1.2-6.3,1.2-9c0-6.3-0.2-12-0.5-17.1c-0.3-5-0.5-10.4-0.5-16.2c0-3.2-0.1-6.3-0.2-9.5
		c-0.2-3.2-0.1-6.2,0.2-9c0-0.8,0-1.3-0.1-1.6c-0.1-0.3,0.3-0.8,1-1.6c0-0.5-0.2-0.6-0.7-0.6c-0.5,0.1-0.5-0.3-0.2-1
		c0-7.2,0-15.8,0.1-25.7c0.1-9.9,0.3-19.8,0.8-29.9c7.2,0.2,14.7,0.2,22.4,0c7.7-0.1,15.3-0.3,22.9-0.5c7.6-0.1,15-0.3,22.3-0.5
		c7.2-0.1,14-0.1,20.3,0c-0.8,3.3-0.6,6.3,0.3,8.9c1,2.6,1.7,5.6,2.1,8.9c0.3,3.2,0.3,6.6,0,10.4c-0.3,3.8-0.3,7.2,0,10.4
		c0.1,2.4,0.6,5,1.4,7.8c0.8,2.8,1.2,5.4,1.5,7.9c0.2,2.5,0,4.7-0.7,6.6c-0.7,1.9-2.2,3.1-4.6,3.7c-1.2,0.3-2.4,0.2-3.6-0.2
		C281.6,69.4,280.4,69.1,279.2,69.1z M206.6,22.4c1.2,0.5,2.1,0.5,2.6,0c0.5-0.5,0.8-0.9,0.8-1.5c0-0.5-0.3-0.8-0.8-0.9
		c-0.5-0.1-1.2,0.5-1.9,1.7c-0.3,0-0.6-0.1-0.9-0.2C206.1,21.3,206.2,21.6,206.6,22.4z M206.6,28.9v0.7c0.3,0,0.6,0.1,1,0.2
		c0.4,0.2,0.6-0.1,0.6-0.9c0-0.5-0.2-0.6-0.6-0.3C207.2,28.8,206.9,28.9,206.6,28.9z M258.6,41.8c0.5-2.1,0.7-4,0.8-5.7
		c0.1-1.7,0.1-3.5,0.1-5.6c-3.3-0.5-6.7-0.6-10.3-0.3c-3.5,0.2-7.1,0.3-10.7,0.3c-0.5-0.5-0.6-1-0.6-1.6c0.1-0.6-0.3-0.9-1-0.9
		c-0.5,0.8-0.5,1,0,0.7c0.5-0.3,0.7-0.2,0.7,0.2v0.7c-1.7,0.8-3.1,1.1-4.4,1.1c-1.3,0-2.8,0.2-4.4,0.5c0,1.7,0.1,3.4,0.5,5.3
		c0.3,1.9,0.5,3.7,0.5,5.3C239.8,42.4,249.4,42.4,258.6,41.8z"/>
	<path class="st0" d="M390.8,132.3h0.2c0.3,0,0.5,0.2,0.5,0.7l5.7,35.3h-22.6c0,0-3.7-9.6-4.7-14.4c-1.1-4.8-2.4-9.4-4.1-13.8
		c-4.4,0-9.2-0.1-14.6-0.5c-5.3-0.3-10.4-0.5-15.3-0.5c-2.1,4.4-3.5,9-4.2,13.9c-0.7,4.9-1.5,9.8-2.4,14.6c-3.9,0-8,0.2-12.2,0.6
		c-4.2,0.4-8.7,0.2-13.6-0.6l5.7-38.9c0.8,0.8,1.8,0.8,3.2,0c-0.8-0.5-1.4-0.6-1.8-0.5c-0.5,0.2-0.9,0-1.4-0.5
		c1.7-9.6,3.1-19.5,4.2-29.6c1.1-10.1,2.4-20.3,4-30.7l2.5-17.9c0.3-1.7,0.9-3,1.8-4c0.9-1,1.4-2.3,1.4-4c0.8-2.6,1.3-5.2,1.6-7.8
		c0.3-2.6,0.8-5.2,1.6-7.6c1.2-3.6,2.2-7.2,2.9-10.8c0.8-3.6,1.1-7.2,1.1-11.3h6.6c-0.5,0.8-0.8,0.8-0.9,0.7
		c-0.2-0.1-0.5-0.2-0.9-0.2c0,0.8,0.5,1,1.5,0.8c1-0.2,1.8-0.5,2.6-0.8c0.5,0,0.6,0.2,0.5,0.5c-0.2,0.3,0,0.7,0.5,1.1
		c0.3-0.5,0.6-0.8,0.9-0.9c0.3-0.1,0.2-0.4-0.2-1.1h16.3c2.9,0,5-0.3,6.6-0.4c1.5-0.1,2.6,1.2,3.2,4.1l2.3,12
		c0.8,1.7,1.4,3.4,1.9,5.3c0.5,1.9,1,3.7,1.5,5.3c0,0.3-0.2,0.4-0.5,0.3c-0.3-0.1-0.5,0-0.2,0.3v0.9c-0.2-0.6-0.5-0.9-1.1-0.9
		c-0.5,0-0.9,0.5-0.9,0.5v0.5v-0.9v0.9c0,0-1.3,0.1-1.7,0.2c-0.4,0.2-0.6,0.6-0.3,1.4v0.6h0.6h0.7l-0.7,1l-0.6-0.7v0.7
		c0.8,0.8,1,1.6,1,1.6v0.9l1-0.9v0.5c0,0,0.4,0.5,0.9,0.5c0.9,0,1.4-0.3,1.6-0.9c0.1-0.6,0.2-1.1-0.5-1.6v-1h-1.8h0.7
		c0.5-0.2,0.9-0.5,1.2-0.6c0.4-0.1,0.6-0.4,0.6-0.7l1.6,5.4c2.7,9.5,4.9,19.2,6.4,29.2c1.6,9.9,3.4,19.9,5.5,29.8
		c0,1.1-0.2,1.6-0.7,1.6c0.8,1.2,1.4,2.7,1.8,4.5c0.5,1.8,0.9,3.5,1.4,5.2c0.5,3.6,1,7.3,1.6,11.1c0.6,3.8,0.9,7.3,0.9,10.6
		C391.6,131.3,390.8,132.3,390.8,132.3z M337.5,11.1l-0.7,1.2h1.6h2.2v-1.2l1,0.9v-1.7h-1V9.5l-0.6,0.8h-0.9h-0.5
		c-0.2,0.1-0.3,0.2-0.5,0.3C338,10.8,337.8,10.9,337.5,11.1z M342.5,108.7c2,0.3,4.8,0.4,8.5,0.2c3.7-0.1,6.7-0.2,9.2-0.2
		c-1.2-7.2-2.5-14.4-3.7-21.5c-1.3-7.1-3-13.6-5.1-19.7c-1.7,6.5-3.4,13.1-5.1,20C344.5,94.4,343.2,101.5,342.5,108.7z M374.6,153.3
		h1.8h0.7l2.5,1.3l-0.9-2.5c-0.5-0.5-1.2-0.7-2.3-0.8h-0.9h-0.9l-1.9-0.8v0.9c0.8,0.8,1.1,1.2,1.3,1.4
		C374,152.9,374.2,153,374.6,153.3z"/>
	<path class="st0" d="M498.6,57.2v-0.9c-0.4,0-0.8,0.2-1.1,0.5l-0.5,0.5c-0.5,0.5-0.7,1-0.4,1.6v0.5h0.2h1.8v-1.6v17.9v33v33
		c0,2.1-0.2,3.8-0.7,5c-0.4,1.2-1,2.3-1.8,3.2c-0.7,0.9-1.6,1.8-2.6,2.6c-1,0.8-2,1.8-3,3.1c-1.6,2-2.8,4-3.6,6.1
		c-0.7,2.1-1.9,3.8-3.6,5c-10.9-0.3-22.3-0.2-34.3,0.2c-11.9,0.5-24,0.7-36.1,0.7c-0.6,0-0.9-0.5-0.9-1.6c1,0,1.9-0.3,2.5-0.9v-0.5
		c0,0,0.3-0.1,0.6-0.5l0.5-0.5c0-0.3,0-0.5-0.1-0.7c-0.1-0.1-0.3-0.5-0.8-0.9l-0.2-0.7v0.2h-1.4h-0.6v1.4v0.6h-1v1l-1,0.7v0.3h1
		c0,0-0.9,1.2-1.7,1.6c-0.8,0.4-1.6,0.6-2.4,0.6c-0.3-4.8-0.4-9.8-0.3-14.9c0.1-5.1,0-10.3-0.3-15.6c1.7-0.9,3.1-1.1,4.3-0.7
		c1.2,0.5,2.2,0.1,2.9-1.1c0.3,0,0.5,0.2,0.5,0.5c0,0.3-0.2,0.5-0.5,0.5c0,0.5,0.3,0.4,1-0.1c0.7-0.5,1.4-0.8,2.1-0.8
		c0.5,0.5,1,0.9,1.7,1.2c0.7,0.4,1.2,0.6,1.5,0.6c4.5,0.8,9.1,1,13.8,0.7c4.7-0.3,9.3-0.3,13.8,0c3.6,0.3,7.2,0.3,10.6,0
		c3.5-0.3,6.6-0.8,9.5-1.6c0-4.1-0.3-8.5-0.8-13.3c-0.5-4.8-0.8-9.3-0.8-13.3c0.3,0.5,0.6,0.8,0.9,1c0.3,0.2,1.1,0.2,2.3-0.1
		c0-0.8-0.6-1.2-1.7-1.2c-1.1-0.1-1.9-0.5-2.4-1.2c0.5-2.1,0.3-4.2-0.5-6.2c-0.8-2-1.1-4.3-1.1-6.7c0-0.8,0.1-1.4,0.5-2
		c0.3-0.6,0.5-1.3,0.5-2c0.3-3.2,0-6.3-0.8-9.5c-0.8-3.2-0.9-6.2-0.1-9c0-0.8-0.1-1-0.3-0.8c-0.2,0.2-0.3,0-0.3-0.8
		c0.3-5.3,0.6-10.6,1-15.9c0.4-5.3,0.6-11,0.6-17.1c-10.7-0.9-21.8-0.9-33.2,0c-0.8-5.3-0.9-10.6-0.6-16c0.4-5.4,0.6-10.5,0.6-15.4
		c1.2,0,2.6,0.1,4.2,0.2c1.6,0.2,3.2,0.1,4.9-0.2c0.3,0.3,0.5,0.6,0.5,1c0,0.4,0.4,0.6,1.1,0.6c0.8,0,0.8-0.2,0.2-0.6
		c-0.6-0.4-0.7-0.7-0.2-1c8.1,0,17,0.1,26.7,0.2c9.6,0.2,19,0.1,28-0.2c2,8.9,2.8,17.4,2.6,25.4C499.4,39.8,499.2,48.3,498.6,57.2z
		 M422.9,156.6c0,0.5,0.2,0.7,0.7,0.7h0.9C424.5,156.8,424,156.6,422.9,156.6z M428.6,161.8c0-1.1-0.5-1.6-1.6-1.6
		c0,0.5,0.1,0.8,0.2,1.1C427.4,161.7,427.8,161.8,428.6,161.8z M431.1,146.4c0.8,0,1.2-0.3,1.4-0.9c0.1-0.6,0.2-1.1,0.2-1.4
		c-0.5-0.5-1-0.7-1.7-0.7s-1.2,0.2-1.5,0.7C431.1,144.2,431.7,144.9,431.1,146.4z M429.5,161.1c1.8,0,2.3-0.8,1.6-2.5
		c-0.8,0-1.2,0.2-1.4,0.6C429.5,159.6,429.5,160.2,429.5,161.1z M433.3,144.2c1.2,0,1.8-0.3,1.8-0.9c-0.5-0.3-0.9-0.3-1.2-0.1
		C433.5,143.4,433.3,143.7,433.3,144.2z M434,145.8c0.5,0.3,1.1,0.3,1.9,0c0.8-0.3,1.2-0.8,1.2-1.6l-0.5-0.5l-1.1-1.1v0.7
		c0.5,0.8,0.4,1.2-0.1,1.5C435,145,434.5,145.3,434,145.8z M439.9,153c0-0.8,0.1-1.2,0.5-1.5c0.3-0.2,0.5-0.6,0.5-1
		c-1.2,0-2,0.5-2.4,1.4c-0.4,0.9-0.9,1.5-1.7,1.8c0.3,0.5,0.8,0.5,1.5,0C438.8,153.2,439.4,153,439.9,153z"/>
	<path class="st0" d="M573.7,142.6l1.8,24.9c-11.3-0.9-22.1-1.1-32.4-0.5c-10.3,0.6-20.5,0.8-30.6,0.5c0-5.3,0.1-10.6,0.2-15.9
		c0.1-5.3,0.6-10.2,1.4-14.6c1.7-0.5,3.4-0.5,5.3-0.1c1.9,0.4,3.7,0.4,5.3,0.1c0.3-5.3,0.6-10.1,1-14.6c0.4-4.4,0.6-9.3,0.6-14.6
		c0.3-0.8,0.8-0.8,1.5-0.2c0.7,0.6,1.2,0.7,1.7,0.2c0-0.6-0.2-1-0.5-1.1c-0.3-0.1-0.7-0.3-1.1-0.3c-0.5-0.1-0.8-0.1-1.1-0.2
		c-0.3-0.1-0.5-0.3-0.5-0.8c0.3-6.8,0.5-13.8,0.6-21c0.1-7.2,0.1-14.7,0.1-22.4c0-0.6,0.5-0.9,1.6-0.9c0-0.8-0.3-1.1-0.8-1
		c-0.5,0.1-0.8-0.1-0.8-0.6c0-1.2,0-2.3,0.1-3.4c0.1-1.1,0.3-1.8,0.8-2.3c-0.8-2.1-0.9-4.5-0.6-7.2c0.4-2.7,0.6-5.6,0.6-8.8
		c-1.7-0.3-4-0.3-7,0c-3,0.3-5.5,0.3-7.5,0l1.6-29.8c6.5-0.5,13.8-0.5,21.9-0.1c8.1,0.4,15.9,0.1,23.3-0.8c2.9-0.3,5.5-0.6,7.8-1
		c2.3-0.4,7.7-0.6,7.7-0.6v31.9h-18.9c-0.3,16-0.6,31.9-1,48.3c-0.4,16.3-0.6,33.2-0.6,50.5c3.3,0.5,6.5,0.6,9.6,0.3
		c3.1-0.2,8.9-0.3,8.9-0.3v5.2h-1.5h-0.5v0.4c-0.2,0.8-0.1,1.2,0.1,1.5c0.2,0.2,0.3,1.1,0.3,1.1h0.5v-1h0.6
		C573.5,143.3,573.7,143.1,573.7,142.6z M533.4,27.3c0.3,0.3,0.6,0.4,1,0.3c0.4-0.1,0.6-0.5,0.6-1.2c0,0.5-0.3,0.6-0.8,0.5
		C533.7,26.7,533.4,26.9,533.4,27.3z M542.2,14.3h-1.6c0,0.9,0.4,1.4,1.1,1.4C542.5,15.6,542.7,15.2,542.2,14.3z M543.1,45.9
		l-2.5-1.8c0,1.7,0.3,2.7,0.9,3.2c0.6,0.5,1.1,1.1,1.6,1.8c0.3,0,0.5-0.2,0.7-0.6c0.1-0.4,0.5-0.7,0.9-1c-0.8,0-1.2-0.2-1.4-0.6
		C543.2,46.5,543.1,46.2,543.1,45.9z M543.1,91.7c0.8,0.3,1.2,0.2,1.4-0.3c0.1-0.5,0.2-0.9,0.2-1.2c-0.8,0-1.2,0.2-1.4,0.5
		C543.2,90.9,543.1,91.3,543.1,91.7z M548.8,51.5c0.3,0.3,0.6,0.3,1,0.1c0.4-0.2,0.6-0.6,0.6-1c-0.8-0.5-1.2-0.5-1.4-0.2
		C548.9,50.7,548.8,51.1,548.8,51.5z M550.6,54.7v-1.6c-0.5,0-0.8,0.1-0.9,0.3c-0.2,0.2-0.4,0.3-0.7,0.3
		C549,54.4,549.5,54.7,550.6,54.7z M551.1,29.6c0.5,0.5,1,0.6,1.6,0.6c0.6-0.1,0.9-0.5,0.9-1.2c-0.3-0.5-0.8-0.5-1.5-0.2
		C551.4,29,551.1,29.3,551.1,29.6z M554.4,155.5c1.1,0,1.6-0.3,1.6-0.9l-0.9-0.9c0,0.5-0.1,0.8-0.3,0.9
		C554.6,154.7,554.4,155,554.4,155.5z M561.2,16.3h-1.6v0.9c0-0.5,0.3-0.6,0.8-0.5C560.9,16.9,561.2,16.7,561.2,16.3z M561.7,157.7
		c0.3-0.3,0.6-0.6,1-0.8c0.4-0.2,0.6-0.7,0.6-1.5c-0.8,0-1.3,0.3-1.7,0.9C561.2,157,561.2,157.4,561.7,157.7z"/>
	<path class="st0" d="M586.5,167.3l2.5-30.5c1.7,0,3.7-0.1,5.9-0.3c2.2-0.2,4.7-0.1,7.3,0.3c1.2-5.7,1.9-11.2,2.1-16.6
		c0.2-5.4,0-10.3-0.5-14.8c0-0.4,0.5-0.7,1.6-0.7c0-0.4-0.3-0.6-0.8-0.6c-0.5,0.1-0.8-0.3-0.8-1c0.4-3.8,0.6-7.2,0.4-10.4
		c-0.2-3.6-0.4-7.1-0.4-10.7c0-2.5,0-5.3-0.1-8.5c-0.1-3.3-0.2-6.7-0.2-10.3c-0.1-3.6-0.1-7.2-0.1-10.8c0-3.6,0.2-6.9,0.5-10.1
		c0.5,0,0.5-0.3,0.1-0.8c-0.4-0.5-0.1-0.8,0.8-0.8c-0.5-0.4-0.7-1-0.8-1.7c-0.1-0.7-0.1-1.2-0.1-1.7c-2.9,0.4-5.8,0.7-8.8,0.9
		c-2.9,0.2-5.2-0.4-6.9-1.6c1.2-4.8,1.7-9.7,1.4-14.7c-0.3-5-0.5-10.5-0.5-16.5c12,0,23.9,0.2,35.8,0.6c11.8,0.4,23.8,0.9,35.8,1.7
		c0.5,0.9,1.1,1.3,2,1.1c0.8-0.1,1.9-0.2,3.1-0.2l1.6,1.6c0.3-0.3,0.2-0.6-0.2-0.8c-0.5-0.2-0.7-0.8-0.7-1.7
		c1.2,0.4,2.3,1.2,3.1,2.2c0.8,1,1.5,1.9,2,2.7l4.8,5.6c0.5,0.4,1.1,1.1,1.8,2c0.8,0.9,1.6,1.9,2.4,2.9c0.8,1,1.7,2.1,2.4,3.2
		c0.8,1.1,1.3,2.1,1.6,3c1.1,2.8,1.3,6,0.8,9.6c-0.5,3.6-0.8,7-0.8,10.3v63.9c-0.6,0-0.9-0.1-0.9-0.2c-0.2-0.1-0.2-0.3,0-0.4
		c-0.3,0.7-0.3,1.2-0.1,1.2c0.2,0.1,0.6-0.1,1-0.6v13.7l-0.9-0.9h-1.1v0.9c-0.2,0.2-0.2,0.3-0.2,0.5c-0.2,0.2-0.4,0.2-0.7,0.2
		c-0.2,0.2-0.2,0.4-0.2,0.7c0,0.3,0,0.6-0.1,0.9c-0.1,0.3,0,0.6,0.3,0.9c0.5,0,0.9-0.2,1.2-0.6c0.4-0.4,0.8-0.7,1.2-1
		c0,2.9,0.1,5.6,0.2,8.4c0.1,2.7,0.1,5.3-0.2,7.7c0,2.9-1,5.3-2.9,7.5c-2,2.1-3.9,4.2-5.9,6.3c-1.1,2-2.1,3.7-3.2,5.1
		c-1.1,1.4-2.2,2.8-3.4,4c-1.2-0.3-2.7-0.3-4.4-0.1c-1.7,0.2-3,0.2-3.7-0.1v-1.3c-0.8,0-1.3,0.1-1.5,0.3s-0.5,0.5-0.8,0.8h-39.7H608
		c-0.5-0.3-0.8-0.2-1.2,0.2c-0.3,0.4-0.5,0.3-0.5-0.4c-2.9,0.7-6.2,1-9.9,0.7C592.8,167.4,589.4,167.3,586.5,167.3z M616.2,64.3
		h-1.6v1.6c0.3-0.5,0.6-0.8,1-0.9C616,64.8,616.2,64.6,616.2,64.3z M616.4,34.6c0.3,0.3,0.3,0.5-0.1,0.7c-0.4,0.2-0.3,0.5,0.1,0.9
		c0.8,0,1.2,0.3,1.2,1c0.1,0.7,0.7,0.9,1.9,0.6c0.5,0,0.7-0.3,0.8-0.9c0.1-0.6,0.1-1.1,0.1-1.6c-0.8-0.3-1.4-0.4-2-0.3
		C617.8,35,617.1,34.9,616.4,34.6z M622.9,51.5c0.8-1.7,0.6-2.9-0.5-3.6c-1.1-0.8-1.7-1.7-2-2.9l-1.6,1.6c0.3,0.5,0.8,0.8,1.4,1
		c0.6,0.2,0.9,0.7,0.9,1.5c-0.8,0.8-1.4,1.1-2,1.1c-0.6,0-1.5,0.5-2.7,1.4c1.7,0.3,2.9,0.2,3.8-0.5C621.1,50.5,622,50.6,622.9,51.5z
		 M621.1,19.2c-0.8,0-1.2,0.3-1.5,0.9c-0.2,0.6-0.5,1.1-0.8,1.6c0.3,0,0.8-0.2,1.4-0.7C620.8,20.6,621.1,20,621.1,19.2z M618.9,70.1
		c1.1,0,1.6-0.3,1.6-0.9c0-0.5-0.3-0.6-0.8-0.6C619.1,68.7,618.9,69.1,618.9,70.1z M623.3,45.9c0.5-0.9,0.5-1.5,0-1.8
		c-0.5-0.3-0.7-0.3-0.7,0v0.7C622.6,45,622.8,45.4,623.3,45.9z M626.8,40.9c-0.3,0-0.9-0.2-1.8-0.6c-0.9-0.4-1.4-0.2-1.4,0.6
		c0.5,0.5,0.9,0.8,1.4,1c0.5,0.2,0.3,0.7-0.5,1.5c0.8-0.5,1.2-0.9,1.5-1.2C626.2,41.8,626.5,41.4,626.8,40.9z M626.1,81.4
		c-0.5-0.5-0.6-1-0.5-1.6c0.1-0.6,0-0.9-0.5-0.9c-0.3,0.3-0.4,0.8-0.3,1.5C624.9,81,625.3,81.4,626.1,81.4z M649.4,35.2
		c-2.1,0.5-4.5,0.6-7.1,0.5c-2.6-0.1-4.8,0-6.4,0.5c0,17.8,0,34.8,0.1,51.2c0.1,16.3,0.3,33.4,0.6,51.2c2.6,0,5.5-0.1,8.8-0.2
		c3.3-0.1,6-0.6,8.1-1.4l-1.6-23.5c-0.2-2.4-0.5-4.8-0.9-7.1c-0.5-2.3-0.7-4.6-0.7-6.7c0-0.1,0.1-0.3,0.2-0.5
		c0.3-0.3,0.5-0.7,0.5-1.1c0-0.3-0.2-0.5-0.6-0.7c-0.4-0.1-0.2-0.5,0.6-0.9c-1.1,0-1.6-0.2-1.6-0.7c0-1.2,0.3-2.6,0.8-4.1
		c0.5-1.5,0.8-2.9,0.8-4.1c-0.3-3.2-0.8-6.2-1.4-9c-0.6-2.9-0.9-5.7-0.9-8.6c0-5.7,0.3-11.3,0.9-16.8
		C650.2,47.7,650.1,41.7,649.4,35.2z"/>
	<path class="st0" d="M782.9,71.6c-0.2,1.2,0,2.3,0.3,3.3c0.4,1,0.8,2.3,1.2,4c0,2.4-0.2,4.9-0.5,7.6c-0.3,2.6-0.5,5.2-0.5,7.8
		c0,4.4,0,8.8,0,13.3s-0.2,9.4-0.7,14.7c-0.3,3.3-0.5,6.3-0.7,8.8c-0.2,2.6,0.1,5.3,0.7,8.1c0,0.5,0.1,1,0.3,1.7s0.3,1.2,0.3,1.7
		c0,1.2-0.3,2.4-0.8,3.6c-0.5,1.2-0.8,2.4-0.8,3.6c-0.3,2.9-0.2,5.8,0.5,8.8c0.6,3,0.8,6,0.5,8.8c-1.2,0.3-2,0.2-2.4-0.2
		c-0.4-0.5-0.9-0.7-1.7-0.7c-4.1,0-7.8-0.4-11.1-1.1c-3.3-0.8-6.6-1.1-9.9-1.1c-2.9,0.3-5.8,0.7-8.8,1.1c-3,0.5-6,0.3-8.8-0.5
		c-0.3-0.1-0.5-0.5-0.5-1.1c0-0.6-0.1-1.2-0.2-1.9c-0.2-0.7-0.3-1.4-0.6-2c-0.2-0.7-0.6-1.1-1.2-1.2c0.8-0.5,1-1.3,0.8-2.6
		c-0.2-1.3-0.5-2.3-0.8-3.1c0.8-1.2,0.9-2.6,0.6-4.2c-0.4-1.6-0.6-3.4-0.6-5.5c0-1.2,0.1-2.2,0.3-3.1c0.2-0.8,0.3-1.4,0.3-1.7
		c-0.3-1.2-0.8-1.8-1.4-1.9c-0.6-0.1-0.9-0.6-0.9-1.5c3.2-0.8,6.2-1.1,9.3-0.9c3,0.2,5.6,0.2,7.7,0.2c0.8-1.2,1-2.4,0.8-3.7
		c-0.2-1.3,0-1.9,0.8-1.9c-0.8-4.8-1-10.4-0.8-16.8c0.2-6.4,0.2-12.6-0.1-18.6c-0.5-9.9-0.9-19.5-1.4-28.8
		c-0.5-9.3-0.5-18.2-0.2-26.8c-2.6-0.8-4.7-1.2-6.6-1.2c-1.8-0.1-3.6,0-5.3,0.1c-1.7,0.2-3.5,0.4-5.4,0.7c-1.9,0.3-4.2,0.5-6.9,0.5
		c-0.3,8.4-0.3,16.7,0.1,24.9c0.4,8.1,0.8,16.2,1.2,24.1c0.5,7.9,0.8,15.7,1,23.5c0.2,7.8,0,15.6-0.8,23.4c0.5,0.6,1.1,1,1.8,1.2
		c0.8,0.2,1.5,0.5,2.3,0.7c0.8,0.2,1.4,0.6,2,1c0.6,0.5,1,1.1,1.1,2c-0.3,0-0.8-0.1-1.4-0.3c-0.6-0.2-0.9-0.1-0.9,0.3
		c0.3,2.4,0.6,5,1,7.9c0.4,2.9,0.3,6.1-0.3,9.7c0,0.5-0.1,1.1-0.3,1.8c-0.2,0.8-0.3,1.5-0.3,2.3c0,0.8,0.4,1.5,1.1,2.4
		c0.8,0.8,1.1,1.6,1.1,2.4c-5.7,0.8-11.8,0.9-18.1,0.6c-6.3-0.4-12.1-0.6-17.4-0.6c-1.7-16-2.7-31.8-3.1-47.5
		c-0.4-15.7-0.7-31.3-1-46.8c-0.2-6.5,0.3-13.1,1.5-19.8c1.1-6.7,1.5-13.3,1-19.8c-0.3-4.4-0.8-8.5-1.6-12.3
		c-0.8-3.8-0.8-7.8,0-11.9c10.1,0,20.8,0,32.1-0.1c11.3-0.1,22.1-0.3,32.5-0.6c3.2-0.5,6.3-0.6,9.5-0.3s6.2,1.2,9,2.8
		c0.6,2.4,0.8,4.9,0.7,7.3c-0.2,2.5-0.4,5-0.7,7.5c-0.3,2.5-0.5,5-0.7,7.5c-0.2,2.5,0.1,4.9,0.7,7.3c0,0.9,0.3,1.8,0.9,2.6
		c0.6,0.8,1.1,1.8,1.4,3.1c0.5,2.1,0.2,4.3-0.7,6.7c-0.9,2.3-1.2,4.7-0.9,7.1c0,0.8,0.3,1.4,0.8,2c0.5,0.6,0.8,1.3,0.8,2
		c0,1.7-0.2,3.3-0.6,4.9C782.7,68.4,782.6,70,782.9,71.6z M706.1,115.9c0,0.3,0.3,0.3,1,0.1c0.7-0.2,0.9-0.6,0.6-1
		C706.6,115,706.1,115.3,706.1,115.9z M709.3,86.8c0.3-0.3,0.6-0.5,1-0.7c0.4-0.1,0.6-0.5,0.6-0.9c-0.8-0.3-1.3-0.2-1.7,0.3
		C708.8,86.1,708.8,86.5,709.3,86.8z M712.4,36.2c0-0.8-0.3-1.3-1-1.7c-0.7-0.4-1.4-0.3-2.1,0.1c0,0.8,0.3,1.2,1,1.4
		C710.9,36.1,711.7,36.2,712.4,36.2z M709.6,44.7v1.6h1.6C711.2,45.2,710.7,44.7,709.6,44.7z M710.8,49.7c-0.5,0.5-0.2,0.7,0.8,0.7
		c1,0,1.2-0.2,0.8-0.7c0-0.3-0.2-0.4-0.5-0.2C711.7,49.6,711.3,49.7,710.8,49.7z M716.5,16l-3.2,3.8c0.8,0,1.7-0.5,2.7-1.4
		C717.1,17.6,717.2,16.8,716.5,16z M714.9,28.9c0,0.3,0.1,0.6,0.2,1c0.1,0.4,0.6,0.6,1.4,0.6c0.5-0.5,0.5-0.9,0.1-1.5
		C716.2,28.5,715.7,28.5,714.9,28.9z M716.5,78.9c0.5,0.3,1,0.3,1.6,0.1c0.6-0.2,0.9-0.6,0.9-1c-0.8,0-1.3-0.4-1.6-1.1
		c-0.3-0.8-0.8-1.1-1.6-1.1c-0.5,0.8-0.3,1.4,0.3,1.8C716.8,78,716.9,78.4,716.5,78.9z M758.5,148c0-0.8,0.1-1.3,0.3-1.6
		c0.2-0.3,0.3-0.8,0.3-1.6c-0.8-0.3-1.4-0.3-2,0.1c-0.6,0.4-1.5,0.3-2.7-0.1c0.3,0.8,0.4,1.2,0.2,1.5c-0.2,0.2-0.2,0.6-0.2,1
		c0.8,0,1.4,0,2,0.1C757.1,147.5,757.8,147.7,758.5,148z M762.6,136c0.3-0.5,0.4-0.9,0.2-1.2c-0.2-0.4-0.2-0.8-0.2-1.2
		c-1.2,0-1.8,0.5-1.8,1.6c0.5,0,0.8,0.2,0.9,0.5C761.8,135.9,762.1,136,762.6,136z M768.9,152.3h-1.6c0,0.5,0.3,0.8,0.8,0.9
		C768.7,153.3,768.9,153,768.9,152.3z"/>
	<path class="st0" d="M817.4,4.1c13.2-0.8,26.4-1.5,39.4-2.3c13-0.8,25.6-1.4,37.8-1.8c-0.2,2.4-0.4,5-0.8,7.8
		c-0.4,2.8-0.7,5.6-0.9,8.4c-0.2,2.8-0.3,5.6-0.2,8.4c0.1,2.8,0.5,5.4,1.2,7.8c-2.1,0.6-4.5,1-7.2,1.1c-2.7,0.2-5.6,0.2-8.6,0.1
		c-3-0.1-6.1-0.2-9.1-0.5c-3.1-0.2-6.1-0.5-8.9-0.8H833c-0.3,5.3-0.2,10.4,0.2,15.3c0.5,5,0.7,10.6,0.7,16.9l54.5,2.3l4.1,32.2
		c0.5,0.8,0.3,1.1-0.6,1.1c-0.8,0-1.2,0.5-1,1.4c0.3,6,0.3,11.7-0.1,17c-0.4,5.3-0.6,10.6-0.6,15.9c0,1.4,0.1,3.6,0.2,6.6
		c0.1,3.1,0.2,6.3,0.2,9.6c0,3.3-0.2,6.4-0.4,9.2c-0.3,2.9-0.9,4.8-1.8,5.9c-0.5,0.5-2,0.8-4.6,1.1c-2.6,0.3-5.6,0.5-8.9,0.7
		c-3.3,0.1-6.5,0.2-9.6,0.2c-3.1,0-5.3-0.1-6.6-0.2c0-0.7-0.3-1.1-0.9-1.1c-0.6,0-1.1,0-1.4,0h-0.9h-0.9v1l0.9,0.2
		c-2-0.3-3.8-0.4-5.2-0.3c-1.5,0.1-3,0.1-4.6,0.1h3v-0.9c0-0.7-0.2-1.4-0.6-2.1c-0.4-0.7-1-1-1.7-1h-0.9l-0.9,1l-0.8,0.7v0.9v0.4
		h0.8h1.2v1.2c-4.2-0.1-8.2-0.2-12-0.2c-3.8,0-7.5,0-11.2,0c-3.7,0-7.4,0-11.3,0.1c-3.8,0.1-7.9,0.1-12.3,0.1c0-5.3,0-10.8,0.1-16.6
		c0.1-5.8,0.3-10.7,0.6-14.8c1.2,0.5,2.6,0.5,4.1,0c1.5-0.5,3.1-0.5,4.7,0c1.2,0,2.1,0.3,2.8,0.8c0.7,0.5,1.6,0.8,2.8,0.8
		c1.7,0.5,3.3,0.5,5,0.2c1.7-0.3,3.5-0.4,5.6-0.2c5.7,0.3,11.7,0.7,18.1,1.1c6.3,0.5,12.3,0.1,18.1-1.1c0-6.5-0.3-12.7-0.9-18.7
		c-0.6-6-1.1-12.6-1.4-19.9c-9.5,0.3-19.2,0-29-0.8c-9.9-0.8-19.5-1.6-29-2.4c0-5.3-0.5-10.6-1.4-16c-0.9-5.4-1-10.5-0.2-15.4
		c0-0.9,0.1-1.7,0.3-2.5c0.2-0.8,0.3-1.3,0.3-1.6c0.1-0.9,0.3-2.7,0.3-5.5c0.1-2.8,0.1-6,0.1-9.6c0-3.6,0-7.4-0.1-11.5
		c-0.1-4.1-0.1-7.9-0.1-11.5s0-6.8-0.1-9.5c-0.1-2.7-0.1-4.6-0.1-5.6c0.1-1.4,0.6-2.2,1.4-2.5c0.8-0.3,1.8-0.4,3.2-0.2
		c1.4,0.2,3.1,0.3,5.3,0.3C811.5,4.9,814.2,4.7,817.4,4.1z M808.9,61.9c0.5,0.3,0.9,0.4,1.5,0.3c0.5-0.1,0.6-0.5,0.1-1.2
		C809.4,61,808.9,61.3,808.9,61.9z M812.9,72.3c0,0.5-0.2,0.8-0.5,1c-0.3,0.2-0.5,0.7-0.5,1.5c0.8-0.5,1.2-0.6,1.5-0.5
		c0.2,0.2,0.6,0,1-0.5c0-0.3-0.2-0.4-0.5-0.3c-0.3,0.1-0.5,0-0.5-0.3v-0.5C813.6,72.5,813.4,72.3,812.9,72.3z M813,76.4
		c-0.5,0.8-0.2,1.1,0.9,1.1c1.1,0,1.6-0.4,1.6-1.1c-0.9-0.3-1.5-0.4-1.7-0.2C813.5,76.3,813.3,76.4,813,76.4z M816.1,74.8
		c0.5-0.5,0.8-0.9,1.1-1.4c0.3-0.5,0.5-1.1,0.5-1.8c-0.3-0.8-0.8-0.8-1.5-0.2c-0.7,0.6-1.2,0.9-1.7,0.9c0.5,0.5,0.6,1,0.6,1.6
		C815.1,74.5,815.4,74.8,816.1,74.8z M816.6,68.2v1.8c0.5,0,1,0,1.7-0.1c0.7-0.1,1.2-0.3,1.5-0.8c-0.8,0-1.3-0.1-1.6-0.5
		C817.9,68.4,817.4,68.2,816.6,68.2z M819.3,74.8c0,0.6,0.6,0.9,1.8,0.9C821.1,75.1,820.5,74.8,819.3,74.8z M834.7,83.6
		c-0.3,0-0.8,0-1.4,0.1c-0.6,0.1-0.9,0.3-0.9,0.8c0.3,0.3,0.8,0.4,1.4,0.3C834.4,84.8,834.7,84.4,834.7,83.6z M837.8,66
		c-0.3,0-0.7-0.1-1.1-0.3c-0.5-0.2-0.8-0.1-1.1,0.3c-0.5,0.8-0.2,1.1,0.8,1.1C837.4,67.1,837.8,66.7,837.8,66z M837.8,15.1
		c0.6,0,0.9-0.3,0.9-0.9C838.1,13.8,837.8,14.1,837.8,15.1z"/>
	<path class="st0" d="M108.4,199.1c13.2-0.8,26.4-1.5,39.4-2.3c13-0.8,25.6-1.4,37.8-1.8c-0.2,2.4-0.4,5-0.8,7.8
		c-0.4,2.8-0.7,5.6-0.9,8.4c-0.2,2.8-0.3,5.6-0.2,8.4c0.1,2.8,0.5,5.4,1.2,7.8c-2.1,0.6-4.5,1-7.2,1.1c-2.7,0.2-5.6,0.2-8.6,0.1
		c-3-0.1-6.1-0.2-9.1-0.5c-3.1-0.2-6.1-0.5-8.9-0.8H125c-0.3,5.3-0.2,10.4,0.2,15.3c0.5,5,0.7,10.6,0.7,16.9l54.5,2.3l4.1,32.2
		c0.5,0.8,0.3,1.1-0.6,1.1c-0.8,0-1.2,0.4-1,1.4c0.3,6,0.3,11.7-0.1,17c-0.4,5.3-0.6,10.6-0.6,15.9c0,1.4,0.1,3.6,0.2,6.6
		c0.1,3.1,0.2,6.3,0.2,9.6c0,3.3-0.2,6.4-0.4,9.2c-0.3,2.9-0.9,4.8-1.8,5.9c-0.5,0.5-2,0.8-4.6,1.1c-2.6,0.3-5.6,0.5-8.9,0.7
		c-3.3,0.1-6.5,0.2-9.6,0.2c-3.1,0-5.3-0.1-6.6-0.2c0-0.7-0.3-1.1-0.9-1.1c-0.6,0-1.1,0-1.4,0h-0.9h-0.9v2l0.9,0.2
		c-2-0.3-3.8-0.4-5.2-0.3c-1.5,0.1-3,0.1-4.6,0.1h3v-0.9c0-0.7-0.2-1.4-0.6-2.1c-0.4-0.7-1-1-1.7-1h-1.3l-0.9,0.4l-1.4,0.7v0.9v1
		h1.4h0.6v0.2c-4.2-0.1-8.2-0.2-12-0.2c-3.8,0-7.5,0-11.2,0c-3.7,0-7.4,0-11.3,0.1c-3.8,0.1-7.9,0.1-12.3,0.1c0-5.3,0-10.8,0.1-16.6
		c0.1-5.8,0.3-10.7,0.6-14.8c1.2,0.5,2.6,0.5,4.1,0c1.5-0.5,3.1-0.5,4.7,0c1.2,0,2.1,0.3,2.8,0.8c0.7,0.5,1.6,0.8,2.8,0.8
		c1.7,0.5,3.3,0.5,5,0.2c1.7-0.3,3.5-0.4,5.6-0.2c5.7,0.3,11.7,0.7,18.1,1.1c6.3,0.5,12.3,0.1,18.1-1.1c0-6.5-0.3-12.7-0.9-18.7
		c-0.6-6-1.1-12.6-1.4-19.9c-9.5,0.3-19.2,0-29-0.8c-9.9-0.8-19.5-1.6-29-2.4c0-5.3-0.5-10.6-1.4-16c-0.9-5.4-1-10.5-0.2-15.4
		c0-0.9,0.1-1.7,0.3-2.5c0.2-0.8,0.3-1.3,0.3-1.6c0.1-0.9,0.3-2.7,0.3-5.5c0.1-2.8,0.1-6,0.1-9.6c0-3.6,0-7.5-0.1-11.5
		c-0.1-4.1-0.1-7.9-0.1-11.5c0-3.6,0-6.8-0.1-9.5c-0.1-2.7-0.1-4.6-0.1-5.6c0.1-1.4,0.6-2.2,1.4-2.5c0.8-0.3,1.8-0.4,3.2-0.2
		c1.4,0.2,3.1,0.3,5.3,0.3C102.5,199.9,105.2,199.7,108.4,199.1z M100.5,257.3c0.5,0.3,0.9,0.4,1.5,0.3c0.5-0.1,0.6-0.5,0.1-1.2
		C101.1,256.4,100.5,256.7,100.5,257.3z M104.9,267.7c0,0.5-0.2,0.8-0.5,1c-0.3,0.2-0.5,0.7-0.5,1.5c0.8-0.5,1.2-0.6,1.5-0.5
		c0.2,0.2,0.6,0,1-0.5c0-0.3-0.2-0.4-0.5-0.3c-0.3,0.1-0.5,0-0.5-0.3v-0.5C105.6,267.9,105.4,267.7,104.9,267.7z M104.6,271.8
		c-0.5,0.8-0.2,1.1,0.9,1.1c1.1,0,1.6-0.4,1.6-1.1c-0.9-0.3-1.5-0.4-1.7-0.2C105.2,271.7,104.9,271.8,104.6,271.8z M107.8,270.2
		c0.5-0.5,0.8-0.9,1.1-1.4c0.3-0.5,0.5-1.1,0.5-1.8c-0.3-0.8-0.8-0.8-1.5-0.2c-0.7,0.6-1.2,0.9-1.7,0.9c0.5,0.5,0.6,1,0.6,1.6
		C106.7,269.9,107,270.2,107.8,270.2z M107.6,263.6v1.8c0.5,0,1,0,1.7-0.1c0.7-0.1,1.2-0.3,1.5-0.8c-0.8,0-1.3-0.1-1.6-0.5
		C108.9,263.8,108.4,263.6,107.6,263.6z M110.9,270.2c0,0.6,0.6,0.9,1.8,0.9C112.7,270.5,112.1,270.2,110.9,270.2z M126.3,279
		c-0.3,0-0.8,0-1.4,0.1c-0.6,0.1-0.9,0.3-0.9,0.8c0.3,0.3,0.8,0.4,1.4,0.3C126,280.2,126.3,279.8,126.3,279z M129.5,261.4
		c-0.3,0-0.7-0.1-1.1-0.3c-0.5-0.2-0.8-0.1-1.1,0.3c-0.5,0.8-0.2,1.1,0.8,1.1C129,262.5,129.5,262.1,129.5,261.4z M129.5,210.5
		c0.6,0,0.9-0.3,0.9-0.9C129.8,209.2,129.5,209.5,129.5,210.5z"/>
	<path class="st0" d="M259.4,338l1.8,24.9c-11.3-0.9-22.1-1.1-32.4-0.5c-10.3,0.6-20.5,0.8-30.6,0.5c0-5.3,0.1-10.6,0.2-15.9
		c0.1-5.3,0.6-10.2,1.4-14.6c1.7-0.5,3.4-0.5,5.3-0.1c1.9,0.4,3.7,0.4,5.3,0.1c0.3-5.3,0.6-10.1,1-14.6c0.4-4.4,0.6-9.3,0.6-14.6
		c0.3-0.8,0.8-0.8,1.5-0.2c0.7,0.6,1.2,0.7,1.7,0.2c0-0.6-0.2-1-0.5-1.1c-0.3-0.1-0.7-0.3-1.1-0.3c-0.5-0.1-0.8-0.1-1.1-0.2
		c-0.3-0.1-0.5-0.3-0.5-0.8c0.3-6.8,0.5-13.8,0.6-21c0.1-7.2,0.1-14.7,0.1-22.4c0-0.6,0.5-0.9,1.6-0.9c0-0.8-0.3-1.1-0.8-1
		c-0.5,0.1-0.8-0.1-0.8-0.6c0-1.2,0-2.3,0.1-3.4c0.1-1.1,0.3-1.8,0.8-2.3c-0.8-2.1-0.9-4.5-0.6-7.2c0.4-2.7,0.6-5.7,0.6-8.8
		c-1.7-0.3-4-0.3-7,0c-3,0.3-5.5,0.3-7.5,0l1.6-29.8c6.5-0.5,13.8-0.5,21.9-0.1c8.1,0.4,15.9,0.1,23.3-0.8c2.9-0.3,5.5-0.6,7.8-1
		c2.3-0.4,8-0.6,8-0.6v32.5h-19.1c-0.3,15.4-0.6,31.3-1,47.7c-0.4,16.3-0.6,33.2-0.6,50.5c3.3,0.5,6.5,0.6,9.6,0.3
		c3.1-0.2,9.1-0.3,9.1-0.3v4.8h-1.8h-0.2v0.8c-0.5,0.8-0.3,1.2-0.1,1.5c0.2,0.2,0.3,0.7,0.3,0.7h0.8v-1h0.4
		C259.3,338.7,259.4,338.5,259.4,338z M219.2,222.7c0.3,0.3,0.6,0.4,1,0.3c0.4-0.1,0.6-0.5,0.6-1.2c0,0.5-0.3,0.6-0.8,0.5
		C219.4,222.1,219.2,222.3,219.2,222.7z M228,209.3h-1.6c0,0.9,0.4,1.4,1.1,1.4C228.3,210.6,228.4,210.2,228,209.3z M228.9,241.3
		l-2.5-1.8c0,1.7,0.3,2.7,0.9,3.2c0.6,0.5,1.1,1.1,1.6,1.8c0.3,0,0.5-0.2,0.7-0.6c0.1-0.4,0.5-0.7,0.9-1c-0.8,0-1.2-0.2-1.4-0.6
		C229,241.9,228.9,241.6,228.9,241.3z M228.9,287.1c0.8,0.3,1.2,0.2,1.4-0.3c0.1-0.5,0.2-0.9,0.2-1.2c-0.8,0-1.2,0.2-1.4,0.5
		C229,286.3,228.9,286.7,228.9,287.1z M234.5,246.9c0.3,0.3,0.6,0.3,1,0.1c0.4-0.2,0.6-0.6,0.6-1c-0.8-0.5-1.2-0.5-1.4-0.2
		C234.6,246.1,234.5,246.5,234.5,246.9z M236.6,250.1v-1.6c-0.5,0-0.8,0.1-0.9,0.3c-0.2,0.2-0.4,0.3-0.7,0.3
		C235,249.8,235.5,250.1,236.6,250.1z M236.8,225c0.5,0.5,1,0.6,1.6,0.6c0.6-0.1,0.9-0.5,0.9-1.2c-0.3-0.5-0.8-0.5-1.5-0.2
		C237.1,224.4,236.8,224.7,236.8,225z M240.2,350.9c1.1,0,1.6-0.3,1.6-0.9l-0.9-0.9c0,0.5-0.1,0.8-0.3,0.9
		C240.3,350.1,240.2,350.4,240.2,350.9z M246.2,212.3h-1.6v0.9c0-0.5,0.3-0.6,0.8-0.5C245.9,212.9,246.2,212.7,246.2,212.3z
		 M247.4,353.1c0.3-0.3,0.6-0.6,1-0.8c0.4-0.2,0.6-0.7,0.6-1.5c-0.8,0-1.3,0.3-1.7,0.9C246.9,352.4,247,352.8,247.4,353.1z"/>
	<path class="st0" d="M356.4,355.6c0,1.7,0.2,3.1,0.6,4.3c0.4,1.2,0.2,2.2-0.6,2.9c-4.1,0-8.2,0-12.3,0.1c-4.1,0.1-7.8-0.3-11-1
		c0-0.5-0.3-0.7-0.9-0.7h-0.9h-0.7v0.7c-0.6,0.6-1.7,0.9-3.2,0.9c-0.5-0.5-1.1-0.5-2-0.2c-0.9,0.3-1.4,0.1-1.4-0.7
		c-1.7,0.5-3.4,0.9-5.2,1.4c-1.8,0.5-3.3,0.3-4.5-0.5c-0.3,0-0.7,0-1.1,0.1c-0.5,0.1-0.8,0.1-1.1,0.1c-6.9,0.3-13.3,0.4-19.1,0.2
		c-5.8-0.2-11.6-0.2-17.3-0.2c-0.8-8.1-1.3-15.9-1.7-23.2c-0.4-7.3-0.3-14.4,0.1-21.4c0.5-5.7,0.5-11.5,0.1-17.3
		c-0.4-5.8-0.4-11.3-0.1-16.6c0.1-1.7,0.4-3.2,0.7-4.7c0.3-1.5,0.6-2.9,0.9-4.1c-0.6-1.8-0.9-3.5-1-5.2c-0.1-1.7,0-3.3,0.1-5
		c0.1-1.7,0.2-3.4,0.2-5.1c0-1.7-0.3-3.7-0.9-5.8c0.8-3.8,1.1-8.1,1.1-12.9c0-4.8-0.1-9.7-0.2-14.6c-0.2-4.9-0.1-9.6,0.1-14.1
		c0.2-4.5,0.9-8.4,2.1-11.5c2.9,0,5.7,0,8.5-0.1c2.8-0.1,5.6-0.3,8.5-0.8c5-0.1,10.2-0.3,15.7-0.5c5.5-0.1,11-0.2,16.4-0.1
		c5.4,0.1,10.8,0.3,16,0.8c5.3,0.5,10.2,1.2,14.9,2.3c0,4.8-0.2,10-0.5,15.6c-0.3,5.6-0.5,10.5-0.5,14.9c-3.6-1.8-7.5-2.9-11.8-3.3
		c-4.2-0.4-8.6-0.5-13.1-0.2c-4.5,0.2-9,0.5-13.6,0.9c-4.5,0.4-8.9,0.5-13.1,0.3c-0.9,5.3-1.2,10.8-1,16.7c0.2,5.9,0.6,11,1,15.4
		c2,0.5,4.2,0.4,6.7-0.1c2.5-0.5,4.8-0.2,6.9,1c0.5-0.5,0.5-0.7,0.1-0.8c-0.4-0.1-0.9-0.1-1.7-0.1c0.5-0.3,1.1-0.4,1.8-0.3
		c0.8,0.1,1,0.5,0.7,1.2c2.9-1.7,6.3-2.5,10.2-2.6c3.9-0.1,7.5-0.3,10.8-0.6c0.5,2.9,0.6,5.6,0.6,8.1c-0.1,2.6-0.2,5.1-0.2,7.7
		c-0.1,2.6-0.2,5.2-0.2,7.8c-0.1,2.6,0.1,5.5,0.6,8.5c-6.5,0.5-12.4,0.8-17.9,1.1c-5.4,0.3-11.5,0.5-18.3,0.5
		c0.8,6.3,0.8,12.5,0.2,18.6c-0.6,6.1-0.7,12.3-0.2,18.6c9.6,0,18.9,0.1,27.9,0.2c9,0.2,17.1,0.1,24.5-0.2c0.3,3.2,0.1,6.9-0.6,11.3
		C356,348,355.9,352,356.4,355.6z M286.1,307.7c-0.5,0.8-0.7,1.3-0.7,1.6h1.6C287,308.2,286.7,307.7,286.1,307.7z M287,312
		c0,0.5,0.4,0.7,1.2,0.7c0.8,0,1.2-0.2,1.2-0.7c-0.5-0.3-0.9-0.4-1.2-0.2C287.8,311.9,287.4,312,287,312z M289.5,282.2
		c0.5,0,1-0.1,1.6-0.3c0.6-0.2,1.2-0.5,1.7-0.9c0.5-0.4,0.9-0.8,1.1-1.2c0.2-0.5,0.1-0.9-0.3-1.4c-0.9,0.8-1.7,1.4-2.5,1.9
		C290.3,280.8,289.8,281.4,289.5,282.2z M291,291.2c0,1.1,0.5,1.6,1.6,1.6c0.5-0.5,0.5-0.9,0.1-1.5
		C292.4,290.8,291.8,290.8,291,291.2z M292.6,341.2c0.5,0.3,1,0.3,1.6,0c0.6-0.3,0.9-0.8,0.9-1.6c-0.8,0.3-1.2,0.1-1.5-0.6
		c-0.2-0.7-0.6-1-1-1c-0.5,0.8-0.4,1.4,0.2,1.8C293.5,340.3,293.4,340.7,292.6,341.2z M310.5,221.8c-0.6,0-0.9,0.2-0.9,0.5
		c-0.2,0.2-0.2,0.3,0,0.5c0.6,0,0.9,0.5,0.9,1.6c0.5,0,1-0.3,1.6-0.9c-0.5-0.3-0.8-0.5-1.1-0.5C310.6,223,310.5,222.6,310.5,221.8z
		 M318.4,204.9c-0.3,0-0.6,0.1-1,0.2c-0.4,0.2-0.6,0.6-0.6,1.4c0.5,0.5,0.9,0.5,1.5,0.1C318.8,206.2,318.8,205.6,318.4,204.9z
		 M320.9,215.7c0,0.5-0.2,0.9-0.5,1.2c-0.3,0.4-0.5,0.8-0.5,1.2c0.9-0.5,1.5-0.6,1.7-0.5c0.2,0.2,0.5,0,0.8-0.5H322
		c-0.2,0-0.2-0.2-0.2-0.7c-0.2-0.1-0.2-0.3-0.2-0.5C321.3,215.9,321,215.7,320.9,215.7z M322.5,220.3H320c0,0.8,0.5,1.2,1.6,1.5
		C322.6,222,322.9,221.5,322.5,220.3z M325.6,215.3c-0.8-0.3-1.4-0.2-1.8,0.3c-0.5,0.5-0.9,1-1.4,1.5c0.5,0,0.6,0.3,0.6,0.8
		c-0.1,0.5,0.3,0.8,1,0.8c0.5-0.5,0.8-0.9,1.1-1.4C325.5,216.9,325.6,216.2,325.6,215.3z M323.6,212.1v1.6c0.5,0,1,0,1.6-0.1
		c0.6-0.1,0.9-0.3,0.9-0.6c-0.5,0-0.8-0.1-1-0.5C324.8,212.3,324.4,212.1,323.6,212.1z M327.2,218.7c0,0.8,0.1,1.1,0.5,0.9
		c0.3-0.1,0.7-0.2,1.1-0.2C328.8,218.9,328.3,218.7,327.2,218.7z"/>
	<path class="st0" d="M434.6,246l25.1-43.6c5.7-0.3,11.5-0.5,17.3-0.6c5.8-0.1,11.6-0.1,17.3-0.1c-1.2,7.2-1.8,14.8-1.7,22.6
		c0.1,7.8-0.1,15.6-0.6,23.3c-0.3,4.8-0.5,10-0.7,15.6c-0.2,5.6-0.5,11.4-1.1,17.4c-0.3,3.3-0.8,6.4-1.4,9.3
		c-0.6,2.9-0.9,5.7-0.9,8.6c-0.5,3.6-0.3,7.3,0.6,11c0.8,3.7,1.4,7.6,1.7,11.6c0.3,4.4,0,9.1-0.9,14.1c-0.9,5.1-1.1,10-0.7,14.8
		c0.3,3.3,0.2,6-0.3,7.9c-0.5,2-2,3.3-4.4,4.1c-2.3,0.6-4.6,0.8-7,0.7c-2.4-0.1-4.9-0.3-7.5-0.6c-2.6-0.2-5.1-0.4-7.6-0.6
		c-2.5-0.1-4.9,0-7.1,0.5c-1.2-2-1.5-4.1-0.9-6.4c0.6-2.3,0.9-4.7,0.9-7.1c0.5-3.6,0.7-7.5,0.7-11.5s0.6-7.8,1.8-11.1
		c-0.2-0.5-0.3-1.7-0.3-3.7c-0.1-2-0.1-4.3-0.1-6.8c0-2.5,0-4.7,0.1-6.8c0.1-2,0.2-3.3,0.3-3.7c-0.8-3.6-0.7-7.2,0.2-10.6
		c0.9-3.5,1.4-7.5,1.4-12c-1.1,1.8-2.6,4.4-4.5,7.7c-2,3.3-4,6.8-6.2,10.5c-2.2,3.7-4.2,7.2-6.1,10.5c-1.9,3.3-4.2,7.4-4.2,7.4
		h-10.2c-0.5-2-1.5-4.6-3.1-7.8c-1.6-3.2-3.3-6.5-5.1-9.8c-1.8-3.3-3.5-6.5-5.1-9.6c-1.6-3.1-2.6-5.5-3.1-7.3
		c-0.2,5-0.4,10.8-0.7,17.4c-0.3,6.6-0.6,13.4-0.8,20.5c-0.2,7-0.5,13.9-0.7,20.7c-0.2,6.8-0.3,12.7-0.3,17.9c0-0.3-0.1-0.5-0.3-0.5
		c-0.2,0-0.3,0.2-0.3,0.5c-3.5,0-6.5,0-9.2-0.1c-2.6-0.1-5.2-0.1-7.7-0.2c-2.5-0.1-5-0.1-7.6-0.2c-2.6-0.1-5.5-0.1-8.8-0.1
		c-1.4-3.8-2.3-7.8-2.7-12c-0.5-4.2-0.7-8.5-0.7-12.9c0-4.4,0.1-8.7,0.2-13.1c0.1-4.4,0.1-8.7,0-12.9c-0.2-5.4-0.1-10.6,0.2-15.6
		c0.3-5,0.6-9.8,1-14.6c0.4-4.7,0.6-9.4,0.8-14c0.1-4.6,0-9.2-0.5-13.9c0-0.5,0.5-0.7,1.6-0.7c-0.5-1.8-0.8-4-0.9-6.7
		c-0.2-2.6-0.3-5.5-0.3-8.6c-0.1-3.1-0.1-6.2-0.1-9.3c0-3.1-0.1-5.9-0.2-8.5c-0.2-2.1-0.4-4-0.7-5.5c-0.3-1.6-0.1-3,0.7-4.2
		c0.9-2.4,2.7-3.9,5.3-4.4c2.6-0.5,5.5-0.9,8.5-1.2c2.4,0,4.9,0.1,7.5,0.2c2.6,0.2,4.9,0.6,7,1.4c0.8-0.5,1.7-0.6,2.9-0.3
		c1.2,0.2,2.4,0.3,3.6,0.3c0,0.5,0.2,1,0.6,1.6c0.4,0.6,0.2,0.9-0.6,0.9c-0.8-0.5-1-0.8-0.7-1c0.3-0.2,0.2-0.7-0.2-1.5
		c-0.3,0-0.5,0.1-0.7,0.3c-0.2,0.2-0.5,0.1-0.9-0.3v1.3h0c0-0.7-0.3-1-0.9-1h-1.1v1.6v1.6l1.1-1.2h0.9c0.1,0.7,0.3,0.7,0.5,0.5
		c0.1,0,0.5-0.3,0.5-0.9v-0.7v1.6c0.6,0.3,0.9,0.5,1.5,0.6c0.6,0.1,1.1,0.1,1.4,0.1c0.9,1.8,2.4,4.5,4.5,8.1
		c2.1,3.6,4.3,7.4,6.7,11.4c2.3,4,4.5,7.9,6.6,11.8c2,3.8,3.4,6.9,4.2,9.2c-0.8,0-1.1,0.1-0.9,0.3c0.1,0.2,0.5,0.3,0.9,0.3
		c0,0.6-0.2,0.8-0.5,0.5l-0.5-0.5c0,0.8,0.2,1.1,0.6,1.1c0.4,0,0.7,0.2,1,0.5c-0.3,0.5-0.6,0.6-0.8,0.5c-0.2-0.1,0,0,0.8,0.5
		c0.9-0.5,1.5-1.1,1.7-1.8C434,247.5,434.3,246.8,434.6,246z M404.7,252.8c-0.8-0.9-0.9-1.4-0.6-1.4c0.4,0,0.6-0.4,0.6-1.1h-0.9
		c0,1.2-0.6,1.9-1.7,2.1s-1.8,0.3-2.1,0.3c0,0.3-0.3,0.5-0.8,0.7c-0.5,0.2-0.6,0.5-0.1,0.9c1.2,0,2-0.3,2.5-1
		C402,252.7,403.1,252.5,404.7,252.8z M404.7,275.8c0,0.5,0.3,0.6,0.8,0.6c0.5-0.1,0.8-0.6,0.8-1.5c-0.2,0.2-0.5,0.2-0.9,0.2
		C404.9,275.5,404.7,275.7,404.7,275.8z M416.9,263c-0.5,0.8-0.3,1,0.5,0.8c0.8-0.2,1.1-0.5,1.1-0.8c-0.8-0.5-1.1-0.6-1.1-0.3
		C417.4,262.9,417.2,263,416.9,263z M426.4,278.3c0.5,0.3,1,0.4,1.6,0.3c0.6-0.1,0.9-0.5,0.9-1.2c-0.3-0.3-0.8-0.3-1.5-0.1
		C426.8,277.5,426.4,277.9,426.4,278.3z M436.1,265.3h-1.6c0.5,0,0.8,0.1,1.1,0.2C436,265.7,436.1,265.6,436.1,265.3z M458.7,241.3
		h1.6c0-0.5-0.1-0.8-0.3-0.9c-0.2-0.1-0.3-0.5-0.3-0.9C459,239.5,458.7,240.1,458.7,241.3z M461.9,239.5c0,0.5,0.2,0.6,0.6,0.6
		c0.4-0.1,0.8-0.5,1.2-1.2C462.5,238.8,461.9,239,461.9,239.5z M475.7,286.2c1.1,0,1.6-0.2,1.6-0.7c-0.5,0-0.7-0.1-0.7-0.5v-0.5
		C476,285.3,475.7,285.8,475.7,286.2z M482.9,288.7c0-0.5,0.3-0.8,0.8-1c0.5-0.2,0.8-0.7,0.8-1.5c-0.8,0-1.3,0.3-1.6,0.9
		C482.6,287.8,482.6,288.3,482.9,288.7z"/>
	<path class="st0" d="M576.7,206.3h0.9v-3c3.6,0,7.3,0,11-0.1c3.7-0.1,11-0.8,11-0.8v32.3v42c-3.3,0.5-7.5,0.7-12,0.8
		c-4.5,0.1-9.1,0-13.7-0.1c-4.6-0.1-9.2-0.3-13.7-0.5c-4.5-0.1-8.7-0.2-12.4-0.2c-1.1,5.3-1.6,10.6-1.6,16c0,5.4,0.1,10.9,0.5,16.4
		c0.3,5.5,0.6,11.1,0.8,16.7s0,11.3-0.6,16.8c-0.3,3.2-0.6,6.3-0.9,9.3c-0.3,3-0.2,6.3,0.2,9.9c-2.4,0-5.1,0-8.1-0.1
		c-3-0.1-6.1-0.1-9.4-0.1c-3.2,0-6.5,0.1-9.7,0.2c-3.2,0.2-6.3,0.5-9.4,0.9V350c0.2-2.1,0.1-4.3-0.2-6.6c-0.3-2.3-0.5-4.7-0.5-7.2
		c0-0.8,0.1-1.8,0.5-3.3c0.3-1.4,0.5-2.7,0.5-4c0.5-1.7,0.7-3.3,0.8-4.9c0.1-1.6,0.1-3.2,0.1-4.9c0.5,0.6,1,0.9,1.6,0.9
		c0.8,0,1.3-0.1,1.7-0.2c0.4-0.1,0.6-0.6,0.6-1.6h-0.7c0-0.3-1.6-1-1.6-1h-1.6c0,0,0.1-18.8-0.7-28.7c-0.8-9.9-0.5-19.8,0.7-29.7
		c-1.2-4.1-1.5-8.6-0.8-13.7c0.7-5,1.2-10.4,1.5-16.2c0.3-4.5,0.3-8.9,0.1-13.2c-0.2-4.3-0.5-8.5-0.8-12.5c3.6,0,7.6,0,12-0.1
		c4.4-0.1,9-0.3,13.8-0.8c0.5,0,0.7,0.2,1.1,0.5v0.5c-0.7,0-1,0.2-1.1,0.6c-0.2,0.4-0.5,0.7-0.9,1c-0.2,0.2-0.2,0.3,0,0.5
		c0,0.6,0.3,1,0.9,0.9h0.7h0.5c0.3,0.2,0.5,0,0.5-0.5c0.3,0,0.4-0.2,0.2-0.6c-0.2-0.4,0.3-1,0.3-1v-0.9c0,0,2.7-0.7,4.3-0.8
		c1.6-0.1,3.4-0.1,5.5-0.2h9.7c0.8,0.1,1.4,0.3,2,0.7c0.6,0.4,1.3,0.8,2,1.2c1.7,0,3.4,0,5.2-0.1c1.8-0.1,3.5-0.3,5.2-0.8v0.9
		c-0.4,0.5-0.6,1-0.6,1.6l0.7,0.7l0.9-1.2h0.7h0.9C576.2,205.8,576.7,206,576.7,206.3z M516.1,341.8c1.2,0,1.8-0.2,1.8-0.7
		c-0.9,0-1.4,0-1.6,0.1C516.2,341.4,516.1,341.5,516.1,341.8z M518.6,254.2c0.8-0.5,1.4-0.8,1.8-1.1c0.5-0.3,0.7-1.1,0.7-2.3
		c-1.2,0-1.9,0.4-2.1,1.1C518.7,252.6,518.6,253.4,518.6,254.2z M529.9,284c1.2,0.3,2,0,2.5-0.9c0.5-0.9,0.7-1.7,0.7-2.5
		c-1.2,0-1.8,0.3-1.9,1C531.1,282.3,530.7,283.1,529.9,284z M529.9,308.8c0.8,0,1.2-0.2,1.4-0.6c0.1-0.4,0.2-1,0.2-1.9
		C530.5,306.4,529.9,307.2,529.9,308.8z M529.9,312c0.5,0,0.8-0.3,1-0.8c0.2-0.5,0.2-0.8-0.1-0.8c0,0.5-0.2,0.8-0.5,0.9
		C530.1,311.5,529.9,311.7,529.9,312z M531.5,308.8c0.8,0,1.2-0.1,1.4-0.5c0.1-0.3,0.2-0.7,0.2-1.1c-0.3,0-0.5,0.2-0.7,0.6
		C532.3,308.2,532,308.5,531.5,308.8z M533.1,274.9c0.5,0.5,0.8,0.5,1.1,0.2c0.3-0.3,0.2-0.6-0.2-0.9
		C533.4,274.3,533.1,274.5,533.1,274.9z M542.1,268.6c0.3,0,0.7-0.2,1.1-0.6c0.5-0.4,0.8-0.7,1.1-1c-0.3,0-0.7,0-1.2-0.1
		c-0.5-0.1-0.6-0.3-0.3-0.8c-0.3,0-0.5,0-0.7,0.1c-0.2,0.1-0.5,0.3-0.9,0.8C541.8,267,542.1,267.6,542.1,268.6z M567.2,244.4
		c0.5-2.1,0.7-4.3,0.8-6.6c0.1-2.3,0.1-4.7,0.1-7.2c-3.6-0.3-7.5-0.5-11.6-0.7c-4.1-0.1-8.1,0.4-11.9,1.6v10.4
		c3.8,0.8,7.7,1.4,11.8,2C560.4,244.6,564,244.7,567.2,244.4z M548.5,250.1c0.5,0.3,1,0.4,1.6,0.3c0.6-0.1,0.9-0.5,0.9-1.2
		C549.3,249.2,548.5,249.5,548.5,250.1z M552.7,262.1c0.5,0,0.9,0.1,1.2,0.3c0.4,0.2,0.8,0.1,1.2-0.3c0-0.3-0.3-0.4-0.8-0.3
		c-0.5,0.1-0.8,0-0.8-0.3v-0.9C553,261.1,552.7,261.6,552.7,262.1z M552.5,264.5c0,0.5,0.5,0.8,1.5,0.9c1,0.2,1.3-0.1,1-0.9
		c-0.5-0.5-0.8-0.6-1-0.3C553.8,264.4,553.3,264.5,552.5,264.5z M556.6,262.1c1.1,0,1.6-0.8,1.6-2.3c-0.8-0.9-1.5-1.1-2.3-0.6
		c-0.8,0.5-1.4,0.9-1.8,1.2c0.8,0,1.2,0.4,1.2,1.1C555.4,262.4,555.8,262.5,556.6,262.1z M556.6,256.4v0.9c0,0.3,0.4,0.5,1.2,0.5
		c0.8,0,1.2-0.1,1.2-0.5c-0.5,0-0.8-0.1-1-0.5C557.8,256.6,557.4,256.4,556.6,256.4z M559.8,263c-0.5,0.5-0.2,0.7,0.9,0.7
		C560.7,263.2,560.4,263,559.8,263z M572.6,272.7c0,0.3,0.4,0.3,1.1,0.1c0.8-0.2,0.9-0.6,0.5-1c-0.2-0.1-0.5-0.2-0.9-0.2
		S572.6,271.9,572.6,272.7z M575.1,254.2c0,0.3,0.4,0.5,1.2,0.5c0.8,0,1.2-0.1,1.2-0.5c-0.5,0-0.8-0.1-0.9-0.2c-0.3,0-0.6,0-0.8-0.1
		C575.7,253.7,575.4,253.9,575.1,254.2z"/>
	<path class="st0" d="M694.2,264.5c-1.7-0.5-3.1-0.5-4.4,0c-1.3,0.5-2.8,0.5-4.4,0c1.2,8.1,2.7,16.3,4.5,24.5
		c1.8,8.2,3.7,16.5,5.5,24.7c1.9,8.3,3.7,16.5,5.5,24.7c1.8,8.2,4.5,24.7,4.5,24.7h-29.1l-7.2-23.5c-1.4-4.4-2.7-8.5-4.1-12.4
		c-1.4-3.9-2.4-7.8-3.2-11.8c0-1.2-0.1-2.1-0.2-2.7c-0.2-0.6-0.1-1.1,0.2-1.4c0-0.5-0.3-0.8-0.8-1c-0.5-0.2-0.8-0.7-0.8-1.5
		c-1.2-6.9-2.5-14.1-3.7-21.4c-1.3-7.3-3-14.4-5.1-21.4h-7.2c0,8.5,0.3,16.2,0.9,23.2c0.6,7,1.1,14.4,1.4,22.1
		c0.5,9.1,0.5,17.7,0.1,26c-0.4,8.3-1.2,16.5-2.4,24.7h-9.7h1v-2h-1h-0.9H633c-0.6,0.1-0.9,0.2-0.9,0.5c-0.2,0.2,0.5,0.5,0.5,0.5v1
		h0.4h-5.7c-1.7-0.3-3.4-0.2-5.2,0c-1.8,0.2-3.3,0.1-4.5-0.3c-1.4-0.8-2.2-2-2.6-3.6c-0.4-1.7-0.5-3.5-0.5-5.7
		c0.1-2.1,0.2-4.3,0.5-6.4c0.2-2.2,0.3-4.2,0.1-6c0-1.7-0.5-3.2-1.4-4.7c-0.9-1.5-1.5-2.9-1.8-4.1c-0.6-2.4-0.5-5.3,0.3-8.6
		c0.8-3.3,1.2-6.3,1.2-9c0-6.3-0.2-12-0.5-17.1c-0.3-5-0.5-10.4-0.5-16.2c0-3.2-0.1-6.3-0.2-9.5c-0.2-3.2-0.1-6.2,0.2-9
		c0-0.8,0-1.3-0.1-1.6c-0.1-0.3,0.3-0.8,1-1.6c0-0.5-0.2-0.6-0.7-0.6c-0.5,0.1-0.5-0.3-0.2-1c0-7.2,0-15.8,0.1-25.7
		c0.1-9.9,0.3-19.8,0.8-29.9c7.2,0.2,14.7,0.2,22.4,0c7.7-0.1,15.3-0.3,22.9-0.5c7.6-0.1,15-0.3,22.3-0.5c7.2-0.1,14-0.1,20.3,0
		c-0.8,3.3-0.6,6.3,0.3,8.9c1,2.6,1.7,5.6,2.1,8.9c0.3,3.2,0.3,6.6,0,10.4c-0.3,3.8-0.3,7.2,0,10.4c0.1,2.4,0.6,5,1.4,7.8
		c0.8,2.8,1.2,5.4,1.5,7.9c0.2,2.5,0,4.7-0.7,6.6c-0.7,1.9-2.2,3.1-4.6,3.7c-1.2,0.3-2.4,0.2-3.6-0.2
		C696.6,264.8,695.4,264.5,694.2,264.5z M621.7,217.8c1.2,0.5,2.1,0.5,2.6,0c0.5-0.5,0.8-0.9,0.8-1.5c0-0.5-0.3-0.8-0.8-0.9
		c-0.5-0.1-1.2,0.5-1.9,1.7c-0.3,0-0.6-0.1-0.9-0.2C621.2,216.7,621.2,217,621.7,217.8z M621.6,224.3v0.7c0.3,0,0.6,0.1,1,0.2
		c0.4,0.2,0.6-0.1,0.6-0.9c0-0.5-0.2-0.6-0.6-0.3C622.2,224.2,621.9,224.3,621.6,224.3z M673.6,237.2c0.5-2.1,0.7-4,0.8-5.7
		c0.1-1.7,0.1-3.5,0.1-5.6c-3.3-0.5-6.7-0.6-10.3-0.3c-3.5,0.2-7.1,0.3-10.7,0.3c-0.5-0.5-0.6-1-0.6-1.6c0.1-0.6-0.3-0.9-1-0.9
		c-0.5,0.8-0.5,1,0,0.7c0.5-0.3,0.7-0.2,0.7,0.2v0.7c-1.7,0.8-3.1,1.1-4.4,1.1c-1.3,0-2.8,0.2-4.4,0.5c0,1.7,0.1,3.4,0.5,5.3
		c0.3,1.9,0.5,3.7,0.5,5.3C654.8,237.8,664.4,237.8,673.6,237.2z"/>
	<path class="st0" d="M802.4,355.6c0,1.7,0.2,3.1,0.6,4.3c0.4,1.2,0.2,2.2-0.6,2.9c-4.1,0-8.2,0-12.3,0.1c-4.1,0.1-7.8-0.3-11-1
		c0-0.5-0.3-0.7-0.9-0.7h-0.9h-0.7v0.7c-0.6,0.6-1.7,0.9-3.2,0.9c-0.5-0.5-1.1-0.5-2-0.2c-0.9,0.3-1.4,0.1-1.4-0.7
		c-1.7,0.5-3.4,0.9-5.2,1.4c-1.8,0.5-3.3,0.3-4.5-0.5c-0.3,0-0.7,0-1.1,0.1c-0.5,0.1-0.8,0.1-1.1,0.1c-6.9,0.3-13.3,0.4-19.1,0.2
		c-5.8-0.2-11.6-0.2-17.3-0.2c-0.8-8.1-1.3-15.9-1.7-23.2c-0.4-7.3-0.3-14.4,0.1-21.4c0.5-5.7,0.5-11.5,0.1-17.3
		c-0.4-5.8-0.4-11.3-0.1-16.6c0.1-1.7,0.4-3.2,0.7-4.7c0.3-1.5,0.6-2.9,0.9-4.1c-0.6-1.8-0.9-3.5-1-5.2c-0.1-1.7,0-3.3,0.1-5
		c0.1-1.7,0.2-3.4,0.2-5.1c0-1.7-0.3-3.7-0.9-5.8c0.8-3.8,1.1-8.1,1.1-12.9c0-4.8-0.1-9.7-0.2-14.6c-0.2-4.9-0.1-9.6,0.1-14.1
		c0.2-4.5,0.9-8.4,2.1-11.5c2.9,0,5.7,0,8.5-0.1c2.8-0.1,5.6-0.3,8.5-0.8c5-0.1,10.2-0.3,15.7-0.5c5.5-0.1,11-0.2,16.4-0.1
		c5.4,0.1,10.8,0.3,16,0.8c5.3,0.5,10.2,1.2,14.9,2.3c0,4.8-0.2,10-0.5,15.6c-0.3,5.6-0.5,10.5-0.5,14.9c-3.6-1.8-7.5-2.9-11.8-3.3
		c-4.2-0.4-8.6-0.5-13.1-0.2c-4.5,0.2-9,0.5-13.6,0.9c-4.5,0.4-8.9,0.5-13.1,0.3c-0.9,5.3-1.2,10.8-1,16.7c0.2,5.9,0.6,11,1,15.4
		c2,0.5,4.2,0.4,6.7-0.1c2.5-0.5,4.8-0.2,6.9,1c0.5-0.5,0.5-0.7,0.1-0.8c-0.4-0.1-0.9-0.1-1.7-0.1c0.5-0.3,1.1-0.4,1.8-0.3
		c0.8,0.1,1,0.5,0.7,1.2c2.9-1.7,6.3-2.5,10.2-2.6c3.9-0.1,7.5-0.3,10.8-0.6c0.5,2.9,0.6,5.6,0.6,8.1c-0.1,2.6-0.2,5.1-0.2,7.7
		c-0.1,2.6-0.2,5.2-0.2,7.8c-0.1,2.6,0.1,5.5,0.6,8.5c-6.5,0.5-12.4,0.8-17.9,1.1c-5.4,0.3-11.5,0.5-18.3,0.5
		c0.8,6.3,0.8,12.5,0.2,18.6c-0.6,6.1-0.7,12.3-0.2,18.6c9.6,0,18.9,0.1,27.9,0.2c9,0.2,17.1,0.1,24.5-0.2c0.3,3.2,0.1,6.9-0.6,11.3
		C802,348,801.9,352,802.4,355.6z M732,307.7c-0.5,0.8-0.7,1.3-0.7,1.6h1.6C732.9,308.2,732.6,307.7,732,307.7z M732.9,312
		c0,0.5,0.4,0.7,1.2,0.7c0.8,0,1.2-0.2,1.2-0.7c-0.5-0.3-0.9-0.4-1.2-0.2C733.7,311.9,733.3,312,732.9,312z M735.4,282.2
		c0.5,0,1-0.1,1.6-0.3c0.6-0.2,1.2-0.5,1.7-0.9c0.5-0.4,0.9-0.8,1.1-1.2c0.2-0.5,0.1-0.9-0.3-1.4c-0.9,0.8-1.7,1.4-2.5,1.9
		C736.2,280.8,735.7,281.4,735.4,282.2z M736.9,291.2c0,1.1,0.5,1.6,1.6,1.6c0.5-0.5,0.5-0.9,0.1-1.5
		C738.3,290.8,737.7,290.8,736.9,291.2z M738.5,341.2c0.5,0.3,1,0.3,1.6,0c0.6-0.3,0.9-0.8,0.9-1.6c-0.8,0.3-1.2,0.1-1.5-0.6
		c-0.2-0.7-0.6-1-1-1c-0.5,0.8-0.4,1.4,0.2,1.8C739.3,340.3,739.3,340.7,738.5,341.2z M756.4,221.8c-0.6,0-0.9,0.2-0.9,0.5
		c-0.2,0.2-0.2,0.3,0,0.5c0.6,0,0.9,0.5,0.9,1.6c0.5,0,1-0.3,1.6-0.9c-0.5-0.3-0.8-0.5-1.1-0.5C756.5,223,756.4,222.6,756.4,221.8z
		 M764.3,204.9c-0.3,0-0.6,0.1-1,0.2c-0.4,0.2-0.6,0.6-0.6,1.4c0.5,0.5,0.9,0.5,1.5,0.1C764.7,206.2,764.7,205.6,764.3,204.9z
		 M766.8,215.7c0,0.5-0.2,0.9-0.5,1.2c-0.3,0.4-0.5,0.8-0.5,1.2c0.9-0.5,1.5-0.6,1.7-0.5c0.2,0.2,0.5,0,0.8-0.5h-0.5
		c-0.2,0-0.2-0.2-0.2-0.7c-0.2-0.1-0.2-0.3-0.2-0.5C767.1,215.9,766.9,215.7,766.8,215.7z M768.4,220.3h-2.5c0,0.8,0.5,1.2,1.6,1.5
		C768.5,222,768.8,221.5,768.4,220.3z M771.5,215.3c-0.8-0.3-1.4-0.2-1.8,0.3c-0.5,0.5-0.9,1-1.4,1.5c0.5,0,0.6,0.3,0.6,0.8
		c-0.1,0.5,0.3,0.8,1,0.8c0.5-0.5,0.8-0.9,1.1-1.4C771.4,216.9,771.5,216.2,771.5,215.3z M769.6,212.1v1.6c0.5,0,1,0,1.6-0.1
		c0.6-0.1,0.9-0.3,0.9-0.6c-0.5,0-0.8-0.1-1-0.5C770.8,212.3,770.4,212.1,769.6,212.1z M773.1,218.7c0,0.8,0.1,1.1,0.5,0.9
		c0.3-0.1,0.7-0.2,1.1-0.2C774.7,218.9,774.2,218.7,773.1,218.7z"/>
</g>
</svg>
