<?xml version="1.0" encoding="utf-8"?>
<!-- Generator: Adobe Illustrator 22.0.1, SVG Export Plug-In . SVG Version: 6.00 Build 0)  -->
<svg version="1.1" id="Layer_1" xmlns="http://www.w3.org/2000/svg" xmlns:xlink="http://www.w3.org/1999/xlink" x="0px" y="0px"
	 viewBox="0 0 1018.7 165.2" style="enable-background:new 0 0 1018.7 165.2;" xml:space="preserve">
<style type="text/css">
	.st0{fill:#FFFFFF;}
</style>
<g>
	<path class="st0" d="M65.4,105.6c-6.3,24-22,42.7-47,55.9L0,135.1c15.7-8.1,27.2-17.9,34.5-29.6H6v-31h59.4V105.6z M111.9,44.2
		c-3.4-1-6.9-1.9-10.3-2.7v19.8c1.8,3.7,3.6,7.1,5.5,10.5c6.4-7.5,11-13,13.6-16.4c2.2-3.1,5.6-8.6,10.3-16.6l27.4,16.1
		c-5.2,8.6-9.2,14.8-12,18.4c-3.4,4.8-8.7,11.3-15.8,19.6l-18.3-12.3c3.9,6.3,7.7,11.7,11.6,16.3c8.1,9.7,20.4,20.8,36.9,33
		l-19.1,30.4c-16.9-14.2-30.1-27.4-39.5-39.8l-0.7-0.7v19.1c0,17-9.3,25.6-27.9,25.6H62.3l-9-30.4h12.6c3.5-0.1,5.3-1.9,5.3-5.3
		V68.1h-50V37.7H83c-0.3-0.2-0.6-0.2-0.7,0c-14.4-2.9-30.8-5.2-49.1-7L47.6,1.7c28,1.9,52.2,5.8,72.7,11.8L111.9,44.2z"/>
	<path class="st0" d="M213.2,55.9V35h40v-4.8h-33.4v-5.6l-16.9,24.2c-6.3-4.4-11.5-7.7-15.4-9.8c-3.5-2.2-8.5-4.7-14.9-7.5
		l13.4-28.1c6.3,2.8,12.2,5.8,17.8,9c4.5,2.7,9.9,6.1,16.1,10.5V10.5h33.4V2.3h31.7v8.1h37.9v19.8h-37.9V35H328v22.4H213.8v50.3
		c8.2-2.9,14.7-5.7,19.6-8.5H221v-37h98.8v33l3.5,2.2c-3.2,5-6.4,9.6-9.5,13.8c-0.4,0.1-0.7,0.4-0.8,1c4.2,0.6,9,1.1,14.3,1.7
		l-9.8,20.8c4.2-0.3,8.6-0.6,13.3-0.7l-4.2,30c-39.6,1.5-70.9,0.8-94-2.3c-10.1-1.6-18-4.3-23.7-8.3l-3.5-2.5
		c-4.8,5.1-9.9,9.6-15.3,13.6L171,137.5c4.3-2.1,8.9-5,13.8-8.8V87h-11.5v-31H213.2z M213.8,111.6v12c2.3,1.9,4.4,3.4,6.3,4.6
		c4.5,2.5,9.5,4.1,14.8,4.6c3,0.2,6.4,0.6,10.3,1.2v-12.1c-4.8,2.9-9.5,5.5-14.3,7.8L213.8,111.6z M290,83.5V78h-39.3v5.5H290z
		 M278.1,126c-2.2-1.4-4.4-3-6.5-4.6v13.8c8.5,0.1,17.7,0.1,27.6,0C290.5,132.5,283.5,129.4,278.1,126z M278.2,99.3
		c2.5,2,5.3,3.8,8.3,5.3c1.8-2.1,3.3-3.9,4.6-5.3H278.2z"/>
	<path class="st0" d="M431.3,109.2c-5,9.2-10.8,16.5-17.4,22.1c-7.4,6.2-15.6,10-24.6,11.3c-5.9,0.3-11.1-0.5-15.8-2.5
		c-4.5-1.9-8.5-4.7-12-8.5c-3.3-3.7-6.1-7.9-8.5-12.6c-1.2-2.2-2.2-4.6-3-7.3l-0.3-0.8c-0.2-0.3-0.3-0.7-0.3-1c-0.3-1-0.6-1.7-0.7-2
		c-0.2-0.4-0.4-1.1-0.5-1.8c-0.3-1-0.6-1.7-0.7-2c-2.9-13.1-2.3-25.9,1.7-38.5c2.8-7.6,6.1-14.2,10.1-19.6
		c4.3-5.8,9.1-10.8,14.3-15.1c10.5-8.4,22.9-13.9,37.2-16.6c13.8-2.4,27.5-1.5,41,2.7c6.5,2.2,12.9,5.1,19.3,8.8
		c6.5,4.2,12.1,8.8,16.8,13.8c10.2,11.8,16.1,25,17.8,39.5c1.7,14.9-1.2,29.2-8.5,42.8c-9.4,15.8-22.7,27.2-40,34
		c-5.3,2.2-11,4-16.9,5.3l-21.7-26.9c1.7-0.4,2.8-0.8,3.5-1.2c1.9-0.7,3.1-1.1,3.7-1.2c2.3-0.7,4.6-1.5,7-2.5
		c0.8-0.2,1.9-0.7,3.5-1.3c0.8-0.2,1.9-0.7,3.5-1.3c2.5-1.1,4.8-2.2,6.6-3.2c4.8-2.7,8.8-5.4,12.1-8.1c4.2-3.4,7.5-7.2,9.8-11.3
		c5.8-10.1,6.5-20.6,2.2-31.5c-4.1-10.7-11.6-18.4-22.6-23.1c-0.1,2.5-0.2,4.5-0.3,5.8c-0.7,8.6-2.3,17.5-5,26.7
		C439.4,92.2,435.7,101.3,431.3,109.2z M384,67.9c-4.8,8.5-6.5,18.1-5.1,28.7c0.3,1.4,0.8,3.1,1.3,5c0.7,1.8,1.4,3.3,2.3,4.6
		c2.4,3.1,5.3,3.7,8.6,1.7c2.3-1.7,4.5-3.8,6.5-6.5c2-2.9,3.7-5.5,5-7.8c7.6-14.3,11.7-30,12.3-47.3c-1.6,0.4-3,0.8-4.3,1.2l-1,0.5
		l-1.2,0.3c-1,0.6-1.7,0.8-2.2,0.8C396.1,53.7,388.6,59.9,384,67.9z"/>
	<path class="st0" d="M676,45.5h-15.3V53h16.6v30.4h-16.6v7.1H674v29.7h-9.8c2.3,3.4,4.5,6.8,6.5,10.1c3.3,5.6,7.1,12.7,11.3,21.2
		L653.9,165c-4.2-8.5-7.7-15-10.5-19.4c-2.5-4.4-6.4-10-11.5-16.8l12-8.6h-91.5l12.8,6.5v-0.8h29.1c1.2,16.6,1.7,29.7,1.3,39.2
		h-30.4c0.6-7.9,0.6-19.6,0.2-35.4c-2.9,6.1-5.9,11.7-9,16.9c-3.2,5.4-7.4,11.6-12.5,18.6l-24.4-17.8c5-7.1,8.7-12.8,11.3-17.1
		c1.5-2.7,3.3-6,5.3-10.1h-9V90.5h23.4v-7.1h-26.7V53h11.8l-17.6-19.8c7.2-5.3,12.6-10,16.3-14.1c3.7-4,8.4-10.3,14.3-19.1l32,9
		c-1.3,2.1-2.7,4.2-4,6.1H676V45.5z M550.7,53v-7.5h-1c-3,2.3-6.1,4.8-9.5,7.5H550.7z M574.4,53h5.5v-7.5h-5.5V53z M574.4,90.5h5.5
		v-7.1h-5.5V90.5z M630.9,125.2c3.1,16.7,5.1,30,6,39.8h-31.7c0.2-8.5-0.9-21.8-3.3-39.8H630.9z M602.3,53h6.1v-7.5h-6.1V53z
		 M602.3,90.5h6.1v-7.1h-6.1V90.5z M630.9,53h6.1v-7.5h-6.1V53z M630.9,90.5h6.1v-7.1h-6.1V90.5z"/>
	<path class="st0" d="M734.3,126.8l11.3-0.5c5.1-9.5,9.7-19.8,13.9-30.7h-23.7V82.8l-12.1,14.3c-9.4-8-21.1-15.4-35-22.4l21.1-25.4
		c9.2,5,17.9,10.3,26.1,15.9v-0.7h37.7V53.8h-31.7V40.5l-10.6,12.9c-9.6-7.7-21.5-14.9-35.5-21.6L716,5.8
		c10.3,5.3,19.9,11,28.7,16.9h28.7V4.3h32.4v18.4h36.9v31h-36.9v10.8h42.8v31h-54c-3.4,9.6-7.4,19.2-11.8,28.7l23.1-1.2l-5-9.1
		l24.7-15.1c6.5,10.3,11.1,18,13.6,23.2c3.2,6.2,7.4,15.5,12.6,28.1L823.9,165c-1.7-4.6-3.2-8.8-4.6-12.5
		c-25.7,3.7-52.8,6.4-81.5,8.3L734.3,126.8z M738.1,113.4c-5.1,20.1-11.8,37-20.3,50.5l-26.7-20.4c7.6-14.2,13.7-30.1,18.3-47.8
		L738.1,113.4z"/>
	<path class="st0" d="M971.7,165v-3.3h-54.3v3.3h-31v-46.8l-15.9,4.8L860,95.3c18.8-4.9,33.6-10,44.5-15.3h-41.2V51h52.6v-6.1h-41.3
		V15.8h41.3V3.7h31.7v12.1h35.7c1.8-2.4,3.7-5,5.6-7.6l24.7,18.8c-6.2,8.7-12.5,16.8-18.9,24.1h23.9V80h-56.8
		c-2.2,1.4-4.3,2.9-6.3,4.5h46.5V165H971.7z M971.7,110.7v-4.5h-54.3v4.5H971.7z M917.4,131.8v4.8h54.3v-4.8H917.4z M947.6,44.8V51
		h4.3c2.2-2.3,4.3-4.4,6.3-6.1H947.6z"/>
</g>
</svg>
