<?xml version="1.0" encoding="utf-8"?>
<!-- Generator: Adobe Illustrator 22.0.1, SVG Export Plug-In . SVG Version: 6.00 Build 0)  -->
<svg version="1.1" id="Layer_1" xmlns="http://www.w3.org/2000/svg" xmlns:xlink="http://www.w3.org/1999/xlink" x="0px" y="0px"
	 viewBox="0 0 693.98 150.78" style="enable-background:new 0 0 693.98 150.78;" xml:space="preserve">
<style type="text/css">
	.st0{fill:#FCAF17;}
	.st1{fill:#FFFFFF;}
</style>
<g>
	<g>
		<g>
			<path class="st0" d="M316.109,114.575c7.348,5.728,27.026,3.273,29.247,2.973c0.138,0.008,5.985-0.316,11.259-5.58
				c0.471,1.007,1.115,2.017,2.032,2.926c3,2.965,7.678,3.964,13.9,2.979l3.289-0.23c0.503-0.033,1.001,0.067,1.473,0.245
				c1.231,0.467,2.725,0.762,4.573,0.762c8.227,0,14.193-4.063,18.275-9.005c0.929,3.15,2.924,5.922,6.766,7
				c4.634,1.3,8.322,1.198,11.092-0.145c0.569,1.522,1.318,2.963,2.262,4.3c3.413,4.824,10.908,10.574,27.229,10.574
				c18.966,0,30.467-10.134,35.552-16.011c0.593,0.935,1.186,1.873,1.863,2.755c7.183,9.333,18.605,14.477,32.157,14.477
				c17.442,0,29.518-11.693,36.762-21.947c0.785,1.883,2.015,3.748,3.951,5.182c4.549,3.364,11.359,3.226,20.242-0.408l1.2-0.644
				c0.827,0.63,1.765,1.18,2.816,1.628c6.097,2.588,14.348,1.426,19.2-2.71c0.581-0.497,1.174-1.153,1.769-1.891
				c0.436,0.64,0.939,1.231,1.516,1.761c3.613,3.315,8.538,2.992,9.087,2.945c0.169-0.012,3.794-0.251,7.819-3.676
				c1.011,2.343,3.279,4.263,6.682,5.543c6.01,2.266,15.968,2.533,22.214-0.927c3.635-1.964,6.501-5.427,8.765-9.329h16.241
				c4.95,0,9.019-1.618,12.096-4.805c5.47-5.673,5.81-14.497,5.81-16.62c0-0.249,0.732-42.929,0.732-42.929
				c0-13.611-11.027-24.639-24.578-24.639h-235.02c-1.573,0-2.847,1.276-2.847,2.849c0,1.571,1.274,2.847,2.847,2.847h235.02
				c10.409,0,18.88,8.469,18.88,18.884c0,0-0.73,42.743-0.73,42.888c0,1.431-0.204,8.624-4.229,12.783
				c-1.989,2.05-4.597,3.045-7.98,3.045h-13.429c2.427-5.834,3.721-11.599,4.245-14.322c0.416-2.158,0.33-4.41-0.485-6.454
				c-0.45-1.127-1.141-2.323-2.199-3.466c-3.014-3.256-7.891-4.903-14.501-4.907c-4.171,0-7.477,0.73-10.093,1.748
				c4.326-11.872,8.746-24.236,11.153-30.991c0.66-1.854-0.719-3.796-2.69-3.796c-1.206,0-2.276,0.748-2.678,1.883
				c-4.803,13.482-17.77,49.708-21.646,58.748c-4,9.335-9.596,9.94-9.836,9.963c-0.059,0.002-3.018,0.194-4.819-1.482
				c-0.899-0.836-1.767-2.417-1.426-3.369c0.371-1.027,6.927-16.859,10.183-24.698c0.78-1.877-0.603-3.939-2.637-3.939
				c-1.149,0-2.185,0.689-2.629,1.75l-9.563,22.826l-1.184,2.451c-1.647,2.998-2.824,4.369-3.556,4.989
				c-3.212,2.739-9.17,3.546-13.276,1.803c-1.43-0.609-3.157-1.767-3.289-3.839c-0.275-4.449,4.444-16.724,8.557-25.988
				c0.834-1.883-0.546-3.992-2.606-3.992c-1.125,0-2.138,0.65-2.596,1.675c-3.509,7.874-9.441,22.251-9.04,28.658
				c0.055,0.868,0.236,1.697,0.512,2.488l-0.222,0.122c-6.519,2.647-11.648,3.1-14.397,0.98c-1.386-1.07-2.138-2.488-2.541-3.837
				c-0.503-1.681-0.338-3.489,0.328-5.113c0.503-1.225,1.05-2.584,1.05-2.584l22.033-55.594c0.742-1.869-0.636-3.9-2.649-3.9
				c-1.168,0-2.217,0.715-2.647,1.799l-22.059,55.665c-0.018,0.047-0.618,1.422-0.98,2.25c-0.181,0.414-0.371,0.805-0.595,1.198
				c-5.653,9.936-17.535,25.748-36.061,25.748c-15.057,0-23.341-6.666-27.641-12.257c-6.042-7.85-8.064-18.512-5.41-28.513
				c4.42-16.661,21.33-50.302,45.382-47.938c17.898,1.761,21.658,19.353,22.445,26.394c0.161,1.449,1.382,2.539,2.841,2.539
				c1.716,0,3.026-1.494,2.843-3.201c-1.233-11.634-8.013-29.479-27.57-31.401c-26.706-2.625-45.729,30.59-51.447,52.144
				c-2.256,8.502-1.575,17.415,1.679,25.206c-3.208,4.257-13.655,15.805-32.695,15.805c-10.992,0-18.797-2.826-22.581-8.168
				c-2.892-4.088-3.307-9.663-1.178-15.701L444.95,44.07c0.683-1.859-0.693-3.831-2.672-3.831c-1.196,0-2.262,0.746-2.674,1.867
				l-21.214,57.77c-1.266,3.583-1.777,7.065-1.622,10.336c-0.084,0.251-0.312,0.721-0.884,1.078
				c-0.801,0.507-2.828,1.159-7.42-0.132c-4.97-1.394-2.865-10.371-2.841-10.46l0.312-1.318c0.344-0.982,0.63-1.916,0.831-2.763
				l5.486-16.205c0.514-1.518-0.328-3.163-1.863-3.633c-0.689-0.212-17.004-5.015-27.792,8.172
				c-6.977,8.528-12.669,19.944-10.552,27.254l-0.149,0.01c-4.489,0.705-7.591,0.228-9.215-1.349
				c-1.153-1.119-1.463-2.696-1.53-3.766c-0.041-0.664,0.055-1.321,0.271-1.95c0.116-0.336,0.251-0.715,0.369-0.988l10.177-25.086
				c0.599-1.481-0.049-3.26-1.543-3.827c-1.536-0.579-3.124,0.189-3.69,1.583l-10.179,25.086
				c-4.031,9.405-11.404,9.943-11.717,9.963c-7.715,1.023-24.16,1.335-26.015-2.625c-1.857-3.961,5.451-18.467,11.579-24.221
				l1.027-0.903c2.437-2.093,4.934-3.572,7.214-4.088c6.169-1.029,8.251,0.287,8.856,0.903c0.548,0.565,0.813,1.333,0.654,1.789
				c-0.249,0.717-1.858,4.677-3.144,7.823c-0.605,1.482,0.043,3.258,1.539,3.829c1.537,0.585,3.134-0.179,3.703-1.573l3.423-8.357
				c0.308-0.858,0.885-4.318-2.003-7.381c-2.686-2.857-7.44-3.739-14.128-2.621c-2.971,0.672-6.16,2.453-9.225,4.982
				c-0.54,0.446-1.127,0.854-1.773,1.121c-5.176,2.121-10.222,1.084-13.181,0.063c-1.302-0.45-2.419-1.282-3.405-2.242
				c-2.221-2.16-6.16-4.104-13.183-4.104c-13.433,0-16.539,6.515-17.831,8.701c-2.553,4.583-9.784,18.257-9.784,26.068
				c0,1.045,0.13,1.981,0.416,2.778c0.086,0.236,0.232,0.44,0.338,0.666c-2.963,0.157-5.217-0.369-6.507-1.622
				c-0.509-0.493-0.842-1.074-1.074-1.667c0.88-10.311-7.566-18.695-17.69-22.891c-4.665-1.934-9.464-2.425-14.104-2.9
				c-5.608-0.579-10.9-1.121-15.041-4.237c-8.223-6.195-8.895-17.809-1.596-27.617c6.545-8.805,16.537-13.721,27.411-13.49
				l1.781,0.082c22.176,1.706,26.239,17.586,26.909,25.145c0.137,1.559,1.541,2.71,3.14,2.523c1.553-0.183,2.606-1.706,2.443-3.261
				c-0.966-9.266-6.14-28.091-32.053-30.084l-2.095-0.102c-12.745-0.269-24.444,5.484-32.106,15.785
				c-9.107,12.237-7.931,27.531,2.739,35.568c5.41,4.07,11.752,4.722,17.886,5.353c4.428,0.454,8.612,0.882,12.508,2.498
				c1.504,0.624,12.031,5.294,13.935,13.568c0,0,0.499,2.517,0.135,4.453c-0.163,1.033-0.412,2.091-0.874,3.206
				c-5.031,12.162-21.894,16.987-32.132,15.795c-7.409-0.86-13.315-5.37-19.027-9.727l-3.368-2.572
				c-4.174-3.226-9.37-7.25-15.011-6.91c-3.079,0.19-6.625,1.826-9.254,4.277c0.012-0.029-5.184,3.955-5.663,12.094
				c-0.259,4.396,2.138,9.835,6.25,14.2c4.879,5.174,11.328,8.023,18.157,8.023h470.4c13.576,0,24.582-11.006,24.582-24.582v-6.362
				c0-1.573-1.276-2.847-2.849-2.847s-2.847,1.274-2.847,2.847v6.362c0,10.428-8.455,18.884-18.886,18.884h-470.4
				c-7.077,0-11.817-3.906-14.012-6.234c-3.442-3.65-4.846-7.628-4.709-9.953c0.318-5.41,3.513-7.976,3.648-8.086
				c1.867-1.72,4.163-2.83,5.926-2.938c3.505-0.21,7.762,3.083,11.181,5.732l3.401,2.594c6.026,4.599,12.857,9.816,21.819,10.857
				c11.351,1.321,30.857-3.67,37.636-18.406c2.992,2.213,7.277,2.9,12.773,2.026l1.891-0.334c0.406,0.192,0.783,0.416,1.227,0.583
				c5.718,2.152,13.403,1.467,19.129-1.706c7.952-4.408,15.015-24.658,16.808-30.152c2.262,0.703,5.233,1.314,8.553,1.221
				c-4.53,6.291-7.778,14.022-7.874,21.454C312.991,111.241,314.328,113.189,316.109,114.575z M628.256,103.114
				c1.443-3.366,4.057-10.252,7.035-18.31c0.185-0.499,0.45-0.966,0.807-1.361c1.365-1.504,5.04-4.469,12.875-4.469
				c4.885,0,8.455,1.066,10.322,3.081c0.163,0.177,0.306,0.353,0.438,0.534c0.911,1.253,1.145,2.869,0.86,4.393
				c-1.221,6.531-5.38,21.358-12.993,25.473c-4.188,2.321-12.184,2.608-17.472,0.593c-3.609-1.373-4.673-4.783-4.673-4.783
				C626.442,106.811,627.392,105.127,628.256,103.114z M387,88.562c5.282-6.452,12.317-7.33,16.932-7.069
				c0.96,0.053,1.612,0.986,1.304,1.897c-1.522,4.508-4.713,14.126-4.713,14.126c-1.777,4.929-6.914,15.439-18.64,15.439
				c-3.318,0-3.955-1.343-4.163-1.785C375.856,107.239,380.021,97.094,387,88.562z M306.651,85.285
				c-3.148,9.458-9.154,23.521-13.89,26.145c-4.277,2.374-10.183,2.932-14.359,1.363c-1.278-0.481-2.92-1.375-3.464-2.892
				c-1.054-2.932,3.829-14.919,9.046-24.27c0,0,2.341-5.657,12.793-5.657c5.408,0,7.994,1.312,9.231,2.511
				C306.751,83.205,306.979,84.303,306.651,85.285z M174.158,100.098l-0.077-56.387c0-13.552,11.025-24.58,24.576-24.58h147.188
				c1.573,0,2.849,1.276,2.849,2.849c0,1.571-1.276,2.847-2.849,2.847H198.657c-10.411,0-18.882,8.469-18.882,18.878l0.079,56.386
				c0.004,1.573-1.27,2.849-2.843,2.851S174.16,101.671,174.158,100.098z M361.189,58.168l17.254-8.979l0.253-0.173
				c0.275-0.189,1.045-0.481,2.341,0.874l8.828,9.109c0.721,0.774,2.15,1.526,3.688,0.992c2.498-0.864,2.771-4.182,2.875-5.427
				l1.394-15.219c0.018-0.171,0.214-1.628,2.859-2.949l18.915-10.464c1.131-0.63,3.768-2.099,3.118-4.561
				c-0.245-0.913-1.123-2.439-4.296-2.403l-17.652-0.008c-0.562,0-0.999-0.489-0.939-1.047l1.492-13.527
				c0.159-2.123-0.609-3.662-2.046-4.196c-2.37-0.88-4.18,1.565-4.862,2.488L383.134,17.01c-0.096,0.128-1.394,1.887-3.13,1.887
				h-18.883c-0.77,0-2.877,0.754-3.548,2.875c-0.33,1.043-0.346,2.704,1.445,4.699c0,0,9.115,9.792,9.274,9.971
				c0.157,0.179,0.512,0.55-0.748,2.195l-11.74,15.65c-1.775,2.221-0.885,3.744-0.416,4.294
				C357.023,60.506,359.632,59.043,361.189,58.168z M364.891,50.31c3.181-4.239,6.582-8.773,6.582-8.773
				c1.268-1.718,1.714-3.326,1.714-4.693c0-1.647-0.646-2.951-1.272-3.674c-0.057-0.061-6.181-6.649-8.426-9.064
				c-0.118-0.126-0.024-0.328,0.151-0.328h16.364c4.224,0,6.761-3.448,7.033-3.837c-0.061,0.079,5.105-6.492,8.469-10.764
				c0.124-0.159,0.369-0.051,0.348,0.149c-0.426,3.945-0.925,8.492-0.925,8.492c-0.035,0.285-0.053,0.562-0.053,0.825
				c0,1.632,0.65,2.725,1.241,3.381c1.608,1.789,4.029,1.832,4.5,1.822h11.885c0.204,0,0.287,0.269,0.108,0.369
				c-5.099,2.82-14.112,7.809-14.112,7.809c-5.39,2.694-5.547,6.641-5.547,7.083c0.01-0.204-1.047,11.326-1.316,14.244
				c-0.016,0.169-0.212,0.24-0.332,0.116c-2.608-2.692-6.741-6.953-6.741-6.953c-3.428-3.587-6.902-2.69-8.563-1.557
				c-0.513,0.267-6.111,3.179-10.864,5.651C364.95,50.706,364.763,50.48,364.891,50.31z"/>
		</g>
		<g>
			<path class="st1" d="M145.08,149.795c-0.648,0.658-1.439,0.985-2.367,0.985c-0.927,0-1.718-0.327-2.36-0.985
				c-0.646-0.651-0.975-1.439-0.975-2.367c0-0.921,0.33-1.708,0.979-2.361c0.651-0.648,1.437-0.971,2.356-0.971
				c0.928,0,1.719,0.324,2.367,0.971c0.654,0.653,0.982,1.436,0.982,2.361C146.062,148.35,145.734,149.144,145.08,149.795z
				 M140.671,145.397c-0.555,0.563-0.833,1.242-0.833,2.033c0,0.799,0.272,1.48,0.833,2.042c0.563,0.567,1.234,0.848,2.043,0.848
				c0.802,0,1.482-0.281,2.042-0.848c0.553-0.562,0.834-1.243,0.834-2.042c0-0.791-0.281-1.47-0.834-2.033
				c-0.567-0.559-1.24-0.843-2.042-0.843C141.92,144.554,141.235,144.837,140.671,145.397z M142.649,145.584
				c0.461,0,0.798,0.045,1.01,0.135c0.383,0.16,0.57,0.468,0.57,0.93c0,0.327-0.111,0.573-0.359,0.728
				c-0.126,0.077-0.305,0.14-0.53,0.175c0.289,0.044,0.495,0.162,0.629,0.357c0.132,0.195,0.203,0.382,0.203,0.564v0.267
				c0,0.087,0.007,0.178,0.009,0.277c0,0.098,0.014,0.157,0.022,0.187l0.025,0.047h-0.599c-0.001-0.009-0.001-0.026-0.008-0.032
				c0-0.015-0.005-0.026-0.005-0.045l-0.015-0.114v-0.287c0-0.423-0.115-0.707-0.355-0.838c-0.137-0.077-0.376-0.118-0.721-0.118
				h-0.518v1.434h-0.643v-3.667H142.649z M143.349,146.183c-0.159-0.092-0.414-0.136-0.782-0.136h-0.559v1.313h0.588
				c0.276,0,0.485-0.026,0.625-0.086c0.256-0.092,0.382-0.284,0.382-0.561C143.603,146.447,143.519,146.274,143.349,146.183z"/>
			<path d="M120.656,16.33H25.873C11.608,16.33,0,27.592,0,41.428v84.196c0,14.029,11.258,25.019,25.639,25.019h94.779
				c14.381,0,25.645-10.99,25.645-25.019V41.428C146.062,27.356,134.906,16.33,120.656,16.33z M143.183,125.62
				c0,12.418-9.999,22.143-22.766,22.143H25.639c-12.761,0-22.763-9.725-22.763-22.143l0.001-84.196
				c0-12.461,10.105-22.216,22.997-22.216h94.783c12.631,0,22.527,9.755,22.527,22.216V125.62z"/>
			<path class="st0" d="M120.656,19.207H25.873c-12.892,0-22.997,9.755-22.997,22.216L2.876,125.62
				c0,12.418,10.002,22.143,22.763,22.143h94.779c12.767,0,22.766-9.725,22.766-22.143V41.423
				C143.183,28.962,133.287,19.207,120.656,19.207z"/>
			<g>
				<path d="M125.433,96.261h-18.299l-2.902-18.244L93.508,96.133h-2.006c-1.216-2.097-1.699-5.167-1.699-7.046
					c0-3.116,0.225-6.157,0.225-10.111c0-5.246-1.541-8.061-5.657-9.05V69.77c8.752-1.216,12.719-7.007,12.719-15.158
					c0-11.581-7.704-14.093-17.8-14.093H52.125l-11.48,54.365H55.08l4.178-19.781h9.596c5.118,0,7.212,2.506,7.212,7.298
					c0,3.646-0.38,6.533-0.38,9.342c0,1.038,0.235,3.452,0.937,4.389c-0.009,0,10.434,11.012,10.434,11.012l-8.978,19.304
					c0,0,0,0,19.202-11.408l14.308,10.992l-2.671-18.214L125.433,96.261z M73.168,64.925H61.694l2.748-13.106h10.676
					c3.801,0,7.754,0.989,7.754,5.64C82.872,63.322,78.371,64.925,73.168,64.925z"/>
				<polygon class="st1" points="117.009,98.918 104.865,98.918 102.767,85.709 95.025,98.789 82.785,98.789 90.23,106.629 
					84.107,119.775 97.482,111.834 108.016,119.935 106.06,106.579 				"/>
			</g>
		</g>
	</g>
</g>
</svg>
