<?xml version="1.0" encoding="utf-8"?>
<!-- Generator: Adobe Illustrator 22.0.1, SVG Export Plug-In . SVG Version: 6.00 Build 0)  -->
<svg version="1.1" id="Layer_1" xmlns="http://www.w3.org/2000/svg" xmlns:xlink="http://www.w3.org/1999/xlink" x="0px" y="0px"
	 viewBox="0 0 792 363.954" style="enable-background:new 0 0 792 363.954;" xml:space="preserve">
<style type="text/css">
	.st0{fill:#FFFFFF;}
</style>
<g>
	<path class="st0" d="M109.303,202.48c0,5.346-0.079,10.613-0.229,15.802c-0.153,5.191-0.078,10.229,0.229,15.113
		c-3.818-1.524-7.979-2.555-12.48-3.091c-4.505-0.533-9.16-0.802-13.969-0.802c-4.81,0-9.658,0.114-14.542,0.344
		c-4.888,0.229-9.696,0.343-14.427,0.343c-0.458,5.346-0.537,10.613-0.229,15.802c0.305,5.191,0.608,10.23,0.916,15.113
		c5.801,1.682,11.869,2.215,18.206,1.604c6.333-0.608,12.784-1.146,19.351-1.604c0.15,2.14,0.189,4.62,0.114,7.442
		c-0.079,2.827-0.114,5.726-0.114,8.702c0,2.978,0.035,5.919,0.114,8.816c0.075,2.902,0.344,5.496,0.802,7.786
		c-6.566,0.766-13.018,0.995-19.351,0.688c-6.337-0.305-12.71-0.305-19.122,0c0.763,11.45,0.991,23.168,0.688,35.151
		c-0.308,11.986-0.229,23.243,0.229,33.777c-5.804,0-10.956,0.075-15.457,0.229c-4.505,0.15-9.199,0.075-14.084-0.229
		c-0.916-11.754-1.413-23.015-1.488-33.777c-0.078-10.763-0.114-22.707-0.114-35.839c0-2.136-0.079-4.197-0.229-6.183
		c-0.153-1.982-0.078-4.043,0.229-6.184c0-1.678,0.265-3.166,0.802-4.465c0.533-1.296,0.801-2.784,0.801-4.466
		c0-0.762-0.153-1.41-0.458-1.946c-0.308-0.533-0.687-1.26-1.145-2.176c0-2.44,0.189-4.998,0.572-7.671
		c0.379-2.67,0.189-5.229-0.572-7.672c0.458-4.122,0.762-7.937,0.916-11.45c0.15-3.51,0.265-6.945,0.344-10.305
		c0.075-3.356,0.114-6.756,0.114-10.19c0-3.436,0.075-7.214,0.229-11.336c-0.308-0.916-0.114-1.334,0.573-1.26
		c0.687,0.079,1.03-0.114,1.03-0.572c-0.766-2.29-0.766-4.73,0-7.328c5.8-1.22,12.022-1.867,18.663-1.946
		c6.642-0.075,13.243,0.039,19.809,0.344c7.328,0.458,14.731,0.651,22.213,0.572C95.713,199.543,102.737,200.498,109.303,202.48z
		 M30.069,362.323c0,0.458,0.189,0.572,0.573,0.343c0.379-0.229,0.723-0.343,1.03-0.343c-0.308,0-0.651-0.075-1.03-0.229
		C30.258,361.943,30.069,362.018,30.069,362.323z M31.672,199.962v0.687h0.916c0,0.458,0.114,0.537,0.343,0.229
		c0.229-0.305,0.344-0.608,0.344-0.916c-0.308-0.458-0.651-0.494-1.03-0.114C31.862,200.23,31.672,200.269,31.672,199.962z
		 M41.519,354.995c0.458,0.458,0.762,0.572,0.916,0.343c0.15-0.229,0.379-0.343,0.688-0.343c0-1.221-0.344-1.907-1.031-2.062
		c-0.687-0.15-1.413-0.229-2.175-0.229c0.304,0.766,0.418,1.374,0.343,1.832c-0.078,0.458,0.036,0.916,0.344,1.374
		c-0.153,0-0.308,0.078-0.458,0.229c-0.153,0.154-0.229,0.612-0.229,1.374c0.762,0,1.22-0.189,1.374-0.572
		C41.44,356.561,41.519,355.911,41.519,354.995z"/>
	<path class="st0" d="M208.85,266.142c-0.153,1.224-0.039,2.329,0.344,3.32c0.379,0.995,0.802,2.33,1.26,4.008
		c0,2.444-0.154,5.002-0.458,7.672c-0.308,2.673-0.458,5.306-0.458,7.9c0,4.43,0,8.931,0,13.511s-0.229,9.543-0.688,14.885
		c-0.308,3.36-0.536,6.337-0.687,8.932c-0.154,2.598,0.075,5.346,0.687,8.244c0,0.457,0.115,1.03,0.344,1.717
		c0.229,0.688,0.344,1.26,0.344,1.718c0,1.224-0.269,2.443-0.802,3.664c-0.536,1.224-0.802,2.443-0.802,3.664
		c-0.308,2.901-0.153,5.879,0.458,8.931c0.608,3.056,0.763,6.033,0.458,8.932c-1.224,0.304-2.024,0.229-2.404-0.229
		c-0.383-0.458-0.955-0.687-1.718-0.687c-4.121,0-7.864-0.38-11.221-1.146c-3.359-0.762-6.72-1.145-10.076-1.145
		c-2.901,0.308-5.879,0.687-8.931,1.145c-3.056,0.458-6.033,0.308-8.931-0.458c-0.308-0.15-0.458-0.533-0.458-1.145
		c0-0.608-0.079-1.26-0.229-1.947c-0.153-0.687-0.344-1.374-0.572-2.061c-0.229-0.688-0.651-1.105-1.26-1.26
		c0.763-0.458,1.03-1.335,0.802-2.634c-0.229-1.295-0.497-2.325-0.802-3.091c0.763-1.221,0.952-2.634,0.572-4.236
		c-0.383-1.604-0.572-3.471-0.572-5.611c0-1.22,0.114-2.25,0.344-3.091c0.229-0.838,0.344-1.41,0.344-1.718
		c-0.308-1.22-0.766-1.868-1.374-1.946c-0.612-0.075-0.916-0.572-0.916-1.488c3.206-0.763,6.333-1.066,9.389-0.916
		c3.052,0.153,5.646,0.229,7.786,0.229c0.762-1.22,1.03-2.479,0.802-3.778c-0.229-1.295,0.035-1.946,0.801-1.946
		c-0.766-4.885-1.03-10.57-0.801-17.061c0.229-6.487,0.189-12.785-0.115-18.893c-0.458-10.076-0.916-19.809-1.374-29.197
		c-0.458-9.39-0.536-18.435-0.229-27.137c-2.598-0.763-4.81-1.181-6.641-1.26c-1.832-0.075-3.629-0.036-5.382,0.114
		c-1.757,0.154-3.589,0.383-5.496,0.688c-1.911,0.308-4.236,0.458-6.984,0.458c-0.308,8.552-0.269,16.946,0.114,25.189
		c0.379,8.244,0.802,16.374,1.26,24.389c0.458,8.016,0.802,15.955,1.03,23.816c0.229,7.864-0.039,15.765-0.802,23.701
		c0.458,0.612,1.066,1.03,1.832,1.26c0.763,0.229,1.524,0.458,2.29,0.687c0.763,0.229,1.449,0.573,2.062,1.031
		c0.608,0.458,0.991,1.145,1.145,2.061c-0.308,0-0.766-0.114-1.374-0.344c-0.611-0.229-0.916-0.114-0.916,0.344
		c0.305,2.444,0.647,5.117,1.03,8.015c0.38,2.902,0.266,6.184-0.343,9.848c0,0.458-0.115,1.069-0.344,1.832
		c-0.229,0.766-0.344,1.527-0.344,2.29c0,0.766,0.38,1.566,1.146,2.404c0.762,0.841,1.145,1.643,1.145,2.404
		c-5.804,0.766-11.908,0.955-18.32,0.572c-6.411-0.379-12.29-0.572-17.633-0.572c-1.682-16.181-2.712-32.21-3.091-48.09
		c-0.383-15.876-0.727-31.678-1.031-47.403c-0.153-6.563,0.344-13.242,1.489-20.037c1.145-6.791,1.488-13.472,1.03-20.038
		c-0.308-4.426-0.841-8.587-1.604-12.48c-0.766-3.893-0.766-7.9,0-12.022c10.227,0,21.068-0.035,32.519-0.114
		c11.45-0.075,22.441-0.265,32.976-0.572c3.206-0.458,6.412-0.572,9.618-0.344c3.206,0.229,6.258,1.185,9.16,2.862
		c0.608,2.444,0.837,4.924,0.687,7.442c-0.153,2.52-0.383,5.038-0.687,7.558c-0.308,2.519-0.537,5.038-0.688,7.557
		c-0.153,2.52,0.075,5.002,0.688,7.442c0,0.916,0.304,1.797,0.916,2.634c0.608,0.841,1.066,1.871,1.374,3.092
		c0.458,2.14,0.229,4.39-0.688,6.755c-0.916,2.369-1.224,4.773-0.916,7.214c0,0.766,0.266,1.453,0.802,2.061
		c0.533,0.612,0.802,1.299,0.802,2.062c0,1.682-0.193,3.32-0.572,4.924C208.583,262.822,208.543,264.465,208.85,266.142z
		 M131.219,311.026c0,0.309,0.344,0.344,1.03,0.115c0.688-0.229,0.877-0.573,0.573-1.031
		C131.753,310.11,131.219,310.419,131.219,311.026z M134.425,281.485c0.305-0.304,0.647-0.533,1.03-0.687
		c0.38-0.15,0.573-0.458,0.573-0.916c-0.766-0.304-1.339-0.189-1.718,0.344C133.928,280.762,133.967,281.181,134.425,281.485z
		 M137.631,230.189c0-0.762-0.344-1.334-1.03-1.717c-0.688-0.38-1.413-0.344-2.176,0.114c0,0.766,0.344,1.224,1.03,1.374
		C136.143,230.114,136.866,230.189,137.631,230.189z M134.425,239.121v1.603h1.604C136.029,239.657,135.492,239.121,134.425,239.121
		z M136.029,243.929c-0.458,0.458-0.193,0.688,0.801,0.688c0.991,0,1.26-0.229,0.802-0.688c0-0.304-0.153-0.379-0.458-0.229
		C136.866,243.854,136.487,243.929,136.029,243.929z M141.754,209.808l-3.206,3.894c0.763,0,1.679-0.458,2.748-1.374
		C142.362,211.412,142.515,210.574,141.754,209.808z M140.151,222.861c0,0.309,0.075,0.651,0.229,1.031
		c0.15,0.383,0.608,0.572,1.374,0.572c0.458-0.458,0.494-0.952,0.114-1.488C141.485,222.443,140.913,222.403,140.151,222.861z
		 M141.754,273.47c0.458,0.308,0.991,0.344,1.604,0.114c0.607-0.229,0.915-0.572,0.915-1.03c-0.766,0-1.299-0.379-1.603-1.145
		c-0.308-0.763-0.841-1.146-1.603-1.146c-0.458,0.766-0.344,1.374,0.343,1.832C142.097,272.554,142.212,273.012,141.754,273.47z
		 M184.347,343.545c0-0.763,0.115-1.296,0.344-1.604c0.229-0.304,0.344-0.837,0.344-1.603c-0.766-0.305-1.453-0.265-2.062,0.114
		c-0.611,0.383-1.527,0.344-2.748-0.114c0.305,0.766,0.38,1.26,0.229,1.488c-0.154,0.229-0.229,0.572-0.229,1.03
		c0.763,0,1.449,0.04,2.062,0.115C182.895,343.051,183.582,343.24,184.347,343.545z M188.469,331.408
		c0.305-0.458,0.38-0.877,0.229-1.26c-0.154-0.38-0.229-0.802-0.229-1.26c-1.224,0-1.832,0.537-1.832,1.604
		c0.458,0,0.763,0.153,0.916,0.458C187.704,331.258,188.011,331.408,188.469,331.408z M194.881,347.667h-1.603
		c0,0.458,0.265,0.766,0.801,0.916C194.613,348.736,194.881,348.432,194.881,347.667z"/>
	<path class="st0" d="M306.925,263.624c-1.682-0.458-3.17-0.458-4.465,0c-1.299,0.458-2.788,0.458-4.466,0
		c1.22,8.244,2.748,16.527,4.58,24.847c1.832,8.322,3.7,16.681,5.61,25.075c1.907,8.397,3.778,16.756,5.61,25.075
		c1.832,8.323,3.356,16.603,4.58,24.847h-29.541l-7.328-23.816c-1.374-4.426-2.748-8.623-4.122-12.595
		c-1.374-3.968-2.443-7.937-3.206-11.908c0-1.22-0.078-2.136-0.229-2.748c-0.154-0.607-0.079-1.065,0.229-1.374
		c0-0.458-0.268-0.801-0.801-1.03c-0.537-0.229-0.802-0.723-0.802-1.488c-1.224-7.021-2.483-14.233-3.778-21.641
		c-1.299-7.403-3.017-14.616-5.152-21.641h-7.328c0,8.552,0.304,16.374,0.916,23.473c0.608,7.099,1.066,14.542,1.374,22.327
		c0.458,9.16,0.493,17.941,0.114,26.335c-0.383,8.398-1.185,16.718-2.404,24.962h-9.848h0.688v-1.604h-0.688h-0.916h-0.687
		c-0.612,0-0.916,0.154-0.916,0.458c-0.154,0.154-0.154,0.308,0,0.458v0.688h0.916h-5.725c-1.682,0-3.436,0.114-5.268,0.343
		c-1.832,0.229-3.359,0.115-4.58-0.343c-1.374-0.763-2.254-1.982-2.633-3.664c-0.383-1.679-0.537-3.586-0.458-5.726
		c0.075-2.136,0.229-4.312,0.458-6.526c0.229-2.211,0.265-4.236,0.114-6.068c0-1.679-0.458-3.281-1.374-4.81
		c-0.916-1.523-1.528-2.897-1.832-4.121c-0.612-2.44-0.497-5.343,0.344-8.702c0.837-3.356,1.259-6.412,1.259-9.16
		c0-6.412-0.153-12.173-0.458-17.29c-0.308-5.112-0.458-10.569-0.458-16.373c0-3.206-0.078-6.412-0.229-9.618
		c-0.154-3.206-0.079-6.258,0.229-9.16c0-0.762-0.039-1.295-0.114-1.603c-0.079-0.305,0.265-0.838,1.03-1.604
		c0-0.458-0.229-0.647-0.687-0.572c-0.458,0.079-0.537-0.265-0.229-1.03c0-7.328,0.036-15.991,0.115-25.991
		c0.075-9.998,0.343-20.113,0.801-30.343c7.328,0.153,14.886,0.153,22.671,0c7.786-0.15,15.533-0.305,23.244-0.458
		c7.707-0.15,15.229-0.305,22.557-0.458c7.328-0.15,14.197-0.15,20.609,0c-0.766,3.359-0.651,6.376,0.344,9.045
		c0.991,2.673,1.718,5.689,2.176,9.046c0.304,3.206,0.304,6.72,0,10.534c-0.308,3.817-0.308,7.328,0,10.534
		c0.15,2.443,0.608,5.077,1.374,7.9c0.762,2.826,1.259,5.496,1.488,8.015c0.229,2.52,0,4.734-0.688,6.642
		c-0.687,1.91-2.254,3.17-4.694,3.778c-1.224,0.308-2.443,0.229-3.664-0.229C309.365,263.852,308.146,263.624,306.925,263.624z
		 M233.416,216.22c1.221,0.458,2.097,0.458,2.634,0c0.533-0.458,0.802-0.952,0.802-1.488c0-0.533-0.269-0.838-0.802-0.916
		c-0.537-0.075-1.185,0.497-1.946,1.718c-0.308,0-0.612-0.075-0.916-0.229C232.88,215.154,232.958,215.459,233.416,216.22z
		 M233.416,222.861v0.688c0.305,0,0.647,0.079,1.03,0.229c0.38,0.154,0.573-0.149,0.573-0.916c0-0.458-0.193-0.572-0.573-0.343
		C234.064,222.747,233.721,222.861,233.416,222.861z M285.628,235.915c0.458-2.137,0.723-4.044,0.802-5.726
		c0.075-1.678,0.114-3.585,0.114-5.725c-3.359-0.458-6.834-0.572-10.419-0.344c-3.589,0.229-7.214,0.344-10.878,0.344
		c-0.458-0.458-0.651-0.991-0.572-1.604c0.075-0.607-0.269-0.916-1.03-0.916c-0.458,0.767-0.458,0.995,0,0.688
		c0.458-0.304,0.687-0.229,0.687,0.229v0.688c-1.682,0.766-3.17,1.145-4.466,1.145c-1.299,0-2.787,0.154-4.465,0.458
		c0,1.682,0.15,3.475,0.458,5.382c0.304,1.911,0.458,3.703,0.458,5.382C266.542,236.526,276.315,236.526,285.628,235.915z"/>
</g>
<g>
	<path class="st0" d="M490.351,327.286c1.221-1.221,3.053-1.564,5.496-1.031c2.44,0.537,4.655,0.651,6.642,0.344v31.831
		c-5.496,0.154-11.604,0.154-18.32,0c-6.72-0.15-13.551-0.265-20.495-0.344c-6.949-0.075-13.854-0.075-20.725,0
		c-6.87,0.079-13.132,0.423-18.778,1.031c-1.374-1.374-2.634-2.898-3.778-4.58c-1.146-1.679-2.254-3.356-3.32-5.038
		c-1.07-1.679-2.215-3.281-3.436-4.81c-1.224-1.524-2.673-2.977-4.351-4.351c0-0.305,0.344-0.533,1.03-0.688
		c0.688-0.149,1.181-0.458,1.488-0.916c-0.308-0.304-0.687-0.265-1.145,0.115c-0.458,0.383-0.916,0.343-1.374-0.115
		c0.916-13.89,1.145-27.938,0.687-42.136s-0.687-29.541-0.687-46.029c0-5.8-0.079-11.524-0.229-17.175
		c-0.153-5.646-0.078-11.371,0.229-17.175c0.458-2.898,0.687-5.84,0.687-8.816s0.608-5.761,1.832-8.358l33.663-1.604
		c0.763,0,0.952,0.229,0.572,0.688c-0.383,0.458-0.572,1.069-0.572,1.832c-0.458,2.443-0.572,5.077-0.344,7.9
		c0.229,2.827,0.458,5.574,0.688,8.244c0.229,2.673,0.229,5.191,0,7.557c-0.229,2.369-0.955,4.236-2.176,5.61
		c0.458,4.43,0.991,9.583,1.604,15.458c0.608,5.879,0.916,11.872,0.916,17.977c-0.154,1.832-0.458,3.778-0.916,5.839
		c-0.458,2.062-0.841,4.047-1.146,5.954c-0.308,1.911-0.422,3.778-0.343,5.61c0.074,1.832,0.647,3.436,1.717,4.81
		c-1.682,6.87-2.633,14.008-2.862,21.411c-0.229,7.407-0.955,14.392-2.176,20.954c7.633,1.527,15.419,2.061,23.358,1.603
		C471.724,328.43,480.579,327.897,490.351,327.286z M420.048,204.77c0-0.304-0.039-0.608-0.114-0.916
		c-0.079-0.304-0.344-0.229-0.802,0.229c-0.308,0-0.344,0.114-0.114,0.344C419.246,204.656,419.59,204.77,420.048,204.77z
		 M430.582,280.799h-1.603v1.603C430.045,282.401,430.582,281.868,430.582,280.799z M430.582,250.57c0.458,0.767,0.458,1.185,0,1.26
		c-0.458,0.079-0.687,0.497-0.687,1.26c1.065-0.458,1.717-0.305,1.946,0.458c0.229,0.766,0.951,1.145,2.175,1.145
		c0.305-0.458,0.494-1.03,0.573-1.717c0.075-0.688,0.114-1.181,0.114-1.489c-0.766-0.458-1.453-0.607-2.062-0.458
		C432.031,251.182,431.344,251.028,430.582,250.57z M437.223,268.432c0.763-1.982,0.608-3.356-0.458-4.122
		c-1.069-0.762-1.985-1.524-2.748-2.29h-0.458c-0.308,0-0.458,0.229-0.458,0.688l2.52,2.519c-0.766,0.766-1.604,1.185-2.52,1.26
		c-0.916,0.079-1.757,0.727-2.519,1.946c1.678,0,3.013-0.304,4.008-0.916C435.581,266.908,436.457,267.213,437.223,268.432z
		 M435.62,234.999c-0.766,0-1.299,0.308-1.604,0.916c-0.308,0.611-0.916,1.145-1.832,1.603c0.916,0.308,1.718,0.269,2.405-0.114
		C435.277,237.024,435.62,236.222,435.62,234.999z M433.101,286.523c1.066,0,1.604-0.304,1.604-0.916
		C433.634,285.607,433.101,285.915,433.101,286.523z M437.223,262.02c0.763-0.458,0.916-0.837,0.458-1.145
		c-0.458-0.305-0.916-0.458-1.374-0.458c0.305,0.308,0.458,0.536,0.458,0.687c0,0.154,0.075,0.308,0.229,0.458
		C436.994,261.717,437.07,261.87,437.223,262.02z M437.223,257.898c0.763,0,1.335,0.079,1.718,0.229
		c0.379,0.153,0.344,0.611-0.114,1.374c0.762,0,1.26-0.15,1.488-0.458c0.229-0.305,0.572-0.688,1.03-1.146
		c-0.766-0.458-1.567-0.876-2.404-1.259C438.1,256.26,437.528,256.678,437.223,257.898z M440.429,297.973
		c-0.308-0.458-0.422-0.991-0.343-1.603c0.075-0.608-0.04-0.916-0.344-0.916c-0.458,0.458-0.651,0.994-0.572,1.603
		C439.245,297.67,439.663,297.973,440.429,297.973z"/>
	<path class="st0" d="M575.082,338.049l1.832,25.19c-11.45-0.916-22.406-1.066-32.861-0.458c-10.459,0.611-20.804,0.762-31.03,0.458
		c0-5.343,0.075-10.725,0.229-16.145c0.15-5.418,0.608-10.341,1.374-14.771c1.678-0.458,3.471-0.494,5.382-0.115
		c1.906,0.383,3.699,0.423,5.381,0.115c0.305-5.343,0.647-10.266,1.03-14.771c0.38-4.502,0.573-9.425,0.573-14.771
		c0.304-0.763,0.801-0.838,1.488-0.229c0.687,0.612,1.26,0.688,1.718,0.229c0-0.608-0.154-0.991-0.458-1.146
		c-0.309-0.15-0.688-0.265-1.146-0.344c-0.458-0.075-0.841-0.15-1.145-0.229c-0.308-0.075-0.458-0.344-0.458-0.802
		c0.304-6.87,0.493-13.969,0.572-21.297c0.075-7.328,0.114-14.885,0.114-22.671c0-0.608,0.533-0.916,1.604-0.916
		c0-0.763-0.269-1.105-0.802-1.03c-0.537,0.078-0.802-0.115-0.802-0.573c0-1.22,0.036-2.364,0.114-3.435
		c0.075-1.066,0.344-1.832,0.802-2.29c-0.766-2.136-0.955-4.58-0.572-7.328c0.379-2.748,0.572-5.725,0.572-8.931
		c-1.682-0.305-4.047-0.305-7.099,0c-3.056,0.308-5.575,0.308-7.558,0l1.604-30.229c6.563-0.458,13.969-0.493,22.213-0.114
		c8.244,0.383,16.105,0.114,23.587-0.802c2.898-0.304,5.532-0.647,7.9-1.03c2.365-0.379,5.152-0.572,8.358-0.572v32.747h-19.693
		c-0.309,15.726-0.651,31.87-1.031,48.434c-0.383,16.566-0.572,33.627-0.572,51.182c3.356,0.458,6.602,0.572,9.732,0.343
		c3.128-0.229,6.144-0.343,9.046-0.343v4.809h-1.604h-0.687v0.916c0,0.766,0.114,1.26,0.344,1.488
		c0.229,0.229,0.343,0.572,0.343,1.03h0.916v-0.916h0.229C574.927,338.735,575.082,338.507,575.082,338.049z M534.32,221.259
		c0.304,0.308,0.647,0.422,1.03,0.344c0.379-0.075,0.572-0.494,0.572-1.26c0,0.458-0.269,0.612-0.802,0.458
		C534.585,220.65,534.32,220.801,534.32,221.259z M543.251,207.976h-1.604c0,0.916,0.38,1.374,1.146,1.374
		C543.554,209.35,543.709,208.892,543.251,207.976z M544.167,240.037l-2.52-1.832c0,1.682,0.305,2.748,0.916,3.206
		c0.608,0.458,1.146,1.069,1.604,1.832c0.304,0,0.533-0.19,0.687-0.573c0.15-0.379,0.458-0.723,0.916-1.03
		c-0.766,0-1.224-0.189-1.374-0.572C544.242,240.688,544.167,240.344,544.167,240.037z M544.167,286.523
		c0.762,0.308,1.22,0.193,1.374-0.343c0.15-0.533,0.229-0.952,0.229-1.26c-0.766,0-1.224,0.153-1.374,0.458
		C544.242,285.686,544.167,286.065,544.167,286.523z M549.891,245.761c0.305,0.308,0.647,0.344,1.03,0.114
		c0.38-0.229,0.573-0.572,0.573-1.03c-0.766-0.458-1.224-0.533-1.374-0.229C549.966,244.925,549.891,245.303,549.891,245.761z
		 M551.495,248.968v-1.603c-0.458,0-0.766,0.114-0.916,0.343c-0.154,0.229-0.383,0.344-0.688,0.344
		C549.891,248.664,550.424,248.968,551.495,248.968z M552.181,223.549c0.458,0.458,0.991,0.651,1.604,0.572
		c0.608-0.075,0.916-0.493,0.916-1.26c-0.308-0.458-0.802-0.532-1.489-0.229C552.525,222.94,552.181,223.245,552.181,223.549z
		 M555.617,351.101c1.066,0,1.603-0.304,1.603-0.916l-0.916-0.916c0,0.458-0.114,0.766-0.344,0.916
		C555.731,350.34,555.617,350.643,555.617,351.101z M562.029,210.496h-1.604v0.916c0-0.458,0.265-0.608,0.802-0.458
		C561.76,211.107,562.029,210.954,562.029,210.496z M562.945,353.391c0.304-0.304,0.647-0.572,1.03-0.802
		c0.379-0.229,0.572-0.723,0.572-1.488c-0.766,0-1.338,0.308-1.718,0.916C562.447,352.63,562.487,353.088,562.945,353.391z"/>
	<path class="st0" d="M673.399,202.48c0,5.346-0.079,10.613-0.229,15.802c-0.153,5.191-0.078,10.229,0.229,15.113
		c-3.818-1.524-7.979-2.555-12.48-3.091c-4.505-0.533-9.16-0.802-13.969-0.802c-4.81,0-9.658,0.114-14.542,0.344
		c-4.888,0.229-9.696,0.343-14.427,0.343c-0.458,5.346-0.537,10.613-0.229,15.802c0.305,5.191,0.608,10.23,0.916,15.113
		c5.801,1.682,11.869,2.215,18.206,1.604c6.333-0.608,12.784-1.146,19.351-1.604c0.15,2.14,0.189,4.62,0.114,7.442
		c-0.079,2.827-0.114,5.726-0.114,8.702c0,2.978,0.035,5.919,0.114,8.816c0.075,2.902,0.344,5.496,0.802,7.786
		c-6.566,0.766-13.018,0.995-19.351,0.688c-6.337-0.305-12.71-0.305-19.122,0c0.763,11.45,0.991,23.168,0.688,35.151
		c-0.308,11.986-0.229,23.243,0.229,33.777c-5.804,0-10.956,0.075-15.457,0.229c-4.505,0.15-9.199,0.075-14.084-0.229
		c-0.916-11.754-1.413-23.015-1.488-33.777c-0.078-10.763-0.114-22.707-0.114-35.839c0-2.136-0.079-4.197-0.229-6.183
		c-0.153-1.982-0.078-4.043,0.229-6.184c0-1.678,0.265-3.166,0.802-4.465c0.533-1.296,0.801-2.784,0.801-4.466
		c0-0.762-0.153-1.41-0.458-1.946c-0.308-0.533-0.687-1.26-1.145-2.176c0-2.44,0.189-4.998,0.572-7.671
		c0.379-2.67,0.189-5.229-0.572-7.672c0.458-4.122,0.762-7.937,0.916-11.45c0.15-3.51,0.265-6.945,0.344-10.305
		c0.075-3.356,0.114-6.756,0.114-10.19c0-3.436,0.075-7.214,0.229-11.336c-0.308-0.916-0.114-1.334,0.573-1.26
		c0.687,0.079,1.03-0.114,1.03-0.572c-0.766-2.29-0.766-4.73,0-7.328c5.8-1.22,12.022-1.867,18.663-1.946
		c6.642-0.075,13.243,0.039,19.809,0.344c7.328,0.458,14.731,0.651,22.213,0.572C659.809,199.543,666.833,200.498,673.399,202.48z
		 M594.165,362.323c0,0.458,0.189,0.572,0.573,0.343c0.379-0.229,0.723-0.343,1.03-0.343c-0.308,0-0.651-0.075-1.03-0.229
		C594.354,361.943,594.165,362.018,594.165,362.323z M595.768,199.962v0.687h0.916c0,0.458,0.114,0.537,0.343,0.229
		c0.229-0.305,0.344-0.608,0.344-0.916c-0.308-0.458-0.651-0.494-1.03-0.114C595.958,200.23,595.768,200.269,595.768,199.962z
		 M605.615,354.995c0.458,0.458,0.762,0.572,0.916,0.343c0.15-0.229,0.379-0.343,0.688-0.343c0-1.221-0.344-1.907-1.031-2.062
		c-0.687-0.15-1.413-0.229-2.175-0.229c0.304,0.766,0.418,1.374,0.343,1.832c-0.078,0.458,0.036,0.916,0.344,1.374
		c-0.153,0-0.308,0.078-0.458,0.229c-0.153,0.154-0.229,0.612-0.229,1.374c0.762,0,1.22-0.189,1.374-0.572
		C605.536,356.561,605.615,355.911,605.615,354.995z"/>
	<path class="st0" d="M767.663,355.911c0,1.682,0.19,3.131,0.573,4.351c0.379,1.224,0.189,2.215-0.573,2.978
		c-4.122,0-8.283,0.039-12.48,0.114c-4.2,0.078-7.9-0.265-11.106-1.03c0-0.458-0.308-0.688-0.916-0.688h-0.916h-0.687v0.688
		c-0.612,0.611-1.682,0.916-3.206,0.916c-0.458-0.458-1.146-0.533-2.062-0.229c-0.916,0.308-1.374,0.079-1.374-0.687
		c-1.682,0.458-3.435,0.916-5.267,1.373c-1.832,0.458-3.359,0.305-4.58-0.457c-0.308,0-0.687,0.039-1.145,0.114
		c-0.458,0.078-0.841,0.114-1.146,0.114c-7.023,0.304-13.475,0.379-19.351,0.229c-5.879-0.153-11.718-0.229-17.519-0.229
		c-0.766-8.244-1.338-16.065-1.717-23.473c-0.383-7.403-0.344-14.616,0.114-21.641c0.458-5.8,0.494-11.64,0.114-17.519
		c-0.383-5.875-0.422-11.485-0.114-16.831c0.15-1.679,0.379-3.281,0.687-4.81c0.305-1.523,0.608-2.897,0.916-4.121
		c-0.611-1.832-0.916-3.586-0.916-5.268c0-1.678,0.036-3.356,0.115-5.038c0.075-1.678,0.114-3.396,0.114-5.152
		c0-1.753-0.308-3.7-0.916-5.84c0.762-3.813,1.145-8.165,1.145-13.053c0-4.884-0.078-9.808-0.229-14.771
		c-0.154-4.959-0.114-9.732,0.114-14.313c0.229-4.58,0.952-8.473,2.176-11.679c2.898,0,5.761-0.036,8.587-0.114
		c2.823-0.075,5.687-0.344,8.588-0.802c5.038-0.15,10.341-0.305,15.915-0.458c5.571-0.15,11.107-0.189,16.603-0.114
		c5.496,0.078,10.914,0.343,16.26,0.801c5.342,0.458,10.38,1.224,15.113,2.29c0,4.888-0.153,10.155-0.458,15.802
		c-0.308,5.649-0.458,10.688-0.458,15.113c-3.664-1.832-7.636-2.938-11.907-3.32c-4.276-0.379-8.702-0.458-13.282-0.229
		c-4.58,0.229-9.16,0.536-13.74,0.916c-4.58,0.383-9.01,0.497-13.282,0.343c-0.916,5.346-1.259,10.992-1.03,16.946
		c0.229,5.954,0.572,11.146,1.03,15.572c1.982,0.458,4.237,0.422,6.756-0.114c2.519-0.533,4.845-0.19,6.984,1.03
		c0.458-0.458,0.494-0.723,0.114-0.802c-0.383-0.075-0.955-0.114-1.717-0.114c0.458-0.305,1.065-0.419,1.832-0.344
		c0.762,0.079,0.991,0.497,0.687,1.26c2.898-1.679,6.333-2.555,10.305-2.634c3.969-0.075,7.633-0.265,10.992-0.572
		c0.458,2.901,0.647,5.649,0.572,8.244c-0.078,2.598-0.153,5.191-0.229,7.786c-0.079,2.598-0.154,5.23-0.229,7.9
		c-0.078,2.673,0.115,5.535,0.573,8.587c-6.566,0.458-12.596,0.841-18.091,1.146c-5.496,0.308-11.68,0.458-18.55,0.458
		c0.763,6.412,0.838,12.709,0.229,18.893c-0.612,6.183-0.688,12.48-0.229,18.893c9.769,0,19.197,0.078,28.282,0.229
		c9.081,0.154,17.364,0.079,24.846-0.229c0.305,3.205,0.115,7.023-0.572,11.449C767.32,348.203,767.205,352.247,767.663,355.911z
		 M696.445,306.904c-0.458,0.767-0.687,1.3-0.687,1.604h1.603C697.361,307.441,697.053,306.904,696.445,306.904z M697.361,311.714
		c0,0.458,0.419,0.687,1.26,0.687c0.837,0,1.26-0.229,1.26-0.687c-0.458-0.305-0.881-0.379-1.26-0.229
		C698.237,311.638,697.819,311.714,697.361,311.714z M699.88,281.485c0.458,0,0.991-0.114,1.603-0.343
		c0.608-0.229,1.181-0.533,1.718-0.916c0.533-0.38,0.916-0.802,1.145-1.26c0.229-0.458,0.115-0.916-0.343-1.374
		c-0.916,0.766-1.757,1.413-2.52,1.946C700.717,280.076,700.184,280.723,699.88,281.485z M701.483,290.645
		c0,1.07,0.533,1.604,1.604,1.604c0.458-0.458,0.493-0.952,0.114-1.488C702.818,290.227,702.245,290.187,701.483,290.645z
		 M703.086,341.255c0.458,0.308,0.99,0.308,1.603,0c0.608-0.305,0.916-0.837,0.916-1.604c-0.766,0.309-1.26,0.115-1.488-0.572
		c-0.229-0.687-0.572-1.03-1.03-1.03c-0.458,0.766-0.384,1.374,0.229,1.832C703.923,340.339,703.848,340.797,703.086,341.255z
		 M721.177,220.343c-0.612,0-0.916,0.154-0.916,0.458c-0.154,0.154-0.154,0.308,0,0.458c0.608,0,0.916,0.537,0.916,1.603
		c0.458,0,0.991-0.304,1.603-0.916c-0.458-0.304-0.841-0.458-1.145-0.458C721.327,221.487,721.177,221.108,721.177,220.343z
		 M729.192,203.168c-0.308,0-0.651,0.078-1.03,0.229c-0.383,0.154-0.572,0.612-0.572,1.374c0.458,0.458,0.951,0.498,1.488,0.115
		C729.611,204.506,729.65,203.933,729.192,203.168z M731.711,214.618c0,0.458-0.154,0.88-0.458,1.259
		c-0.309,0.383-0.458,0.802-0.458,1.26c0.916-0.458,1.488-0.608,1.717-0.458c0.229,0.154,0.494,0,0.802-0.458h-0.458
		c-0.154,0-0.229-0.229-0.229-0.687c-0.154-0.15-0.229-0.305-0.229-0.458C732.09,214.771,731.861,214.618,731.711,214.618z
		 M733.314,218.74h-2.519c0,0.766,0.532,1.259,1.603,1.488C733.464,220.457,733.772,219.964,733.314,218.74z M736.52,213.702
		c-0.766-0.305-1.374-0.19-1.832,0.343c-0.458,0.537-0.916,1.031-1.374,1.489c0.458,0,0.647,0.268,0.572,0.801
		c-0.078,0.537,0.265,0.802,1.03,0.802c0.458-0.458,0.838-0.916,1.146-1.374C736.365,215.304,736.52,214.618,736.52,213.702z
		 M734.916,210.496v1.603c0.458,0,0.991-0.035,1.604-0.114c0.608-0.075,0.916-0.265,0.916-0.572c-0.458,0-0.802-0.15-1.03-0.458
		C736.176,210.649,735.679,210.496,734.916,210.496z M738.122,217.136c0,0.766,0.15,1.07,0.458,0.916
		c0.305-0.15,0.688-0.229,1.146-0.229C739.726,217.366,739.189,217.136,738.122,217.136z"/>
</g>
<g>
	<path class="st0" d="M87.095,73.055c-0.154,1.227-0.039,2.337,0.344,3.331c0.381,0.997,0.805,2.337,1.264,4.02
		c0,2.452-0.154,5.018-0.459,7.696c-0.309,2.682-0.46,5.324-0.46,7.925c0,4.444,0,8.96,0,13.554s-0.23,9.574-0.689,14.932
		c-0.308,3.371-0.538,6.357-0.689,8.96c-0.154,2.606,0.075,5.362,0.689,8.27c0,0.459,0.115,1.033,0.344,1.722
		c0.23,0.69,0.344,1.264,0.344,1.724c0,1.227-0.269,2.452-0.804,3.676c-0.538,1.228-0.804,2.452-0.804,3.676
		c-0.308,2.911-0.154,5.898,0.459,8.959c0.61,3.066,0.764,6.052,0.459,8.96c-1.227,0.305-2.032,0.23-2.411-0.23
		c-0.385-0.459-0.959-0.689-1.724-0.689c-4.135,0-7.889-0.381-11.257-1.149c-3.371-0.764-6.741-1.148-10.108-1.148
		c-2.911,0.308-5.898,0.689-8.959,1.148c-3.065,0.459-6.052,0.309-8.96-0.459c-0.308-0.151-0.459-0.535-0.459-1.148
		c0-0.61-0.079-1.263-0.23-1.953c-0.154-0.689-0.344-1.378-0.574-2.067c-0.23-0.689-0.654-1.109-1.264-1.264
		c0.766-0.459,1.035-1.339,0.805-2.641c-0.23-1.299-0.5-2.334-0.805-3.102c0.766-1.224,0.955-2.642,0.575-4.25
		c-0.385-1.609-0.575-3.482-0.575-5.629c0-1.224,0.115-2.257,0.346-3.102c0.23-0.84,0.344-1.414,0.344-1.722
		c-0.309-1.224-0.769-1.875-1.379-1.953c-0.613-0.075-0.919-0.574-0.919-1.493c3.216-0.764,6.354-1.07,9.419-0.919
		c3.061,0.154,5.664,0.23,7.811,0.23c0.764-1.225,1.033-2.488,0.804-3.791c-0.23-1.3,0.036-1.953,0.804-1.953
		c-0.768-4.899-1.033-10.604-0.804-17.115c0.23-6.507,0.19-12.825-0.115-18.953c-0.459-10.108-0.919-19.872-1.378-29.291
		c-0.46-9.419-0.539-18.493-0.23-27.224c-2.606-0.764-4.825-1.184-6.662-1.263c-1.838-0.075-3.641-0.036-5.399,0.115
		c-1.762,0.154-3.6,0.384-5.513,0.689c-1.917,0.308-4.251,0.459-7.007,0.459c-0.309,8.579-0.27,17,0.115,25.27
		c0.381,8.271,0.804,16.426,1.263,24.467c0.459,8.04,0.804,16.006,1.033,23.892c0.23,7.889-0.039,15.815-0.804,23.776
		c0.459,0.615,1.07,1.035,1.838,1.264c0.764,0.23,1.529,0.459,2.297,0.689c0.764,0.23,1.455,0.574,2.068,1.033
		c0.61,0.459,0.994,1.148,1.148,2.068c-0.308,0-0.768-0.115-1.378-0.344c-0.613-0.23-0.919-0.115-0.919,0.344
		c0.305,2.452,0.65,5.132,1.033,8.04c0.381,2.911,0.266,6.203-0.344,9.879c0,0.459-0.115,1.073-0.344,1.837
		c-0.23,0.769-0.344,1.533-0.344,2.298c0,0.768,0.38,1.573,1.148,2.413c0.764,0.843,1.148,1.647,1.148,2.411
		c-5.822,0.769-11.946,0.959-18.378,0.574c-6.433-0.38-12.33-0.574-17.689-0.574c-1.687-16.232-2.721-32.313-3.102-48.243
		c-0.384-15.928-0.728-31.779-1.033-47.554c-0.154-6.584,0.344-13.285,1.493-20.102c1.149-6.813,1.494-13.515,1.035-20.102
		c-0.309-4.44-0.844-8.614-1.609-12.52c-0.768-3.905-0.768-7.926,0-12.062c10.259,0,21.135-0.035,32.622-0.115
		C45.055,7.162,56.082,6.972,66.65,6.662c3.215-0.459,6.432-0.574,9.648-0.344c3.216,0.23,6.279,1.189,9.19,2.872
		c0.61,2.452,0.84,4.939,0.689,7.466c-0.154,2.527-0.384,5.054-0.689,7.581c-0.309,2.527-0.539,5.055-0.689,7.581
		c-0.155,2.527,0.074,5.019,0.689,7.466c0,0.92,0.305,1.802,0.919,2.642c0.61,0.843,1.07,1.878,1.378,3.102
		c0.46,2.147,0.23,4.404-0.689,6.777c-0.919,2.376-1.227,4.788-0.919,7.237c0,0.768,0.266,1.458,0.804,2.067
		c0.535,0.615,0.804,1.304,0.804,2.068c0,1.687-0.194,3.331-0.574,4.939C86.826,69.724,86.787,71.371,87.095,73.055z M9.217,118.082
		c0,0.309,0.344,0.344,1.033,0.115c0.689-0.23,0.879-0.574,0.574-1.033C9.752,117.163,9.217,117.472,9.217,118.082z M12.432,88.447
		c0.305-0.305,0.65-0.535,1.035-0.689c0.381-0.151,0.574-0.459,0.574-0.919c-0.769-0.305-1.343-0.19-1.724,0.344
		C11.934,87.722,11.973,88.142,12.432,88.447z M15.649,36.987c0-0.764-0.344-1.339-1.033-1.724
		c-0.689-0.381-1.417-0.344-2.183,0.115c0,0.769,0.346,1.228,1.035,1.379C14.156,36.912,14.881,36.987,15.649,36.987z
		 M12.432,45.946v1.609h1.609C14.041,46.486,13.502,45.946,12.432,45.946z M14.041,50.771c-0.459,0.459-0.194,0.689,0.804,0.689
		c0.994,0,1.263-0.23,0.804-0.689c0-0.305-0.154-0.381-0.459-0.23C14.881,50.696,14.5,50.771,14.041,50.771z M19.784,16.541
		l-3.215,3.905c0.764,0,1.683-0.459,2.756-1.378C20.394,18.15,20.549,17.31,19.784,16.541z M18.176,29.636
		c0,0.308,0.075,0.653,0.23,1.033c0.151,0.384,0.61,0.574,1.378,0.574c0.46-0.459,0.495-0.955,0.116-1.493
		C19.515,29.216,18.94,29.177,18.176,29.636z M19.784,80.407c0.46,0.308,0.995,0.344,1.609,0.115c0.61-0.23,0.919-0.574,0.919-1.033
		c-0.768,0-1.302-0.381-1.608-1.149c-0.309-0.764-0.844-1.148-1.609-1.148c-0.459,0.768-0.344,1.378,0.344,1.837
		C20.129,79.488,20.244,79.947,19.784,80.407z M62.514,150.704c0-0.764,0.115-1.299,0.344-1.608c0.231-0.305,0.346-0.84,0.346-1.608
		c-0.769-0.305-1.458-0.266-2.068,0.115c-0.613,0.384-1.533,0.344-2.757-0.115c0.305,0.768,0.381,1.263,0.23,1.493
		c-0.154,0.23-0.23,0.574-0.23,1.033c0.764,0,1.455,0.039,2.068,0.115C61.057,150.209,61.746,150.398,62.514,150.704z
		 M66.65,138.528c0.305-0.459,0.38-0.879,0.23-1.263c-0.155-0.381-0.23-0.805-0.23-1.264c-1.228,0-1.838,0.539-1.838,1.609
		c0.459,0,0.764,0.154,0.919,0.459C65.881,138.377,66.189,138.528,66.65,138.528z M73.081,154.84h-1.608
		c0,0.459,0.266,0.768,0.804,0.919C72.812,155.912,73.081,155.607,73.081,154.84z"/>
	<path class="st0" d="M194.779,79.488c0,8.729,0.115,17.153,0.344,25.27c0.23,8.119,0.344,16.924,0.344,26.419
		c0,3.216,0.116,6.203,0.346,8.959c0.23,2.757,0.115,5.209-0.346,7.352c-0.768,2.146-2.031,3.945-3.79,5.398
		c-1.762,1.458-3.485,3.256-5.168,5.399c-0.613,0.768-1.228,1.762-1.838,2.986c-0.613,1.228-1.263,2.413-1.952,3.561
		c-0.689,1.149-1.378,2.183-2.068,3.102c-0.689,0.919-1.493,1.458-2.411,1.609c-1.228,0.459-3.026,0.308-5.399-0.459
		c-2.376-0.766-4.634-1.149-6.777-1.149h-28.716c-1.991,0-4.25,0.115-6.777,0.344c-2.526,0.23-4.634,0.115-6.317-0.344
		c-0.769,0-1.264-0.076-1.494-0.23c-0.23-0.151-0.499-0.61-0.804-1.378v0.919c0-1.224-0.384-2.103-1.148-2.642
		c-0.769-0.535-1.533-1.033-2.298-1.493h-0.689v1.608v0.92c0,0.459,0.075,0.689,0.23,0.689h0.459v0.919
		c0.459,0,0.84,0.154,1.148,0.459c0.151,0.154,0.305,0.23,0.459,0.23h0.92l0.919-0.689c-0.459,0.308-0.958,0.653-1.493,1.033
		c-0.539,0.385-1.189,0.574-1.953,0.574c-0.768,0-1.458-0.344-2.068-1.033c-0.613-0.689-1.227-1.529-1.837-2.527
		c-0.613-0.994-1.189-1.988-1.724-2.986c-0.538-0.994-1.112-1.799-1.722-2.413c-0.614-1.224-1.378-2.333-2.298-3.331
		c-0.919-0.994-1.837-1.952-2.756-2.872c-0.92-0.919-1.763-1.873-2.527-2.872c-0.769-0.994-1.228-2.103-1.379-3.33
		c-0.768-1.225-0.997-2.757-0.689-4.595c0.305-1.837,0.535-3.827,0.689-5.972c0.305-9.649,0.151-19.948-0.459-30.899
		c-0.614-10.948-0.768-21.939-0.459-32.966c0.305-10.108,0.42-20.138,0.344-30.095c-0.079-9.953,0.115-20.675,0.574-32.162
		l34.46,2.298c0.151,6.587,0.075,13.134-0.23,19.643c-0.308,6.511-0.613,13.018-0.919,19.527
		c-0.309,6.511-0.499,12.944-0.574,19.297c-0.08,6.357,0.19,12.6,0.804,18.724c1.07,1.532,1.608,3.446,1.608,5.743
		c0,1.687-0.154,3.295-0.459,4.825c-0.308,1.532-0.689,3.141-1.148,4.824c-0.308,4.904-0.654,9.994-1.033,15.277
		c-0.385,5.284-0.575,10.607-0.575,15.967c1.838,0.459,4.021,0.728,6.548,0.804c2.527,0.079,5.13,0.039,7.811-0.115
		c2.678-0.151,5.321-0.305,7.927-0.459c2.602-0.151,4.975-0.23,7.122-0.23c-0.615-9.8-1.189-19.987-1.724-30.555
		c-0.538-10.568-0.919-21.172-1.148-31.818c-0.23-10.643-0.344-21.17-0.344-31.588c0-10.412,0.23-20.367,0.689-29.865
		c5.359-1.224,10.719-1.952,16.081-2.183c5.36-0.23,10.948-0.574,16.771-1.033c0.764,10.263,1.109,21.329,1.033,33.196
		C194.815,54.946,194.779,67.082,194.779,79.488z M105.413,100.853c0.46,0,0.65-0.266,0.575-0.805
		c-0.08-0.535,0.265-0.804,1.033-0.804c0-0.61-0.539-0.919-1.609-0.919c0.46,0.459,0.575,0.883,0.344,1.263
		C105.528,99.973,105.413,100.393,105.413,100.853z M107.022,119.691v-0.919c0-0.305-0.154-0.575-0.459-0.805
		c-0.309-0.23-0.689,0.039-1.149,0.805c0.46,0,0.764,0.154,0.92,0.459C106.483,119.54,106.714,119.691,107.022,119.691z
		 M107.022,96.028h-0.689v1.609c0.305,0,0.495-0.075,0.574-0.23C106.983,97.256,107.022,96.797,107.022,96.028z M125.171,79.488
		c-0.459,0-0.769,0.115-0.919,0.344c-0.155,0.23-0.385,0.115-0.69-0.344c0,0.768,0.346,1.148,1.035,1.148
		S125.476,80.256,125.171,79.488z M125.86,114.866c0.459,0,0.764-0.189,0.919-0.574c0.151-0.381,0.459-0.804,0.92-1.263
		c-0.92,0-1.458-0.151-1.609-0.459c-0.154-0.305-0.23-0.689-0.23-1.149l-2.298-1.608c0,1.687,0.305,2.721,0.92,3.102
		C125.092,113.297,125.551,113.947,125.86,114.866z"/>
	<path class="st0" d="M314.255,5.744c0.459,1.838,0.725,4.174,0.804,7.007c0.075,2.836,0.075,5.744,0,8.729
		c-0.079,2.987-0.154,5.937-0.23,8.845c-0.079,2.911-0.039,5.363,0.115,7.351c-5.822-0.305-11.68-0.574-17.575-0.804
		c-5.898-0.23-11.755,0.039-17.575,0.804c-0.459,4.594-0.768,9.649-0.919,15.162c-0.154,5.514-0.269,11.142-0.345,16.886
		c-0.079,5.743-0.115,11.372-0.115,16.886c0,5.513-0.079,10.492-0.23,14.932c-0.308,11.486-0.804,22.782-1.494,33.885
		c-0.689,11.107-1.034,22.859-1.034,35.264c-4.903-0.305-10.338-0.305-16.31,0c-5.973,0.305-11.182,0.305-15.622,0
		c-0.459-9.649-0.689-19.642-0.689-29.98s-0.384-22.015-1.148-35.034c-0.154-1.224-0.309-2.564-0.459-4.02
		c-0.155-1.455-0.23-2.793-0.23-4.02c0-1.225,0.265-2.298,0.804-3.216c0.535-0.92,0.804-1.759,0.804-2.527
		c0.459-2.142,0.381-4.365-0.23-6.662c-0.613-2.297-1.073-4.745-1.378-7.351c-0.769-5.818-0.69-12.097,0.23-18.838
		c0.919-6.738,1.378-13.86,1.378-21.365c-3.525-0.151-6.702-0.23-9.534-0.23c-2.836,0-5.592,0-8.27,0
		c-2.682,0-5.363,0.039-8.04,0.115c-2.682,0.079-5.553,0.115-8.616,0.115c0.46-5.819,0.725-11.217,0.805-16.197
		c0.075-4.975,0.115-9.914,0.115-14.818c14.393,0,27.718,0.08,39.973,0.23c12.251,0.155,24.352,0.08,36.297-0.23
		c4.899-0.15,9.764-0.344,14.588-0.574C304.95,5.859,309.661,5.744,314.255,5.744z M245.336,152.542l2.297-1.838
		C246.1,150.704,245.336,151.318,245.336,152.542z M246.944,131.177c0.305,0.308,0.804,0.423,1.494,0.344
		c0.689-0.075,1.033-0.495,1.033-1.263C247.783,130.258,246.944,130.567,246.944,131.177z M255.214,30.325h-1.837
		c0,1.073,0.305,1.608,0.919,1.608C254.905,31.473,255.214,30.939,255.214,30.325z M255.904,73.744v-0.689
		c-1.074,0-1.609,0.538-1.609,1.608c0.459,0,0.764-0.151,0.919-0.459C255.364,73.898,255.594,73.744,255.904,73.744z M258.43,14.704
		c0,0.459,0.266,0.689,0.805,0.689c0.535,0,0.804-0.23,0.804-0.689c-0.459,0-0.844-0.075-1.149-0.231
		C258.581,14.323,258.43,14.399,258.43,14.704z M263.255,85.231c1.07,0,1.608-0.23,1.608-0.689c-0.308-0.459-0.653-0.65-1.033-0.574
		C263.445,84.046,263.255,84.466,263.255,85.231z M268.998,94.191v-1.609c-0.308,0-0.689-0.23-1.148-0.689
		c-0.459-0.459-0.843-0.459-1.148,0c0.305,0.769,0.574,1.343,0.804,1.724C267.734,94,268.23,94.191,268.998,94.191z"/>
	<path class="st0" d="M409.169,134.393c1.223-1.224,3.06-1.568,5.512-1.033c2.45,0.538,4.67,0.653,6.662,0.344v31.933
		c-5.512,0.154-11.641,0.154-18.377,0c-6.741-0.151-13.594-0.266-20.562-0.346c-6.971-0.074-13.899-0.074-20.791,0
		c-6.891,0.08-13.173,0.424-18.838,1.035c-1.378-1.379-2.642-2.908-3.791-4.594c-1.148-1.684-2.262-3.367-3.331-5.055
		c-1.073-1.683-2.222-3.292-3.446-4.824c-1.227-1.529-2.682-2.987-4.365-4.365c0-0.305,0.345-0.535,1.034-0.69
		c0.69-0.15,1.184-0.459,1.494-0.919c-0.309-0.305-0.689-0.266-1.149,0.115c-0.459,0.384-0.919,0.344-1.378-0.115
		c0.919-13.935,1.148-28.027,0.689-42.271s-0.689-29.635-0.689-46.176c0-5.818-0.079-11.562-0.23-17.229
		c-0.154-5.665-0.079-11.408,0.23-17.23c0.459-2.908,0.689-5.859,0.689-8.845c0-2.986,0.61-5.779,1.838-8.385l33.77-1.608
		c0.764,0,0.955,0.23,0.574,0.689c-0.384,0.459-0.574,1.073-0.574,1.837c-0.459,2.452-0.574,5.094-0.344,7.927
		c0.23,2.836,0.459,5.592,0.689,8.27c0.23,2.682,0.23,5.208,0,7.581c-0.23,2.376-0.958,4.25-2.182,5.628
		c0.459,4.444,0.994,9.613,1.608,15.508c0.61,5.898,0.919,11.91,0.919,18.034c-0.154,1.837-0.459,3.791-0.919,5.857
		c-0.459,2.068-0.843,4.061-1.148,5.973c-0.309,1.917-0.424,3.791-0.345,5.629c0.076,1.837,0.65,3.446,1.722,4.824
		c-1.687,6.892-2.642,14.053-2.872,21.48c-0.23,7.43-0.958,14.437-2.182,21.021c7.656,1.532,15.467,2.067,23.432,1.608
		C390.48,135.542,399.365,135.007,409.169,134.393z M338.64,11.487c0-0.305-0.039-0.61-0.115-0.92
		c-0.079-0.305-0.344-0.23-0.804,0.23c-0.309,0-0.345,0.115-0.115,0.346C337.836,11.373,338.181,11.487,338.64,11.487z
		 M349.208,87.758H347.6v1.608C348.67,89.366,349.208,88.831,349.208,87.758z M349.208,57.433c0.459,0.769,0.459,1.189,0,1.264
		c-0.459,0.079-0.689,0.499-0.689,1.263c1.07-0.459,1.722-0.305,1.952,0.459c0.23,0.769,0.955,1.149,2.183,1.149
		c0.305-0.46,0.495-1.035,0.574-1.724c0.076-0.689,0.115-1.184,0.115-1.493c-0.768-0.459-1.458-0.61-2.067-0.459
		C350.661,58.047,349.972,57.893,349.208,57.433z M355.87,75.352c0.764-1.988,0.61-3.366-0.459-4.135
		c-1.074-0.764-1.993-1.529-2.757-2.297h-0.459c-0.309,0-0.459,0.23-0.459,0.689l2.526,2.527c-0.768,0.768-1.608,1.188-2.526,1.263
		c-0.92,0.079-1.763,0.728-2.527,1.952c1.683,0,3.023-0.305,4.02-0.919C354.222,73.823,355.101,74.128,355.87,75.352z
		 M354.262,41.811c-0.768,0-1.302,0.308-1.608,0.919c-0.308,0.615-0.919,1.149-1.838,1.609c0.92,0.308,1.724,0.269,2.413-0.115
		C353.917,43.843,354.262,43.039,354.262,41.811z M351.735,93.5c1.07,0,1.608-0.304,1.608-0.919
		C352.27,92.582,351.735,92.891,351.735,93.5z M355.87,68.92c0.764-0.459,0.919-0.84,0.459-1.149
		c-0.459-0.305-0.919-0.459-1.378-0.459c0.305,0.309,0.459,0.539,0.459,0.689c0,0.155,0.076,0.309,0.23,0.46
		C355.641,68.615,355.716,68.769,355.87,68.92z M355.87,64.784c0.764,0,1.339,0.08,1.722,0.231c0.381,0.154,0.344,0.614-0.115,1.378
		c0.764,0,1.264-0.151,1.494-0.459c0.23-0.305,0.574-0.689,1.033-1.149c-0.768-0.459-1.573-0.879-2.413-1.263
		C356.75,63.14,356.175,63.56,355.87,64.784z M359.087,104.988c-0.309-0.459-0.424-0.994-0.344-1.609
		c0.076-0.61-0.039-0.919-0.344-0.919c-0.46,0.459-0.654,0.998-0.575,1.608C357.898,104.683,358.318,104.988,359.087,104.988z"/>
	<path class="st0" d="M522.438,135.312h0.23c0.306,0,0.461,0.23,0.461,0.689l5.742,35.608h-22.973
		c-2.146-4.899-3.755-9.838-4.825-14.818c-1.072-4.975-2.45-9.684-4.134-14.129c-4.444,0-9.384-0.151-14.818-0.459
		c-5.44-0.305-10.607-0.459-15.507-0.459c-2.148,4.443-3.562,9.154-4.251,14.129c-0.689,4.978-1.493,9.918-2.411,14.818
		c-3.985,0-8.121,0.19-12.406,0.574c-4.289,0.381-8.885,0.19-13.784-0.574l5.744-39.514c0.763,0.768,1.837,0.768,3.215,0
		c-0.768-0.459-1.378-0.61-1.837-0.459c-0.459,0.154-0.919,0-1.378-0.459c1.684-9.8,3.1-19.833,4.249-30.095
		c1.15-10.258,2.488-20.675,4.021-31.243l2.526-18.149c0.306-1.684,0.921-3.023,1.839-4.021c0.919-0.994,1.378-2.333,1.378-4.02
		c0.763-2.602,1.299-5.244,1.608-7.926c0.306-2.677,0.84-5.244,1.608-7.696c1.225-3.676,2.218-7.351,2.988-11.027
		c0.763-3.676,1.148-7.351,1.148-11.027h6.662c-0.459,0.308-0.768,0.384-0.919,0.23c-0.155-0.151-0.459-0.23-0.919-0.23
		c0,0.768,0.493,1.033,1.493,0.804c0.993-0.23,1.873-0.495,2.641-0.804c0.459,0,0.61,0.154,0.459,0.459
		c-0.153,0.308,0,0.689,0.459,1.148c0.306-0.459,0.61-0.764,0.919-0.919c0.306-0.151,0.23-0.381-0.23-0.689h16.542
		c2.907-0.459,5.129-0.764,6.662-0.919c1.529-0.151,2.601,1.227,3.215,4.135l2.297,12.175c0.766,1.687,1.414,3.485,1.954,5.399
		c0.534,1.916,1.033,3.715,1.493,5.398c0,0.308-0.155,0.424-0.459,0.344c-0.308-0.075-0.459,0.039-0.459,0.344v0.92
		c0-0.61-0.308-0.92-0.919-0.92c-0.461,0-0.691,0.155-0.691,0.459v0.46l-0.919-0.92v0.92c-0.308,0-0.653,0.079-1.034,0.23
		c-0.383,0.154-0.574,0.613-0.574,1.378v0.919h0.919h0.689l-0.689,0.689l0.689-0.689v0.689c-0.459,0.769-0.689,1.304-0.689,1.609
		v0.919l1.608-0.919v0.459c0,0.308,0.23,0.459,0.691,0.459c0.919,0,1.452-0.305,1.608-0.919c0.151-0.61,0.23-1.148,0.23-1.609
		v-0.689h-2.528h0.691c0.459-0.459,0.878-0.764,1.263-0.919c0.381-0.151,0.574-0.381,0.574-0.689l1.608,5.513
		c2.756,9.649,4.94,19.528,6.548,29.636c1.608,10.107,3.481,20.216,5.629,30.324c0,1.074-0.23,1.609-0.689,1.609
		c0.763,1.227,1.378,2.756,1.837,4.594c0.459,1.837,0.919,3.6,1.378,5.283c0.459,3.676,0.995,7.431,1.608,11.257
		c0.61,3.831,0.919,7.431,0.919,10.797C523.204,133.704,523.204,134.547,522.438,135.312z M468.223,11.487l-0.689,0.919h1.608h2.297
		v-0.919l0.919,0.919v-1.609h-0.919V9.879l-0.689,0.919h-0.919h-0.459c-0.155,0-0.308,0.08-0.459,0.231
		C468.757,11.182,468.527,11.336,468.223,11.487z M473.278,110.731c1.988,0.309,4.859,0.385,8.614,0.23
		c3.751-0.15,6.852-0.23,9.303-0.23c-1.227-7.351-2.49-14.624-3.789-21.824c-1.304-7.197-3.026-13.86-5.17-19.986
		c-1.688,6.587-3.411,13.363-5.17,20.33C475.304,96.222,474.041,103.379,473.278,110.731z M505.898,155.758h1.837h0.689l2.528,1.608
		l-0.919-2.526c-0.459-0.46-1.229-0.69-2.299-0.69h-0.919h-0.919l-1.608-0.919v0.919c0.459,0.769,0.763,1.228,0.919,1.379
		C505.36,155.683,505.59,155.758,505.898,155.758z"/>
	<path class="st0" d="M648.1,86.149c0.61-12.71,0.804-24.846,0.574-36.412c-0.23-11.562-0.115-23.468,0.344-35.723l33.541-2.526
		c-0.31,14.398-0.5,28.451-0.576,42.155c-0.079,13.709-0.115,27.532-0.115,41.467v-0.919h-1.608c-0.153,0.154-0.308,0.23-0.459,0.23
		c-0.308,0.308-0.459,0.538-0.459,0.689c-0.459,0.459-0.689,0.997-0.689,1.608c0,0.615,0.23,0.92,0.689,0.92l0.919,0.689
		l0.689-0.689v-0.92c0-0.459,0.306-0.689,0.919-0.689v-0.919v31.014c0,3.83-0.038,7.43-0.115,10.797
		c-0.079,3.371-0.344,6.892-0.804,10.568c-1.378,1.686-2.031,3.41-1.952,5.168c0.077,1.763,0.306,3.525,0.689,5.283
		c0.381,1.763,0.61,3.486,0.689,5.17c0.077,1.687-0.574,3.295-1.952,4.824c-1.992,0-4.71,0.039-8.155,0.115
		c-3.447,0.08-7.2,0.115-11.258,0.115c-4.06,0-8.155,0.08-12.289,0.23c-4.136,0.155-7.928,0.23-11.373,0.23
		c-3.445,0-6.318,0.04-8.614,0.115c-2.299,0.08-3.6,0.115-3.906,0.115c-0.768-0.15-2.375-0.23-4.823-0.23
		c-2.452,0-5.095,0.04-7.928,0.115c-2.835,0.08-5.512,0.195-8.04,0.346c-2.526,0.154-4.098,0.308-4.708,0.459
		c-0.77,0-1.878-0.151-3.332-0.459c-1.457-0.305-2.796-0.381-4.019-0.231c-3.066,0.155-6.088,0.155-9.076,0
		c-2.986-0.15-5.971-0.304-8.959-0.459c-2.986-0.15-5.937-0.19-8.844-0.115c-2.911,0.08-5.744,0.5-8.5,1.264
		c-1.688-1.225-2.873-2.757-3.562-4.595c-0.689-1.837-1.648-3.826-2.871-5.972c-1.227-1.684-2.988-3.331-5.284-4.94
		c-2.297-1.608-3.83-3.481-4.595-5.628c-0.459-1.684-0.498-3.482-0.115-5.399c0.381-1.913,0.651-3.711,0.806-5.398
		c0.304-3.981,0.379-8.306,0.23-12.98c-0.155-4.67-0.23-9.074-0.23-13.21c0-1.224-0.27-2.448-0.806-3.676
		c-0.538-1.224-0.804-2.448-0.804-3.676c-0.308-6.891-0.038-13.819,0.804-20.79c0.84-6.968,0.88-13.131,0.115-18.494
		c0.306-0.764,0.61-1.148,0.921-1.148c0.304,0,0.23-0.151-0.23-0.459c1.223-0.459,1.414-0.65,0.574-0.574
		c-0.844,0.079-1.265-0.266-1.265-1.033V12.406v-0.459c0-0.305,0.23-0.459,0.691-0.459c2.448,0,5.129,0.154,8.04,0.459
		c2.907,0.308,5.856,0.613,8.844,0.919c2.986,0.308,5.933,0.653,8.844,1.033c2.907,0.385,5.589,0.654,8.04,0.805
		c0,4.594,0.151,9.189,0.459,13.783c0.306,4.595-0.153,8.501-1.378,11.717c0.459,14.398,0.536,27.991,0.23,40.777
		c-0.308,12.79-0.919,25.385-1.837,37.791c-0.308,3.676-0.574,7.046-0.804,10.107c-0.23,3.065,0.036,6.282,0.804,9.649
		c4.134,0.769,8.421,0.769,12.865,0c4.44-0.764,8.88-1.299,13.325-1.608c0-6.433-0.04-13.095-0.115-19.987
		c-0.081-6.892-0.27-13.63-0.576-20.217c-0.308-7.351-0.423-14.588-0.345-21.71c0.077-7.122-0.115-14.358-0.574-21.71
		c-0.153-3.676-0.268-7.007-0.344-9.992c-0.079-2.987-0.153-5.973-0.23-8.96c-0.079-2.987-0.115-6.008-0.115-9.075
		c0-3.061,0-6.583,0-10.567c4.899-1.225,10.109-1.645,15.621-1.264c5.514,0.384,11.179,0.574,17.001,0.574
		c-0.155,11.027-0.308,21.56-0.459,31.588c-0.155,10.033-0.344,19.951-0.574,29.75c-0.23,9.803-0.574,19.682-1.036,29.636
		c-0.459,9.957-1.072,20.295-1.837,31.013c1.837,0.309,4.021,0.615,6.548,0.92c2.528,0.308,5.055,0.538,7.581,0.689
		c2.528,0.154,4.976,0.194,7.351,0.115c2.373-0.075,4.481-0.344,6.318-0.804c0-5.36-0.344-10.683-1.033-15.967
		c-0.689-5.283-1.189-10.604-1.493-15.966c-0.155-1.684-0.459-3.177-0.919-4.481c-0.459-1.299-0.689-2.792-0.689-4.479
		c0.304-1.529,0.608-3.102,0.919-4.709C647.715,89.71,647.945,87.988,648.1,86.149z M549.775,50.081
		c-0.459-0.459-0.574-0.764-0.344-0.919c0.23-0.151,0.344-0.381,0.344-0.689c-1.686,0.768-2.526,1.837-2.526,3.216
		c0.61,0.308,0.955,0.344,1.034,0.115c0.074-0.23,0.115-0.495,0.115-0.804c0-0.305,0.074-0.575,0.23-0.805
		C548.777,49.967,549.16,49.932,549.775,50.081z M551.382,45.946h-0.919c0,0.769,0.115,1.494,0.344,2.183
		c0.23,0.689,0.955,1.033,2.184,1.033v-1.608c-0.31,0-0.54-0.151-0.691-0.459C552.148,46.791,551.842,46.406,551.382,45.946z
		 M552.301,117.163c1.684-0.305,3.024-1.299,4.021-2.987c0.995-1.683,1.263-3.366,0.804-5.054c-0.459,0.308-0.919,0.384-1.378,0.23
		c-0.459-0.151-1.074-0.23-1.837-0.23c0,0.308-0.04,0.768-0.115,1.378c-0.081,0.615-0.345,0.919-0.804,0.919
		c0.459,0.769,0.419,1.458-0.117,2.068c-0.538,0.613-1.034,1.304-1.493,2.068c0.459,0,0.804,0.194,1.034,0.574
		C552.646,116.514,552.607,116.858,552.301,117.163z M552.301,156.447c-0.459,0.459-0.308,0.843,0.459,1.148
		c0.766,0.309,1.15,0.23,1.15-0.23c-0.459,0-0.77-0.151-0.919-0.459C552.837,156.601,552.607,156.447,552.301,156.447z
		 M552.992,42.73c0,0.459,0.534,0.69,1.608,0.69h0.459c0.304,0,0.459-0.231,0.459-0.69c-0.459-0.459-0.883-0.574-1.263-0.344
		C553.87,42.615,553.452,42.73,552.992,42.73z M557.126,63.176c-0.768-0.459-1.533-0.535-2.297-0.23
		c-0.768,0.308-1.378,0.613-1.837,0.919c0,0.919,0.149,1.494,0.459,1.724c0.304,0.23,0.459,0.499,0.459,0.804
		c0.763-0.305,1.378-0.725,1.837-1.263C556.208,64.595,556.667,63.945,557.126,63.176z M555.059,46.866h0.459v-0.92H554.6
		c-0.155,0.154-0.23,0.459-0.23,0.92c0,0.459,0.074,0.689,0.23,0.689C554.6,47.096,554.751,46.866,555.059,46.866z M561.262,156.447
		c0.304-0.764,0.381-1.263,0.23-1.493c-0.155-0.23-0.23-0.495-0.23-0.805c-0.459,0-0.885,0.08-1.265,0.23
		c-0.383,0.155-0.804,0.08-1.263-0.23c0.459,0.769,0.495,1.418,0.115,1.953c-0.383,0.538-0.423,1.263-0.115,2.183
		c0.459-0.46,0.804-1.071,1.033-1.838C559.997,155.683,560.492,155.683,561.262,156.447z"/>
	<path class="st0" d="M713.432,4.136c13.476-0.764,26.841-1.53,40.089-2.298C766.767,1.074,779.596,0.46,792,0
		c-0.153,2.452-0.423,5.094-0.804,7.927c-0.383,2.836-0.689,5.667-0.919,8.5c-0.23,2.836-0.308,5.668-0.23,8.5
		c0.077,2.836,0.495,5.478,1.263,7.927c-2.146,0.613-4.593,0.997-7.351,1.148c-2.756,0.154-5.667,0.194-8.729,0.115
		c-3.066-0.075-6.167-0.23-9.303-0.459c-3.141-0.23-6.167-0.495-9.076-0.804h-27.107c-0.308,5.362-0.23,10.568,0.23,15.621
		c0.459,5.054,0.689,10.797,0.689,17.23L786.258,68l4.134,32.852c0.459,0.768,0.266,1.148-0.574,1.148
		c-0.844,0-1.189,0.459-1.033,1.378c0.304,6.128,0.266,11.911-0.115,17.345c-0.385,5.439-0.574,10.837-0.574,16.197
		c0,1.378,0.074,3.64,0.23,6.776c0.151,3.141,0.23,6.398,0.23,9.764c0,3.371-0.155,6.511-0.459,9.419
		c-0.308,2.911-0.919,4.903-1.837,5.972c-0.459,0.46-2.033,0.844-4.71,1.149c-2.682,0.308-5.708,0.538-9.074,0.689
		c-3.37,0.151-6.626,0.23-9.765,0.23c-3.141,0-5.397-0.079-6.777-0.23c0-0.764-0.308-1.148-0.919-1.148c-0.612,0-1.072,0-1.378,0
		h-0.919h-0.919v0.919l0.919,0.23c-2.148-0.305-4.021-0.42-5.629-0.344c-1.608,0.079-3.256,0.115-4.94,0.115h3.217v-0.919
		c0-0.764-0.23-1.494-0.689-2.183c-0.459-0.689-1.074-1.033-1.837-1.033h-0.691l-0.919,0.919l-0.919,0.689v0.919v0.69h0.919h0.919
		v0.919c-4.289-0.151-8.349-0.23-12.174-0.23c-3.83,0-7.621,0-11.373,0c-3.753,0-7.581,0.039-11.485,0.115
		c-3.906,0.079-8.081,0.115-12.521,0.115c0-5.359,0.036-10.988,0.115-16.886c0.074-5.894,0.266-10.912,0.574-15.047
		c1.225,0.459,2.603,0.459,4.134,0c1.531-0.459,3.139-0.459,4.825,0c1.225,0,2.182,0.269,2.873,0.804
		c0.689,0.539,1.644,0.804,2.871,0.804c1.684,0.46,3.366,0.539,5.055,0.231c1.682-0.305,3.596-0.381,5.742-0.231
		c5.82,0.309,11.947,0.69,18.379,1.149c6.433,0.459,12.557,0.079,18.379-1.149c0-6.583-0.31-12.94-0.921-19.067
		c-0.612-6.123-1.072-12.864-1.378-20.216c-9.648,0.308-19.492,0.039-29.52-0.805c-10.033-0.84-19.872-1.644-29.52-2.411
		c0-5.36-0.459-10.797-1.378-16.311c-0.919-5.513-0.997-10.719-0.23-15.621c0-0.92,0.115-1.759,0.344-2.527
		c0.23-0.764,0.345-1.299,0.345-1.608c0.151-0.92,0.266-2.793,0.344-5.629c0.074-2.833,0.115-6.088,0.115-9.764
		c0-3.676-0.04-7.581-0.115-11.716c-0.079-4.135-0.115-8.04-0.115-11.716s-0.04-6.892-0.115-9.649
		c-0.079-2.757-0.115-4.67-0.115-5.744c0.151-1.378,0.61-2.218,1.378-2.526c0.766-0.305,1.837-0.381,3.217-0.23
		c1.378,0.154,3.175,0.269,5.397,0.344C707.495,5.019,710.217,4.75,713.432,4.136z M705.162,63.176
		c0.459,0.308,0.955,0.423,1.493,0.344c0.536-0.075,0.576-0.495,0.117-1.263C705.698,62.258,705.162,62.566,705.162,63.176z
		 M709.298,73.744c0,0.459-0.155,0.804-0.459,1.033c-0.308,0.23-0.459,0.729-0.459,1.494c0.763-0.459,1.263-0.61,1.493-0.459
		c0.23,0.154,0.574,0,1.034-0.46c0-0.305-0.155-0.42-0.459-0.344c-0.308,0.08-0.459-0.035-0.459-0.344v-0.459
		C709.987,73.898,709.757,73.744,709.298,73.744z M709.298,77.879c-0.459,0.769-0.155,1.148,0.919,1.148
		c1.07,0,1.608-0.38,1.608-1.148c-0.919-0.305-1.493-0.381-1.722-0.23C709.872,77.804,709.602,77.879,709.298,77.879z
		 M712.513,76.272c0.459-0.459,0.84-0.92,1.148-1.379c0.306-0.459,0.461-1.07,0.461-1.837c-0.31-0.764-0.806-0.84-1.495-0.23
		c-0.689,0.614-1.263,0.919-1.722,0.919c0.459,0.459,0.651,0.998,0.574,1.608C711.401,75.966,711.746,76.272,712.513,76.272z
		 M712.513,69.609v1.837c0.459,0,1.034-0.035,1.725-0.115c0.689-0.075,1.184-0.344,1.493-0.804c-0.768,0-1.304-0.151-1.608-0.459
		C713.813,69.763,713.279,69.609,712.513,69.609z M715.731,76.272c0,0.613,0.61,0.919,1.837,0.919
		C717.568,76.58,716.953,76.272,715.731,76.272z M731.352,85.231c-0.308,0-0.768,0.039-1.378,0.115
		c-0.615,0.079-0.919,0.344-0.919,0.804c0.304,0.309,0.763,0.424,1.378,0.346C731.044,86.419,731.352,85.999,731.352,85.231z
		 M734.567,67.311c-0.308,0-0.689-0.115-1.148-0.344c-0.459-0.23-0.842-0.115-1.148,0.344c-0.459,0.769-0.193,1.149,0.804,1.149
		C734.07,68.461,734.567,68.08,734.567,67.311z M734.567,15.622c0.61,0,0.921-0.305,0.921-0.919
		C734.873,14.243,734.567,14.553,734.567,15.622z"/>
</g>
</svg>
