<?xml version="1.0" encoding="utf-8"?>
<!-- Generator: Adobe Illustrator 22.0.1, SVG Export Plug-In . SVG Version: 6.00 Build 0)  -->
<svg version="1.1" id="Layer_1" xmlns="http://www.w3.org/2000/svg" xmlns:xlink="http://www.w3.org/1999/xlink" x="0px" y="0px"
	 viewBox="0 0 1080.8 359.9" style="enable-background:new 0 0 1080.8 359.9;" xml:space="preserve">
<style type="text/css">
	.st0{fill:#FFFFFF;}
</style>
<g>
	<path class="st0" d="M406.1,20.1c-2.9,3.9-6.6,8.7-11.2,14.2c-4.6,5.6-9.5,11.3-14.6,17.1c-5.1,5.8-10.2,11.4-15.1,16.7
		c-5,5.4-9.2,9.7-12.7,13c7.2,11.3,14.5,22.3,21.8,33.1c7.3,10.8,14.6,21.7,21.8,32.7c-5.1,2.1-9.6,4.5-13.6,7.2
		c-3.9,2.7-8.3,5.2-13.1,7.5c-1.2-1.7-2.5-3.1-3.8-4.4c-1.4-1.3-2.6-2.7-3.6-4.4c-0.8-1.2-1.4-2.4-2-3.6c-0.6-1.2-1.3-2.6-2-4.1
		c-2.3-4.4-5-8.4-8.2-12.1c-3.2-3.7-6.4-7.5-9.4-11.4c-0.3-0.3-0.5-0.7-0.5-1.1c0,0.5,0.9,0.5,0.9,0.5h0.2v0.4v1.1l1-0.5
		c0.1-0.1,0.5-0.2,0.9-0.2c0.8-0.1,1.1-0.9,1.1-0.9v-0.7l0-0.2c-1.2-0.9-2.5-1.3-3.8-1.1l-0.2,0.2v0.3c-0.2,0.2-0.2,0.4-0.2,0.7
		l0.2,0.2c-0.2,0-0.2-0.1-0.2-0.2c0-0.1,0-0.3-0.1-0.3c-0.1-0.1-0.1-0.3-0.1-0.6c-3-3-5.7-6.3-8-9.8c-2.3-3.5-4.6-7.1-6.9-10.7
		c-0.8,2.4-1,5.2-0.7,8.5c0.3,3.3,0.4,7.9,0.4,13.7c0,3.9,0,7.2-0.1,10c-0.1,2.8-0.2,5.5-0.3,8.2c-0.2,2.7-0.2,5.5-0.2,8.5
		c0,3,0.1,6.6,0.2,10.8l-31,0.9c0.4-4.5,0.7-9.3,0.9-14.3c0.1-5,0.2-10,0.1-15c-0.1-4.9-0.2-9.7-0.4-14.4c-0.2-4.6-0.4-8.9-0.6-12.8
		c0-0.6,0-1.2,0.1-1.7c0.1-0.5,0.1-0.9,0.1-1.2c0-0.6,0.1-1,0.2-1.1c-2.2,3.6-3.9,7.1-4.9,10.6c-1.1,3.4-3.1,6.7-6.1,9.7
		c0,0.3,0,0.5-0.1,0.6c-0.1,0.1-0.1,0.2-0.1,0.3l-0.2,0.2l0.2-0.2c0-0.3-0.1-0.5-0.2-0.7v-0.3l-0.2-0.2c-1.4-0.2-2.8,0.2-4,1.2
		l-0.7,0.2v0.6c0,0,0.9,0.8,1.7,0.9c0.5,0,0.8,0.1,0.9,0.2l0.4,0.5v-1.1v-0.4h0.7c0,0,0.9,0,0.9-0.5c0,0.5-0.2,0.8-0.5,1.1
		c-3,3.9-6.2,7.7-9.5,11.4c-3.3,3.7-6,7.7-8.1,12.1c-0.8,1.5-1.4,2.9-2,4.1c-0.6,1.2-1.3,2.4-2,3.6c-1.1,1.7-2.3,3.1-3.6,4.4
		c-1.4,1.3-2.6,2.8-3.8,4.4c-4.8-2.3-9.2-4.7-13.1-7.5c-3.9-2.7-8.4-5.1-13.6-7.2c7.2-11,14.5-21.9,21.8-32.7
		c7.3-10.8,14.6-21.8,21.8-33.1c-3.5-3.3-7.7-7.6-12.7-13c-5-5.3-10-10.9-15.1-16.7c-5.1-5.8-10-11.5-14.6-17.1
		c-4.6-5.6-8.3-10.3-11.2-14.2c4.4-2.9,8.1-5.9,11.2-9.2c3.1-3.2,6.8-6.3,11.2-9.2c2.3,2.7,5.4,6.4,9.5,11.1
		c4.1,4.7,8.3,9.6,12.8,14.7c4.4,5.1,8.7,10.1,12.9,14.8c4.1,4.7,7.4,8.6,9.8,11.4c0.5,0.6,1.1,1.5,1.9,2.6c0.8,1.1,1.7,2.3,2.7,3.5
		c1,1.2,1.9,2.3,2.8,3.3c0.9,1,1.7,1.6,2.5,1.9c0.3-4.4,0.4-8,0.3-11c-0.1-2.9-0.2-5.7-0.5-8.4c-0.2-2.6-0.4-5.3-0.6-7.9
		c-0.2-2.6-0.2-5.9,0-9.8v-2.4c0-1.3,0.1-2.7,0.1-4.2c0.1-1.5,0.1-2.9,0.9-4.3v-2.7c-1.2-0.5-1.4-1.3-1.3-2.6
		c0.1-1.3,0.2-2.6,0.5-4.1c0.2-1.4,0.5-2.8,0.8-4.2c0.3-1.4,0.5-2.4,0.7-3.2c1.5,0,3.6,0,6.3-0.1c2.7-0.1,5.5-0.1,8.5-0.2
		c2.9-0.1,5.8-0.1,8.5-0.1s4.9,0.2,6.6,0.5c0.3,1.4,0.5,2.8,0.6,4.2c0.1,1.4-0.3,2.6-1,3.5c-0.2,0.8,0.1,1.1,0.9,1
		c0.8-0.1,1.1,0.2,1.1,0.8c0.1,3.9,0.1,8.4,0,13.3c-0.2,5-0.3,10.2-0.5,15.6c-0.2,5.4-0.3,10.8-0.3,16c-0.1,5.3,0,10.1,0.3,14.5
		c0.6-0.3,1.6-1.2,2.9-2.6c1.4-1.4,2.8-3,4.3-4.7c1.5-1.7,2.9-3.4,4.3-5c1.4-1.6,2.3-2.7,2.7-3.3c2.4-2.9,5.7-6.7,9.8-11.5
		c4.1-4.8,8.4-9.8,12.9-14.9c4.4-5.1,8.7-10,12.8-14.6c4.1-4.6,7.2-8.2,9.5-11c4.4,2.9,8.1,5.9,11.2,9.2
		C398,14.2,401.7,17.3,406.1,20.1z M254.9,37.1c0.3-1.2-0.1-1.7-1.2-1.6c-1.1,0.2-2,0.1-2.6-0.2c0,0.3,0.1,0.5,0.2,0.7
		c0.1,0.2,0.3,0.4,0.5,0.7c0.5-0.3,0.9-0.3,1.4,0C253.5,36.9,254.1,37.1,254.9,37.1z M256.7,43.4c-0.2-0.8-0.1-1.4,0.1-2
		c0.2-0.6,0.2-1.3-0.1-2c-0.6-1.1-1.6-1.4-2.9-1.1c0,0.3-0.1,0.5-0.2,0.5c-0.2,0-0.2,0.2-0.2,0.5c0.3,0.5,0.6,0.8,1,0.9
		c0.4,0.2,0.8,0.4,1.2,0.7c-0.3,1.4-0.4,2.1-0.2,2.3c0.5,0,0.7,0.1,0.8,0.3C256.2,43.5,256.4,43.5,256.7,43.4z M261.6,122.3
		c0-0.5-0.2-0.8-0.7-1c-0.5-0.2-0.9-0.4-1.4-0.6c-0.5-0.1-0.8-0.3-1.1-0.6c-0.3-0.2-0.4-0.6-0.2-1.2h-0.9c0.1,0.5,0.3,0.9,0.3,1.5
		c0.1,0.5,0,1.2-0.1,1.9c0.9,0,1.6,0,2,0.1C260.1,122.5,260.7,122.5,261.6,122.3z M277.5,75.5c-0.2-0.3-0.5-0.5-1.1-0.6
		c-0.6-0.1-1-0.1-1.1-0.1c0.1,0.3,0.5,0.5,1,0.7C276.8,75.6,277.2,75.6,277.5,75.5z M280.2,71.2c-0.3-0.8-0.8-0.9-1.5-0.5
		s-1.2,0.8-1.5,1.1c0.3,0.8,0.8,0.9,1.5,0.6C279.4,72.1,279.9,71.6,280.2,71.2z M293.5,94c0-0.3-0.1-0.5-0.2-0.6
		c-0.2-0.1-0.2-0.3,0-0.6c-1.1,0-1.6,0.2-1.6,0.5c0,0.5,0.2,0.8,0.7,0.9C292.8,94.4,293.2,94.3,293.5,94z M306.6,86.3
		c-0.2-0.6-0.4-1.2-0.7-1.7c-0.3-0.5-0.2-1,0.2-1.5c-1.2,0-2-0.3-2.3-1c-0.3-0.7-0.8-1.4-1.4-2.1c-0.5,0.3-0.9,0.6-1.4,0.9
		c-0.5,0.3-0.6,0.9-0.5,1.8c-0.6,0-1-0.2-1.1-0.7c-0.3,0.8,0.1,1.2,1.4,1.5c1.2,0.2,1.8,0.7,1.8,1.5h2.3c0.3,0,0.4,0.2,0.2,0.7
		c-0.2,0.5-0.2,0.8,0,1.1C306.2,86.7,306.6,86.6,306.6,86.3z M306.3,78.2c0-1.2-0.3-2-1-2.4c-0.7-0.4-1.5-0.6-2.4-0.6v-0.9l-0.5,0.2
		c-0.2,0-0.2,0.1-0.2,0.2l-0.2-0.2c-0.2,0-0.3-0.1-0.5-0.2c0.1,0.5,0.5,0.9,1,1.5c0.5,0.5,0.3,1.1-0.6,1.7c0,0.8,0.4,1,1.2,0.8
		c0.8-0.2,1.2,0,1,0.8c0.3-0.1,0.6-0.4,0.8-0.7C305.3,78.1,305.7,78,306.3,78.2z M307.1,30.1c-0.3-0.3-0.8-0.7-1.5-1.1
		c-0.7-0.5-1.2-0.3-1.5,0.5c0.3,0.5,0.8,0.9,1.5,1.2C306.3,31,306.8,30.8,307.1,30.1z M309.1,33c-0.2,0-0.5,0-1.1,0.1
		c-0.6,0.1-1,0.3-1.1,0.6c0.3,0.2,0.7,0.2,1.2,0C308.6,33.5,309,33.3,309.1,33z M315,84.9h-0.9c0.1,0.6,0.1,1-0.2,1.2
		c-0.3,0.2-0.7,0.4-1.1,0.6c-0.5,0.2-0.9,0.3-1.4,0.6c-0.5,0.2-0.7,0.6-0.7,1c0.9,0.2,1.6,0.2,2,0.1c0.5-0.1,1.1-0.1,2-0.1
		c-0.2-0.8-0.2-1.4-0.1-1.9C314.7,85.9,314.8,85.4,315,84.9z M317.9,33c-0.3,0.5-0.7,0.7-1.1,0.7c0.1-0.9,0-1.5-0.5-1.8
		c-0.5-0.3-0.9-0.6-1.4-0.9c-0.6,0.8-1.1,1.5-1.4,2.1c-0.3,0.7-1.1,1-2.3,1c0.5,0.5,0.5,0.9,0.2,1.5c-0.3,0.5-0.5,1.1-0.7,1.7
		c0,0.3,0.5,0.5,1.4,0.5c0.1-0.3,0.1-0.7,0-1.1c-0.2-0.5-0.1-0.7,0.2-0.7h2.3c0-0.8,0.6-1.2,1.8-1.5C317.8,34.2,318.2,33.7,317.9,33
		z M316.3,25.8c-0.2,0.2-0.3,0.2-0.5,0.2c-0.2,0-0.2,0.1-0.2,0.2l-0.2-0.2c-0.2,0-0.3-0.1-0.5-0.2v0.9c-0.9,0-1.7,0.2-2.4,0.6
		c-0.7,0.4-1,1.2-1,2.4c0.6-0.1,1-0.1,1.2,0.2c0.2,0.3,0.5,0.5,0.8,0.7c-0.2-0.8,0.2-1,1-0.8c0.8,0.2,1.2,0,1.2-0.8
		c-0.9-0.6-1.1-1.2-0.6-1.7C315.8,26.7,316.1,26.2,316.3,25.8z M340.3,95.6c0-0.3-0.5-0.5-1.6-0.5c0.1,0.3,0.1,0.5,0,0.6
		c-0.2,0.1-0.2,0.3-0.2,0.6c0.3,0.3,0.7,0.4,1.1,0.2C340.1,96.4,340.3,96,340.3,95.6z M350,64c0-0.3-0.1-0.5-0.2-0.5
		c-0.2,0-0.2-0.1-0.2-0.5c-1.4-0.3-2.3,0.1-2.9,1.1c-0.3,0.8-0.3,1.4-0.1,2c0.2,0.6,0.3,1.3,0.1,2c0.3,0.2,0.5,0.1,0.6-0.1
		c0.1-0.2,0.3-0.3,0.8-0.3c0.1-0.1,0.1-0.9-0.2-2.3c0.5-0.3,0.9-0.5,1.2-0.7C349.4,64.7,349.7,64.4,350,64z M352.3,60.1
		c-0.6,0.3-1.5,0.4-2.6,0.2c-1.1-0.1-1.5,0.4-1.2,1.6c0.8,0,1.4-0.1,1.8-0.5c0.5-0.3,0.9-0.3,1.4,0c0.1-0.3,0.3-0.5,0.5-0.7
		C352.2,60.6,352.3,60.4,352.3,60.1z"/>
	<path class="st0" d="M417.1,61.5c2.1-2.1,3.3-5,3.5-8.8c0.2-3.8,0.1-7.3-0.3-10.6c0-6-0.3-12.1-0.9-18.3
		c-0.6-6.2,0.2-17.8,0.2-17.8h33.1c0.8,7.5,1.2,14.6,1.2,21.4c0,6.8,0.2,14.2,0.5,22.1c0,1.3,0.2,2.6,0.5,4.1
		c0.3,1.5,0.5,2.8,0.5,4.1c-0.5,3.4-1.2,6.8-2.1,10.1c-0.9,3.3-0.8,6.6,0.5,10.1c1.7-5,3.9-10.1,6.6-15.4c2.7-5.3,4.6-10.5,5.9-15.4
		c1.7-3,3.3-6.3,4.7-10.1c1.4-3.7,3.2-7.1,5.4-10.1c0.5-1.2,1.2-2.2,2.2-2.9c1-0.7,1.7-1.7,2-2.9c0.8-0.9,1.2-1.9,1.4-2.8
		c0.2-0.9,0.2-1.9,0.2-3c0,0.5,0.2,1,0.6,1.5c0.4,0.5,0.7,1.2,1.1,2c0-0.5,0.2-0.8,0.5-0.9c0.3-0.2,0.5-0.4,0.5-0.7h-1.6
		c0-0.5,0.1-0.8,0.4-0.9c0.2-0.2,0.4-0.5,0.4-0.9c0.5,0,0.8,0.3,0.9,0.8c0.2,0.5,0.5,0.6,0.9,0.1c0.3-0.5,0.2-0.7-0.5-0.8
		c-0.6-0.1-0.5-0.1,0.5-0.1c-0.9,0-1.2-0.2-0.8-0.6c0.4-0.4,0.4-1-0.1-1.8c-0.6,0.5-0.9,1.2-0.9,2.3c-0.5,0-0.7-0.2-0.7-0.7v-0.4
		H482c0.4-1.2,0.8-2.4,1-3.6c0.2-1.2,0.7-2.6,1.5-4.3c0.7,0.3,1.5,0.3,2.2,0.1c0.7-0.2,1.3,0.3,1.8,1.5c0.3-0.7,0.9-1,1.7-0.7
		c0.8,0.3,1.6,0.2,2.4-0.2c0.7,0,1.5-0.1,2.4-0.3c0.8-0.2,1.6-0.3,2.4-0.3c0.4,0,1,0.1,1.7,0.3c0.7,0.2,1.2,0.3,1.5,0.3
		c3.6,0.8,7.2,0.9,10.8,0.4c3.6-0.4,7-0.3,10.1,0.4c-1.2,10.5-1.8,20.4-1.7,29.7c0.1,9.3,0.1,18.7,0.1,28.1c0.1,0.2,0.1,0.3,0,0.4
		c0,0.2-0.3,0.2-0.9,0.2c0.1,0.2,0.3,0.2,0.4,0.2c0.3,0.3,0.4,0.5,0.4,0.7c0,2.8,0.1,5.7,0.4,8.4c0.3,2.8,0.4,5.6,0.4,8.4
		c0,3.9,0.2,7.9,0.6,12c0.4,4.1,0.7,8.4,1,12.7c0.4,5.7,0.1,10.6-0.9,14.8c-1,4.2-1.9,8.9-2.5,14.2c1.6,3.6,2.1,7.5,1.3,11.8
		c-0.8,4.3-1.7,8.1-2.9,11.4c-1.9,0-4.3,0-7,0.1c-2.7,0.1-5.5,0.1-8.4,0.1c-2.9,0-8.1,0-8.1,0s-5.5,0.6-7.9,0.4
		c-0.5-12.7-0.6-25-0.3-37c0.2-12-0.5-23.8-2.1-35.6c-2.9,6-5.5,12.2-8,18.6c-2.5,6.4-5.8,12.2-9.8,17.5c0,0.9,0.1,1.5,0.5,1.8
		c0.3,0.3,0.5,0.8,0.5,1.6c-3.3,5.3-6.3,10.8-8.8,16.6c-2.6,5.8-5.3,11.5-8.1,16.9h-29.2c0-3,0.3-6,1-8.8c0.7-2.8,0.6-5.4-0.1-7.8
		c0-1.2-0.4-2.3-1.1-3.3c-0.8-1-0.9-2.3-0.5-4c0.3,0.8,0.6,1.1,1,1.1c0.4,0,0.6-0.4,0.6-1.1c0-0.1-0.2-0.2-0.5-0.2
		c-0.2,0.2-0.3,0.2-0.5,0.2c-0.3,0.3-0.6,0.2-0.9-0.2c-0.3-0.5-0.2-0.7,0.5-0.7v-0.9l1,0.9v-0.9c0,0,0.4,0.9,0.5,0.9
		c0.1,0.2,0.3,0.2,0.5-0.3h0.9l1.1,1.2v-1.8c0,0-0.6-0.6-1.2-1c-0.7-0.4-1.2-0.6-1.5-0.6l-0.3,0.9v-0.9v-0.8h-1.3
		c-0.5-5.2-0.7-10.6-0.8-16.1c-0.1-5.5-0.1-10.9-0.1-16.2c0-3.6-0.2-7-0.6-10.3c-0.4-3.2-0.2-6.3,0.6-9.2c0-0.5-0.1-0.8-0.2-0.9
		c-0.2-0.1-0.2-0.8-0.2-1.8c0-0.3-0.1-0.5-0.2-0.5c-0.6-2.9-0.8-5.8-0.7-8.9c0.1-3.1,0.6-5.2,1.4-6.4c0-0.8-0.3-1.2-0.8-1.5
		C417.4,62,417.1,61.8,417.1,61.5z M468,70.7c0.5-0.5,0.7-0.8,0.8-0.9c0.1-0.1,0.1-0.5,0.1-0.9h-1.8c0,0.5,0.1,0.8,0.5,0.9
		C467.8,70,468,70.3,468,70.7z M474.9,58.5v-1.6h-1.8C473.1,58,473.7,58.5,474.9,58.5z M475.2,62.2c0-0.8-0.1-1.3-0.3-1.6
		c-0.2-0.3-0.3-0.8-0.3-1.6l-1.8,1.6c0.9-0.3,1.4-0.1,1.4,0.6C474.1,61.8,474.5,62.2,475.2,62.2z M490.6,67.1c0.5-0.5,0.3-1-0.3-1.6
		c-0.7-0.6-1.4-0.9-2.1-0.9c0,0.8,0.3,1.4,0.9,1.8C489.6,66.9,490.1,67.1,490.6,67.1z M489.7,68.9h1.8c0-0.5-0.2-0.8-0.5-1.1
		l-0.5-0.5c-0.3,0-0.5,0.3-0.7,0.9C489.9,68.5,489.8,68.8,489.7,68.9z M503.5,63.1c-0.3-0.5-0.7-0.6-1.1-0.3
		c-0.5,0.2-0.9,0.3-1.4,0.3c0,0.3,0.4,0.5,1.2,0.5C503,63.5,503.5,63.4,503.5,63.1z"/>
	<path class="st0" d="M622.4,157.9h-1.2l-1.3-0.2v0.7v1.5h1.3c-0.8,1.7-1.9,2.6-3.4,3.2c-7.2-0.3-15.3-0.5-24.1-0.6
		c-8.8-0.1-26.8-0.1-26.8-0.1v-0.2c0,0-0.2-0.5-0.6-0.3h-0.9c0,0.3-0.2,0.6-0.7,1h-27.8v-30.2c2.9,0.3,5.3,0.3,7.2,0.1
		c1.9-0.2,3.8,0.3,5.8,1.5l30.3,0.7c1.4,0.3,3.2,0.5,5.4,0.5c2.2,0,4.5,0,6.8-0.1c2.4-0.1,4.6-0.2,6.6-0.5c2.1-0.2,3.6-0.4,4.7-0.6
		c-0.5-4.9-0.8-9.9-1-15.1c-0.2-5.2-0.7-10.2-1.5-15.1c-3.2,0-6.6,0-10.2,0.1c-3.6,0.1-7.2,0.3-10.8,0.6h-14.8l-0.7-31.7l8-1.6
		c0.8,0.8,1.8,1.2,3.1,1.4c1.3,0.2,2.8,0.2,4.4,0.2l11.2-2.3h7.9c0-5.6,0.3-11.2,0.8-16.5c0.5-5.4,0.8-10.2,0.8-14.5h-20.8l-28,0.7
		c-3.6,0.2-6.5,0.2-8.7,0.2c-2.2,0-4.4-0.6-6.5-1.8c1.5-4.2,1.9-9,1.3-14.4c-0.6-5.4-1-10.5-1.3-15.1c4.8-0.7,9.6-0.8,14.4-0.1
		c4.8,0.7,9.7,1,14.4,1c0.4,0,2.7,0.1,6.7,0.2c4,0.2,8.8,0.3,14.3,0.6c5.5,0.2,11.2,0.5,16.9,0.8c5.7,0.3,10.4,0.5,14,0.7l15.2,20.8
		V71c0,1.2-0.5,2.4-1.5,3.7c-1,1.3-2.1,2.6-3.4,3.9c-1.3,1.3-2.4,2.7-3.4,4.1c-1,1.4-1.5,2.8-1.5,4.1c0,1,0.5,2.1,1.5,3.1
		c1,1,2.1,2.1,3.4,3.2c1.3,1.1,2.4,2.2,3.4,3.2c1,1,1.5,2.1,1.5,3.1v30.5c0,2.4,0.1,4.8,0.2,7.3c0.1,2.5,0.1,4.5-0.2,6.2
		c-0.4,1.6-1.6,3.2-3.4,4.8c-1.8,1.6-3.1,3.2-4,4.8c-0.7,0.7-1.3,1.5-1.8,2.4C623.3,156.4,622.8,157.2,622.4,157.9z M553.9,160.9v1
		h0.2h0.9h0.9v-2.6C554.2,159.3,553.4,159.9,553.9,160.9z M607.4,57.3c-0.6,0.6-0.9,1.1-0.9,1.6h1.6
		C608.1,57.9,607.9,57.3,607.4,57.3z M610.9,154.8v-0.9h-0.6c-1.1,0-1.9,0.3-2.4,0.9v1.6c0.3,0,0.8-0.1,1.5-0.2
		C610.1,156,610.6,155.6,610.9,154.8z M610.6,61.9c-0.3-0.5-0.7-0.6-1.1-0.3c-0.5,0.2-0.9,0.3-1.4,0.3c0,0.3,0.4,0.5,1.2,0.5
		C610.2,62.4,610.6,62.2,610.6,61.9z M610.6,32.1c0.8,0.3,1.7-0.1,2.9-1.1c1.2-1.1,1.6-1.8,1.1-2.3c-0.8,0.5-1.5,0.9-2.3,1.4
		C611.6,30.5,611,31.2,610.6,32.1z M612.2,40.9c0,1.1,0.5,1.6,1.6,1.6c0.5-0.5,0.5-0.8,0.1-1.1C613.5,41.1,612.9,40.9,612.2,40.9z
		 M613.8,91.5c0.5,0,1-0.1,1.6-0.5c0.6-0.3,0.9-0.7,0.9-1.1c-0.8,0-1.3-0.3-1.6-0.9c-0.3-0.6-0.8-1.1-1.6-1.4
		c-0.5,0.8-0.2,1.4,0.7,1.9C614.7,90.1,614.7,90.8,613.8,91.5z"/>
	<path class="st0" d="M751.7,160.9h-28.1c0.5-10,0.6-20.8,0.6-32.4c-0.1-11.5,0.3-22.9,1-34.2c-3.8-0.1-7.4-0.2-10.9-0.2
		c-3.5,0-7.1,0-10.8,0.1c-3.7,0.1-7.5,0.2-11.6,0.3c-4,0.2-8.5,0.3-13.3,0.5c1.2,10.3,1.5,21.3,1,32.7c-0.5,11.5-0.6,23.1-0.1,34.8
		c-5.3,0.3-10.4,0.5-15.4,0.6c-5,0.1-9.6,0-13.6-0.3c-1.2-8.5-1.8-17.4-1.7-26.5c0.1-9.1,0.1-18.5,0.1-28.1v-4.9
		c0-0.7-0.1-1.7-0.3-2.8c-0.2-1.1-0.3-2.1-0.3-2.8c0-3.1,0-6.8-0.1-11c-0.1-4.2,0.5-7.7,1.7-10.6c-0.5-1.6-0.7-3.7-0.8-6.3
		c-0.1-2.5-0.1-5.2-0.1-8.1c0.1,0,0.3-0.1,0.5-0.2c0.3-0.3,0.5-0.7,0.5-1.4h-0.9v-4c-0.3-3.3-0.4-6.4-0.2-9.2
		c0.1-2.8,0.2-5.7,0.2-8.5c0-3.1-0.1-6.3-0.2-9.4c-0.2-3.1-0.1-6.1,0.2-9c0-1,0.3-1.8,0.9-2.3c-0.5-1.2-0.6-2-0.5-2.4
		c0.1-0.4,0-0.9-0.5-1.7c1-0.5,1.6-1,1.8-1.7c0.1-0.7,0.1-1.4,0-2.1c-0.2-0.7-0.2-1.5-0.2-2.3c0-0.7,0.3-1.4,0.9-2
		c1.6-0.7,3.4-1.2,5.2-1.3c1.8-0.1,3.5-0.2,5.2-0.2c2.1,0,4-0.3,5.6-0.8c1.6-0.5,3.3-0.8,4.9-0.8c1.2,0,2.4,0.2,3.5,0.6
		c1.1,0.4,2.1,0.2,2.8-0.6c-0.3,4.8,0,9.4,0.8,13.8c0.8,4.4,0.9,8.7,0.1,12.7c0,0.8-0.3,1.5-0.8,2.4c-0.5,0.8-0.8,1.6-0.8,2.4
		c-0.5,2.1-0.6,4.4-0.3,7c0.2,2.6,0.3,5,0.3,7.4c0.3,2.6,0.5,5,0.6,7.4c0.1,2.4,0.1,5,0.1,7.9c7.6,0.8,15.6,1.1,23.7,1.1
		c8.2,0,16.1-0.4,23.7-1.1c0.5-2.5,0.7-5,0.8-7.3c0.1-2.3,0.1-4.7,0.1-7.1c0-2.8,0.1-5.6,0.2-8.3c0.1-2.7,0.1-5.3-0.2-7.9
		c0-0.7-0.3-1.4-0.9-1.9c-0.6-0.5-0.9-1.2-0.9-1.9c-0.3-2.1-0.2-4.3,0.2-6.6c0.5-2.3,0.7-4.7,0.7-7.1c0.5-2.5,0.6-4.9,0.5-7.2
		c-0.2-2.2,0-4.4,0.5-6.5c5.7,0,10.8-0.1,15.3-0.2c4.5-0.1,8.8-0.1,12.8,0.2c0.6,1.8,0.3,4.2-0.9,7.2c0,0.8,0.4,1.2,1.1,1.2
		c0.7,0.1,0.9,0.5,0.4,1.2c0,5.7,0.1,11.8,0.3,18.4c0.2,6.6,0.1,13.3-0.3,20c0,0.4,0.1,1.1,0.3,1.9c0.2,0.8,0.1,1-0.3,0.6
		c-0.3,0.5-0.2,0.6,0.2,0.5c0.5-0.1,0.7,0,0.7,0.5c-0.5,2-0.7,4.2-0.8,6.9c-0.1,2.6-0.1,5.4-0.1,8.2c0,0.8-0.1,1.6-0.3,2.5
		c-0.2,0.9-0.3,2-0.3,3.1c0,0.5,0.1,0.9,0.3,1.3c0.2,0.5,0.3,1.1,0.3,2c0.5,2.4,0.6,4.9,0.5,7.5c-0.2,2.6-0.3,5.1-0.5,7.5
		c-0.2,5.7-0.3,11.6-0.3,17.7c-0.1,6.1-0.2,12.1-0.3,18.2c-0.2,6.1-0.5,11.9-1,17.5C753.5,150.9,752.8,156.1,751.7,160.9z
		 M658.3,55.8c0.8,0.8,1.3,0.8,1.7,0.1c0.4-0.7,1.2-1,2.4-1c-0.5-0.8-1.2-0.9-2.4-0.5S658.3,55.4,658.3,55.8z M660.9,60.2v0.7h1.6
		c0-0.3-0.2-0.6-0.6-0.9C661.5,59.7,661.2,59.8,660.9,60.2z M664,66.9h0.9V66c-0.6,0-0.9,0.2-0.9,0.5
		C663.8,66.6,663.8,66.8,664,66.9z M663.9,56.5c1.1,0,1.6-0.5,1.6-1.6c-0.3,0-0.6,0.1-1,0.2C664.1,55.3,663.9,55.7,663.9,56.5z
		 M667.1,59.9c0,0.8,0.4,1,1.2,0.8c0.8-0.2,1.2-0.5,1.2-0.8c-0.3-0.5-0.6-0.5-0.8-0.1C668.6,60.2,668,60.2,667.1,59.9z M668.9,67.8
		v0.9c0.3,0,0.5-0.1,0.7-0.5c0.1-0.3,0.5-0.5,0.9-0.5c0-0.3-0.3-0.5-0.8-0.5C669.2,67.3,668.9,67.5,668.9,67.8z M670.5,115.5
		c0-0.5,0.2-0.8,0.7-0.9c0.5-0.1,0.5-0.4,0-0.7c0-0.5-0.2-0.4-0.7,0.1C670,114.5,670,115,670.5,115.5z"/>
	<path class="st0" d="M838.9,162v-3.1h-0.5c0,0.4-1.6,1-1.6,1h-0.9h-0.7l-0.9-1l-0.7,0.7c0,0.6,0.2,1.1,1.3,1.6v0.9
		c-2.2-0.5-4-0.7-5.8-0.8c-1.8-0.1-3.5-0.1-5.2-0.1c-0.8,0.5-1.4,0.9-2,1.2c-0.6,0.4-1.3,0.6-2,0.5h-9.7c-2.1,0-4,0-5.5-0.1
		c-1.6-0.1-4.7-0.8-4.7-0.8v-0.9c0,0-0.1-0.6,0.1-1c0.1-0.4,0.1-0.6-0.2-0.6c0-0.5-0.2-0.7-0.5-0.6h-0.5h-0.7
		c-0.6,0.1-0.9,0.5-0.9,1.1c-0.2,0.2-0.2,0.3,0,0.5c0.5,0.3,0.8,0.6,0.9,1c0.1,0.4,0.4,0.6,0.7,0.6v0.5c-0.1,0.3-0.3,0.5-0.7,0.5
		c-4.8-0.5-9.4-0.7-13.8-0.8c-4.4-0.1-8.4-0.1-12-0.1c0.3-4.1,0.6-8.2,0.8-12.5c0.2-4.3,0.2-8.7-0.1-13.2
		c-0.3-5.7-0.8-11.1-1.5-16.2c-0.7-5-0.4-9.6,0.8-13.7c-1.2-9.9-1.4-19.8-0.7-29.7c0.8-9.9,0.7-28.8,0.7-28.8h1.6c0,0,1.6-0.5,1.6-1
		h0.7c0-0.9-0.2-1.3-0.6-1.5c-0.4-0.1-0.9-0.2-1.7-0.2c-0.6,0-1.1,0.3-1.6,0.9c0-1.7,0-3.3-0.1-4.9c-0.1-1.6-0.3-3.2-0.8-4.9
		c0-1.2-0.2-2.5-0.5-4c-0.3-1.4-0.5-2.5-0.5-3.3c0-2.6,0.1-5,0.5-7.2c0.3-2.3,0.5-4.4,0.9-6.6V2.5c2.5,0.5,5.5,0.8,8.7,0.9
		c3.2,0.2,6.5,0.2,9.7,0.2c3.2,0,6.4,0,9.4-0.1c3-0.1,5.7-0.1,8.1-0.1c-0.5,3.6-0.5,6.9-0.2,9.9c0.3,3,0.6,6.1,0.9,9.3
		c0.6,5.6,0.8,10,0.6,13.3c-0.2,3.3-0.5,6.3-0.8,9c-0.3,2.7-0.5,5.6-0.5,8.7c0,3.1,0.5,7.2,1.6,12.3c3.8,0,7.9-0.1,12.4-0.2
		c4.5-0.1,9.1-0.3,13.7-0.5c4.6-0.1,9.2-0.2,13.7-0.1c4.5,0.1,12.7,0.8,12.7,0.8v64.6v32.3c-4.1-0.5-8-0.7-11.6-0.8
		C846.6,162.1,842.9,162,838.9,162z M777.8,23.5c0,0.3,0.1,0.5,0.2,0.6c0.1,0.1,0.7,0.1,1.6,0.1C779.6,23.7,779,23.5,777.8,23.5z
		 M780.3,111.2c0,0.8,0.1,1.5,0.3,2.3c0.2,0.8,0.9,1.1,2.1,1.1c0-1.2-0.2-2-0.7-2.3C781.7,112,781.1,111.6,780.3,111.2z M791.6,30.7
		c0,0.3,0.1,0.5,0.5,0.7c0.3,0.2,0.5,0.5,0.5,0.9c0.3,0,0.3-0.3,0.1-0.8C792.4,31,792.1,30.7,791.6,30.7z M791.6,33.9
		c0,1.7,0.5,2.5,1.6,2.5c0-0.9-0.1-1.5-0.2-1.9C792.8,34.1,792.4,33.9,791.6,33.9z M791.6,58.8c0.8,0.9,1.2,1.7,1.2,2.4
		c0.1,0.7,0.7,1,1.9,1c0-0.8-0.2-1.6-0.7-2.5C793.6,58.8,792.8,58.5,791.6,58.8z M793.2,33.9c0.5,0.3,0.8,0.6,0.9,1
		c0.1,0.4,0.4,0.6,0.7,0.6c0-0.5-0.1-0.8-0.2-1.1C794.4,34.1,793.9,33.9,793.2,33.9z M794.8,67.8c0,0.5,0.3,0.7,0.9,0.7
		c0.5-0.3,0.5-0.6,0.2-0.9C795.6,67.3,795.2,67.3,794.8,67.8z M803.8,74.1c0,1.1-0.3,1.6-0.9,1.6c0.6,0.6,1.1,0.9,1.6,0.9
		c-0.3-0.5-0.2-0.7,0.3-0.8c0.5-0.1,0.9-0.1,1.2-0.1c-0.3-0.3-0.7-0.6-1.1-1C804.5,74.3,804.1,74.1,803.8,74.1z M829,97.9
		c-3.2-0.3-6.9-0.2-11.1,0.5c-4.2,0.6-8.2,1.3-12,2.1v33.7c3.8,1.2,7.9,1.8,12.1,1.6c4.2-0.2,8.2-0.4,11.9-0.7c0-1.4,0-3.9,0-7.5
		c0-3.6,0-7.4-0.1-11.4c-0.1-4-0.2-7.7-0.3-11.2C829.3,101.5,829.1,99.2,829,97.9z M810.1,92.7c0,0.6,0.8,0.9,2.5,0.9
		c0-0.8-0.3-1.2-0.9-1.2C811.1,92.2,810.6,92.4,810.1,92.7z M814.2,78.2c0.8,0,1.2,0.1,1.5,0.3c0.2,0.2,0.6,0.1,1-0.3
		c0.3-0.8,0-1.1-1-0.9C814.7,77.4,814.2,77.7,814.2,78.2z M814,80.7c0,0.5,0.3,1,0.9,1.6v-0.9c0-0.3,0.3-0.4,0.8-0.3
		c0.5,0.1,0.8,0,0.8-0.3c-0.5-0.5-0.9-0.6-1.2-0.3C814.9,80.6,814.5,80.7,814,80.7z M818.3,80.7c-0.8-0.5-1.2-0.3-1.2,0.5
		c-0.1,0.8-0.5,1.1-1.2,1.1c0.5,0.3,1.1,0.7,1.8,1.2c0.8,0.5,1.5,0.3,2.3-0.6C819.9,81.4,819.3,80.7,818.3,80.7z M817.9,85.4v0.9
		c0.8,0,1.2-0.1,1.5-0.5c0.2-0.3,0.6-0.5,1-0.5c0-0.3-0.4-0.5-1.2-0.5C818.3,85,817.9,85.1,817.9,85.4z M821.4,79.8
		c0.6,0,0.9-0.2,0.9-0.7C821.3,79.1,821,79.3,821.4,79.8z M834.3,70.1c0,0.8,0.2,1.1,0.7,1.1s0.8-0.1,0.9-0.2c0.5-0.5,0.3-0.8-0.5-1
		C834.7,69.7,834.3,69.8,834.3,70.1z M836.8,88.6c0.3,0.3,0.6,0.4,0.8,0.3c0.2-0.1,0.5-0.1,0.8-0.1c0.1-0.1,0.5-0.2,0.9-0.2
		c0-0.3-0.4-0.5-1.2-0.5C837.2,88.1,836.8,88.3,836.8,88.6z"/>
	<path class="st0" d="M103.1,290.9c0.4,5.3,0.6,10.7,0.3,16.4c-0.2,5.7-0.3,11.5-0.3,17.5c0.4,2.6,0.7,5.1,0.9,7.6
		c0.1,2.5-0.2,4.6-0.9,6.2c-0.7,1.7-2.1,3.4-3.9,5.2c-1.9,1.8-3.2,3.5-4.1,5.2c-1.6,1.7-2.9,3.4-3.9,5.2c-1,1.8-2.3,3.3-3.9,4.5
		c-2.8-0.8-5.9-1-9.3-0.7c-3.4,0.3-6.7,0.6-10,0.9H53.9v-0.6c0.4-1.1,0.2-1.6,1-1.6v-0.8H52l-0.9,0.8c0,0.8,0.2,1.2,0.6,1.2
		c0.4,0.1,1,0.9,1,0.9h0.9h-42H10h0.9h1.6h0.4v-1.5c0,0-0.4-0.6-0.9-1c-0.5-0.4-0.8-0.6-1.1-0.6v-1.6v-0.7v-0.7h1.6l0.7-0.9
		l-0.7-1.1h-1.6c0,0-0.8,0.2-0.9,0.3c-0.2,0.1-0.9,0.7-0.9,0.7H8.9v0.6c-0.6,0-0.7,0.1-0.4,0.4l0.4,0.4c0,1-0.3,1.5-0.8,1.5
		l-0.6,0.6l1.5,0.8v0.6H7.2c0,0.8,0.3,1.1,0.9,1.1c-1.2,0-2.4,0.1-3.6,0.2c-1.2,0.1-2.4,0.1-3.6-0.2V328c2.4,0.5,4.7,0.5,7,0.2
		c2.3-0.3,4.2-0.1,5.9,0.7c0.8-7.1,1.2-14.8,1.4-23.3c0.1-8.4,0.2-17.1,0.2-26c0-8.9,0-17.7,0.1-26.6c0.1-8.8,0.3-17.1,0.8-25
		c-3.3-0.3-6.3-0.3-9,0.1c-2.7,0.4-5.1-0.2-7.2-1.7c1.2-4.4,1.7-9.3,1.4-14.7c-0.3-5.4-0.5-11-0.5-16.7c14.2,0.8,27.7,1.3,40.6,1.7
		c12.9,0.4,26.2,0.9,40.1,1.5c1.2,0,2.4,0,3.5-0.1c1.1-0.1,2.1,0.5,2.8,1.7v1.8c0-0.6-0.2-0.9-0.7-0.9l0.7,0.9l15.2,20.1
		c0,4.4,0,8.3-0.1,11.9c-0.1,3.5-0.1,6.9-0.1,10.2c0,3.2,0,6.4,0,9.6s0.1,6.6,0.2,10.2c-0.6,1.2-1.5,2.4-2.8,3.6
		c-1.3,1.2-2.5,2.4-3.7,3.6c-1.2,1.2-2.2,2.5-3,3.8c-0.8,1.4-1.1,2.8-0.8,4.3c0.1,1.2,0.6,2.3,1.5,3.4c0.8,1.1,1.8,2.1,2.8,3.1
		c1,1,2.1,1.9,3.2,2.8S102.4,290,103.1,290.9z M22.9,290.2c0.8,0,1.2-0.1,1.5-0.5c0.2-0.3,0.6-0.7,1-1.1c-1.1,0-1.6-0.2-1.6-0.7
		h-0.9c0.5,0,0.6,0.3,0.3,0.9C23,289.4,22.9,289.9,22.9,290.2z M29.4,272.2c0.3,0.3,0.8,0.4,1.4,0.2c0.6-0.1,0.9-0.8,0.9-2
		c-0.3,0-0.8,0.2-1.4,0.6C29.7,271.4,29.4,271.8,29.4,272.2z M34.2,281.3c-0.5,0.8-0.7,1.6-0.7,2.5c1.1,0,1.8-0.3,2.3-0.9h-1.6
		c0-0.3,0.1-0.6,0.3-1C34.7,281.5,34.6,281.3,34.2,281.3z M33.5,285.8c0,0.8,0.5,1.2,1.5,1.5c1,0.2,1.2-0.3,0.8-1.5
		c-0.3,0-0.6,0.1-0.8,0.3C34.7,286.4,34.3,286.3,33.5,285.8z M37.3,284.2c0.5-0.5,0.9-0.9,1.2-1.2c0.4-0.4,0.6-0.8,0.6-1.2
		c-0.9-0.8-1.6-0.9-2-0.5c-0.5,0.5-0.9,0.9-1.4,1.4c0.5,0,0.6,0.3,0.6,0.8C36.3,284,36.6,284.2,37.3,284.2z M36.9,277.7v1.8
		c0.5,0.3,1,0.5,1.6,0.5c0.6,0,0.9-0.1,0.9-0.5c-0.3-0.5-0.6-0.9-0.8-1.2C38.4,277.9,37.8,277.7,36.9,277.7z M40.7,284.2
		c0,0.8,0.1,1.2,0.5,1.4c0.3,0.2,0.7,0.2,1.1,0.2C42.3,284.7,41.8,284.2,40.7,284.2z M69.7,228.6c-3.9-0.5-7.8-0.6-11.5-0.3
		c-3.8,0.2-7.5,0.3-11.1,0.3c0.5,5.7,0.6,11.5,0.5,17.3c-0.2,5.8,0,11.9,0.5,18.2c3.2-0.8,6.6-1.4,10.2-1.9
		c3.6-0.5,7.2-0.9,10.8-1.2c0-5.7,0.1-11,0.3-15.7C69.6,240.5,69.7,235,69.7,228.6z M48,329.4c4.1-0.5,8.3-0.6,12.8-0.6
		c4.4,0.1,8.5-0.3,12.3-1c-0.5-2.1-0.6-4.3-0.6-6.7c0.1-2.3,0-4.7-0.3-7.1c-0.6-3.6-1-7.4-1.1-11.3c-0.2-3.9-0.8-7.2-2-9.7
		c-0.5,0.5-0.8,0.9-1,1.2c-0.2,0.4,1,0.6,1,0.6h-4.1l0.7-0.3l0.9-0.7l-0.9-1h-0.7h-1.6c-0.6,0.1-1.4,1-1.4,1v1h1v0.6v0.7
		c-2.9,0-5.3,0-7.7,0.1c-2.4,0.1-4.8,0.3-7.2,0.8c-0.3,2.9-0.5,5.5-0.5,8s0,5,0.1,7.6c0.1,2.6,0.1,5.2,0.2,7.9
		C47.9,323.3,48,326.3,48,329.4z"/>
	<path class="st0" d="M223.7,356.9h-28.1c0.5-10,0.6-20.8,0.6-32.4c-0.1-11.5,0.3-22.9,1-34.2c-3.8-0.1-7.4-0.2-10.9-0.2
		c-3.5,0-7.1,0-10.8,0.1c-3.7,0.1-7.5,0.2-11.6,0.3c-4,0.2-8.5,0.3-13.3,0.5c1.2,10.3,1.5,21.3,1,32.7c-0.5,11.5-0.6,23.1-0.1,34.8
		c-5.3,0.3-10.4,0.5-15.4,0.6c-5,0.1-9.6,0-13.6-0.3c-1.2-8.5-1.8-17.4-1.7-26.5c0.1-9.1,0.1-18.5,0.1-28.1v-4.9
		c0-0.7-0.1-1.7-0.3-2.8c-0.2-1.1-0.3-2.1-0.3-2.8c0-3.1,0-6.8-0.1-11c-0.1-4.2,0.5-7.7,1.7-10.6c-0.4-1.6-0.7-3.7-0.8-6.3
		c-0.1-2.5-0.1-5.2-0.1-8.1c0.1,0,0.3-0.1,0.5-0.2c0.3-0.3,0.4-0.7,0.4-1.4h-0.9v-4c-0.3-3.3-0.4-6.4-0.2-9.2
		c0.1-2.8,0.2-5.7,0.2-8.5c0-3.1-0.1-6.3-0.2-9.4c-0.2-3.1-0.1-6.1,0.2-9c0-1,0.3-1.8,0.9-2.2c-0.4-1.2-0.6-2-0.4-2.4
		c0.1-0.4,0-0.9-0.5-1.7c1-0.5,1.6-1,1.8-1.7c0.1-0.7,0.1-1.4,0-2.1c-0.2-0.7-0.2-1.5-0.2-2.2c0-0.7,0.3-1.4,0.9-2
		c1.6-0.7,3.4-1.2,5.2-1.4c1.8-0.1,3.5-0.2,5.2-0.2c2.1,0,4-0.3,5.6-0.8c1.6-0.5,3.3-0.8,4.9-0.8c1.2,0,2.4,0.2,3.5,0.6
		c1.1,0.4,2.1,0.2,2.8-0.6c-0.3,4.8,0,9.4,0.8,13.8c0.8,4.4,0.9,8.7,0.1,12.7c0,0.8-0.3,1.5-0.8,2.4c-0.5,0.8-0.8,1.6-0.8,2.4
		c-0.4,2.1-0.6,4.4-0.3,7c0.2,2.6,0.3,5,0.3,7.4c0.3,2.6,0.5,5,0.6,7.4c0.1,2.4,0.1,5,0.1,7.9c7.6,0.8,15.6,1.1,23.7,1.1
		c8.2,0,16.1-0.4,23.7-1.1c0.5-2.5,0.7-5,0.8-7.3c0.1-2.3,0.1-4.7,0.1-7.1c0-2.8,0.1-5.6,0.2-8.3c0.1-2.7,0.1-5.3-0.2-7.9
		c0-0.7-0.3-1.4-0.9-1.9c-0.6-0.5-0.9-1.2-0.9-1.9c-0.3-2.1-0.2-4.3,0.2-6.6c0.5-2.3,0.7-4.7,0.7-7.1c0.5-2.5,0.6-4.9,0.5-7.2
		c-0.2-2.3,0-4.4,0.5-6.5c5.7,0,10.8-0.1,15.3-0.2c4.5-0.1,8.8-0.1,12.8,0.2c0.6,1.8,0.3,4.2-0.9,7.2c0,0.8,0.4,1.2,1.1,1.2
		c0.7,0.1,0.9,0.5,0.5,1.2c0,5.7,0.1,11.8,0.3,18.4c0.2,6.6,0.1,13.3-0.3,20c0,0.5,0.1,1.1,0.3,1.9c0.2,0.8,0.1,1-0.3,0.6
		c-0.3,0.5-0.2,0.6,0.2,0.5c0.4-0.1,0.7,0,0.7,0.4c-0.5,2-0.7,4.2-0.8,6.9c-0.1,2.6-0.1,5.4-0.1,8.2c0,0.8-0.1,1.6-0.3,2.5
		c-0.2,0.9-0.3,2-0.3,3.1c0,0.5,0.1,0.9,0.3,1.4c0.2,0.5,0.3,1.1,0.3,2c0.5,2.4,0.6,4.9,0.5,7.5c-0.2,2.6-0.3,5.1-0.5,7.5
		c-0.2,5.7-0.3,11.6-0.3,17.7c-0.1,6.1-0.2,12.1-0.3,18.2c-0.2,6.1-0.5,11.9-1,17.5C225.5,346.9,224.8,352.1,223.7,356.9z
		 M130.5,251.2c0.8,0.8,1.3,0.8,1.7,0.1c0.4-0.7,1.2-1,2.4-1c-0.5-0.8-1.2-0.9-2.4-0.5S130.5,250.8,130.5,251.2z M132.9,255.2v0.7
		h1.6c0-0.3-0.2-0.6-0.6-0.9C133.5,254.7,133.2,254.8,132.9,255.2z M136,262.9h0.9V262c-0.6,0-0.9,0.2-0.9,0.5
		C135.8,262.6,135.8,262.8,136,262.9z M136.1,251.9c1.1,0,1.6-0.5,1.6-1.6c-0.3,0-0.6,0.1-1,0.2
		C136.3,250.7,136.1,251.1,136.1,251.9z M139.3,255.3c0,0.8,0.4,1,1.2,0.8c0.8-0.2,1.2-0.5,1.2-0.8c-0.3-0.5-0.6-0.5-0.8-0.1
		C140.7,255.6,140.2,255.6,139.3,255.3z M140.9,263.2v0.9c0.3,0,0.5-0.1,0.7-0.5c0.1-0.3,0.5-0.5,0.9-0.5c0-0.3-0.3-0.5-0.8-0.5
		C141.2,262.7,140.9,262.9,140.9,263.2z M142.7,310.9c0-0.5,0.2-0.8,0.7-0.9c0.5-0.1,0.5-0.4,0-0.7c0-0.5-0.2-0.4-0.7,0.1
		C142.2,309.9,142.2,310.4,142.7,310.9z"/>
	<path class="st0" d="M323.7,351.3c0,1.7,0.2,3.1,0.6,4.3c0.4,1.2,0.2,2.2-0.6,2.9c-4.1,0-8.2,0-12.3,0.1c-4.1,0.1-7.8-0.3-11-1
		c0-0.5-0.3-0.7-0.9-0.7h-0.9h-0.7v0.7c-0.6,0.6-1.7,0.9-3.2,0.9c-0.5-0.5-1.1-0.5-2-0.2c-0.9,0.3-1.4,0.1-1.4-0.7
		c-1.7,0.5-3.4,0.9-5.2,1.4c-1.8,0.5-3.3,0.3-4.5-0.5c-0.3,0-0.7,0-1.1,0.1c-0.5,0.1-0.8,0.1-1.1,0.1c-6.9,0.3-13.3,0.4-19.1,0.2
		c-5.8-0.2-11.6-0.2-17.3-0.2c-0.8-8.1-1.3-15.9-1.7-23.2c-0.4-7.3-0.3-14.4,0.1-21.4c0.5-5.7,0.5-11.5,0.1-17.3
		c-0.4-5.8-0.4-11.3-0.1-16.6c0.1-1.7,0.4-3.2,0.7-4.7c0.3-1.5,0.6-2.9,0.9-4.1c-0.6-1.8-0.9-3.5-1-5.2c-0.1-1.7,0-3.3,0.1-5
		c0.1-1.7,0.2-3.4,0.2-5.1c0-1.7-0.3-3.7-0.9-5.8c0.8-3.8,1.1-8.1,1.1-12.9c0-4.8-0.1-9.7-0.2-14.6c-0.2-4.9-0.1-9.6,0.1-14.1
		c0.2-4.5,0.9-8.4,2.1-11.5c2.9,0,5.7,0,8.5-0.1c2.8-0.1,5.6-0.3,8.5-0.8c5-0.1,10.2-0.3,15.7-0.5c5.5-0.1,11-0.2,16.4-0.1
		c5.4,0.1,10.8,0.3,16,0.8c5.3,0.5,10.2,1.2,14.9,2.3c0,4.8-0.2,10-0.5,15.6c-0.3,5.6-0.5,10.5-0.5,14.9c-3.6-1.8-7.5-2.9-11.8-3.3
		c-4.2-0.4-8.6-0.5-13.1-0.2c-4.5,0.2-9,0.5-13.6,0.9c-4.5,0.4-8.9,0.5-13.1,0.3c-0.9,5.3-1.2,10.8-1,16.7s0.6,11,1,15.4
		c2,0.5,4.2,0.4,6.7-0.1c2.5-0.5,4.8-0.2,6.9,1c0.5-0.5,0.5-0.7,0.1-0.8c-0.4-0.1-0.9-0.1-1.7-0.1c0.5-0.3,1.1-0.4,1.8-0.3
		c0.8,0.1,1,0.5,0.7,1.2c2.9-1.7,6.2-2.5,10.2-2.6c3.9-0.1,7.5-0.3,10.8-0.6c0.5,2.9,0.6,5.6,0.6,8.1c-0.1,2.6-0.2,5.1-0.2,7.7
		c-0.1,2.6-0.2,5.2-0.2,7.8c-0.1,2.6,0.1,5.5,0.6,8.5c-6.5,0.5-12.4,0.8-17.9,1.1c-5.4,0.3-11.5,0.5-18.3,0.5
		c0.8,6.3,0.8,12.5,0.2,18.6c-0.6,6.1-0.7,12.3-0.2,18.6c9.6,0,18.9,0.1,27.9,0.2c9,0.2,17.1,0.1,24.5-0.2c0.3,3.2,0.1,6.9-0.6,11.3
		C323.3,343.7,323.2,347.7,323.7,351.3z M253.8,302.3c-0.5,0.8-0.7,1.3-0.7,1.6h1.6C254.8,302.9,254.5,302.3,253.8,302.3z
		 M254.8,307.5c0,0.5,0.4,0.7,1.2,0.7c0.8,0,1.2-0.2,1.2-0.7c-0.5-0.3-0.9-0.4-1.2-0.2C255.6,307.4,255.2,307.5,254.8,307.5z
		 M257.2,277.7c0.5,0,1-0.1,1.6-0.3c0.6-0.2,1.2-0.5,1.7-0.9c0.5-0.4,0.9-0.8,1.1-1.2c0.2-0.5,0.1-0.9-0.3-1.4
		c-0.9,0.8-1.7,1.4-2.5,1.9C258.1,276.3,257.5,276.9,257.2,277.7z M258.8,286.7c0,1.1,0.5,1.6,1.6,1.6c0.5-0.5,0.5-0.9,0.1-1.5
		C260.1,286.3,259.6,286.3,258.8,286.7z M260.4,336.7c0.5,0.3,1,0.3,1.6,0c0.6-0.3,0.9-0.8,0.9-1.6c-0.8,0.3-1.2,0.1-1.5-0.6
		s-0.6-1-1-1c-0.5,0.8-0.4,1.4,0.2,1.8C261.2,335.7,261.2,336.2,260.4,336.7z M278.3,217.3c-0.6,0-0.9,0.2-0.9,0.5
		c-0.2,0.2-0.2,0.3,0,0.5c0.6,0,0.9,0.5,0.9,1.6c0.5,0,1-0.3,1.6-0.9c-0.5-0.3-0.8-0.5-1.1-0.5C278.4,218.5,278.3,218.1,278.3,217.3
		z M286.2,200.4c-0.3,0-0.6,0.1-1,0.2c-0.4,0.2-0.6,0.6-0.6,1.4c0.5,0.5,0.9,0.5,1.5,0.1C286.6,201.7,286.6,201.1,286.2,200.4z
		 M288.7,211.3c0,0.5-0.2,0.9-0.5,1.2c-0.3,0.4-0.5,0.8-0.5,1.2c0.9-0.5,1.5-0.6,1.7-0.5c0.2,0.2,0.5,0,0.8-0.5h-0.5
		c-0.2,0-0.2-0.2-0.2-0.7c-0.2-0.1-0.2-0.3-0.2-0.5C289,211.5,288.8,211.3,288.7,211.3z M290.2,215.9h-2.5c0,0.8,0.5,1.2,1.6,1.5
		C290.4,217.6,290.7,217.1,290.2,215.9z M293.4,210.8c-0.8-0.3-1.4-0.2-1.8,0.3c-0.5,0.5-0.9,1-1.4,1.5c0.5,0,0.6,0.3,0.6,0.8
		c-0.1,0.5,0.3,0.8,1,0.8c0.5-0.5,0.8-0.9,1.1-1.4C293.2,212.3,293.4,211.7,293.4,210.8z M291.9,207.6v1.6c0.5,0,1,0,1.6-0.1
		c0.6-0.1,0.9-0.3,0.9-0.6c-0.5,0-0.8-0.1-1-0.5C293.1,207.8,292.7,207.6,291.9,207.6z M295,214.2c0,0.8,0.1,1.1,0.5,0.9
		c0.3-0.1,0.7-0.2,1.1-0.2C296.6,214.4,296,214.2,295,214.2z"/>
	<path class="st0" d="M500.3,353.9h-0.6l-0.8-0.8v0.7v2.1h0.8c-0.8,1.1-1.9,2-3.4,2.6c-7.2-0.3-15.3-0.5-24.1-0.6
		c-8.8-0.1-26.4-0.1-26.4-0.1v-0.2c0,0-0.6-0.5-1.1-0.7h-0.9c0,0.7-0.2,1-0.7,1h-27.3v-30.2c2.9,0.3,5.3,0.3,7.2,0.1
		c1.9-0.2,3.8,0.3,5.8,1.5l30.3,0.7c1.4,0.3,3.2,0.5,5.4,0.5c2.2,0,4.5,0,6.8-0.1c2.4-0.1,4.6-0.2,6.6-0.5c2.1-0.2,3.6-0.4,4.7-0.6
		c-0.5-4.9-0.8-9.9-1-15.1c-0.2-5.2-0.7-10.2-1.5-15.1c-3.2,0-6.6,0-10.2,0.1c-3.6,0.1-7.2,0.3-10.8,0.6h-14.8l-0.7-31.7l8-1.6
		c0.8,0.8,1.8,1.2,3.1,1.4c1.3,0.2,2.8,0.2,4.4,0.2l11.2-2.3h7.4c0-5.6,0.3-11.2,0.8-16.5c0.5-5.4,0.8-10.2,0.8-14.5h-21.8
		l-28.2,0.7c-3.6,0.2-6.5,0.2-8.8,0.2c-2.3,0-4.4-0.6-6.5-1.8c1.5-4.2,2-9.1,1.4-14.6c-0.6-5.5-1.1-10.6-1.4-15.2
		c4.8-0.8,9.7-0.8,14.6-0.1c4.9,0.7,9.7,1,14.6,1c0.5,0,2.7,0.1,6.8,0.2c4.1,0.2,8.9,0.3,14.5,0.6c5.6,0.2,11.3,0.5,17,0.8
		c5.8,0.3,10.5,0.5,14.1,0.7l15.4,21v37.9c0,1.2-0.5,2.4-1.5,3.7c-1,1.3-2.1,2.6-3.4,4c-1.3,1.4-2.4,2.7-3.4,4.2
		c-1,1.4-1.5,2.8-1.5,4.2c0,1.1,0.5,2.1,1.5,3.2c1,1.1,2.1,2.1,3.4,3.3c1.3,1.1,2.4,2.2,3.4,3.3c1,1.1,1.5,2.1,1.5,3.2v30.7
		c0,2.4,0.1,4.9,0.2,7.3c0.1,2.5,0.1,4.6-0.2,6.2c-0.5,1.7-1.6,3.3-3.4,4.9c-1.8,1.6-3.2,3.2-4.1,4.9c-0.8,0.8-1.4,1.5-1.8,2.4
		C501.2,352.4,500.7,353.2,500.3,353.9z M431.9,356.3v0.6h0.7h0.9h0.4v-2.2C432.7,354.7,431.9,355.3,431.9,356.3z M485.9,252.3
		c-0.6,0.6-0.9,1.1-0.9,1.6h1.6C486.6,252.9,486.4,252.3,485.9,252.3z M488.9,349.8v-0.9h-0.6c-1.1,0-1.9,0.3-2.4,0.9v1.6
		c0.3,0,0.8-0.1,1.5-0.2C488.1,351,488.6,350.6,488.9,349.8z M489.1,257.3c-0.3-0.5-0.7-0.6-1.1-0.3c-0.5,0.2-0.9,0.3-1.4,0.3
		c0,0.3,0.4,0.5,1.2,0.5C488.7,257.8,489.1,257.6,489.1,257.3z M489.1,227.5c0.8,0.3,1.7-0.1,2.9-1.1c1.2-1.1,1.6-1.8,1.1-2.3
		c-0.8,0.5-1.5,0.9-2.3,1.4C490.2,225.9,489.6,226.6,489.1,227.5z M490.7,236.3c0,1.1,0.5,1.6,1.6,1.6c0.5-0.5,0.5-0.8,0.1-1.1
		C492,236.5,491.4,236.3,490.7,236.3z M492.3,286.9c0.5,0,1-0.1,1.6-0.5c0.6-0.3,0.9-0.7,0.9-1.1c-0.8,0-1.3-0.3-1.6-0.9
		c-0.3-0.6-0.8-1.1-1.6-1.4c-0.5,0.8-0.2,1.4,0.7,1.9C493.2,285.5,493.2,286.2,492.3,286.9z"/>
	<path class="st0" d="M611.2,323.9h0.2c0.3,0,0.5,0.2,0.5,0.7l5.7,35.3h-22.6c0,0-3.7-10.3-4.7-15.1c-1.1-4.8-2.4-9.4-4.1-13.8
		c-4.4,0-9.2-0.1-14.6-0.5c-5.3-0.3-10.4-0.5-15.3-0.5c-2.1,4.4-3.5,9-4.2,13.9c-0.7,4.9-1.5,9.8-2.4,14.6c-3.9,0-8,0.2-12.2,0.6
		c-4.2,0.4-8.7,0.2-13.6-0.6l5.7-38.9c0.8,0.8,1.8,0.8,3.2,0c-0.8-0.5-1.4-0.6-1.8-0.5c-0.5,0.2-0.9,0-1.4-0.5
		c1.7-9.6,3.1-19.5,4.2-29.5c1.1-10,2.4-20.3,4-30.8l2.5-17.9c0.3-1.7,0.9-3,1.8-4c0.9-1,1.4-2.3,1.4-4c0.8-2.6,1.3-5.2,1.6-7.8
		c0.3-2.6,0.8-5.2,1.6-7.6c1.2-3.6,2.2-7.2,2.9-10.8c0.8-3.6,1.1-7.2,1.1-10.6h6.6c-0.5,0-0.8,0.1-0.9-0.1c-0.2-0.1-0.5-0.2-0.9-0.2
		c0,0.8,0.5,1,1.5,0.8c1-0.2,1.8-0.5,2.6-0.8c0.5,0,0.6,0.2,0.5,0.5c-0.2,0.3,0,0.7,0.5,1.1c0.3-0.5,0.6-0.8,0.9-0.9
		c0.3-0.1,0.2-0.4-0.2-0.4h16.3c2.9-0.7,5-1,6.6-1.2c1.5-0.1,2.6,1.2,3.2,4.1l2.3,12c0.8,1.7,1.4,3.4,1.9,5.3c0.5,1.9,1,3.7,1.5,5.3
		c0,0.3-0.2,0.4-0.5,0.3c-0.3-0.1-0.5,0-0.3,0.3v0.9c-0.2-0.6-0.5-0.9-1.1-0.9c-0.5,0-0.9,0.5-0.9,0.5v0.5v-0.9v0.9
		c0,0-1.3,0.1-1.7,0.2c-0.4,0.2-0.6,0.6-0.3,1.4v1.4h0.6h0.7l-0.7,0.2l-0.6-0.7v0.7c0.9,0.8,1,1.6,1,1.6v0.9l1-0.9v0.5
		c0,0,0.5,0.5,0.9,0.5c0.9,0,1.4-0.3,1.6-0.9c0.1-0.6,0.2-1.1-0.5-1.6v-0.2h-1.8h0.7c0.5-0.9,0.9-1.2,1.2-1.4
		c0.4-0.1,0.6-0.4,0.6-0.7l1.6,5.4c2.7,9.5,4.9,19.2,6.4,29.2c1.6,9.9,3.4,19.9,5.5,29.8c0,1.1-0.2,1.6-0.7,1.6
		c0.8,1.2,1.4,2.7,1.8,4.5c0.5,1.8,0.9,3.5,1.4,5.2c0.5,3.6,1,7.3,1.6,11.1c0.6,3.8,0.9,7.3,0.9,10.6
		C611.9,322.2,611.2,323.9,611.2,323.9z M557.8,202l-0.7,1h1.6h2.2v-1l1,0.9v-1.9h-1v-0.6l-0.6,0.6h-0.9h-0.5
		c-0.2,0.4-0.3,0.4-0.5,0.6C558.3,201.7,558.1,201.8,557.8,202z M562.8,299.6c2,0.3,4.8,0.4,8.5,0.2c3.7-0.1,6.7-0.2,9.2-0.2
		c-1.2-7.2-2.5-14.4-3.7-21.5c-1.3-7.1-3-13.6-5.1-19.7c-1.7,6.5-3.4,13.1-5.1,20C564.8,285.3,563.5,292.4,562.8,299.6z
		 M594.9,343.9h1.8h0.7l2.5,1.5l-0.9-2.5c-0.5-0.5-1.2-0.7-2.3-1.1h-0.9h-0.9l-2-0.5v0.9c0.8,0.8,1.1,1.2,1.3,1.4
		C594.4,343.8,594.6,343.9,594.9,343.9z"/>
	<path class="st0" d="M760.5,227.7c-3.3-0.3-7-0.5-11-0.7c-4-0.1-9.4-0.2-16.2-0.2c-2.9,10.8-7,20.4-12.4,28.6
		c-5.4,8.2-11,15.3-16.9,21.1c7.3,11.3,14.5,22.3,21.9,33.1c7.3,10.8,14.6,21.7,21.9,32.7c-5.1,2.1-10.1,4.5-14.7,7.2
		c-4.7,2.7-9.4,5.2-14.3,7.5c-1.2-1.7-2.5-3.1-3.9-4.4c-1.4-1.3-2.6-2.7-3.6-4.4c-0.8-1.2-1.4-2.4-2-3.6c-0.6-1.2-1.3-2.6-2-4.1
		c-2.3-4.4-5-8.4-8.3-12.1c-3.2-3.7-6.4-7.5-9.4-11.4c-0.3-0.3-0.5-0.7-0.5-1.1c0,0.5,0.9,1.1,0.9,1.1h0.9v-0.2v1.1l0.2-0.5
		c0.1-0.1,0.5-0.2,0.9-0.2c0.8-0.1,1.8-0.9,1.8-0.9v-0.7l-0.7-0.2c-1.2-0.9-2.4-1.3-3.7-1.1l-0.6,0.2v0.2c0.3,0.2,0.2,0.4,0.2,0.7
		c0,0.2,0.1,0.2,0.2,0.2c-0.1,0-0.2-0.1-0.2-0.2c-0.1-0.1-0.2-0.5-0.2-0.9c-3-3-5.7-6.3-8-9.8c-2.3-3.5-4.6-7.1-6.9-10.7h-7.8
		c-2.6,0-4.9-0.1-6.7-0.2c-0.2,3.9-0.3,8.3-0.3,13.1c-0.1,4.8-0.2,9.8-0.3,15c-0.2,5.2-0.4,10.4-0.7,15.5c-0.3,5.1-0.8,9.9-1.4,14.5
		c-6.3-0.3-12.1-0.4-17.2-0.2c-5.1,0.2-10.2,0.1-15.1-0.2c0.8-10.5,1.2-22,1.4-34.2c0.1-12.3,0.5-25,1.1-38.3
		c0.3-6.8,0.3-13.4,0.1-19.8c-0.2-6.4,0-12.8,0.6-19.1c0.8,0,1.4-0.1,1.9-0.2c0.5-0.1,0.9-0.1,1,0.2c0.3-0.3,0.1-0.6-0.5-1
		c-0.6-0.4-1.3-0.6-2-0.6c-0.5-2.3-0.4-4.3,0.1-6.2c0.5-1.9,0.5-3.8-0.1-5.8c-0.2-0.6-0.5-1.2-0.9-1.7c-0.5-0.5-0.8-1.2-0.9-1.9
		c-0.6-2.6-0.6-5.5,0-8.8c0.6-3.3,1.1-6.5,1.4-9.5c0-1.2-0.1-2.4-0.2-3.7c-0.2-1.3-0.1-2.6,0.2-4c0.5-0.5,1-0.5,1.7,0
		s1.3,0.7,1.9,0.7c0.5,0,0.9-0.2,1.5-0.7c0.5-0.5,1.2-0.8,1.9-0.9c0.6-0.1,1.2-0.1,1.9,0.1c0.7,0.2,1.4,0.3,2.1,0.3
		c3,0,6.2-0.2,9.7-0.7c3.5-0.5,6.9-0.4,10.2,0.2c0.3,1.4,0.5,2.8,0.6,4.2c0.1,1.4-0.3,2.6-1,3.5c-0.2,0.8,0.1,1.1,0.8,1
		c0.7-0.1,1.1,0.2,1.2,0.8c0.1,3.9,0.1,8.1,0,12.5c-0.2,4.4-0.3,9-0.6,13.8c-0.2,4.7-0.4,9.5-0.5,14.2c-0.1,4.7,0,9.3,0.3,13.7
		c1.2,0.5,2.5,0.7,3.8,0.7c1.4,0,2.9,0.1,4.7,0.2c1.7,0,3.4,0.1,5.3,0.2c1.9,0.2,3.5,0.1,4.9-0.2c0.6-0.3,1.4-0.9,2.3-1.9
		c0.9-1,1.8-2.1,2.8-3.3c1-1.2,1.9-2.4,2.8-3.5s1.6-2,2-2.6c4.4-5.3,8.7-11.7,13-19.2c4.3-7.5,7.3-16,8.9-25.5l3.6-5.2
		c11.3-1.4,20.7-2.2,28.2-2.5c7.5-0.3,13.5-0.5,17.9-0.5c0.5,1.8,0.7,4.1,0.8,6.9c0.1,2.8,0.1,5.6,0,8.6c-0.1,2.9-0.2,5.8-0.2,8.7
		C760.3,223.3,760.4,225.8,760.5,227.7z M650,283.3c-0.2-0.8-0.2-1.4-0.1-1.9c0.1-0.5,0.2-1,0.3-1.5h-0.9c0.1,0.6,0.1,1-0.2,1.2
		c-0.3,0.2-0.7,0.4-1.1,0.6c-0.5,0.2-0.9,0.3-1.4,0.6c-0.5,0.2-0.7,0.6-0.7,1c0.9,0.2,1.6,0.2,2,0.1
		C648.4,283.4,649.1,283.3,650,283.3z M663.6,275.6c0.3,0.5,0.8,0.9,1.5,1.2c0.7,0.4,1.2,0.2,1.5-0.6c-0.3-0.3-0.8-0.7-1.5-1.1
		S663.9,274.9,663.6,275.6z M666.3,279.9c0.3,0.2,0.7,0.2,1.2,0c0.5-0.1,0.9-0.4,1-0.7c-0.2,0-0.5,0-1.1,0.1
		C666.8,279.4,666.4,279.6,666.3,279.9z M672.1,281.9h2.1c0-0.8,0.6-1.2,1.8-1.5c1.2-0.2,1.7-0.7,1.4-1.5c-0.3,0.5-0.7,0.7-1.1,0.7
		c0.1-0.9,0-1.5-0.5-1.8c-0.5-0.3-0.9-0.6-1.4-0.9c-0.6,0.8-1,1.5-1.3,2.1c-0.3,0.7-1,1-2.1,1c0.4,0.5,0.5,0.9,0.2,1.5
		c-0.3,0.5-0.5,1.1-0.7,1.7c0,0.3,0.4,0.5,1.3,0.5c0.1-0.3,0.1-0.7,0-1.1S671.8,281.9,672.1,281.9z M673.9,272v0.9
		c-0.8,0-1.6,0.2-2.2,0.6c-0.6,0.4-0.9,1.2-0.9,2.4c0.6-0.1,1-0.1,1.2,0.2c0.2,0.3,0.5,0.5,0.8,0.7c-0.1-0.8,0.2-1,1-0.8
		c0.8,0.2,1.2,0,1.2-0.8c-0.9-0.6-1.1-1.2-0.6-1.7c0.5-0.5,0.9-1,1-1.5l-0.5,0.2c-0.2,0-0.2,0.1-0.2,0.2l-0.2-0.2
		C674.2,272.2,674.1,272.2,673.9,272z M688,291.7c0.3,0.3,0.7,0.4,1.1,0.2c0.5-0.1,0.7-0.5,0.7-0.9c0-0.3-0.5-0.5-1.6-0.5
		c0.1,0.3,0.1,0.5,0,0.6C688.1,291.2,688,291.4,688,291.7z M690.5,267.7c0.5-0.3,0.9-0.5,1.2-0.7c0.4-0.1,0.7-0.5,1-0.9
		c0-0.3-0.1-0.5-0.2-0.5c-0.2,0-0.2-0.1-0.2-0.5c-1.4-0.3-2.3,0.1-2.9,1.1c-0.3,0.8-0.3,1.4-0.1,2c0.2,0.6,0.3,1.3,0.1,2
		c0.3,0.2,0.5,0.1,0.6-0.1c0.1-0.2,0.3-0.3,0.8-0.3C690.9,269.8,690.8,269.1,690.5,267.7z M694.3,263.7c0.1-0.3,0.3-0.5,0.5-0.7
		c0.1-0.1,0.2-0.4,0.2-0.7c-0.6,0.3-1.5,0.4-2.6,0.2c-1.1-0.1-1.5,0.4-1.2,1.6c0.8,0,1.4-0.1,1.8-0.5
		C693.4,263.4,693.9,263.4,694.3,263.7z M747,220.9h-1.8c0,1.1,0.3,1.6,0.9,1.6C746.7,222.1,747,221.5,747,220.9z M750.1,205.1
		c0,0.5,0.3,0.7,0.8,0.7c0.5,0,0.8-0.2,0.8-0.7c-0.5,0-0.8-0.1-1.1-0.2C750.3,204.7,750.1,204.8,750.1,205.1z"/>
	<path class="st0" d="M850.2,262.5c-0.2,1.2,0,2.3,0.3,3.3c0.4,1,0.8,2.3,1.2,4c0,2.4-0.2,4.9-0.5,7.6c-0.3,2.6-0.5,5.2-0.5,7.8
		c0,4.4,0,8.8,0,13.3c0,4.5-0.2,9.4-0.7,14.7c-0.3,3.3-0.5,6.3-0.7,8.8c-0.2,2.6,0.1,5.3,0.7,8.1c0,0.5,0.1,1,0.3,1.7
		s0.3,1.2,0.3,1.7c0,1.2-0.3,2.4-0.8,3.6c-0.5,1.2-0.8,2.4-0.8,3.6c-0.3,2.9-0.2,5.8,0.5,8.8c0.6,3,0.8,6,0.5,8.8
		c-1.2,0.3-2,0.2-2.4-0.2c-0.4-0.5-0.9-0.7-1.7-0.7c-4.1,0-7.8-0.4-11.1-1.1c-3.3-0.8-6.6-1.1-9.9-1.1c-2.9,0.3-5.8,0.7-8.8,1.1
		c-3,0.5-6,0.3-8.8-0.5c-0.3-0.1-0.5-0.5-0.5-1.1c0-0.6-0.1-1.2-0.2-1.9c-0.2-0.7-0.3-1.4-0.6-2c-0.2-0.7-0.6-1.1-1.2-1.2
		c0.8-0.5,1-1.3,0.8-2.6c-0.2-1.3-0.5-2.3-0.8-3.1c0.8-1.2,0.9-2.6,0.6-4.2c-0.4-1.6-0.6-3.4-0.6-5.5c0-1.2,0.1-2.2,0.3-3.1
		c0.2-0.8,0.3-1.4,0.3-1.7c-0.3-1.2-0.8-1.8-1.4-1.9c-0.6-0.1-0.9-0.6-0.9-1.5c3.2-0.8,6.2-1.1,9.3-0.9c3,0.2,5.6,0.2,7.7,0.2
		c0.8-1.2,1-2.4,0.8-3.7c-0.2-1.3,0-1.9,0.8-1.9c-0.8-4.8-1-10.4-0.8-16.8c0.2-6.4,0.2-12.6-0.1-18.6c-0.5-9.9-0.9-19.5-1.4-28.8
		c-0.5-9.3-0.5-18.2-0.2-26.8c-2.6-0.8-4.7-1.2-6.6-1.2c-1.8-0.1-3.6,0-5.3,0.1c-1.7,0.2-3.5,0.4-5.4,0.7c-1.9,0.3-4.2,0.5-6.9,0.5
		c-0.3,8.4-0.3,16.7,0.1,24.9c0.4,8.1,0.8,16.2,1.2,24.1c0.5,7.9,0.8,15.7,1,23.5c0.2,7.8,0,15.6-0.8,23.4c0.5,0.6,1.1,1,1.8,1.2
		c0.8,0.2,1.5,0.5,2.3,0.7c0.8,0.2,1.4,0.6,2,1c0.6,0.5,1,1.1,1.1,2c-0.3,0-0.8-0.1-1.4-0.3c-0.6-0.2-0.9-0.1-0.9,0.3
		c0.3,2.4,0.6,5,1,7.9c0.4,2.9,0.3,6.1-0.3,9.7c0,0.5-0.1,1.1-0.3,1.8c-0.2,0.8-0.3,1.5-0.3,2.3c0,0.8,0.4,1.5,1.1,2.4
		c0.8,0.8,1.1,1.6,1.1,2.4c-5.7,0.8-11.8,0.9-18.1,0.6c-6.3-0.4-12.1-0.6-17.4-0.6c-1.7-16-2.7-31.8-3.1-47.5
		c-0.4-15.7-0.7-31.3-1-46.8c-0.2-6.5,0.3-13.1,1.5-19.8c1.1-6.7,1.5-13.3,1-19.8c-0.3-4.4-0.8-8.5-1.6-12.3
		c-0.8-3.8-0.8-7.8,0-11.9c10.1,0,20.8,0,32.1-0.1c11.3-0.1,22.1-0.3,32.5-0.6c3.2-0.5,6.3-0.6,9.5-0.3c3.2,0.2,6.2,1.2,9,2.8
		c0.6,2.4,0.8,4.9,0.7,7.3c-0.2,2.5-0.4,5-0.7,7.5c-0.3,2.5-0.5,5-0.7,7.5c-0.2,2.5,0.1,4.9,0.7,7.3c0,0.9,0.3,1.8,0.9,2.6
		c0.6,0.8,1.1,1.8,1.4,3.1c0.5,2.1,0.2,4.3-0.7,6.7c-0.9,2.3-1.2,4.7-0.9,7.1c0,0.8,0.3,1.4,0.8,2c0.5,0.6,0.8,1.3,0.8,2
		c0,1.7-0.2,3.3-0.6,4.9C850,259.2,849.9,260.9,850.2,262.5z M773.4,306.8c0,0.3,0.3,0.3,1,0.1c0.7-0.2,0.9-0.6,0.6-1
		C773.9,305.9,773.4,306.2,773.4,306.8z M776.6,277.7c0.3-0.3,0.6-0.5,1-0.7c0.4-0.1,0.6-0.5,0.6-0.9c-0.8-0.3-1.3-0.2-1.7,0.3
		C776.1,277,776.1,277.4,776.6,277.7z M779.7,227c0-0.8-0.3-1.3-1-1.7c-0.7-0.4-1.4-0.3-2.1,0.1c0,0.8,0.3,1.2,1,1.4
		C778.3,227,779,227,779.7,227z M776.9,236.3v1.6h1.6C778.5,236.9,778,236.3,776.9,236.3z M778.2,240.6c-0.5,0.5-0.2,0.7,0.8,0.7
		c1,0,1.2-0.2,0.8-0.7c0-0.3-0.2-0.4-0.5-0.2C779,240.5,778.6,240.6,778.2,240.6z M783.8,206.9l-3.2,3.8c0.8,0,1.7-0.5,2.7-1.4
		C784.4,208.5,784.6,207.7,783.8,206.9z M782.2,219.8c0,0.3,0.1,0.6,0.2,1c0.1,0.4,0.6,0.6,1.4,0.6c0.5-0.5,0.5-0.9,0.1-1.5
		C783.5,219.4,783,219.4,782.2,219.8z M783.8,269.8c0.5,0.3,1,0.3,1.6,0.1c0.6-0.2,0.9-0.6,0.9-1c-0.8,0-1.3-0.4-1.6-1.1
		c-0.3-0.8-0.8-1.1-1.6-1.1c-0.5,0.8-0.3,1.4,0.3,1.8C784.2,268.8,784.3,269.3,783.8,269.8z M825.8,338.9c0-0.8,0.1-1.3,0.3-1.6
		c0.2-0.3,0.3-0.8,0.3-1.6c-0.8-0.3-1.4-0.3-2,0.1c-0.6,0.4-1.5,0.3-2.7-0.1c0.3,0.8,0.4,1.2,0.2,1.5c-0.2,0.2-0.2,0.6-0.2,1
		c0.8,0,1.4,0,2,0.1C824.4,338.4,825.1,338.6,825.8,338.9z M829.9,326.9c0.3-0.5,0.4-0.9,0.2-1.2c-0.2-0.4-0.2-0.8-0.2-1.2
		c-1.2,0-1.8,0.5-1.8,1.6c0.5,0,0.8,0.2,0.9,0.5C829.2,326.8,829.5,326.9,829.9,326.9z M836.2,342.9h-1.6c0,0.5,0.3,0.8,0.8,0.9
		C836,344,836.2,343.7,836.2,342.9z"/>
	<path class="st0" d="M970.7,356.9h-28.1c0.5-10,0.6-20.8,0.6-32.4c-0.1-11.5,0.3-22.9,1-34.2c-3.8-0.1-7.4-0.2-10.9-0.2
		c-3.5,0-7.1,0-10.8,0.1c-3.7,0.1-7.5,0.2-11.6,0.3c-4,0.2-8.5,0.3-13.3,0.5c1.2,10.3,1.5,21.3,1,32.7c-0.5,11.5-0.6,23.1-0.1,34.8
		c-5.3,0.3-10.4,0.5-15.4,0.6c-5,0.1-9.6,0-13.6-0.3c-1.2-8.5-1.8-17.4-1.7-26.5c0.1-9.1,0.1-18.5,0.1-28.1v-4.9
		c0-0.7-0.1-1.7-0.3-2.8c-0.2-1.1-0.3-2.1-0.3-2.8c0-3.1,0-6.8-0.1-11c-0.1-4.2,0.5-7.7,1.7-10.6c-0.5-1.6-0.7-3.7-0.8-6.3
		c-0.1-2.5-0.1-5.2-0.1-8.1c0.1,0,0.3-0.1,0.5-0.2c0.3-0.3,0.5-0.7,0.5-1.4h-0.9v-4c-0.3-3.3-0.4-6.4-0.2-9.2
		c0.1-2.8,0.2-5.7,0.2-8.5c0-3.1-0.1-6.3-0.2-9.4c-0.2-3.1-0.1-6.1,0.2-9c0-1,0.3-1.8,0.9-2.2c-0.5-1.2-0.6-2-0.5-2.4
		c0.1-0.4,0-0.9-0.5-1.7c1-0.5,1.6-1,1.8-1.7c0.1-0.7,0.1-1.4,0-2.1c-0.2-0.7-0.2-1.5-0.2-2.2c0-0.7,0.3-1.4,0.9-2
		c1.6-0.7,3.4-1.2,5.2-1.4c1.8-0.1,3.5-0.2,5.2-0.2c2.1,0,4-0.3,5.6-0.8c1.6-0.5,3.3-0.8,4.9-0.8c1.2,0,2.4,0.2,3.5,0.6
		c1.1,0.4,2.1,0.2,2.8-0.6c-0.3,4.8,0,9.4,0.8,13.8c0.8,4.4,0.9,8.7,0.1,12.7c0,0.8-0.3,1.5-0.8,2.4c-0.5,0.8-0.8,1.6-0.8,2.4
		c-0.5,2.1-0.6,4.4-0.3,7c0.2,2.6,0.3,5,0.3,7.4c0.3,2.6,0.5,5,0.6,7.4c0.1,2.4,0.1,5,0.1,7.9c7.6,0.8,15.6,1.1,23.7,1.1
		c8.2,0,16.1-0.4,23.7-1.1c0.5-2.5,0.7-5,0.8-7.3c0.1-2.3,0.1-4.7,0.1-7.1c0-2.8,0.1-5.6,0.2-8.3c0.1-2.7,0.1-5.3-0.2-7.9
		c0-0.7-0.3-1.4-0.9-1.9c-0.6-0.5-0.9-1.2-0.9-1.9c-0.3-2.1-0.2-4.3,0.2-6.6c0.5-2.3,0.7-4.7,0.7-7.1c0.5-2.5,0.6-4.9,0.5-7.2
		c-0.2-2.3,0-4.4,0.5-6.5c5.7,0,10.8-0.1,15.3-0.2c4.5-0.1,8.8-0.1,12.8,0.2c0.6,1.8,0.3,4.2-0.9,7.2c0,0.8,0.4,1.2,1.1,1.2
		c0.7,0.1,0.9,0.5,0.4,1.2c0,5.7,0.1,11.8,0.3,18.4c0.2,6.6,0.1,13.3-0.3,20c0,0.5,0.1,1.1,0.3,1.9c0.2,0.8,0.1,1-0.3,0.6
		c-0.3,0.5-0.2,0.6,0.2,0.5c0.5-0.1,0.7,0,0.7,0.4c-0.5,2-0.7,4.2-0.8,6.9c-0.1,2.6-0.1,5.4-0.1,8.2c0,0.8-0.1,1.6-0.3,2.5
		c-0.2,0.9-0.3,2-0.3,3.1c0,0.5,0.1,0.9,0.3,1.4c0.2,0.5,0.3,1.1,0.3,2c0.5,2.4,0.6,4.9,0.5,7.5c-0.2,2.6-0.3,5.1-0.5,7.5
		c-0.2,5.7-0.3,11.6-0.3,17.7c-0.1,6.1-0.2,12.1-0.3,18.2c-0.2,6.1-0.5,11.9-1,17.5C972.5,346.9,971.8,352.1,970.7,356.9z
		 M877.1,251.2c0.8,0.8,1.3,0.8,1.7,0.1c0.4-0.7,1.2-1,2.4-1c-0.5-0.8-1.2-0.9-2.4-0.5S877.1,250.8,877.1,251.2z M879.9,255.2v0.7
		h1.6c0-0.3-0.2-0.6-0.6-0.9C880.5,254.7,880.2,254.8,879.9,255.2z M883,262.9h0.9V262c-0.6,0-0.9,0.2-0.9,0.5
		C882.8,262.6,882.8,262.8,883,262.9z M882.8,251.9c1.1,0,1.6-0.5,1.6-1.6c-0.3,0-0.6,0.1-1,0.2C883,250.7,882.8,251.1,882.8,251.9z
		 M886,255.3c0,0.8,0.4,1,1.2,0.8c0.8-0.2,1.2-0.5,1.2-0.8c-0.3-0.5-0.6-0.5-0.8-0.1C887.4,255.6,886.9,255.6,886,255.3z
		 M887.9,263.2v0.9c0.3,0,0.5-0.1,0.7-0.5c0.1-0.3,0.5-0.5,0.9-0.5c0-0.3-0.3-0.5-0.8-0.5C888.2,262.7,887.9,262.9,887.9,263.2z
		 M889.4,310.9c0-0.5,0.2-0.8,0.7-0.9c0.5-0.1,0.5-0.4,0-0.7c0-0.5-0.2-0.4-0.7,0.1C888.9,309.9,888.9,310.4,889.4,310.9z"/>
	<path class="st0" d="M1074.4,323.9h0.2c0.3,0,0.5,0.2,0.5,0.7l5.7,35.3h-22.6c0,0-3.7-10.3-4.7-15.1c-1.1-4.8-2.4-9.4-4.1-13.8
		c-4.4,0-9.2-0.1-14.6-0.5c-5.3-0.3-10.4-0.5-15.3-0.5c-2.1,4.4-3.5,9-4.2,13.9c-0.7,4.9-1.5,9.8-2.4,14.6c-3.9,0-8,0.2-12.2,0.6
		c-4.2,0.4-8.7,0.2-13.6-0.6l5.7-38.9c0.8,0.8,1.8,0.8,3.2,0c-0.8-0.5-1.4-0.6-1.8-0.5c-0.5,0.2-0.9,0-1.4-0.5
		c1.7-9.6,3.1-19.5,4.2-29.5c1.1-10,2.4-20.3,4-30.8l2.5-17.9c0.3-1.7,0.9-3,1.8-4c0.9-1,1.4-2.3,1.4-4c0.8-2.6,1.3-5.2,1.6-7.8
		c0.3-2.6,0.8-5.2,1.6-7.6c1.2-3.6,2.2-7.2,2.9-10.8c0.8-3.6,1.1-7.2,1.1-10.6h6.6c-0.5,0-0.8,0.1-0.9-0.1c-0.2-0.1-0.5-0.2-0.9-0.2
		c0,0.8,0.5,1,1.5,0.8c1-0.2,1.8-0.5,2.6-0.8c0.5,0,0.6,0.2,0.5,0.5c-0.2,0.3,0,0.7,0.5,1.1c0.3-0.5,0.6-0.8,0.9-0.9
		c0.3-0.1,0.2-0.4-0.2-0.4h16.3c2.9-0.7,5-1,6.6-1.2c1.5-0.1,2.6,1.2,3.2,4.1l2.3,12c0.8,1.7,1.4,3.4,1.9,5.3c0.5,1.9,1,3.7,1.5,5.3
		c0,0.3-0.2,0.4-0.5,0.3c-0.3-0.1-0.5,0-0.6,0.3v0.9c0.1-0.6-0.2-0.9-0.8-0.9c-0.5,0-1.2,0.5-1.2,0.5v0.5v-0.9v0.9
		c0,0-1,0.1-1.4,0.2c-0.4,0.2-0.6,0.6-0.6,1.4v1.4h0.9h0.7l-0.7,0.2l1.1-0.7v0.7c-0.8,0.8-1,1.6-1,1.6v0.9l2-0.9v0.5
		c0,0-0.2,0.5,0.2,0.5c0.9,0,1.4-0.3,1.6-0.9c0.1-0.6,0.2-1.1,0.2-1.6v-0.2h-2.5h0.7c0.5-0.9,0.9-1.2,1.2-1.4
		c0.4-0.1,0.6-0.4,0.6-0.7l1.6,5.4c2.7,9.5,4.9,19.2,6.4,29.2c1.6,9.9,3.4,19.9,5.5,29.8c0,1.1-0.2,1.6-0.7,1.6
		c0.8,1.2,1.4,2.7,1.8,4.5c0.5,1.8,0.9,3.5,1.4,5.2c0.5,3.6,1,7.3,1.6,11.1c0.6,3.8,0.9,7.3,0.9,10.6
		C1075.2,322.2,1074.4,323.9,1074.4,323.9z M1021.1,202l-0.7,1h1.6h1.9v-1l1,0.9v-1.9h-1v-0.6l-0.3,0.6h-0.9h-0.5
		c-0.2,0.4-0.3,0.4-0.5,0.6C1021.6,201.7,1021.4,201.8,1021.1,202z M1026.1,299.6c2,0.3,4.8,0.4,8.5,0.2c3.7-0.1,6.7-0.2,9.2-0.2
		c-1.2-7.2-2.5-14.4-3.7-21.5c-1.3-7.1-3-13.6-5.1-19.7c-1.7,6.5-3.4,13.1-5.1,20C1028.1,285.3,1026.8,292.4,1026.1,299.6z
		 M1058.2,343.9h1.8h0.7l2.5,1.5l-0.9-2.5c-0.5-0.5-1.2-0.7-2.3-1.1h-0.9h-0.9l-1.3-0.5v0.9c0.1,0.8,0.4,1.2,0.6,1.4
		C1057.6,343.8,1057.9,343.9,1058.2,343.9z"/>
</g>
</svg>
