<?xml version="1.0" encoding="utf-8"?>
<!-- Generator: Adobe Illustrator 22.0.1, SVG Export Plug-In . SVG Version: 6.00 Build 0)  -->
<svg version="1.1" id="Layer_1" xmlns="http://www.w3.org/2000/svg" xmlns:xlink="http://www.w3.org/1999/xlink" x="0px" y="0px"
	 viewBox="0 0 2409.7 164.6" style="enable-background:new 0 0 2409.7 164.6;" xml:space="preserve">
<style type="text/css">
	.st0{fill:#FFFFFF;}
</style>
<g>
	<path class="st0" d="M84.1,5c0,5.3-0.1,10.5-0.2,15.6c-0.2,5.1-0.1,10.1,0.2,14.9c-3.8-1.5-7.9-2.5-12.3-3.1
		c-4.4-0.5-9-0.8-13.8-0.8c-4.7,0-9.5,0.1-14.4,0.3c-4.8,0.2-9.6,0.3-14.2,0.3c-0.5,5.3-0.5,10.5-0.2,15.6
		c0.3,5.1,0.6,10.1,0.9,14.9c5.7,1.7,11.7,2.2,18,1.6c6.2-0.6,12.6-1.1,19.1-1.6c0.1,2.1,0.2,4.6,0.1,7.3c-0.1,2.8-0.1,5.6-0.1,8.6
		s0,5.8,0.1,8.7c0.1,2.9,0.3,5.4,0.8,7.7c-6.5,0.8-12.8,1-19.1,0.7c-6.3-0.3-12.5-0.3-18.9,0c0.8,11.3,1,22.9,0.7,34.7
		c-0.3,11.8-0.2,22.9,0.2,33.3c-5.7,0-10.8,0.1-15.3,0.2c-4.4,0.1-9.1,0.1-13.9-0.2c-0.9-11.6-1.4-22.7-1.5-33.3
		c-0.1-10.6-0.1-22.4-0.1-35.4c0-2.1-0.1-4.1-0.2-6.1c-0.2-2-0.1-4,0.2-6.1c0-1.7,0.3-3.1,0.8-4.4c0.5-1.3,0.8-2.7,0.8-4.4
		c0-0.8-0.2-1.4-0.5-1.9c-0.3-0.5-0.7-1.2-1.1-2.1c0-2.4,0.2-4.9,0.6-7.6c0.4-2.6,0.2-5.2-0.6-7.6c0.5-4.1,0.8-7.8,0.9-11.3
		c0.1-3.5,0.3-6.9,0.3-10.2c0.1-3.3,0.1-6.7,0.1-10.1s0.1-7.1,0.2-11.2c-0.3-0.9-0.1-1.3,0.6-1.2c0.7,0.1,1-0.1,1-0.6
		c-0.8-2.3-0.8-4.7,0-7.2C9.2,2,15.3,1.3,21.9,1.3c6.6-0.1,13.1,0,19.5,0.3C48.7,2,56,2.2,63.4,2.2C70.7,2.1,77.7,3,84.1,5z
		 M6,162.7c0,0.5,0.2,0.6,0.6,0.3c0.4-0.2,0.7-0.3,1-0.3c-0.3,0-0.6-0.1-1-0.2C6.1,162.4,6,162.4,6,162.7z M7.5,2.5v0.7h0.9
		c0,0.5,0.1,0.5,0.3,0.2C9,3.1,9.1,2.8,9.1,2.5C8.8,2,8.5,2,8.1,2.4C7.7,2.8,7.5,2.8,7.5,2.5z M17.3,155.5c0.5,0.5,0.8,0.6,0.9,0.3
		c0.1-0.2,0.4-0.3,0.7-0.3c0-1.2-0.3-1.9-1-2c-0.7-0.1-1.4-0.2-2.1-0.2c0.3,0.8,0.4,1.4,0.3,1.8c-0.1,0.5,0,0.9,0.3,1.4
		c-0.2,0-0.3,0.1-0.5,0.2c-0.2,0.2-0.2,0.6-0.2,1.4c0.8,0,1.2-0.2,1.4-0.6C17.2,157,17.3,156.4,17.3,155.5z"/>
	<path class="st0" d="M187.7,74.1c0,8.6,0.1,16.9,0.3,24.9c0.2,8,0.3,16.6,0.3,26c0,3.2,0.1,6.1,0.3,8.8s0.1,5.1-0.3,7.2
		c-0.8,2.1-2,3.9-3.7,5.3c-1.7,1.4-3.4,3.2-5.1,5.3c-0.6,0.8-1.2,1.7-1.8,2.9c-0.6,1.2-1.2,2.4-1.9,3.5c-0.7,1.1-1.4,2.1-2,3.1
		c-0.7,0.9-1.5,1.4-2.4,1.6c-1.2,0.5-3,0.3-5.3-0.5c-2.3-0.8-4.6-1.1-6.7-1.1h-28.2c-2,0-4.2,0.1-6.7,0.3c-2.5,0.2-4.6,0.1-6.2-0.3
		c-0.8,0-1.2-0.1-1.5-0.2c-0.2-0.1-0.5-0.6-0.8-1.4v0.9c0-1.2-0.4-2.1-1.1-2.6c-0.8-0.5-1.5-1-2.3-1.5h-0.7v1.6v0.9
		c0,0.5,0.1,0.7,0.2,0.7h0.5v0.9c0.5,0,0.8,0.2,1.1,0.5c0.1,0.2,0.3,0.2,0.5,0.2h0.9l0.9-0.7c-0.5,0.3-0.9,0.6-1.5,1
		c-0.5,0.4-1.2,0.6-1.9,0.6c-0.8,0-1.4-0.3-2-1c-0.6-0.7-1.2-1.5-1.8-2.5c-0.6-1-1.2-2-1.7-2.9c-0.5-1-1.1-1.8-1.7-2.4
		c-0.6-1.2-1.4-2.3-2.3-3.3c-0.9-1-1.8-1.9-2.7-2.8c-0.9-0.9-1.7-1.8-2.5-2.8c-0.8-1-1.2-2.1-1.4-3.3c-0.8-1.2-1-2.7-0.7-4.5
		c0.3-1.8,0.5-3.8,0.7-5.9c0.3-9.5,0.1-19.6-0.5-30.4c-0.6-10.8-0.8-21.6-0.5-32.4C96,57.9,96.1,48,96,38.2
		c-0.1-9.8,0.1-20.3,0.6-31.6l33.9,2.3c0.1,6.5,0.1,12.9-0.2,19.3c-0.3,6.4-0.6,12.8-0.9,19.2c-0.3,6.4-0.5,12.7-0.6,19
		c-0.1,6.3,0.2,12.4,0.8,18.4c1.1,1.5,1.6,3.4,1.6,5.6c0,1.7-0.2,3.2-0.5,4.7c-0.3,1.5-0.7,3.1-1.1,4.7c-0.3,4.8-0.6,9.8-1,15
		c-0.4,5.2-0.6,10.4-0.6,15.7c1.8,0.5,4,0.7,6.4,0.8c2.5,0.1,5,0,7.7-0.1c2.6-0.1,5.2-0.3,7.8-0.5c2.6-0.1,4.9-0.2,7-0.2
		c-0.6-9.6-1.2-19.7-1.7-30.1c-0.5-10.4-0.9-20.8-1.1-31.3c-0.2-10.5-0.3-20.8-0.3-31.1c0-10.2,0.2-20,0.7-29.4
		c5.3-1.2,10.5-1.9,15.8-2.1c5.3-0.2,10.8-0.6,16.5-1c0.8,10.1,1.1,21,1,32.7C187.7,50,187.7,61.9,187.7,74.1z M99.7,95.2
		c0.5,0,0.6-0.3,0.6-0.8c-0.1-0.5,0.3-0.8,1-0.8c0-0.6-0.5-0.9-1.6-0.9c0.5,0.5,0.6,0.9,0.3,1.2C99.9,94.3,99.7,94.7,99.7,95.2z
		 M101.3,113.7v-0.9c0-0.3-0.2-0.6-0.5-0.8c-0.3-0.2-0.7,0-1.1,0.8c0.5,0,0.8,0.2,0.9,0.5C100.8,113.5,101,113.7,101.3,113.7z
		 M101.3,90.4h-0.7V92c0.3,0,0.5-0.1,0.6-0.2C101.3,91.6,101.3,91.2,101.3,90.4z M119.2,74.1c-0.5,0-0.8,0.1-0.9,0.3
		c-0.2,0.2-0.4,0.1-0.7-0.3c0,0.8,0.3,1.1,1,1.1C119.3,75.3,119.5,74.9,119.2,74.1z M119.9,108.9c0.5,0,0.8-0.2,0.9-0.6
		c0.1-0.4,0.5-0.8,0.9-1.2c-0.9,0-1.4-0.1-1.6-0.5c-0.2-0.3-0.2-0.7-0.2-1.1l-2.3-1.6c0,1.7,0.3,2.7,0.9,3.1
		C119.1,107.4,119.5,108,119.9,108.9z"/>
	<path class="st0" d="M288.9,67.8c-0.2,1.2,0,2.3,0.3,3.3c0.4,1,0.8,2.3,1.2,4c0,2.4-0.2,4.9-0.5,7.6c-0.3,2.6-0.5,5.2-0.5,7.8
		c0,4.4,0,8.8,0,13.3s-0.2,9.4-0.7,14.7c-0.3,3.3-0.5,6.3-0.7,8.8c-0.2,2.6,0.1,5.3,0.7,8.1c0,0.5,0.1,1,0.3,1.7
		c0.2,0.7,0.3,1.2,0.3,1.7c0,1.2-0.3,2.4-0.8,3.6c-0.5,1.2-0.8,2.4-0.8,3.6c-0.3,2.9-0.2,5.8,0.5,8.8c0.6,3,0.8,6,0.5,8.8
		c-1.2,0.3-2,0.2-2.4-0.2c-0.4-0.5-0.9-0.7-1.7-0.7c-4.1,0-7.8-0.4-11.1-1.1c-3.3-0.8-6.6-1.1-9.9-1.1c-2.9,0.3-5.8,0.7-8.8,1.1
		c-3,0.5-6,0.3-8.8-0.5c-0.3-0.1-0.5-0.5-0.5-1.1c0-0.6-0.1-1.2-0.2-1.9c-0.2-0.7-0.3-1.4-0.6-2c-0.2-0.7-0.6-1.1-1.2-1.2
		c0.8-0.5,1-1.3,0.8-2.6c-0.2-1.3-0.5-2.3-0.8-3.1c0.8-1.2,0.9-2.6,0.6-4.2c-0.4-1.6-0.6-3.4-0.6-5.5c0-1.2,0.1-2.2,0.3-3.1
		c0.2-0.8,0.3-1.4,0.3-1.7c-0.3-1.2-0.8-1.8-1.4-1.9c-0.6-0.1-0.9-0.6-0.9-1.5c3.2-0.8,6.2-1.1,9.3-0.9c3,0.2,5.6,0.2,7.7,0.2
		c0.8-1.2,1-2.4,0.8-3.7c-0.2-1.3,0-1.9,0.8-1.9c-0.8-4.8-1-10.4-0.8-16.8c0.2-6.4,0.2-12.6-0.1-18.6c-0.5-9.9-0.9-19.5-1.4-28.8
		c-0.5-9.3-0.5-18.2-0.2-26.8c-2.6-0.8-4.7-1.2-6.6-1.2c-1.8-0.1-3.6,0-5.3,0.1c-1.7,0.2-3.5,0.4-5.4,0.7c-1.9,0.3-4.2,0.5-6.9,0.5
		c-0.3,8.4-0.3,16.7,0.1,24.9c0.4,8.1,0.8,16.2,1.2,24.1s0.8,15.7,1,23.5c0.2,7.8,0,15.6-0.8,23.4c0.5,0.6,1.1,1,1.8,1.2
		c0.8,0.2,1.5,0.5,2.3,0.7c0.8,0.2,1.4,0.6,2,1c0.6,0.5,1,1.1,1.1,2c-0.3,0-0.8-0.1-1.4-0.3c-0.6-0.2-0.9-0.1-0.9,0.3
		c0.3,2.4,0.6,5,1,7.9c0.4,2.9,0.3,6.1-0.3,9.7c0,0.5-0.1,1.1-0.3,1.8c-0.2,0.8-0.3,1.5-0.3,2.3c0,0.8,0.4,1.5,1.1,2.4
		c0.8,0.8,1.1,1.6,1.1,2.4c-5.7,0.8-11.8,0.9-18.1,0.6c-6.3-0.4-12.1-0.6-17.4-0.6c-1.7-16-2.7-31.8-3.1-47.5
		c-0.4-15.7-0.7-31.3-1-46.8c-0.2-6.5,0.3-13.1,1.5-19.8c1.1-6.7,1.5-13.3,1-19.8c-0.3-4.4-0.8-8.5-1.6-12.3
		c-0.8-3.8-0.8-7.8,0-11.9c10.1,0,20.8,0,32.1-0.1c11.3-0.1,22.1-0.3,32.5-0.6c3.2-0.5,6.3-0.6,9.5-0.3s6.2,1.2,9,2.8
		c0.6,2.4,0.8,4.9,0.7,7.3c-0.2,2.5-0.4,5-0.7,7.5c-0.3,2.5-0.5,5-0.7,7.5c-0.2,2.5,0.1,4.9,0.7,7.3c0,0.9,0.3,1.8,0.9,2.6
		c0.6,0.8,1.1,1.8,1.4,3.1c0.5,2.1,0.2,4.3-0.7,6.7c-0.9,2.3-1.2,4.7-0.9,7.1c0,0.8,0.3,1.4,0.8,2c0.5,0.6,0.8,1.3,0.8,2
		c0,1.7-0.2,3.3-0.6,4.9C288.6,64.5,288.6,66.2,288.9,67.8z M212.3,112.1c0,0.3,0.3,0.3,1,0.1c0.7-0.2,0.9-0.6,0.6-1
		C212.8,111.2,212.3,111.5,212.3,112.1z M215.5,83c0.3-0.3,0.6-0.5,1-0.7c0.4-0.1,0.6-0.5,0.6-0.9c-0.8-0.3-1.3-0.2-1.7,0.3
		C215,82.2,215,82.7,215.5,83z M218.6,32.3c0-0.8-0.3-1.3-1-1.7c-0.7-0.4-1.4-0.3-2.1,0.1c0,0.8,0.3,1.2,1,1.4
		C217.1,32.3,217.9,32.3,218.6,32.3z M215.5,41.1v1.6h1.6C217,41.7,216.5,41.1,215.5,41.1z M217,45.9c-0.5,0.5-0.2,0.7,0.8,0.7
		c1,0,1.2-0.2,0.8-0.7c0-0.3-0.2-0.4-0.5-0.2C217.9,45.8,217.5,45.9,217,45.9z M222.7,12.2l-3.2,3.8c0.8,0,1.7-0.5,2.7-1.4
		C223.3,13.8,223.4,13,222.7,12.2z M221.1,25.1c0,0.3,0.1,0.6,0.2,1c0.1,0.4,0.6,0.6,1.4,0.6c0.5-0.5,0.5-0.9,0.1-1.5
		C222.4,24.7,221.9,24.6,221.1,25.1z M222.7,75c0.5,0.3,1,0.3,1.6,0.1c0.6-0.2,0.9-0.6,0.9-1c-0.8,0-1.3-0.4-1.6-1.1
		c-0.3-0.8-0.8-1.1-1.6-1.1c-0.5,0.8-0.3,1.4,0.3,1.8C223,74.1,223.1,74.6,222.7,75z M264.7,144.2c0-0.8,0.1-1.3,0.3-1.6
		c0.2-0.3,0.3-0.8,0.3-1.6c-0.8-0.3-1.4-0.3-2,0.1c-0.6,0.4-1.5,0.3-2.7-0.1c0.3,0.8,0.4,1.2,0.2,1.5c-0.2,0.2-0.2,0.6-0.2,1
		c0.8,0,1.4,0,2,0.1C263.3,143.7,264,143.9,264.7,144.2z M268.8,132.2c0.3-0.5,0.4-0.9,0.2-1.2c-0.2-0.4-0.2-0.8-0.2-1.2
		c-1.2,0-1.8,0.5-1.8,1.6c0.5,0,0.8,0.2,0.9,0.5C268,132.1,268.3,132.2,268.8,132.2z M275.1,148.3h-1.6c0,0.5,0.3,0.8,0.8,0.9
		C274.9,149.3,275.1,149,275.1,148.3z"/>
	<path class="st0" d="M387.7,65.3c-1.7-0.5-3.1-0.5-4.4,0c-1.3,0.5-2.8,0.5-4.4,0c1.2,8.1,2.7,16.3,4.5,24.5
		c1.8,8.2,3.7,16.5,5.5,24.7c1.9,8.3,3.7,16.5,5.5,24.7c1.8,8.2,3.3,16.4,4.5,24.5h-29.2l-7.2-23.5c-1.4-4.4-2.7-8.5-4.1-12.4
		c-1.4-3.9-2.4-7.8-3.2-11.8c0-1.2-0.1-2.1-0.2-2.7c-0.2-0.6-0.1-1.1,0.2-1.4c0-0.5-0.3-0.8-0.8-1c-0.5-0.2-0.8-0.7-0.8-1.5
		c-1.2-6.9-2.5-14-3.7-21.4c-1.3-7.3-3-14.4-5.1-21.4h-7.2c0,8.4,0.3,16.2,0.9,23.2c0.6,7,1.1,14.4,1.4,22c0.5,9,0.5,17.7,0.1,26
		c-0.4,8.3-1.2,16.5-2.4,24.6H328h0.7v-1.6H328h-0.9h-0.7c-0.6,0-0.9,0.2-0.9,0.5c-0.2,0.2-0.2,0.3,0,0.5v0.7h0.9h-5.7
		c-1.7,0-3.4,0.1-5.2,0.3c-1.8,0.2-3.3,0.1-4.5-0.3c-1.4-0.8-2.2-2-2.6-3.6c-0.4-1.7-0.5-3.5-0.5-5.6c0.1-2.1,0.2-4.3,0.5-6.4
		c0.2-2.2,0.3-4.2,0.1-6c0-1.7-0.5-3.2-1.4-4.7c-0.9-1.5-1.5-2.9-1.8-4.1c-0.6-2.4-0.5-5.3,0.3-8.6c0.8-3.3,1.2-6.3,1.2-9
		c0-6.3-0.2-12-0.5-17.1c-0.3-5-0.5-10.4-0.5-16.2c0-3.2-0.1-6.3-0.2-9.5c-0.2-3.2-0.1-6.2,0.2-9c0-0.8,0-1.3-0.1-1.6
		c-0.1-0.3,0.3-0.8,1-1.6c0-0.5-0.2-0.6-0.7-0.6c-0.5,0.1-0.5-0.3-0.2-1c0-7.2,0-15.8,0.1-25.7c0.1-9.9,0.3-19.8,0.8-29.9
		c7.2,0.2,14.7,0.2,22.4,0c7.7-0.1,15.3-0.3,22.9-0.5c7.6-0.1,15-0.3,22.3-0.5c7.2-0.1,14-0.1,20.3,0c-0.8,3.3-0.6,6.3,0.3,8.9
		c1,2.6,1.7,5.6,2.1,8.9c0.3,3.2,0.3,6.6,0,10.4c-0.3,3.8-0.3,7.2,0,10.4c0.1,2.4,0.6,5,1.4,7.8c0.8,2.8,1.2,5.4,1.5,7.9
		c0.2,2.5,0,4.7-0.7,6.6c-0.7,1.9-2.2,3.1-4.6,3.7c-1.2,0.3-2.4,0.2-3.6-0.2C390.1,65.6,388.9,65.3,387.7,65.3z M315.1,18.5
		c1.2,0.5,2.1,0.5,2.6,0c0.5-0.5,0.8-0.9,0.8-1.5c0-0.5-0.3-0.8-0.8-0.9c-0.5-0.1-1.2,0.5-1.9,1.7c-0.3,0-0.6-0.1-0.9-0.2
		C314.6,17.5,314.7,17.8,315.1,18.5z M315.1,25.1v0.7c0.3,0,0.6,0.1,1,0.2c0.4,0.2,0.6-0.1,0.6-0.9c0-0.5-0.2-0.6-0.6-0.3
		C315.8,25,315.4,25.1,315.1,25.1z M366.6,38c0.5-2.1,0.7-4,0.8-5.7c0.1-1.7,0.1-3.5,0.1-5.6c-3.3-0.5-6.7-0.6-10.3-0.3
		c-3.5,0.2-7.1,0.3-10.7,0.3c-0.5-0.5-0.6-1-0.6-1.6c0.1-0.6-0.3-0.9-1-0.9c-0.5,0.8-0.5,1,0,0.7c0.5-0.3,0.7-0.2,0.7,0.2v0.7
		c-1.7,0.8-3.1,1.1-4.4,1.1c-1.3,0-2.8,0.2-4.4,0.5c0,1.7,0.1,3.4,0.5,5.3c0.3,1.9,0.5,3.7,0.5,5.3C347.8,38.6,357.5,38.6,366.6,38z
		"/>
	<path class="st0" d="M474,138.8l1.8,24.9c-11.3-0.9-22.1-1.1-32.4-0.5c-10.3,0.6-20.5,0.8-30.6,0.5c0-5.3,0.1-10.6,0.2-15.9
		c0.1-5.3,0.6-10.2,1.4-14.6c1.7-0.5,3.4-0.5,5.3-0.1c1.9,0.4,3.7,0.4,5.3,0.1c0.3-5.3,0.6-10.1,1-14.6c0.4-4.4,0.6-9.3,0.6-14.6
		c0.3-0.8,0.8-0.8,1.5-0.2c0.7,0.6,1.2,0.7,1.7,0.2c0-0.6-0.2-1-0.5-1.1c-0.3-0.1-0.7-0.3-1.1-0.3c-0.5-0.1-0.8-0.1-1.1-0.2
		c-0.3-0.1-0.5-0.3-0.5-0.8c0.3-6.8,0.5-13.8,0.6-21c0.1-7.2,0.1-14.7,0.1-22.4c0-0.6,0.5-0.9,1.6-0.9c0-0.8-0.3-1.1-0.8-1
		c-0.5,0.1-0.8-0.1-0.8-0.6c0-1.2,0-2.3,0.1-3.4c0.1-1.1,0.3-1.8,0.8-2.3c-0.8-2.1-0.9-4.5-0.6-7.2c0.4-2.7,0.6-5.6,0.6-8.8
		c-1.7-0.3-4-0.3-7,0c-3,0.3-5.5,0.3-7.5,0l1.6-29.8c6.5-0.5,13.8-0.5,21.9-0.1c8.1,0.4,15.9,0.1,23.3-0.8c2.9-0.3,5.5-0.6,7.8-1
		c2.3-0.4,5.1-0.6,8.2-0.6v32.3H457c-0.3,15.5-0.6,31.5-1,47.8c-0.4,16.3-0.6,33.2-0.6,50.5c3.3,0.5,6.5,0.6,9.6,0.3
		c3.1-0.2,6.1-0.3,8.9-0.3v4.7h-1.6h-0.7v0.9c0,0.8,0.1,1.2,0.3,1.5c0.2,0.2,0.3,0.6,0.3,1h0.9v-0.9h0.2
		C473.8,139.5,474,139.2,474,138.8z M433.8,23.5c0.3,0.3,0.6,0.4,1,0.3c0.4-0.1,0.6-0.5,0.6-1.2c0,0.5-0.3,0.6-0.8,0.5
		C434,22.9,433.8,23.1,433.8,23.5z M442.6,10.4H441c0,0.9,0.4,1.4,1.1,1.4C442.9,11.8,443,11.3,442.6,10.4z M443.5,42l-2.5-1.8
		c0,1.7,0.3,2.7,0.9,3.2c0.6,0.5,1.1,1.1,1.6,1.8c0.3,0,0.5-0.2,0.7-0.6c0.1-0.4,0.5-0.7,0.9-1c-0.8,0-1.2-0.2-1.4-0.6
		C443.6,42.7,443.5,42.4,443.5,42z M443.5,87.9c0.8,0.3,1.2,0.2,1.4-0.3c0.1-0.5,0.2-0.9,0.2-1.2c-0.8,0-1.2,0.2-1.4,0.5
		C443.6,87.1,443.5,87.5,443.5,87.9z M449.1,47.7c0.3,0.3,0.6,0.3,1,0.1c0.4-0.2,0.6-0.6,0.6-1c-0.8-0.5-1.2-0.5-1.4-0.2
		C449.2,46.9,449.1,47.2,449.1,47.7z M450.7,50.9v-1.6c-0.5,0-0.8,0.1-0.9,0.3c-0.2,0.2-0.4,0.3-0.7,0.3
		C449.1,50.6,449.7,50.9,450.7,50.9z M451.4,25.8c0.5,0.5,1,0.6,1.6,0.6c0.6-0.1,0.9-0.5,0.9-1.2c-0.3-0.5-0.8-0.5-1.5-0.2
		C451.7,25.2,451.4,25.5,451.4,25.8z M454.8,151.7c1.1,0,1.6-0.3,1.6-0.9l-0.9-0.9c0,0.5-0.1,0.8-0.3,0.9
		C454.9,150.9,454.8,151.2,454.8,151.7z M461.1,12.9h-1.6v0.9c0-0.5,0.3-0.6,0.8-0.5C460.8,13.5,461.1,13.3,461.1,12.9z M462,153.9
		c0.3-0.3,0.6-0.6,1-0.8c0.4-0.2,0.6-0.7,0.6-1.5c-0.8,0-1.3,0.3-1.7,0.9C461.5,153.2,461.6,153.6,462,153.9z"/>
	<path class="st0" d="M568.7,128.2c1.2-1.2,3-1.5,5.4-1c2.4,0.5,4.6,0.6,6.6,0.3v31.4c-5.4,0.2-11.5,0.2-18.1,0
		c-6.6-0.1-13.4-0.3-20.2-0.3c-6.9-0.1-13.7-0.1-20.5,0c-6.8,0.1-13,0.4-18.5,1c-1.4-1.4-2.6-2.9-3.7-4.5c-1.1-1.7-2.2-3.3-3.3-5
		c-1.1-1.7-2.2-3.2-3.4-4.7c-1.2-1.5-2.6-2.9-4.3-4.3c0-0.3,0.3-0.5,1-0.7c0.7-0.1,1.2-0.5,1.5-0.9c-0.3-0.3-0.7-0.3-1.1,0.1
		c-0.5,0.4-0.9,0.3-1.4-0.1c0.9-13.7,1.1-27.6,0.7-41.6c-0.5-14-0.7-29.2-0.7-45.4c0-5.7-0.1-11.4-0.2-17
		c-0.2-5.6-0.1-11.2,0.2-16.9c0.5-2.9,0.7-5.8,0.7-8.7s0.6-5.7,1.8-8.2L524.4,0c0.8,0,0.9,0.2,0.6,0.7c-0.4,0.5-0.6,1.1-0.6,1.8
		c-0.5,2.4-0.6,5-0.3,7.8c0.2,2.8,0.5,5.5,0.7,8.1c0.2,2.6,0.2,5.1,0,7.5c-0.2,2.3-0.9,4.2-2.1,5.5c0.5,4.4,1,9.5,1.6,15.3
		c0.6,5.8,0.9,11.7,0.9,17.7c-0.2,1.8-0.5,3.7-0.9,5.8c-0.5,2-0.8,4-1.1,5.9c-0.3,1.9-0.4,3.7-0.3,5.5c0.1,1.8,0.6,3.4,1.7,4.7
		c-1.7,6.8-2.6,13.8-2.8,21.1c-0.2,7.3-0.9,14.2-2.1,20.7c7.5,1.5,15.2,2,23.1,1.6C550.3,129.3,559,128.8,568.7,128.2z M499.3,7.2
		c0-0.3,0-0.6-0.1-0.9c-0.1-0.3-0.3-0.2-0.8,0.2c-0.3,0-0.3,0.1-0.1,0.3C498.5,7.1,498.8,7.2,499.3,7.2z M509.7,82.3h-1.6v1.6
		C509.2,83.9,509.7,83.3,509.7,82.3z M509.7,52.4c0.5,0.8,0.5,1.2,0,1.2c-0.5,0.1-0.7,0.5-0.7,1.2c1.1-0.5,1.7-0.3,1.9,0.5
		c0.2,0.8,0.9,1.1,2.1,1.1c0.3-0.5,0.5-1,0.6-1.7c0.1-0.7,0.1-1.2,0.1-1.5c-0.8-0.5-1.4-0.6-2-0.5C511.1,53,510.5,52.9,509.7,52.4z
		 M516.3,70.1c0.8-2,0.6-3.3-0.5-4.1c-1.1-0.8-2-1.5-2.7-2.3h-0.5c-0.3,0-0.5,0.2-0.5,0.7l2.5,2.5c-0.8,0.8-1.6,1.2-2.5,1.2
		c-0.9,0.1-1.7,0.7-2.5,1.9c1.7,0,3-0.3,4-0.9C514.6,68.6,515.5,68.9,516.3,70.1z M514.7,37.1c-0.8,0-1.3,0.3-1.6,0.9
		c-0.3,0.6-0.9,1.1-1.8,1.6c0.9,0.3,1.7,0.3,2.4-0.1C514.3,39.1,514.7,38.3,514.7,37.1z M512.2,87.9c1.1,0,1.6-0.3,1.6-0.9
		C512.7,87,512.2,87.3,512.2,87.9z M516.3,63.7c0.8-0.5,0.9-0.8,0.5-1.1c-0.5-0.3-0.9-0.5-1.4-0.5c0.3,0.3,0.5,0.5,0.5,0.7
		c0,0.2,0.1,0.3,0.2,0.5C516,63.4,516.1,63.6,516.3,63.7z M516.3,59.7c0.8,0,1.3,0.1,1.7,0.2c0.4,0.2,0.3,0.6-0.1,1.4
		c0.8,0,1.2-0.1,1.5-0.5c0.2-0.3,0.6-0.7,1-1.1c-0.8-0.5-1.5-0.9-2.4-1.2C517.1,58.1,516.6,58.5,516.3,59.7z M519.4,99.2
		c-0.3-0.5-0.4-1-0.3-1.6c0.1-0.6,0-0.9-0.3-0.9c-0.5,0.5-0.6,1-0.6,1.6C518.2,98.9,518.7,99.2,519.4,99.2z"/>
	<path class="st0" d="M672,156.4c0,1.7,0.2,3.1,0.6,4.3c0.4,1.2,0.2,2.2-0.6,2.9c-4.1,0-8.2,0-12.3,0.1c-4.1,0.1-7.8-0.3-11-1
		c0-0.5-0.3-0.7-0.9-0.7h-0.9h-0.7v0.7c-0.6,0.6-1.7,0.9-3.2,0.9c-0.5-0.5-1.1-0.5-2-0.2c-0.9,0.3-1.4,0.1-1.4-0.7
		c-1.7,0.5-3.4,0.9-5.2,1.4c-1.8,0.5-3.3,0.3-4.5-0.5c-0.3,0-0.7,0-1.1,0.1c-0.5,0.1-0.8,0.1-1.1,0.1c-6.9,0.3-13.3,0.4-19.1,0.2
		c-5.8-0.2-11.6-0.2-17.3-0.2c-0.8-8.1-1.3-15.9-1.7-23.2c-0.4-7.3-0.3-14.4,0.1-21.4c0.5-5.7,0.5-11.5,0.1-17.3
		c-0.4-5.8-0.4-11.3-0.1-16.6c0.1-1.7,0.4-3.2,0.7-4.7c0.3-1.5,0.6-2.9,0.9-4.1c-0.6-1.8-0.9-3.5-1-5.2c-0.1-1.7,0-3.3,0.1-5
		c0.1-1.7,0.2-3.4,0.2-5.1c0-1.7-0.3-3.7-0.9-5.8c0.8-3.8,1.1-8.1,1.1-12.9c0-4.8-0.1-9.7-0.2-14.6c-0.2-4.9-0.1-9.6,0.1-14.1
		c0.2-4.5,0.9-8.4,2.1-11.5c2.9,0,5.7,0,8.5-0.1c2.8-0.1,5.6-0.3,8.5-0.8c5-0.1,10.2-0.3,15.7-0.5C631,1,636.5,1,641.9,1
		c5.4,0.1,10.8,0.3,16,0.8c5.3,0.5,10.2,1.2,14.9,2.3c0,4.8-0.2,10-0.5,15.6c-0.3,5.6-0.5,10.5-0.5,14.9c-3.6-1.8-7.5-2.9-11.8-3.3
		c-4.2-0.4-8.6-0.5-13.1-0.2c-4.5,0.2-9,0.5-13.6,0.9c-4.5,0.4-8.9,0.5-13.1,0.3c-0.9,5.3-1.2,10.8-1,16.7s0.6,11,1,15.4
		c2,0.5,4.2,0.4,6.7-0.1c2.5-0.5,4.8-0.2,6.9,1c0.5-0.5,0.5-0.7,0.1-0.8c-0.4-0.1-0.9-0.1-1.7-0.1c0.5-0.3,1.1-0.4,1.8-0.3
		c0.8,0.1,1,0.5,0.7,1.2c2.9-1.7,6.2-2.5,10.2-2.6c3.9-0.1,7.5-0.3,10.8-0.6c0.5,2.9,0.6,5.6,0.6,8.1c-0.1,2.6-0.2,5.1-0.2,7.7
		c-0.1,2.6-0.2,5.2-0.2,7.8c-0.1,2.6,0.1,5.5,0.6,8.5c-6.5,0.5-12.4,0.8-17.9,1.1c-5.4,0.3-11.5,0.5-18.3,0.5
		c0.8,6.3,0.8,12.5,0.2,18.6c-0.6,6.1-0.7,12.3-0.2,18.6c9.6,0,18.9,0.1,27.9,0.2c9,0.2,17.1,0.1,24.5-0.2c0.3,3.2,0.1,6.9-0.6,11.3
		C671.6,148.8,671.5,152.8,672,156.4z M601.7,108c-0.5,0.8-0.7,1.3-0.7,1.6h1.6C602.6,108.6,602.3,108,601.7,108z M602.6,112.8
		c0,0.5,0.4,0.7,1.2,0.7c0.8,0,1.2-0.2,1.2-0.7c-0.5-0.3-0.9-0.4-1.2-0.2C603.4,112.7,603,112.8,602.6,112.8z M605.1,83
		c0.5,0,1-0.1,1.6-0.3c0.6-0.2,1.2-0.5,1.7-0.9c0.5-0.4,0.9-0.8,1.1-1.2c0.2-0.5,0.1-0.9-0.3-1.4c-0.9,0.8-1.7,1.4-2.5,1.9
		C605.9,81.6,605.4,82.2,605.1,83z M606.7,92c0,1.1,0.5,1.6,1.6,1.6c0.5-0.5,0.5-0.9,0.1-1.5C608,91.6,607.4,91.5,606.7,92z
		 M608.2,141.9c0.5,0.3,1,0.3,1.6,0c0.6-0.3,0.9-0.8,0.9-1.6c-0.8,0.3-1.2,0.1-1.5-0.6c-0.2-0.7-0.6-1-1-1c-0.5,0.8-0.4,1.4,0.2,1.8
		C609.1,141,609,141.5,608.2,141.9z M626.1,22.6c-0.6,0-0.9,0.2-0.9,0.5c-0.2,0.2-0.2,0.3,0,0.5c0.6,0,0.9,0.5,0.9,1.6
		c0.5,0,1-0.3,1.6-0.9c-0.5-0.3-0.8-0.5-1.1-0.5C626.2,23.7,626.1,23.4,626.1,22.6z M634,5.7c-0.3,0-0.6,0.1-1,0.2
		c-0.4,0.2-0.6,0.6-0.6,1.4c0.5,0.5,0.9,0.5,1.5,0.1C634.4,7,634.4,6.4,634,5.7z M636.5,17c0,0.5-0.2,0.9-0.5,1.2
		c-0.3,0.4-0.5,0.8-0.5,1.2c0.9-0.5,1.5-0.6,1.7-0.5c0.2,0.2,0.5,0,0.8-0.5h-0.5c-0.2,0-0.2-0.2-0.2-0.7c-0.2-0.1-0.2-0.3-0.2-0.5
		C636.9,17.1,636.6,17,636.5,17z M638.1,21h-2.5c0,0.8,0.5,1.2,1.6,1.5C638.2,22.7,638.5,22.2,638.1,21z M641.2,16.1
		c-0.8-0.3-1.4-0.2-1.8,0.3c-0.5,0.5-0.9,1-1.4,1.5c0.5,0,0.6,0.3,0.6,0.8c-0.1,0.5,0.3,0.8,1,0.8c0.5-0.5,0.8-0.9,1.1-1.4
		C641.1,17.6,641.2,17,641.2,16.1z M639.6,12.9v1.6c0.5,0,1,0,1.6-0.1c0.6-0.1,0.9-0.3,0.9-0.6c-0.5,0-0.8-0.1-1-0.5
		C640.9,13,640.4,12.9,639.6,12.9z M642.8,19.4c0,0.8,0.1,1.1,0.5,0.9c0.3-0.1,0.7-0.2,1.1-0.2C644.4,19.7,643.9,19.4,642.8,19.4z"
		/>
	<path class="st0" d="M808.5,140.4v4.7v18.5c-5.7,0-11.6,0.2-17.5,0.7c-6,0.5-11.9,0.3-18-0.5c-2.6-0.3-5.2-0.3-7.9-0.1
		c-2.7,0.2-5.5,0.2-8.4-0.1c-7.2,0-15,0-23.2,0.1c-8.2,0.1-15.8,0.1-22.7,0.1c-0.6,0-2,0-4.2,0.1c-2.2,0.1-4.5,0.1-7,0.2
		c-2.5,0.1-4.7,0.1-6.8,0.1s-3.3-0.2-3.7-0.5c-0.9,0-1.4-0.8-1.6-2.5c-0.2-1.7-0.2-3.5-0.1-5.7c0.1-2.1,0.2-4.3,0.5-6.4
		c0.2-2.2,0.3-3.9,0.3-5.1c-0.5-3.2-0.6-6.2-0.5-9c0.1-2.9,0.3-5.7,0.5-8.6c0.5-7.1,0.8-14.5,1-22.4c0.2-7.8,0.4-15.7,0.5-23.5
		c0.1-7.8,0.1-15.5,0.1-22.9s0-14.4,0-20.7c0-1.2,0-3.3-0.1-6.2c-0.1-2.9-0.1-6-0.1-9.2c0-3.2,0-6.1,0-8.7c0-2.6,0.1-4.3,0.2-4.9
		c0.1-0.8,1-1.2,2.6-1.5s3.4-0.4,5.3-0.6c2-0.1,3.8-0.3,5.5-0.6c1.7-0.2,2.9-0.7,3.5-1.5l68.7-3.2h9.5c-0.2,2.4-0.4,5-0.7,7.7
		c-0.3,2.7-0.5,5.5-0.7,8.2c-0.2,2.8-0.2,5.5,0,8.1c0.1,2.6,0.6,5.1,1.4,7.3c-2,0.8-3.9,1.2-5.8,1.4c-1.9,0.2-4.3,0.2-7.1,0.2
		c-8.7-0.9-16.9-1.3-24.4-1.1c-7.5,0.2-15.5,0.2-24,0.2c-0.3,6.5,0,13.1,0.8,20c0.8,6.9,0.9,13.9,0.1,21.1c-0.8,3.3-1.4,6.6-1.8,9.8
		c-0.5,3.2,0.1,5.9,1.8,8c-1.7,7.2-2.7,14.1-3.2,20.5c-0.5,6.4-1.1,13.3-1.8,20.7c3.6,1.2,7.5,1.8,11.5,1.9c4.1,0.1,8.3,0,12.7-0.3
		c5.3-0.3,10.5-0.6,15.6-1c5.1-0.4,9.9-1.2,14.2-2.4c-0.3-5.3-0.2-10,0.2-14.2c0.5-4.2,0.7-8.3,0.7-12.2c0-0.6,0.5-0.9,1.6-0.9
		c-1.2-0.3-1.6-0.9-1.1-1.7c0.5-0.8,0.3-1.8-0.5-3.1h-13.8v-1.6h-3.2v0.7l0.9,0.9h-21c0-1.8,0-4.1,0.1-6.9c0.1-2.8,0.1-5.7,0.2-8.7
		c0.1-3,0.1-6,0.2-8.9c0.1-2.9,0.1-5.5,0.1-7.8c8.1,0,16.8,0.3,26.1,0.9c9.3,0.6,18.6,1.1,28.1,1.6l16,22.6c0,8.6,0,16.5,0.1,23.7
		c0.1,7.2,0.3,14.9,0.8,23.1c-0.6,0.5-1.1,0.6-1.5,0.6c-0.4-0.1-0.7-0.2-0.9-0.5c-0.2-0.2-0.5-0.4-0.7-0.6c-0.2-0.1-0.6,0-1,0.5
		c0,0.8,0.1,1.2,0.5,1.4c0.3,0.2,0.7,0.2,1.1,0c0.5-0.1,0.8-0.3,1.1-0.3C808.3,139.7,808.5,139.9,808.5,140.4z M709.9,58.1l-1.6-1.6
		c0,0.8-0.1,1.2-0.3,1.5c-0.2,0.2-0.3,0.5-0.3,0.8c0.3,0.5,0.6,0.3,0.8-0.3C708.7,57.8,709.2,57.6,709.9,58.1z M707.7,156.4
		c0.3,0,0.7-0.1,1.1-0.5c0.5-0.3,0.8-0.5,1.1-0.5c-0.3-0.3-0.6-0.5-1-0.5c-0.4,0-0.6-0.4-0.6-1.1c-0.5,0-0.7,0.3-0.7,0.9
		c0.3,0,0.4,0.2,0.2,0.5C707.7,155.6,707.7,156,707.7,156.4z M715.6,66.9h-2.3c0.5,0.6,1,0.9,1.6,0.9c0,0.2,0.1,0.2,0.2,0
		C715.4,67.8,715.6,67.5,715.6,66.9z M714,137.9c0.5,0.5,1,0.6,1.6,0.6c0.6-0.1,0.9-0.6,0.9-1.5c-0.5,0-1,0-1.6,0.1
		C714.3,137.2,714,137.4,714,137.9z M719,149.2v-0.9c-0.5,0.5-0.7,0.8-0.8,1c-0.1,0.2-0.1,0.7-0.1,1.5c0.5-0.5,0.9-0.6,1.2-0.5
		c0.4,0.2,0.8,0,1.2-0.5c0-0.3-0.3-0.4-0.8-0.3C719.2,149.6,719,149.5,719,149.2z M718.1,152.3c0,0.5,0.5,0.8,1.5,0.9
		c1,0.2,1.3-0.1,1-0.9c-0.5-0.3-0.8-0.4-1-0.2C719.3,152.3,718.8,152.3,718.1,152.3z M722.1,150.8c0.5-0.5,0.8-0.9,1.1-1.4
		c0.3-0.5,0.5-1.1,0.5-1.8c-0.8-0.8-1.4-0.9-1.9-0.5c-0.5,0.5-0.9,0.8-1.2,1.1c0.3,0.5,0.5,1,0.5,1.6
		C721,150.5,721.4,150.8,722.1,150.8z M722.1,144.2v0.9c0.5,0.5,1,0.7,1.6,0.7c0.6,0,0.9-0.2,0.9-0.7c-0.5,0-0.8-0.1-1-0.5
		C723.4,144.4,722.9,144.2,722.1,144.2z M725.3,150.8c0,0.6,0.5,0.9,1.6,0.9C726.9,151.1,726.4,150.8,725.3,150.8z M738.2,160.5
		c0,0.3,0.4,0.3,1.2,0.1c0.8-0.2,1.2-0.6,1.2-1c-0.5,0-1,0-1.6,0.1C738.5,159.8,738.2,160,738.2,160.5z M740.7,141.9
		c0,0.3,0.4,0.5,1.2,0.5c0.8,0,1.2-0.1,1.2-0.5c-0.5,0-0.8-0.1-0.9-0.2c-0.3,0-0.6,0-0.8-0.1C741.2,141.5,741,141.6,740.7,141.9z
		 M753.5,148.3h0.9c0.3,0,0.5-0.3,0.5-0.8c0-0.5-0.2-0.8-0.5-0.8c-0.5,0.5-0.8,0.8-1,0.9C753.2,147.7,753.2,148,753.5,148.3z
		 M753.5,146.7c1.5-0.6,2.6-1.7,3.2-3.2c-0.8,0-1.5,0.3-2.1,1C753.9,145.2,753.5,145.9,753.5,146.7z M769.8,137.9
		c0.8,0,1.2-0.1,1.4-0.2c0.1-0.1,0.2-0.6,0.2-1.4h-0.9c0,0.3-0.1,0.5-0.3,0.7C769.9,137.1,769.8,137.4,769.8,137.9z M770.5,159.6
		c0-0.5,0.1-0.7,0.5-0.7h0.5c-0.5-0.5-0.8-0.8-1.1-0.9c-0.3-0.1-0.5,0.2-0.5,0.9c0.3,0,0.4,0.1,0.3,0.3
		C770.1,159.5,770.2,159.6,770.5,159.6z M780.2,133.1c0,0.3,0.3,0.4,0.8,0.3c0.5-0.1,0.8-0.5,0.8-1.2c-0.3,0.5-0.6,0.6-1,0.5
		C780.4,132.5,780.2,132.7,780.2,133.1z"/>
	<path class="st0" d="M943.2,140.4v4.7v18.5c-5.7,0-11.6,0.2-17.5,0.7c-6,0.5-11.9,0.3-18-0.5c-2.6-0.3-5.2-0.3-7.9-0.1
		c-2.7,0.2-5.5,0.2-8.4-0.1c-7.2,0-15,0-23.2,0.1c-8.2,0.1-15.8,0.1-22.7,0.1c-0.6,0-2,0-4.2,0.1c-2.2,0.1-4.5,0.1-7,0.2
		c-2.5,0.1-4.7,0.1-6.8,0.1s-3.3-0.2-3.7-0.5c-0.9,0-1.4-0.8-1.6-2.5c-0.2-1.7-0.2-3.5-0.1-5.7c0.1-2.1,0.2-4.3,0.5-6.4
		c0.2-2.2,0.3-3.9,0.3-5.1c-0.5-3.2-0.6-6.2-0.5-9c0.1-2.9,0.3-5.7,0.5-8.6c0.5-7.1,0.8-14.5,1-22.4c0.2-7.8,0.4-15.7,0.5-23.5
		c0.1-7.8,0.1-15.5,0.1-22.9s0-14.4,0-20.7c0-1.2,0-3.3-0.1-6.2c-0.1-2.9-0.1-6-0.1-9.2c0-3.2,0-6.1,0-8.7c0-2.6,0.1-4.3,0.2-4.9
		c0.1-0.8,1-1.2,2.6-1.5s3.4-0.4,5.3-0.6c2-0.1,3.8-0.3,5.5-0.6c1.7-0.2,2.9-0.7,3.5-1.5l68.7-3.2h9.5c-0.2,2.4-0.4,5-0.7,7.7
		c-0.3,2.7-0.5,5.5-0.7,8.2c-0.2,2.8-0.2,5.5,0,8.1c0.1,2.6,0.6,5.1,1.4,7.3c-2,0.8-3.9,1.2-5.8,1.4c-1.9,0.2-4.3,0.2-7.1,0.2
		c-8.7-0.9-16.9-1.3-24.4-1.1c-7.5,0.2-15.5,0.2-24,0.2c-0.3,6.5,0,13.1,0.8,20c0.8,6.9,0.9,13.9,0.1,21.1c-0.8,3.3-1.4,6.6-1.8,9.8
		c-0.5,3.2,0.1,5.9,1.8,8c-1.7,7.2-2.7,14.1-3.2,20.5c-0.5,6.4-1.1,13.3-1.8,20.7c3.6,1.2,7.5,1.8,11.5,1.9c4.1,0.1,8.3,0,12.7-0.3
		c5.3-0.3,10.5-0.6,15.6-1c5.1-0.4,9.9-1.2,14.2-2.4c-0.3-5.3-0.2-10,0.2-14.2c0.5-4.2,0.7-8.3,0.7-12.2c0-0.6,0.5-0.9,1.6-0.9
		c-1.2-0.3-1.6-0.9-1.1-1.7c0.5-0.8,0.3-1.8-0.5-3.1h-13.8v-1.6h-3.2v0.7l0.9,0.9h-21c0-1.8,0-4.1,0.1-6.9c0.1-2.8,0.1-5.7,0.2-8.7
		c0.1-3,0.1-6,0.2-8.9c0.1-2.9,0.1-5.5,0.1-7.8c8.1,0,16.8,0.3,26.1,0.9c9.3,0.6,18.6,1.1,28.1,1.6l16,22.6c0,8.6,0,16.5,0.1,23.7
		c0.1,7.2,0.3,14.9,0.8,23.1c-0.6,0.5-1.1,0.6-1.5,0.6c-0.4-0.1-0.7-0.2-0.9-0.5c-0.2-0.2-0.5-0.4-0.7-0.6c-0.2-0.1-0.6,0-1,0.5
		c0,0.8,0.1,1.2,0.5,1.4c0.3,0.2,0.7,0.2,1.1,0c0.5-0.1,0.8-0.3,1.1-0.3C943,139.7,943.2,139.9,943.2,140.4z M844.6,58.1l-1.6-1.6
		c0,0.8-0.1,1.2-0.3,1.5c-0.2,0.2-0.3,0.5-0.3,0.8c0.3,0.5,0.6,0.3,0.8-0.3C843.4,57.8,843.9,57.6,844.6,58.1z M842.4,156.4
		c0.3,0,0.7-0.1,1.1-0.5c0.5-0.3,0.8-0.5,1.1-0.5c-0.3-0.3-0.6-0.5-1-0.5c-0.4,0-0.6-0.4-0.6-1.1c-0.5,0-0.7,0.3-0.7,0.9
		c0.3,0,0.4,0.2,0.2,0.5C842.4,155.6,842.4,156,842.4,156.4z M850.3,66.9H848c0.5,0.6,1,0.9,1.6,0.9c0,0.2,0.1,0.2,0.2,0
		C850.1,67.8,850.3,67.5,850.3,66.9z M848.7,137.9c0.5,0.5,1,0.6,1.6,0.6c0.6-0.1,0.9-0.6,0.9-1.5c-0.5,0-1,0-1.6,0.1
		C849,137.2,848.7,137.4,848.7,137.9z M853.7,149.2v-0.9c-0.5,0.5-0.7,0.8-0.8,1c-0.1,0.2-0.1,0.7-0.1,1.5c0.5-0.5,0.9-0.6,1.2-0.5
		c0.4,0.2,0.8,0,1.2-0.5c0-0.3-0.3-0.4-0.8-0.3C853.9,149.6,853.7,149.5,853.7,149.2z M852.8,152.3c0,0.5,0.5,0.8,1.5,0.9
		c1,0.2,1.3-0.1,1-0.9c-0.5-0.3-0.8-0.4-1-0.2C854,152.3,853.5,152.3,852.8,152.3z M856.8,150.8c0.5-0.5,0.8-0.9,1.1-1.4
		c0.3-0.5,0.5-1.1,0.5-1.8c-0.8-0.8-1.4-0.9-1.9-0.5c-0.5,0.5-0.9,0.8-1.2,1.1c0.3,0.5,0.5,1,0.5,1.6
		C855.7,150.5,856.1,150.8,856.8,150.8z M856.8,144.2v0.9c0.5,0.5,1,0.7,1.6,0.7c0.6,0,0.9-0.2,0.9-0.7c-0.5,0-0.8-0.1-1-0.5
		C858.1,144.4,857.6,144.2,856.8,144.2z M860,150.8c0,0.6,0.5,0.9,1.6,0.9C861.6,151.1,861,150.8,860,150.8z M872.9,160.5
		c0,0.3,0.4,0.3,1.2,0.1c0.8-0.2,1.2-0.6,1.2-1c-0.5,0-1,0-1.6,0.1C873.2,159.8,872.9,160,872.9,160.5z M875.4,141.9
		c0,0.3,0.4,0.5,1.2,0.5c0.8,0,1.2-0.1,1.2-0.5c-0.5,0-0.8-0.1-0.9-0.2c-0.3,0-0.6,0-0.8-0.1C875.9,141.5,875.7,141.6,875.4,141.9z
		 M888.2,148.3h0.9c0.3,0,0.5-0.3,0.5-0.8c0-0.5-0.2-0.8-0.5-0.8c-0.5,0.5-0.8,0.8-1,0.9C887.9,147.7,887.9,148,888.2,148.3z
		 M888.2,146.7c1.5-0.6,2.6-1.7,3.2-3.2c-0.8,0-1.5,0.3-2.1,1C888.6,145.2,888.2,145.9,888.2,146.7z M904.5,137.9
		c0.8,0,1.2-0.1,1.4-0.2c0.1-0.1,0.2-0.6,0.2-1.4h-0.9c0,0.3-0.1,0.5-0.3,0.7C904.6,137.1,904.5,137.4,904.5,137.9z M905.2,159.6
		c0-0.5,0.1-0.7,0.5-0.7h0.5c-0.5-0.5-0.8-0.8-1.1-0.9c-0.3-0.1-0.5,0.2-0.5,0.9c0.3,0,0.4,0.1,0.3,0.3
		C904.8,159.5,904.9,159.6,905.2,159.6z M914.9,133.1c0,0.3,0.3,0.4,0.8,0.3c0.5-0.1,0.8-0.5,0.8-1.2c-0.3,0.5-0.6,0.6-1,0.5
		C915.1,132.5,914.9,132.7,914.9,133.1z"/>
	<path class="st0" d="M1038.5,156.4c0,1.7,0.2,3.1,0.6,4.3c0.4,1.2,0.2,2.2-0.6,2.9c-4.1,0-8.2,0-12.3,0.1c-4.1,0.1-7.8-0.3-11-1
		c0-0.5-0.3-0.7-0.9-0.7h-0.9h-0.7v0.7c-0.6,0.6-1.7,0.9-3.2,0.9c-0.5-0.5-1.1-0.5-2-0.2c-0.9,0.3-1.4,0.1-1.4-0.7
		c-1.7,0.5-3.4,0.9-5.2,1.4c-1.8,0.5-3.3,0.3-4.5-0.5c-0.3,0-0.7,0-1.1,0.1c-0.5,0.1-0.8,0.1-1.1,0.1c-6.9,0.3-13.3,0.4-19.1,0.2
		c-5.8-0.2-11.6-0.2-17.3-0.2c-0.8-8.1-1.3-15.9-1.7-23.2c-0.4-7.3-0.3-14.4,0.1-21.4c0.5-5.7,0.5-11.5,0.1-17.3
		c-0.4-5.8-0.4-11.3-0.1-16.6c0.1-1.7,0.4-3.2,0.7-4.7c0.3-1.5,0.6-2.9,0.9-4.1c-0.6-1.8-0.9-3.5-1-5.2c-0.1-1.7,0-3.3,0.1-5
		c0.1-1.7,0.2-3.4,0.2-5.1c0-1.7-0.3-3.7-0.9-5.8c0.8-3.8,1.1-8.1,1.1-12.9c0-4.8-0.1-9.7-0.2-14.6c-0.2-4.9-0.1-9.6,0.1-14.1
		s0.9-8.4,2.1-11.5c2.9,0,5.7,0,8.5-0.1c2.8-0.1,5.6-0.3,8.5-0.8c5-0.1,10.2-0.3,15.7-0.5c5.5-0.1,11-0.2,16.4-0.1
		c5.4,0.1,10.8,0.3,16,0.8c5.3,0.5,10.2,1.2,14.9,2.3c0,4.8-0.2,10-0.5,15.6c-0.3,5.6-0.5,10.5-0.5,14.9c-3.6-1.8-7.5-2.9-11.8-3.3
		c-4.2-0.4-8.6-0.5-13.1-0.2c-4.5,0.2-9,0.5-13.6,0.9c-4.5,0.4-8.9,0.5-13.1,0.3c-0.9,5.3-1.2,10.8-1,16.7c0.2,5.9,0.6,11,1,15.4
		c2,0.5,4.2,0.4,6.7-0.1c2.5-0.5,4.8-0.2,6.9,1c0.5-0.5,0.5-0.7,0.1-0.8c-0.4-0.1-0.9-0.1-1.7-0.1c0.5-0.3,1.1-0.4,1.8-0.3
		c0.8,0.1,1,0.5,0.7,1.2c2.9-1.7,6.3-2.5,10.2-2.6c3.9-0.1,7.5-0.3,10.8-0.6c0.5,2.9,0.6,5.6,0.6,8.1c-0.1,2.6-0.2,5.1-0.2,7.7
		c-0.1,2.6-0.2,5.2-0.2,7.8c-0.1,2.6,0.1,5.5,0.6,8.5c-6.5,0.5-12.4,0.8-17.9,1.1c-5.4,0.3-11.5,0.5-18.3,0.5
		c0.8,6.3,0.8,12.5,0.2,18.6c-0.6,6.1-0.7,12.3-0.2,18.6c9.6,0,18.9,0.1,27.9,0.2c9,0.2,17.1,0.1,24.5-0.2c0.3,3.2,0.1,6.9-0.6,11.3
		C1038.2,148.8,1038.1,152.8,1038.5,156.4z M968.2,108c-0.5,0.8-0.7,1.3-0.7,1.6h1.6C969.1,108.6,968.8,108,968.2,108z M969.1,112.8
		c0,0.5,0.4,0.7,1.2,0.7c0.8,0,1.2-0.2,1.2-0.7c-0.5-0.3-0.9-0.4-1.2-0.2C970,112.7,969.6,112.8,969.1,112.8z M971.6,83
		c0.5,0,1-0.1,1.6-0.3c0.6-0.2,1.2-0.5,1.7-0.9c0.5-0.4,0.9-0.8,1.1-1.2c0.2-0.5,0.1-0.9-0.3-1.4c-0.9,0.8-1.7,1.4-2.5,1.9
		C972.5,81.6,971.9,82.2,971.6,83z M973.2,92c0,1.1,0.5,1.6,1.6,1.6c0.5-0.5,0.5-0.9,0.1-1.5C974.5,91.6,974,91.5,973.2,92z
		 M974.8,141.9c0.5,0.3,1,0.3,1.6,0c0.6-0.3,0.9-0.8,0.9-1.6c-0.8,0.3-1.2,0.1-1.5-0.6c-0.2-0.7-0.6-1-1-1c-0.5,0.8-0.4,1.4,0.2,1.8
		C975.6,141,975.6,141.5,974.8,141.9z M992.7,22.6c-0.6,0-0.9,0.2-0.9,0.5c-0.2,0.2-0.2,0.3,0,0.5c0.6,0,0.9,0.5,0.9,1.6
		c0.5,0,1-0.3,1.6-0.9c-0.5-0.3-0.8-0.5-1.1-0.5C992.8,23.7,992.7,23.4,992.7,22.6z M1000.6,5.7c-0.3,0-0.6,0.1-1,0.2
		C999.2,6,999,6.5,999,7.2c0.5,0.5,0.9,0.5,1.5,0.1C1001,7,1001,6.4,1000.6,5.7z M1003,17c0,0.5-0.2,0.9-0.5,1.2
		c-0.3,0.4-0.5,0.8-0.5,1.2c0.9-0.5,1.5-0.6,1.7-0.5c0.2,0.2,0.5,0,0.8-0.5h-0.5c-0.2,0-0.2-0.2-0.2-0.7c-0.2-0.1-0.2-0.3-0.2-0.5
		C1003.4,17.1,1003.2,17,1003,17z M1004.6,21h-2.5c0,0.8,0.5,1.2,1.6,1.5C1004.8,22.7,1005.1,22.2,1004.6,21z M1007.8,16.1
		c-0.8-0.3-1.4-0.2-1.8,0.3c-0.5,0.5-0.9,1-1.4,1.5c0.5,0,0.6,0.3,0.6,0.8c-0.1,0.5,0.3,0.8,1,0.8c0.5-0.5,0.8-0.9,1.1-1.4
		C1007.6,17.6,1007.8,17,1007.8,16.1z M1006.2,12.9v1.6c0.5,0,1,0,1.6-0.1c0.6-0.1,0.9-0.3,0.9-0.6c-0.5,0-0.8-0.1-1-0.5
		C1007.5,13,1007,12.9,1006.2,12.9z M1009.4,19.4c0,0.8,0.1,1.1,0.5,0.9c0.3-0.1,0.7-0.2,1.1-0.2C1011,19.7,1010.4,19.4,1009.4,19.4
		z"/>
	<path class="st0" d="M1230.6,1.6c0.5,1.8,0.7,4.1,0.8,6.9c0.1,2.8,0.1,5.6,0,8.6c-0.1,2.9-0.2,5.8-0.2,8.7c-0.1,2.9,0,5.3,0.1,7.2
		c-5.7-0.3-11.5-0.6-17.3-0.8c-5.8-0.2-11.6,0-17.3,0.8c-0.5,4.5-0.8,9.5-0.9,14.9c-0.2,5.4-0.3,11-0.3,16.6
		c-0.1,5.7-0.1,11.2-0.1,16.6c0,5.4-0.1,10.3-0.2,14.7c-0.3,11.3-0.8,22.4-1.5,33.3c-0.7,10.9-1,22.5-1,34.7c-2.4-0.1-5-0.2-7.8-0.2
		c-2.8,0-5.5,0-8.2,0.1c-2.7,0.1-5.4,0.1-8,0.2c-2.6,0.1-5.1,0-7.3-0.1c-0.5-9.5-0.7-19.3-0.7-29.5s-0.4-21.7-1.1-34.5
		c-0.2-1.2-0.3-2.5-0.5-4c-0.2-1.4-0.2-2.7-0.2-4c0-1.2,0.3-2.3,0.8-3.2c0.5-0.9,0.8-1.7,0.8-2.5c0.5-2.1,0.4-4.3-0.2-6.6
		c-0.6-2.3-1.1-4.7-1.4-7.2c-0.8-5.7-0.7-11.9,0.2-18.5c0.9-6.6,1.4-13.6,1.4-21c-3.5-0.1-6.6-0.2-9.4-0.2c-2.8,0-5.5,0-8.1,0
		c-2.6,0-5.3,0-7.9,0.1c-2.6,0.1-5.5,0.1-8.5,0.1c0.5-5.7,0.7-11,0.8-15.9c0.1-4.9,0.1-9.8,0.1-14.6c14.2,0,27.3,0.1,39.3,0.2
		c12.1,0.2,24,0.1,35.7-0.2c4.8-0.1,9.6-0.3,14.4-0.6C1221.5,1.7,1226.1,1.6,1230.6,1.6z M1162.8,146l2.3-1.8
		C1163.6,144.2,1162.8,144.8,1162.8,146z M1164.4,125c0.3,0.3,0.8,0.4,1.5,0.3c0.7-0.1,1-0.5,1-1.2
		C1165.2,124.1,1164.4,124.4,1164.4,125z M1172.5,25.8h-1.8c0,1.1,0.3,1.6,0.9,1.6C1172.2,26.9,1172.5,26.4,1172.5,25.8z
		 M1173.2,68.5v-0.7c-1.1,0-1.6,0.5-1.6,1.6c0.5,0,0.8-0.1,0.9-0.5C1172.7,68.6,1172.9,68.5,1173.2,68.5z M1175.7,10.4
		c0,0.5,0.3,0.7,0.8,0.7c0.5,0,0.8-0.2,0.8-0.7c-0.5,0-0.8-0.1-1.1-0.2C1175.9,10,1175.7,10.1,1175.7,10.4z M1180.5,79.8
		c1.1,0,1.6-0.2,1.6-0.7c-0.3-0.5-0.6-0.6-1-0.6C1180.6,78.6,1180.5,79,1180.5,79.8z M1186.1,88.6V87c-0.3,0-0.7-0.2-1.1-0.7
		s-0.8-0.5-1.1,0c0.3,0.8,0.6,1.3,0.8,1.7C1184.9,88.4,1185.3,88.6,1186.1,88.6z"/>
	<path class="st0" d="M1334.4,74.1c0,8.6,0.1,16.9,0.3,24.9c0.2,8,0.3,16.6,0.3,26c0,3.2,0.1,6.1,0.3,8.8c0.2,2.7,0.1,5.1-0.3,7.2
		c-0.8,2.1-2,3.9-3.7,5.3c-1.7,1.4-3.4,3.2-5.1,5.3c-0.6,0.8-1.2,1.7-1.8,2.9c-0.6,1.2-1.2,2.4-1.9,3.5c-0.7,1.1-1.4,2.1-2,3.1
		c-0.7,0.9-1.5,1.4-2.4,1.6c-1.2,0.5-3,0.3-5.3-0.5c-2.3-0.8-4.6-1.1-6.7-1.1h-28.2c-2,0-4.2,0.1-6.7,0.3c-2.5,0.2-4.6,0.1-6.2-0.3
		c-0.8,0-1.2-0.1-1.5-0.2c-0.2-0.1-0.5-0.6-0.8-1.4v0.9c0-1.2-0.4-2.1-1.1-2.6c-0.8-0.5-1.5-1-2.3-1.5h-0.7v1.6v0.9
		c0,0.5,0.1,0.7,0.2,0.7h0.5v0.9c0.5,0,0.8,0.2,1.1,0.5c0.1,0.2,0.3,0.2,0.5,0.2h0.9l0.9-0.7c-0.5,0.3-0.9,0.6-1.5,1
		c-0.5,0.4-1.2,0.6-1.9,0.6c-0.8,0-1.4-0.3-2-1c-0.6-0.7-1.2-1.5-1.8-2.5c-0.6-1-1.2-2-1.7-2.9c-0.5-1-1.1-1.8-1.7-2.4
		c-0.6-1.2-1.4-2.3-2.3-3.3c-0.9-1-1.8-1.9-2.7-2.8c-0.9-0.9-1.7-1.8-2.5-2.8c-0.8-1-1.2-2.1-1.4-3.3c-0.8-1.2-1-2.7-0.7-4.5
		c0.3-1.8,0.5-3.8,0.7-5.9c0.3-9.5,0.1-19.6-0.5-30.4c-0.6-10.8-0.8-21.6-0.5-32.4c0.3-9.9,0.4-19.8,0.3-29.6
		c-0.1-9.8,0.1-20.3,0.6-31.6l33.9,2.3c0.1,6.5,0.1,12.9-0.2,19.3c-0.3,6.4-0.6,12.8-0.9,19.2c-0.3,6.4-0.5,12.7-0.6,19
		c-0.1,6.3,0.2,12.4,0.8,18.4c1.1,1.5,1.6,3.4,1.6,5.6c0,1.7-0.2,3.2-0.5,4.7c-0.3,1.5-0.7,3.1-1.1,4.7c-0.3,4.8-0.6,9.8-1,15
		c-0.4,5.2-0.6,10.4-0.6,15.7c1.8,0.5,4,0.7,6.4,0.8c2.5,0.1,5,0,7.7-0.1c2.6-0.1,5.2-0.3,7.8-0.5c2.6-0.1,4.9-0.2,7-0.2
		c-0.6-9.6-1.2-19.7-1.7-30.1c-0.5-10.4-0.9-20.8-1.1-31.3c-0.2-10.5-0.3-20.8-0.3-31.1c0-10.2,0.2-20,0.7-29.4
		c5.3-1.2,10.5-1.9,15.8-2.1c5.3-0.2,10.8-0.6,16.5-1c0.8,10.1,1.1,21,1,32.7C1334.4,50,1334.4,61.9,1334.4,74.1z M1246.4,95.2
		c0.5,0,0.6-0.3,0.6-0.8c-0.1-0.5,0.3-0.8,1-0.8c0-0.6-0.5-0.9-1.6-0.9c0.5,0.5,0.6,0.9,0.3,1.2
		C1246.6,94.3,1246.4,94.7,1246.4,95.2z M1248,113.7v-0.9c0-0.3-0.2-0.6-0.5-0.8c-0.3-0.2-0.7,0-1.1,0.8c0.5,0,0.8,0.2,0.9,0.5
		C1247.5,113.5,1247.7,113.7,1248,113.7z M1248,90.4h-0.7V92c0.3,0,0.5-0.1,0.6-0.2C1248,91.6,1248,91.2,1248,90.4z M1265.9,74.1
		c-0.5,0-0.8,0.1-0.9,0.3c-0.2,0.2-0.4,0.1-0.7-0.3c0,0.8,0.3,1.1,1,1.1C1266,75.3,1266.2,74.9,1265.9,74.1z M1266.6,108.9
		c0.5,0,0.8-0.2,0.9-0.6c0.1-0.4,0.5-0.8,0.9-1.2c-0.9,0-1.4-0.1-1.6-0.5c-0.2-0.3-0.2-0.7-0.2-1.1l-2.3-1.6c0,1.7,0.3,2.7,0.9,3.1
		C1265.8,107.4,1266.3,108,1266.6,108.9z"/>
	<path class="st0" d="M1452.1,1.6c0.5,1.8,0.7,4.1,0.8,6.9c0.1,2.8,0.1,5.6,0,8.6c-0.1,2.9-0.2,5.8-0.2,8.7c-0.1,2.9,0,5.3,0.1,7.2
		c-5.7-0.3-11.5-0.6-17.3-0.8c-5.8-0.2-11.6,0-17.3,0.8c-0.5,4.5-0.8,9.5-0.9,14.9c-0.2,5.4-0.3,11-0.3,16.6
		c-0.1,5.7-0.1,11.2-0.1,16.6c0,5.4-0.1,10.3-0.2,14.7c-0.3,11.3-0.8,22.4-1.5,33.3c-0.7,10.9-1,22.5-1,34.7c-2.4-0.1-5-0.2-7.8-0.2
		c-2.8,0-5.5,0-8.2,0.1c-2.7,0.1-5.4,0.1-8,0.2c-2.6,0.1-5.1,0-7.3-0.1c-0.5-9.5-0.7-19.3-0.7-29.5s-0.4-21.7-1.1-34.5
		c-0.2-1.2-0.3-2.5-0.5-4c-0.2-1.4-0.2-2.7-0.2-4c0-1.2,0.3-2.3,0.8-3.2c0.5-0.9,0.8-1.7,0.8-2.5c0.5-2.1,0.4-4.3-0.2-6.6
		c-0.6-2.3-1.1-4.7-1.4-7.2c-0.8-5.7-0.7-11.9,0.2-18.5c0.9-6.6,1.4-13.6,1.4-21c-3.5-0.1-6.6-0.2-9.4-0.2c-2.8,0-5.5,0-8.1,0
		c-2.6,0-5.3,0-7.9,0.1c-2.6,0.1-5.5,0.1-8.5,0.1c0.5-5.7,0.7-11,0.8-15.9c0.1-4.9,0.1-9.8,0.1-14.6c14.2,0,27.3,0.1,39.3,0.2
		c12.1,0.2,24,0.1,35.7-0.2c4.8-0.1,9.6-0.3,14.4-0.6C1443,1.7,1447.6,1.6,1452.1,1.6z M1384.3,146l2.3-1.8
		C1385.1,144.2,1384.3,144.8,1384.3,146z M1385.9,125c0.3,0.3,0.8,0.4,1.5,0.3c0.7-0.1,1-0.5,1-1.2
		C1386.7,124.1,1385.9,124.4,1385.9,125z M1394,25.8h-1.8c0,1.1,0.3,1.6,0.9,1.6C1393.7,26.9,1394,26.4,1394,25.8z M1394.7,68.5
		v-0.7c-1.1,0-1.6,0.5-1.6,1.6c0.5,0,0.8-0.1,0.9-0.5C1394.2,68.6,1394.4,68.5,1394.7,68.5z M1397.2,10.4c0,0.5,0.3,0.7,0.8,0.7
		c0.5,0,0.8-0.2,0.8-0.7c-0.5,0-0.8-0.1-1.1-0.2C1397.3,10,1397.2,10.1,1397.2,10.4z M1401.9,79.8c1.1,0,1.6-0.2,1.6-0.7
		c-0.3-0.5-0.6-0.6-1-0.6C1402.1,78.6,1401.9,79,1401.9,79.8z M1407.6,88.6V87c-0.3,0-0.7-0.2-1.1-0.7s-0.8-0.5-1.1,0
		c0.3,0.8,0.6,1.3,0.8,1.7C1406.3,88.4,1406.8,88.6,1407.6,88.6z"/>
	<path class="st0" d="M1569.6,1.6c0.5,1.8,0.7,4.1,0.8,6.9c0.1,2.8,0.1,5.6,0,8.6c-0.1,2.9-0.2,5.8-0.2,8.7c-0.1,2.9,0,5.3,0.1,7.2
		c-5.7-0.3-11.5-0.6-17.3-0.8c-5.8-0.2-11.6,0-17.3,0.8c-0.5,4.5-0.8,9.5-0.9,14.9c-0.2,5.4-0.3,11-0.3,16.6
		c-0.1,5.7-0.1,11.2-0.1,16.6c0,5.4-0.1,10.3-0.2,14.7c-0.3,11.3-0.8,22.4-1.5,33.3c-0.7,10.9-1,22.5-1,34.7c-2.4-0.1-5-0.2-7.8-0.2
		c-2.8,0-5.5,0-8.2,0.1c-2.7,0.1-5.4,0.1-8,0.2c-2.6,0.1-5.1,0-7.3-0.1c-0.5-9.5-0.7-19.3-0.7-29.5s-0.4-21.7-1.1-34.5
		c-0.2-1.2-0.3-2.5-0.5-4c-0.2-1.4-0.2-2.7-0.2-4c0-1.2,0.3-2.3,0.8-3.2c0.5-0.9,0.8-1.7,0.8-2.5c0.5-2.1,0.4-4.3-0.2-6.6
		c-0.6-2.3-1.1-4.7-1.4-7.2c-0.8-5.7-0.7-11.9,0.2-18.5c0.9-6.6,1.4-13.6,1.4-21c-3.5-0.1-6.6-0.2-9.4-0.2c-2.8,0-5.5,0-8.1,0
		c-2.6,0-5.3,0-7.9,0.1c-2.6,0.1-5.5,0.1-8.5,0.1c0.5-5.7,0.7-11,0.8-15.9c0.1-4.9,0.1-9.8,0.1-14.6c14.2,0,27.3,0.1,39.3,0.2
		c12.1,0.2,24,0.1,35.7-0.2c4.8-0.1,9.6-0.3,14.4-0.6C1560.5,1.7,1565.1,1.6,1569.6,1.6z M1501.8,146l2.3-1.8
		C1502.6,144.2,1501.8,144.8,1501.8,146z M1503.4,125c0.3,0.3,0.8,0.4,1.5,0.3c0.7-0.1,1-0.5,1-1.2
		C1504.2,124.1,1503.4,124.4,1503.4,125z M1511.5,25.8h-1.8c0,1.1,0.3,1.6,0.9,1.6C1511.2,26.9,1511.5,26.4,1511.5,25.8z
		 M1512.2,68.5v-0.7c-1.1,0-1.6,0.5-1.6,1.6c0.5,0,0.8-0.1,0.9-0.5C1511.7,68.6,1511.9,68.5,1512.2,68.5z M1514.7,10.4
		c0,0.5,0.3,0.7,0.8,0.7c0.5,0,0.8-0.2,0.8-0.7c-0.5,0-0.8-0.1-1.1-0.2C1514.9,10,1514.7,10.1,1514.7,10.4z M1519.5,79.8
		c1.1,0,1.6-0.2,1.6-0.7c-0.3-0.5-0.6-0.6-1-0.6C1519.6,78.6,1519.5,79,1519.5,79.8z M1525.1,88.6V87c-0.3,0-0.7-0.2-1.1-0.7
		s-0.8-0.5-1.1,0c0.3,0.8,0.6,1.3,0.8,1.7C1523.9,88.4,1524.3,88.6,1525.1,88.6z"/>
	<path class="st0" d="M1655.5,129.1h0.2c0.3,0,0.5,0.2,0.5,0.7l5.7,34.8h-22.6c-2.1-4.8-3.7-9.6-4.7-14.5c-1.1-4.8-2.4-9.4-4.1-13.8
		c-4.4,0-9.2-0.1-14.6-0.5c-5.3-0.3-10.4-0.5-15.3-0.5c-2.1,4.4-3.5,9-4.2,13.9c-0.7,4.9-1.5,9.8-2.4,14.6c-3.9,0-8,0.2-12.2,0.6
		c-4.2,0.4-8.7,0.2-13.6-0.6l5.7-38.9c0.8,0.8,1.8,0.8,3.2,0c-0.8-0.5-1.4-0.6-1.8-0.5c-0.5,0.2-0.9,0-1.4-0.5
		c1.7-9.6,3.1-19.5,4.2-29.6c1.1-10.1,2.4-20.3,4-30.7l2.5-17.9c0.3-1.7,0.9-3,1.8-4c0.9-1,1.4-2.3,1.4-4c0.8-2.6,1.3-5.2,1.6-7.8
		c0.3-2.6,0.8-5.2,1.6-7.6c1.2-3.6,2.2-7.2,2.9-10.8c0.8-3.6,1.1-7.2,1.1-10.8h6.6c-0.5,0.3-0.8,0.4-0.9,0.2
		c-0.2-0.1-0.5-0.2-0.9-0.2c0,0.8,0.5,1,1.5,0.8c1-0.2,1.8-0.5,2.6-0.8c0.5,0,0.6,0.2,0.5,0.5c-0.2,0.3,0,0.7,0.5,1.1
		c0.3-0.5,0.6-0.8,0.9-0.9c0.3-0.1,0.2-0.4-0.2-0.7h16.3c2.9-0.5,5-0.8,6.6-0.9c1.5-0.1,2.6,1.2,3.2,4.1l2.3,12
		c0.8,1.7,1.4,3.4,1.9,5.3c0.5,1.9,1,3.7,1.5,5.3c0,0.3-0.2,0.4-0.5,0.3c-0.3-0.1-0.5,0-0.5,0.3v0.9c0-0.6-0.3-0.9-0.9-0.9
		c-0.5,0-0.7,0.2-0.7,0.5v0.5l-0.9-0.9v0.9c-0.3,0-0.6,0.1-1,0.2c-0.4,0.2-0.6,0.6-0.6,1.4v0.9h0.9h0.7l-0.7,0.7l0.7-0.7v0.7
		c-0.5,0.8-0.7,1.3-0.7,1.6v0.9l1.6-0.9v0.5c0,0.3,0.2,0.5,0.7,0.5c0.9,0,1.4-0.3,1.6-0.9c0.1-0.6,0.2-1.1,0.2-1.6v-0.7h-2.5h0.7
		c0.5-0.5,0.9-0.8,1.2-0.9c0.4-0.1,0.6-0.4,0.6-0.7l1.6,5.4c2.7,9.5,4.9,19.2,6.4,29.2c1.6,9.9,3.4,19.9,5.5,29.8
		c0,1.1-0.2,1.6-0.7,1.6c0.8,1.2,1.4,2.7,1.8,4.5c0.5,1.8,0.9,3.5,1.4,5.2c0.5,3.6,1,7.3,1.6,11.1c0.6,3.8,0.9,7.3,0.9,10.6
		C1656.3,127.5,1656.3,128.3,1655.5,129.1z M1602.2,7.2l-0.7,0.9h1.6h2.3V7.2l0.9,0.9V6.6h-0.9V5.7l-0.7,0.9h-0.9h-0.5
		c-0.2,0-0.3,0.1-0.5,0.2C1602.7,6.9,1602.5,7.1,1602.2,7.2z M1607.1,104.9c2,0.3,4.8,0.4,8.5,0.2c3.7-0.1,6.7-0.2,9.2-0.2
		c-1.2-7.2-2.5-14.4-3.7-21.5c-1.3-7.1-3-13.6-5.1-19.7c-1.7,6.5-3.4,13.1-5.1,20C1609.1,90.6,1607.9,97.6,1607.1,104.9z
		 M1639.2,149.2h1.8h0.7l2.5,1.6l-0.9-2.5c-0.5-0.5-1.2-0.7-2.3-0.7h-0.9h-0.9l-1.6-0.9v0.9c0.5,0.8,0.8,1.2,0.9,1.4
		C1638.7,149.1,1638.9,149.2,1639.2,149.2z"/>
	<path class="st0" d="M1827.9,128.2c1.2-1.2,3-1.5,5.4-1c2.4,0.5,4.6,0.6,6.6,0.3v31.4c-5.4,0.2-11.5,0.2-18.1,0
		c-6.6-0.1-13.4-0.3-20.2-0.3c-6.9-0.1-13.7-0.1-20.5,0c-6.8,0.1-13,0.4-18.5,1c-1.4-1.4-2.6-2.9-3.7-4.5c-1.1-1.7-2.2-3.3-3.3-5
		c-1.1-1.7-2.2-3.2-3.4-4.7c-1.2-1.5-2.6-2.9-4.3-4.3c0-0.3,0.3-0.5,1-0.7c0.7-0.1,1.2-0.5,1.5-0.9c-0.3-0.3-0.7-0.3-1.1,0.1
		c-0.5,0.4-0.9,0.3-1.4-0.1c0.9-13.7,1.1-27.6,0.7-41.6c-0.5-14-0.7-29.2-0.7-45.4c0-5.7-0.1-11.4-0.2-17
		c-0.2-5.6-0.1-11.2,0.2-16.9c0.5-2.9,0.7-5.8,0.7-8.7s0.6-5.7,1.8-8.2l33.2-1.6c0.8,0,0.9,0.2,0.6,0.7c-0.4,0.5-0.6,1.1-0.6,1.8
		c-0.5,2.4-0.6,5-0.3,7.8c0.2,2.8,0.5,5.5,0.7,8.1c0.2,2.6,0.2,5.1,0,7.5c-0.2,2.3-0.9,4.2-2.1,5.5c0.5,4.4,1,9.5,1.6,15.3
		c0.6,5.8,0.9,11.7,0.9,17.7c-0.2,1.8-0.5,3.7-0.9,5.8c-0.5,2-0.8,4-1.1,5.9c-0.3,1.9-0.4,3.7-0.3,5.5c0.1,1.8,0.6,3.4,1.7,4.7
		c-1.7,6.8-2.6,13.8-2.8,21.1c-0.2,7.3-0.9,14.2-2.1,20.7c7.5,1.5,15.2,2,23.1,1.6C1809.6,129.3,1818.3,128.8,1827.9,128.2z
		 M1758.6,7.2c0-0.3,0-0.6-0.1-0.9c-0.1-0.3-0.3-0.2-0.8,0.2c-0.3,0-0.3,0.1-0.1,0.3C1757.8,7.1,1758.1,7.2,1758.6,7.2z M1769,82.3
		h-1.6v1.6C1768.4,83.9,1769,83.3,1769,82.3z M1769,52.4c0.5,0.8,0.5,1.2,0,1.2c-0.5,0.1-0.7,0.5-0.7,1.2c1.1-0.5,1.7-0.3,1.9,0.5
		c0.2,0.8,0.9,1.1,2.1,1.1c0.3-0.5,0.5-1,0.6-1.7c0.1-0.7,0.1-1.2,0.1-1.5c-0.8-0.5-1.4-0.6-2-0.5C1770.4,53,1769.7,52.9,1769,52.4z
		 M1775.5,70.1c0.8-2,0.6-3.3-0.5-4.1c-1.1-0.8-2-1.5-2.7-2.3h-0.5c-0.3,0-0.5,0.2-0.5,0.7l2.5,2.5c-0.8,0.8-1.6,1.2-2.5,1.2
		c-0.9,0.1-1.7,0.7-2.5,1.9c1.7,0,3-0.3,4-0.9C1773.9,68.6,1774.8,68.9,1775.5,70.1z M1773.9,37.1c-0.8,0-1.3,0.3-1.6,0.9
		c-0.3,0.6-0.9,1.1-1.8,1.6c0.9,0.3,1.7,0.3,2.4-0.1C1773.6,39.1,1773.9,38.3,1773.9,37.1z M1771.4,87.9c1.1,0,1.6-0.3,1.6-0.9
		C1772,87,1771.4,87.3,1771.4,87.9z M1775.5,63.7c0.8-0.5,0.9-0.8,0.5-1.1c-0.5-0.3-0.9-0.5-1.4-0.5c0.3,0.3,0.5,0.5,0.5,0.7
		c0,0.2,0.1,0.3,0.2,0.5C1775.3,63.4,1775.4,63.6,1775.5,63.7z M1775.5,59.7c0.8,0,1.3,0.1,1.7,0.2c0.4,0.2,0.3,0.6-0.1,1.4
		c0.8,0,1.2-0.1,1.5-0.5c0.2-0.3,0.6-0.7,1-1.1c-0.8-0.5-1.5-0.9-2.4-1.2C1776.4,58.1,1775.8,58.5,1775.5,59.7z M1778.7,99.2
		c-0.3-0.5-0.4-1-0.3-1.6c0.1-0.6,0-0.9-0.3-0.9c-0.5,0.5-0.6,1-0.6,1.6C1777.5,98.9,1777.9,99.2,1778.7,99.2z"/>
	<path class="st0" d="M1939.4,129.1h0.2c0.3,0,0.5,0.2,0.5,0.7l5.7,34.8h-22.6c-2.1-4.8-3.7-9.6-4.7-14.5c-1.1-4.8-2.4-9.4-4.1-13.8
		c-4.4,0-9.2-0.1-14.6-0.5c-5.3-0.3-10.4-0.5-15.3-0.5c-2.1,4.4-3.5,9-4.2,13.9c-0.7,4.9-1.5,9.8-2.4,14.6c-3.9,0-8,0.2-12.2,0.6
		c-4.2,0.4-8.7,0.2-13.6-0.6l5.7-38.9c0.8,0.8,1.8,0.8,3.2,0c-0.8-0.5-1.4-0.6-1.8-0.5c-0.5,0.2-0.9,0-1.4-0.5
		c1.7-9.6,3.1-19.5,4.2-29.6c1.1-10.1,2.4-20.3,4-30.7l2.5-17.9c0.3-1.7,0.9-3,1.8-4c0.9-1,1.4-2.3,1.4-4c0.8-2.6,1.3-5.2,1.6-7.8
		c0.3-2.6,0.8-5.2,1.6-7.6c1.2-3.6,2.2-7.2,2.9-10.8c0.8-3.6,1.1-7.2,1.1-10.8h6.6c-0.5,0.3-0.8,0.4-0.9,0.2
		c-0.2-0.1-0.5-0.2-0.9-0.2c0,0.8,0.5,1,1.5,0.8c1-0.2,1.8-0.5,2.6-0.8c0.5,0,0.6,0.2,0.5,0.5c-0.2,0.3,0,0.7,0.5,1.1
		c0.3-0.5,0.6-0.8,0.9-0.9c0.3-0.1,0.2-0.4-0.2-0.7h16.3c2.9-0.5,5-0.8,6.6-0.9c1.5-0.1,2.6,1.2,3.2,4.1l2.3,12
		c0.8,1.7,1.4,3.4,1.9,5.3c0.5,1.9,1,3.7,1.5,5.3c0,0.3-0.2,0.4-0.5,0.3c-0.3-0.1-0.5,0-0.5,0.3v0.9c0-0.6-0.3-0.9-0.9-0.9
		c-0.5,0-0.7,0.2-0.7,0.5v0.5l-0.9-0.9v0.9c-0.3,0-0.6,0.1-1,0.2c-0.4,0.2-0.6,0.6-0.6,1.4v0.9h0.9h0.7l-0.7,0.7l0.7-0.7v0.7
		c-0.5,0.8-0.7,1.3-0.7,1.6v0.9l1.6-0.9v0.5c0,0.3,0.2,0.5,0.7,0.5c0.9,0,1.4-0.3,1.6-0.9c0.1-0.6,0.2-1.1,0.2-1.6v-0.7h-2.5h0.7
		c0.5-0.5,0.9-0.8,1.2-0.9c0.4-0.1,0.6-0.4,0.6-0.7l1.6,5.4c2.7,9.5,4.9,19.2,6.4,29.2c1.6,9.9,3.4,19.9,5.5,29.8
		c0,1.1-0.2,1.6-0.7,1.6c0.8,1.2,1.4,2.7,1.8,4.5c0.5,1.8,0.9,3.5,1.4,5.2c0.5,3.6,1,7.3,1.6,11.1c0.6,3.8,0.9,7.3,0.9,10.6
		C1940.1,127.5,1940.1,128.3,1939.4,129.1z M1886,7.2l-0.7,0.9h1.6h2.3V7.2l0.9,0.9V6.6h-0.9V5.7l-0.7,0.9h-0.9h-0.5
		c-0.2,0-0.3,0.1-0.5,0.2C1886.5,6.9,1886.3,7.1,1886,7.2z M1891,104.9c2,0.3,4.8,0.4,8.5,0.2c3.7-0.1,6.7-0.2,9.2-0.2
		c-1.2-7.2-2.5-14.4-3.7-21.5c-1.3-7.1-3-13.6-5.1-19.7c-1.7,6.5-3.4,13.1-5.1,20C1893,90.6,1891.7,97.6,1891,104.9z M1923.1,149.2
		h1.8h0.7l2.5,1.6l-0.9-2.5c-0.5-0.5-1.2-0.7-2.3-0.7h-0.9h-0.9l-1.6-0.9v0.9c0.5,0.8,0.8,1.2,0.9,1.4
		C1922.6,149.1,1922.8,149.2,1923.1,149.2z"/>
	<path class="st0" d="M2129.4,5.4h0.9v1.1c0,0.8-0.2,2.6-0.6,5.5c-0.4,2.9-0.8,6.1-1.4,9.4c-0.5,3.3-1,6.4-1.5,9.3
		c-0.5,2.9-0.8,4.6-0.9,5.2c-2.1,11.2-4,21.1-5.5,29.9c-1.6,8.8-3,17.1-4.2,25c-1.2,7.8-2.4,15.5-3.5,22.9s-2.4,15.3-3.7,23.6
		c-0.2,0.6-0.3,1.2-0.5,1.7c-0.2,0.5-0.4,1.2-0.7,1.9c-0.8,1.7-2,3.1-3.8,4.4c-1.8,1.3-4.1,3.3-6.8,6c-0.8,0.8-1.5,1.8-2.4,3.1
		c-0.8,1.3-1.7,2.5-2.7,3.7c-1,1.2-2,2.3-3.1,3.2c-1.1,0.9-2.3,1.4-3.6,1.4c-0.2,0-0.6-0.1-1.5-0.2c-0.8-0.1-1.8-0.3-2.9-0.6
		s-2.3-0.5-3.4-0.8c-1.1-0.3-2.1-0.5-3.1-0.7c-0.5,0-0.8-0.4-1.1-1.1c-0.9-1.4-1.6-2.1-2-2.3c-0.5-0.1-1.1-0.5-1.8-1.1h-0.5
		c-0.2,0.2-0.2,0.4-0.2,0.7c0,0.3,0.1,0.8,0.3,1.5c0.2,0.7,0.5,1,0.8,1c-0.2,0.6,0.1,1,0.8,1.2c0.7,0.2,1.2,0.3,1.7,0.3
		c-0.5,0.6-1.1,0.9-2,0.9c-0.5,0-1.1-0.4-2-1.2c-0.9-0.8-1.8-1.8-2.7-2.8c-0.9-1.1-1.8-2.1-2.7-3.3c-0.9-1.1-1.7-2-2.3-2.6
		c-1.5-1.7-2.8-3-3.8-4c-1.1-1-2-1.8-2.7-2.6c-0.8-0.8-1.4-1.4-1.9-2c-0.5-0.6-1-1.4-1.5-2.3c-1.1-2-1.5-3.2-1.5-3.6
		c0.1-0.5,0-1.4-0.1-2.9c-0.5-4.7-1.1-9.1-1.8-13.3c-0.8-4.2-1.6-8.4-2.5-12.5c-0.9-4.1-1.8-8.4-2.8-12.7c-1-4.3-1.9-8.8-2.8-13.7
		c-0.5-2.7-1.1-6.4-1.9-11c-0.8-4.6-1.7-9.6-2.6-15c-0.9-5.4-1.8-11-2.7-16.6c-0.9-5.6-1.7-10.8-2.5-15.5c-0.8-4.7-1.4-8.5-1.8-11.6
		c-0.5-3.1-0.7-4.9-0.7-5.3V6.1c5.1,0.5,10.4,0.9,15.8,1.2c5.4,0.4,11.5,0.8,18.3,1.2c1.4,6.2,2.3,11.7,2.8,16.6
		c0.5,4.9,1,9.6,1.5,14.1s1.1,9.2,1.8,14c0.8,4.8,2,10.3,3.8,16.5c0.1,0.3,0.6,1.2,1.2,2.8c0.7,1.6,1.2,2.7,1.5,3.3
		c0.3,0.6,0.4,1.5,0.3,2.6c-0.1,1.1-0.1,2.1-0.1,2.8c0,1.4,0.1,3,0.3,5c0.2,2,0.5,3.9,0.9,5.8c0.4,1.9,0.7,3.5,0.9,4.9
		c0.2,1.4,0.3,2.1,0.3,2.3c0,0.3,0.1,1.2,0.2,2.6c0.1,1.4,0.3,2.6,0.5,3.5c0.3,4.4,0.5,7.8,0.6,10.3c0.1,2.5,0.1,4.6,0.2,6.4
		c0.1,1.8,0.1,3.5,0.2,5.2c0.1,1.7,0.3,3.8,0.6,6.6c2-20.6,4.4-41.5,7.5-62.6c3-21.1,6.7-42,11.1-62.6c2-0.5,4.7-0.9,8.2-1.2
		c3.5-0.4,7-0.7,10.4-1c3.4-0.3,6.4-0.5,8.9-0.7C2127.7,5.5,2129.1,5.4,2129.4,5.4z M2047.2,93.1c-0.3-0.5-0.8-0.7-1.4-0.7
		c0.5,0.3,0.6,0.7,0.5,1.1c-0.2,0.5-0.2,0.8,0,1.1c0.1-0.3,0.2-0.6,0.1-1C2046.3,93.3,2046.5,93.1,2047.2,93.1z M2046.7,90.4v-0.2
		c-0.3,0.3-0.4,0.6-0.3,0.8c0.1,0.2,0.1,0.4,0.1,0.6l0.5-0.2C2046.8,91.2,2046.7,90.9,2046.7,90.4z M2050.8,113.2
		c0-1.1-0.4-1.6-1.1-1.6c0,0.2,0,0.3-0.1,0.3c-0.1,0.1-0.1,0.2-0.1,0.3c0.3,0.2,0.5,0.3,0.7,0.5
		C2050.2,112.9,2050.5,113.1,2050.8,113.2z M2055.7,124.8l0.2-0.2v-0.2c0,0.2-0.4,0.4-1.1,0.7l0.2,0.2
		C2055.2,125.2,2055.4,125.1,2055.7,124.8z M2054.8,124.8v-0.5v0.2V124.8z M2055.3,123.9l0.5-0.5h-0.2
		C2055.4,123.4,2055.3,123.6,2055.3,123.9z M2064.1,112.1l-0.2-0.2l0.2-0.2h-0.2v-0.2c-0.6,0.3-1.2,0.6-1.8,0.8
		c-0.6,0.2-1.2,0.5-1.8,0.8c-0.9,0.9-1.4,1.4-1.4,1.6h0.9c0.3,0,0.7-0.2,1.1-0.6c0.5-0.4,1-0.7,1.6-1c0.3-0.3,0.6-0.5,0.9-0.6
		C2063.7,112.4,2063.9,112.3,2064.1,112.1z M2063.9,111.7v0.2l-1.4,1.1c-0.6,0.3-1.2,0.6-1.7,1c-0.5,0.4-0.9,0.6-1,0.6h-0.9l1.4-1.6
		C2061.5,112.3,2062.7,111.8,2063.9,111.7z M2062.1,74.6c-0.2,0-0.2-0.1-0.2-0.5v-0.2l-1.1,0.5c0,0.3,0.2,0.5,0.7,0.5
		C2061.7,74.8,2061.9,74.7,2062.1,74.6z M2070,106.7c-0.8,0-1.2,0-1.4,0c-0.2,0-0.3-0.1-0.5-0.3c-0.2-0.2-0.3-0.5-0.6-0.9
		c-0.2-0.4-0.9-0.9-1.9-1.7c0,0.9,0.1,1.5,0.2,1.8c0.1,0.3,0.3,0.6,0.6,0.8c0.2,0.2,0.5,0.5,0.9,0.7c0.4,0.2,0.8,0.7,1.2,1.5
		C2069.2,108,2069.7,107.4,2070,106.7z M2098,44.5c0.3,0,0.5,0,0.6-0.1c0.1-0.1,0.2-0.1,0.3-0.1c0.1,0,0.3-0.1,0.5-0.2h0.7l-0.2-0.2
		c-0.5,0-0.8,0.1-1,0.2C2098.6,44.2,2098.3,44.4,2098,44.5z M2104.3,37.5h-1.1c-0.5,0-0.8-0.1-0.9-0.2h-0.5c0.1,0.2,0.5,0.2,0.9,0.2
		c0.1,0,0.3,0.1,0.5,0.2c0.1,0,0.3,0,0.5-0.1C2103.8,37.6,2104,37.5,2104.3,37.5z M2103.4,36.8c0.5-0.5,1.1-0.8,2-1.1
		C2104.9,35.7,2104.2,36.1,2103.4,36.8z"/>
	<path class="st0" d="M2200.8,138.8l1.8,24.9c-11.3-0.9-22.1-1.1-32.4-0.5c-10.3,0.6-20.5,0.8-30.6,0.5c0-5.3,0.1-10.6,0.2-15.9
		c0.1-5.3,0.6-10.2,1.4-14.6c1.7-0.5,3.4-0.5,5.3-0.1c1.9,0.4,3.7,0.4,5.3,0.1c0.3-5.3,0.6-10.1,1-14.6c0.4-4.4,0.6-9.3,0.6-14.6
		c0.3-0.8,0.8-0.8,1.5-0.2c0.7,0.6,1.2,0.7,1.7,0.2c0-0.6-0.2-1-0.5-1.1c-0.3-0.1-0.7-0.3-1.1-0.3c-0.5-0.1-0.8-0.1-1.1-0.2
		c-0.3-0.1-0.5-0.3-0.5-0.8c0.3-6.8,0.5-13.8,0.6-21c0.1-7.2,0.1-14.7,0.1-22.4c0-0.6,0.5-0.9,1.6-0.9c0-0.8-0.3-1.1-0.8-1
		c-0.5,0.1-0.8-0.1-0.8-0.6c0-1.2,0-2.3,0.1-3.4c0.1-1.1,0.3-1.8,0.8-2.3c-0.8-2.1-0.9-4.5-0.6-7.2c0.4-2.7,0.6-5.6,0.6-8.8
		c-1.7-0.3-4-0.3-7,0c-3,0.3-5.5,0.3-7.5,0l1.6-29.8c6.5-0.5,13.8-0.5,21.9-0.1c8.1,0.4,15.9,0.1,23.3-0.8c2.9-0.3,5.5-0.6,7.8-1
		c2.3-0.4,5.1-0.6,8.2-0.6v32.3h-19.4c-0.3,15.5-0.6,31.5-1,47.8c-0.4,16.3-0.6,33.2-0.6,50.5c3.3,0.5,6.5,0.6,9.6,0.3
		c3.1-0.2,6.1-0.3,8.9-0.3v4.7h-1.6h-0.7v0.9c0,0.8,0.1,1.2,0.3,1.5c0.2,0.2,0.3,0.6,0.3,1h0.9v-0.9h0.2
		C2200.7,139.5,2200.8,139.2,2200.8,138.8z M2160.6,23.5c0.3,0.3,0.6,0.4,1,0.3c0.4-0.1,0.6-0.5,0.6-1.2c0,0.5-0.3,0.6-0.8,0.5
		C2160.9,22.9,2160.6,23.1,2160.6,23.5z M2169.4,10.4h-1.6c0,0.9,0.4,1.4,1.1,1.4C2169.7,11.8,2169.9,11.3,2169.4,10.4z M2170.3,42
		l-2.5-1.8c0,1.7,0.3,2.7,0.9,3.2c0.6,0.5,1.1,1.1,1.6,1.8c0.3,0,0.5-0.2,0.7-0.6c0.1-0.4,0.5-0.7,0.9-1c-0.8,0-1.2-0.2-1.4-0.6
		C2170.4,42.7,2170.3,42.4,2170.3,42z M2170.3,87.9c0.8,0.3,1.2,0.2,1.4-0.3c0.1-0.5,0.2-0.9,0.2-1.2c-0.8,0-1.2,0.2-1.4,0.5
		C2170.4,87.1,2170.3,87.5,2170.3,87.9z M2176,47.7c0.3,0.3,0.6,0.3,1,0.1c0.4-0.2,0.6-0.6,0.6-1c-0.8-0.5-1.2-0.5-1.4-0.2
		C2176,46.9,2176,47.2,2176,47.7z M2177.6,50.9v-1.6c-0.5,0-0.8,0.1-0.9,0.3c-0.2,0.2-0.4,0.3-0.7,0.3
		C2176,50.6,2176.5,50.9,2177.6,50.9z M2178.2,25.8c0.5,0.5,1,0.6,1.6,0.6c0.6-0.1,0.9-0.5,0.9-1.2c-0.3-0.5-0.8-0.5-1.5-0.2
		C2178.6,25.2,2178.2,25.5,2178.2,25.8z M2181.6,151.7c1.1,0,1.6-0.3,1.6-0.9l-0.9-0.9c0,0.5-0.1,0.8-0.3,0.9
		C2181.7,150.9,2181.6,151.2,2181.6,151.7z M2187.9,12.9h-1.6v0.9c0-0.5,0.3-0.6,0.8-0.5C2187.7,13.5,2187.9,13.3,2187.9,12.9z
		 M2188.9,153.9c0.3-0.3,0.6-0.6,1-0.8c0.4-0.2,0.6-0.7,0.6-1.5c-0.8,0-1.3,0.3-1.7,0.9C2188.4,153.2,2188.4,153.6,2188.9,153.9z"/>
	<path class="st0" d="M2317.4,1.6c0.5,1.8,0.7,4.1,0.8,6.9c0.1,2.8,0.1,5.6,0,8.6c-0.1,2.9-0.2,5.8-0.2,8.7c-0.1,2.9,0,5.3,0.1,7.2
		c-5.7-0.3-11.5-0.6-17.3-0.8c-5.8-0.2-11.6,0-17.3,0.8c-0.5,4.5-0.8,9.5-0.9,14.9c-0.2,5.4-0.3,11-0.3,16.6
		c-0.1,5.7-0.1,11.2-0.1,16.6c0,5.4-0.1,10.3-0.2,14.7c-0.3,11.3-0.8,22.4-1.5,33.3c-0.7,10.9-1,22.5-1,34.7c-2.4-0.1-5-0.2-7.8-0.2
		c-2.8,0-5.5,0-8.2,0.1c-2.7,0.1-5.4,0.1-8,0.2c-2.6,0.1-5.1,0-7.3-0.1c-0.5-9.5-0.7-19.3-0.7-29.5s-0.4-21.7-1.1-34.5
		c-0.2-1.2-0.3-2.5-0.5-4c-0.2-1.4-0.2-2.7-0.2-4c0-1.2,0.3-2.3,0.8-3.2c0.5-0.9,0.8-1.7,0.8-2.5c0.5-2.1,0.4-4.3-0.2-6.6
		c-0.6-2.3-1.1-4.7-1.4-7.2c-0.8-5.7-0.7-11.9,0.2-18.5c0.9-6.6,1.4-13.6,1.4-21c-3.5-0.1-6.6-0.2-9.4-0.2c-2.8,0-5.5,0-8.1,0
		c-2.6,0-5.3,0-7.9,0.1c-2.6,0.1-5.5,0.1-8.5,0.1c0.5-5.7,0.7-11,0.8-15.9c0.1-4.9,0.1-9.8,0.1-14.6c14.2,0,27.3,0.1,39.3,0.2
		c12.1,0.2,24,0.1,35.7-0.2c4.8-0.1,9.6-0.3,14.4-0.6C2308.3,1.7,2312.9,1.6,2317.4,1.6z M2249.6,146l2.3-1.8
		C2250.4,144.2,2249.6,144.8,2249.6,146z M2251.2,125c0.3,0.3,0.8,0.4,1.5,0.3c0.7-0.1,1-0.5,1-1.2
		C2252.1,124.1,2251.2,124.4,2251.2,125z M2259.4,25.8h-1.8c0,1.1,0.3,1.6,0.9,1.6C2259.1,26.9,2259.4,26.4,2259.4,25.8z M2260,68.5
		v-0.7c-1.1,0-1.6,0.5-1.6,1.6c0.5,0,0.8-0.1,0.9-0.5C2259.5,68.6,2259.7,68.5,2260,68.5z M2262.5,10.4c0,0.5,0.3,0.7,0.8,0.7
		c0.5,0,0.8-0.2,0.8-0.7c-0.5,0-0.8-0.1-1.1-0.2C2262.7,10,2262.5,10.1,2262.5,10.4z M2267.3,79.8c1.1,0,1.6-0.2,1.6-0.7
		c-0.3-0.5-0.6-0.6-1-0.6C2267.5,78.6,2267.3,79,2267.3,79.8z M2272.9,88.6V87c-0.3,0-0.7-0.2-1.1-0.7s-0.8-0.5-1.1,0
		c0.3,0.8,0.6,1.3,0.8,1.7C2271.7,88.4,2272.2,88.6,2272.9,88.6z"/>
	<path class="st0" d="M2403.3,129.1h0.2c0.3,0,0.5,0.2,0.5,0.7l5.7,34.8h-22.6c-2.1-4.8-3.7-9.6-4.7-14.5c-1.1-4.8-2.4-9.4-4.1-13.8
		c-4.4,0-9.2-0.1-14.6-0.5c-5.3-0.3-10.4-0.5-15.3-0.5c-2.1,4.4-3.5,9-4.2,13.9c-0.7,4.9-1.5,9.8-2.4,14.6c-3.9,0-8,0.2-12.2,0.6
		c-4.2,0.4-8.7,0.2-13.6-0.6l5.7-38.9c0.8,0.8,1.8,0.8,3.2,0c-0.8-0.5-1.4-0.6-1.8-0.5c-0.5,0.2-0.9,0-1.4-0.5
		c1.7-9.6,3.1-19.5,4.2-29.6c1.1-10.1,2.4-20.3,4-30.7l2.5-17.9c0.3-1.7,0.9-3,1.8-4c0.9-1,1.4-2.3,1.4-4c0.8-2.6,1.3-5.2,1.6-7.8
		c0.3-2.6,0.8-5.2,1.6-7.6c1.2-3.6,2.2-7.2,2.9-10.8c0.8-3.6,1.1-7.2,1.1-10.8h6.6c-0.5,0.3-0.8,0.4-0.9,0.2
		c-0.2-0.1-0.5-0.2-0.9-0.2c0,0.8,0.5,1,1.5,0.8c1-0.2,1.8-0.5,2.6-0.8c0.5,0,0.6,0.2,0.5,0.5c-0.2,0.3,0,0.7,0.5,1.1
		c0.3-0.5,0.6-0.8,0.9-0.9c0.3-0.1,0.2-0.4-0.2-0.7h16.3c2.9-0.5,5-0.8,6.6-0.9c1.5-0.1,2.6,1.2,3.2,4.1l2.3,12
		c0.8,1.7,1.4,3.4,1.9,5.3c0.5,1.9,1,3.7,1.5,5.3c0,0.3-0.2,0.4-0.5,0.3c-0.3-0.1-0.5,0-0.5,0.3v0.9c0-0.6-0.3-0.9-0.9-0.9
		c-0.5,0-0.7,0.2-0.7,0.5v0.5l-0.9-0.9v0.9c-0.3,0-0.6,0.1-1,0.2c-0.4,0.2-0.6,0.6-0.6,1.4v0.9h0.9h0.7l-0.7,0.7l0.7-0.7v0.7
		c-0.5,0.8-0.7,1.3-0.7,1.6v0.9l1.6-0.9v0.5c0,0.3,0.2,0.5,0.7,0.5c0.9,0,1.4-0.3,1.6-0.9c0.1-0.6,0.2-1.1,0.2-1.6v-0.7h-2.5h0.7
		c0.5-0.5,0.9-0.8,1.2-0.9c0.4-0.1,0.6-0.4,0.6-0.7l1.6,5.4c2.7,9.5,4.9,19.2,6.4,29.2c1.6,9.9,3.4,19.9,5.5,29.8
		c0,1.1-0.2,1.6-0.7,1.6c0.8,1.2,1.4,2.7,1.8,4.5c0.5,1.8,0.9,3.5,1.4,5.2c0.5,3.6,1,7.3,1.6,11.1c0.6,3.8,0.9,7.3,0.9,10.6
		C2404.1,127.5,2404.1,128.3,2403.3,129.1z M2350,7.2l-0.7,0.9h1.6h2.3V7.2l0.9,0.9V6.6h-0.9V5.7l-0.7,0.9h-0.9h-0.5
		c-0.2,0-0.3,0.1-0.5,0.2C2350.5,6.9,2350.3,7.1,2350,7.2z M2355,104.9c2,0.3,4.8,0.4,8.5,0.2c3.7-0.1,6.7-0.2,9.2-0.2
		c-1.2-7.2-2.5-14.4-3.7-21.5c-1.3-7.1-3-13.6-5.1-19.7c-1.7,6.5-3.4,13.1-5.1,20C2357,90.6,2355.7,97.6,2355,104.9z M2387.1,149.2
		h1.8h0.7l2.5,1.6l-0.9-2.5c-0.5-0.5-1.2-0.7-2.3-0.7h-0.9h-0.9l-1.6-0.9v0.9c0.5,0.8,0.8,1.2,0.9,1.4
		C2386.5,149.1,2386.7,149.2,2387.1,149.2z"/>
</g>
</svg>
