<?xml version="1.0" encoding="utf-8"?>
<!-- Generator: Adobe Illustrator 22.0.1, SVG Export Plug-In . SVG Version: 6.00 Build 0)  -->
<svg version="1.1" id="Layer_1" xmlns="http://www.w3.org/2000/svg" xmlns:xlink="http://www.w3.org/1999/xlink" x="0px" y="0px"
	 viewBox="0 0 1813.4 164.6" style="enable-background:new 0 0 1813.4 164.6;" xml:space="preserve">
<style type="text/css">
	.st0{fill:#FFFFFF;}
</style>
<g>
	<path class="st0" d="M190.7,20.8c-2.9,3.9-6.6,8.7-11.2,14.2c-4.6,5.6-9.5,11.3-14.6,17.1c-5.1,5.8-10.2,11.4-15.1,16.7
		c-5,5.4-9.2,9.7-12.7,13c7.2,11.3,14.5,22.3,21.8,33.1c7.3,10.8,14.6,21.7,21.8,32.7c-5.1,2.1-9.6,4.5-13.6,7.2
		c-3.9,2.7-8.3,5.2-13.1,7.5c-1.2-1.7-2.5-3.1-3.8-4.4c-1.4-1.3-2.6-2.7-3.6-4.4c-0.8-1.2-1.4-2.4-2-3.6c-0.6-1.2-1.3-2.6-2-4.1
		c-2.3-4.4-5-8.4-8.2-12.1c-3.2-3.7-6.4-7.5-9.4-11.4c-0.3-0.3-0.5-0.7-0.5-1.1c0,0.5,0.3,0.7,0.9,0.7h0.5v0.2v1.1l0.7-0.5
		c0.1-0.1,0.5-0.2,0.9-0.2c0.8-0.1,1.4-0.5,1.8-0.9v-0.7l-0.7-0.2c-1.2-0.9-2.5-1.3-3.8-1.1l-0.2,0.2v0.2c-0.2,0.2-0.2,0.4-0.2,0.7
		l0.2,0.2c-0.2,0-0.2-0.1-0.2-0.2c0-0.1,0-0.3-0.1-0.3c-0.1-0.1-0.1-0.3-0.1-0.6c-3-3-5.7-6.3-8-9.8c-2.3-3.5-4.6-7.1-6.9-10.7
		c-0.8,2.4-1,5.3-0.7,8.6c0.3,3.3,0.5,7.9,0.5,13.8c0,3.9,0,7.3-0.1,10.1c-0.1,2.8-0.2,5.5-0.3,8.2c-0.2,2.7-0.2,5.6-0.2,8.6
		c0,3,0.1,6.6,0.2,10.8l-31.2,0.9c0.5-4.5,0.8-9.3,0.9-14.4c0.1-5,0.2-10.1,0.1-15c-0.1-5-0.2-9.8-0.5-14.5c-0.2-4.7-0.4-9-0.6-12.9
		c0-0.6,0-1.2,0.1-1.7c0.1-0.5,0.1-0.9,0.1-1.2c0-0.6,0.1-1,0.2-1.1c-2.3,3.6-3.9,7.2-5,10.6c-1.1,3.5-3.1,6.7-6.1,9.7
		c0,0.3,0,0.5-0.1,0.6c-0.1,0.1-0.1,0.2-0.1,0.3l-0.2,0.2l0.2-0.2c0-0.3-0.1-0.5-0.2-0.7v-0.2l-0.2-0.2c-1.4-0.1-2.6,0.2-3.8,1.1
		l-0.7,0.2v0.7c0.5,0.5,1.1,0.8,1.8,0.9c0.5,0,0.8,0.1,0.9,0.2l0.7,0.5v-1.1v-0.2h0.5c0.6,0,0.9-0.2,0.9-0.7c0,0.5-0.2,0.8-0.5,1.1
		c-3,3.9-6.2,7.7-9.5,11.4c-3.3,3.7-6,7.7-8.1,12.1c-0.8,1.5-1.4,2.9-2,4.1c-0.6,1.2-1.3,2.4-2,3.6c-1.1,1.7-2.3,3.1-3.6,4.4
		c-1.4,1.3-2.6,2.8-3.8,4.4c-4.8-2.3-9.2-4.7-13.1-7.5c-3.9-2.7-8.4-5.1-13.6-7.2c7.2-11,14.5-21.9,21.8-32.7
		c7.3-10.8,14.6-21.8,21.8-33.1c-3.5-3.3-7.7-7.6-12.7-13c-5-5.3-10-10.9-15.1-16.7c-5.1-5.8-10-11.5-14.6-17.1
		C6.6,29.5,2.9,24.7,0,20.8c4.4-2.9,8.1-5.9,11.2-9.2c3.1-3.2,6.8-6.3,11.2-9.2c2.3,2.7,5.4,6.4,9.5,11.1c4.1,4.7,8.3,9.6,12.8,14.7
		c4.4,5.1,8.7,10.1,12.9,14.8c4.1,4.7,7.4,8.6,9.8,11.4c0.5,0.6,1.1,1.5,1.9,2.6c0.8,1.1,1.7,2.3,2.7,3.5c1,1.2,1.9,2.3,2.8,3.3
		c0.9,1,1.7,1.6,2.5,1.9c0.3-4.4,0.4-8,0.3-11c-0.1-2.9-0.2-5.7-0.5-8.4c-0.2-2.6-0.4-5.3-0.6-7.9c-0.2-2.6-0.2-5.9,0-9.8
		c0-0.3,0-1.1,0-2.4c0-1.3,0-2.7,0.1-4.2c0.1-1.5,0.1-2.9,0.1-4.3s0-2.3,0-2.7c-0.5-0.5-0.6-1.3-0.6-2.6c0.1-1.3,0.2-2.6,0.5-4.1
		c0.2-1.4,0.5-2.8,0.8-4.2c0.3-1.4,0.5-2.4,0.7-3.2c1.5,0,3.6,0,6.3-0.1C87.2,1,90.1,0.9,93,0.8c2.9-0.1,5.8-0.1,8.5-0.1
		s4.9,0.2,6.6,0.5c0.3,1.4,0.5,2.8,0.6,4.2c0.1,1.4-0.3,2.6-1,3.5c-0.2,0.8,0.1,1.1,0.9,1c0.8-0.1,1.1,0.2,1.1,0.8
		c0.1,3.9,0.1,8.4,0,13.3c-0.2,5-0.3,10.2-0.5,15.6c-0.2,5.4-0.3,10.8-0.3,16c-0.1,5.3,0,10.1,0.3,14.5c0.6-0.3,1.6-1.2,2.9-2.6
		c1.4-1.4,2.8-3,4.3-4.7c1.5-1.7,2.9-3.4,4.3-5c1.4-1.6,2.3-2.7,2.7-3.3c2.4-2.9,5.7-6.7,9.8-11.5c4.1-4.8,8.4-9.8,12.9-14.9
		c4.4-5.1,8.7-10,12.8-14.6c4.1-4.6,7.2-8.2,9.5-11c4.4,2.9,8.1,5.9,11.2,9.2C182.6,14.9,186.4,17.9,190.7,20.8z M39.5,37.8
		c0.3-1.2-0.1-1.7-1.2-1.6c-1.1,0.2-2,0.1-2.6-0.2c0,0.3,0.1,0.5,0.2,0.7c0.1,0.2,0.3,0.4,0.5,0.7c0.5-0.3,0.9-0.3,1.4,0
		C38.2,37.6,38.8,37.8,39.5,37.8z M41.4,44.1c-0.2-0.8-0.1-1.4,0.1-2c0.2-0.6,0.2-1.3-0.1-2c-0.6-1.1-1.6-1.4-2.9-1.1
		c0,0.3-0.1,0.5-0.2,0.5c-0.2,0-0.2,0.2-0.2,0.5c0.3,0.5,0.6,0.8,1,0.9c0.4,0.2,0.8,0.4,1.2,0.7c-0.3,1.4-0.4,2.1-0.2,2.3
		c0.5,0,0.7,0.1,0.8,0.3C40.9,44.2,41.1,44.2,41.4,44.1z M46.3,122.5c0-0.5-0.2-0.8-0.7-1s-0.9-0.4-1.4-0.6
		c-0.5-0.1-0.8-0.3-1.1-0.6c-0.3-0.2-0.4-0.6-0.2-1.2H42c0.1,0.5,0.3,0.9,0.3,1.5c0.1,0.5,0,1.2-0.1,1.9c0.9,0,1.6,0,2,0.1
		C44.7,122.7,45.4,122.7,46.3,122.5z M62.2,76.2c-0.2-0.3-0.5-0.5-1.1-0.6c-0.6-0.1-1-0.1-1.1-0.1c0.1,0.3,0.5,0.5,1,0.7
		C61.4,76.3,61.8,76.3,62.2,76.2z M64.9,71.9c-0.3-0.8-0.8-0.9-1.5-0.5c-0.7,0.5-1.2,0.8-1.5,1.1c0.3,0.8,0.8,0.9,1.5,0.6
		C64.1,72.7,64.6,72.3,64.9,71.9z M78.2,94.7c0-0.3-0.1-0.5-0.2-0.6c-0.2-0.1-0.2-0.3,0-0.6c-1.1,0-1.6,0.2-1.6,0.5
		c0,0.5,0.2,0.8,0.7,0.9C77.5,95.1,77.9,95,78.2,94.7z M91.3,86.6c-0.2-0.6-0.4-1.2-0.7-1.7c-0.3-0.5-0.2-1,0.2-1.5
		c-1.2,0-2-0.3-2.3-1c-0.3-0.7-0.8-1.4-1.4-2.1c-0.5,0.3-0.9,0.6-1.4,0.9c-0.5,0.3-0.6,0.9-0.5,1.8c-0.6,0-1-0.2-1.1-0.7
		c-0.3,0.8,0.1,1.2,1.4,1.5c1.2,0.2,1.8,0.7,1.8,1.5h2.3c0.3,0,0.4,0.2,0.2,0.7c-0.2,0.5-0.2,0.8,0,1.1C90.9,87,91.3,86.9,91.3,86.6
		z M90.9,78.9c0-1.2-0.3-2-1-2.4c-0.7-0.4-1.5-0.6-2.4-0.6V75L87,75.3c-0.2,0-0.2,0.1-0.2,0.2l-0.2-0.2c-0.2,0-0.3-0.1-0.5-0.2
		c0.1,0.5,0.5,0.9,1,1.5c0.5,0.5,0.3,1.1-0.6,1.7c0,0.8,0.4,1,1.2,0.8c0.8-0.2,1.2,0,1,0.8c0.3-0.1,0.6-0.4,0.8-0.7
		C89.8,78.8,90.2,78.7,90.9,78.9z M91.8,30.7c-0.3-0.3-0.8-0.7-1.5-1.1c-0.7-0.5-1.2-0.3-1.5,0.5c0.3,0.5,0.8,0.9,1.5,1.2
		C91,31.7,91.5,31.5,91.8,30.7z M93.8,33.7c-0.2,0-0.5,0-1.1,0.1c-0.6,0.1-1,0.3-1.1,0.6c0.3,0.2,0.7,0.2,1.2,0
		C93.3,34.2,93.6,34,93.8,33.7z M99.7,85.2h-0.9c0.1,0.6,0.1,1-0.2,1.2c-0.3,0.2-0.7,0.4-1.1,0.6c-0.5,0.2-0.9,0.3-1.4,0.6
		s-0.7,0.6-0.7,1c0.9,0.2,1.6,0.2,2,0.1c0.5-0.1,1.1-0.1,2-0.1c-0.2-0.8-0.2-1.4-0.1-1.9C99.4,86.2,99.5,85.7,99.7,85.2z
		 M102.6,33.7c-0.3,0.5-0.7,0.7-1.1,0.7c0.1-0.9,0-1.5-0.5-1.8c-0.5-0.3-0.9-0.6-1.4-0.9c-0.6,0.8-1.1,1.5-1.4,2.1
		c-0.3,0.7-1.1,1-2.3,1c0.5,0.5,0.5,0.9,0.2,1.5c-0.3,0.5-0.5,1.1-0.7,1.7c0,0.3,0.5,0.5,1.4,0.5c0.1-0.3,0.1-0.7,0-1.1
		c-0.2-0.5-0.1-0.7,0.2-0.7h2.3c0-0.8,0.6-1.2,1.8-1.5C102.5,34.9,102.9,34.4,102.6,33.7z M100.8,26.5c-0.2,0.2-0.3,0.2-0.5,0.2
		c-0.2,0-0.2,0.1-0.2,0.2l-0.2-0.2c-0.2,0-0.3-0.1-0.5-0.2v0.9c-0.9,0-1.7,0.2-2.4,0.6c-0.7,0.4-1,1.2-1,2.4c0.6-0.1,1-0.1,1.2,0.2
		c0.2,0.3,0.5,0.5,0.8,0.7c-0.2-0.8,0.2-1,1-0.8c0.8,0.2,1.2,0,1.2-0.8c-0.9-0.6-1.1-1.2-0.6-1.7C100.3,27.4,100.6,26.9,100.8,26.5z
		 M125,96.3c0-0.3-0.5-0.5-1.6-0.5c0.1,0.3,0.1,0.5,0,0.6c-0.2,0.1-0.2,0.3-0.2,0.6c0.3,0.3,0.7,0.4,1.1,0.2
		C124.8,97,125,96.7,125,96.3z M134.7,64.6c0-0.3-0.1-0.5-0.2-0.5c-0.2,0-0.2-0.1-0.2-0.5c-1.4-0.3-2.3,0.1-2.9,1.1
		c-0.3,0.8-0.3,1.4-0.1,2c0.2,0.6,0.3,1.3,0.1,2c0.3,0.2,0.5,0.1,0.6-0.1c0.1-0.2,0.3-0.3,0.8-0.3c0.1-0.1,0.1-0.9-0.2-2.3
		c0.5-0.3,0.9-0.5,1.2-0.7C134.1,65.4,134.4,65.1,134.7,64.6z M137,60.8c-0.6,0.3-1.5,0.4-2.6,0.2c-1.1-0.1-1.5,0.4-1.2,1.6
		c0.8,0,1.4-0.1,1.8-0.5c0.5-0.3,0.9-0.3,1.4,0c0.1-0.3,0.3-0.5,0.5-0.7C136.9,61.3,137,61.1,137,60.8z"/>
	<path class="st0" d="M201.8,62.2c2.1-2.1,3.3-5,3.5-8.8c0.2-3.8,0.1-7.3-0.3-10.6c0-6-0.3-12.1-0.9-18.3
		c-0.6-6.2-0.5-11.9,0.2-17.2h34.6c0.8,7.2,1.1,14.1,1.1,20.7s0.1,13.7,0.5,21.4c0,1.2,0.1,2.5,0.5,4c0.3,1.4,0.5,2.8,0.5,4
		c-0.5,3.3-1.1,6.6-2,9.7c-0.9,3.2-0.8,6.4,0.5,9.7c1.7-4.8,3.8-9.8,6.3-14.9c2.6-5.1,4.4-10.1,5.6-14.9c1.7-2.9,3.2-6.1,4.5-9.7
		c1.4-3.6,3.1-6.9,5.2-9.7c0.5-1.2,1.2-2.1,2.1-2.8c1-0.7,1.6-1.6,1.9-2.8c0.8-0.9,1.2-1.8,1.4-2.7c0.1-0.9,0.2-1.9,0.2-2.9
		c0,0.5,0.2,0.9,0.6,1.5c0.4,0.5,0.7,1.2,1,1.9c0-0.5,0.1-0.8,0.5-0.9c0.3-0.1,0.5-0.4,0.5-0.7H268c0-0.5,0.1-0.8,0.3-0.9
		c0.2-0.1,0.3-0.5,0.3-0.9c0.5,0,0.8,0.3,0.9,0.8c0.1,0.5,0.5,0.6,0.9,0.1c0.3-0.5,0.1-0.7-0.5-0.8c-0.6-0.1-0.5-0.1,0.5-0.1
		c-0.9,0-1.2-0.2-0.8-0.6c0.4-0.4,0.3-0.9-0.1-1.7c-0.6,0.5-0.9,1.2-0.9,2.3c-0.5,0-0.7-0.2-0.7-0.7v-0.9h-0.9
		c0.5-1.2,0.8-2.4,1-3.6c0.2-1.2,0.7-2.6,1.5-4.3c0.8,0.3,1.5,0.3,2.3,0.1c0.8-0.2,1.4,0.3,1.8,1.5c0.3-0.8,0.9-1,1.7-0.7
		c0.8,0.3,1.6,0.2,2.4-0.2c0.8,0,1.5-0.1,2.4-0.3c0.8-0.2,1.6-0.3,2.4-0.3c0.5,0,1,0.1,1.7,0.3s1.2,0.3,1.5,0.3
		c3.6,0.8,7.2,0.9,10.8,0.5c3.6-0.5,7-0.3,10.2,0.5c-1.2,10.5-1.8,20.5-1.7,29.8c0.1,9.3,0.1,18.8,0.1,28.2c0.1,0.2,0.1,0.3,0,0.5
		c0,0.2-0.3,0.2-0.9,0.2c0.1,0.2,0.3,0.2,0.5,0.2c0.3,0.3,0.5,0.5,0.5,0.7c0,2.9,0.1,5.7,0.5,8.5c0.3,2.8,0.5,5.6,0.5,8.5
		c0,3.9,0.2,7.9,0.6,12.1c0.4,4.1,0.7,8.4,1,12.8c0.5,5.7,0.1,10.7-0.9,14.9c-1.1,4.2-1.9,9-2.5,14.2c1.7,3.6,2.1,7.6,1.4,11.9
		c-0.8,4.3-1.7,8.1-2.9,11.4c-2,0-4.3,0-7,0.1c-2.7,0.1-5.5,0.1-8.5,0.1c-2.9,0-5.8,0-8.7,0c-2.9,0-5.5-0.1-7.9-0.2
		c-0.5-12.7-0.6-25-0.3-37c0.2-12-0.5-23.8-2.1-35.6c-2.9,6-5.5,12.2-8,18.6c-2.5,6.4-5.8,12.2-9.8,17.5c0,0.9,0.1,1.5,0.5,1.8
		c0.3,0.3,0.5,0.8,0.5,1.6c-3.3,5.3-6.3,10.8-8.8,16.6c-2.6,5.8-5.3,11.5-8.1,17.1H205c0-3.2,0.3-6.1,1-8.9c0.7-2.8,0.6-5.4-0.1-7.8
		c0-1.2-0.4-2.3-1.1-3.3c-0.8-1-0.9-2.3-0.5-4c0.3,0.8,0.6,1.1,1,1.1c0.4,0,0.6-0.4,0.6-1.1c0-0.1-0.2-0.2-0.5-0.2
		c-0.2,0.2-0.3,0.2-0.5,0.2c-0.3,0.3-0.6,0.2-0.9-0.2c-0.3-0.5-0.2-0.7,0.2-0.7V137l0.7,0.9V137c0.6,0.6,1,0.9,1.1,0.9
		c0.1,0.2,0.3,0.2,0.5,0h0.9l0.9,0.9V137c0-0.3-0.3-0.6-1-1c-0.7-0.4-1.2-0.6-1.5-0.6l-0.9,0.9v-0.9v-0.7h-0.7
		c-0.5-5.3-0.7-10.7-0.8-16.2c-0.1-5.5-0.1-10.9-0.1-16.2c0-3.6-0.2-7-0.6-10.3c-0.4-3.2-0.2-6.3,0.6-9.2c0-0.5-0.1-0.8-0.2-0.9
		c-0.2-0.1-0.2-0.8-0.2-1.8c0-0.3-0.1-0.5-0.2-0.5c-0.6-2.9-0.8-5.8-0.7-8.9c0.1-3.1,0.6-5.2,1.4-6.4c0-0.8-0.3-1.2-0.8-1.5
		C202.1,62.7,201.8,62.5,201.8,62.2z M252.7,71.9c0.5-0.5,0.7-0.8,0.8-0.9c0.1-0.1,0.1-0.5,0.1-0.9h-1.8c0,0.5,0.1,0.8,0.5,0.9
		C252.5,71.1,252.7,71.4,252.7,71.9z M259.2,59.7v-1.6h-1.8C257.4,59.1,258,59.7,259.2,59.7z M259.9,62.8c0-0.8-0.1-1.3-0.3-1.6
		c-0.2-0.3-0.3-0.8-0.3-1.6l-1.8,1.6c0.9-0.3,1.4-0.1,1.4,0.6C258.8,62.5,259.1,62.8,259.9,62.8z M275.3,67.8c0.5-0.5,0.3-1-0.3-1.6
		c-0.7-0.6-1.4-0.9-2.1-0.9c0,0.8,0.3,1.4,0.9,1.8C274.3,67.6,274.8,67.8,275.3,67.8z M274.4,70.1h1.8c0-0.5-0.2-0.8-0.5-1.1
		l-0.5-0.5c-0.3,0-0.5,0.3-0.7,0.9C274.6,69.7,274.5,69.9,274.4,70.1z M288.1,63.7c-0.3-0.5-0.7-0.6-1.1-0.3
		c-0.5,0.2-0.9,0.3-1.4,0.3c0,0.3,0.4,0.5,1.2,0.5C287.7,64.2,288.1,64,288.1,63.7z"/>
	<path class="st0" d="M406.6,159.1h-0.7l-0.9-0.7v0.7v1.8h0.9c-0.8,1.4-1.9,2.3-3.4,2.9c-7.2-0.3-15.3-0.5-24.1-0.6
		c-8.8-0.1-17.7-0.1-26.8-0.1V163c0-0.3-0.2-0.5-0.7-0.5h-0.9c0,0.5-0.2,0.7-0.7,0.7h-27.6v-30.5c2.9,0.3,5.2,0.3,7.1,0.1
		c1.9-0.2,3.8,0.3,5.8,1.5l30.1,0.7c1.4,0.3,3.1,0.5,5.3,0.5c2.2,0,4.4,0,6.8-0.1c2.3-0.1,4.5-0.2,6.6-0.5c2-0.2,3.6-0.4,4.6-0.6
		c-0.5-4.8-0.8-9.8-1-14.9c-0.2-5.1-0.7-10.1-1.5-14.9c-3.2,0-6.5,0-10.1,0.1c-3.5,0.1-7.1,0.3-10.7,0.6h-14.7l-0.7-31.4l7.9-1.6
		c0.8,0.8,1.8,1.2,3.1,1.4c1.3,0.2,2.7,0.2,4.4,0.2l11.1-2.3h8.1c0-5.7,0.3-11.3,0.8-16.7c0.5-5.4,0.8-10.3,0.8-14.7h-21.7
		l-28.2,0.7c-3.6,0.2-6.6,0.2-8.8,0.2c-2.3,0-4.4-0.6-6.6-1.8c1.5-4.2,2-9.1,1.4-14.6c-0.6-5.5-1.1-10.6-1.4-15.3
		c4.8-0.8,9.7-0.8,14.6-0.1c4.9,0.7,9.8,1,14.6,1c0.5,0,2.7,0.1,6.8,0.2c4.1,0.2,8.9,0.3,14.5,0.6c5.6,0.2,11.3,0.5,17.1,0.8
		c5.8,0.3,10.5,0.5,14.1,0.7l15.4,21v38c0,1.2-0.5,2.5-1.5,3.7c-1,1.3-2.1,2.6-3.4,4c-1.3,1.4-2.4,2.8-3.4,4.2
		c-1,1.4-1.5,2.8-1.5,4.2c0,1.1,0.5,2.1,1.5,3.2c1,1.1,2.1,2.1,3.4,3.3c1.3,1.1,2.4,2.2,3.4,3.3c1,1.1,1.5,2.1,1.5,3.2v30.7
		c0,2.4,0.1,4.9,0.2,7.3c0.1,2.5,0.1,4.6-0.2,6.2c-0.5,1.7-1.6,3.3-3.4,4.9s-3.2,3.2-4.1,4.9c-0.8,0.8-1.4,1.5-1.8,2.4
		C407.5,157.6,407,158.4,406.6,159.1z M338.1,161.6v0.9h0.7h0.9h0.7V160C338.8,160,338.1,160.5,338.1,161.6z M392.1,57.6
		c-0.6,0.6-0.9,1.1-0.9,1.6h1.6C392.8,58.2,392.6,57.6,392.1,57.6z M395.3,155.3v-0.9h-0.7c-1.2,0-2,0.3-2.5,0.9v1.6
		c0.3,0,0.8-0.1,1.6-0.2C394.4,156.5,395,156,395.3,155.3z M395.3,62.6c-0.3-0.5-0.7-0.6-1.1-0.3s-0.9,0.3-1.4,0.3
		c0,0.3,0.4,0.5,1.2,0.5C394.9,63.1,395.3,62.9,395.3,62.6z M395.3,32.8c0.8,0.3,1.7-0.1,2.9-1.1c1.2-1.1,1.6-1.8,1.1-2.3
		c-0.8,0.5-1.5,0.9-2.3,1.4C396.3,31.2,395.7,31.9,395.3,32.8z M396.9,41.6c0,1.1,0.5,1.6,1.6,1.6c0.5-0.5,0.5-0.8,0.1-1.1
		C398.2,41.7,397.6,41.6,396.9,41.6z M398.4,92.2c0.5,0,1-0.1,1.6-0.5c0.6-0.3,0.9-0.7,0.9-1.1c-0.8,0-1.3-0.3-1.6-0.9
		c-0.3-0.6-0.8-1.1-1.6-1.4c-0.5,0.8-0.2,1.4,0.7,1.9C399.3,90.8,399.3,91.5,398.4,92.2z"/>
	<path class="st0" d="M536.5,162.1h-28.2c0.5-10.1,0.6-20.9,0.6-32.5c-0.1-11.6,0.3-23.1,1-34.4c-3.8-0.1-7.4-0.2-11-0.2
		c-3.5,0-7.2,0-10.8,0.1c-3.7,0.1-7.6,0.2-11.6,0.3c-4.1,0.2-8.5,0.3-13.3,0.5c1.2,10.4,1.5,21.4,1,32.9
		c-0.5,11.5-0.6,23.2-0.1,34.9c-5.3,0.3-10.4,0.5-15.5,0.6c-5,0.1-9.6,0-13.7-0.3c-1.2-8.6-1.8-17.5-1.7-26.7
		c0.1-9.2,0.1-18.6,0.1-28.3v-5c0-0.8-0.1-1.7-0.3-2.8c-0.2-1.1-0.3-2.1-0.3-2.8c0-3.2,0-6.9-0.1-11.1c-0.1-4.2,0.5-7.8,1.7-10.6
		c-0.5-1.7-0.7-3.8-0.8-6.3c-0.1-2.6-0.1-5.3-0.1-8.1c0.1,0,0.3-0.1,0.5-0.2c0.3-0.3,0.5-0.8,0.5-1.4h-0.9v-4.1
		c-0.3-3.3-0.4-6.4-0.2-9.3c0.1-2.9,0.2-5.7,0.2-8.6c0-3.2-0.1-6.3-0.2-9.5c-0.2-3.2-0.1-6.2,0.2-9c0-1.1,0.3-1.8,0.9-2.3
		c-0.5-1.2-0.6-2-0.5-2.4c0.1-0.4,0-0.9-0.5-1.7c1.1-0.5,1.7-1,1.8-1.7c0.1-0.7,0.1-1.4,0-2.1c-0.2-0.8-0.2-1.5-0.2-2.3
		c0-0.8,0.3-1.4,0.9-2c1.7-0.8,3.4-1.2,5.2-1.4c1.8-0.1,3.5-0.2,5.2-0.2c2.1,0,4-0.3,5.6-0.8c1.7-0.5,3.3-0.8,5-0.8
		c1.2,0,2.4,0.2,3.5,0.6c1.1,0.4,2.1,0.2,2.8-0.6c-0.3,4.8,0,9.5,0.8,13.9c0.8,4.4,0.9,8.7,0.1,12.8c0,0.8-0.3,1.5-0.8,2.4
		c-0.5,0.8-0.8,1.6-0.8,2.4c-0.5,2.1-0.6,4.4-0.3,7c0.2,2.6,0.3,5,0.3,7.5c0.3,2.6,0.5,5,0.6,7.5c0.1,2.4,0.1,5,0.1,7.9
		c7.7,0.8,15.6,1.1,23.8,1.1c8.2,0,16.2-0.4,23.8-1.1c0.5-2.6,0.7-5,0.8-7.3c0.1-2.3,0.1-4.7,0.1-7.1c0-2.9,0.1-5.6,0.2-8.4
		c0.1-2.7,0.1-5.3-0.2-7.9c0-0.8-0.3-1.4-0.9-1.9c-0.6-0.5-0.9-1.2-0.9-1.9c-0.3-2.1-0.2-4.3,0.2-6.7c0.5-2.3,0.7-4.7,0.7-7.1
		c0.5-2.6,0.6-5,0.5-7.2c-0.2-2.3,0-4.4,0.5-6.6c5.7,0,10.8-0.1,15.4-0.2c4.5-0.1,8.8-0.1,12.9,0.2c0.6,1.8,0.3,4.2-0.9,7.2
		c0,0.8,0.4,1.2,1.1,1.2c0.8,0.1,0.9,0.5,0.5,1.2c0,5.7,0.1,11.9,0.3,18.5c0.2,6.6,0.1,13.3-0.3,20.1c0,0.5,0.1,1.1,0.3,1.9
		c0.2,0.8,0.1,1-0.3,0.6c-0.3,0.5-0.2,0.6,0.2,0.5c0.5-0.1,0.7,0,0.7,0.5c-0.5,2-0.7,4.3-0.8,6.9c-0.1,2.6-0.1,5.4-0.1,8.2
		c0,0.8-0.1,1.6-0.3,2.5c-0.2,0.9-0.3,2-0.3,3.2c0,0.5,0.1,0.9,0.3,1.4c0.2,0.5,0.3,1.1,0.3,2c0.5,2.4,0.6,4.9,0.5,7.6
		c-0.2,2.6-0.3,5.2-0.5,7.6c-0.2,5.7-0.3,11.6-0.3,17.7c-0.1,6.1-0.2,12.2-0.3,18.3c-0.2,6.1-0.5,12-1,17.6
		C538.4,152,537.6,157.2,536.5,162.1z M443,56.5c0.8,0.8,1.3,0.8,1.7,0.1c0.4-0.7,1.2-1,2.4-1c-0.5-0.8-1.2-0.9-2.4-0.5
		S443,56.1,443,56.5z M445.4,60.6v0.7h1.6c0-0.3-0.2-0.6-0.6-0.9C446.1,60.1,445.7,60.1,445.4,60.6z M448.6,67.8h0.9v-0.9
		c-0.6,0-0.9,0.2-0.9,0.5C448.5,67.5,448.5,67.7,448.6,67.8z M448.6,57.2c1.1,0,1.6-0.5,1.6-1.6c-0.3,0-0.6,0.1-1,0.2
		C448.8,56,448.6,56.4,448.6,57.2z M451.8,60.6c0,0.8,0.4,1,1.2,0.8c0.8-0.2,1.2-0.5,1.2-0.8c-0.3-0.5-0.6-0.5-0.8-0.1
		C453.2,60.8,452.7,60.9,451.8,60.6z M453.6,68.5v0.9c0.3,0,0.5-0.1,0.7-0.5c0.1-0.3,0.5-0.5,0.9-0.5c0-0.3-0.3-0.5-0.8-0.5
		C453.8,68,453.6,68.2,453.6,68.5z M455.2,116.2c0-0.5,0.2-0.8,0.7-0.9c0.5-0.1,0.5-0.4,0-0.7c0-0.5-0.2-0.4-0.7,0.1
		C454.7,115.2,454.7,115.7,455.2,116.2z"/>
	<path class="st0" d="M624,162.7v-3.2h-0.9c0,0.5-0.5,0.7-1.6,0.7h-0.9h-0.7l-0.9-0.7l-0.7,0.7c0,0.6,0.2,1.1,0.7,1.6v0.9
		c-1.7-0.5-3.4-0.7-5.2-0.8c-1.8-0.1-3.5-0.1-5.2-0.1c-0.8,0.5-1.4,0.9-2,1.2c-0.6,0.4-1.3,0.6-2,0.6h-9.7c-2.1,0-4,0-5.5-0.1
		c-1.6-0.1-3.2-0.3-4.9-0.8v-0.9c0-0.3,0.1-0.6,0.2-1c0.1-0.4,0.1-0.6-0.2-0.6c0-0.5-0.2-0.7-0.5-0.7h-0.5h-0.7
		c-0.6,0.2-0.9,0.5-0.9,1.1c-0.2,0.2-0.2,0.3,0,0.5c0.5,0.3,0.8,0.6,0.9,1c0.1,0.4,0.4,0.6,0.7,0.6v0.5c0,0.3-0.2,0.5-0.7,0.5
		c-4.8-0.5-9.4-0.7-13.8-0.8c-4.4-0.1-8.4-0.1-12-0.1c0.3-4.1,0.6-8.2,0.8-12.5c0.2-4.3,0.2-8.7-0.1-13.2
		c-0.3-5.7-0.8-11.1-1.5-16.2c-0.7-5-0.4-9.6,0.8-13.7c-1.2-9.9-1.4-19.8-0.7-29.7c0.8-9.9,1-19.5,0.7-29h1.6c1.1,0,1.6-0.3,1.6-0.9
		h0.7c0-0.8-0.2-1.2-0.6-1.4c-0.4-0.1-0.9-0.2-1.7-0.2c-0.6,0-1.1,0.3-1.6,0.9c0-1.7,0-3.3-0.1-4.9c-0.1-1.6-0.3-3.2-0.8-4.9
		c0-1.2-0.2-2.5-0.5-4c-0.3-1.4-0.5-2.5-0.5-3.3c0-2.6,0.1-5,0.5-7.2c0.3-2.3,0.5-4.4,0.5-6.6V3.2c2.9,0.5,5.9,0.8,9.2,0.9
		c3.2,0.2,6.5,0.2,9.7,0.2c3.2,0,6.4,0,9.4-0.1c3-0.1,5.7-0.1,8.1-0.1c-0.5,3.6-0.5,6.9-0.2,9.9c0.3,3,0.6,6.1,0.9,9.3
		c0.6,5.6,0.8,10,0.6,13.3c-0.2,3.3-0.5,6.3-0.8,9c-0.3,2.7-0.5,5.6-0.5,8.7c0,3.1,0.5,7.2,1.6,12.3c3.8,0,7.9-0.1,12.4-0.2
		c4.5-0.1,9.1-0.3,13.7-0.5c4.6-0.1,9.2-0.2,13.7-0.1c4.5,0.1,8.7,0.3,12.7,0.8v64.6v32.3c-4.1-0.5-7.9-0.7-11.6-0.8
		C631.2,162.8,627.6,162.7,624,162.7z M562.5,24.2c0,0.3,0.1,0.5,0.2,0.6c0.1,0.1,0.7,0.1,1.6,0.1C564.3,24.4,563.7,24.2,562.5,24.2
		z M565,111.9c0,0.8,0.1,1.5,0.3,2.3c0.2,0.8,0.9,1.1,2.1,1.1c0-1.2-0.2-2-0.7-2.3C566.3,112.7,565.7,112.3,565,111.9z M576.3,31.4
		c0,0.3,0.1,0.5,0.5,0.7c0.3,0.2,0.5,0.5,0.5,0.9c0.3,0,0.3-0.3,0.1-0.8C577.1,31.7,576.7,31.4,576.3,31.4z M576.3,34.6
		c0,1.7,0.5,2.5,1.6,2.5c0-0.9-0.1-1.5-0.2-1.9C577.5,34.8,577,34.6,576.3,34.6z M576.3,59.4c0.8,0.9,1.2,1.7,1.2,2.4
		c0.1,0.7,0.7,1,1.9,1c0-0.8-0.2-1.6-0.7-2.5C578.3,59.4,577.5,59.1,576.3,59.4z M577.9,34.6c0.5,0.3,0.8,0.6,0.9,1
		c0.1,0.4,0.4,0.6,0.7,0.6c0-0.5-0.1-0.8-0.2-1.1C579.1,34.7,578.6,34.6,577.9,34.6z M579.5,68.5c0,0.5,0.3,0.7,0.9,0.7
		c0.5-0.3,0.5-0.6,0.2-0.9C580.3,68,579.9,68,579.5,68.5z M588.5,74.8c0,1.1-0.3,1.6-0.9,1.6c0.6,0.6,1.1,0.9,1.6,0.9
		c-0.3-0.5-0.2-0.7,0.3-0.8c0.5-0.1,0.9-0.1,1.2-0.1c-0.3-0.3-0.7-0.6-1.1-1C589.2,75,588.8,74.8,588.5,74.8z M613.4,99
		c-3.2-0.3-6.8-0.1-10.8,0.5c-4.1,0.6-8,1.3-11.8,2v33c3.8,1.2,7.7,1.7,11.9,1.6c4.1-0.1,8-0.4,11.6-0.7c0-1.4,0-3.8,0-7.3
		c0-3.5,0-7.3-0.1-11.2c-0.1-3.9-0.2-7.6-0.3-11C613.7,102.5,613.5,100.2,613.4,99z M594.8,93.3c0,0.6,0.8,0.9,2.5,0.9
		c0-0.8-0.3-1.2-0.9-1.2C595.8,92.9,595.3,93,594.8,93.3z M598.9,78.9c0.8,0,1.2,0.1,1.5,0.3c0.2,0.2,0.6,0.1,1-0.3
		c0.3-0.8,0-1.1-1-0.9C599.4,78.1,598.9,78.4,598.9,78.9z M598.9,81.4c0,0.5,0.3,1,0.9,1.6V82c0-0.3,0.3-0.4,0.8-0.3
		c0.5,0.1,0.8,0,0.8-0.3c-0.5-0.5-0.9-0.6-1.2-0.3C599.8,81.3,599.3,81.4,598.9,81.4z M603,81.4c-0.8-0.5-1.2-0.3-1.2,0.5
		c-0.1,0.8-0.5,1.1-1.2,1.1c0.5,0.3,1.1,0.7,1.8,1.2c0.8,0.5,1.5,0.3,2.3-0.6C604.5,82.1,604,81.4,603,81.4z M603,86.1V87
		c0.8,0,1.2-0.1,1.5-0.5c0.2-0.3,0.6-0.5,1-0.5c0-0.3-0.4-0.5-1.2-0.5C603.4,85.7,603,85.8,603,86.1z M606.1,80.5
		c0.6,0,0.9-0.2,0.9-0.7C606,79.8,605.7,80,606.1,80.5z M619,70.7c0,0.8,0.2,1.1,0.7,1.1c0.5,0,0.8-0.1,0.9-0.2
		c0.5-0.5,0.3-0.8-0.5-1C619.4,70.4,619,70.4,619,70.7z M621.5,89.3c0.3,0.3,0.6,0.4,0.8,0.3c0.2-0.1,0.5-0.1,0.8-0.1
		c0.1-0.1,0.5-0.2,0.9-0.2c0-0.3-0.4-0.5-1.2-0.5C621.9,88.8,621.5,89,621.5,89.3z"/>
	<path class="st0" d="M836.2,95.8c0.5,5.3,0.6,10.7,0.3,16.4c-0.2,5.6-0.3,11.5-0.3,17.5c0.5,2.6,0.8,5.1,0.9,7.6
		c0.1,2.5-0.2,4.6-0.9,6.2c-0.8,1.7-2.1,3.4-4,5.2c-1.9,1.8-3.3,3.5-4.2,5.2c-1.7,1.7-3,3.4-4,5.2c-1,1.8-2.3,3.3-4,4.5
		c-2.9-0.8-6-1-9.4-0.7c-3.4,0.3-6.7,0.6-10.1,0.9h-13.8v-0.2c0-1.1-0.2-1.6-0.7-1.6v-0.9h-1.6l-0.9,0.9c0,0.8,0.2,1.2,0.6,1.2
		c0.4,0.1,0.7,0.3,1,0.6h0.9h-42h-1.6l0.9-0.2h1.6h0.7v-0.9c-0.3-0.3-0.7-0.6-1.1-1c-0.5-0.4-0.8-0.6-1.1-0.6v-1.6v-0.7V158h1.6
		l0.7-0.7l-0.7-0.9h-1.6c-0.5,0-0.8,0-0.9,0.1c-0.2,0.1-0.5,0.3-0.9,0.8H741v0.7c-0.6,0-0.8,0.2-0.5,0.5l0.5,0.5
		c0,1.1-0.3,1.6-0.9,1.6l-0.7,0.7l1.6,0.9v0.7h-0.9c0,0.8,0.3,1.1,0.9,1.1c-1.2,0-2.4,0.1-3.6,0.2c-1.2,0.1-2.4,0.1-3.6-0.2v-30.1
		c2.4,0.5,4.7,0.5,7,0.2c2.3-0.3,4.2-0.1,5.9,0.7c0.8-7.1,1.2-14.8,1.4-23.3c0.1-8.4,0.2-17.1,0.2-26c0-8.9,0-17.7,0.1-26.6
		c0.1-8.8,0.3-17.1,0.8-25c-3.3-0.3-6.3-0.3-9,0.1c-2.7,0.4-5.1-0.2-7.2-1.7c1.2-4.4,1.7-9.3,1.4-14.7c-0.3-5.4-0.5-11-0.5-16.7
		c14.2,0.8,27.7,1.3,40.6,1.7c12.9,0.4,26.3,0.9,40.1,1.5c1.2,0,2.4,0,3.5-0.1c1.1-0.1,2.1,0.5,2.8,1.7v0.9c0-0.6-0.2-0.9-0.7-0.9
		l0.7,0.9l15.4,20.1c0,4.4,0,8.3-0.1,11.9c-0.1,3.5-0.1,6.9-0.1,10.2c0,3.2,0,6.4,0,9.6s0.1,6.6,0.2,10.2c-0.6,1.2-1.5,2.4-2.8,3.6
		c-1.3,1.2-2.5,2.4-3.7,3.6c-1.2,1.2-2.2,2.5-3.1,3.8c-0.8,1.4-1.1,2.8-0.8,4.3c0.1,1.2,0.6,2.3,1.5,3.4c0.8,1.1,1.8,2.1,2.8,3.1
		c1.1,1,2.1,1.9,3.3,2.8C834.5,94,835.4,94.9,836.2,95.8z M755.5,95.8c0.8,0,1.2-0.1,1.5-0.5c0.2-0.3,0.6-0.7,1-1.1
		c-1.1,0-1.6-0.2-1.6-0.7h-0.9c0.5,0,0.6,0.3,0.3,0.9C755.6,95.1,755.5,95.5,755.5,95.8z M762.1,77.5c0.3,0.3,0.8,0.4,1.4,0.2
		c0.6-0.1,0.9-0.8,0.9-2c-0.3,0-0.8,0.2-1.4,0.6C762.4,76.7,762.1,77.1,762.1,77.5z M766.8,87c-0.5,0.8-0.7,1.6-0.7,2.5
		c1.1,0,1.8-0.3,2.3-0.9h-1.6c0-0.3,0.1-0.6,0.3-1C767.4,87.2,767.3,87,766.8,87z M766.1,91.1c0,0.8,0.5,1.2,1.5,1.5
		c1,0.2,1.2-0.3,0.8-1.5c-0.3,0-0.6,0.1-0.8,0.3C767.4,91.7,766.9,91.5,766.1,91.1z M770,89.5c0.5-0.5,0.9-0.9,1.2-1.2
		c0.4-0.4,0.6-0.8,0.6-1.2c-0.9-0.8-1.6-0.9-2-0.5s-0.9,0.9-1.4,1.4c0.5,0,0.6,0.3,0.6,0.8C768.9,89.2,769.2,89.5,770,89.5z M770,83
		v1.8c0.5,0.3,1,0.5,1.6,0.5c0.6,0,0.9-0.1,0.9-0.5c-0.3-0.5-0.6-0.9-0.8-1.2C771.4,83.1,770.9,83,770,83z M773.4,89.5
		c0,0.8,0.1,1.2,0.5,1.4c0.3,0.2,0.7,0.2,1.1,0.2C774.9,90,774.4,89.5,773.4,89.5z M802.3,33.9c-3.9-0.5-7.8-0.6-11.5-0.3
		c-3.8,0.2-7.5,0.3-11.1,0.3c0.5,5.7,0.6,11.5,0.5,17.3c-0.2,5.8,0,11.9,0.5,18.2c3.2-0.8,6.6-1.4,10.2-1.9
		c3.6-0.5,7.2-0.9,10.8-1.2c0-5.7,0.1-11,0.3-15.7S802.3,40.2,802.3,33.9z M780.6,134.7c4.1-0.5,8.3-0.6,12.8-0.6
		c4.4,0.1,8.5-0.3,12.3-1c-0.5-2.1-0.6-4.3-0.6-6.7c0.1-2.3,0-4.7-0.3-7.1c-0.6-3.6-1-7.4-1.1-11.3c-0.2-3.9-0.8-7.2-2-9.7
		c-0.5,0.5-0.8,0.9-1,1.2c-0.2,0.4,0.1,0.8,1,1.2h-4.1l0.7-0.9l0.9-0.7l-0.9-0.9h-0.7H796c-0.6,0-1.1,0.3-1.6,0.9v0.7h0.7v0.9v0.7
		c-2.4,0-4.8,0-7.2,0.1c-2.4,0.1-4.8,0.3-7.2,0.8c-0.3,2.9-0.5,5.5-0.5,8c0,2.5,0,5,0.1,7.6c0.1,2.6,0.1,5.2,0.2,7.9
		C780.6,128.6,780.6,131.5,780.6,134.7z"/>
	<path class="st0" d="M956.6,162.1h-28.2c0.5-10.1,0.6-20.9,0.6-32.5c-0.1-11.6,0.3-23.1,1-34.4c-3.8-0.1-7.4-0.2-11-0.2
		c-3.5,0-7.2,0-10.8,0.1c-3.7,0.1-7.6,0.2-11.6,0.3c-4.1,0.2-8.5,0.3-13.3,0.5c1.2,10.4,1.5,21.4,1,32.9
		c-0.5,11.5-0.6,23.2-0.1,34.9c-5.3,0.3-10.4,0.5-15.5,0.6c-5,0.1-9.6,0-13.7-0.3c-1.2-8.6-1.8-17.5-1.7-26.7
		c0.1-9.2,0.1-18.6,0.1-28.3v-5c0-0.8-0.1-1.7-0.3-2.8c-0.2-1.1-0.3-2.1-0.3-2.8c0-3.2,0-6.9-0.1-11.1c-0.1-4.2,0.5-7.8,1.7-10.6
		c-0.5-1.7-0.7-3.8-0.8-6.3c-0.1-2.6-0.1-5.3-0.1-8.1c0.1,0,0.3-0.1,0.5-0.2c0.3-0.3,0.5-0.8,0.5-1.4h-0.9v-4.1
		c-0.3-3.3-0.4-6.4-0.2-9.3c0.1-2.9,0.2-5.7,0.2-8.6c0-3.2-0.1-6.3-0.2-9.5c-0.2-3.2-0.1-6.2,0.2-9c0-1.1,0.3-1.8,0.9-2.3
		c-0.5-1.2-0.6-2-0.5-2.4c0.1-0.4,0-0.9-0.5-1.7c1.1-0.5,1.7-1,1.8-1.7c0.1-0.7,0.1-1.4,0-2.1c-0.2-0.8-0.2-1.5-0.2-2.3
		c0-0.8,0.3-1.4,0.9-2c1.7-0.8,3.4-1.2,5.2-1.4c1.8-0.1,3.5-0.2,5.2-0.2c2.1,0,4-0.3,5.7-0.8c1.7-0.5,3.3-0.8,5-0.8
		c1.2,0,2.4,0.2,3.5,0.6c1.1,0.4,2.1,0.2,2.8-0.6c-0.3,4.8,0,9.5,0.8,13.9c0.8,4.4,0.9,8.7,0.1,12.8c0,0.8-0.3,1.5-0.8,2.4
		c-0.5,0.8-0.8,1.6-0.8,2.4c-0.5,2.1-0.6,4.4-0.3,7c0.2,2.6,0.3,5,0.3,7.5c0.3,2.6,0.5,5,0.6,7.5c0.1,2.4,0.1,5,0.1,7.9
		c7.7,0.8,15.6,1.1,23.8,1.1c8.2,0,16.2-0.4,23.8-1.1c0.5-2.6,0.7-5,0.8-7.3c0.1-2.3,0.1-4.7,0.1-7.1c0-2.9,0.1-5.6,0.2-8.4
		c0.1-2.7,0.1-5.3-0.2-7.9c0-0.8-0.3-1.4-0.9-1.9c-0.6-0.5-0.9-1.2-0.9-1.9c-0.3-2.1-0.2-4.3,0.2-6.7c0.5-2.3,0.7-4.7,0.7-7.1
		c0.5-2.6,0.6-5,0.5-7.2c-0.2-2.3,0-4.4,0.5-6.6c5.7,0,10.8-0.1,15.4-0.2c4.5-0.1,8.8-0.1,12.9,0.2c0.6,1.8,0.3,4.2-0.9,7.2
		c0,0.8,0.4,1.2,1.1,1.2c0.8,0.1,0.9,0.5,0.5,1.2c0,5.7,0.1,11.9,0.3,18.5c0.2,6.6,0.1,13.3-0.3,20.1c0,0.5,0.1,1.1,0.3,1.9
		c0.2,0.8,0.1,1-0.3,0.6c-0.3,0.5-0.2,0.6,0.2,0.5c0.5-0.1,0.7,0,0.7,0.5c-0.5,2-0.7,4.3-0.8,6.9c-0.1,2.6-0.1,5.4-0.1,8.2
		c0,0.8-0.1,1.6-0.3,2.5c-0.2,0.9-0.3,2-0.3,3.2c0,0.5,0.1,0.9,0.3,1.4c0.2,0.5,0.3,1.1,0.3,2c0.5,2.4,0.6,4.9,0.5,7.6
		c-0.2,2.6-0.3,5.2-0.5,7.6c-0.2,5.7-0.3,11.6-0.3,17.7c-0.1,6.1-0.2,12.2-0.3,18.3c-0.2,6.1-0.5,12-1,17.6
		C958.5,152,957.7,157.2,956.6,162.1z M863.1,56.5c0.8,0.8,1.3,0.8,1.7,0.1c0.4-0.7,1.2-1,2.4-1c-0.5-0.8-1.2-0.9-2.4-0.5
		S863.1,56.1,863.1,56.5z M865.6,60.6v0.7h1.6c0-0.3-0.2-0.6-0.6-0.9C866.2,60.1,865.9,60.1,865.6,60.6z M868.7,67.8h0.9v-0.9
		c-0.6,0-0.9,0.2-0.9,0.5C868.6,67.5,868.6,67.7,868.7,67.8z M868.7,57.2c1.1,0,1.6-0.5,1.6-1.6c-0.3,0-0.6,0.1-1,0.2
		C868.9,56,868.7,56.4,868.7,57.2z M871.9,60.6c0,0.8,0.4,1,1.2,0.8c0.8-0.2,1.2-0.5,1.2-0.8c-0.3-0.5-0.6-0.5-0.8-0.1
		C873.4,60.8,872.8,60.9,871.9,60.6z M873.7,68.5v0.9c0.3,0,0.5-0.1,0.7-0.5c0.1-0.3,0.5-0.5,0.9-0.5c0-0.3-0.3-0.5-0.8-0.5
		C874,68,873.7,68.2,873.7,68.5z M875.3,116.2c0-0.5,0.2-0.8,0.7-0.9c0.5-0.1,0.5-0.4,0-0.7c0-0.5-0.2-0.4-0.7,0.1
		C874.8,115.2,874.8,115.7,875.3,116.2z"/>
	<path class="st0" d="M1056.8,156.4c0,1.7,0.2,3.1,0.6,4.3c0.4,1.2,0.2,2.2-0.6,2.9c-4.1,0-8.2,0-12.3,0.1c-4.1,0.1-7.8-0.3-11-1
		c0-0.5-0.3-0.7-0.9-0.7h-0.9h-0.7v0.7c-0.6,0.6-1.7,0.9-3.2,0.9c-0.5-0.5-1.1-0.5-2-0.2c-0.9,0.3-1.4,0.1-1.4-0.7
		c-1.7,0.5-3.4,0.9-5.2,1.4c-1.8,0.5-3.3,0.3-4.5-0.5c-0.3,0-0.7,0-1.1,0.1c-0.5,0.1-0.8,0.1-1.1,0.1c-6.9,0.3-13.3,0.4-19.1,0.2
		c-5.8-0.2-11.6-0.2-17.3-0.2c-0.8-8.1-1.3-15.9-1.7-23.2c-0.4-7.3-0.3-14.4,0.1-21.4c0.5-5.7,0.5-11.5,0.1-17.3
		c-0.4-5.8-0.4-11.3-0.1-16.6c0.1-1.7,0.4-3.2,0.7-4.7c0.3-1.5,0.6-2.9,0.9-4.1c-0.6-1.8-0.9-3.5-1-5.2c-0.1-1.7,0-3.3,0.1-5
		c0.1-1.7,0.2-3.4,0.2-5.1c0-1.7-0.3-3.7-0.9-5.8c0.8-3.8,1.1-8.1,1.1-12.9c0-4.8-0.1-9.7-0.2-14.6c-0.2-4.9-0.1-9.6,0.1-14.1
		s0.9-8.4,2.1-11.5c2.9,0,5.7,0,8.5-0.1c2.8-0.1,5.6-0.3,8.5-0.8c5-0.1,10.2-0.3,15.7-0.5c5.5-0.1,11-0.2,16.4-0.1
		c5.4,0.1,10.8,0.3,16,0.8c5.3,0.5,10.2,1.2,14.9,2.3c0,4.8-0.2,10-0.5,15.6c-0.3,5.6-0.5,10.5-0.5,14.9c-3.6-1.8-7.5-2.9-11.8-3.3
		c-4.2-0.4-8.6-0.5-13.1-0.2c-4.5,0.2-9,0.5-13.6,0.9c-4.5,0.4-8.9,0.5-13.1,0.3c-0.9,5.3-1.2,10.8-1,16.7c0.2,5.9,0.6,11,1,15.4
		c2,0.5,4.2,0.4,6.7-0.1c2.5-0.5,4.8-0.2,6.9,1c0.5-0.5,0.5-0.7,0.1-0.8c-0.4-0.1-0.9-0.1-1.7-0.1c0.5-0.3,1.1-0.4,1.8-0.3
		c0.8,0.1,1,0.5,0.7,1.2c2.9-1.7,6.3-2.5,10.2-2.6c3.9-0.1,7.5-0.3,10.8-0.6c0.5,2.9,0.6,5.6,0.6,8.1c-0.1,2.6-0.2,5.1-0.2,7.7
		c-0.1,2.6-0.2,5.2-0.2,7.8c-0.1,2.6,0.1,5.5,0.6,8.5c-6.5,0.5-12.4,0.8-17.9,1.1c-5.4,0.3-11.5,0.5-18.3,0.5
		c0.8,6.3,0.8,12.5,0.2,18.6c-0.6,6.1-0.7,12.3-0.2,18.6c9.6,0,18.9,0.1,27.9,0.2c9,0.2,17.1,0.1,24.5-0.2c0.3,3.2,0.1,6.9-0.6,11.3
		C1056.4,148.8,1056.3,152.8,1056.8,156.4z M986.5,108c-0.5,0.8-0.7,1.3-0.7,1.6h1.6C987.4,108.6,987.1,108,986.5,108z M987.4,112.8
		c0,0.5,0.4,0.7,1.2,0.7c0.8,0,1.2-0.2,1.2-0.7c-0.5-0.3-0.9-0.4-1.2-0.2C988.2,112.7,987.8,112.8,987.4,112.8z M989.9,83
		c0.5,0,1-0.1,1.6-0.3c0.6-0.2,1.2-0.5,1.7-0.9c0.5-0.4,0.9-0.8,1.1-1.2c0.2-0.5,0.1-0.9-0.3-1.4c-0.9,0.8-1.7,1.4-2.5,1.9
		C990.7,81.6,990.2,82.2,989.9,83z M991.4,92c0,1.1,0.5,1.6,1.6,1.6c0.5-0.5,0.5-0.9,0.1-1.5C992.8,91.6,992.2,91.5,991.4,92z
		 M993,141.9c0.5,0.3,1,0.3,1.6,0c0.6-0.3,0.9-0.8,0.9-1.6c-0.8,0.3-1.2,0.1-1.5-0.6c-0.2-0.7-0.6-1-1-1c-0.5,0.8-0.4,1.4,0.2,1.8
		C993.9,141,993.8,141.5,993,141.9z M1010.9,22.6c-0.6,0-0.9,0.2-0.9,0.5c-0.2,0.2-0.2,0.3,0,0.5c0.6,0,0.9,0.5,0.9,1.6
		c0.5,0,1-0.3,1.6-0.9c-0.5-0.3-0.8-0.5-1.1-0.5C1011,23.7,1010.9,23.4,1010.9,22.6z M1018.8,5.7c-0.3,0-0.6,0.1-1,0.2
		c-0.4,0.2-0.6,0.6-0.6,1.4c0.5,0.5,0.9,0.5,1.5,0.1C1019.2,7,1019.2,6.4,1018.8,5.7z M1021.3,17c0,0.5-0.2,0.9-0.5,1.2
		c-0.3,0.4-0.5,0.8-0.5,1.2c0.9-0.5,1.5-0.6,1.7-0.5c0.2,0.2,0.5,0,0.8-0.5h-0.5c-0.2,0-0.2-0.2-0.2-0.7c-0.2-0.1-0.2-0.3-0.2-0.5
		C1021.7,17.1,1021.4,17,1021.3,17z M1022.9,21h-2.5c0,0.8,0.5,1.2,1.6,1.5C1023,22.7,1023.3,22.2,1022.9,21z M1026,16.1
		c-0.8-0.3-1.4-0.2-1.8,0.3c-0.5,0.5-0.9,1-1.4,1.5c0.5,0,0.6,0.3,0.6,0.8c-0.1,0.5,0.3,0.8,1,0.8c0.5-0.5,0.8-0.9,1.1-1.4
		C1025.9,17.6,1026,17,1026,16.1z M1024.4,12.9v1.6c0.5,0,1,0,1.6-0.1c0.6-0.1,0.9-0.3,0.9-0.6c-0.5,0-0.8-0.1-1-0.5
		C1025.7,13,1025.2,12.9,1024.4,12.9z M1027.6,19.4c0,0.8,0.1,1.1,0.5,0.9c0.3-0.1,0.7-0.2,1.1-0.2
		C1029.2,19.7,1028.7,19.4,1027.6,19.4z"/>
	<path class="st0" d="M1233,159.1h-0.7l-0.9-0.7v0.7v1.8h0.9c-0.8,1.4-1.9,2.3-3.4,2.9c-7.2-0.3-15.3-0.5-24.1-0.6
		c-8.8-0.1-17.7-0.1-26.8-0.1V163c0-0.3-0.2-0.5-0.7-0.5h-0.9c0,0.5-0.2,0.7-0.7,0.7h-27.6v-30.5c2.9,0.3,5.2,0.3,7.1,0.1
		c1.9-0.2,3.8,0.3,5.8,1.5l30.1,0.7c1.4,0.3,3.1,0.5,5.3,0.5c2.2,0,4.4,0,6.8-0.1c2.3-0.1,4.5-0.2,6.6-0.5s3.6-0.4,4.6-0.6
		c-0.5-4.8-0.8-9.8-1-14.9c-0.2-5.1-0.7-10.1-1.5-14.9c-3.2,0-6.5,0-10.1,0.1c-3.5,0.1-7.1,0.3-10.7,0.6h-14.7l-0.7-31.4l7.9-1.6
		c0.8,0.8,1.8,1.2,3.1,1.4c1.3,0.2,2.7,0.2,4.4,0.2l11.1-2.3h8.1c0-5.7,0.3-11.3,0.8-16.7c0.5-5.4,0.8-10.3,0.8-14.7h-21.7
		l-28.2,0.7c-3.6,0.2-6.6,0.2-8.8,0.2c-2.3,0-4.4-0.6-6.6-1.8c1.5-4.2,2-9.1,1.4-14.6c-0.6-5.5-1.1-10.6-1.4-15.3
		c4.8-0.8,9.7-0.8,14.6-0.1c4.9,0.7,9.8,1,14.6,1c0.5,0,2.7,0.1,6.8,0.2c4.1,0.2,8.9,0.3,14.5,0.6c5.6,0.2,11.3,0.5,17.1,0.8
		c5.8,0.3,10.5,0.5,14.1,0.7l15.4,21v38c0,1.2-0.5,2.5-1.5,3.7c-1,1.3-2.1,2.6-3.4,4c-1.3,1.4-2.4,2.8-3.4,4.2
		c-1,1.4-1.5,2.8-1.5,4.2c0,1.1,0.5,2.1,1.5,3.2c1,1.1,2.1,2.1,3.4,3.3c1.3,1.1,2.4,2.2,3.4,3.3c1,1.1,1.5,2.1,1.5,3.2v30.7
		c0,2.4,0.1,4.9,0.2,7.3c0.1,2.5,0.1,4.6-0.2,6.2c-0.5,1.7-1.6,3.3-3.4,4.9c-1.8,1.6-3.2,3.2-4.1,4.9c-0.8,0.8-1.4,1.5-1.8,2.4
		C1233.9,157.6,1233.5,158.4,1233,159.1z M1164.6,161.6v0.9h0.7h0.9h0.7V160C1165.3,160,1164.6,160.5,1164.6,161.6z M1218.6,57.6
		c-0.6,0.6-0.9,1.1-0.9,1.6h1.6C1219.3,58.2,1219,57.6,1218.6,57.6z M1221.7,155.3v-0.9h-0.7c-1.2,0-2,0.3-2.5,0.9v1.6
		c0.3,0,0.8-0.1,1.6-0.2C1220.9,156.5,1221.4,156,1221.7,155.3z M1221.7,62.6c-0.3-0.5-0.7-0.6-1.1-0.3s-0.9,0.3-1.4,0.3
		c0,0.3,0.4,0.5,1.2,0.5C1221.3,63.1,1221.7,62.9,1221.7,62.6z M1221.7,32.8c0.8,0.3,1.7-0.1,2.9-1.1c1.2-1.1,1.6-1.8,1.1-2.3
		c-0.8,0.5-1.5,0.9-2.3,1.4C1222.8,31.2,1222.2,31.9,1221.7,32.8z M1223.3,41.6c0,1.1,0.5,1.6,1.6,1.6c0.5-0.5,0.5-0.8,0.1-1.1
		C1224.6,41.7,1224.1,41.6,1223.3,41.6z M1224.9,92.2c0.5,0,1-0.1,1.6-0.5c0.6-0.3,0.9-0.7,0.9-1.1c-0.8,0-1.3-0.3-1.6-0.9
		c-0.3-0.6-0.8-1.1-1.6-1.4c-0.5,0.8-0.2,1.4,0.7,1.9C1225.8,90.8,1225.8,91.5,1224.9,92.2z"/>
	<path class="st0" d="M1343.8,129.1h0.2c0.3,0,0.5,0.2,0.5,0.7l5.7,34.8h-22.6c-2.1-4.8-3.7-9.6-4.7-14.5c-1.1-4.8-2.4-9.4-4.1-13.8
		c-4.4,0-9.2-0.1-14.6-0.5c-5.3-0.3-10.4-0.5-15.3-0.5c-2.1,4.4-3.5,9-4.2,13.9c-0.7,4.9-1.5,9.8-2.4,14.6c-3.9,0-8,0.2-12.2,0.6
		c-4.2,0.4-8.7,0.2-13.6-0.6l5.7-38.9c0.8,0.8,1.8,0.8,3.2,0c-0.8-0.5-1.4-0.6-1.8-0.5c-0.5,0.2-0.9,0-1.4-0.5
		c1.7-9.6,3.1-19.5,4.2-29.5c1.1-10,2.4-20.3,4-30.8l2.5-17.9c0.3-1.7,0.9-3,1.8-4c0.9-1,1.4-2.3,1.4-4c0.8-2.6,1.3-5.2,1.6-7.8
		c0.3-2.6,0.8-5.2,1.6-7.6c1.2-3.6,2.2-7.2,2.9-10.8c0.8-3.6,1.1-7.2,1.1-10.8h6.6c-0.5,0.3-0.8,0.4-0.9,0.2
		c-0.2-0.1-0.5-0.2-0.9-0.2c0,0.8,0.5,1,1.5,0.8c1-0.2,1.8-0.5,2.6-0.8c0.5,0,0.6,0.2,0.5,0.5c-0.2,0.3,0,0.7,0.5,1.1
		c0.3-0.5,0.6-0.8,0.9-0.9c0.3-0.1,0.2-0.4-0.2-0.7h16.3c2.9-0.5,5-0.8,6.6-0.9c1.5-0.1,2.6,1.2,3.2,4.1l2.3,12
		c0.8,1.7,1.4,3.4,1.9,5.3c0.5,1.9,1,3.7,1.5,5.3c0,0.3-0.2,0.4-0.5,0.3c-0.3-0.1-0.5,0-0.5,0.3v0.9c0-0.6-0.3-0.9-0.9-0.9
		c-0.5,0-0.7,0.2-0.7,0.5v0.5l-0.9-0.9v0.9c-0.3,0-0.6,0.1-1,0.2c-0.4,0.2-0.6,0.6-0.6,1.4v0.9h0.9h0.7l-0.7,0.7l0.7-0.7v0.7
		c-0.5,0.8-0.7,1.3-0.7,1.6v0.9l1.6-0.9v0.5c0,0.3,0.2,0.5,0.7,0.5c0.9,0,1.4-0.3,1.6-0.9c0.1-0.6,0.2-1.1,0.2-1.6v-0.7h-2.5h0.7
		c0.5-0.5,0.9-0.8,1.2-0.9c0.4-0.1,0.6-0.4,0.6-0.7l1.6,5.4c2.7,9.5,4.9,19.2,6.4,29.2c1.6,9.9,3.4,19.9,5.5,29.8
		c0,1.1-0.2,1.6-0.7,1.6c0.8,1.2,1.4,2.7,1.8,4.5c0.5,1.8,0.9,3.5,1.4,5.2c0.5,3.6,1,7.3,1.6,11.1c0.6,3.8,0.9,7.3,0.9,10.6
		C1344.5,127.5,1344.5,128.3,1343.8,129.1z M1290.4,7.2l-0.7,0.9h1.6h2.3V7.2l0.9,0.9V6.6h-0.9V5.7l-0.7,0.9h-0.9h-0.5
		c-0.2,0-0.3,0.1-0.5,0.2C1291,6.9,1290.7,7.1,1290.4,7.2z M1295.4,104.9c2,0.3,4.8,0.4,8.5,0.2c3.7-0.1,6.7-0.2,9.2-0.2
		c-1.2-7.2-2.5-14.4-3.7-21.5c-1.3-7.1-3-13.6-5.1-19.7c-1.7,6.5-3.4,13.1-5.1,20C1297.4,90.6,1296.2,97.6,1295.4,104.9z
		 M1327.5,149.2h1.8h0.7l2.5,1.6l-0.9-2.5c-0.5-0.5-1.2-0.7-2.3-0.7h-0.9h-0.9l-1.6-0.9v0.9c0.5,0.8,0.8,1.2,0.9,1.4
		C1327,149.1,1327.2,149.2,1327.5,149.2z"/>
	<path class="st0" d="M1493.2,33c-3.3-0.3-7-0.5-11-0.7c-4-0.1-9.4-0.2-16.2-0.2c-2.9,10.8-7,20.4-12.4,28.6
		c-5.4,8.2-11,15.3-16.9,21.1c7.3,11.3,14.5,22.3,21.9,33.1c7.3,10.8,14.6,21.7,21.9,32.7c-5.1,2.1-10.1,4.5-14.7,7.2
		c-4.7,2.7-9.4,5.2-14.3,7.5c-1.2-1.7-2.5-3.1-3.9-4.4c-1.4-1.3-2.6-2.7-3.6-4.4c-0.8-1.2-1.4-2.4-2-3.6c-0.6-1.2-1.3-2.6-2-4.1
		c-2.3-4.4-5-8.4-8.3-12.1c-3.2-3.7-6.4-7.5-9.4-11.4c-0.3-0.3-0.5-0.7-0.5-1.1c0,0.5,0.3,0.7,0.9,0.7h0.5v0.2v1.1l0.7-0.5
		c0.1-0.1,0.5-0.2,0.9-0.2c0.8-0.1,1.4-0.5,1.8-0.9v-0.7l-0.7-0.2c-1.2-0.9-2.4-1.3-3.7-1.1l-0.2,0.2v0.2c-0.1,0.2-0.2,0.4-0.2,0.7
		c0,0.2,0.1,0.2,0.2,0.2c-0.1,0-0.2-0.1-0.2-0.2c-0.1-0.1-0.2-0.5-0.2-0.9c-3-3-5.7-6.3-8-9.8c-2.3-3.5-4.6-7.1-6.9-10.7
		c-2.6,0-5.2,0-7.8,0c-2.6,0-4.9-0.1-6.7-0.2c-0.2,3.9-0.3,8.3-0.3,13.1c-0.1,4.8-0.2,9.8-0.3,15c-0.2,5.2-0.4,10.4-0.7,15.5
		c-0.3,5.1-0.8,9.9-1.4,14.5c-6.3-0.3-12.1-0.4-17.2-0.2c-5.1,0.2-10.2,0.1-15.1-0.2c0.8-10.5,1.2-22,1.4-34.2
		c0.1-12.3,0.5-25,1.1-38.3c0.3-6.8,0.3-13.4,0.1-19.8c-0.2-6.4,0-12.8,0.6-19.1c0.8,0,1.4-0.1,1.9-0.2c0.5-0.1,0.9-0.1,1,0.2
		c0.3-0.3,0.1-0.6-0.5-1c-0.6-0.4-1.3-0.6-2-0.6c-0.5-2.3-0.4-4.3,0.1-6.2c0.5-1.9,0.5-3.8-0.1-5.8c-0.2-0.6-0.5-1.2-0.9-1.7
		c-0.5-0.5-0.8-1.2-0.9-1.9c-0.6-2.6-0.6-5.5,0-8.8c0.6-3.3,1.1-6.5,1.4-9.5c0-1.2-0.1-2.4-0.2-3.7c-0.2-1.3-0.1-2.6,0.2-4
		c0.5-0.5,1-0.5,1.7,0s1.3,0.7,1.9,0.7c0.5,0,0.9-0.2,1.5-0.7c0.5-0.5,1.2-0.8,1.9-0.9c0.6-0.1,1.2-0.1,1.9,0.1
		c0.7,0.2,1.4,0.3,2.1,0.3c3,0,6.2-0.2,9.7-0.7c3.5-0.5,6.9-0.4,10.2,0.2c0.3,1.4,0.5,2.8,0.6,4.2c0.1,1.4-0.3,2.6-1,3.5
		c-0.2,0.8,0.1,1.1,0.8,1c0.7-0.1,1.1,0.2,1.2,0.8c0.1,3.9,0.1,8.1,0,12.5c-0.2,4.4-0.3,9-0.6,13.8c-0.2,4.7-0.4,9.5-0.5,14.2
		c-0.1,4.7,0,9.3,0.3,13.7c1.2,0.5,2.5,0.7,3.8,0.7c1.4,0,2.9,0.1,4.7,0.2c1.7,0,3.4,0.1,5.3,0.2c1.9,0.2,3.5,0.1,4.9-0.2
		c0.6-0.3,1.4-0.9,2.3-1.9c0.9-1,1.8-2.1,2.8-3.3c1-1.2,1.9-2.4,2.8-3.5c0.9-1.1,1.6-2,2-2.6c4.4-5.3,8.7-11.7,13-19.2
		c4.3-7.5,7.3-16,8.9-25.5l3.6-5.2c11.3-1.4,20.7-2.2,28.2-2.5c7.5-0.3,13.5-0.5,17.9-0.5c0.5,1.8,0.7,4.1,0.8,6.9
		c0.1,2.8,0.1,5.6,0,8.6c-0.1,2.9-0.2,5.8-0.2,8.7C1493,28.6,1493,31.1,1493.2,33z M1382.6,88.6c-0.2-0.8-0.2-1.4-0.1-1.9
		c0.1-0.5,0.2-1,0.3-1.5h-0.9c0.1,0.6,0.1,1-0.2,1.2c-0.3,0.2-0.7,0.4-1.1,0.6c-0.5,0.2-0.9,0.3-1.4,0.6s-0.7,0.6-0.7,1
		c0.9,0.2,1.6,0.2,2,0.1C1381.1,88.6,1381.7,88.6,1382.6,88.6z M1396.2,80.9c0.3,0.5,0.8,0.9,1.5,1.2c0.7,0.4,1.2,0.2,1.5-0.6
		c-0.3-0.3-0.8-0.7-1.5-1.1S1396.5,80.2,1396.2,80.9z M1398.9,85.2c0.3,0.2,0.7,0.2,1.2,0c0.5-0.1,0.9-0.4,1-0.7
		c-0.2,0-0.5,0-1.1,0.1C1399.4,84.7,1399.1,84.9,1398.9,85.2z M1404.7,87.5h2.1c0-0.8,0.6-1.2,1.8-1.5c1.2-0.2,1.7-0.7,1.4-1.5
		c-0.3,0.5-0.7,0.7-1.1,0.7c0.1-0.9,0-1.5-0.5-1.8c-0.5-0.3-0.9-0.6-1.4-0.9c-0.6,0.8-1,1.5-1.3,2.1c-0.3,0.7-1,1-2.1,1
		c0.4,0.5,0.5,0.9,0.2,1.5c-0.3,0.5-0.5,1.1-0.7,1.7c0,0.3,0.4,0.5,1.3,0.5c0.1-0.3,0.1-0.7,0-1.1S1404.4,87.5,1404.7,87.5z
		 M1406.8,77.3v0.9c-0.8,0-1.6,0.2-2.2,0.6c-0.6,0.4-0.9,1.2-0.9,2.4c0.6-0.1,1-0.1,1.2,0.2c0.2,0.3,0.5,0.5,0.8,0.7
		c-0.1-0.8,0.2-1,1-0.8c0.8,0.2,1.2,0,1.2-0.8c-0.9-0.6-1.1-1.2-0.6-1.7c0.5-0.5,0.9-1,1-1.5l-0.5,0.2c-0.2,0-0.2,0.1-0.2,0.2
		l-0.2-0.2C1407.1,77.5,1407,77.5,1406.8,77.3z M1420.6,97c0.3,0.3,0.7,0.4,1.1,0.2c0.5-0.1,0.7-0.5,0.7-0.9c0-0.3-0.5-0.5-1.6-0.5
		c0.1,0.3,0.1,0.5,0,0.6C1420.7,96.5,1420.6,96.7,1420.6,97z M1423.1,73c0.5-0.3,0.9-0.5,1.2-0.7c0.4-0.1,0.7-0.5,1-0.9
		c0-0.3-0.1-0.5-0.2-0.5c-0.2,0-0.2-0.1-0.2-0.5c-1.4-0.3-2.3,0.1-2.9,1.1c-0.3,0.8-0.3,1.4-0.1,2c0.2,0.6,0.3,1.3,0.1,2
		c0.3,0.2,0.5,0.1,0.6-0.1c0.1-0.2,0.3-0.3,0.8-0.3C1423.5,75.1,1423.4,74.4,1423.1,73z M1426.9,68.9c0.1-0.3,0.3-0.5,0.5-0.7
		c0.1-0.1,0.2-0.4,0.2-0.7c-0.6,0.3-1.5,0.4-2.6,0.2c-1.1-0.1-1.5,0.4-1.2,1.6c0.8,0,1.4-0.1,1.8-0.5
		C1426,68.6,1426.5,68.6,1426.9,68.9z M1479.6,25.8h-1.8c0,1.1,0.3,1.6,0.9,1.6C1479.3,26.9,1479.6,26.4,1479.6,25.8z M1482.8,10.4
		c0,0.5,0.3,0.7,0.8,0.7c0.5,0,0.8-0.2,0.8-0.7c-0.5,0-0.8-0.1-1.1-0.2C1482.9,10,1482.8,10.1,1482.8,10.4z"/>
	<path class="st0" d="M1582.7,67.8c-0.2,1.2,0,2.3,0.3,3.3c0.4,1,0.8,2.3,1.2,4c0,2.4-0.2,4.9-0.5,7.6c-0.3,2.6-0.5,5.2-0.5,7.8
		c0,4.4,0,8.8,0,13.3s-0.2,9.4-0.7,14.7c-0.3,3.3-0.5,6.3-0.7,8.8c-0.2,2.6,0.1,5.3,0.7,8.1c0,0.5,0.1,1,0.3,1.7
		c0.2,0.7,0.3,1.2,0.3,1.7c0,1.2-0.3,2.4-0.8,3.6c-0.5,1.2-0.8,2.4-0.8,3.6c-0.3,2.9-0.2,5.8,0.5,8.8c0.6,3,0.8,6,0.5,8.8
		c-1.2,0.3-2,0.2-2.4-0.2c-0.4-0.5-0.9-0.7-1.7-0.7c-4.1,0-7.8-0.4-11.1-1.1c-3.3-0.8-6.6-1.1-9.9-1.1c-2.9,0.3-5.8,0.7-8.8,1.1
		c-3,0.5-6,0.3-8.8-0.5c-0.3-0.1-0.5-0.5-0.5-1.1c0-0.6-0.1-1.2-0.2-1.9c-0.2-0.7-0.3-1.4-0.6-2c-0.2-0.7-0.6-1.1-1.2-1.2
		c0.8-0.5,1-1.3,0.8-2.6c-0.2-1.3-0.5-2.3-0.8-3.1c0.8-1.2,0.9-2.6,0.6-4.2c-0.4-1.6-0.6-3.4-0.6-5.5c0-1.2,0.1-2.2,0.3-3.1
		c0.2-0.8,0.3-1.4,0.3-1.7c-0.3-1.2-0.8-1.8-1.4-1.9c-0.6-0.1-0.9-0.6-0.9-1.5c3.2-0.8,6.2-1.1,9.3-0.9c3,0.2,5.6,0.2,7.7,0.2
		c0.8-1.2,1-2.4,0.8-3.7c-0.2-1.3,0-1.9,0.8-1.9c-0.8-4.8-1-10.4-0.8-16.8c0.2-6.4,0.2-12.6-0.1-18.6c-0.5-9.9-0.9-19.5-1.4-28.8
		c-0.5-9.3-0.5-18.2-0.2-26.8c-2.6-0.8-4.7-1.2-6.6-1.2c-1.8-0.1-3.6,0-5.3,0.1c-1.7,0.2-3.5,0.4-5.4,0.7c-1.9,0.3-4.2,0.5-6.9,0.5
		c-0.3,8.4-0.3,16.7,0.1,24.9c0.4,8.1,0.8,16.2,1.2,24.1c0.5,7.9,0.8,15.7,1,23.5c0.2,7.8,0,15.6-0.8,23.4c0.5,0.6,1.1,1,1.8,1.2
		c0.8,0.2,1.5,0.5,2.3,0.7c0.8,0.2,1.4,0.6,2,1c0.6,0.5,1,1.1,1.1,2c-0.3,0-0.8-0.1-1.4-0.3c-0.6-0.2-0.9-0.1-0.9,0.3
		c0.3,2.4,0.6,5,1,7.9c0.4,2.9,0.3,6.1-0.3,9.7c0,0.5-0.1,1.1-0.3,1.8c-0.2,0.8-0.3,1.5-0.3,2.3c0,0.8,0.4,1.5,1.1,2.4
		c0.8,0.8,1.1,1.6,1.1,2.4c-5.7,0.8-11.8,0.9-18.1,0.6c-6.3-0.4-12.1-0.6-17.4-0.6c-1.7-16-2.7-31.8-3.1-47.5
		c-0.4-15.7-0.7-31.3-1-46.8c-0.2-6.5,0.3-13.1,1.5-19.8c1.1-6.7,1.5-13.3,1-19.8c-0.3-4.4-0.8-8.5-1.6-12.3
		c-0.8-3.8-0.8-7.8,0-11.9c10.1,0,20.8,0,32.1-0.1c11.3-0.1,22.1-0.3,32.5-0.6c3.2-0.5,6.3-0.6,9.5-0.3s6.2,1.2,9,2.8
		c0.6,2.4,0.8,4.9,0.7,7.3c-0.2,2.5-0.4,5-0.7,7.5c-0.3,2.5-0.5,5-0.7,7.5c-0.2,2.5,0.1,4.9,0.7,7.3c0,0.9,0.3,1.8,0.9,2.6
		c0.6,0.8,1.1,1.8,1.4,3.1c0.5,2.1,0.2,4.3-0.7,6.7c-0.9,2.3-1.2,4.7-0.9,7.1c0,0.8,0.3,1.4,0.8,2c0.5,0.6,0.8,1.3,0.8,2
		c0,1.7-0.2,3.3-0.6,4.9C1582.4,64.5,1582.4,66.2,1582.7,67.8z M1506,112.1c0,0.3,0.3,0.3,1,0.1c0.7-0.2,0.9-0.6,0.6-1
		C1506.6,111.2,1506,111.5,1506,112.1z M1509.2,83c0.3-0.3,0.6-0.5,1-0.7c0.4-0.1,0.6-0.5,0.6-0.9c-0.8-0.3-1.3-0.2-1.7,0.3
		C1508.7,82.2,1508.8,82.7,1509.2,83z M1512.4,32.3c0-0.8-0.3-1.3-1-1.7c-0.7-0.4-1.4-0.3-2.1,0.1c0,0.8,0.3,1.2,1,1.4
		C1510.9,32.3,1511.6,32.3,1512.4,32.3z M1509.2,41.1v1.6h1.6C1510.8,41.7,1510.3,41.1,1509.2,41.1z M1510.8,45.9
		c-0.5,0.5-0.2,0.7,0.8,0.7c1,0,1.2-0.2,0.8-0.7c0-0.3-0.2-0.4-0.5-0.2C1511.6,45.8,1511.2,45.9,1510.8,45.9z M1516.4,12.2l-3.2,3.8
		c0.8,0,1.7-0.5,2.7-1.4C1517,13.8,1517.2,13,1516.4,12.2z M1514.9,25.1c0,0.3,0.1,0.6,0.2,1c0.1,0.4,0.6,0.6,1.4,0.6
		c0.5-0.5,0.5-0.9,0.1-1.5C1516.2,24.7,1515.6,24.6,1514.9,25.1z M1516.4,75c0.5,0.3,1,0.3,1.6,0.1c0.6-0.2,0.9-0.6,0.9-1
		c-0.8,0-1.3-0.4-1.6-1.1c-0.3-0.8-0.8-1.1-1.6-1.1c-0.5,0.8-0.3,1.4,0.3,1.8C1516.8,74.1,1516.9,74.6,1516.4,75z M1558.5,144.2
		c0-0.8,0.1-1.3,0.3-1.6c0.2-0.3,0.3-0.8,0.3-1.6c-0.8-0.3-1.4-0.3-2,0.1c-0.6,0.4-1.5,0.3-2.7-0.1c0.3,0.8,0.4,1.2,0.2,1.5
		c-0.2,0.2-0.2,0.6-0.2,1c0.8,0,1.4,0,2,0.1C1557,143.7,1557.7,143.9,1558.5,144.2z M1562.5,132.2c0.3-0.5,0.4-0.9,0.2-1.2
		c-0.2-0.4-0.2-0.8-0.2-1.2c-1.2,0-1.8,0.5-1.8,1.6c0.5,0,0.8,0.2,0.9,0.5C1561.8,132.1,1562.1,132.2,1562.5,132.2z M1568.9,148.3
		h-1.6c0,0.5,0.3,0.8,0.8,0.9C1568.6,149.3,1568.9,149,1568.9,148.3z"/>
	<path class="st0" d="M1703.3,162.1h-28.2c0.5-10.1,0.6-20.9,0.6-32.5c-0.1-11.6,0.3-23.1,1-34.4c-3.8-0.1-7.4-0.2-11-0.2
		c-3.5,0-7.2,0-10.8,0.1c-3.7,0.1-7.6,0.2-11.6,0.3c-4.1,0.2-8.5,0.3-13.3,0.5c1.2,10.4,1.5,21.4,1,32.9
		c-0.5,11.5-0.6,23.2-0.1,34.9c-5.3,0.3-10.4,0.5-15.5,0.6c-5,0.1-9.6,0-13.7-0.3c-1.2-8.6-1.8-17.5-1.7-26.7
		c0.1-9.2,0.1-18.6,0.1-28.3v-5c0-0.8-0.1-1.7-0.3-2.8c-0.2-1.1-0.3-2.1-0.3-2.8c0-3.2,0-6.9-0.1-11.1c-0.1-4.2,0.5-7.8,1.7-10.6
		c-0.5-1.7-0.7-3.8-0.8-6.3c-0.1-2.6-0.1-5.3-0.1-8.1c0.1,0,0.3-0.1,0.5-0.2c0.3-0.3,0.5-0.8,0.5-1.4h-0.9v-4.1
		c-0.3-3.3-0.4-6.4-0.2-9.3c0.1-2.9,0.2-5.7,0.2-8.6c0-3.2-0.1-6.3-0.2-9.5c-0.2-3.2-0.1-6.2,0.2-9c0-1.1,0.3-1.8,0.9-2.3
		c-0.5-1.2-0.6-2-0.5-2.4c0.1-0.4,0-0.9-0.5-1.7c1.1-0.5,1.7-1,1.8-1.7c0.1-0.7,0.1-1.4,0-2.1c-0.2-0.8-0.2-1.5-0.2-2.3
		c0-0.8,0.3-1.4,0.9-2c1.7-0.8,3.4-1.2,5.2-1.4c1.8-0.1,3.5-0.2,5.2-0.2c2.1,0,4-0.3,5.7-0.8c1.7-0.5,3.3-0.8,5-0.8
		c1.2,0,2.4,0.2,3.5,0.6c1.1,0.4,2.1,0.2,2.8-0.6c-0.3,4.8,0,9.5,0.8,13.9c0.8,4.4,0.9,8.7,0.1,12.8c0,0.8-0.3,1.5-0.8,2.4
		c-0.5,0.8-0.8,1.6-0.8,2.4c-0.5,2.1-0.6,4.4-0.3,7c0.2,2.6,0.3,5,0.3,7.5c0.3,2.6,0.5,5,0.6,7.5c0.1,2.4,0.1,5,0.1,7.9
		c7.7,0.8,15.6,1.1,23.8,1.1c8.2,0,16.2-0.4,23.8-1.1c0.5-2.6,0.7-5,0.8-7.3c0.1-2.3,0.1-4.7,0.1-7.1c0-2.9,0.1-5.6,0.2-8.4
		c0.1-2.7,0.1-5.3-0.2-7.9c0-0.8-0.3-1.4-0.9-1.9c-0.6-0.5-0.9-1.2-0.9-1.9c-0.3-2.1-0.2-4.3,0.2-6.7c0.5-2.3,0.7-4.7,0.7-7.1
		c0.5-2.6,0.6-5,0.5-7.2c-0.2-2.3,0-4.4,0.5-6.6c5.7,0,10.8-0.1,15.4-0.2c4.5-0.1,8.8-0.1,12.9,0.2c0.6,1.8,0.3,4.2-0.9,7.2
		c0,0.8,0.4,1.2,1.1,1.2c0.8,0.1,0.9,0.5,0.5,1.2c0,5.7,0.1,11.9,0.3,18.5c0.2,6.6,0.1,13.3-0.3,20.1c0,0.5,0.1,1.1,0.3,1.9
		c0.2,0.8,0.1,1-0.3,0.6c-0.3,0.5-0.2,0.6,0.2,0.5c0.5-0.1,0.7,0,0.7,0.5c-0.5,2-0.7,4.3-0.8,6.9c-0.1,2.6-0.1,5.4-0.1,8.2
		c0,0.8-0.1,1.6-0.3,2.5c-0.2,0.9-0.3,2-0.3,3.2c0,0.5,0.1,0.9,0.3,1.4c0.2,0.5,0.3,1.1,0.3,2c0.5,2.4,0.6,4.9,0.5,7.6
		c-0.2,2.6-0.3,5.2-0.5,7.6c-0.2,5.7-0.3,11.6-0.3,17.7c-0.1,6.1-0.2,12.2-0.3,18.3c-0.2,6.1-0.5,12-1,17.6
		C1705.2,152,1704.4,157.2,1703.3,162.1z M1609.8,56.5c0.8,0.8,1.3,0.8,1.7,0.1c0.4-0.7,1.2-1,2.4-1c-0.5-0.8-1.2-0.9-2.4-0.5
		S1609.8,56.1,1609.8,56.5z M1612.3,60.6v0.7h1.6c0-0.3-0.2-0.6-0.6-0.9C1612.9,60.1,1612.6,60.1,1612.3,60.6z M1615.4,67.8h0.9
		v-0.9c-0.6,0-0.9,0.2-0.9,0.5C1615.3,67.5,1615.3,67.7,1615.4,67.8z M1615.4,57.2c1.1,0,1.6-0.5,1.6-1.6c-0.3,0-0.6,0.1-1,0.2
		C1615.6,56,1615.4,56.4,1615.4,57.2z M1618.6,60.6c0,0.8,0.4,1,1.2,0.8c0.8-0.2,1.2-0.5,1.2-0.8c-0.3-0.5-0.6-0.5-0.8-0.1
		C1620.1,60.8,1619.5,60.9,1618.6,60.6z M1620.4,68.5v0.9c0.3,0,0.5-0.1,0.7-0.5c0.1-0.3,0.5-0.5,0.9-0.5c0-0.3-0.3-0.5-0.8-0.5
		C1620.7,68,1620.4,68.2,1620.4,68.5z M1622,116.2c0-0.5,0.2-0.8,0.7-0.9c0.5-0.1,0.5-0.4,0-0.7c0-0.5-0.2-0.4-0.7,0.1
		C1621.5,115.2,1621.5,115.7,1622,116.2z"/>
	<path class="st0" d="M1807.1,129.1h0.2c0.3,0,0.5,0.2,0.5,0.7l5.7,34.8h-22.6c-2.1-4.8-3.7-9.6-4.7-14.5c-1.1-4.8-2.4-9.4-4.1-13.8
		c-4.4,0-9.2-0.1-14.6-0.5c-5.3-0.3-10.4-0.5-15.3-0.5c-2.1,4.4-3.5,9-4.2,13.9c-0.7,4.9-1.5,9.8-2.4,14.6c-3.9,0-8,0.2-12.2,0.6
		c-4.2,0.4-8.7,0.2-13.6-0.6l5.7-38.9c0.8,0.8,1.8,0.8,3.2,0c-0.8-0.5-1.4-0.6-1.8-0.5c-0.5,0.2-0.9,0-1.4-0.5
		c1.7-9.6,3.1-19.5,4.2-29.5c1.1-10,2.4-20.3,4-30.8l2.5-17.9c0.3-1.7,0.9-3,1.8-4c0.9-1,1.4-2.3,1.4-4c0.8-2.6,1.3-5.2,1.6-7.8
		c0.3-2.6,0.8-5.2,1.6-7.6c1.2-3.6,2.2-7.2,2.9-10.8c0.8-3.6,1.1-7.2,1.1-10.8h6.6c-0.5,0.3-0.8,0.4-0.9,0.2
		c-0.2-0.1-0.5-0.2-0.9-0.2c0,0.8,0.5,1,1.5,0.8c1-0.2,1.8-0.5,2.6-0.8c0.5,0,0.6,0.2,0.5,0.5c-0.2,0.3,0,0.7,0.5,1.1
		c0.3-0.5,0.6-0.8,0.9-0.9c0.3-0.1,0.2-0.4-0.2-0.7h16.3c2.9-0.5,5-0.8,6.6-0.9c1.5-0.1,2.6,1.2,3.2,4.1l2.3,12
		c0.8,1.7,1.4,3.4,1.9,5.3c0.5,1.9,1,3.7,1.5,5.3c0,0.3-0.2,0.4-0.5,0.3c-0.3-0.1-0.5,0-0.5,0.3v0.9c0-0.6-0.3-0.9-0.9-0.9
		c-0.5,0-0.7,0.2-0.7,0.5v0.5l-0.9-0.9v0.9c-0.3,0-0.6,0.1-1,0.2c-0.4,0.2-0.6,0.6-0.6,1.4v0.9h0.9h0.7l-0.7,0.7l0.7-0.7v0.7
		c-0.5,0.8-0.7,1.3-0.7,1.6v0.9l1.6-0.9v0.5c0,0.3,0.2,0.5,0.7,0.5c0.9,0,1.4-0.3,1.6-0.9c0.1-0.6,0.2-1.1,0.2-1.6v-0.7h-2.5h0.7
		c0.5-0.5,0.9-0.8,1.2-0.9c0.4-0.1,0.6-0.4,0.6-0.7l1.6,5.4c2.7,9.5,4.9,19.2,6.4,29.2c1.6,9.9,3.4,19.9,5.5,29.8
		c0,1.1-0.2,1.6-0.7,1.6c0.8,1.2,1.4,2.7,1.8,4.5c0.5,1.8,0.9,3.5,1.4,5.2c0.5,3.6,1,7.3,1.6,11.1c0.6,3.8,0.9,7.3,0.9,10.6
		C1807.8,127.5,1807.8,128.3,1807.1,129.1z M1753.7,7.2l-0.7,0.9h1.6h2.3V7.2l0.9,0.9V6.6h-0.9V5.7l-0.7,0.9h-0.9h-0.5
		c-0.2,0-0.3,0.1-0.5,0.2C1754.3,6.9,1754,7.1,1753.7,7.2z M1758.7,104.9c2,0.3,4.8,0.4,8.5,0.2c3.7-0.1,6.7-0.2,9.2-0.2
		c-1.2-7.2-2.5-14.4-3.7-21.5c-1.3-7.1-3-13.6-5.1-19.7c-1.7,6.5-3.4,13.1-5.1,20C1760.7,90.6,1759.5,97.6,1758.7,104.9z
		 M1790.8,149.2h1.8h0.7l2.5,1.6l-0.9-2.5c-0.5-0.5-1.2-0.7-2.3-0.7h-0.9h-0.9l-1.6-0.9v0.9c0.5,0.8,0.8,1.2,0.9,1.4
		C1790.3,149.1,1790.5,149.2,1790.8,149.2z"/>
</g>
</svg>
