<?xml version="1.0" encoding="utf-8"?>
<!-- Generator: Adobe Illustrator 22.0.1, SVG Export Plug-In . SVG Version: 6.00 Build 0)  -->
<svg version="1.1" id="Layer_1" xmlns="http://www.w3.org/2000/svg" xmlns:xlink="http://www.w3.org/1999/xlink" x="0px" y="0px"
	 viewBox="0 0 39.4 45.7" style="enable-background:new 0 0 39.4 45.7;" xml:space="preserve">
<style type="text/css">
	.st0{fill:#FFFFFF;}
	.st1{fill:#A4153A;}
	.st2{fill:#9EA5AB;}
</style>
<g>
	<g>
		<path class="st0" d="M4.3,45.7c-2.4,0-4.3-1.9-4.3-4.3l0,0V4.3C0,1.9,1.9,0,4.3,0l0,0h30.8v2.1H4.3c-1.2,0-2.2,1-2.2,2.2l0,0v37.1
			c0,1.2,1,2.2,2.2,2.2l0,0h30.8c1.2,0,2.2-1,2.2-2.2l0,0V4.3c0-1.2-1-2.2-2.2-2.2l0,0V0c2.4,0,4.3,1.9,4.3,4.3l0,0v37.1
			c0,2.4-1.9,4.3-4.3,4.3l0,0H4.3L4.3,45.7z"/>
	</g>
	<g>
		<path class="st1" d="M36.2,33.6c0,1.4-1.1,2.5-2.5,2.5H5.2c-1.4,0-2.5-1.1-2.5-2.5V5.2c0-1.4,1.1-2.5,2.5-2.5h28.4
			c1.4,0,2.5,1.1,2.5,2.5v28.4H36.2z"/>
		<path class="st2" d="M14.7,35.6V20.8c0-2.5-0.1-4.1-0.2-4.6s-0.5-0.9-1-1.2c-0.6-0.3-1.8-0.4-3.7-0.4H9v-3.8c4-0.9,7-2.6,9-5.3
			h18.2v28.3L35.5,35l-1.4,0.7L14.7,35.6z"/>
		<path class="st0" d="M21.9,35.7c-0.6-1.2-0.9-3.1-0.9-5.8c0-1.9,0.2-3.5,0.5-4.8c0.3-1.4,1.3-2.5,2.8-3.3c-1-0.5-1.8-1.2-2.3-2.2
			s-0.8-2.3-0.8-3.8c0-2.6,0.8-4.6,2.4-5.9s3.9-2,7-2c2.2,0,4,0.3,5.4,0.8v24.8l-0.4,1.1l-0.8,0.8l-1,0.3H21.9z M32.4,27.9
			c0-1.2-0.1-2-0.4-2.3c-0.3-0.4-0.7-0.6-1.2-0.6s-0.9,0.2-1.2,0.6c-0.2,0.4-0.4,1.2-0.4,2.4v4c0,1.3,0.1,2.2,0.4,2.6
			s0.7,0.6,1.3,0.6c0.6,0,1-0.2,1.2-0.6s0.3-1.3,0.3-2.6L32.4,27.9L32.4,27.9z M32.2,15.2c0-1-0.1-1.7-0.3-2.1
			c-0.2-0.3-0.6-0.5-1.1-0.5s-0.9,0.2-1.1,0.5c-0.2,0.4-0.3,1-0.3,2v2.3c0,0.9,0.1,1.6,0.3,1.9c0.2,0.4,0.6,0.5,1.1,0.5
			s0.9-0.2,1.1-0.5s0.3-1.1,0.3-2.2V15.2z"/>
		<path d="M35.1,1H4.3C2.5,1,1,2.5,1,4.3v37.1c0,1.8,1.5,3.3,3.3,3.3h30.8c1.8,0,3.3-1.5,3.3-3.3V4.3C38.4,2.4,36.9,1,35.1,1
			 M35.7,33.1c0,1.3-1.1,2.4-2.4,2.4H5.7c-0.4,0-0.8-0.1-1.2-0.3c-0.8-0.4-1.3-1.2-1.3-2.1V5.5c0-1.3,1.1-2.4,2.4-2.4h27.6
			c0.4,0,0.8,0.1,1.2,0.3c0.8,0.4,1.3,1.2,1.3,2.1V33.1z"/>
		<path class="st0" d="M4.3,38.3v-0.4H5v0.4h0.9v0.5H5c0,0.3,0.1,0.6,0.3,0.8c0.2,0.2,0.5,0.4,0.8,0.6l-0.3,0.4
			c-0.3-0.1-0.5-0.2-0.7-0.4c-0.2-0.2-0.4-0.3-0.5-0.5c-0.1,0.2-0.3,0.3-0.5,0.5s-0.5,0.3-0.7,0.4l-0.3-0.4c0.3-0.2,0.6-0.3,0.8-0.6
			c0.2-0.3,0.3-0.5,0.3-0.8H3.3v-0.5H4.3z M6.8,41c0.3,0.2,0.5,0.4,0.5,0.7c0,0.3-0.2,0.5-0.5,0.7S6,42.7,5.4,42.7s-1-0.1-1.4-0.3
			c-0.3-0.2-0.4-0.4-0.4-0.7c0-0.3,0.1-0.5,0.4-0.7s0.8-0.3,1.4-0.3C6,40.7,6.5,40.8,6.8,41 M4.6,41.3c-0.2,0.1-0.3,0.2-0.3,0.3
			c0,0.1,0.1,0.2,0.3,0.3C4.8,42,5.1,42,5.4,42c0.4,0,0.6,0,0.8-0.1c0.2-0.1,0.3-0.2,0.3-0.3c0-0.1-0.1-0.2-0.3-0.3
			c-0.2-0.1-0.5-0.1-0.8-0.1C5.1,41.2,4.8,41.2,4.6,41.3 M7.2,40.5H6.5v-0.9H5.7v-0.5h0.8V38h0.7V40.5z"/>
		<path class="st0" d="M11,39.5c0.3,0.3,0.7,0.5,1.2,0.7l-0.3,0.4c-0.4-0.1-0.8-0.3-1.1-0.5c-0.3-0.2-0.5-0.4-0.7-0.7
			c-0.2,0.3-0.4,0.5-0.7,0.7c-0.3,0.2-0.6,0.3-1.1,0.5L8,40.2c0.5-0.2,0.9-0.4,1.2-0.7c0.3-0.4,0.5-0.9,0.5-1.5h0.7
			C10.5,38.6,10.7,39.1,11,39.5 M9.8,41.6v-1.3h0.7v1.3h1.7v0.5H8.1v-0.5H9.8z"/>
		<path class="st0" d="M16.1,39.6h-1.3v-0.5h1.3v-0.4h-1.3v-0.5h1.3V38h0.7v3.3h-0.7v-0.7h-2.4h-0.1c-0.2,0-0.3,0-0.4-0.1
			s-0.1-0.2-0.1-0.4v-2h0.7v2h2.3V39.6z M14,41.9h2.8v0.5h-2.9c-0.2,0-0.4,0-0.5-0.1s-0.1-0.2-0.1-0.4v-1H14V41.9z"/>
		<path class="st0" d="M20,38.6c0.2,0.4,0.3,0.9,0.3,1.4c0,0.6-0.1,1.1-0.3,1.5c-0.2,0.4-0.5,0.6-0.9,0.6s-0.7-0.2-1-0.6
			c-0.2-0.4-0.3-0.9-0.3-1.5s0.1-1.1,0.3-1.4c0.2-0.4,0.6-0.6,1-0.6C19.5,37.9,19.8,38.1,20,38.6 M18.6,38.9
			c-0.1,0.3-0.1,0.7-0.1,1.1c0,0.5,0,0.9,0.1,1.2c0.1,0.3,0.2,0.5,0.4,0.5c0.2,0,0.3-0.2,0.4-0.5s0.1-0.7,0.1-1.2s0-0.8-0.1-1.1
			c-0.1-0.3-0.2-0.5-0.4-0.5C18.9,38.4,18.7,38.6,18.6,38.9 M21.6,42.5h-0.7V38h0.7V42.5z"/>
		<path class="st0" d="M22.9,39.2c-0.1-0.1-0.1-0.2-0.1-0.4c0-0.3,0.1-0.5,0.4-0.7s0.8-0.3,1.4-0.3s1,0.1,1.4,0.3
			c0.3,0.2,0.5,0.4,0.5,0.7c0,0.1,0,0.3-0.1,0.4s-0.2,0.2-0.4,0.3V40h0.8v0.5h-4.1V40h0.8v-0.5C23.1,39.5,23,39.4,22.9,39.2
			 M25.9,41.1c0.3,0.2,0.4,0.4,0.4,0.6s-0.1,0.4-0.4,0.6s-0.8,0.3-1.3,0.3c-0.6,0-1-0.1-1.3-0.3c-0.3-0.2-0.4-0.4-0.4-0.6
			s0.1-0.4,0.4-0.6s0.8-0.3,1.3-0.3C25.1,40.8,25.5,40.9,25.9,41.1 M23.7,38.6c-0.2,0.1-0.3,0.2-0.3,0.3c0,0.1,0.1,0.2,0.3,0.3
			c0.2,0.1,0.5,0.1,0.8,0.1s0.6,0,0.8-0.1c0.2-0.1,0.3-0.2,0.3-0.3c0-0.1-0.1-0.2-0.3-0.3c-0.2-0.1-0.5-0.1-0.8-0.1
			S23.9,38.5,23.7,38.6 M23.8,41.5c-0.2,0.1-0.3,0.2-0.3,0.3c0,0.1,0.1,0.2,0.3,0.3c0.2,0.1,0.5,0.1,0.8,0.1s0.6,0,0.8-0.1
			c0.2-0.1,0.3-0.2,0.3-0.3c0-0.1-0.1-0.2-0.3-0.3c-0.2-0.1-0.5-0.1-0.8-0.1C24.2,41.3,24,41.4,23.8,41.5 M25.1,40.1v-0.3
			c-0.1,0-0.2,0-0.3,0c-0.1,0-0.2,0-0.3,0c-0.1,0-0.2,0-0.3,0c-0.1,0-0.2,0-0.3,0v0.3H25.1z"/>
		<path class="st0" d="M31.4,40.2h-1.7v0.3h1.4v1.2h-2.9v0.2h2.9v0.5h-3c-0.2,0-0.4,0-0.5-0.1s-0.2-0.2-0.2-0.4v-0.7h2.9V41h-2.9
			v-0.5h1.5v-0.3h-1.7v-0.5h4.1v0.5H31.4z M28.3,38v0.2h2.2V38h0.7v1.5h-3c-0.2,0-0.4,0-0.5-0.1s-0.1-0.2-0.1-0.4v-1H28.3z M28.3,39
			h2.2v-0.3h-2.2V39z"/>
		<path class="st0" d="M34.4,38.1v1.4c0,0.7-0.2,1.2-0.5,1.7c-0.3,0.4-0.8,0.8-1.4,1l-0.3-0.4c0.5-0.2,0.8-0.5,1.1-0.8
			c0.3-0.4,0.5-0.8,0.5-1.3v-1.1h-1.6v-0.5L34.4,38.1L34.4,38.1z M35.9,38v1.8h0.5v0.5h-0.5v2.2h-0.7V38H35.9z"/>
	</g>
</g>
</svg>
