<?xml version="1.0" encoding="utf-8"?>
<!-- Generator: Adobe Illustrator 22.0.1, SVG Export Plug-In . SVG Version: 6.00 Build 0)  -->
<svg version="1.1" id="Layer_1" xmlns="http://www.w3.org/2000/svg" xmlns:xlink="http://www.w3.org/1999/xlink" x="0px" y="0px"
	 viewBox="0 0 1017.9 165.8" style="enable-background:new 0 0 1017.9 165.8;" xml:space="preserve">
<style type="text/css">
	.st0{fill:#FFFFFF;}
</style>
<g>
	<path class="st0" d="M64.9,105.2c-6.3,24-21.8,42.6-46.6,55.9L0,134.7c15.6-8.1,27-17.9,34.3-29.5H5.9v-31h59V105.2z M111.2,44.6
		c-3.4-1-6.8-1.9-10.2-2.6v20.4c1.7,3.6,3.6,7,5.4,10.3c6.3-7.4,10.8-12.8,13.4-16.2c2.2-3.1,5.6-8.5,10.2-16.4L157,56
		c-5.1,8.5-9.1,14.6-11.8,18.2c-3.4,4.7-8.6,11.1-15.6,19.3l-18-12.1c3.8,6.2,7.6,11.6,11.5,16.1c8,9.6,20.1,20.5,36.4,32.6
		l-18.9,30c-16.7-14-29.7-27.1-39-39.3l-0.7-0.7v18.9c0,16.8-9.2,25.2-27.5,25.2H62.1l-8.9-30h12.4c3.5-0.1,5.3-1.9,5.3-5.3V68.2
		h-50v-30h61.5c-0.3-0.2-0.6-0.2-0.7,0c-14.3-2.8-30.6-5.1-48.9-6.9L47.2,2.6c27.9,1.9,52,5.7,72.4,11.6L111.2,44.6z"/>
	<path class="st0" d="M212.9,56.2v-21h40v-5h-33V24l-16.7,23.8c-6.2-4.4-11.3-7.6-15.3-9.6c-3.5-2.2-8.4-4.6-14.8-7.3l13.3-27.6
		C192.7,6,198.5,9,204,12.1c4.5,2.6,9.8,6,15.9,10.3V10.2h33v-8h32v8h38v20h-38v5h43v22h-114v50.5c8-2.9,14.4-5.7,19.2-8.5h-12.2
		v-37h99v33.4l3.5,2.2c-3.2,5-6.4,9.7-9.5,13.9c-0.4,0.1-0.7,0.4-0.8,1c4.2,0.6,9,1.1,14.3,1.7l-9.8,21c4.2-0.3,8.6-0.6,13.3-0.7
		l-4.2,30.4c-39.6,1.6-71,0.8-94-2.3c-10.1-1.6-18-4.4-23.7-8.4l-3.5-2.5c-4.8,5.1-9.9,9.7-15.3,13.8l-19.1-27.3
		c4.3-2.1,8.9-5.1,13.8-8.9V87.2h-12v-31H212.9z M213.9,111.7v11.8c2.3,1.9,4.4,3.4,6.2,4.6c4.5,2.5,9.3,4,14.6,4.6
		c3,0.2,6.3,0.6,10.2,1.1v-12c-4.7,2.8-9.4,5.4-14.1,7.7L213.9,111.7z M289.9,83.2v-5h-39v5H289.9z M277.4,126
		c-2.2-1.4-4.4-3-6.5-4.6v13.8c8.5,0.1,17.7,0.1,27.6,0C289.9,132.5,282.8,129.4,277.4,126z M277.9,99.2c2.5,2,5.3,3.8,8.3,5.3
		c1.8-2.1,3.3-3.9,4.6-5.3H277.9z"/>
	<path class="st0" d="M431,109.2c-5,9.2-10.8,16.5-17.4,22.1c-7.4,6.2-15.6,10-24.6,11.3c-5.9,0.3-11.1-0.5-15.8-2.5
		c-4.5-1.9-8.5-4.7-12-8.5c-3.3-3.7-6.1-7.9-8.5-12.6c-1.2-2.2-2.2-4.6-3-7.3l-0.3-0.8c-0.2-0.3-0.3-0.7-0.3-1c-0.3-1-0.6-1.7-0.7-2
		c-0.2-0.4-0.4-1.1-0.5-1.8c-0.3-1-0.6-1.7-0.7-2C344.4,91,345,78.2,349,65.5c2.8-7.6,6.1-14.2,10.1-19.6
		c4.3-5.8,9.1-10.8,14.3-15.1c10.5-8.4,22.9-13.9,37.2-16.6c13.8-2.4,27.5-1.5,41,2.7c6.5,2.2,12.9,5.1,19.3,8.8
		c6.5,4.2,12.1,8.8,16.8,13.8c10.2,11.8,16.1,25,17.8,39.5c1.7,14.9-1.2,29.2-8.5,42.8c-9.4,15.8-22.7,27.2-40,34
		c-5.3,2.2-11,4-16.9,5.3l-21.7-26.9c1.7-0.4,2.8-0.8,3.5-1.2c1.9-0.7,3.1-1.1,3.7-1.2c2.3-0.7,4.6-1.5,7-2.5
		c0.8-0.2,1.9-0.7,3.5-1.3c0.8-0.2,1.9-0.7,3.5-1.3c2.5-1.1,4.8-2.2,6.6-3.2c4.8-2.7,8.8-5.4,12.1-8.1c4.2-3.4,7.5-7.2,9.8-11.3
		c5.8-10.1,6.5-20.6,2.2-31.5c-4.1-10.7-11.6-18.4-22.6-23.1c-0.1,2.5-0.2,4.5-0.3,5.8c-0.7,8.6-2.3,17.5-5,26.7
		C439.1,92.2,435.4,101.2,431,109.2z M383.7,67.9c-4.8,8.5-6.5,18.1-5.1,28.7c0.3,1.4,0.8,3.1,1.3,5c0.7,1.8,1.4,3.3,2.3,4.6
		c2.4,3.1,5.3,3.7,8.6,1.7c2.3-1.7,4.5-3.8,6.5-6.5c2-2.9,3.7-5.5,5-7.8c7.6-14.3,11.7-30,12.3-47.3c-1.6,0.4-3,0.8-4.3,1.2l-1,0.5
		l-1.2,0.3c-1,0.6-1.7,0.8-2.2,0.8C395.7,53.7,388.3,59.9,383.7,67.9z"/>
	<path class="st0" d="M675.9,46.2h-16v7h17v30h-17v7h14v30h-9.8c2.3,3.5,4.5,6.9,6.5,10.2c3.3,5.7,7.1,12.8,11.3,21.5l-28.1,13.6
		c-4.2-8.6-7.7-15.1-10.5-19.6c-2.6-4.5-6.4-10.1-11.5-16.9l12-8.7h-91.7l12.8,6.5v-0.5h28.9c1.2,16.5,1.7,29.5,1.3,39h-30.1
		c0.6-7.9,0.6-19.7,0.2-35.5c-2.9,6.1-5.9,11.8-9,17c-3.2,5.4-7.4,11.7-12.5,18.7l-24.5-17.8c5-7.1,8.8-12.8,11.3-17.2
		c1.6-2.7,3.3-6.1,5.3-10.2h-9v-30h24v-7h-27v-30h11.8l-17.7-19.8c7.2-5.3,12.7-10.1,16.3-14.2c3.7-4,8.4-10.4,14.3-19.2l32.2,9
		c-1.3,2.1-2.7,4.2-4,6.2h99V46.2z M549.9,53.2v-7H549c-2.8,2.2-5.8,4.5-8.9,7H549.9z M573.9,53.2h5v-7h-5V53.2z M573.9,90.2h5v-7
		h-5V90.2z M630.6,125.2c3.1,16.8,5.1,30.1,6,40h-31.8c0.2-8.6-0.9-21.9-3.3-40H630.6z M601.9,53.2h6v-7h-6V53.2z M601.9,90.2h6v-7
		h-6V90.2z M630.9,53.2h6v-7h-6V53.2z M630.9,90.2h6v-7h-6V90.2z"/>
	<path class="st0" d="M734.1,126.3l11.3-0.5c5.1-9.5,9.8-19.7,14-30.7h-24.5V82.4l-12.2,14.3c-9.5-8-21.3-15.4-35.3-22.4l21.3-25.4
		c9.3,5,18,10.3,26.3,15.9v-0.7h38v-10h-32V40.5l-10.7,13.3c-9.7-8-21.7-15.4-35.9-22.2L715,4.7c10.4,5.5,20,11.3,29,17.5h29v-18h32
		l1,19h36v31h-36v10h43v31h-54.2c-3.4,9.6-7.4,19.2-11.8,28.7l23.2-1.2l-5-9.1l24.8-15.1c6.6,10.3,11.1,18,13.7,23.2
		c3.2,6.2,7.4,15.5,12.7,28l-28.2,14.8c-1.7-4.6-3.2-8.8-4.7-12.4c-25.8,3.6-53.1,6.4-81.8,8.3L734.1,126.3z M737.8,113.4
		c-5.1,20.1-11.8,37-20.3,50.5l-26.7-20.4c7.6-14.2,13.7-30.1,18.3-47.8L737.8,113.4z"/>
	<path class="st0" d="M971.9,165.2v-3h-55v3h-31v-46.8l-15.9,4.8l-10.4-27.7c18.8-4.9,33.6-10,44.4-15.3h-41.1v-29h52v-6h-41v-29h42
		v-12h32v12h35.2c1.7-2.4,3.6-5,5.6-7.6l24.4,18.7c-6.1,8.7-12.3,16.7-18.6,23.9h23.6v29h-56.4c-2.2,1.3-6.3,4-6.3,4h46.7v81H971.9z
		 M970.9,110.2v-4h-54v4H970.9z M916.9,132.2v5h54v-5H916.9z M946.9,45.2v6h4.2c2.2-2.3,4.2-4.3,6.2-6H946.9z"/>
</g>
</svg>
