<?xml version="1.0" encoding="utf-8"?>
<!-- Generator: Adobe Illustrator 22.0.1, SVG Export Plug-In . SVG Version: 6.00 Build 0)  -->
<svg version="1.1" id="Layer_1" xmlns="http://www.w3.org/2000/svg" xmlns:xlink="http://www.w3.org/1999/xlink" x="0px" y="0px"
	 viewBox="0 0 1038.6 169" style="enable-background:new 0 0 1038.6 169;" xml:space="preserve">
<style type="text/css">
	.st0{fill:#FFFFFF;}
</style>
<g>
	<path class="st0" d="M42.8,80.4c-1.1,0.6-1.9,1.3-2.6,2.2c-0.5,0.1-1.5,0.1-3.1-0.1c-1.6-0.2-3.3-0.3-5.1-0.5
		c-1.8-0.2-3.5-0.5-4.9-0.6c-1.5-0.2-2.3-0.3-2.4-0.3c-0.1-0.1-0.2-0.2-0.3-0.4c-0.1-0.1-0.2-0.2-0.3-0.4c-0.1,0-0.2,0-0.4-0.1
		c-0.1-0.1-0.2-0.2-0.2-0.3c-0.1,0-0.3,0-0.5,0c-0.2,0-0.3-0.1-0.3-0.2c-0.2,0.4-0.5,0.5-0.8,0.5c-0.3,0-0.6-0.2-0.8-0.5
		c-0.1,0-0.2-0.1-0.3-0.3c-0.1-0.2-0.1-0.4-0.1-0.6c-0.4,0.4-0.8,0.5-1.3,0.5c-0.5,0-0.9-0.2-1.3-0.5c-0.1-0.1-0.2-0.2-0.4-0.4
		c-0.1-0.1-0.2-0.2-0.2-0.4c-0.1,0-0.2-0.1-0.2-0.2c0-0.1,0-0.7,0-0.7s-1.2-0.8-1.7-1.2c-0.5-0.4-1.1-0.8-1.7-1.2
		c-0.7-0.5-1.4-0.9-1.9-1.4c-0.5-0.4-1.1-0.8-1.6-1.2c-0.5-0.2-1-0.6-1.5-1.1c-2.3-2.2-4-4.8-4.9-7.7c-1-2.9-1.7-5.7-2.2-8.2
		c-0.4-1.3-0.7-2.6-1-3.7c-0.3-1.1-0.6-1.9-1-2.6c0.2-0.5,0.4-0.9,0.5-1.3c0.2-0.4,0.5-0.9,0.7-1.5c0.2-0.6,0.5-1.3,0.7-2
		c0.2-0.7,0.5-1.6,0.7-2.7c0.2-1,0.4-2.2,0.4-3.6c0.1,0,0.3-0.1,0.5-0.2c0.2-0.1,0.3-0.3,0.5-0.5c0-0.1,0.1-0.4,0.2-0.7
		c0.1-0.4,0.2-0.7,0.4-1.1c0.4-1.3,1.1-3.1,2.1-5.2c1-2.1,3.4-4.5,7-7l15.6-6.4c0.4,0,0.8-0.1,1.2-0.2c0.4-0.1,0.8-0.3,1.2-0.5
		C32,16,32.3,16,32.6,16c0.2,0.1,0.4,0.3,0.5,0.6c0.4,1.1,0.9,1.8,1.6,2c0.7,0.2,1.5,0.4,2.5,0.4c0.1,0,0.3,0,0.5,0.1
		c0.2,0.1,0.5,0.1,0.9,0.1c0.2-0.5,0.5-0.9,0.9-1.2h0.5c0.6,0.6,1.3,0.9,2.1,0.9c0.8,0,1.9,0.1,1.9,0.1h0.3c2.9,0.4,5.6,1.4,7.9,3.1
		c2.4,1.7,4,3,5,3.8c0.2,0.4,0.4,0.6,0.5,0.7c0.2,0.4,0.6,0.8,1.1,1.3c0.5,0.5,1.1,0.9,1.8,1.3c0,0.1,0.3,0.6,0.9,1.6
		c0.6,0.9,1.4,1.4,2.4,1.6c0,0.2,0.2,1,0.6,2.3c0.4,1.3,0.8,2.8,1.2,4.7c0.5,1.8,0.9,3.9,1.2,6.1c0.3,2.3,0.5,4.4,0.5,6.5
		c0,0.4-0.1,0.8-0.2,1.2c-0.1,0.4-0.2,0.9-0.4,1.4c-0.1,0.4-0.2,0.8-0.4,1.3c-0.1,0.5-0.2,0.9-0.4,1.3c-0.4,0.7-0.6,1.4-0.8,2
		c-0.2,0.6-0.3,1.2-0.3,1.6c1.5,0,1.3,1.2-0.4,3.6c-1.7,2.4-3.8,4.8-6.4,7.4c-2.1,1.8-4.1,3.5-6.2,4.9c-2.1,1.5-3.7,2.2-4.9,2.2
		C45.4,79.2,43.9,79.8,42.8,80.4z M32.8,37.4c-1,0.2-2,0.4-2.8,0.6c-0.9,0.4-1.6,0.8-2.2,1.2c-0.6,0.4-0.9,0.9-0.9,1.6
		c-0.4,1-0.8,1.8-1.4,2.5c-0.5,0.7-1.1,1.3-1.7,1.9c-0.5,0.5-1.2,1-2,1.6c0.1,1.3,0.3,2.6,0.6,3.7c0.3,1.1,0.6,2,0.8,2.7
		c0.2,0.9,0.6,1.7,1.1,2.6c0.7,0,1.6,0.3,2.5,0.9c0.9,0.6,1.8,1.3,2.7,2c1.1,1,2.2,1.8,3.2,2.4c1,0.6,2,0.4,3-0.5
		c1.8-0.6,3.4-1.3,4.8-2c1.6-1,3.2-2.3,4.8-4.1c1.6-1.8,2.4-4,2.4-6.7c0-0.4-0.1-0.8-0.2-1.4c-0.1-0.5-0.2-1.1-0.4-1.7
		c-0.2-0.7-0.5-1.4-0.9-2c-0.4-0.6-0.9-1-1.5-1.3c-0.4-0.2-0.7-0.5-0.9-0.7c-0.4-0.2-0.7-0.5-1-0.6c-0.3-0.2-0.6-0.2-0.8,0.1
		c-0.6,0-1.2-0.1-1.6-0.2c-0.7-0.1-1.5-0.4-2.3-0.8c-0.8-0.4-1.6-1.2-2.5-2.3C34.8,37,33.9,37.3,32.8,37.4z M101.3,150.9
		c-0.7,0.9-1.2,1.8-1.7,2.6c-0.7,1.1-1.5,2.2-2.2,3.3c-0.7,1.1-1.6,2.1-2.5,3.1c-1,1-2.1,1.9-3.5,2.8c-1.3,0.9-3,1.7-4.9,2.5
		c-1,0.4-1.9,0.7-2.6,0.9c-0.8,0.2-1.5,0.4-2.3,0.4c-1.5,0.4-2.7,0.7-3.7,1.1c-1,0.4-1.7,0.8-2.1,1.5c-0.2,0-0.5,0-0.7,0
		c-0.2,0-0.5-0.1-0.9-0.2c-0.5,0-0.9-0.1-1.4-0.2c-0.4-0.1-0.9-0.2-1.4-0.4c-1,0-1.9,0-2.9-0.1c-1-0.1-1.9-0.1-2.7-0.1
		c-0.8-0.1-1.8-0.2-2.7-0.2c-0.2-0.2-0.5-0.4-0.7-0.5c-0.2-0.1-0.5-0.2-0.7-0.4c-0.2-0.1-0.5-0.2-0.7-0.2c-0.2,0-0.4-0.1-0.5-0.2
		c-0.2,0.1-0.5,0.2-0.6,0.3c-0.2,0.1-0.3,0.1-0.5,0.1c-0.1,0-0.2,0-0.4,0c-0.1,0-0.2-0.1-0.4-0.2c-0.2,0.2-0.5,0.4-0.7,0.4
		c-0.2,0-0.5-0.2-0.7-0.5c-0.2,0-0.4,0-0.5-0.1c-0.1-0.1-0.2-0.2-0.2-0.5c-1.5,0.7-3.7,0.2-6.8-1.5c-3.1-1.7-6.1-4.2-9-7.5
		c-2.3-2.5-4.3-5.4-6.1-8.6c-1.8-3.2-2.9-6.6-3.4-10.2c0-0.6,0.1-1.2,0.2-1.8c0.1-0.5,0.2-1.1,0.3-1.8c0.1-0.7,0.2-1.5,0.3-2.2
		c0-1.1,0-2.2,0.1-3.5c0.1-1.2,0-2.2-0.1-3.1c1.1-1,2-2.1,2.6-3.4c0.7-1.3,1.3-2.6,1.9-4.1c0.6-1.6,1.3-3.2,2.2-5
		c0.8-1.8,2.1-3.4,3.8-5c1.7-1.6,4-3.1,6.8-4.5c2.8-1.4,6.6-2.6,11.2-3.7c0.7-0.1,1.5-0.2,2.2-0.2c1.5-0.1,3.1-0.2,5-0.3
		c1.9-0.1,3,0.2,3.4,0.8c0.8,0.6,1.7,1,2.5,1.2c0.6,0.1,1.3,0.3,1.9,0.4c1,0.2,2,0.2,3.1,0.1c0.6-0.1,1.1-0.1,1.7-0.2
		c1.5-0.1,2.8-0.1,4.1,0.1c1.3,0.2,2.5,1.1,3.5,2.6c0.2-0.1,0.5-0.2,0.9-0.2c0.4,0,0.7,0.1,1.1,0.4c0.5,0.1,0.9,0.3,1.4,0.5
		c0.4,0.2,0.9,0.5,1.5,0.7c0.6,0.5,1.3,0.9,2,1.4c0.7,0.4,1.5,0.8,2.4,1.2c0.7,1.2,1.4,2.1,2,2.7c0.2,0.4,0.6,0.7,1,1
		c0.4,0.3,0.8,0.5,1.2,0.5c0,0.1,0.7,1.3,2.1,3.5c1.4,2.2,2.5,5.4,3.2,9.6c0.4,2.8,0.4,6,0,9.6c-0.4,3.6-1.3,7.6-2.7,12
		C102.7,149,101.9,150,101.3,150.9z M71.2,121.2c-0.5,0.2-1,0.4-1.5,0.5c-0.5,0.1-1,0.2-1.5,0.2c-0.5,0.1-1,0.2-1.5,0.4
		c-0.5,0.1-0.9,0.2-1.3,0.2c-1.8,0.2-3.5,0.6-5,1c-1.5,0.4-2.5,1.2-2.8,2.3l-3.5,11.3c0.2,0.7,0.5,1.4,0.9,2
		c0.4,0.6,0.8,1.2,1.3,1.6c0.7,1.2,1.9,2.6,3.5,4c1.5-0.1,2.8,0,4,0.5c1.2,0.4,2.4,0.9,3.7,1.4c1.5,0.7,3,1.3,4.6,1.6
		c1.6,0.4,3.5,0.2,5.7-0.5c0.6-0.6,1.2-1.2,1.6-1.6c0.5-0.5,1-1.1,1.6-1.8c0.6-0.7,1.2-1.6,1.8-2.6c1.5-2.2,2.5-4.8,3.1-7.9
		c0.6-3-0.2-6-2.4-9L71.2,121.2z M92.7,79.1c-0.2,0.3-0.4,0.5-0.7,0.6c-0.2,0-0.6,0-1-0.1c-0.4-0.1-0.9-0.2-1.4-0.3
		c-0.9-0.2-1.9-0.5-3.2-0.6c-1.2-0.2-2.6-0.2-4.1-0.1c-0.3,0.5-0.7,0.7-1.2,0.7c-0.6,0-1.2-0.1-2-0.4c-0.5,0-1-0.1-1.5-0.2
		c-0.5-0.1-0.9-0.2-1.3-0.2c-0.5,0-0.9,0.1-1.2,0.2c-0.3,0.1-0.5,0.4-0.7,0.7c-0.3-1.1-0.4-2.1-0.5-3.1c-0.1-1-0.1-1.9-0.1-2.7
		c0-0.7,0-1.4,0.1-2.1c0.1-0.7,0.2-1.2,0.3-1.7c0-0.9,0-1.4-0.1-1.6c-0.1-0.2-0.3-0.4-0.7-0.4c0.4-0.7,0.7-1.3,0.9-1.8
		c0-0.5,0-1,0-1.5c0-0.5-0.1-0.9-0.4-1.3c0.4-0.2,0.6-0.5,0.7-0.8c0.1-0.3,0.2-0.6,0.2-1c0-0.2-0.1-0.5-0.3-0.7
		c-0.2-0.2-0.4-0.5-0.7-0.7c2.6-0.4,4.3-0.5,5.2-0.5c0.9,0,1.7,0.1,2.4,0.2c0.7,0.2,1.9,0.4,3.3,0.5c1.5,0.1,4.3-0.2,8.4-0.6
		c1.4,0.5,2.5,0.8,3.3,0.8c0.9,0.1,1.6,0,2.2-0.3c0.5-0.1,0.8-0.4,0.9-0.8c0.1-0.4,0.1-0.9,0-1.6c0.2-0.6,0.3-1.5,0.3-2.7
		c-0.1-1.2-0.3-2.6-0.7-4c-0.2-0.7-0.5-1.5-0.7-2.3c-0.2-0.8-0.4-1.5-0.7-2.1c-0.3-0.7-0.5-1.3-0.7-1.8c-0.2-0.5-0.3-0.9-0.3-1.3
		c-1.1-0.1-2-0.2-2.6-0.3C94.2,43,93.7,43,93.4,43c-0.5,0-0.9,0.1-1.3,0.2L91.5,45c-0.1,0-0.1,0-0.5,0c-0.4,0-0.8-0.1-1.3-0.2
		c-0.6-0.1-1.3-0.2-2-0.3c-0.7-0.1-1.5-0.2-2.3-0.3c-1.9,0-3.8,0-5.8,0.1c-1.9,0.1-3.3,0.3-4.1,0.8c0-1.3,0-2.5,0-3.5
		c0-1-0.1-1.8-0.2-2.6c0-0.9-0.1-1.6-0.2-2.2c-0.1-0.6-0.2-1.2-0.2-1.8c-0.2-1.3-0.4-2.8-0.4-4.4c-0.1-1.6-0.1-4-0.1-7.3l7.9-0.4
		c0,0.6,0.1,1,0.2,1.3c0.1,0.2,0.3,0.4,0.5,0.4c0.2,0.1,0.6,0.2,1,0.1c0.4-0.1,1-0.2,1.7-0.3c0.8-0.1,1.9-0.3,3.1-0.5
		c1.2-0.2,2.7-0.3,4.5-0.3c0.6,0.7,1.1,1.3,1.5,1.6c0.4,0.4,0.8,0.5,1.2,0.5c0.1,0,0.3-0.1,0.4-0.2c0.2-0.1,0.3-0.4,0.3-0.7
		c1.4,0.6,2.4,0.7,2.9,0.3c0.5-0.4,0.7-1.1,0.7-2.1c0-0.9-0.2-1.9-0.5-3c-0.4-1.2-0.7-2.2-0.9-3c-0.2-0.4-0.4-0.8-0.5-1.3
		c0.1-0.4,0.2-0.7,0.2-0.9c0-0.2,0-0.7,0-0.8c-0.1-0.2-0.2-0.5-0.4-0.6c-0.1-0.2-0.2-0.4-0.4-0.6c-0.1,0-0.2,0-0.3-0.1
		c-0.1-0.1-0.1-0.2-0.1-0.3c0-1.5,0.4-2.6,1.3-3.3c0.8-0.7,1.9-1,3.1-0.7c0,0.1,0,0.2,0.1,0.3c0.1,0.1,0.1,0.1,0.3,0.1
		c0.1,0,0.2,0,0.3,0.1c0.1,0.1,0.1,0.1,0.3,0.1c1.1,0,2.1,0,3.1,0.1c1,0.1,1.8,0.2,2.5,0.3c0.7,0.1,1.3,0.2,1.9,0.4
		c0.5,0.1,1.1,0.2,1.7,0.4c1.1,0.4,2,0.5,2.9,0.5c0.8,0,2.1-0.5,3.8-1.6c0.7,0.4,1.2,0.5,1.3,0.5c0.2,0,0.4-0.2,0.6-0.5
		c0-0.1,0.1-0.2,0.4-0.3c0.2-0.1,0.7,0.1,1.4,0.5c0.1,0.7,0.2,1.4,0.3,2c0.1,0.6,0,1.2-0.1,1.6c0,0.5-0.1,0.9-0.2,1.4
		c-0.1,0.4-0.2,0.8-0.2,1.2c-0.2,0.5-0.4,0.9-0.4,1.4c-0.1,0.4-0.1,0.9-0.1,1.4c0,0.4,0.1,0.8,0.2,1.3c0.1,0.5,0.4,1,0.9,1.5
		c-0.1,1.1-0.3,2-0.4,2.8c-0.2,0.8-0.3,1.4-0.4,1.7c-0.4,1.1-0.5,1.8-0.4,2.1c0.1,0.3,0.4,0.8,1.2,1.4h-0.7c-0.4,0-0.5,0.2-0.5,0.5
		s0.5,1,1.4,2c0,2.6-0.3,4.5-0.8,5.9c-0.5,1.3-1.1,2.5-1.7,3.5c-0.7,1.1-1.2,2.2-1.4,3.2c-0.2,1,0.1,2.4,1.1,4.1
		c-0.2,1.7-0.4,3.3-0.4,4.7c-0.1,1.4-0.1,2.7-0.1,3.9c0,1.1,0,2.1,0.1,3.1c0.1,1,0.1,1.8,0.3,2.6c0.1,1.6,0.2,3,0.2,4.1
		c0,1.2-0.2,2.5-0.5,3.9c-0.6,0.4-0.9,0.7-0.8,1c0.1,0.3,0.3,0.6,0.6,0.8c0.2,0.4,0.6,0.7,1.1,1c0.5,0.3,1,0.5,1.4,0.6
		c0,0.6,0,1.2,0,1.6l0,1.5c0,0.1-0.1,0.3-0.1,0.4c-0.3,0.7-0.4,1.2-0.4,1.6c-0.1,0.5-0.2,0.9-0.4,1.4c-0.1,0.4-0.2,0.9-0.2,1.6
		c0,0.6,0.1,1.3,0.2,2.2c0.1,0.9,0.4,1.8,0.7,2.9c-1,0.4-1.4,0.9-1.3,1.5c0.1,0.6,0.4,1.2,0.7,1.8c0.1,0.6,0.2,1.1,0.4,1.6
		c0.1,0.4,0.1,0.8-0.2,1c-0.4,0.4-1,0.6-1.8,0.8c-0.8,0.2-2.2,0.2-4,0.1c-1.9,0.4-3.4,0.6-4.3,0.6c-1,0.1-1.6,0-2-0.1
		c-0.4,0-0.5-0.1-0.4-0.2c0.1-0.1,0.1-0.3,0.3-0.5c0.1-0.2,0-0.5-0.4-0.6c-0.4-0.2-1.8-0.1-4.3,0.3c-0.6,0.7-1.3,1.2-2,1.3
		c-0.7,0.1-1.3,0.1-1.8-0.2c-0.7-0.1-1.2-0.4-1.4-0.7c-0.2-0.4-0.3-0.7-0.2-1.1c0.1-0.6,0.1-1.6,0.1-2.9c-0.1-1.3-0.1-2.7-0.1-4.2
		c0-0.6,0-1.2-0.1-1.7c-0.1-0.5-0.1-1-0.1-1.4c0-0.5,0-0.6,0-0.8c0-0.2,0-0.4,0-0.5c1-0.7,1.7-1.5,2.2-2.2c0.5-0.7,0.6-1.3,0.2-1.6
		c-0.4-0.2-1.2-0.3-2.4-0.3c-1.2,0.1-3,0.3-5.4,0.8C93,78.4,92.9,78.8,92.7,79.1z"/>
	<path class="st0" d="M296.9,158.4c-0.8,1-1.6,1.6-2.5,1.6h-1.1c0,0-3.1,0.8-4.8,0.6c-1.7-0.2-3.4-0.3-4.9-0.5
		c-1.6-0.1-3-0.2-4.2-0.2c-1.2,0-2,0.1-2.4,0.4c-0.6-0.2-1.2-0.3-1.7-0.2c-0.5,0.1-1,0.9-1,0.9h-0.4c0,0-2.2-0.6-4.3-0.5
		c-2.1,0.1-3.2,0.4-3.2,0.7c-1.2,0.1-3.7,0.8-3.7,0.8h-3.8c0,0-2.7-0.6-4.1-0.8c-1.4-0.1-2.8-0.2-4.1-0.4c-1,0-1.9,0-2.8-0.1
		c-0.9-0.1-1.9-0.1-2.8-0.1c-0.9-0.1-1.8-0.2-2.7-0.3c-1-0.1-1.9-0.1-2.7-0.1c-1.5,0-2.8,0-3.9-0.1c-1.2-0.1-2.2-0.2-3.2-0.5
		c-0.7,0-1.4-0.1-2.1-0.2c-0.7-0.1-1.3-0.2-1.9-0.2c-0.5,0-1,0-1.5,0.1c-0.5,0.1-0.9,0.2-1.3,0.3c-0.2-0.2-0.5-0.4-0.8-0.5
		c-0.3-0.1-0.6-0.2-1-0.2c-0.6,0-1.1,0.1-1.6,0.2c-0.4,0.1-0.8,0.3-1,0.5c-0.7,0.1-1.5,0.2-2.3,0.3c-0.8,0.1-1.5,0.1-2.1,0.1
		c-1,0.2-2.1,0.4-3.3,0.5c-0.7-0.2-1.3-0.5-1.6-0.7c-0.7-0.4-1.6-0.7-2.5-0.9c-0.9-0.2-1.7-0.4-2.5-0.4c-5.5,0.7-10.2,1.2-14,1.6
		c-3.8,0.3-7,0.5-9.4,0.5c-1.8,0-3.3,0-4.4-0.1c-1.1-0.1-2-0.2-2.6-0.3c-0.7,0-1.3-0.1-1.8-0.4c-0.4,0.2-0.7,0.4-0.9,0.5
		c-0.4,0.4-0.8,0.6-1.3,0.6c-0.5,0.1-1-0.3-1.5-1.1h-0.4c-1.5,0.4-3.1,0.6-4.8,0.7c-1.7,0.1-3.2-0.1-4.4-0.7c-1.2-0.5-2-1.4-2.5-2.8
		c-0.4-1.4-0.1-3.6,1-6.5c0.6,0,1-0.1,1.3-0.3c0.2-0.2,0.4-0.5,0.5-0.8c0-0.2-0.1-0.5-0.2-0.9c-0.1-0.4-0.2-0.9-0.4-1.5
		c-0.4-0.6-0.7-1.4-1-2.3c-0.3-0.9-0.5-1.9-0.5-3c0.1,0,0.2-0.1,0.4-0.3c0.1-0.2,0.2-0.5,0.2-0.8c0-0.2,0-0.5-0.1-0.7
		c-0.1-0.2-0.2-0.5-0.3-0.7c0.5,0,0.7-0.3,0.4-1v-2.1c0.2-0.1,0.1-0.3,0-0.5c-0.1-0.2,1-0.5,1-0.5V135v-0.3v-2.9
		c-1.1-1.3-1.2-2.3-1.4-2.9c-0.2-0.6-0.9-2.1-2.1-4.4c-0.2-0.1-0.4-0.4-0.5-0.8c-0.1-0.4-0.1-0.9-0.1-1.4c-0.1-0.7-0.2-1.5,0-2.4
		v-2.4c-0.1-0.6,0-1.2,0.1-1.6c0.1-0.5,0.1-0.8,0.1-0.9l14.6-2.2l4.4,2.6l1.8-0.9l8.6,0.2l-1.1,5.5l0.9,11.7
		c-0.4,0.9-0.7,1.5-1.1,1.9c-0.4,0.4-0.6,0.7-0.7,0.8c-0.2,0.1-0.4,0.2-0.5,0.4c-0.1,0.1-0.1,0.2-0.1,0.4c-0.4,1.7,0.3,3.1,1.9,4.3
		s3.3,1.8,5,1.9c1.2,0.2,2.3,0.1,3.2-0.4c0.9-0.5,1.5-1.3,1.7-2.4c2.7,0.7,5.2,1.3,7.4,1.6c2.3,0.4,4.4,0.5,6.5,0.5
		c2.1,0.1,4.2,0.2,6.4,0.1c2.2-0.1,4.6-0.2,7.3-0.3c2,0,4.1-0.1,6.6-0.2c2.4-0.1,5.1-0.2,8.1-0.4c0.9,0.6,1.8,0.9,2.9,0.8h0.5h0.6
		c0.2-0.1,0.5-0.1,0.8-0.2c0.3-0.1,0.6-0.2,1-0.3c1.3-0.6,4.2-0.6,4.2-0.6h3.1c0.1,0,0.2,0,0.3,0.1l3.3,1.3c1.7-0.5,2.8-0.9,3.2-1.3
		c0.1-0.1,0.2-0.2,0.2-0.4c0-0.1-0.1-0.2-0.2-0.4c0.1,0,0.8-0.1,2.2-0.4c1.3-0.3,2.9-0.6,4.8-0.9c1.9-0.2,3.8-0.5,5.9-0.8
		c2.1-0.3,4-0.6,5.7-0.8c1.1-0.1,2.1-0.2,3-0.4c0.9-0.1,1.4-0.2,1.7-0.2c0.2,0.1,0.5,0.3,0.8,0.4c0.3,0.1,0.6,0.2,0.8,0.2
		c0.2,0.1,0.5,0.2,0.8,0.3c0.2,0.1,0.5,0.1,0.8,0.1c0,0.1,0.1,0.3,0.4,0.4h11.6c1.4,0.3,2,1.4,1.7,3.2c-0.2,1.8-0.5,3.3-0.9,4.4
		c-0.1,0.5-0.3,1-0.5,1.6c0,0.1,0,0.3-0.1,0.7c-0.1,0.3-0.1,0.8-0.1,1.4c-0.1,0.6-0.2,1.2-0.2,1.9c0,0.7,0.1,1.4,0.2,2.1
		c0,0.3,0,0.7,0.1,1c0.1,0.3,0.1,0.6,0.1,0.9c0.1,0.3,0.2,0.7,0.3,1c0.1,0.3,0.1,0.5,0.3,0.8C298,156.5,297.7,157.4,296.9,158.4z
		 M266.6,77.2c0.4-1.3,0.5-2.7,0.5-4.2c0.1-1.5,0.1-2.8,0.1-4c0-1.2-0.1-2.2-0.2-2.8c-0.1-0.7,0.6-0.8,0.6-0.8v-2.7
		c-0.1-1.5-0.2-3.5-0.3-6c-0.1-2.6-0.1-5-0.1-7.5c0-2.4,0-4.5,0.1-6.3c0.1-1.8,0.1-2.8,0.3-3c0.1-0.4,0.2-0.8,0.3-1.3
		c0.1-0.5,0.1-0.9,0.3-1.3c0-0.5,0-0.9,0.1-1.4c0.1-0.4,0.1-0.9,0.3-1.4c0.2-3.9,0-7.3-0.8-10.1c-0.8-2.9-1.2-4.4-1.2-4.6
		c-0.1-0.8-0.2-1.7-0.2-2.5c0-0.8,0.1-1.5,0.2-2.3c0.5-3.2,1.6-5,3.4-5.6c1.8-0.5,3.4-0.6,4.8-0.1c1.1,0.5,2,0.8,2.8,1
		c0.8,0.2,1.7,0.3,2.5,0.3c1,0.1,1.9,0.1,2.7-0.1c0.7-0.1,1.4-0.2,2.1-0.3c0.3,0,0.6,0,0.9-0.1c0.5-0.1,0.9-0.1,1.4-0.1
		c0.4-0.1,0.8-0.2,1.2-0.2c0.5,0,1,0,1.6,0c0.6,0.1,1.2,0.4,1.7,0.7c0.5,0.4,0.9,1.2,1,2.6c0,0.9-0.1,1.9-0.2,3.1
		c-0.1,1.2-0.4,2.7-0.7,4.6c-0.5-0.1-0.8-0.1-1,0.2c-0.2,0.2-0.2,0.6-0.1,1.1c0,0.5,0.1,1,0.3,1.6c0.2,0.6,0.4,1.2,0.6,1.8
		c0.2,0.7,0.4,1.4,0.6,1.9c0.2,0.5,0.3,0.9,0.3,1.2c-0.4,0.9-0.6,1.5-0.8,2c-0.2,0.5-0.2,0.9-0.1,1.1c0,0.2,0.1,0.4,0.2,0.5
		c0.1,0.1,0.3,0.2,0.5,0.2c-2,2.1-3,4.3-3.1,6.7c-0.1,2.4,0.1,4.4,0.6,5.8c0,0.7,0.2,1.6,0.5,2.6c0.1,3,0.2,5.6,0.2,7.6
		c0,2-0.1,3.6-0.2,4.8c0,1.3-0.1,2.3-0.3,3c-0.2,0.7-0.3,1.2-0.3,1.5c0,0.2,0,0.4-0.1,0.5c-0.1,0.1-0.1,0.3-0.1,0.5
		c0,0.1,0,0.3,0,0.5s0.1,0.3,0.2,0.5c-0.9-0.1-1.4,0.1-1.2,0.7c0,0.4,0.1,0.8,0.3,1.4c0.2,0.5,0.5,1.2,1,2.1
		c-0.5,0.9-0.7,1.7-0.8,2.5c-0.1,0.8,0,1.6,0.3,2.5c0.1,0.7,0.3,1.4,0.5,2.1c0.2,0.7,0.5,1.2,0.7,1.5c0,0.4,0.1,0.6,0.4,0.7
		c-0.5,0.7-0.8,1.7-0.9,2.9c-0.1,1.2-0.1,2.1,0.2,2.6c0,0.2,0.1,0.4,0.2,0.4c0.1,0-0.7,0-0.7,0l1,20.2v3.5c0.1,0.9-0.1,1.6-0.7,2.1
		c-0.6,0.6-1.3,0.6-2,0.3c-0.4,0-0.7-0.1-0.9-0.3c-0.2-0.2-0.4-0.4-0.6-0.6c-0.7-0.1-1.5-0.2-2.3-0.3c-0.8-0.1-1.6,0-2.5,0.1
		c-1,0-2,0.1-3,0.2c-1,0.1-1.9,0.2-2.8,0.2c-2.8,0.5-5.4,0.8-7.7,0.8c-2.3,0.1-3.5-0.6-3.5-2.1c0-0.6,0-1.2,0-1.6
		c0-0.5,0-1.1,0.1-1.7c0.1-0.7,0.2-1.4,0.3-2.1c0.1-1.8,0.2-3.8,0.4-5.9c0.1-2.1,0.2-3.3,0.2-3.7c-1.5,0-2.6,0-3.4,0.1
		c-0.8,0.1-1.4,0.2-1.8,0.3c-0.5,0.1-0.8,0.3-0.9,0.5c-0.1,0.2-0.2,0.5-0.2,0.7c-0.1,0.1-0.2,0.2-0.4,0.4c0,0.1-0.1,0.2-0.2,0.4
		l-18-0.4h-1.9c-0.1-1-0.2-1.8-0.2-2.6s0-2.3,0-2.3s0.3-1.6,1-2.3v-1.5c-2.3,0.1-3.7,0.2-5,0.4c-1.2,0.1-2.3,0.2-3.1,0.2
		c-1,0.1-1.8,0.2-2.5,0.3c-0.7,0.1-1.4,0.1-2.1,0.1s-1.6,0-2.5-0.1c-0.9-0.1-1.9-0.2-3-0.3c-0.4,1-0.6,1.8-0.7,2.6
		c-0.1,0.7-0.2,1.4-0.2,2c0,0.5,0.1,1,0.2,1.5c0.1,0.5,0.3,1,0.5,1.5c0.4,1.2,0.7,2.7,0.9,4.6c0.2,1.8,0,4.7-0.7,9h-2.2
		c-1.1-0.2-2.3-0.2-3.5-0.1c-1.2,0.1-2.4,0.1-3.5,0.1c-1.1,0-2,0-2.8-0.1c-0.8-0.1-1.4,0.1-1.4,0.1h-0.5c-1.1-0.2-2.5-0.3-4.3-0.2
		c-1.7,0.1-3.2,0.3-4.4,0.6c-0.1,0-0.3,0.1-0.6,0.4c-0.7,0.4-1.6,0.4-2.5,0.2c-0.9-0.2-1.5-0.7-1.6-1.5c-0.2-0.6-0.4-1.2-0.5-1.9
		c-0.1-0.6,0-1.2,0.1-1.9c0-1,0.1-2,0.4-2.8c0.1-0.4,0.1-0.8,0.2-1.1c0-0.6,0.1-1.2,0.2-1.9c0.1-0.7,0.2-1.4,0.2-2.1
		c0-0.6-0.1-1.3-0.2-1.9c-0.1-0.7-0.3-1.4-0.6-2.1c0.4-0.4,0.7-0.9,1.1-1.6c0.4-0.7,0.6-1.3,0.7-1.9c0-0.6-0.2-1-0.6-1.2
		c-0.4-0.2-1.3,0.3-2.5,1.4c-0.4-1.1-1.5-1.7-3.5-1.8c-2-0.1-4.1,0.1-6.3,0.5c-2.8,0.5-5.4,1.1-7.7,1.9c-2.3,0.7-3.5,1.1-3.6,1.1
		l-8.5-1.5c0.4-1.5,0.6-2.8,0.7-3.9c0.1-1.2,0.2-2.6,0.2-4.1c0-1.5-0.4-2.7-1.1-3.7c-0.6-1.9-0.9-3.1-0.8-3.8
		c0.1-0.7,0.3-1.4,0.6-2.1c0-0.2,0.1-0.6,0.2-1.1c0.1-0.5,0.2-1.1,0.2-1.9h2.3c0,0,4,0.5,6,0.6c2.1,0.1,3.5-0.3,4.2-1
		c0,0.1,0,0.2,0.1,0.4c0.1,0.1,0.2,0.2,0.3,0.2c0.4,0.6,0.9,0.9,1.6,0.8c0.7-0.1,1.3-0.4,1.6-1c0,0.2,0.2,0.4,0.6,0.5
		c0.4,0.1,1,0.2,1.7,0.2c0.6,0,1.3,0,2.2-0.1c0.9-0.1,2.7,0.4,2.7,0.4h2.5h2.3c0.6-0.7,1.1-0.7,1.6-0.6c0.4,0.1,0.8,0.2,1,0.3
		c0.4,0.5,1,0.9,1.9,1.4c0.9,0.4,2.3,0.6,4.1,0.6c1.6,0,3.5-0.1,5.9-0.4c2.3-0.2,5-0.7,8.1-1.3c0.6,0.4,1.2,0.6,1.6,0.8
		c0.5,0.2,0.9,0.2,1.3,0.1c0.2,0,0.4-0.2,0.5-0.5c0.1-0.3,0.2-0.7,0.2-1.2c3.7,0.1,6.6,0.2,8.8,0.2c1,0,1.9,0,2.8,0.1
		c0.9,0.1,2.5,0.4,2.5,0.4s1.9,0,2.3,0c0.4,0,0.7,0,0.8,0l3.2-1.3c0.1,0.3,0.2,0.6,0.4,0.7c0.2,0.2,0.4,0.2,0.6,0.2
		c0.2,0,0.5,0,0.8-0.1c0.3-0.1,0.7-0.1,1.2-0.2c0.3,0,0.8,0,1.3-0.1c0.6-0.1,1.2-0.1,1.8-0.3c0.7,0,3,0,3,0s1.9-0.4,3-0.3
		c0.2,1.5,0.3,2.6,0.2,3.4c-0.1,0.8-0.2,1.5-0.4,2.1c-0.1,0.4-0.2,0.7-0.4,0.9v0.7v1c0.2,0.3,0.6,0.1,0.6,0.1h1.2h1.6
		c0.5,0.9,1,0.9,1.6,0.8c0.6-0.1,1.2-0.1,1.8,0.2h3.1c1-0.3,1.8-0.4,2.1-0.5v0.4c0.7,0.6,1.1,1.1,1.7,1.4c0.5,0.3,3.3-0.1,3.3-0.1
		V77.2z M217.5,61.8c-1.3,0.1-2.1,0.5-2.5,1.2l-12.1-0.2c0.4-0.7,0.2-1-0.5-0.8c-0.7,0.2-1.2,0.5-1.6,1c-0.4-1.1-0.7-1.7-1-1.8
		c-0.3-0.1-0.7-0.1-1.2,0c-0.2,0.1-0.4,0.2-0.5,0.3c-0.1,0.1-0.3,0.1-0.5,0.1c-0.1,0.1-0.3,0.2-0.5,0.3c-0.2,0.1-0.3,0.1-0.5,0.1
		c-0.7-0.6-2.1-1.4-4-2.3c-2-0.9-3.6-1.6-4.9-2.1c-0.6-0.2-1.3-0.5-2-0.9c-2-1.8-3.4-3.8-4.5-6c-1-2.2-1.9-4.2-2.5-6
		c-0.4-1.1-0.7-2-1.1-2.7s-0.7-1.3-1.1-1.6c0.1-2.8,0.3-5.1,0.5-7c0.1-1.1,0.3-2.2,0.5-3.4c0.2-1.2,0.3-2.2,0.5-3.2
		c0.2-0.1,0.5-0.5,0.9-1c0.4-0.5,0.7-1.2,1.1-2.1c0.7-1.7,1.9-3.8,3.6-6.2c1.6-2.4,4.1-4.8,7.4-7L205.7,7c0.1,0,0.3,0,0.5,0
		c0.2,0,0.3-0.1,0.5-0.2c0.1,0,0.2,0,0.4-0.1c0.1-0.1,0.3-0.2,0.5-0.3c0.2-0.1,0.5-0.2,0.7-0.1c0.2,0.1,0.4,0.3,0.4,0.6
		c0,0.4,0.2,0.7,0.5,1c0.3,0.3,0.8,0.5,1.6,0.5c0.7,0.1,1.6,0.1,2.5-0.1c0.9-0.2,1.9-0.5,2.8-0.8c0.7,0.4,1.3,0.6,1.7,0.7
		c0.4,0.1,0.8,0.2,1.2,0.2c0.4,0,0.5-0.2,0.4-0.7c1.3,0.2,2.7,0.6,4.2,1.2c1.5,0.5,2.9,1.2,4.4,1.9c1.8,1.1,3.4,2.1,4.8,3
		c1.3,0.9,2.1,1.4,2.2,1.4c-0.2,0.1-0.4,0.2-0.4,0.4c0,0.1,0.1,0.2,0.2,0.4c0,0.1,0.1,0.2,0.2,0.3c0.1,0.1,0.2,0.2,0.4,0.3
		c0.2,0.2,0.4,0.3,0.8,0.5c0.2,0.2,0.3,0.4,0.5,0.6c0.1,0.8,0.3,1.4,0.5,1.8c0.1,1,0.4,1.8,0.7,2.6c0.4,0.7,0.9,0.7,1.6,0
		c0.4,1.7,0.7,3.2,1.1,4.6c0.4,1.8,0.7,3.9,1,6.1c0.3,2.3,0.5,4.1,0.5,5.6c0,0.4-0.1,0.8-0.3,1.3c-0.2,0.5-0.4,1-0.6,1.6
		c-0.1,0.6-0.3,1.3-0.6,1.9c-0.3,0.7-0.5,1.3-0.6,1.7c-0.4,0.9-0.7,1.6-1,2.3c-0.3,0.7-0.5,1.2-0.5,1.6c1.1,0,1.2,0.5,0.4,1.6
		c-0.9,1-2.2,2.3-4,3.8c-1.2,1.1-2.5,2.1-3.9,3.1c-1.4,1-2.7,1.8-3.9,2.6c-0.6-0.2-1.2-0.3-1.7-0.3c-0.5,0.1-1.1,0.3-1.6,0.6
		c-0.4,0.4-0.8,0.7-1.2,1.1c-0.4,0.4-0.8,0.7-1.2,1.1C220,61.9,218.8,61.8,217.5,61.8z M205.7,25.5c-2,0.5-2.9,1.3-2.7,2.6
		c-0.5,0.4-1,0.9-1.6,1.6c-0.6,0.7-1.2,1.3-1.8,1.9c-0.7,0.6-1.5,1.4-2.4,2.4c0.2,1.6,0.6,2.9,1.1,4c0.5,1.1,1,2,1.5,2.6
		c0.5,0.7,0.9,1.3,1.3,1.6c0.4,0.3,0.6,0.5,0.7,0.5c1.1,0,2,0.2,2.7,0.6c0.7,0.4,1.4,0.9,2.1,1.4c0.7,0.6,1.5,1.1,2.4,1.5
		c0.9,0.4,2.1,0.2,3.7-0.4c1.8-0.6,3.4-1.3,4.6-2c1.5-0.7,2.8-1.8,4.1-3.2c1.3-1.4,1.8-3.1,1.6-5c0-0.6,0-1.3-0.1-2.1
		c-0.1-0.8-0.2-1.6-0.3-2.3c-0.4-0.9-0.8-1.5-1.2-2c-0.4-0.5-1-0.6-1.7-0.4c-0.4-0.1-0.7-0.3-0.9-0.5c-0.2-0.1-0.5-0.3-0.9-0.5
		c-0.4-0.2-0.7-0.2-0.9-0.1c-0.6,0-1.1-0.1-1.5-0.2c-0.7-0.1-1.5-0.4-2.3-0.7c-0.8-0.4-1.6-1-2.3-2C209.3,24.7,207.6,25,205.7,25.5z
		"/>
	<path class="st0" d="M462.8,159.2c-1,1-1.9,1.5-2.8,1.5c-0.5,0-0.9,0-1.4-0.1c-0.4-0.1-0.9-0.1-1.4-0.2c-0.4,0-0.7,0-1.1-0.1
		c-0.4-0.1-0.7-0.1-0.9-0.3c-0.6,0-1.2-0.1-1.7-0.2c-0.5-0.1-0.9-0.2-1.3-0.2c-0.4,0-0.7,0-1.1,0.1c-0.4,0.1-0.7,0.1-0.9,0.2
		c-0.1,0-0.3,0-0.6,0c-0.1,0-0.3-0.1-0.6-0.2c-0.4,0-0.7,0.1-1.1,0.2c-0.4,0.1-0.6,0.3-0.6,0.5c-0.2-0.1-0.6-0.2-1.1-0.3
		c-0.5-0.1-1-0.2-1.7-0.2c-1.1,0-2.2,0.1-3.4,0.3c-1.2,0.2-1.7,0.4-1.7,0.6c-1.1,0.1-2.3,0.2-3.5,0.2c-1.2,0-2.4,0-3.5,0
		c-1.2,0-2.5-0.1-3.8-0.2c-1.3-0.1-2.5-0.2-3.8-0.3c-1,0-1.9,0-2.8-0.1c-0.9-0.1-1.8-0.1-2.8-0.1c-0.9-0.1-1.8-0.2-2.8-0.2
		c-1-0.1-1.9-0.1-2.8-0.1c-1.5,0-2.8,0-3.9-0.1c-1.1-0.1-2.1-0.2-3.1-0.4c-0.7,0-1.4-0.1-2.1-0.2c-0.7-0.1-1.3-0.2-1.7-0.2
		c-0.6,0-1.2,0-1.7,0.1c-0.6,0.1-1,0.1-1.4,0.2c-0.1-0.2-0.3-0.4-0.6-0.5c-0.3-0.1-0.6-0.2-1-0.2c-0.6,0-1.1,0.1-1.6,0.2
		c-0.4,0.1-0.8,0.3-1.2,0.5c-0.7,0.1-1.4,0.2-2.1,0.3c-0.7,0.1-1.4,0.2-2.1,0.2c-1,0.1-2.1,0.2-3.3,0.3c-0.7-0.2-1.3-0.4-1.7-0.7
		c-0.7-0.3-1.6-0.6-2.6-0.8c-1-0.2-1.8-0.3-2.6-0.2c-5.5,0.7-10.5,1.1-15,1.3c-4.5,0.2-8.4,0.3-11.7,0.3c-2.5,0-4.6,0-6.3-0.1
		c-1.8-0.1-3.3-0.1-4.5-0.3c-1.2,0-2.5-0.1-3.7-0.3c-0.4,0.3-0.7,0.5-0.9,0.5c-0.4,0.3-0.8,0.5-1.3,0.6c-0.5,0.1-1-0.2-1.5-0.8
		c-0.7,0-1.6,0-2.7,0c-1,0-2.1-0.1-3.2-0.2c-1.7-0.1-3.3-0.4-4.9-0.8c-1.5-0.4-2.5-1-2.8-1.7c-0.2-0.3-0.4-0.8-0.4-1.3
		c0-0.6,0.1-1.2,0.2-1.8c0.1-0.8,0.5-1.8,1.1-3c0.1-0.1,0.2-0.3,0.2-0.5c0-0.7-0.1-1.2-0.2-1.5c0.1-0.7,0.2-1.2,0.1-1.6
		c-0.1-0.4-0.2-0.9-0.3-1.6c-0.4-0.6-0.6-1.3-0.8-2.2c-0.2-0.9-0.3-2.1-0.3-3.7c0.1,0,0.2-0.1,0.2-0.2c0.1-0.1,0.2-0.2,0.4-0.3
		c0-0.2,0-0.5-0.1-0.8c-0.1-0.3-0.2-0.5-0.3-0.8c0.4,0,0.6-0.2,0.8-0.6c0.2-0.4,0.3-0.8,0.5-1.3c0.1-0.3,0.2-0.8,0.3-1.3
		c0.1-0.6,0.1-1,0.1-1.3v-4.8c0,0-0.1-3.8-0.4-4.8c-0.3-1-1.2-2-2.7-3.1c0-0.1-0.1-0.3-0.2-0.5c-0.1-0.2-0.2-0.5-0.2-0.7
		c-0.2-0.7-0.4-1.6-0.4-2.7c0-1,0.1-2,0.2-3c0-0.9,0.1-1.6,0.2-2.4c0.1-0.7,0.2-1.2,0.2-1.3l11.7-1.6l7.9,2.6l1.6-1.8l8.6,1.1
		l-1.1,13.9l1.5,8.2l-2.7,2.2c-0.1,0.5-0.2,0.9-0.1,1.3c0.1,0.4,0.2,0.7,0.5,1.1c0.5,1.1,1.4,2,2.7,2.8c1.3,0.8,2.7,1.3,4.2,1.6
		c1.5,0.2,2.8,0.2,3.9-0.1c1.2-0.3,1.9-1.1,2.1-2.3c7.2-0.9,12.1-1.2,14.6-1c2.6,0.2,4.8,0.5,6.6,1c0.7,0.2,1.6,0.5,2.5,0.6
		s2.1,0.3,3.6,1.1h5c2-0.6,4.5-0.8,7.6-1.2c0.5,0.5,1.5,1.2,1.5,1.2s1.6,0,2.4,0c0.8,0,1.6-0.2,2.6-0.5c1.9-0.4,3.8-0.5,5.7-0.5
		c1.9,0,3.7,0.1,5.2,0.4c1.3,0.2,2.8,0.5,4.4,0.7c1.1-0.1,1.8-0.4,2.3-0.7c0.1-0.1,0.4-0.3,0.9-0.5c0.1-0.1,0.2-0.2,0.2-0.4
		c0-0.1-0.1-0.2-0.2-0.4c0.1,0,0.6-0.1,1.5-0.2c0.9-0.1,2-0.2,3.4-0.4c2.2,0,4.7-0.1,7.7-0.4c0.8,0,1.6-0.1,2.4-0.1h14.2
		c0,0,0.8-0.3,1.2-0.1c0.4,0.2,0.8,0.3,1.2,0.5c0.4,0.2,0.7,0.4,1.1,0.6h3.3c1.1,0.2,1.7,0.6,1.8,1.4c0.1,0.7,0.1,1.5-0.2,2.2
		c-0.4,0.7-0.8,1.6-1.3,2.7c0,0.1,0,0.3-0.1,0.5c-0.1,0.2,0.3,0.9,0.3,0.9s0,2,0,2.5s0,1,0,1.4c0,1,0,2.1,0.1,3.2
		c0.1,1.1,0.2,2.1,0.5,2.8C464.2,157.3,463.8,158.2,462.8,159.2z M377.5,36.9c-2.2-0.2-4.6-0.3-7.1-0.5c-2.6-0.1-5-0.1-7.2,0
		c-2.3,0.1-3.6,0.4-4.1,0.9c-1.1-0.1-2.1-0.2-2.9-0.3c-0.9-0.1-1.6-0.1-2.4-0.1c-0.6,0.1-1.2,0.2-1.7,0.4c-0.5,0.1-1,0.2-1.4,0.4
		c-0.2,0.1-0.5,0.2-0.7,0.3h-0.4h-0.4h-12.6H334c-0.4,0.3-0.4-0.1-0.2-1.2c0-0.1,0-0.3,0.1-0.6c0.1-0.3,0.1-0.6,0.1-0.8
		c0.1-0.2,0.2-0.5,0.3-0.9c0.1-0.4,0.2-0.8,0.3-1.3c-0.1-0.4-0.2-0.7-0.2-1.1c-0.1-0.1-0.8-0.5-0.8-0.5s0-0.1,0-0.2
		c0-0.1,0-0.2,0-0.4c0-0.6,0-1.1,0.1-1.5c0.1-0.4,0.2-0.7,0.3-1.1c0.1-0.6,0.2-1.5,0.4-2.6c0.1-1.1,0-3.3-0.4-6.6
		c1.9,0.3,3.2,0.3,4.1,0c0.9-0.2,1.7-0.6,2.6-0.9c0.6-0.2,1.4-0.5,2.3-0.7c0.9-0.2,2.5-0.3,4.8-0.3c0,1.1,0.4,2,1.2,2.6
		c0.8,0.6,1.9,1,3.3,1.1c1.1,0.1,2.5,0,4.1-0.3c1.6-0.3,3.3-0.8,5.1-1.6c0.5,0.6,1,1,1.5,1c0.5,0.1,1,0.1,1.5,0.1
		c0.1,0,0.2,0,0.4,0.1c0.1,0.1,0.3,0.1,0.6,0.1c-0.1-0.1-0.2-0.3-0.3-0.5c-0.1-0.2-0.1-0.4-0.1-0.7c0-0.1,0-0.3-0.1-0.5
		c-0.1-0.2-0.1-0.4-0.1-0.7c-0.1-0.5-0.3-1.1-0.4-1.8c-0.1-0.7-0.3-1.7-0.4-2.9c-0.1-1.2-0.2-2.8-0.3-4.8c-0.1-1.9-0.1-4.4-0.1-7.4
		c3.9-1,6.9-1.4,9-1.2c2.1,0.2,3.8,0.5,4.9,0.8c0.4,0.1,0.7,0.2,1.1,0.3c0.4,0.1,0.7,0.1,1.1,0.1c0.2,0,0.5-0.1,0.8-0.3
		c0.3-0.2,0.7-0.5,1-1h0.2c0.2,0,0.7,0,1.4,0c0.7,0,1.4,0,2.2,0c0.7,0,1.4,0.1,2.1,0.2c0.6,0.1,1.1,0.4,1.5,0.7
		c0,2.9-0.1,5.1-0.3,6.7c-0.2,1.6-0.3,2.9-0.5,3.8c-0.4,0.9-0.5,1.5-0.5,1.9c0.1,0.4,0.5,0.7,1.4,0.9c0.1,0.5,0.2,0.9,0.2,1.3
		c0,0.4-0.1,0.7-0.4,1.1c-0.3,0.4-0.6,0.6-1.1,0.6c-0.3,1.8,0,2.7,0.7,2.8c0.8,0.1,2.4-0.1,4.9-0.6c0.4,0,0.8-0.1,1.2-0.2
		c0.4-0.1,1-0.2,1.6-0.2c0.6,0.8,1.4,1.1,2.4,1.1c1,0,2.2-0.4,3.8-1.1c0.1,0,0.3-0.1,0.6-0.2c0.2-0.1,0.6-0.3,0.9-0.6
		c0.7,0.4,1.3,0.5,1.6,0.4c0.3-0.1,0.3-0.4,0.1-0.7c0.4,0-0.9,0-0.6,0c0.3,0,0.7,0,1.1,0c0.4,0,0.8,0.1,1.2,0.2
		c0.4,0.1,0.8,0.2,1.2,0.2c0.3,0.1,0.6,0.2,0.9,0.3c0.3,0.1,0.7,0.1,1.1,0.1c0.3,0.1,0.6,0.2,1.1,0.2c0.5,0,0.6,0,1.1,0l-0.9,3
		c0,0.1,0,0.3,0.1,0.5c0.1,0.2,0.1,0.6,0.1,1.1c0.1,0.5,0.2,1,0.4,1.5c0.1,0.5,0.2,1.1,0.4,1.7c0,1.1,0,2.2,0.1,3.3
		c0.1,1.1,0.1,2.1,0.1,2.8c-0.5,0.7-0.8,1.3-0.9,1.7c-0.1,0.4-0.2,0.7-0.2,1c0,0.2,0.1,0.4,0.2,0.4h-15.2l-1.8-0.5l-13.9,1.6
		C380.9,37.2,379.7,37.1,377.5,36.9z M385.9,42.4c0.4,0.2,0.9,0.4,1.4,0.6c0.5,0.1,0.9,0.3,1.4,0.5c0.4,0.2,0.9,0.4,1.6,0.5
		c1.5,0.6,2.9,1.2,4.3,1.7c1.4,0.5,2.5,1.1,3.4,1.6c0,0.2,0.2,0.6,0.5,1c0.3,0.4,0.7,0.8,1.2,1.2c0.4,0.4,0.7,0.8,1.1,1.2
		c0.4,0.4,0.7,0.8,1.1,1c0.4,0.4,0.7,0.7,0.9,0.9c0.2,0.2,0.4,0.4,0.5,0.4c0,1,0.1,1.8,0.2,2.6c0.1,1.1,0.4,2.2,0.7,3.3
		c0.4,1.1,0.9,1.6,1.6,1.6c0.2,0.7,0.4,1.4,0.5,2c0.4,1,0.7,2.2,0.9,3.6c0.2,1.4,0.4,2.9,0.4,4.5c-0.1,0.6-0.3,1.2-0.5,1.8
		c-0.2,0.6-0.4,1.2-0.6,1.8c-0.2,0.6-0.5,1.3-0.7,1.9c-0.2,0.7-0.5,1.3-0.7,1.9c-0.2,0.6-0.5,1.2-0.6,1.7c-0.2,0.5-0.4,1.1-0.6,1.6
		c-0.1,0.5-0.2,1-0.4,1.5c-0.1,0.5-0.2,0.9-0.2,1.3c-1.1,0.7-2.2,1.6-3.3,2.5c-1.1,0.9-2.2,1.8-3.3,2.7c-1.8,1.5-3.5,2.8-5,4
		c-1.5,1.2-2.7,2-3.4,2.2c-0.7,0.4-1.5,0.5-2.2,0.5h-1.8c-0.4,0.2-0.7,0.3-1.1,0.3c-0.4,0-0.7,0.1-0.9,0.2c-0.2,0.1-0.5,0.2-0.7,0.4
		c-0.2,0.1-0.4,0.2-0.5,0.4c-0.4,0.1-1.2,0.2-2.6-0.2h-4.6l-9.7,0c-0.1,0.1-0.3,0.2-0.5,0.2c-0.2,0-0.4-0.1-0.5-0.2
		c-0.4,0-0.6-0.1-0.8-0.4c-0.2-0.2-0.3-0.5-0.3-0.9c-0.1,0.4-0.3,0.5-0.6,0.5c-0.3,0-0.6-0.1-1-0.4c-0.5-0.1-0.9-0.4-1.3-0.7
		c-0.4-0.4-0.5-0.8-0.4-1.3c-0.4-0.1-0.7-0.3-1.1-0.6c-0.4-0.3-0.7-0.6-1.1-0.8c-0.4-0.2-0.7-0.5-1.1-0.8c-0.4-0.3-0.7-0.6-1.1-1
		c-1.2-0.7-2.7-1.6-4.4-2.6c-1.1-1.1-2-2.2-2.7-3.2c-0.7-1-1.3-2-1.6-3c-0.4-1-0.6-1.9-0.8-2.8c-0.2-0.9-0.3-1.8-0.5-2.7
		c-0.1-0.4-0.2-0.7-0.2-1.1c0-0.4-0.1-0.7-0.2-1.1c-0.1-0.2-0.2-0.5-0.4-0.8c-0.1-0.3-0.2-0.6-0.4-0.8c0-0.6,0.1-1.2,0.2-1.6
		c0-0.4,0.1-0.9,0.2-1.6c0.1-0.7,0.2-1.4,0.3-2.3v-1.3c0.1-0.5,0.2-1,1-1.5v-1.5c-0.7-0.5-0.7-1-0.5-1.6c0.2,0,0.5-0.1,0.6-0.2
		c0.2-0.1,0.4-0.4,0.6-0.7c0.1-0.2,0.2-0.5,0.4-0.9c0.1-0.4,0.3-0.8,0.5-1.3c0.2-0.9,0.6-1.9,1.2-3c0.5-1.2,1.4-2.3,2.5-3.6
		c1.1-1.2,2.6-2.4,4.4-3.5c1.8-1.1,4.3-2.1,7.5-2.9c0.1,0.1,0.3,0.2,0.5,0.2s0.4-0.1,0.6-0.2c0.2,0,0.5-0.2,0.7-0.5
		c0.2-0.4,0.4-0.7,0.5-1.1c0.4-0.1,0.9-0.2,1.5-0.4c0.6-0.1,1.2-0.2,1.8-0.2c0.6-0.1,1.3-0.2,2-0.4c0.7-0.1,1.5-0.2,2.2-0.4l13-0.4
		C385,42,385.4,42.2,385.9,42.4z M372.5,62.9c-0.7,0.1-1.4,0.1-2.1,0.1c-0.5,0-0.9,0-1.3,0c-0.4,0-0.9,0.1-1.4,0.2
		c-0.5,0-0.9,0.1-1.3,0.3c-0.4,0.2-0.6,0.4-0.7,0.6c-1.1,2.3-1.5,4.3-1.2,5.9c0.3,1.6,0.8,2.9,1.6,3.9c0.7,1.1,1.5,1.9,2.4,2.4
		c0.9,0.5,1.4,0.7,1.5,0.7c0.2,0,0.4,0,0.7,0c0.3,0,0.6,0.1,1,0.2c0.4,0.1,0.7,0.2,1.1,0.4c0.4,0.1,0.7,0.2,1.1,0.4
		c0.9,0.4,1.8,0.7,2.9,1c1,0.3,2.2,0.2,3.4-0.3c1.2-0.5,2.5-1.6,3.9-3.2c1.4-1.7,2.9-4.2,4.6-7.7c0-0.6,0-1.2-0.1-1.8
		c-0.1-0.6-0.2-1.3-0.3-2c-0.7-1.4-1.7-2.4-2.9-3.2c-1.2-0.8-2.2-1.4-3-1.8c-0.2-0.1-0.4-0.3-0.6-0.6c-0.4-0.4-0.8-0.7-1.4-1
		c-0.6-0.3-0.8-0.1-0.8,0.6h-1.2c-1,0-2.1,0.2-3.4,0.6c-1.3,0.4-1.8,1.5-1.4,3.1C373.5,62.4,373.2,62.8,372.5,62.9z M449.3,41.1
		c0.6,0.8,1.4,1.5,2.7,2.1c1.1,0.5,2.6,0.7,4.4,0.6c1.8-0.1,4.1-1,6.7-2.8l10.8,0.2l0.4,8.2l-1.6,1.1l0.5,5.5c1,0.7,1.4,2.4,1.3,4.9
		l-4.2,3.3l-3.6-1.5l-1.8,1.1l-10.4,0.2c0.5-0.8,0.3-1.4-0.6-1.5c-0.9-0.2-1.9-0.1-2.8,0.3c-0.9,0.5-1.4,1.2-1.6,2.3
		c-0.2,1,0.6,2.3,2.5,3.9c-1.3,1.1-1.9,2.8-1.8,5c0.1,2.2,0.4,4.8,0.9,7.6c0.4,2.2,0.6,4.5,0.8,6.9c0.2,2.4,0.1,4.7-0.3,6.9
		c0.1,0.6,0.1,1.1-0.2,1.4c-0.2,0.3-0.6,0.5-1.1,0.5c-0.6,0-1.3,0-2.2-0.1c-0.9-0.1-1.7-0.2-2.5-0.5c-1.2,0-2.5-0.1-3.7-0.4
		c-0.5-0.1-0.9-0.1-1.4-0.2l-2.5,0c-0.8,0-1.5,0.1-2.1,0.2c-0.6,0.6-1.4,1-2.4,1.2c-1,0.2-1.9,0.2-2.9-0.1c-0.7,0-1.3-0.2-1.8-0.5
		c-0.5-0.4-0.7-0.7-0.5-1.1c0-0.4,0-1.3-0.1-2.9c-0.1-1.6-0.1-3.2-0.1-4.7c-0.1-0.5-0.2-1-0.3-1.5c-0.1-0.5-0.1-1.1-0.1-1.5
		c0-0.4,0,0,0-0.2c0-0.2,0-0.4,0-0.6c0.2,0,0.5-0.1,0.6-0.4c0.2-0.2,0.3-0.6,0.3-0.9c0-0.4-0.1-0.7-0.2-1.1
		c-0.1-0.4-0.2-0.7-0.2-1.1c0-0.1,0.1-0.3,0.2-0.6c0.1-0.4,0.3-1,0.5-1.8c0.2-0.9,0.3-1.9,0.3-3.1c0-1.1-0.1-2.4-0.4-3.9
		c-0.2-1.5-0.8-3.1-1.7-5c0.1-0.1,0.2-0.2,0.4-0.4c0.1-0.1,0.2-0.2,0.4-0.4c0-0.2,0-0.6-0.1-0.9c-0.1-0.4-0.2-0.7-0.3-1.1
		c-0.1-0.2-0.2-0.5-0.4-0.7c-0.1-0.2-0.2-0.4-0.2-0.6l2.8-3.1c-0.2,0-0.4-0.1-0.4-0.2c-0.4-0.4-0.8-1.8-1.4-4.3
		c-0.6-2.5-0.5-7.7,0.3-15.4h0.2c0.2-0.1,0.5-0.9,0.7-2.3c0.2-1.4-0.2-4.4-1.5-9c0.2-0.2,0.4-0.4,0.6-0.6c0-0.4,0-0.8-0.1-1.4
		c-0.1-0.6-0.3-1-0.6-1.4c0.2-0.1,0.4-0.4,0.6-0.8c0.1-0.4,0.2-0.9,0.2-1.4c0-0.5-0.1-1-0.2-1.7c-0.1-0.6-0.2-1.3-0.2-2
		c-0.5-1.7-0.8-3.5-0.8-5.5c-0.1-1.9,0.7-3.5,2.3-4.9c1,0,1.9,0,2.9,0.1c0.9,0.1,1.9,0.1,2.9,0.1c1.5,0.2,3,0.3,4.6,0.3
		c1.6-0.1,3.5-0.6,5.7-1.6h1.3c2.7,0.4,4.4,1,5.2,2c0.7,1,0.8,3.9,0.2,8.7c-0.1,0.2-0.3,0.8-0.5,1.8c-0.2,0.9-0.3,2.1-0.3,3.6
		c-0.1,1.4-0.1,3,0,5c0.1,2,0.5,4.1,1.1,6.3c-0.4,0-1.1,0.8-2.2,2.4c-1.1,1.6-1.7,2.6-1.7,3C448.5,39.8,448.7,40.3,449.3,41.1z"/>
	<path class="st0" d="M685.1,95.8c2.7-0.2,5.1-0.4,7.3-0.6c2.1-0.1,3.8-0.3,5.2-0.5c1.4-0.2,2.9-0.3,2.9-0.3v21c0,0-1.8,0.1-2.4,0.2
		c-0.6,0.1-1.2,0.2-1.6,0.2c-1.1,0.1-2,0.2-2.8,0.1h-2.3c0-0.7-0.3-1.2-0.9-1.5c-0.6-0.3-1.3-0.5-2.2-0.5c-1.8,0-3.8,0.4-5.9,1.1
		c-2.1,0.7-3.5,1.5-4.4,2.2c-0.1,0.1-0.3,0.2-0.5,0.1c-0.2-0.1-0.5-0.2-0.9-0.5c-0.2-0.1-0.5-0.3-0.7-0.5c-0.2-0.2-0.5-0.3-0.7-0.3
		c-2.2,0.4-4.8,0.6-7.9,0.7c-3.1,0.1-5.9,0.1-8.4,0h-3.7h-2.7c-0.9,0-1.7-0.1-2.6-0.2c0-2.1-0.6-3.1-1.7-3c-1.2,0.1-2.1,0.6-2.8,1.7
		c-0.9,1.1-1.3,2.4-1.2,3.8c0.1,1.5,1.2,2.6,3.4,3.5c-0.1,1.1-0.3,2-0.5,2.7c-0.2,0.7-0.3,1.3-0.5,1.6c-0.4,0.7-0.6,1.4-0.7,2
		c-0.1,0.6-0.1,1.5,0,2.6c-0.2,0-0.4,0.1-0.5,0.3c-0.1,0.2-0.2,0.4-0.2,0.6c-0.1,0.5-0.1,1,0.1,1.5c0.2,0.5,0.5,1,0.8,1.6
		c-0.5,0.6-0.9,1.1-1.1,1.5c-0.2,0.4-0.4,0.7-0.4,1.1c0,0.5,0.1,1,0.2,1.5c0.1,0.5,0.3,1,0.5,1.6c0.4,1.8,0.8,4.5,1.3,8
		c0.5,3.5,0.5,8.6,0.2,15.5c-0.9-0.1-1.9-0.3-3.1-0.5c-1.2-0.2-2.4-0.3-3.7-0.3c-1.6,0.1-3.2,0.4-4.8,0.7c-1.6,0.4-3.1,0.9-4.5,1.6
		l-9.3-1.8c0.2-1,0.3-1.7,0.2-2.1c-0.1-0.4-0.3-0.8-0.5-1c-0.1,0-0.2-0.1-0.3-0.2c-0.1-0.1-0.1-0.3-0.1-0.5c0-0.7,0.1-1.8,0.2-3.2
		c0.1-1.4,0.8-5.4,0.8-5.4v-8c0.5,0,0.8-0.1,1-0.3c0.2-0.2,0.2-0.6-0.1-1.2c-0.1-0.1-0.2-0.3-0.3-0.5c-0.1-0.2-0.2-0.4-0.3-0.7
		c-0.1-0.1-0.3-0.3-0.5-0.7c-0.2-0.3-0.3-0.7-0.5-1c0.5-5.6,0.5-8.8,0.1-9.7c-0.4-0.9-0.8-1.3-1.2-1.3c-0.3,0-0.4,0-0.6,0
		c-0.1,0-0.2-0.1-0.2-0.2c0-0.4,0-0.8,0.1-1.3c0.1-0.5,0.2-0.9,0.3-1.3c0.1-0.5,0.2-1,0.4-1.4c0.1-0.4,0.2-0.9,0.4-1.4
		c0.1-0.7,0.3-1.5,0.5-2.1c0.2-0.7,0.3-1.4,0.3-2.1s-0.1-1.5-0.2-2.2c-0.1-0.7-0.4-1.6-0.7-2.4c-0.9-0.4-1.6-0.6-2.2-0.6
		c-0.6,0-1.1,0.1-1.5,0.2c-0.7,0.4-1.2,1.1-1.5,2.1c-1.5-0.9-3.2-1.5-5.1-1.8c-1.9-0.3-3.9-0.5-5.9-0.5c-4,0.3-7.7,1-11.1,2.1
		c-3.4,1.2-5.2,2.3-5.3,3.4l-4.3-1.5l-23.4,0.2c0.2-1.1,0.5-2.1,0.7-3.1c0.4-1.6,0.6-3.4,0.7-5.6c0.1-2.2-0.2-3.8-0.9-4.9
		c-0.3-0.4-0.4-0.9-0.5-1.4c0-0.3-0.1-0.6-0.1-0.9c0-0.4,0.1-0.7,0.4-0.9L560,96h4.6h4.8h3.7c0,0.4,0,0.5,0.1,0.5
		c0.1,0.1,0.2,0.1,0.5-0.5h1.5c0,0.9,0.1,1.1,0.3,1.3c0.2,0.2,0.4,0.3,0.6,0.3c0.5,0.2,1,0.3,1.6,0.1c0.5-0.2,1-0.5,1.4-0.8
		c0,0.5,0.7,0.7,2,0.5c1.3-0.1,2.7-0.4,4.2-0.7c0.5,0,0.9,0,1.4-0.1c0.4-0.1,0.9-0.1,1.4-0.1c0.4-0.1,1-0.5,1-0.5h0.8h5.5h7.3h5.5
		c1.8,0.2,3.9,0,6.2-0.1c2.3-0.1,5.6-0.4,9.7-0.7l1.5-1.3c0.1,0.1,0.3,0.2,0.5,0.2c0.7,0.4,2.1,0.8,4.2,1.3c2.1,0.5,4.3,0.9,6.6,1.1
		c2.2,0.4,4.4,0.4,6.5,0.1c2.1-0.3,4.8-2.5,4.8-2.5h0.4c0,0,1.3,0.2,2.5,0.7c1.2,0.5,1.8,0.8,1.9,1.3h0.7c0.9-0.5,2.4-0.5,4.7-0.6
		c2.3-0.1,4.6-0.2,7-0.4c2.4,0,4.8,0.1,7,0.3c2.3,0.2,3.9,0.5,4.8,0.8C679.8,96.1,682.5,96,685.1,95.8z M604.3,75.2
		c-1,0-2.1,0.1-3.5,0.2c-0.7,0.1-1.5,0.2-2.2,0.3c-0.7,0.1-1.6,0.1-2.6,0.1c-1,0.1-2.1,0.2-3.3,0.2c-1.2,0-2.6-0.1-4-0.2
		c-2.6,0-4.1-0.1-4.5-0.2c-0.4-0.1-0.5-0.5-0.7-1.3v-1.5c0.4-1.2,0.3-2.5,0.3-3.8c-0.1-1.3-0.1-2.6-0.1-3.8
		c-0.1-1.2,0.8-3.2,0.8-3.2v-2.3v-1.1l1-8.2c0.5-0.5,0.6-1.1,0.4-1.8c-0.2-0.7-0.6-1.5-1.1-2.2c-0.1-0.1-0.2-0.3-0.4-0.5
		c-0.1-0.2-0.2-0.4-0.4-0.6c-0.1-0.1-0.2-0.3-0.4-0.5c-0.1-0.2-0.2-0.5-0.2-0.9c0.5,0,0.7-0.1,1-0.4v-0.9l-0.4-0.4
		c0.7-0.4,1.1-1.1,1.2-2.1c0.1-1-0.1-2-0.5-2.8c-0.1-0.5-0.3-0.8-0.5-1c-0.2-0.2-0.5-0.3-0.9-0.3c-1.3,0.2-2-0.9-2.1-3.3
		c-0.1-2.4,0.1-4.8,0.5-7.1c0-1.2,0.2-2.7,0.5-4.4c-0.6-0.5-0.8-1.1-0.5-1.9c0.2-0.8,0.5-1.6,0.9-2.3c0.2-0.4,0.4-0.8,0.5-1.3
		c0.1-0.5,0.1-0.9,0-1.3c5-0.1,8.9-0.2,11.6-0.1c2.7,0.1,4.8,0.1,6.1,0.1c1.3,0.1,2.1,0.3,2.4,0.5c0.2,0.2,0.4,0.3,0.5,0.5
		c0,0.1,0.1,0.2,0.3,0.3c0.2,0.1,0.8,0.1,1.9,0.1c0.1,0,0.3,0,0.5,0.1c0.2,0.1,0.4,0.1,0.6,0.1c0.1,0,0.3,0,0.5,0.1
		c0.2,0.1,0.5,0.1,0.7,0.1c0.6,0.4,1.3,0.6,2,0.6c0.7,0.1,1.3-0.1,1.8-0.5c0,0.2,0.1,0.4,0.3,0.5c0.2,0.1,0.5,0.2,0.8,0.2
		c0.4,0.2,0.8,0.3,1.4,0.3c0.5-0.1,0.9-0.3,1.2-0.8c0.2,0.6,0.5,1,0.8,1.2c0.3,0.2,0.6,0.3,1,0.3c0.5,0,1-0.1,1.6-0.3
		c0.5-0.2,1.2-0.5,2.1-0.8c1.2-0.4,2.9-0.9,5.1-1.6c2.2-0.7,5-1.2,8.4-1.7c0.1,0.1,0.3,0.2,0.5,0.3c0.2,0.1,0.5,0.1,0.9,0.1
		c1.1,0.7,2.2,1.2,3.2,1.5c1,0.2,2-0.2,3-1.5c0.5,0.2,0.9,0.4,1.3,0.5c0.4,0.1,1.1-0.2,1.1-0.2s0.1,0,0.4,0c0.3,0,0.7-0.1,1.2-0.2
		c1.1-0.1,2.6-0.2,4.6-0.3c2-0.1,5.1,0.1,9.2,0.5v0.9c0,0.4,0.2,0.5,0.6,0.5c0.4-0.1,1.7-0.3,4.1-0.8c1.7,0,3.1-0.1,4-0.2
		c0.9-0.1,1.8-0.3,2.5-0.6c0.9-0.1,1.9-0.2,3.2-0.3c1.3-0.1,3.7-0.1,7.3-0.1c0,0.1,0.1,0.6,0.2,1.5c0.1,0.9,0.4,1.8,0.7,2.9
		c0.2,1.6,0.6,3.2,1,4.7c0.4,1.5,0.8,2.3,1.2,2.3c-0.2,0.4-0.4,0.7-0.6,0.9c-0.1,0.2-0.2,0.4-0.4,0.6c-0.2,0.1-0.4,0.2-0.6,0.4
		c-0.1,0.1-0.2,0.2-0.4,0.2c-0.7,0.4-1.3,1.2-1.7,2.4c-0.4,1.2-0.4,4.7-0.2,10.5c0.1,0.4,0.3,0.7,0.5,1c0.2,0.3,0.3,0.6,0.5,0.8
		c0.2,0.4,0.4,0.7,0.6,0.9c0.1,0.2,0.2,0.5,0.4,0.7c0.2,1.2,0.2,2.2-0.1,2.9c-0.3,0.7-0.7,1.3-1.2,1.7c0.1,0.4,0.3,0.7,0.5,1
		c0.2,0.3,0.3,0.5,0.5,0.5c0.1,0.5,0.1,0.9-0.1,1.2c-0.2,0.3-0.5,0.5-0.8,0.5c0,2.3,0,4.3-0.1,5.9c-0.1,1.6-0.2,2.9-0.3,4
		c-0.1,0.6-0.2,1.1-0.3,1.5c-0.1,0.4-0.1,0.7-0.1,1.1c0,0.4,0,0.7,0.1,1c0.1,0.3,0.3,0.6,0.6,0.8c0.1,0.2,0.2,0.6,0.3,0.9
		c0.1,0.4,0.1,0.8,0.1,1.3c0,0.5,0,1,0,1.4c0,0.4,0,0.8,0,1.2c0,0.7,0,1.3,0,1.7c0,0.4,0.1,0.8,0.2,1c0.1,0.4-0.1,0.8-0.6,1.2
		c-0.5,0.4-1,0.7-1.5,0.8c-0.4,0.1-0.7,0.2-1,0.2c-0.3,0-0.5-0.1-0.5-0.4c-0.4-0.4-1.2-0.4-2.6,0c-1.4,0.4-2.8,0.8-4.3,1.3
		c-0.7,0.2-1.4,0.5-2,0.6c-0.6,0.2-1.2,0.3-1.7,0.3c-0.5,0.1-0.9,0.2-1.1,0.2c-0.2,0-0.4-0.1-0.4-0.4c0.2-1.5-1.5-2.4-5.1-2.7
		c-3.6-0.3-7.9-0.3-12.7,0.1c-2.3,0.1-4.7,0.3-7,0.6c-2.3,0.2-4.6,0.5-6.7,0.7c-2.1,0.2-4.1,0.5-5.9,0.7c-1.8,0.2-3.4,0.4-4.6,0.6
		c-0.7-0.9-2.5-1.3-5.2-1.3c-2.7,0-5.4,0.1-7.9,0.2c-0.7,0.1-1.4,0.2-1.9,0.3c-0.6,0.1-1.1,0.1-1.6,0.1c-0.5,0-0.3,0-0.3,0
		s-0.7-0.1-0.9-0.2C606.3,75.4,605.2,75.2,604.3,75.2z M658.6,37.7c0.2-1.3,0.3-2.1,0.1-2.3c-0.2-0.2-0.8-0.4-1.9-0.6
		c-0.4,0.1-0.6,0.2-0.8,0.2c-0.2,0-0.4,0-0.6,0c-1.9,0.4-4.3,0.6-7,0.7c-2.7,0.1-5.4,0.2-7.9,0.2c-2.7,0-5,0-6.9-0.1
		c-1.9-0.1-3-0.1-3.1-0.1c-0.4,0-0.7,0-1-0.1c-0.3-0.1-0.6-0.1-1-0.3c-0.4,0-0.7,0-1-0.1c-0.3-0.1-0.6-0.1-0.8-0.3
		c-2.7-0.6-5-1-7.1-1.2c-2.1-0.2-3.1,0.4-3.1,1.7c-0.2-0.2-0.5-0.5-0.8-0.7c-0.3-0.2-0.6-0.5-1-0.7c-1-0.4-1.9-0.6-2.8-0.6
		c-0.9-0.1-1.7,0-2.3,0.1c-0.6,0.2-0.9,0.5-0.8,0.8c0.1,0.3,0.7,0.6,1.9,0.8v2.5c-0.1,1.6-0.6,2.6-1.5,3.1l0.7,13.2l-0.4,0.2
		c-0.4,0.4-0.6,0.8-0.6,1.4c-0.1,0.6,1.4,0.5,4.3-0.2c2.2,0.7,4.6,1,7.4,0.9c2.7-0.1,5.4-0.4,8.1-0.7c1,0,2-0.1,3-0.2
		c1-0.1,2-0.2,3-0.4c1,0,1.9,0,2.9,0c1,0,1.9,0,2.9,0c0.2,0.4,1,0.8,2.3,1.3c1.3,0.5,2.8,0.7,4.5,0.7c1.1,0.1,2.2,0.1,3.5,0
		c1.2-0.1,2.4-0.4,3.5-0.7c0.4,0.7,1,1.1,2,1c1-0.1,1.8-0.4,2.4-1c0.4-0.4,0.6-0.8,0.7-1.4c0.1-0.6-0.1-1.1-0.7-1.6
		c0.4-0.4,0.6-1.4,0.6-3.2c0.1-1.8,0.1-3.7,0.1-5.6c0-1.4-0.1-2.7-0.2-3.9c-0.1-1.1-0.2-2-0.4-2.4V37.7z"/>
	<path class="st0" d="M866.6,124.1c-0.3,2.6-0.5,4.5-0.5,5.9c0,1.3,0.1,2.3,0.4,2.7c0.2,0.5,0.6,0.9,1.1,1.1
		c-0.2,0.1-0.5,0.6-0.6,1.4c-0.2,0.8-0.3,1.7-0.5,2.8c-0.1,1.1-0.2,2.3-0.4,3.5c-0.1,1.2-0.6,2.9-0.6,2.9v1.5c0,0,1.2,0.6,1.5,1.7
		c0.2,1.2,0.4,2.5,0.4,4.1c0,1.5-0.2,3-0.5,4.5c-0.3,1.5-0.7,2.7-1.2,3.4c-0.4,0.4-0.6,0.6-0.8,0.7c-0.2,0.1-0.4,0.2-0.6,0.2
		c0.6,0.6,0.5,1.1-0.4,1.5c-0.9,0.4-2.1,0.6-3.8,0.7c-1.6,0.1-3.4,0.2-5.4,0.1c-2-0.1-3.8-0.3-5.4-0.8h-0.9c-0.2,0.2-0.5,0.1-0.7,0
		c-0.2,0-0.5,0-0.7-0.1c-0.2-0.1-0.4-0.2-0.5-0.3c-0.6,0-3.2,0-7.9-0.1c-4.6-0.1-10.1-0.2-16.5-0.5h-19.8
		c-6.8,0.2-12.7,0.3-17.6,0.4c-1.8,0-3.4,0.1-4.8,0.2c-1.3,0.1-2.5,0.2-3.5,0.2c-4-0.4-7.7-0.6-11.2-0.7c-3.4-0.1-6.2,0-8.2,0.4
		c-0.5,0.1-0.9,0.2-1.2,0.4c-0.3,0.1-0.6,0.2-0.8,0.2c-1.7-0.7-2.7-1.1-2.9-1.2c-0.2-0.1-1.2,0.2-2.7,0.8c-0.2,0.1-0.5,0.2-0.8,0.3
		c-0.3,0.1-0.6,0.2-0.8,0.3c-0.2,0.1-0.5,0.2-0.8,0.3c-0.3,0.1-0.6,0.2-1,0.3c-0.1-0.2-0.3-0.4-0.6-0.5c-0.3-0.1-0.7-0.2-1.2-0.2
		c-0.5,0-1.1,0.1-1.7,0.2c-0.7,0.1-1.4,0.2-2.1,0.2c-2.2,0.4-4.5,0.6-7,0.7c-2.4,0.1-4.3-0.5-5.7-2c-0.2-0.1-0.5-0.3-0.6-0.5
		c-0.2-0.2-0.4-0.4-0.6-0.5c-0.1-0.2-0.2-0.4-0.4-0.5c-0.1-0.1-0.2-0.3-0.4-0.5c-0.5-0.4-0.8-0.7-1-0.9c-0.2-0.2-0.3-0.7-0.3-1.3
		c0-0.6,0.1-1.5,0.2-2.7c0.1-1.2,0.3-2.9,0.5-5.2l2.2-0.2c-0.1-0.5-0.2-1-0.2-1.5c-0.2-0.7-0.5-1.7-0.6-2.8
		c-0.2-1.2-0.3-2.3-0.5-3.4c-0.2-1.2-0.5-2.3-0.6-3.2c-0.2-0.9-0.3-1.5-0.3-1.7c0.5-0.4,1-0.7,1.5-1.1c0.5-0.4,0.9-0.8,1.3-1.3
		c1.2-1.6,1.6-3.2,1-4.8s-1.6-2.6-3.2-2.8l0.5-12.4l-1.5-2c0-0.1,0-0.3,0.1-0.5c0.1-0.2,0.2-0.3,0.3-0.5c0-0.2,0-0.4,0.1-0.5
		c0.1-0.1,0.2-0.3,0.3-0.5c0.4-0.6,0.5-1.2,0.5-1.7s-0.2-1.1-0.5-1.6c0.1-0.5,0.2-0.9,0.4-1.3c0.1-0.4,0.2-0.7,0.2-1.1
		c0.1-0.4-0.4-1.2-0.4-1.2s0-1.3,0-1.9v-2.5l7.3,1.3l13.8-1.1c1.1,1,2.2,1.5,3.5,1.6c1.2,0.1,2.1,0.1,2.5,0h0.4l-0.5,13.1
		c2.9,0.5,6.2,0.8,10,0.9c3.8,0.1,7.6,0.1,11.5,0c3.8-0.1,7.4-0.3,10.9-0.5c3.5-0.2,6.5-0.5,8.9-0.8c1.2,0,2.3,0,3.3-0.1
		c1-0.1,1.6-0.2,2-0.3l4.2,1.8c0.2,0,1.6-0.1,4.1-0.2c2.5-0.1,5.4-0.3,8.6-0.5c3.4-0.2,6.8-0.5,10.4-0.7c3.5-0.2,6.5-0.5,8.9-0.7
		c1.1,0,2.4-0.1,3.8-0.4l-0.4-4.7c0.2-0.1,0.4-0.3,0.5-0.5c0.1-0.2,0.1-0.5,0.1-0.9c-0.1-0.4-0.2-0.7-0.3-1
		c-0.1-0.3-0.1-0.6-0.1-0.8c-0.1,0-0.2-0.1-0.2-0.4c-0.8-2.3-0.9-3.8-0.2-4.5c0.7-0.7,1.6-1,2.7-0.9c0.1,0.1,0.2,0.2,0.4,0.2
		c0.1,0,1.9,0,1.9,0l0.5,1h0.6c0,0,0.7,0.1,1.1,0.3c0.4,0.2,0.8,0.3,1.3,0.7h1.3c0.5-0.2,1.1-0.3,1.8-0.4c1.3-0.2,3.3-0.5,5.9-0.7
		c2.6-0.2,6.2-0.2,10.8,0.2c0.4,0,0.7,0.2,1,0.6c0.3,0.4,0.5,1,0.5,1.7s-0.1,1.6-0.2,2.7c-0.1,1-0.3,2-0.5,2.8
		c-0.2,0.2-0.4,0.5-0.5,0.6c-0.1,0.2-0.1,0.3-0.1,0.5c-0.1,0.2-0.2,0.4-0.3,0.5v0.3c0.2,0.1,0.3,0.2,0.4,0.4
		c0.1,0.1,0.2,0.2,0.3,0.4c-0.4,1.2-0.5,2.2-0.5,2.8c0,0.7,0.1,1.1,0.2,1.2c0.1,0.4,0.5,0.4,1.1,0.2
		C867.4,118.1,866.9,121.5,866.6,124.1z M804.4,21.3c-0.2,0.8,0.1,1.2,0.8,1.2c-0.6,2.2-1,3.8-1,4.9c-0.1,1.1,0,1.9,0.1,2.4
		c0.1,0.5,0.3,0.7,0.5,0.6c0.2-0.1,0.3-0.1,0.5-0.1c-0.5,4.6-0.9,8.4-1.1,11.3c-0.2,2.9-0.4,5.2-0.4,6.9c0,1.6,0.1,2.7,0.4,3.5
		c0.2,0.7,0.6,1.2,0.9,1.3c-0.2,0.2-0.4,0.8-0.6,1.7c-0.1,0.9-0.2,2-0.4,3.2c-0.1,1.3-0.2,2.7-0.4,4.1c-0.1,1.4-0.2,2.7-0.2,3.8v2.4
		c0,0,0.6,1.2,0.6,1.7c0.1,0.5,0.1,1.4,0.4,2.5v1.7c-0.3,0.7-0.2,1.4-0.1,2.1c0.2,1.5,0.1,2.7-0.5,3.6c-0.5,0.9-1,1.6-1.4,1.9
		c-0.4,0.4-0.6,0.7-0.8,1c-0.2,0.3-0.2,0.5-0.1,0.6c1.1,1.5,0.9,2.2-0.6,2.3c-1.5,0.1-3.3-0.1-5.4-0.5c-0.5,0-1-0.1-1.5-0.2
		c-0.5-0.1-1-0.2-1.5-0.3h-0.4c-0.7-0.1-1.7-0.1-2.9-0.2c-1.2-0.1-2.7-0.1-4.4-0.1c-1.6-0.1-3.4-0.2-5.5-0.1
		c-2.1,0.1-6.6,1.3-6.6,1.3h-1.5c0,0-6.3-1.6-8.3-1.6c-2,0-3.6,0.3-4.8,0.9c-0.6-0.2-1-0.5-1.3-0.6c-0.2-0.2-0.4-0.3-0.4-0.5
		l-0.2-0.2h-0.2c-0.2,0.3-0.6,0.5-1.1,0.8c-0.5,0.3-1.3,0.8-2.6,1.4c0-0.6-0.4-0.9-1.3-0.8c-0.9,0.1-1.9,0.2-3.1,0.5
		c-0.9,0.2-1.7,0.4-2.7,0.5c-0.9,0.1-1.8,0.2-2.7,0.2c-0.9,0-1.7-0.2-2.5-0.5c-0.8-0.3-1.4-0.9-1.9-1.7c-1.5-1.8-2.3-3.2-2.5-4.1
		c-0.2-0.9-0.2-3,0.5-6.3v-1.1v-1.3c-0.4-0.5-0.3-1-0.3-1.5c0.1-0.5,0.1-1,0.1-1.6l1.6-2.4l-0.2-9.3c0-0.4,0-0.7-0.1-1
		c-0.1-0.3-0.1-0.5-0.1-0.6c1.8-1.3,2.9-3,3.2-4.9c0.3-2,0-3.5-1-4.6c-0.2-0.2-0.5-0.4-0.8-0.5c-0.3-0.1-0.5-0.4-0.5-0.4v-13
		l-1.8-2.2c0.2-1,0.4-2.1,0.5-3.4c0.1-1.3,0.1-2.3,0-3.2c-0.1,0-0.2-0.1-0.4-0.3c-0.1-0.2-0.2-0.4-0.2-0.6c0.4-1,0.8-2,0.8-2
		s0-0.9,0-1.6v-2.6l6.2,0.4l10.6-2c0.7,1.1,1.7,1.7,3,1.8c1.3,0.1,2.3,0.1,3,0c0.4,0,0.8-0.1,1.3-0.2l-0.4,16.6
		c2.2,0.4,4.3,0.6,6.4,0.7c2.1,0.1,4,0.1,5.7,0c0.6,0,1.2-0.1,1.7-0.2c0.5-0.1,1.1-0.3,1.6-0.5l4.8,0.7c0.5-0.6,0.9-1.1,1.1-1.5v0.2
		l-0.6-9.1c0.7,0.2,1.1-0.1,0.9-1c-0.1-0.9-0.3-1.8-0.6-2.5c-0.1-0.3-0.3-0.5-0.4-0.7c-0.4-0.7-0.5-1.6-0.1-2.6
		c0.4-1,0.9-1.7,1.7-2.1c0.2-0.1,0.6-0.2,0.9-0.2s0.7,0.1,1.1,0.4c2.8,0.1,4.7,0.3,5.7,0.5c0.9,0.2,1.6,0.4,2,0.5
		c0.6,0.4,1.4,0.5,2.3,0.5s3.3-0.2,7.2-0.5c0.4,0,0.7,0,1,0c0.3,0,0.7,0.1,1,0.4c0.2,0.4,0.5,0.9,0.7,1.5c0.2,0.6,0.2,1.4-0.1,2.4
		C804.9,19.8,804.6,20.5,804.4,21.3z M842.8,136.8c-0.3-1.6-0.8-3.4-1.6-5.2c-0.4,0.1-0.8,0.2-1.4,0.2s-1.1-0.1-1.7-0.2
		c-0.7,0-1.5-0.1-2.2-0.2c-0.7-0.1-1.5-0.2-2.4-0.4c-3.1-0.4-6.3-0.7-9.8-0.9c-3.5-0.2-6.3,0-8.3,0.7c-0.4-0.2-0.8-0.5-1.3-0.6
		c-0.5-0.2-0.9-0.3-1.3-0.5c-1.1-0.1-2.1-0.2-3-0.1c-0.9,0.1-1.7,0.5-2.5,1.2c-3.5,0-7.2,0.1-11.1,0.2c-3.8,0.1-7.7,0.2-11.6,0.2
		c-7.1,0.2-13.6,0.4-19.7,0.5c-6,0.1-10,0.1-12,0.1l-1.5,2v2.7c0,0.7,0,1.4,0.1,2.1c0.1,0.8,0.1,1.5,0.1,2.2
		c0.1,0.6,0.2,1.2,0.4,1.6c0.1,0.5,0.3,0.8,0.5,0.9c2.4-0.4,4.3-0.5,5.7-0.5c1.3,0,2.9,0.1,4.8,0.2c1.3,0.1,3,0.2,5,0.3
		c2,0.1,4.7,0,8.1-0.1c0.9,0.6,1.9,1,3,1.1c1.2,0.1,2.3,0.1,3.4,0c0.9,0,1.6-0.1,2.3-0.4c0.7-0.2,1.2-0.5,1.6-0.9
		c0.6,0.6,1.3,0.9,2,0.9c0.4,0.1,0.9,0.2,1.6,0.1c0.7-0.1,1.4-0.4,2.1-1c2.4-0.1,4.7-0.2,6.8-0.4c2.1-0.1,4-0.2,5.9-0.2
		c1.8,0,3.5,0,5.1,0.1c1.6,0.1,3.2,0.1,4.8,0.1c1.8,0.2,3.7,0.4,5.6,0.5c1.9,0.1,3.9,0.1,5.9,0.1c2.2,0,4.6-0.1,7.1-0.4
		c2.6-0.2,5.5-0.7,8.8-1.3C842.9,140,843.1,138.5,842.8,136.8z M783.9,64.1c0.1-1.2,0-2.2-0.1-3.2c-0.1-1-0.3-1.9-0.5-2.8
		s-0.3-1.9-0.5-2.8c-0.4-1.1-0.7-2.3-1-3.5c-0.3-1.2-0.5-2.7-0.5-4.4c-0.2,0.6-0.8,1-1.6,1.3c-0.8,0.2-1.9,0.4-3.2,0.5
		c-1.2,0-2.6,0-4.2-0.1c-1.6-0.1-3.2-0.2-4.8-0.3c-1.3,0-2.7-0.1-3.9-0.2c-1.3-0.1-2.5-0.2-3.6-0.2l-1.6,3.8v12.4
		c0,1,0.1,1.8,0.2,2.4c0.1,0.6,0.3,0.9,0.5,0.9c0.4,0,0.9,0,1.5,0l1.7,0c0.7,0,1.5,0,2.2,0.2c0.8,0.1,1.6,0.2,2.5,0.2
		c1,0.1,2,0.2,3.1,0.3c1.1,0.1,2.1,0,3.1-0.1c0.9,0,1.7-0.1,2.5-0.2c0.8-0.1,1.5-0.4,2.1-0.7c0.6,0.4,1.1,0.6,1.5,0.7
		c0.6,0.1,1.2,0.2,1.9,0.2c0.7,0,1.4-0.2,2.1-0.7C783.7,66.5,783.9,65.2,783.9,64.1z M859.3,61c-0.2,0.2-0.5,0.5-0.7,0.6
		c-0.2,0.2-0.4,0.5-0.5,0.8c-0.1,0.4-0.1,0.9,0,1.5c0.1,0.6,0.4,1.3,0.9,2.2c-1.1,2.3-1.6,3.8-1.6,4.5c0.1,0.7,0.3,1.2,0.6,1.6
		c0.1,0.4,0.3,0.8,0.6,1.2c0.3,0.4,0.5,1,0.6,1.7c0.2,0.9,0.4,2,0.4,3.4c0,1.4-0.1,3.2-0.2,5.4c-0.7,1.1-1.4,1.7-2,1.8
		c-0.6,0.1-1.2,0.1-1.8,0c-0.4,0-0.7,0-1,0.1c-0.3,0.1-0.6,0.1-1,0.1c-2.2,0.6-3.8,0.9-4.8,0.8c-1-0.1-1.8-0.3-2.6-0.6
		c-0.7-0.2-1.4-0.4-2.1-0.5c-0.7-0.1-1.6-0.1-2.7,0c-0.7,0.7-1.5,1.2-2.2,1.4c-0.7,0.2-1.5,0.2-2.2-0.1c-0.6,0-1-0.2-1.3-0.5
		c-0.2-0.3-0.4-0.6-0.4-1c0-1.1,0-2.1-0.1-3.1c-0.1-1-0.2-1.8-0.3-2.6c-0.1-0.5-0.3-1.1-0.5-1.8c0.6,0,1.1-0.2,1.5-0.6
		c0.4-0.4,0.6-0.8,0.7-1.2c0-0.4-0.1-0.6-0.4-0.8c-0.2-0.2-0.5-0.3-0.9-0.5v-1.9c0.4-2.2,0.6-4.4,0.7-6.5c0.1-2.2-0.1-3.4-0.7-3.6
		c0-0.1,0-0.4,0.1-0.7c0.1-0.4,0.2-0.7,0.5-1.1c0.2-0.7,0.5-1.5,0.7-2.4c0.2-0.9,0.1-1.5-0.4-2c-0.5-0.4-1.5-0.5-3-0.4
		c-1.5,0.1-4,0.8-7.3,2h-0.4c-0.5-0.1-1.7-0.3-3.5-0.5c-1.8-0.2-5,0.1-9.4,0.8l-0.7-10.5l0.7-0.7c0-0.5-0.1-1.2-0.2-2
		c0-0.7-0.1-1.8-0.2-3.1c-0.1-1.4-0.3-3.2-0.6-5.5l2.8-1.5c4.1,1.1,6.5,1.7,7.2,1.8c0.7,0.1,1.2-0.1,1.5-0.5c0-0.1,0-0.2,0.1-0.4
		c0.1-0.1,0.3-0.2,0.6-0.4c0.4-0.1,0.9-0.2,1.7-0.3c0.7-0.1,1.8-0.1,3.1-0.1c0.1,0.2,0.2,0.5,0.4,0.6c0.1,0.2,0.2,0.3,0.4,0.5
		c0.2,0.7,0.6,1.2,1,1.5c0.4,0.2,1.2-0.2,2.3-1.5c1.1,1,1.9,1.1,2.4,0.4c0.5-0.7,0.7-1.8,0.7-3.3c0-1.5-0.1-3.1-0.3-4.9
		c-0.2-1.8-0.3-3.3-0.5-4.7c-0.1-0.6-0.2-1.3-0.4-2c0.5-0.1,0.7-0.5,0.7-1s-0.2-1.1-0.6-1.6c-0.1-0.1-0.2-0.3-0.4-0.5
		c-0.1-0.2-0.2-0.4-0.2-0.6c-0.7-2.6-0.7-4.8,0.2-6.6c0.9-1.8,1.8-3,3-3.3c0.4,0,0.9,0,0.9,0s0.5,0.7,0.9,0.8c1.1,0.7,2,1.3,2.7,1.7
		c0.7,0.4,1.2,0.6,1.7,0.6c0.4,0.1,0.7,0.2,1,0.1c0.3-0.1,0.6-0.2,1-0.5c0.5-0.2,1.3-0.5,2.6-0.9c1.2-0.4,3.3-0.5,6.2-0.5
		c0,0.4,0.2,0.5,0.7,0.5c0.5,0,1.5,0.1,1.5,0.1s0.8,0,1.3,0c0.5,0,1,0.1,1.4,0.2c0.6,5.2,0.9,8.5,0.8,9.9c-0.1,1.3-0.3,2.3-0.6,2.9
		c-0.2,0.4-0.4,0.8-0.5,1.4c-0.1,0.5,0,1.6,0.1,3.2c-0.7,0-1.2,0.5-1.4,1.5c-0.2,1-0.2,2.1-0.1,3.3c0,0.9,0.1,1.7,0.3,2.6
		c0.2,0.9,0.4,1.6,0.6,2.2c-0.1,0.4-0.2,0.6-0.4,0.8c-0.1,0.2-0.2,0.3-0.2,0.5c-0.4,0.7-0.5,1.3-0.5,1.8c0,0.5,0.4,0.7,1.3,0.5
		c-0.4,1.3-0.5,2.4-0.5,3.3c0.1,0.9,0.3,1.8,0.6,2.7c0.1,0.6,0.2,1.3,0.4,2.1c0.1,0.8,0.2,1.7,0.4,2.8c0.1,1.1,0.2,2.4,0.1,3.9
		c-0.1,1.5-0.2,3.3-0.5,5.4H859.3z"/>
	<path class="st0" d="M919.3,41.7c-0.3,0.1-0.6,0.3-1,0.4c-0.4,0.1-0.7,0.2-1,0.3c-0.3,0.1-0.4,0-0.3-0.3c0.1-0.7-0.6-1-2.3-0.7
		c-1.7,0.3-3.6,0.7-5.8,1.2c-1.5,0.4-2.9,0.7-4.2,1.1c-1.4,0.4-2.6,0.6-3.7,0.7c-0.6,0.1-1.3,0.2-1.9,0.3c-0.7,0.1-1.3,0.1-1.9,0.1
		c-0.6,0-1.2,0-1.8,0.1c-0.6,0.1-1.2,0.1-1.7,0.1c-0.7,0.1-1.4,0.2-2,0.2l-0.9-8.4l-0.9-0.6l2.4-17.8l10.5-1.7
		c0,0.1,0.4,0.7,1.1,1.8c0.7,1.1,2,1.8,3.9,2.2c1.1,0.4,2.4,0.5,4,0.4c1.5-0.1,3.4-0.7,5.6-1.9c0.1,0.1,0.3,0.2,0.5,0.3
		c0.2,0.1,0.3,0.1,0.5,0.1c0.2,0.1,0.4,0.2,0.6,0.3c0.1,0.1,0.3,0.1,0.6,0.1h0.7l1.1,1h0.8h1c3.8,0.2,7.1,0.4,10,0.3
		c2.9-0.1,5.2-0.2,7-0.3c1.1,0,2-0.1,2.8-0.3c0.8-0.2,1.4-0.4,1.9-0.6c1.8,0.7,3.3,0.9,4.4,0.6c1.1-0.3,2-0.6,2.7-1
		c0.7-0.4,1.4-0.5,2.1-0.5c0.7,0,1.6,0.6,2.7,1.8c0.7,0,1.3,0.1,1.6,0.3s0.7,0.4,1.1,0.6c0.1,0.2,0.2,0.4,0.4,0.5
		c0.1,0.1,0.3,0.2,0.5,0.3c0.1,0,0.3,0,0.5-0.1c0.2-0.1,0.5-0.2-0.2-0.5v17.4c0.5,0.1,0.4,0.4,0.4,0.9c0.1,0.5,0.2,1,0.6,1.5v0.6
		c-0.1,0.2,0,0.3,0.1,0.5c0,0.2,0,0.5,0.1,0.6c0.1,0.2,0.1,0.3,0.1,0.5c-0.1,0-0.7,0.2-1.8,0.5c-1.1,0.3-2.4,1.1-3.8,2.3
		c-1.1,1-2.1,2.2-3.1,3.8c-1,1.5-1.8,3.5-2.6,5.9c-0.5,0-1.1,0.2-1.8,0.5c-0.7,0.3-1.3,0.6-1.6,1c-0.2,0.2-0.4,0.5-0.5,0.8
		c-0.1,0.3,0.1,0.5,0.5,0.6c-2.4,1.1-3.8,2.5-4.2,4.3c-0.4,1.8-0.1,3.4,0.9,4.8c0.7,1.1,1.7,2,2.8,2.8c1.2,0.8,2.5,1.3,3.9,1.4
		c2.3,2.6,4.3,4.7,5.9,6.3c1.6,1.6,3,3.1,4.2,4.3c0.4,0.5,0.8,0.9,1.2,1.4c0.4,0.4,0.8,0.9,1.2,1.4c0.5,0.5,0.9,0.9,1.3,1.4
		c0.4,0.4,0.8,0.8,1.3,1.2c0,0.4,0.2,0.8,0.5,1.2c0.3,0.4,0.8,0.8,1.4,1c0.2,0.2,0.5,0.4,0.9,0.5c0.4,0.1,0.7,0.2,0.9,0.2
		c0,0.4,0,0.6,0.1,0.6c0.1,0.1,0.5,0.7,0.5,0.7h1.6c0,0.3,0.1,0.5,0.3,0.8c0.2,0.3,0.5,0.7,0.8,1c0.6,0.7,1.2,1.7,1.8,2.7
		c0.6,1.1,0.7,1.9,0.4,2.5c-1.8,2.4-3.4,4-4.6,4.8c-1.2,0.8-2.5,1.4-3.7,1.8c-1.1,0.5-2.4,1.2-3.9,2c-1.5,0.8-3.3,2.3-5.5,4.6
		c-0.9-0.5-1.7-1.1-2.6-1.8c-0.9-0.7-1.7-1.4-2.4-2.2c-0.7-0.6-1.5-1.3-2.2-2.1c-1.6-2.7-3.4-5.2-5.3-7.4c-1.9-2.2-3.6-4-5.1-5.5
		c-1.6-1.2-3.3-2.6-5.2-4.1c0-0.5-0.1-1-0.3-1.5c-0.2-0.5-0.4-0.9-0.6-1.3c-0.2-0.5-0.5-1-0.8-1.4c-0.3-0.4-0.6-0.9-0.8-1.4v-0.2
		c-1.5,0.4-3,1.1-4.6,2.2c-1.6,1.1-3.1,2.4-4.4,3.7c-1.2,1.2-2.2,2.6-2.9,4c-0.7,1.4-0.7,2.6-0.1,3.5c0,0.1,0,0.2,0,0.3
		c0,0.1,0.1,0.1,0.2,0.1c0,0.1,0.1,0.2,0.2,0.2c-0.1,0.1-0.6,0.6-1.4,1.5c-0.8,0.9-1.7,1.9-2.7,3c-1,1-1.9,2-2.9,3.1
		c-0.9,1.1-1.6,1.8-2.1,2.3c0,0.1-0.1,0.3-0.2,0.4c-0.2,0.3-0.5,0.6-0.6,0.9c-0.2,0.4-0.3,0.7-0.5,1.1c-0.4,1.1-0.8,2.2-1.4,3.3
		c-0.6,1.1-1.2,1.5-1.9,1.2c-1-0.4-1.9-0.9-2.7-1.7c-0.8-0.7-1.6-1.6-2.3-2.4c-0.6-0.5-1.2-1-1.8-1.6c-0.6-0.6-1.1-1-1.8-1.4
		c-0.5-0.5-1.1-0.9-1.8-1.1c-0.7-0.2-1.4-0.4-2.1-0.4c-0.6,0.4-1.4,0.3-2.3-0.1c-0.9-0.4-1.8-1-2.7-1.8c-1.2-1-2.2-2.1-3-3.3
		c-0.8-1.2-0.8-2.2-0.1-2.9c3-3,5.5-5.6,7.6-7.9c2.7-3,5.4-6,8-9c2.6-3,3.9-4.9,3.8-5.6c0.1,0.4,0.3,0.5,0.6,0.5
		c0.2-0.1,0.6-0.3,0.9-0.7c0.4-0.5,0.7-1.2,1.1-2c0.4-0.8,0.6-1.5,0.7-2.2c0.5-0.1,1.1-0.4,1.8-0.8c0.7-0.4,1.4-1,2.1-1.6
		c0.7-0.7,1.5-1.8,2.2-3.2c0.7-1.4,1.5-3.1,2.2-5.1c1.5-0.2,2.6-0.5,3.4-0.7c0.8-0.2,1.4-0.6,1.8-0.9c0.4-0.2,0.4-0.6,0-1.1
		c0.1-0.6,0.3-1.3,0.6-2c0.3-0.7,0.6-1.3,1-2c0.4-0.7,0.8-1.4,1.2-2.1c0.4-0.6,0.8-1.2,1.2-1.9c0.9-1.4,1.6-2.6,2.2-3.8
		c0.6-1.2,0.8-2.2,0.6-2.9c-0.2-0.9-1-1.5-2.4-1.9c-1.4-0.4-3.5-0.5-6.5-0.4C919.8,41.5,919.6,41.6,919.3,41.7z M1019.4,59.8
		c2.3-0.5,4.2-1.1,5.6-1.8h0.6c0.7,0.1,1.8,0.2,3.1,0.2c1.3,0,2.7-0.1,4-0.2c1.3,0,2.5,0,3.6-0.1c1-0.1,1.7-0.1,2.1-0.1v10.7
		l-1.7,1.1l0.6,7.5l-0.6,1.5l0.4,3.3l-5.9,0.9l-2-0.9c-0.1,0-0.5,0.1-1.2,0.2c-0.7,0.1-1.4,0.2-2.3,0.4c-1,0.1-1.9,0.2-2.8,0.4
		c-0.9,0.1-1.5,0.2-1.8,0.2h-0.5c0,0-3.8-1.8-5-2c-1.3-0.2-3.1,0.6-5.4,2.3l-0.4,0.4c0,0.6,0.1,1.1,0.4,1.4c0.2,0.3,0.5,0.6,0.9,1
		c-0.2,0.1-0.5,0.3-0.9,0.5c-0.2,0.1-0.4,0.2-0.5,0.4c-0.1,0.1,0,0.5,0.1,1.1c0.1,0.5,0.3,1.3,0.5,2.3c0.2,1,0.7,2.5,1.3,4.5
		c-0.1,0.6-0.2,1.3-0.4,1.9c-0.1,0.7-0.2,1.4-0.4,2.1c-0.1,0.7-0.2,1.5-0.4,2.2c-0.1,0.7-0.2,1.5-0.4,2.2c-0.4,2.7-0.7,5.3-1,8
		c-0.3,2.6-0.5,5-0.5,7.2c0,2.2,0.2,4,0.5,5.4c0.4,1.4,1,2.1,1.8,2.1c-0.2,0.9-0.4,1.6-0.4,2.4c-0.2,1.3-0.4,2.9-0.5,4.8
		c-0.1,1.8-0.2,3.7-0.2,5.7c-0.1,1.8-0.1,3.6,0,5.3c0.1,1.7,0.4,3,0.7,3.8c-0.4,0.1-0.6,0.3-0.7,0.5c-0.1,0.2-0.2,0.4-0.2,0.6
		c0,0.2,0.1,0.6,0.3,1c0.2,0.4,0.4,0.9,0.6,1.4c0,0.2,0.1,0.5,0.2,0.8c0.1,0.3,0.2,0.6,0.4,0.8c0.1,0.4,0.2,0.7,0.4,1.1
		c0.1,0.4,0.2,0.7,0.4,1.1c-0.4,1.1-0.9,2.7-1.6,4.8c-0.7,2.1-1.5,3.7-2.2,4.8c-0.4,0.4-0.7,0.7-1,0.9c-0.3,0.2-0.6,0.2-0.8-0.2
		c-1.1-0.7-2.2-1.3-3.4-1.6c-1.2-0.4-2.3-0.6-3.4-0.7c-1.1,0-2.2,0-3.3,0.1c-1.1,0.1-2.1,0.1-3.1,0.1c-1.1,0.2-2.2,0.4-3.2,0.5
		c-1,0.1-2,0-3-0.1c-0.9-0.5-1.4-1.1-1.7-1.8c-0.3-0.7-0.5-1.5-0.5-2.4c-0.1-1-0.1-1.9,0-2.8c0.1-0.9,0.3-1.8,0.5-2.7
		c0.1-0.6,0.2-1.2,0.3-1.8c0.1-0.6,0.1-1.2,0.1-1.6c0-0.5-0.1-0.9-0.3-1.2c-0.2-0.3-0.5-0.5-1-0.5c-0.2-1.8-0.3-3.4-0.3-4.8
		c0.1-1.3,0.1-2.5,0.1-3.5c0.1-1.1,0.2-2,0.4-2.7c0.1-0.7,0.3-1.5,0.5-2.2c0.1-0.7,0.3-1.5,0.5-2.4c0.2-0.9,0.3-1.9,0.3-3.1
		c0.1-1.2,0.1-2.6,0-4.2c-0.1-1.6-0.3-3.6-0.5-6c0.4-0.6,0.6-2.1,0.8-4.4c0.2-2.3,0.3-4.8,0.3-7.3l-0.4-11.9
		c0.2-0.2,0.4-0.5,0.5-0.8c0.1-0.3,0.1-0.6,0.1-1s-0.1-0.7-0.2-1.1c-0.1-0.4-0.2-0.8-0.2-1.3c-0.4-0.7-0.6-1.6-0.6-2.5
		c-0.1-0.9,0.5-1.7,1.6-2.3c-0.4-2.8-0.5-5.2-0.7-7v-4.8c0-1.1-0.1-2-0.1-2.8c-0.1-0.8-0.2-1.6-0.3-2.3c-0.1-0.6-0.3-1.2-0.6-1.9
		c-0.3-0.7-0.7-1.4-1.2-2.3c0-0.6,0.1-1.2,0.2-1.7c0.1-0.5,0.2-1.1,0.4-1.6c0-0.4,0.1-0.8,0.2-1.3c0.1-0.5,0.2-1,0.4-1.5
		c0.2-1,0.5-2,0.7-3.2c0.2-1.2,0.5-2.7,0.7-4.7c0.2-1.8,0.5-4.2,0.6-7.1c0.2-2.9,0.4-6.6,0.6-11l-3.3-3.3c0.1-0.9-0.3-2.4-0.3-2.4
		s0-3.3,0-5.3c0-2.1-0.2-3.2-0.6-3.5c-0.2,0-0.4-0.2-0.6-0.5c-0.1-0.3-0.2-0.6-0.2-1c-0.1-1-0.1-2.3,0.1-3.8
		c0.2-1.6,0.6-3.3,1.4-5.1c0.7-0.2,1.4-0.4,1.9-0.5c0.6-0.1,1.1-0.2,1.6-0.2c0.5,0,1,0,1.5,0.1c0.5,0.1,1,0.1,1.5,0.1
		c0.7,0.2,1.5,0.4,2.3,0.4c0.8,0,1.8-0.2,2.9-0.5c0,0.7,0,1.1,0.1,1.2c0.1,0.1,0.2,0,0.5-0.1c0.1-0.1,0.4-0.2,0.8-0.4
		c0.4-0.1,1.1-0.1,1.9,0.2c0.4,0.7,0.7,1.1,1,1.1c0.3,0,0.8-0.2,1.4-0.5c0.4-0.1,0.8-0.3,1.4-0.5c0.6-0.2,1.2-0.4,1.9-0.5
		c0.7-0.1,1.6-0.2,2.6-0.2c1,0,2.2,0.1,3.5,0.4v15.4c0,3.7,0,7.3-0.1,10.9c-0.1,3.6-0.1,6.7-0.1,9.4c-0.7,0.9-1.2,1.7-1.4,2.7
		c-0.2,0.9-0.3,1.9-0.3,2.8c0.1,1,0.3,2,0.6,2.9c0.2,1,0.5,1.9,0.7,2.7c0,0.5,0.1,0.9,0.2,1.4c0.1,0.4,0.2,0.8,0.4,1.2
		C1014.5,59.8,1017.1,60.3,1019.4,59.8z"/>
</g>
</svg>
