<?xml version="1.0" encoding="utf-8"?>
<!-- Generator: Adobe Illustrator 22.0.1, SVG Export Plug-In . SVG Version: 6.00 Build 0)  -->
<svg version="1.1" id="Layer_1" xmlns="http://www.w3.org/2000/svg" xmlns:xlink="http://www.w3.org/1999/xlink" x="0px" y="0px"
	 viewBox="0 0 1331.7 363.5" style="enable-background:new 0 0 1331.7 363.5;" xml:space="preserve">
<style type="text/css">
	.st0{fill:#FFFFFF;}
</style>
<g>
	<path class="st0" d="M227.5,165.3h-28.1c0.5-10,0.6-20.8,0.6-32.4c-0.1-11.5,0.3-22.9,1-34.2c-3.8-0.1-7.4-0.2-10.9-0.2
		c-3.5,0-7.1,0-10.8,0.1c-3.7,0.1-7.5,0.2-11.6,0.3c-4,0.2-8.5,0.3-13.3,0.4c1.2,10.3,1.5,21.3,1,32.7c-0.5,11.5-0.6,23.1-0.1,34.8
		c-5.3,0.3-10.4,0.5-15.4,0.6c-5,0.1-9.6,0-13.6-0.3c-1.2-8.5-1.8-17.4-1.7-26.5c0.1-9.1,0.1-18.5,0.1-28.1v-4.9
		c0-0.7-0.1-1.7-0.3-2.8c-0.2-1.1-0.3-2.1-0.3-2.8c0-3.1,0-6.8-0.1-11c-0.1-4.2,0.5-7.7,1.7-10.6c-0.5-1.6-0.7-3.7-0.8-6.3
		c-0.1-2.5-0.1-5.2-0.1-8.1c0.1,0,0.3-0.1,0.5-0.2c0.3-0.3,0.5-0.7,0.5-1.4h-0.9v-4c-0.3-3.3-0.4-6.4-0.2-9.2
		c0.1-2.8,0.2-5.7,0.2-8.5c0-3.1-0.1-6.3-0.2-9.4c-0.2-3.1-0.1-6.1,0.2-9c0-1,0.3-1.8,0.9-2.3c-0.5-1.2-0.6-2-0.5-2.4
		c0.1-0.4,0-0.9-0.5-1.7c1-0.5,1.6-1,1.8-1.7c0.1-0.7,0.1-1.4,0-2.1c-0.2-0.7-0.2-1.5-0.2-2.3c0-0.7,0.3-1.4,0.9-2
		c1.6-0.7,3.4-1.2,5.2-1.3c1.8-0.1,3.5-0.2,5.2-0.2c2.1,0,4-0.3,5.6-0.8c1.6-0.5,3.3-0.8,4.9-0.8c1.2,0,2.4,0.2,3.5,0.6
		c1.1,0.4,2.1,0.2,2.8-0.6c-0.3,4.8,0,9.4,0.8,13.8c0.8,4.4,0.9,8.7,0.1,12.7c0,0.8-0.3,1.5-0.8,2.4c-0.5,0.8-0.8,1.6-0.8,2.4
		c-0.5,2.1-0.6,4.4-0.3,7c0.2,2.6,0.3,5,0.3,7.4c0.3,2.6,0.5,5,0.6,7.4c0.1,2.4,0.1,5,0.1,7.9c7.6,0.8,15.6,1.1,23.7,1.1
		c8.2,0,16.1-0.4,23.7-1.1c0.5-2.5,0.7-5,0.8-7.3c0.1-2.3,0.1-4.7,0.1-7.1c0-2.8,0.1-5.6,0.2-8.3c0.1-2.7,0.1-5.3-0.2-7.9
		c0-0.7-0.3-1.4-0.9-1.9c-0.6-0.5-0.9-1.2-0.9-1.9c-0.3-2.1-0.2-4.3,0.2-6.6c0.5-2.3,0.7-4.7,0.7-7.1c0.5-2.5,0.6-4.9,0.5-7.2
		c-0.2-2.2,0-4.4,0.5-6.5c5.7,0,10.8-0.1,15.3-0.2c4.5-0.1,8.8-0.1,12.8,0.2c0.6,1.8,0.3,4.2-0.9,7.2c0,0.8,0.4,1.2,1.1,1.2
		c0.7,0.1,0.9,0.5,0.4,1.2c0,5.7,0.1,11.8,0.3,18.4c0.2,6.6,0.1,13.3-0.3,20c0,0.4,0.1,1.1,0.3,1.9c0.2,0.8,0.1,1-0.3,0.6
		c-0.3,0.5-0.2,0.6,0.2,0.5c0.5-0.1,0.7,0,0.7,0.4c-0.5,2-0.7,4.2-0.8,6.9c-0.1,2.6-0.1,5.4-0.1,8.2c0,0.8-0.1,1.6-0.3,2.5
		c-0.2,0.9-0.3,1.9-0.3,3.1c0,0.4,0.1,0.9,0.3,1.3c0.2,0.5,0.3,1.1,0.3,2c0.5,2.4,0.6,4.9,0.5,7.5c-0.2,2.6-0.3,5.1-0.5,7.5
		c-0.2,5.7-0.3,11.6-0.3,17.7c-0.1,6.1-0.2,12.1-0.3,18.2c-0.2,6.1-0.5,11.9-1,17.5C229.4,155.3,228.6,160.5,227.5,165.3z
		 M134.5,60.3c0.8,0.8,1.3,0.8,1.7,0.1c0.4-0.7,1.2-1,2.4-1c-0.5-0.8-1.2-0.9-2.4-0.5S134.5,59.9,134.5,60.3z M136.7,64.6v0.7h1.6
		c0-0.3-0.2-0.6-0.6-0.9C137.4,64.1,137,64.2,136.7,64.6z M139.8,71.3h0.9v-0.9c-0.6,0-0.9,0.2-0.9,0.5
		C139.7,71,139.7,71.1,139.8,71.3z M140.1,61c1.1,0,1.6-0.5,1.6-1.6c-0.3,0-0.6,0.1-1,0.2C140.3,59.8,140.1,60.2,140.1,61z
		 M143.3,64.4c0,0.8,0.4,1,1.2,0.8c0.8-0.2,1.2-0.5,1.2-0.8c-0.3-0.5-0.6-0.5-0.8-0.1C144.8,64.6,144.2,64.7,143.3,64.4z
		 M144.7,72.3v0.9c0.3,0,0.5-0.1,0.7-0.5c0.1-0.3,0.5-0.5,0.9-0.5c0-0.3-0.3-0.5-0.8-0.5C145,71.8,144.7,72,144.7,72.3z M146.7,120
		c0-0.5,0.2-0.8,0.7-0.9c0.5-0.1,0.5-0.4,0-0.7c0-0.5-0.2-0.4-0.7,0.1C146.2,119,146.2,119.5,146.7,120z"/>
	<path class="st0" d="M331.1,71.6c-0.2,1.2,0,2.3,0.3,3.3c0.4,1,0.8,2.3,1.2,4c0,2.4-0.2,4.9-0.5,7.6c-0.3,2.6-0.5,5.2-0.5,7.8
		c0,4.4,0,8.8,0,13.3s-0.2,9.4-0.7,14.7c-0.3,3.3-0.5,6.3-0.7,8.8c-0.2,2.6,0.1,5.3,0.7,8.1c0,0.5,0.1,1,0.3,1.7
		c0.2,0.7,0.3,1.2,0.3,1.7c0,1.2-0.3,2.4-0.8,3.6c-0.5,1.2-0.8,2.4-0.8,3.6c-0.3,2.9-0.2,5.8,0.5,8.8c0.6,3,0.8,6,0.5,8.8
		c-1.2,0.3-2,0.2-2.4-0.2c-0.4-0.5-0.9-0.7-1.7-0.7c-4.1,0-7.8-0.4-11.1-1.1c-3.3-0.8-6.6-1.1-9.9-1.1c-2.9,0.3-5.8,0.7-8.8,1.1
		c-3,0.5-6,0.3-8.8-0.5c-0.3-0.1-0.5-0.5-0.5-1.1c0-0.6-0.1-1.2-0.2-1.9c-0.2-0.7-0.3-1.4-0.6-2c-0.2-0.7-0.6-1.1-1.2-1.2
		c0.8-0.5,1-1.3,0.8-2.6c-0.2-1.3-0.5-2.3-0.8-3.1c0.8-1.2,0.9-2.6,0.6-4.2c-0.4-1.6-0.6-3.4-0.6-5.5c0-1.2,0.1-2.2,0.3-3.1
		c0.2-0.8,0.3-1.4,0.3-1.7c-0.3-1.2-0.8-1.8-1.4-1.9c-0.6-0.1-0.9-0.6-0.9-1.5c3.2-0.8,6.2-1.1,9.3-0.9c3,0.2,5.6,0.2,7.7,0.2
		c0.8-1.2,1-2.4,0.8-3.7c-0.2-1.3,0-1.9,0.8-1.9c-0.8-4.8-1-10.4-0.8-16.8c0.2-6.4,0.2-12.6-0.1-18.6c-0.5-9.9-0.9-19.5-1.4-28.8
		c-0.5-9.3-0.5-18.2-0.2-26.8c-2.6-0.8-4.7-1.2-6.6-1.2c-1.8-0.1-3.6,0-5.3,0.1c-1.7,0.2-3.5,0.4-5.4,0.7c-1.9,0.3-4.2,0.5-6.9,0.5
		c-0.3,8.4-0.3,16.7,0.1,24.9c0.4,8.1,0.8,16.2,1.2,24.1c0.5,7.9,0.8,15.7,1,23.5c0.2,7.8,0,15.6-0.8,23.4c0.5,0.6,1.1,1,1.8,1.2
		c0.8,0.2,1.5,0.5,2.3,0.7c0.8,0.2,1.4,0.6,2,1c0.6,0.5,1,1.1,1.1,2c-0.3,0-0.8-0.1-1.4-0.3c-0.6-0.2-0.9-0.1-0.9,0.3
		c0.3,2.4,0.6,5,1,7.9c0.4,2.9,0.3,6.1-0.3,9.7c0,0.5-0.1,1.1-0.3,1.8c-0.2,0.8-0.3,1.5-0.3,2.3c0,0.8,0.4,1.5,1.1,2.4
		c0.8,0.8,1.1,1.6,1.1,2.4c-5.7,0.8-11.8,0.9-18.1,0.6c-6.3-0.4-12.1-0.6-17.4-0.6c-1.7-16-2.7-31.8-3.1-47.5
		c-0.4-15.7-0.7-31.3-1-46.8c-0.2-6.5,0.3-13.1,1.5-19.8c1.1-6.7,1.5-13.3,1-19.8c-0.3-4.4-0.8-8.5-1.6-12.3
		c-0.8-3.8-0.8-7.8,0-11.9c10.1,0,20.8,0,32.1-0.1c11.3-0.1,22.1-0.3,32.5-0.6c3.2-0.5,6.3-0.6,9.5-0.3s6.2,1.2,9,2.8
		c0.6,2.4,0.8,4.9,0.7,7.3c-0.2,2.5-0.4,5-0.7,7.5c-0.3,2.5-0.5,5-0.7,7.5c-0.2,2.5,0.1,4.9,0.7,7.3c0,0.9,0.3,1.8,0.9,2.6
		c0.6,0.8,1.1,1.8,1.4,3.1c0.5,2.1,0.2,4.3-0.7,6.7c-0.9,2.3-1.2,4.7-0.9,7.1c0,0.8,0.3,1.4,0.8,2c0.5,0.6,0.8,1.3,0.8,2
		c0,1.7-0.2,3.3-0.6,4.9C330.8,68.3,330.7,70,331.1,71.6z M254.7,115.9c0,0.3,0.3,0.3,1,0.1c0.7-0.2,0.9-0.6,0.6-1
		C255.2,115,254.7,115.3,254.7,115.9z M257.9,86.8c0.3-0.3,0.6-0.5,1-0.7c0.4-0.1,0.6-0.5,0.6-0.9c-0.8-0.3-1.3-0.2-1.7,0.3
		C257.4,86,257.4,86.5,257.9,86.8z M261,36.1c0-0.8-0.3-1.3-1-1.7c-0.7-0.4-1.4-0.3-2.1,0.1c0,0.8,0.3,1.2,1,1.4
		C259.6,36.1,260.3,36.1,261,36.1z M257.7,44.7v1.6h1.6C259.3,45.2,258.8,44.7,257.7,44.7z M259.4,49.7c-0.5,0.5-0.2,0.7,0.8,0.7
		c1,0,1.2-0.2,0.8-0.7c0-0.3-0.2-0.4-0.5-0.2C260.3,49.6,259.9,49.7,259.4,49.7z M265.1,16l-3.2,3.8c0.8,0,1.7-0.5,2.7-1.4
		C265.7,17.6,265.8,16.8,265.1,16z M263.5,28.9c0,0.3,0.1,0.6,0.2,1c0.1,0.4,0.6,0.6,1.4,0.6c0.5-0.5,0.5-0.9,0.1-1.5
		C264.8,28.5,264.3,28.4,263.5,28.9z M265.1,78.8c0.5,0.3,1,0.3,1.6,0.1c0.6-0.2,0.9-0.6,0.9-1c-0.8,0-1.3-0.4-1.6-1.1
		c-0.3-0.8-0.8-1.1-1.6-1.1c-0.5,0.8-0.3,1.4,0.3,1.8C265.4,77.9,265.5,78.4,265.1,78.8z M307.1,148c0-0.8,0.1-1.3,0.3-1.6
		c0.2-0.3,0.3-0.8,0.3-1.6c-0.8-0.3-1.4-0.3-2,0.1c-0.6,0.4-1.5,0.3-2.7-0.1c0.3,0.8,0.4,1.2,0.2,1.5c-0.2,0.2-0.2,0.6-0.2,1
		c0.8,0,1.4,0,2,0.1C305.7,147.5,306.4,147.7,307.1,148z M311.2,136c0.3-0.5,0.4-0.9,0.2-1.2c-0.2-0.4-0.2-0.8-0.2-1.2
		c-1.2,0-1.8,0.5-1.8,1.6c0.5,0,0.8,0.2,0.9,0.5C310.4,135.9,310.7,136,311.2,136z M317.5,152.3h-1.6c0,0.5,0.3,0.8,0.8,0.9
		C317.3,153.3,317.5,153,317.5,152.3z"/>
	<path class="st0" d="M430.1,69.1c-1.7-0.5-3.1-0.5-4.4,0c-1.3,0.5-2.8,0.5-4.4,0c1.2,8.1,2.7,16.3,4.5,24.5
		c1.8,8.2,3.7,16.5,5.5,24.7c1.9,8.3,3.7,16.5,5.5,24.7c1.8,8.2,4.5,24.1,4.5,24.1h-29.1l-7.2-23.5c-1.4-4.4-2.7-8.5-4.1-12.4
		c-1.4-3.9-2.4-7.8-3.2-11.8c0-1.2-0.1-2.1-0.2-2.7c-0.2-0.6-0.1-1.1,0.2-1.4c0-0.5-0.3-0.8-0.8-1c-0.5-0.2-0.8-0.7-0.8-1.5
		c-1.2-6.9-2.5-14.1-3.7-21.4c-1.3-7.3-3-14.4-5.1-21.4h-7.2c0,8.5,0.3,16.2,0.9,23.2c0.6,7,1.1,14.4,1.4,22.1
		c0.5,9.1,0.5,17.7,0.1,26c-0.4,8.3-1.2,16.5-2.4,24.7h-9.7h0.3v-2h-0.3h-0.9h-0.7c-0.6,0.7-0.9,0.8-0.9,1.1
		c-0.2,0.2-0.2,0.5-0.2,0.5v0.4h1.1h-5.7c-1.7,0.2-3.4,0.4-5.2,0.6c-1.8,0.2-3.3,0.1-4.5-0.3c-1.4-0.8-2.2-2-2.6-3.6
		c-0.4-1.7-0.5-3.5-0.5-5.6c0.1-2.1,0.2-4.3,0.5-6.4c0.2-2.2,0.3-4.2,0.1-6c0-1.7-0.5-3.2-1.4-4.7c-0.9-1.5-1.5-2.9-1.8-4.1
		c-0.6-2.4-0.5-5.3,0.3-8.6c0.8-3.3,1.2-6.3,1.2-9c0-6.3-0.2-12-0.5-17.1c-0.3-5-0.5-10.4-0.5-16.2c0-3.2-0.1-6.3-0.2-9.5
		c-0.2-3.2-0.1-6.2,0.2-9c0-0.8,0-1.3-0.1-1.6c-0.1-0.3,0.3-0.8,1-1.6c0-0.5-0.2-0.6-0.7-0.6c-0.5,0.1-0.5-0.3-0.2-1
		c0-7.2,0-15.8,0.1-25.7c0.1-9.9,0.3-19.8,0.8-29.9c7.2,0.2,14.7,0.2,22.4,0c7.7-0.1,15.3-0.3,22.9-0.5c7.6-0.1,15-0.3,22.3-0.5
		c7.2-0.1,14-0.1,20.3,0c-0.8,3.3-0.6,6.3,0.3,8.9c1,2.6,1.7,5.6,2.1,8.9c0.3,3.2,0.3,6.6,0,10.4c-0.3,3.8-0.3,7.2,0,10.4
		c0.1,2.4,0.6,5,1.4,7.8c0.8,2.8,1.2,5.4,1.5,7.9c0.2,2.5,0,4.7-0.7,6.6c-0.7,1.9-2.2,3.1-4.6,3.7c-1.2,0.3-2.4,0.2-3.6-0.2
		C432.5,69.3,431.3,69.1,430.1,69.1z M357.5,22.3c1.2,0.5,2.1,0.5,2.6,0c0.5-0.5,0.8-0.9,0.8-1.5c0-0.5-0.3-0.8-0.8-0.9
		c-0.5-0.1-1.2,0.5-1.9,1.7c-0.3,0-0.6-0.1-0.9-0.2C357,21.3,357.1,21.6,357.5,22.3z M357.7,28.9v0.7c0.3,0,0.6,0.1,1,0.2
		c0.4,0.2,0.6-0.1,0.6-0.9c0-0.5-0.2-0.6-0.6-0.3C358.4,28.8,358,28.9,357.7,28.9z M408.7,41.8c0.5-2.1,0.7-4,0.8-5.7
		c0.1-1.7,0.1-3.5,0.1-5.7c-3.3-0.5-6.7-0.6-10.3-0.3c-3.5,0.2-7.1,0.3-10.7,0.3c-0.5-0.5-0.6-1-0.6-1.6c0.1-0.6-0.3-0.9-1-0.9
		c-0.5,0.8-0.5,1,0,0.7c0.5-0.3,0.7-0.2,0.7,0.2v0.7c-1.7,0.8-3.1,1.1-4.4,1.1c-1.3,0-2.8,0.2-4.4,0.5c0,1.7,0.1,3.4,0.5,5.3
		c0.3,1.9,0.5,3.7,0.5,5.3C389.9,42.4,399.6,42.4,408.7,41.8z"/>
	<path class="st0" d="M474.5,4.1c13.2-0.8,26.4-1.5,39.4-2.3c13-0.8,25.6-1.4,37.8-1.8c-0.2,2.4-0.4,5-0.8,7.8
		c-0.4,2.8-0.7,5.6-0.9,8.4c-0.2,2.8-0.3,5.6-0.2,8.4c0.1,2.8,0.5,5.4,1.2,7.8c-2.1,0.6-4.5,1-7.2,1.1c-2.7,0.2-5.6,0.2-8.6,0.1
		c-3-0.1-6.1-0.2-9.1-0.5c-3.1-0.2-6.1-0.5-8.9-0.8h-27.1c-0.3,5.3-0.2,10.4,0.2,15.3c0.5,5,0.7,10.6,0.7,16.9l54.5,2.3l4.1,32.2
		c0.5,0.8,0.3,1.1-0.6,1.1c-0.8,0-1.2,0.5-1,1.4c0.3,6,0.3,11.7-0.1,17c-0.4,5.3-0.6,10.6-0.6,15.9c0,1.4,0.1,3.6,0.2,6.6
		c0.1,3.1,0.2,6.3,0.2,9.6c0,3.3-0.2,6.4-0.4,9.2c-0.3,2.9-0.9,4.8-1.8,5.9c-0.5,0.4-2,0.8-4.6,1.1c-2.6,0.3-5.6,0.5-8.9,0.7
		c-3.3,0.1-6.5,0.2-9.6,0.2c-3.1,0-5.3-0.1-6.6-0.2c0-0.7-0.3-1.1-0.9-1.1c-0.6,0-1.1,0-1.4,0h-0.9h-0.9v1l0.9,0.2
		c-2-0.3-3.8-0.4-5.3-0.3c-1.5,0.1-3,0.1-4.6,0.1h3v-0.9c0-0.7-0.2-1.4-0.6-2.1c-0.4-0.7-1-1-1.7-1h-0.5l-0.9,1l-1.2,0.7v0.9v0.4
		h1.2h0.8v1.2c-4.2-0.1-8.2-0.2-12-0.2c-3.8,0-7.5,0-11.2,0c-3.7,0-7.4,0-11.3,0.1c-3.8,0.1-7.9,0.1-12.3,0.1c0-5.3,0-10.8,0.1-16.6
		c0.1-5.8,0.3-10.7,0.6-14.8c1.2,0.5,2.6,0.5,4.1,0c1.5-0.5,3.1-0.5,4.7,0c1.2,0,2.1,0.3,2.8,0.8c0.7,0.5,1.6,0.8,2.8,0.8
		c1.7,0.5,3.3,0.5,5,0.2c1.7-0.3,3.5-0.4,5.6-0.2c5.7,0.3,11.7,0.7,18.1,1.1c6.3,0.5,12.3,0.1,18.1-1.1c0-6.5-0.3-12.7-0.9-18.7
		c-0.6-6-1.1-12.6-1.4-19.9c-9.5,0.3-19.2,0-29-0.8c-9.9-0.8-19.5-1.6-29-2.4c0-5.3-0.5-10.6-1.4-16c-0.9-5.4-1-10.5-0.2-15.4
		c0-0.9,0.1-1.7,0.3-2.5c0.2-0.8,0.3-1.3,0.3-1.6c0.1-0.9,0.3-2.7,0.3-5.5c0.1-2.8,0.1-6,0.1-9.6s0-7.4-0.1-11.5
		c-0.1-4.1-0.1-7.9-0.1-11.5c0-3.6,0-6.8-0.1-9.5c-0.1-2.7-0.1-4.6-0.1-5.6c0.1-1.4,0.6-2.2,1.4-2.5c0.8-0.3,1.8-0.4,3.2-0.2
		c1.4,0.2,3.1,0.3,5.3,0.3C468.7,4.9,471.3,4.7,474.5,4.1z M466.5,61.9c0.5,0.3,0.9,0.4,1.5,0.3c0.5-0.1,0.6-0.5,0.1-1.2
		C467,61,466.5,61.3,466.5,61.9z M470.1,72.3c0,0.5-0.2,0.8-0.5,1c-0.3,0.2-0.5,0.7-0.5,1.5c0.8-0.5,1.2-0.6,1.5-0.5
		c0.2,0.2,0.6,0,1-0.5c0-0.3-0.2-0.4-0.5-0.3c-0.3,0.1-0.5,0-0.5-0.3v-0.5C470.7,72.4,470.5,72.3,470.1,72.3z M470.5,76.4
		c-0.5,0.8-0.2,1.1,0.9,1.1c1.1,0,1.6-0.4,1.6-1.1c-0.9-0.3-1.5-0.4-1.7-0.2C471.1,76.3,470.8,76.4,470.5,76.4z M473.7,74.8
		c0.5-0.5,0.8-0.9,1.1-1.4c0.3-0.5,0.5-1.1,0.5-1.8c-0.3-0.8-0.8-0.8-1.5-0.2c-0.7,0.6-1.2,0.9-1.7,0.9c0.5,0.5,0.6,1,0.6,1.6
		C472.6,74.5,472.9,74.8,473.7,74.8z M473.7,68.2V70c0.5,0,1,0,1.7-0.1c0.7-0.1,1.2-0.3,1.5-0.8c-0.8,0-1.3-0.1-1.6-0.5
		C475,68.4,474.5,68.2,473.7,68.2z M476.9,74.8c0,0.6,0.6,0.9,1.8,0.9C478.7,75.1,478.1,74.8,476.9,74.8z M492.2,83.6
		c-0.3,0-0.8,0-1.4,0.1c-0.6,0.1-0.9,0.3-0.9,0.8c0.3,0.3,0.8,0.4,1.4,0.3C491.9,84.8,492.2,84.3,492.2,83.6z M495.4,66
		c-0.3,0-0.7-0.1-1.1-0.3c-0.5-0.2-0.8-0.1-1.1,0.3c-0.5,0.8-0.2,1.1,0.8,1.1C494.9,67.1,495.4,66.7,495.4,66z M495.4,15.1
		c0.6,0,0.9-0.3,0.9-0.9C495.7,13.8,495.4,14.1,495.4,15.1z"/>
	<path class="st0" d="M604.8,96.5l-4.3,0.7c-4.2-0.1-7.6-0.2-10.1-0.2c-2.5,0-4.8,0-7,0.1c-2.2,0.1-4.6,0.2-7.1,0.2
		c-2.6,0.1-6,0.1-10.4,0.1c0-5.3,0-10.8,0.1-16.6c0.1-5.8,0.3-10.7,0.6-14.8c1.2,0.5,2.6,0.5,4.1,0c1.5-0.5,3.1-0.5,4.7,0
		c1.2,0,2.1,0.3,2.8,0.8c0.7,0.5,1.6,0.8,2.8,0.8c1.7,0.5,3.3,0.5,5,0.2c1.7-0.3,3.5-0.4,5.7-0.2c2.9,0.2,6.3,0.2,10.4,0.1
		c4.1-0.1,8.3-0.2,12.7-0.5c4.4-0.2,8.7-0.5,13-0.7s8.1-0.3,11.4-0.3c0,1.5,0.1,3.7,0.3,6.6c0.2,2.9,0.4,5.8,0.6,8.9
		c0.1,3.1,0.1,6-0.2,8.6c-0.3,2.6-0.9,4.5-1.8,5.5c-0.8,0.9-2,1.5-3.6,1.9c-1.7,0.4-3.5,0.6-5.4,0.8c-2,0.2-3.9,0.2-5.9,0.1
		c-2-0.1-3.5-0.2-4.7-0.3c0.1-0.9,0.1-1.4,0-1.6c-0.2-0.1-0.4-0.1-0.8,0c-0.4,0.2-0.9,0.3-1.5,0.6c-0.6,0.2-1.2,0.3-1.8,0.1
		l-0.7,0.5c-1.7-0.3-2.7-0.4-3.2-0.2c-0.5,0.2-1.1,0.2-1.8,0l-0.7-0.2c0.3,0,0.5-0.1,0.7-0.2c0.3-0.3-0.2-0.8-1.6-1.4
		c-0.3-0.8-0.5-0.8-0.7,0C606.2,96.5,605.7,96.8,604.8,96.5z"/>
	<path class="st0" d="M732.8,132c1.2-1.2,3-1.5,5.4-1c2.4,0.5,4.6,0.6,6.6,0.3v31.4c-5.4,0.2-11.5,0.2-18.1,0
		c-6.6-0.1-13.4-0.3-20.2-0.3c-6.9-0.1-13.7-0.1-20.5,0c-6.8,0.1-13,0.4-18.5,1c-1.4-1.4-2.6-2.9-3.7-4.5c-1.1-1.7-2.2-3.3-3.3-5
		c-1.1-1.7-2.2-3.2-3.4-4.7c-1.2-1.5-2.6-2.9-4.3-4.3c0-0.3,0.3-0.5,1-0.7c0.7-0.1,1.2-0.5,1.5-0.9c-0.3-0.3-0.7-0.3-1.1,0.1
		c-0.5,0.4-0.9,0.3-1.4-0.1c0.9-13.7,1.1-27.6,0.7-41.6c-0.5-14-0.7-29.2-0.7-45.4c0-5.7-0.1-11.4-0.2-17
		c-0.2-5.6-0.1-11.2,0.2-16.9c0.5-2.9,0.7-5.8,0.7-8.7c0-2.9,0.6-5.7,1.8-8.2l33.2-1.6c0.8,0,0.9,0.2,0.6,0.7
		c-0.4,0.5-0.6,1.1-0.6,1.8c-0.5,2.4-0.6,5-0.3,7.8c0.2,2.8,0.5,5.5,0.7,8.1c0.2,2.6,0.2,5.1,0,7.5c-0.2,2.3-0.9,4.2-2.1,5.5
		c0.5,4.4,1,9.5,1.6,15.3c0.6,5.8,0.9,11.7,0.9,17.7c-0.2,1.8-0.5,3.7-0.9,5.8c-0.5,2-0.8,4-1.1,5.9c-0.3,1.9-0.4,3.7-0.3,5.5
		c0.1,1.8,0.6,3.4,1.7,4.7c-1.7,6.8-2.6,13.8-2.8,21.1c-0.2,7.3-0.9,14.2-2.1,20.7c7.5,1.5,15.2,2,23.1,1.6
		C714.4,133.1,723.1,132.6,732.8,132z M663.5,11c0-0.3,0-0.6-0.1-0.9c-0.1-0.3-0.3-0.2-0.8,0.2c-0.3,0-0.3,0.1-0.1,0.3
		C662.7,10.9,663.1,11,663.5,11z M674.3,86.3h-1.6v1.6C673.8,87.9,674.3,87.3,674.3,86.3z M673.9,56.2c0.5,0.8,0.5,1.2,0,1.2
		c-0.5,0.1-0.7,0.5-0.7,1.2c1.1-0.5,1.7-0.3,1.9,0.5c0.2,0.8,0.9,1.1,2.1,1.1c0.3-0.5,0.5-1,0.6-1.7c0.1-0.7,0.1-1.2,0.1-1.5
		c-0.8-0.5-1.4-0.6-2-0.5C675.4,56.8,674.7,56.7,673.9,56.2z M680.5,73.6c0.8-2,0.6-3.3-0.5-4.1c-1.1-0.8-2-1.5-2.7-2.3h-0.5
		c-0.3,0-0.5,0.2-0.5,0.7l2.5,2.5c-0.8,0.8-1.6,1.2-2.5,1.2c-0.9,0.1-1.7,0.7-2.5,1.9c1.7,0,3-0.3,4-0.9
		C678.9,72.1,679.7,72.4,680.5,73.6z M678.9,40.9c-0.8,0-1.3,0.3-1.6,0.9c-0.3,0.6-0.9,1.1-1.8,1.6c0.9,0.3,1.7,0.3,2.4-0.1
		C678.6,42.9,678.9,42.1,678.9,40.9z M676.4,91.7c1.1,0,1.6-0.3,1.6-0.9C676.9,90.8,676.4,91.1,676.4,91.7z M680.5,67.5
		c0.8-0.5,0.9-0.8,0.5-1.1c-0.5-0.3-0.9-0.5-1.4-0.5c0.3,0.3,0.5,0.5,0.5,0.7c0,0.2,0.1,0.3,0.2,0.5
		C680.3,67.2,680.3,67.4,680.5,67.5z M680.5,63.5c0.8,0,1.3,0.1,1.7,0.2c0.4,0.2,0.3,0.6-0.1,1.4c0.8,0,1.2-0.1,1.5-0.5
		c0.2-0.3,0.6-0.7,1-1.1c-0.8-0.5-1.5-0.9-2.4-1.2C681.3,61.9,680.8,62.3,680.5,63.5z M683.6,103c-0.3-0.5-0.4-1-0.3-1.6
		c0.1-0.6,0-0.9-0.3-0.9c-0.5,0.5-0.6,1-0.6,1.6C682.5,102.7,682.9,103,683.6,103z"/>
	<path class="st0" d="M844.3,132.3h0.2c0.3,0,0.5,0.2,0.5,0.7l5.7,35.3h-22.6c0,0-3.7-9.6-4.7-14.4c-1.1-4.8-2.4-9.4-4.1-13.8
		c-4.4,0-9.2-0.1-14.6-0.5c-5.3-0.3-10.4-0.5-15.3-0.5c-2.1,4.4-3.5,9-4.2,13.9c-0.7,4.9-1.5,9.8-2.4,14.6c-3.9,0-8,0.2-12.2,0.6
		c-4.2,0.4-8.7,0.2-13.6-0.6l5.7-38.9c0.8,0.8,1.8,0.8,3.2,0c-0.8-0.5-1.4-0.6-1.8-0.5c-0.5,0.2-0.9,0-1.4-0.5
		c1.7-9.6,3.1-19.5,4.2-29.6c1.1-10.1,2.4-20.3,4-30.7l2.5-17.9c0.3-1.7,0.9-3,1.8-4c0.9-1,1.4-2.3,1.4-4c0.8-2.6,1.3-5.2,1.6-7.8
		c0.3-2.6,0.8-5.2,1.6-7.6c1.2-3.6,2.2-7.2,2.9-10.8c0.8-3.6,1.1-7.2,1.1-11.3h6.6c-0.5,0.7-0.8,0.8-0.9,0.7
		c-0.2-0.1-0.5-0.2-0.9-0.2c0,0.8,0.5,1,1.5,0.8c1-0.2,1.8-0.5,2.6-0.8c0.5,0,0.6,0.2,0.5,0.5c-0.2,0.3,0,0.7,0.5,1.1
		c0.3-0.5,0.6-0.8,0.9-0.9c0.3-0.1,0.2-0.4-0.2-1.1h16.3c2.9,0,5-0.3,6.6-0.5c1.5-0.1,2.6,1.2,3.2,4.1l2.3,12
		c0.8,1.7,1.4,3.4,1.9,5.3c0.5,1.9,1,3.7,1.5,5.3c0,0.3-0.2,0.4-0.5,0.3c-0.3-0.1-0.5,0-0.6,0.3v0.9c0.2-0.6-0.1-0.9-0.7-0.9
		c-0.5,0-1.3,0.5-1.3,0.5v0.5v-0.9v0.9c0,0-1,0.1-1.3,0.2c-0.4,0.2-0.6,0.6-0.7,1.4v0.6h1h0.7l-0.7,0.9l1-0.7v0.7
		c-0.8,0.8-1,1.6-1,1.6v0.9l2-0.9v0.5c0,0-0.2,0.5,0.3,0.5c0.9,0,1.4-0.3,1.6-0.9c0.1-0.6,0.2-1.1,0.2-1.6v-0.9h-2.4h0.7
		c0.5-0.2,0.9-0.5,1.2-0.6c0.4-0.1,0.6-0.4,0.6-0.7l1.6,5.4c2.7,9.5,4.9,19.2,6.4,29.2c1.6,9.9,3.4,19.9,5.5,29.8
		c0,1.1-0.2,1.6-0.7,1.6c0.8,1.2,1.4,2.7,1.8,4.5c0.5,1.8,0.9,3.5,1.4,5.2c0.5,3.6,1,7.3,1.6,11.1c0.6,3.8,0.9,7.3,0.9,10.6
		C845.1,131.3,844.3,132.3,844.3,132.3z M791,11l-0.7,1.2h1.6h1.8V11l1,0.9v-1.7h-1V9.5l-0.3,0.8h-0.9h-0.5
		c-0.2,0.1-0.3,0.2-0.5,0.3C791.5,10.7,791.3,10.9,791,11z M796,108.7c2,0.3,4.8,0.4,8.5,0.2c3.7-0.1,6.7-0.2,9.2-0.2
		c-1.2-7.2-2.5-14.4-3.7-21.5c-1.3-7.1-3-13.6-5.1-19.7c-1.7,6.5-3.4,13.1-5.1,20C798,94.4,796.7,101.4,796,108.7z M828.1,153.3h1.8
		h0.7l2.5,1.3l-0.9-2.5c-0.5-0.5-1.2-0.7-2.3-0.8H829h-0.9l-1.3-0.8v0.9c0.2,0.8,0.5,1.2,0.6,1.4C827.5,152.9,827.7,153,828.1,153.3
		z"/>
	<path class="st0" d="M901.5,96.5l-4.3,0.7c-4.2-0.1-7.6-0.2-10.1-0.2c-2.5,0-4.8,0-7,0.1c-2.2,0.1-4.6,0.2-7.1,0.2
		c-2.6,0.1-6,0.1-10.4,0.1c0-5.3,0-10.8,0.1-16.6C862.8,75,863,70,863.3,66c1.2,0.5,2.6,0.5,4.1,0c1.5-0.5,3.1-0.5,4.7,0
		c1.2,0,2.1,0.3,2.8,0.8c0.7,0.5,1.6,0.8,2.8,0.8c1.7,0.5,3.3,0.5,5,0.2c1.7-0.3,3.5-0.4,5.7-0.2c2.9,0.2,6.3,0.2,10.4,0.1
		c4.1-0.1,8.3-0.2,12.7-0.5c4.4-0.2,8.7-0.5,13-0.7s8.1-0.3,11.4-0.3c0,1.5,0.1,3.7,0.3,6.6c0.2,2.9,0.4,5.8,0.6,8.9
		c0.1,3.1,0.1,6-0.2,8.6c-0.3,2.6-0.9,4.5-1.8,5.5c-0.8,0.9-2,1.5-3.6,1.9c-1.7,0.4-3.5,0.6-5.4,0.8c-2,0.2-3.9,0.2-5.9,0.1
		c-2-0.1-3.5-0.2-4.7-0.3c0.1-0.9,0.1-1.4,0-1.6c-0.2-0.1-0.4-0.1-0.8,0c-0.4,0.2-0.9,0.3-1.5,0.6c-0.6,0.2-1.2,0.3-1.8,0.1
		l-0.7,0.5c-1.7-0.3-2.7-0.4-3.2-0.2c-0.5,0.2-1.1,0.2-1.8,0l-0.7-0.2c0.3,0,0.5-0.1,0.7-0.2c0.3-0.3-0.2-0.8-1.6-1.4
		c-0.3-0.8-0.5-0.8-0.7,0C902.9,96.5,902.4,96.8,901.5,96.5z"/>
	<path class="st0" d="M1029.8,132c1.2-1.2,3-1.5,5.4-1c2.4,0.5,4.6,0.6,6.6,0.3v31.4c-5.4,0.2-11.5,0.2-18.1,0
		c-6.6-0.1-13.4-0.3-20.2-0.3c-6.9-0.1-13.7-0.1-20.5,0c-6.8,0.1-13,0.4-18.5,1c-1.4-1.4-2.6-2.9-3.7-4.5c-1.1-1.7-2.2-3.3-3.3-5
		c-1.1-1.7-2.2-3.2-3.4-4.7c-1.2-1.5-2.6-2.9-4.3-4.3c0-0.3,0.3-0.5,1-0.7c0.7-0.1,1.2-0.5,1.5-0.9c-0.3-0.3-0.7-0.3-1.1,0.1
		c-0.5,0.4-0.9,0.3-1.4-0.1c0.9-13.7,1.1-27.6,0.7-41.6c-0.5-14-0.7-29.2-0.7-45.4c0-5.7-0.1-11.4-0.2-17
		c-0.2-5.6-0.1-11.2,0.2-16.9c0.5-2.9,0.7-5.8,0.7-8.7c0-2.9,0.6-5.7,1.8-8.2l33.2-1.6c0.8,0,0.9,0.2,0.6,0.7
		c-0.4,0.5-0.6,1.1-0.6,1.8c-0.5,2.4-0.6,5-0.3,7.8c0.2,2.8,0.5,5.5,0.7,8.1c0.2,2.6,0.2,5.1,0,7.5c-0.2,2.3-0.9,4.2-2.1,5.5
		c0.5,4.4,1,9.5,1.6,15.3c0.6,5.8,0.9,11.7,0.9,17.7c-0.2,1.8-0.5,3.7-0.9,5.8c-0.5,2-0.8,4-1.1,5.9c-0.3,1.9-0.4,3.7-0.3,5.5
		c0.1,1.8,0.6,3.4,1.7,4.7c-1.7,6.8-2.6,13.8-2.8,21.1c-0.2,7.3-0.9,14.2-2.1,20.7c7.5,1.5,15.2,2,23.1,1.6
		C1011.4,133.1,1020.1,132.6,1029.8,132z M960.3,11c0-0.3,0-0.6-0.1-0.9c-0.1-0.3-0.3-0.2-0.8,0.2c-0.3,0-0.3,0.1-0.1,0.3
		C959.5,10.9,959.8,11,960.3,11z M970.3,86.3h-1.6v1.6C969.8,87.9,970.3,87.3,970.3,86.3z M970.7,56.2c0.5,0.8,0.5,1.2,0,1.2
		c-0.5,0.1-0.7,0.5-0.7,1.2c1.1-0.5,1.7-0.3,1.9,0.5c0.2,0.8,0.9,1.1,2.1,1.1c0.3-0.5,0.5-1,0.6-1.7c0.1-0.7,0.1-1.2,0.1-1.5
		c-0.8-0.5-1.4-0.6-2-0.5C972.1,56.8,971.4,56.7,970.7,56.2z M977.2,73.6c0.8-2,0.6-3.3-0.5-4.1c-1.1-0.8-2-1.5-2.7-2.3h-0.5
		c-0.3,0-0.5,0.2-0.5,0.7l2.5,2.5c-0.8,0.8-1.6,1.2-2.5,1.2c-0.9,0.1-1.7,0.7-2.5,1.9c1.7,0,3-0.3,4-0.9
		C975.6,72.1,976.5,72.4,977.2,73.6z M975.6,40.9c-0.8,0-1.3,0.3-1.6,0.9c-0.3,0.6-0.9,1.1-1.8,1.6c0.9,0.3,1.7,0.3,2.4-0.1
		C975.3,42.9,975.6,42.1,975.6,40.9z M973.1,91.7c1.1,0,1.6-0.3,1.6-0.9C973.7,90.8,973.1,91.1,973.1,91.7z M977.2,67.5
		c0.8-0.5,0.9-0.8,0.5-1.1c-0.5-0.3-0.9-0.5-1.4-0.5c0.3,0.3,0.5,0.5,0.5,0.7c0,0.2,0.1,0.3,0.2,0.5C977,67.2,977.1,67.4,977.2,67.5
		z M977.2,63.5c0.8,0,1.3,0.1,1.7,0.2c0.4,0.2,0.3,0.6-0.1,1.4c0.8,0,1.2-0.1,1.5-0.5c0.2-0.3,0.6-0.7,1-1.1
		c-0.8-0.5-1.5-0.9-2.4-1.2C978.1,61.9,977.5,62.3,977.2,63.5z M980.4,103c-0.3-0.5-0.4-1-0.3-1.6c0.1-0.6,0-0.9-0.3-0.9
		c-0.5,0.5-0.6,1-0.6,1.6C979.2,102.7,979.6,103,980.4,103z"/>
	<path class="st0" d="M1129.1,71.6c-0.2,1.2,0,2.3,0.3,3.3c0.4,1,0.8,2.3,1.2,4c0,2.4-0.2,4.9-0.5,7.6c-0.3,2.6-0.5,5.2-0.5,7.8
		c0,4.4,0,8.8,0,13.3s-0.2,9.4-0.7,14.7c-0.3,3.3-0.5,6.3-0.7,8.8c-0.2,2.6,0.1,5.3,0.7,8.1c0,0.5,0.1,1,0.3,1.7
		c0.2,0.7,0.3,1.2,0.3,1.7c0,1.2-0.3,2.4-0.8,3.6c-0.5,1.2-0.8,2.4-0.8,3.6c-0.3,2.9-0.2,5.8,0.5,8.8c0.6,3,0.8,6,0.5,8.8
		c-1.2,0.3-2,0.2-2.4-0.2c-0.4-0.5-0.9-0.7-1.7-0.7c-4.1,0-7.8-0.4-11.1-1.1c-3.3-0.8-6.6-1.1-9.9-1.1c-2.9,0.3-5.8,0.7-8.8,1.1
		c-3,0.5-6,0.3-8.8-0.5c-0.3-0.1-0.5-0.5-0.5-1.1c0-0.6-0.1-1.2-0.2-1.9c-0.2-0.7-0.3-1.4-0.6-2c-0.2-0.7-0.6-1.1-1.2-1.2
		c0.8-0.5,1-1.3,0.8-2.6c-0.2-1.3-0.5-2.3-0.8-3.1c0.8-1.2,0.9-2.6,0.6-4.2c-0.4-1.6-0.6-3.4-0.6-5.5c0-1.2,0.1-2.2,0.3-3.1
		c0.2-0.8,0.3-1.4,0.3-1.7c-0.3-1.2-0.8-1.8-1.4-1.9c-0.6-0.1-0.9-0.6-0.9-1.5c3.2-0.8,6.2-1.1,9.3-0.9c3,0.2,5.6,0.2,7.7,0.2
		c0.8-1.2,1-2.4,0.8-3.7c-0.2-1.3,0-1.9,0.8-1.9c-0.8-4.8-1-10.4-0.8-16.8c0.2-6.4,0.2-12.6-0.1-18.6c-0.5-9.9-0.9-19.5-1.4-28.8
		c-0.5-9.3-0.5-18.2-0.2-26.8c-2.6-0.8-4.7-1.2-6.6-1.2c-1.8-0.1-3.6,0-5.3,0.1c-1.7,0.2-3.5,0.4-5.4,0.7c-1.9,0.3-4.2,0.5-6.9,0.5
		c-0.3,8.4-0.3,16.7,0.1,24.9c0.4,8.1,0.8,16.2,1.2,24.1c0.5,7.9,0.8,15.7,1,23.5c0.2,7.8,0,15.6-0.8,23.4c0.5,0.6,1.1,1,1.8,1.2
		c0.8,0.2,1.5,0.5,2.3,0.7c0.8,0.2,1.4,0.6,2,1c0.6,0.5,1,1.1,1.1,2c-0.3,0-0.8-0.1-1.4-0.3c-0.6-0.2-0.9-0.1-0.9,0.3
		c0.3,2.4,0.6,5,1,7.9c0.4,2.9,0.3,6.1-0.3,9.7c0,0.5-0.1,1.1-0.3,1.8c-0.2,0.8-0.3,1.5-0.3,2.3c0,0.8,0.4,1.5,1.1,2.4
		c0.8,0.8,1.1,1.6,1.1,2.4c-5.7,0.8-11.8,0.9-18.1,0.6c-6.3-0.4-12.1-0.6-17.4-0.6c-1.7-16-2.7-31.8-3.1-47.5
		c-0.4-15.7-0.7-31.3-1-46.8c-0.2-6.5,0.3-13.1,1.5-19.8c1.1-6.7,1.5-13.3,1-19.8c-0.3-4.4-0.8-8.5-1.6-12.3
		c-0.8-3.8-0.8-7.8,0-11.9c10.1,0,20.8,0,32.1-0.1c11.3-0.1,22.1-0.3,32.5-0.6c3.2-0.5,6.3-0.6,9.5-0.3s6.2,1.2,9,2.8
		c0.6,2.4,0.8,4.9,0.7,7.3c-0.2,2.5-0.4,5-0.7,7.5c-0.3,2.5-0.5,5-0.7,7.5c-0.2,2.5,0.1,4.9,0.7,7.3c0,0.9,0.3,1.8,0.9,2.6
		c0.6,0.8,1.1,1.8,1.4,3.1c0.5,2.1,0.2,4.3-0.7,6.7c-0.9,2.3-1.2,4.7-0.9,7.1c0,0.8,0.3,1.4,0.8,2c0.5,0.6,0.8,1.3,0.8,2
		c0,1.7-0.2,3.3-0.6,4.9C1128.8,68.3,1128.7,70,1129.1,71.6z M1052.9,115.9c0,0.3,0.3,0.3,1,0.1c0.7-0.2,0.9-0.6,0.6-1
		C1053.4,115,1052.9,115.3,1052.9,115.9z M1056.1,86.8c0.3-0.3,0.6-0.5,1-0.7c0.4-0.1,0.6-0.5,0.6-0.9c-0.8-0.3-1.3-0.2-1.7,0.3
		C1055.6,86,1055.6,86.5,1056.1,86.8z M1059.2,36.1c0-0.8-0.3-1.3-1-1.7c-0.7-0.4-1.4-0.3-2.1,0.1c0,0.8,0.3,1.2,1,1.4
		C1057.8,36.1,1058.5,36.1,1059.2,36.1z M1055.7,44.7v1.6h1.6C1057.3,45.2,1056.8,44.7,1055.7,44.7z M1057.7,49.7
		c-0.5,0.5-0.2,0.7,0.8,0.7c1,0,1.2-0.2,0.8-0.7c0-0.3-0.2-0.4-0.5-0.2C1058.5,49.6,1058.1,49.7,1057.7,49.7z M1063.3,16l-3.2,3.8
		c0.8,0,1.7-0.5,2.7-1.4C1063.9,17.6,1064.1,16.8,1063.3,16z M1061.7,28.9c0,0.3,0.1,0.6,0.2,1c0.1,0.4,0.6,0.6,1.4,0.6
		c0.5-0.5,0.5-0.9,0.1-1.5C1063.1,28.5,1062.5,28.4,1061.7,28.9z M1063.3,78.8c0.5,0.3,1,0.3,1.6,0.1c0.6-0.2,0.9-0.6,0.9-1
		c-0.8,0-1.3-0.4-1.6-1.1c-0.3-0.8-0.8-1.1-1.6-1.1c-0.5,0.8-0.3,1.4,0.3,1.8C1063.7,77.9,1063.8,78.4,1063.3,78.8z M1105.4,148
		c0-0.8,0.1-1.3,0.3-1.6c0.2-0.3,0.3-0.8,0.3-1.6c-0.8-0.3-1.4-0.3-2,0.1c-0.6,0.4-1.5,0.3-2.7-0.1c0.3,0.8,0.4,1.2,0.2,1.5
		c-0.2,0.2-0.2,0.6-0.2,1c0.8,0,1.4,0,2,0.1C1103.9,147.5,1104.6,147.7,1105.4,148z M1109.4,136c0.3-0.5,0.4-0.9,0.2-1.2
		c-0.2-0.4-0.2-0.8-0.2-1.2c-1.2,0-1.8,0.5-1.8,1.6c0.5,0,0.8,0.2,0.9,0.5C1108.7,135.9,1109,136,1109.4,136z M1115.7,152.3h-1.6
		c0,0.5,0.3,0.8,0.8,0.9C1115.5,153.3,1115.7,153,1115.7,152.3z"/>
	<path class="st0" d="M1205.7,142.6l1.8,24.9c-11.3-0.9-22.1-1.1-32.4-0.5c-10.3,0.6-20.5,0.8-30.6,0.5c0-5.3,0.1-10.6,0.2-15.9
		c0.1-5.3,0.6-10.2,1.4-14.6c1.7-0.5,3.4-0.5,5.3-0.1c1.9,0.4,3.7,0.4,5.3,0.1c0.3-5.3,0.6-10.1,1-14.6c0.4-4.4,0.6-9.3,0.6-14.6
		c0.3-0.8,0.8-0.8,1.5-0.2c0.7,0.6,1.2,0.7,1.7,0.2c0-0.6-0.2-1-0.5-1.1c-0.3-0.1-0.7-0.3-1.1-0.3c-0.5-0.1-0.8-0.1-1.1-0.2
		c-0.3-0.1-0.5-0.3-0.5-0.8c0.3-6.8,0.5-13.8,0.6-21c0.1-7.2,0.1-14.7,0.1-22.4c0-0.6,0.5-0.9,1.6-0.9c0-0.8-0.3-1.1-0.8-1
		c-0.5,0.1-0.8-0.1-0.8-0.6c0-1.2,0-2.3,0.1-3.4c0.1-1.1,0.3-1.8,0.8-2.3c-0.8-2.1-0.9-4.5-0.6-7.2c0.4-2.7,0.6-5.7,0.6-8.8
		c-1.7-0.3-4-0.3-7,0c-3,0.3-5.5,0.3-7.5,0l1.6-29.8c6.5-0.5,13.8-0.5,21.9-0.1c8.1,0.4,15.9,0.1,23.3-0.8c2.9-0.3,5.5-0.6,7.8-1
		c2.3-0.4,7.8-0.6,7.8-0.6v31.9h-19c-0.3,15.9-0.6,31.9-1,48.2c-0.4,16.3-0.6,33.2-0.6,50.5c3.3,0.5,6.5,0.6,9.6,0.3
		c3.1-0.2,9-0.3,9-0.3v5.3h-1.6h-0.4v0.4c-0.3,0.8-0.2,1.2,0,1.5c0.2,0.2,0.3,1.1,0.3,1.1h0.6v-1h0.5
		C1205.5,143.3,1205.7,143,1205.7,142.6z M1165.5,27.3c0.3,0.3,0.6,0.4,1,0.3c0.4-0.1,0.6-0.5,0.6-1.2c0,0.5-0.3,0.6-0.8,0.5
		C1165.7,26.7,1165.5,26.9,1165.5,27.3z M1174.3,14.3h-1.6c0,0.9,0.4,1.4,1.1,1.4C1174.6,15.6,1174.7,15.2,1174.3,14.3z
		 M1175.2,45.8l-2.5-1.8c0,1.7,0.3,2.7,0.9,3.2c0.6,0.5,1.1,1.1,1.6,1.8c0.3,0,0.5-0.2,0.7-0.6c0.1-0.4,0.5-0.7,0.9-1
		c-0.8,0-1.2-0.2-1.4-0.6C1175.3,46.5,1175.2,46.1,1175.2,45.8z M1175.2,91.7c0.8,0.3,1.2,0.2,1.4-0.3c0.1-0.5,0.2-0.9,0.2-1.2
		c-0.8,0-1.2,0.2-1.4,0.5C1175.3,90.9,1175.2,91.3,1175.2,91.7z M1180.8,51.5c0.3,0.3,0.6,0.3,1,0.1c0.4-0.2,0.6-0.6,0.6-1
		c-0.8-0.5-1.2-0.5-1.4-0.2C1180.9,50.7,1180.8,51,1180.8,51.5z M1182.7,54.7v-1.6c-0.5,0-0.8,0.1-0.9,0.3c-0.2,0.2-0.4,0.3-0.7,0.3
		C1181.1,54.4,1181.7,54.7,1182.7,54.7z M1183.1,29.6c0.5,0.5,1,0.6,1.6,0.6c0.6-0.1,0.9-0.5,0.9-1.2c-0.3-0.5-0.8-0.5-1.5-0.2
		C1183.4,29,1183.1,29.3,1183.1,29.6z M1186.5,155.5c1.1,0,1.6-0.3,1.6-0.9l-0.9-0.9c0,0.5-0.1,0.8-0.3,0.9
		C1186.6,154.7,1186.5,155,1186.5,155.5z M1193.3,16.3h-1.6v0.9c0-0.5,0.3-0.6,0.8-0.5C1193,16.9,1193.3,16.7,1193.3,16.3z
		 M1193.7,157.7c0.3-0.3,0.6-0.6,1-0.8c0.4-0.2,0.6-0.7,0.6-1.5c-0.8,0-1.3,0.3-1.7,0.9C1193.2,157,1193.3,157.4,1193.7,157.7z"/>
	<path class="st0" d="M67.8,206.3h0.9v-3c3.6,0,7.2,0,10.9-0.1c3.7-0.1,11.1-0.8,11.1-0.8v32.3v42c-3.3,0.5-7.6,0.7-12.1,0.8
		c-4.5,0.1-9.1,0-13.7-0.1c-4.6-0.1-9.2-0.3-13.7-0.5c-4.5-0.1-8.7-0.2-12.4-0.2c-1.1,5.3-1.6,10.6-1.6,16s0.1,10.9,0.5,16.4
		c0.3,5.5,0.6,11.1,0.8,16.7c0.2,5.6,0,11.3-0.6,16.8c-0.3,3.2-0.6,6.3-0.9,9.3c-0.3,3-0.2,6.3,0.2,9.9c-2.4,0-5.1,0-8.1-0.1
		c-3-0.1-6.1-0.1-9.4-0.1c-3.2,0-6.5,0.1-9.7,0.2c-3.2,0.2-6.3,0.5-9.3,0.9V350c0.2-2.1,0-4.3-0.3-6.6c-0.3-2.3-0.5-4.7-0.5-7.2
		c0-0.8,0.1-1.8,0.5-3.3c0.3-1.4,0.5-2.7,0.5-4c0.5-1.7,0.7-3.3,0.8-4.9c0.1-1.6,0.1-3.2,0.1-4.9c0.5,0.6,1,0.9,1.6,0.9
		c0.8,0,1.3-0.1,1.7-0.2c0.4-0.1,0.6-0.6,0.6-1.6H5c0-0.3-1.6-1-1.6-1H1.8c0,0,0.1-18.8-0.7-28.7c-0.8-9.9-0.5-19.8,0.7-29.7
		c-1.2-4.1-1.5-8.6-0.8-13.7c0.7-5,1.2-10.4,1.5-16.2c0.3-4.5,0.3-8.9,0.1-13.2c-0.2-4.3-0.5-8.5-0.8-12.5c3.6,0,7.6,0,12-0.1
		c4.4-0.1,9-0.3,13.8-0.8c0.5,0,0.7,0.2,0.2,0.5v0.5c0.2,0,0,0.2-0.2,0.6c-0.2,0.4-0.5,0.7-0.9,1c-0.2,0.2-0.2,0.3,0,0.5
		c0,0.6,0.3,1,0.9,1h0.7h0.5c0.3,0.2,0.5-0.1,0.5-0.5c0.3,0,0.4-0.2,0.2-0.6c-0.2-0.4-0.7-1-0.7-1v-0.9c0,0,3.7-0.7,5.3-0.8
		c1.6-0.1,3.4-0.1,5.5-0.2h9.7c0.8,0.1,1.4,0.3,2,0.7c0.6,0.4,1.3,0.8,2,1.2c1.7,0,3.4,0,5.2-0.1c1.8-0.1,3.5-0.3,5.2-0.8v0.9
		c-0.5,0.5-0.7,1-0.7,1.6l0.7,0.7l0.9-1.2h0.7h0.9C67.3,205.8,67.8,206,67.8,206.3z M7.2,341.8c1.2,0,1.8-0.2,1.8-0.7
		c-0.9,0-1.4,0-1.6,0.1C7.3,341.3,7.2,341.5,7.2,341.8z M9.7,254.1c0.8-0.5,1.4-0.8,1.8-1.1c0.5-0.3,0.7-1.1,0.7-2.3
		c-1.2,0-1.9,0.4-2.1,1.1C9.8,252.6,9.7,253.4,9.7,254.1z M21,284c1.2,0.3,2,0,2.5-0.9c0.5-0.9,0.7-1.7,0.7-2.5
		c-1.2,0-1.8,0.3-1.9,1C22.2,282.3,21.8,283.1,21,284z M21,308.8c0.8,0,1.2-0.2,1.4-0.6c0.1-0.4,0.2-1,0.2-1.9
		C21.5,306.3,21,307.2,21,308.8z M21,312c0.5,0,0.8-0.3,1-0.8c0.2-0.5,0.2-0.8-0.1-0.8c0,0.5-0.2,0.8-0.5,0.9
		C21.2,311.5,21,311.7,21,312z M22.6,308.8c0.8,0,1.2-0.1,1.4-0.5c0.1-0.3,0.2-0.7,0.2-1.1c-0.3,0-0.5,0.2-0.7,0.6
		C23.4,308.2,23.1,308.5,22.6,308.8z M24.2,274.9c0.5,0.5,0.8,0.5,1.1,0.2c0.3-0.3,0.2-0.6-0.2-0.9
		C24.5,274.2,24.2,274.5,24.2,274.9z M33.2,268.6c0.3,0,0.7-0.2,1.1-0.6c0.5-0.4,0.8-0.7,1.1-1c-0.3,0-0.7,0-1.2-0.1
		c-0.5-0.1-0.6-0.3-0.3-0.8c-0.3,0-0.5,0-0.7,0.1c-0.2,0.1-0.5,0.3-0.9,0.8C32.9,267,33.2,267.5,33.2,268.6z M58.3,244.4
		c0.5-2.1,0.7-4.3,0.8-6.6c0.1-2.3,0.1-4.7,0.1-7.2c-3.6-0.3-7.5-0.5-11.6-0.7c-4.1-0.1-8.1,0.4-11.9,1.6v10.4
		c3.8,0.8,7.7,1.4,11.8,2C51.5,244.6,55.2,244.7,58.3,244.4z M39.5,250.1c0.5,0.3,1,0.4,1.6,0.3c0.6-0.1,0.9-0.5,0.9-1.2
		C40.4,249.2,39.5,249.5,39.5,250.1z M43.8,262c0.5,0,0.9,0.1,1.2,0.3c0.4,0.2,0.8,0.1,1.2-0.3c0-0.3-0.3-0.4-0.8-0.3
		c-0.5,0.1-0.8,0-0.8-0.3v-0.9C44.1,261.1,43.8,261.6,43.8,262z M43.6,264.5c0,0.5,0.5,0.8,1.5,0.9c1,0.2,1.3-0.1,1-0.9
		c-0.5-0.5-0.8-0.6-1-0.3C44.9,264.4,44.4,264.5,43.6,264.5z M47.7,262c1.1,0,1.6-0.8,1.6-2.3c-0.8-0.9-1.5-1.1-2.3-0.6
		c-0.8,0.5-1.4,0.9-1.8,1.2c0.8,0,1.2,0.4,1.2,1.1C46.5,262.3,46.9,262.5,47.7,262z M47.7,256.4v0.9c0,0.3,0.4,0.5,1.2,0.5
		c0.8,0,1.2-0.1,1.2-0.5c-0.5,0-0.8-0.1-1-0.5C49,256.5,48.5,256.4,47.7,256.4z M50.8,262.9c-0.5,0.5-0.2,0.7,0.9,0.7
		C51.8,263.2,51.5,262.9,50.8,262.9z M63.7,272.7c0,0.3,0.4,0.3,1.1,0.1c0.8-0.2,0.9-0.6,0.5-1c-0.2-0.1-0.5-0.2-0.9-0.2
		C64,271.5,63.7,271.9,63.7,272.7z M66.2,254.1c0,0.3,0.4,0.5,1.2,0.5c0.8,0,1.2-0.1,1.2-0.5c-0.5,0-0.8-0.1-0.9-0.2
		c-0.3,0-0.6,0-0.8-0.1C66.8,253.7,66.5,253.8,66.2,254.1z"/>
	<path class="st0" d="M188.1,267c-0.2,1.2,0,2.3,0.3,3.3c0.4,1,0.8,2.3,1.2,4c0,2.4-0.2,4.9-0.5,7.6c-0.3,2.6-0.5,5.2-0.5,7.8
		c0,4.4,0,8.8,0,13.3c0,4.5-0.2,9.4-0.7,14.7c-0.3,3.3-0.5,6.3-0.7,8.8c-0.2,2.6,0.1,5.3,0.7,8.1c0,0.5,0.1,1,0.3,1.7
		c0.2,0.7,0.3,1.2,0.3,1.7c0,1.2-0.3,2.4-0.8,3.6c-0.5,1.2-0.8,2.4-0.8,3.6c-0.3,2.9-0.2,5.8,0.5,8.8c0.6,3,0.8,6,0.5,8.8
		c-1.2,0.3-2,0.2-2.4-0.2c-0.4-0.5-0.9-0.7-1.7-0.7c-4.1,0-7.8-0.4-11.1-1.1c-3.3-0.8-6.6-1.1-9.9-1.1c-2.9,0.3-5.8,0.7-8.8,1.1
		c-3,0.5-6,0.3-8.8-0.5c-0.3-0.1-0.5-0.5-0.5-1.1c0-0.6-0.1-1.2-0.2-1.9c-0.2-0.7-0.3-1.4-0.6-2c-0.2-0.7-0.6-1.1-1.2-1.2
		c0.8-0.5,1-1.3,0.8-2.6c-0.2-1.3-0.5-2.3-0.8-3.1c0.8-1.2,0.9-2.6,0.6-4.2c-0.4-1.6-0.6-3.4-0.6-5.5c0-1.2,0.1-2.2,0.3-3.1
		c0.2-0.8,0.3-1.4,0.3-1.7c-0.3-1.2-0.8-1.8-1.4-1.9c-0.6-0.1-0.9-0.6-0.9-1.5c3.2-0.8,6.2-1.1,9.3-0.9c3,0.2,5.6,0.2,7.7,0.2
		c0.8-1.2,1-2.4,0.8-3.7c-0.2-1.3,0-1.9,0.8-1.9c-0.8-4.8-1-10.4-0.8-16.8c0.2-6.4,0.2-12.6-0.1-18.6c-0.5-9.9-0.9-19.5-1.4-28.8
		c-0.5-9.3-0.5-18.2-0.2-26.8c-2.6-0.8-4.7-1.2-6.6-1.2c-1.8-0.1-3.6,0-5.3,0.1c-1.7,0.2-3.5,0.4-5.4,0.7c-1.9,0.3-4.2,0.5-6.9,0.5
		c-0.3,8.4-0.3,16.7,0.1,24.9c0.4,8.1,0.8,16.2,1.2,24.1c0.5,7.9,0.8,15.7,1,23.5c0.2,7.8,0,15.6-0.8,23.4c0.5,0.6,1.1,1,1.8,1.2
		c0.8,0.2,1.5,0.5,2.3,0.7c0.8,0.2,1.4,0.6,2,1c0.6,0.5,1,1.1,1.1,2c-0.3,0-0.8-0.1-1.4-0.3c-0.6-0.2-0.9-0.1-0.9,0.3
		c0.3,2.4,0.6,5,1,7.9c0.4,2.9,0.3,6.1-0.3,9.7c0,0.5-0.1,1.1-0.3,1.8c-0.2,0.8-0.3,1.5-0.3,2.3c0,0.8,0.4,1.5,1.1,2.4
		c0.8,0.8,1.1,1.6,1.1,2.4c-5.7,0.8-11.8,0.9-18.1,0.6c-6.3-0.4-12.1-0.6-17.4-0.6c-1.7-16-2.7-31.8-3.1-47.5
		c-0.4-15.7-0.7-31.3-1-46.8c-0.2-6.5,0.3-13.1,1.5-19.8c1.1-6.7,1.5-13.3,1-19.8c-0.3-4.4-0.8-8.5-1.6-12.3
		c-0.8-3.8-0.8-7.8,0-11.9c10.1,0,20.8,0,32.1-0.1c11.3-0.1,22.1-0.3,32.5-0.6c3.2-0.5,6.3-0.6,9.5-0.3c3.2,0.2,6.2,1.2,9,2.8
		c0.6,2.4,0.8,4.9,0.7,7.3c-0.2,2.5-0.4,5-0.7,7.5c-0.3,2.5-0.5,5-0.7,7.5c-0.2,2.5,0.1,4.9,0.7,7.3c0,0.9,0.3,1.8,0.9,2.6
		c0.6,0.8,1.1,1.8,1.4,3.1c0.5,2.1,0.2,4.3-0.7,6.7c-0.9,2.3-1.2,4.7-0.9,7.1c0,0.8,0.3,1.4,0.8,2c0.5,0.6,0.8,1.3,0.8,2
		c0,1.7-0.2,3.3-0.6,4.9C187.8,263.7,187.7,265.4,188.1,267z M111,311.3c0,0.3,0.3,0.3,1,0.1c0.7-0.2,0.9-0.6,0.6-1
		C111.5,310.4,111,310.7,111,311.3z M114.1,282.2c0.3-0.3,0.6-0.5,1-0.7c0.4-0.1,0.6-0.5,0.6-0.9c-0.8-0.3-1.3-0.2-1.7,0.3
		C113.6,281.4,113.7,281.9,114.1,282.2z M117.3,231.5c0-0.8-0.3-1.3-1-1.7c-0.7-0.4-1.4-0.3-2.1,0.1c0,0.8,0.3,1.2,1,1.4
		C115.8,231.5,116.5,231.5,117.3,231.5z M113.7,240.7v1.6h1.6C115.3,241.2,114.8,240.7,113.7,240.7z M115.7,245.1
		c-0.5,0.5-0.2,0.7,0.8,0.7c1,0,1.2-0.2,0.8-0.7c0-0.3-0.2-0.4-0.5-0.2C116.5,245,116.2,245.1,115.7,245.1z M121.4,211.4l-3.2,3.8
		c0.8,0,1.7-0.5,2.7-1.4C122,213,122.1,212.2,121.4,211.4z M119.8,224.3c0,0.3,0.1,0.6,0.2,1c0.1,0.4,0.6,0.6,1.4,0.6
		c0.5-0.5,0.5-0.9,0.1-1.5C121.1,223.9,120.5,223.8,119.8,224.3z M121.4,274.2c0.5,0.3,1,0.3,1.6,0.1c0.6-0.2,0.9-0.6,0.9-1
		c-0.8,0-1.3-0.4-1.6-1.1c-0.3-0.8-0.8-1.1-1.6-1.1c-0.5,0.8-0.3,1.4,0.3,1.8C121.7,273.3,121.8,273.8,121.4,274.2z M163.4,343.4
		c0-0.8,0.1-1.3,0.3-1.6c0.2-0.3,0.3-0.8,0.3-1.6c-0.8-0.3-1.4-0.3-2,0.1c-0.6,0.4-1.5,0.3-2.7-0.1c0.3,0.8,0.4,1.2,0.2,1.5
		c-0.2,0.2-0.2,0.6-0.2,1c0.8,0,1.4,0,2,0.1C162,342.9,162.6,343.1,163.4,343.4z M167.5,331.4c0.3-0.5,0.4-0.9,0.2-1.2
		c-0.2-0.4-0.2-0.8-0.2-1.2c-1.2,0-1.8,0.5-1.8,1.6c0.5,0,0.8,0.2,0.9,0.5C166.7,331.3,167,331.4,167.5,331.4z M173.8,347.3h-1.6
		c0,0.5,0.3,0.8,0.8,0.9C173.5,348.3,173.8,348,173.8,347.3z"/>
	<path class="st0" d="M295.8,273.3c0,8.6,0.1,16.9,0.3,24.9c0.2,8,0.3,16.7,0.3,26c0,3.2,0.1,6.1,0.3,8.8c0.2,2.7,0.1,5.1-0.3,7.2
		c-0.8,2.1-2,3.9-3.7,5.3c-1.7,1.4-3.4,3.2-5.1,5.3c-0.6,0.8-1.2,1.7-1.8,2.9c-0.6,1.2-1.2,2.4-1.9,3.5c-0.7,1.1-1.4,2.1-2,3.1
		c-0.7,0.9-1.5,1.4-2.4,1.6c-1.2,0.5-3,0.3-5.3-0.5c-2.3-0.8-6.7-1.2-6.7-1.2h-29c-1.9,0-4.1,0.1-6.6,0.4c-2.4,0.2-4.5,0.1-6.1-0.4
		c-0.7,0-1.2-0.1-1.4-0.2c-0.2-0.2-0.5-0.6-0.8-1.4v1c0-1.3-0.4-2.2-1.1-2.7c-0.7-0.6-1.5-1.1-2.2-1.5h-0.7v1.9v0.9
		c0.4,0.5,0.5,0.7,0.6,0.2h0.4v1.4c0.5,0,0.9,0.2,1.2,0.5c0.1,0.2,0.3,0.2,0.5,0.2h0.9l0.9-0.6c-0.5,0.3-0.9,0.6-1.5,1
		c-0.5,0.4-1.2,0.6-1.9,0.6c-0.8,0-1.4-0.3-2-1c-0.6-0.7-1.2-1.5-1.8-2.5c-0.6-1-1.2-2-1.7-2.9c-0.5-1-1.1-1.8-1.7-2.4
		c-0.6-1.2-1.4-2.3-2.3-3.3c-0.9-1-1.8-1.9-2.7-2.8c-0.9-0.9-1.7-1.8-2.5-2.8c-0.8-1-1.2-2.1-1.4-3.3c-0.8-1.2-1-2.7-0.7-4.5
		c0.3-1.8,0.5-3.8,0.7-5.9c0.3-9.5,0.1-19.6-0.5-30.4c-0.6-10.8-0.8-21.6-0.5-32.4c0.3-9.9,0.4-19.8,0.3-29.6
		c-0.1-9.8,0.1-20.3,0.6-31.6l33.9,2.3c0.1,6.5,0.1,12.9-0.2,19.3c-0.3,6.4-0.6,12.8-0.9,19.2c-0.3,6.4-0.5,12.7-0.6,19
		c-0.1,6.3,0.2,12.4,0.8,18.4c1.1,1.5,1.6,3.4,1.6,5.7c0,1.7-0.2,3.2-0.5,4.7c-0.3,1.5-0.7,3.1-1.1,4.7c-0.3,4.8-0.6,9.8-1,15
		c-0.4,5.2-0.6,10.4-0.6,15.7c1.8,0.5,4,0.7,6.4,0.8c2.5,0.1,5,0,7.7-0.1c2.6-0.1,5.2-0.3,7.8-0.5c2.6-0.1,4.9-0.2,7-0.2
		c-0.6-9.6-1.2-19.7-1.7-30.1c-0.5-10.4-0.9-20.8-1.1-31.3c-0.2-10.5-0.3-20.8-0.3-31.1c0-10.2,0.2-20,0.7-29.4
		c5.3-1.2,10.5-1.9,15.8-2.1c5.3-0.2,10.8-0.6,16.5-1c0.8,10.1,1.1,21,1,32.7C295.9,249.2,295.8,261.1,295.8,273.3z M207.9,294.4
		c0.5,0,0.6-0.3,0.6-0.8c-0.1-0.5,0.3-0.8,1-0.8c0-0.6-0.5-0.9-1.6-0.9c0.5,0.5,0.6,0.9,0.3,1.2C208,293.5,207.9,293.9,207.9,294.4z
		 M209.7,312.9V312c0-0.3-0.2-0.6-0.5-0.8c-0.3-0.2-0.7,0-1.1,0.8c0.5,0,0.8,0.2,0.9,0.5C209.2,312.7,209.4,312.9,209.7,312.9z
		 M209.4,289.3h-0.7v1.6c0.3,0,0.5-0.1,0.6-0.2C209.4,290.5,209.4,290,209.4,289.3z M227.4,273.3c-0.5,0-0.8,0.1-0.9,0.3
		c-0.2,0.2-0.4,0.1-0.7-0.3c0,0.8,0.3,1.1,1,1.1C227.5,274.5,227.7,274.1,227.4,273.3z M228,308.1c0.5,0,0.8-0.2,0.9-0.6
		c0.1-0.4,0.5-0.8,0.9-1.2c-0.9,0-1.4-0.1-1.6-0.5c-0.2-0.3-0.2-0.7-0.2-1.1l-2.3-1.6c0,1.7,0.3,2.7,0.9,3.1
		C227.3,306.6,227.7,307.2,228,308.1z"/>
	<path class="st0" d="M394.8,264.5c-1.7-0.5-3.1-0.5-4.4,0c-1.3,0.5-2.8,0.5-4.4,0c1.2,8.1,2.7,16.3,4.5,24.5
		c1.8,8.2,3.7,16.5,5.5,24.7c1.9,8.3,3.7,16.5,5.5,24.7c1.8,8.2,4.5,24.7,4.5,24.7H377l-7.2-23.5c-1.4-4.4-2.7-8.5-4.1-12.4
		c-1.4-3.9-2.4-7.8-3.2-11.8c0-1.2-0.1-2.1-0.2-2.7c-0.2-0.6-0.1-1.1,0.2-1.4c0-0.5-0.3-0.8-0.8-1c-0.5-0.2-0.8-0.7-0.8-1.5
		c-1.2-6.9-2.5-14.1-3.7-21.4c-1.3-7.3-3-14.4-5.1-21.4h-7.2c0,8.5,0.3,16.2,0.9,23.2c0.6,7,1.1,14.4,1.4,22.1
		c0.5,9.1,0.5,17.7,0.1,26c-0.4,8.3-1.2,16.5-2.4,24.7h-9.7h0.6v-2h-0.6h-0.9h-0.7c-0.6,0.1-0.9,0.2-0.9,0.5
		c-0.2,0.2,0.1,0.5,0.1,0.5v1h0.8h-5.7c-1.7-0.4-3.4-0.2-5.2,0c-1.8,0.2-3.3,0.1-4.5-0.3c-1.4-0.8-2.2-2-2.6-3.6
		c-0.4-1.7-0.5-3.5-0.5-5.6c0.1-2.1,0.2-4.3,0.5-6.4c0.2-2.2,0.3-4.2,0.1-6c0-1.7-0.5-3.2-1.4-4.7c-0.9-1.5-1.5-2.9-1.8-4.1
		c-0.6-2.4-0.5-5.3,0.3-8.6c0.8-3.3,1.2-6.3,1.2-9c0-6.3-0.2-12-0.5-17.1c-0.3-5-0.5-10.4-0.5-16.2c0-3.2-0.1-6.3-0.2-9.5
		c-0.2-3.2-0.1-6.2,0.2-9c0-0.8,0-1.3-0.1-1.6c-0.1-0.3,0.3-0.8,1-1.6c0-0.5-0.2-0.6-0.7-0.6c-0.5,0.1-0.5-0.3-0.2-1
		c0-7.2,0-15.8,0.1-25.7c0.1-9.9,0.3-19.8,0.8-29.9c7.2,0.2,14.7,0.2,22.4,0c7.7-0.1,15.3-0.3,22.9-0.5c7.6-0.1,15-0.3,22.3-0.5
		c7.2-0.1,14-0.1,20.3,0c-0.8,3.3-0.6,6.3,0.3,8.9c1,2.6,1.7,5.6,2.1,8.9c0.3,3.2,0.3,6.6,0,10.4c-0.3,3.8-0.3,7.2,0,10.4
		c0.1,2.4,0.6,5,1.4,7.8c0.8,2.8,1.2,5.4,1.5,7.9c0.2,2.5,0,4.7-0.7,6.6c-0.7,1.9-2.2,3.1-4.6,3.7c-1.2,0.3-2.4,0.2-3.6-0.2
		C397.2,264.7,396,264.5,394.8,264.5z M322.3,217.7c1.2,0.5,2.1,0.5,2.6,0c0.5-0.5,0.8-0.9,0.8-1.5c0-0.5-0.3-0.8-0.8-0.9
		c-0.5-0.1-1.2,0.5-1.9,1.7c-0.3,0-0.6-0.1-0.9-0.2C321.7,216.7,321.8,217,322.3,217.7z M322.7,224.3v0.7c0.3,0,0.6,0.1,1,0.2
		c0.4,0.2,0.6-0.1,0.6-0.9c0-0.5-0.2-0.6-0.6-0.3C323.4,224.2,323,224.3,322.7,224.3z M373.7,237.2c0.5-2.1,0.7-4,0.8-5.7
		c0.1-1.7,0.1-3.5,0.1-5.7c-3.3-0.5-6.7-0.6-10.3-0.3c-3.5,0.2-7.1,0.3-10.7,0.3c-0.5-0.5-0.6-1-0.6-1.6c0.1-0.6-0.3-0.9-1-0.9
		c-0.5,0.8-0.5,1,0,0.7c0.5-0.3,0.7-0.2,0.7,0.2v0.7c-1.7,0.8-3.1,1.1-4.4,1.1c-1.3,0-2.8,0.2-4.4,0.5c0,1.7,0.1,3.4,0.5,5.3
		c0.3,1.9,0.5,3.7,0.5,5.3C354.9,237.8,364.6,237.8,373.7,237.2z"/>
	<path class="st0" d="M597.8,201.1c0.5,1.8,0.7,4.1,0.8,6.9c0.1,2.8,0.1,5.7,0,8.6c-0.1,2.9-0.2,5.8-0.2,8.7c-0.1,2.9,0,5.3,0.1,7.2
		c-5.7-0.3-11.5-0.6-17.3-0.8c-5.8-0.2-11.6,0-17.3,0.8c-0.5,4.5-0.8,9.5-0.9,14.9c-0.2,5.4-0.3,11-0.3,16.6
		c-0.1,5.7-0.1,11.2-0.1,16.6c0,5.4-0.1,10.3-0.2,14.7c-0.3,11.3-0.8,22.4-1.5,33.3c-0.7,10.9-1,22.5-1,34.7c-2.4-0.1-5-0.2-7.8-0.2
		c-2.8,0-5.5,0-8.2,0.1c-2.7,0.1-5.4,0.1-8,0.2c-2.6,0.1-5.1,0-7.3-0.1c-0.5-9.5-0.7-19.3-0.7-29.5s-0.4-21.7-1.1-34.5
		c-0.2-1.2-0.3-2.5-0.5-4c-0.2-1.4-0.2-2.7-0.2-4c0-1.2,0.3-2.3,0.8-3.2c0.5-0.9,0.8-1.7,0.8-2.5c0.5-2.1,0.4-4.3-0.2-6.6
		c-0.6-2.3-1.1-4.7-1.4-7.2c-0.8-5.7-0.7-11.9,0.2-18.5c0.9-6.6,1.4-13.6,1.4-21c-3.5-0.1-6.6-0.2-9.4-0.2c-2.8,0-5.5,0-8.1,0
		c-2.6,0-5.3,0-7.9,0.1c-2.6,0.1-5.5,0.1-8.5,0.1c0.5-5.7,0.7-11,0.8-15.9c0.1-4.9,0.1-9.8,0.1-14.6c14.2,0,27.3,0.1,39.3,0.2
		c12.1,0.2,24,0.1,35.7-0.2c4.8-0.1,9.6-0.3,14.4-0.6S593.2,201.1,597.8,201.1z M530,345.2l2.3-1.8C530.7,343.4,530,344,530,345.2z
		 M531.5,324.2c0.3,0.3,0.8,0.4,1.5,0.3c0.7-0.1,1-0.5,1-1.2C532.4,323.3,531.5,323.6,531.5,324.2z M539.7,225.3h-1.8
		c0,1.1,0.3,1.6,0.9,1.6C539.4,226.4,539.7,225.9,539.7,225.3z M540.7,267.7V267c-1.1,0-1.6,0.5-1.6,1.6c0.5,0,0.8-0.1,0.9-0.5
		C540.2,267.8,540.4,267.7,540.7,267.7z M542.8,209.6c0,0.5,0.3,0.7,0.8,0.7c0.5,0,0.8-0.2,0.8-0.7c-0.5,0-0.8-0.1-1.1-0.2
		C543,209.2,542.8,209.3,542.8,209.6z M547.6,279c1.1,0,1.6-0.2,1.6-0.7c-0.3-0.5-0.6-0.6-1-0.6C547.8,277.8,547.6,278.2,547.6,279z
		 M553.7,287.8v-1.6c-0.3,0-0.7-0.2-1.1-0.7s-0.8-0.5-1.1,0c0.3,0.8,0.6,1.3,0.8,1.7C552.5,287.6,553,287.8,553.7,287.8z"/>
	<path class="st0" d="M688.1,267c-0.2,1.2,0,2.3,0.3,3.3c0.4,1,0.8,2.3,1.2,4c0,2.4-0.2,4.9-0.5,7.6c-0.3,2.6-0.5,5.2-0.5,7.8
		c0,4.4,0,8.8,0,13.3c0,4.5-0.2,9.4-0.7,14.7c-0.3,3.3-0.5,6.3-0.7,8.8c-0.2,2.6,0.1,5.3,0.7,8.1c0,0.5,0.1,1,0.3,1.7
		c0.2,0.7,0.3,1.2,0.3,1.7c0,1.2-0.3,2.4-0.8,3.6c-0.5,1.2-0.8,2.4-0.8,3.6c-0.3,2.9-0.2,5.8,0.5,8.8c0.6,3,0.8,6,0.5,8.8
		c-1.2,0.3-2,0.2-2.4-0.2c-0.4-0.5-0.9-0.7-1.7-0.7c-4.1,0-7.8-0.4-11.1-1.1c-3.3-0.8-6.6-1.1-9.9-1.1c-2.9,0.3-5.8,0.7-8.8,1.1
		c-3,0.5-6,0.3-8.8-0.5c-0.3-0.1-0.5-0.5-0.5-1.1c0-0.6-0.1-1.2-0.2-1.9c-0.2-0.7-0.3-1.4-0.6-2c-0.2-0.7-0.6-1.1-1.2-1.2
		c0.8-0.5,1-1.3,0.8-2.6c-0.2-1.3-0.5-2.3-0.8-3.1c0.8-1.2,0.9-2.6,0.6-4.2c-0.4-1.6-0.6-3.4-0.6-5.5c0-1.2,0.1-2.2,0.3-3.1
		c0.2-0.8,0.3-1.4,0.3-1.7c-0.3-1.2-0.8-1.8-1.4-1.9c-0.6-0.1-0.9-0.6-0.9-1.5c3.2-0.8,6.2-1.1,9.3-0.9c3,0.2,5.6,0.2,7.7,0.2
		c0.8-1.2,1-2.4,0.8-3.7c-0.2-1.3,0-1.9,0.8-1.9c-0.8-4.8-1-10.4-0.8-16.8c0.2-6.4,0.2-12.6-0.1-18.6c-0.5-9.9-0.9-19.5-1.4-28.8
		c-0.5-9.3-0.5-18.2-0.2-26.8c-2.6-0.8-4.7-1.2-6.6-1.2c-1.8-0.1-3.6,0-5.3,0.1c-1.7,0.2-3.5,0.4-5.4,0.7c-1.9,0.3-4.2,0.5-6.9,0.5
		c-0.3,8.4-0.3,16.7,0.1,24.9c0.4,8.1,0.8,16.2,1.2,24.1c0.5,7.9,0.8,15.7,1,23.5c0.2,7.8,0,15.6-0.8,23.4c0.5,0.6,1.1,1,1.8,1.2
		c0.8,0.2,1.5,0.5,2.3,0.7c0.8,0.2,1.4,0.6,2,1c0.6,0.5,1,1.1,1.1,2c-0.3,0-0.8-0.1-1.4-0.3c-0.6-0.2-0.9-0.1-0.9,0.3
		c0.3,2.4,0.6,5,1,7.9c0.4,2.9,0.3,6.1-0.3,9.7c0,0.5-0.1,1.1-0.3,1.8c-0.2,0.8-0.3,1.5-0.3,2.3c0,0.8,0.4,1.5,1.1,2.4
		c0.8,0.8,1.1,1.6,1.1,2.4c-5.7,0.8-11.8,0.9-18.1,0.6c-6.3-0.4-12.1-0.6-17.4-0.6c-1.7-16-2.7-31.8-3.1-47.5
		c-0.4-15.7-0.7-31.3-1-46.8c-0.2-6.5,0.3-13.1,1.5-19.8c1.1-6.7,1.5-13.3,1-19.8c-0.3-4.4-0.8-8.5-1.6-12.3
		c-0.8-3.8-0.8-7.8,0-11.9c10.1,0,20.8,0,32.1-0.1c11.3-0.1,22.1-0.3,32.5-0.6c3.2-0.5,6.3-0.6,9.5-0.3c3.2,0.2,6.2,1.2,9,2.8
		c0.6,2.4,0.8,4.9,0.7,7.3c-0.2,2.5-0.4,5-0.7,7.5c-0.3,2.5-0.5,5-0.7,7.5c-0.2,2.5,0.1,4.9,0.7,7.3c0,0.9,0.3,1.8,0.9,2.6
		c0.6,0.8,1.1,1.8,1.4,3.1c0.5,2.1,0.2,4.3-0.7,6.7c-0.9,2.3-1.2,4.7-0.9,7.1c0,0.8,0.3,1.4,0.8,2c0.5,0.6,0.8,1.3,0.8,2
		c0,1.7-0.2,3.3-0.6,4.9C687.8,263.7,687.7,265.4,688.1,267z M611.1,311.3c0,0.3,0.3,0.3,1,0.1c0.7-0.2,0.9-0.6,0.6-1
		C611.6,310.4,611.1,310.7,611.1,311.3z M614.3,282.2c0.3-0.3,0.6-0.5,1-0.7c0.4-0.1,0.6-0.5,0.6-0.9c-0.8-0.3-1.3-0.2-1.7,0.3
		C613.8,281.4,613.8,281.9,614.3,282.2z M617.4,231.5c0-0.8-0.3-1.3-1-1.7c-0.7-0.4-1.4-0.3-2.1,0.1c0,0.8,0.3,1.2,1,1.4
		C616,231.5,616.7,231.5,617.4,231.5z M614.7,240.7v1.6h1.6C616.3,241.2,615.8,240.7,614.7,240.7z M615.8,245.1
		c-0.5,0.5-0.2,0.7,0.8,0.7c1,0,1.2-0.2,0.8-0.7c0-0.3-0.2-0.4-0.5-0.2C616.7,245,616.3,245.1,615.8,245.1z M621.5,211.4l-3.2,3.8
		c0.8,0,1.7-0.5,2.7-1.4C622.1,213,622.2,212.2,621.5,211.4z M619.9,224.3c0,0.3,0.1,0.6,0.2,1c0.1,0.4,0.6,0.6,1.4,0.6
		c0.5-0.5,0.5-0.9,0.1-1.5C621.2,223.9,620.7,223.8,619.9,224.3z M621.5,274.2c0.5,0.3,1,0.3,1.6,0.1c0.6-0.2,0.9-0.6,0.9-1
		c-0.8,0-1.3-0.4-1.6-1.1c-0.3-0.8-0.8-1.1-1.6-1.1c-0.5,0.8-0.3,1.4,0.3,1.8C621.8,273.3,621.9,273.8,621.5,274.2z M663.5,343.4
		c0-0.8,0.1-1.3,0.3-1.6c0.2-0.3,0.3-0.8,0.3-1.6c-0.8-0.3-1.4-0.3-2,0.1c-0.6,0.4-1.5,0.3-2.7-0.1c0.3,0.8,0.4,1.2,0.2,1.5
		c-0.2,0.2-0.2,0.6-0.2,1c0.8,0,1.4,0,2,0.1C662.1,342.9,662.8,343.1,663.5,343.4z M667.6,331.4c0.3-0.5,0.4-0.9,0.2-1.2
		c-0.2-0.4-0.2-0.8-0.2-1.2c-1.2,0-1.8,0.5-1.8,1.6c0.5,0,0.8,0.2,0.9,0.5C666.8,331.3,667.1,331.4,667.6,331.4z M673.9,347.3h-1.6
		c0,0.5,0.3,0.8,0.8,0.9C673.7,348.3,673.9,348,673.9,347.3z"/>
	<path class="st0" d="M796,273.3c0,8.6,0.1,16.9,0.3,24.9c0.2,8,0.3,16.7,0.3,26c0,3.2,0.1,6.1,0.3,8.8c0.2,2.7,0.1,5.1-0.3,7.2
		c-0.8,2.1-2,3.9-3.7,5.3c-1.7,1.4-3.4,3.2-5.1,5.3c-0.6,0.8-1.2,1.7-1.8,2.9c-0.6,1.2-1.2,2.4-1.9,3.5c-0.7,1.1-1.4,2.1-2,3.1
		c-0.7,0.9-1.5,1.4-2.4,1.6c-1.2,0.5-3,0.3-5.3-0.5c-2.3-0.8-6.7-1.2-6.7-1.2h-28.2c0,0-4.2,0.2-6.7,0.4c-2.5,0.2-4.6,0.1-6.2-0.3
		c-0.8,0-1.2-0.1-1.5-0.2c-0.2-0.1-0.5-0.6-0.4-1.4v0.9c-0.4-1.2-0.8-2.1-1.5-2.6c-0.8-0.5-1.5-1-2.3-1.8h-1.2v1.9v0.9
		c0.5,0.5,0.6,0.7,0.8,0.2h0.2v1.4c0.7,0,1,0.2,1.3,0.5c0.1,0.2,0.3,0.2,0.5,0.2h0.9l0.9-0.6c-0.5,0.3-0.9,0.6-1.5,1
		c-0.5,0.4-1.2,0.6-1.9,0.6c-0.8,0-1.4-0.3-2-1c-0.6-0.7-1.2-1.5-1.8-2.5c-0.6-1-1.2-2-1.7-2.9c-0.5-1-1.1-1.8-1.7-2.4
		c-0.6-1.2-1.4-2.3-2.3-3.3c-0.9-1-1.8-1.9-2.7-2.8c-0.9-0.9-1.7-1.8-2.5-2.8c-0.8-1-1.2-2.1-1.4-3.3c-0.8-1.2-1-2.7-0.7-4.5
		c0.3-1.8,0.5-3.8,0.7-5.9c0.3-9.5,0.1-19.6-0.5-30.4c-0.6-10.8-0.8-21.6-0.5-32.4c0.3-9.9,0.4-19.8,0.3-29.6
		c-0.1-9.8,0.1-20.3,0.6-31.6l33.9,2.3c0.1,6.5,0.1,12.9-0.2,19.3c-0.3,6.4-0.6,12.8-0.9,19.2c-0.3,6.4-0.5,12.7-0.6,19
		c-0.1,6.3,0.2,12.4,0.8,18.4c1.1,1.5,1.6,3.4,1.6,5.7c0,1.7-0.2,3.2-0.5,4.7c-0.3,1.5-0.7,3.1-1.1,4.7c-0.3,4.8-0.6,9.8-1,15
		c-0.4,5.2-0.6,10.4-0.6,15.7c1.8,0.5,4,0.7,6.4,0.8c2.5,0.1,5,0,7.7-0.1c2.6-0.1,5.2-0.3,7.8-0.5c2.6-0.1,4.9-0.2,7-0.2
		c-0.6-9.6-1.2-19.7-1.7-30.1c-0.5-10.4-0.9-20.8-1.1-31.3c-0.2-10.5-0.3-20.8-0.3-31.1c0-10.2,0.2-20,0.7-29.4
		c5.3-1.2,10.5-1.9,15.8-2.1c5.3-0.2,10.8-0.6,16.5-1c0.8,10.1,1.1,21,1,32.7C796,249.2,796,261.1,796,273.3z M708,294.4
		c0.5,0,0.6-0.3,0.6-0.8c-0.1-0.5,0.3-0.8,1-0.8c0-0.6-0.5-0.9-1.6-0.9c0.5,0.5,0.6,0.9,0.3,1.2C708.2,293.5,708,293.9,708,294.4z
		 M709.7,312.9V312c0-0.3-0.2-0.6-0.5-0.8c-0.3-0.2-0.7,0-1.1,0.8c0.5,0,0.8,0.2,0.9,0.5C709.2,312.7,709.4,312.9,709.7,312.9z
		 M709.4,289.3h-0.7v1.6c0.3,0,0.5-0.1,0.6-0.2C709.4,290.5,709.4,290,709.4,289.3z M727.5,273.3c-0.5,0-0.8,0.1-0.9,0.3
		c-0.2,0.2-0.4,0.1-0.7-0.3c0,0.8,0.3,1.1,1,1.1C727.6,274.5,727.8,274.1,727.5,273.3z M728.2,308.1c0.5,0,0.8-0.2,0.9-0.6
		c0.1-0.4,0.5-0.8,0.9-1.2c-0.9,0-1.4-0.1-1.6-0.5c-0.2-0.3-0.2-0.7-0.2-1.1l-2.3-1.6c0,1.7,0.3,2.7,0.9,3.1
		C727.4,306.6,727.9,307.2,728.2,308.1z"/>
	<path class="st0" d="M902.7,252.5v-0.9c-0.7,0-1.2,0.2-1.5,0.5l-0.5,0.5c-0.5,0.5-0.7,1-0.1,1.6v1.2h0.2h1.8v-1.6v17.9v33v33
		c0,2.1-0.2,3.8-0.7,5c-0.5,1.2-1.1,2.3-1.8,3.2c-0.8,0.9-1.6,1.8-2.6,2.6c-1,0.8-2,1.8-3.1,3.1c-1.7,2-2.9,4-3.6,6.1
		c-0.8,2.1-2,3.8-3.6,5c-11-0.3-22.6-0.2-34.7,0.2c-12.1,0.5-24.3,0.7-36.5,0.7c-0.6,0-0.9-0.5-0.9-1.6c1.1,0,1.9-0.3,2.5-0.9v-1.2
		c0,0,1-0.1,1.3-0.5l0.5-0.5c0-0.3,0-0.5-0.1-0.7c-0.1-0.1-0.3-0.5-0.8-0.9l-0.8-0.7v0.8H817h-1.3v0.8v1.2l0,0v0.4l-1,0.7v0.9h0.7
		c0,0-0.9,0.6-1.7,1c-0.8,0.4-1.6,0.6-2.4,0.6c-0.3-4.8-0.4-9.8-0.3-14.9c0.1-5.1,0-10.3-0.3-15.6c1.7-0.9,3.1-1.1,4.3-0.7
		c1.2,0.5,2.2,0.1,2.9-1.1c0.3,0,0.5,0.2,0.5,0.5c0,0.3-0.2,0.5-0.5,0.5c0,0.5,0.3,0.4,1-0.1c0.7-0.5,1.4-0.8,2.1-0.8
		c0.5,0.5,1,0.9,1.7,1.2c0.7,0.4,1.2,0.6,1.5,0.6c4.5,0.8,9.1,1,13.8,0.7c4.7-0.3,9.3-0.3,13.8,0c3.6,0.3,7.2,0.3,10.6,0
		c3.5-0.3,6.6-0.8,9.5-1.6c0-4.1-0.3-8.5-0.8-13.3c-0.5-4.8-0.8-9.3-0.8-13.3c0.3,0.5,0.6,0.8,0.9,1c0.3,0.2,1.1,0.2,2.3-0.1
		c0-0.8-0.6-1.2-1.7-1.2c-1.1-0.1-1.9-0.5-2.4-1.2c0.5-2.1,0.3-4.2-0.5-6.2c-0.8-2-1.1-4.3-1.1-6.7c0-0.8,0.1-1.4,0.5-2
		c0.3-0.6,0.5-1.3,0.5-2c0.3-3.2,0-6.3-0.8-9.5c-0.8-3.2-0.9-6.2-0.1-9c0-0.8-0.1-1-0.3-0.8c-0.2,0.2-0.3,0-0.3-0.8
		c0.3-5.3,0.6-10.6,1-15.9c0.4-5.3,0.6-11,0.6-17.1c-10.7-0.9-21.8-0.9-33.2,0c-0.8-5.3-0.9-10.6-0.6-16c0.4-5.4,0.6-10.5,0.6-15.4
		c1.2,0,2.6,0.1,4.2,0.2c1.6,0.2,3.2,0.1,4.9-0.2c0.3,0.3,0.5,0.6,0.5,1c0,0.4,0.4,0.6,1.1,0.6c0.8,0,0.8-0.2,0.2-0.6
		c-0.6-0.4-0.7-0.7-0.2-1c8.1,0,17,0.1,26.7,0.2c9.6,0.2,19,0.1,28-0.2c2,8.9,2.8,17.4,2.6,25.4
		C903.2,235.2,902.9,243.7,902.7,252.5z M826.7,352.6c0,0.5,0.2,0.7,0.7,0.7h0.9C828.3,352.8,827.8,352.6,826.7,352.6z M832.3,357.2
		c0-1.1-0.5-1.6-1.6-1.6c0,0.5,0.1,0.8,0.2,1.1C831.1,357,831.6,357.2,832.3,357.2z M834.8,341.8c0.8,0,1.2-0.3,1.4-0.9
		c0.1-0.6,0.2-1.1,0.2-1.4c-0.5-0.5-1-0.7-1.7-0.7s-1.2,0.2-1.5,0.7C834.9,339.6,835.4,340.3,834.8,341.8z M833.3,356.5
		c1.8,0,2.3-0.8,1.6-2.5c-0.8,0-1.2,0.2-1.4,0.6C833.3,355,833.3,355.6,833.3,356.5z M837.1,339.6c1.2,0,1.8-0.3,1.8-0.9
		c-0.5-0.3-0.9-0.3-1.2-0.1C837.3,338.8,837.1,339.1,837.1,339.6z M838.1,341.1c0.5,0.3,1.1,0.3,1.9,0c0.8-0.3,1.2-0.8,1.2-1.6
		l-0.5-0.5l-1.1-1.1v0.7c0.5,0.8,0.4,1.2-0.1,1.5C839.1,340.3,838.6,340.7,838.1,341.1z M843.6,348.4c0-0.8,0.1-1.2,0.5-1.5
		c0.3-0.2,0.5-0.6,0.5-1c-1.2,0-2,0.5-2.4,1.4c-0.4,0.9-0.9,1.5-1.7,1.8c0.3,0.5,0.8,0.5,1.5,0C842.6,348.6,843.2,348.4,843.6,348.4
		z"/>
	<path class="st0" d="M1002.1,267c-0.2,1.2,0,2.3,0.3,3.3c0.4,1,0.8,2.3,1.2,4c0,2.4-0.2,4.9-0.5,7.6c-0.3,2.6-0.5,5.2-0.5,7.8
		c0,4.4,0,8.8,0,13.3c0,4.5-0.2,9.4-0.7,14.7c-0.3,3.3-0.5,6.3-0.7,8.8c-0.2,2.6,0.1,5.3,0.7,8.1c0,0.5,0.1,1,0.3,1.7
		c0.2,0.7,0.3,1.2,0.3,1.7c0,1.2-0.3,2.4-0.8,3.6c-0.5,1.2-0.8,2.4-0.8,3.6c-0.3,2.9-0.2,5.8,0.5,8.8c0.6,3,0.8,6,0.5,8.8
		c-1.2,0.3-2,0.2-2.4-0.2c-0.4-0.5-0.9-0.7-1.7-0.7c-4.1,0-7.8-0.4-11.1-1.1c-3.3-0.8-6.6-1.1-9.9-1.1c-2.9,0.3-5.8,0.7-8.8,1.1
		c-3,0.5-6,0.3-8.8-0.5c-0.3-0.1-0.5-0.5-0.5-1.1c0-0.6-0.1-1.2-0.2-1.9c-0.2-0.7-0.3-1.4-0.6-2c-0.2-0.7-0.6-1.1-1.2-1.2
		c0.8-0.5,1-1.3,0.8-2.6c-0.2-1.3-0.5-2.3-0.8-3.1c0.8-1.2,0.9-2.6,0.6-4.2c-0.4-1.6-0.6-3.4-0.6-5.5c0-1.2,0.1-2.2,0.3-3.1
		c0.2-0.8,0.3-1.4,0.3-1.7c-0.3-1.2-0.8-1.8-1.4-1.9c-0.6-0.1-0.9-0.6-0.9-1.5c3.2-0.8,6.2-1.1,9.3-0.9c3,0.2,5.6,0.2,7.7,0.2
		c0.8-1.2,1-2.4,0.8-3.7c-0.2-1.3,0-1.9,0.8-1.9c-0.8-4.8-1-10.4-0.8-16.8c0.2-6.4,0.2-12.6-0.1-18.6c-0.5-9.9-0.9-19.5-1.4-28.8
		c-0.5-9.3-0.5-18.2-0.2-26.8c-2.6-0.8-4.7-1.2-6.6-1.2c-1.8-0.1-3.6,0-5.3,0.1c-1.7,0.2-3.5,0.4-5.4,0.7c-1.9,0.3-4.2,0.5-6.9,0.5
		c-0.3,8.4-0.3,16.7,0.1,24.9c0.4,8.1,0.8,16.2,1.2,24.1c0.5,7.9,0.8,15.7,1,23.5c0.2,7.8,0,15.6-0.8,23.4c0.5,0.6,1.1,1,1.8,1.2
		c0.8,0.2,1.5,0.5,2.3,0.7c0.8,0.2,1.4,0.6,2,1c0.6,0.5,1,1.1,1.1,2c-0.3,0-0.8-0.1-1.4-0.3c-0.6-0.2-0.9-0.1-0.9,0.3
		c0.3,2.4,0.6,5,1,7.9c0.4,2.9,0.3,6.1-0.3,9.7c0,0.5-0.1,1.1-0.3,1.8c-0.2,0.8-0.3,1.5-0.3,2.3c0,0.8,0.4,1.5,1.1,2.4
		c0.8,0.8,1.1,1.6,1.1,2.4c-5.7,0.8-11.8,0.9-18.1,0.6c-6.3-0.4-12.1-0.6-17.4-0.6c-1.7-16-2.7-31.8-3.1-47.5
		c-0.4-15.7-0.7-31.3-1-46.8c-0.2-6.5,0.3-13.1,1.5-19.8c1.1-6.7,1.5-13.3,1-19.8c-0.3-4.4-0.8-8.5-1.6-12.3
		c-0.8-3.8-0.8-7.8,0-11.9c10.1,0,20.8,0,32.1-0.1c11.3-0.1,22.1-0.3,32.5-0.6c3.2-0.5,6.3-0.6,9.5-0.3c3.2,0.2,6.2,1.2,9,2.8
		c0.6,2.4,0.8,4.9,0.7,7.3c-0.2,2.5-0.4,5-0.7,7.5c-0.3,2.5-0.5,5-0.7,7.5c-0.2,2.5,0.1,4.9,0.7,7.3c0,0.9,0.3,1.8,0.9,2.6
		c0.6,0.8,1.1,1.8,1.4,3.1c0.5,2.1,0.2,4.3-0.7,6.7c-0.9,2.3-1.2,4.7-0.9,7.1c0,0.8,0.3,1.4,0.8,2c0.5,0.6,0.8,1.3,0.8,2
		c0,1.7-0.2,3.3-0.6,4.9C1001.8,263.7,1001.7,265.4,1002.1,267z M925.7,311.3c0,0.3,0.3,0.3,1,0.1c0.7-0.2,0.9-0.6,0.6-1
		C926.2,310.4,925.7,310.7,925.7,311.3z M928.8,282.2c0.3-0.3,0.6-0.5,1-0.7c0.4-0.1,0.6-0.5,0.6-0.9c-0.8-0.3-1.3-0.2-1.7,0.3
		C928.4,281.4,928.4,281.9,928.8,282.2z M932,231.5c0-0.8-0.3-1.3-1-1.7c-0.7-0.4-1.4-0.3-2.1,0.1c0,0.8,0.3,1.2,1,1.4
		C930.5,231.5,931.3,231.5,932,231.5z M928.7,240.7v1.6h1.6C930.3,241.2,929.8,240.7,928.7,240.7z M930.4,245.1
		c-0.5,0.5-0.2,0.7,0.8,0.7c1,0,1.2-0.2,0.8-0.7c0-0.3-0.2-0.4-0.5-0.2C931.3,245,930.9,245.1,930.4,245.1z M936.1,211.4l-3.2,3.8
		c0.8,0,1.7-0.5,2.7-1.4C936.7,213,936.8,212.2,936.1,211.4z M934.5,224.3c0,0.3,0.1,0.6,0.2,1c0.1,0.4,0.6,0.6,1.4,0.6
		c0.5-0.5,0.5-0.9,0.1-1.5C935.8,223.9,935.3,223.8,934.5,224.3z M936.1,274.2c0.5,0.3,1,0.3,1.6,0.1c0.6-0.2,0.9-0.6,0.9-1
		c-0.8,0-1.3-0.4-1.6-1.1c-0.3-0.8-0.8-1.1-1.6-1.1c-0.5,0.8-0.3,1.4,0.3,1.8C936.4,273.3,936.5,273.8,936.1,274.2z M978.1,343.4
		c0-0.8,0.1-1.3,0.3-1.6c0.2-0.3,0.3-0.8,0.3-1.6c-0.8-0.3-1.4-0.3-2,0.1c-0.6,0.4-1.5,0.3-2.7-0.1c0.3,0.8,0.4,1.2,0.2,1.5
		c-0.2,0.2-0.2,0.6-0.2,1c0.8,0,1.4,0,2,0.1C976.7,342.9,977.4,343.1,978.1,343.4z M982.2,331.4c0.3-0.5,0.4-0.9,0.2-1.2
		c-0.2-0.4-0.2-0.8-0.2-1.2c-1.2,0-1.8,0.5-1.8,1.6c0.5,0,0.8,0.2,0.9,0.5C981.4,331.3,981.7,331.4,982.2,331.4z M988.5,347.3h-1.6
		c0,0.5,0.3,0.8,0.8,0.9C988.2,348.3,988.5,348,988.5,347.3z"/>
	<path class="st0" d="M1110.6,273.3c0,8.6,0.1,16.9,0.3,24.9c0.2,8,0.3,16.7,0.3,26c0,3.2,0.1,6.1,0.3,8.8c0.2,2.7,0.1,5.1-0.3,7.2
		c-0.8,2.1-2,3.9-3.7,5.3c-1.7,1.4-3.4,3.2-5.1,5.3c-0.6,0.8-1.2,1.7-1.8,2.9c-0.6,1.2-1.2,2.4-1.9,3.5c-0.7,1.1-1.4,2.1-2,3.1
		c-0.7,0.9-1.5,1.4-2.4,1.6c-1.2,0.5-3,0.3-5.3-0.5c-2.3-0.8-6.7-1.2-6.7-1.2h-28.7c-1.9,0-4.1,0.1-6.6,0.4
		c-2.4,0.2-4.5,0.1-6.1-0.4c-0.7,0-1.2-0.1-1.4-0.2c-0.2-0.2-0.5-0.6-0.8-1.4v1c0-1.3-0.4-2.2-1.1-2.7c-0.7-0.6-1.5-1.1-2.2-1.5
		h-0.7v1.9v0.9c0.1,0.5,0.2,0.7,0.3,0.2h0.7v1.4c0.2,0,0.6,0.2,0.9,0.5c0.1,0.2,0.3,0.2,0.5,0.2h0.9l0.9-0.6c-0.5,0.3-0.9,0.6-1.5,1
		c-0.5,0.4-1.2,0.6-1.9,0.6c-0.8,0-1.4-0.3-2-1c-0.6-0.7-1.2-1.5-1.8-2.5c-0.6-1-1.2-2-1.7-2.9c-0.5-1-1.1-1.8-1.7-2.4
		c-0.6-1.2-1.4-2.3-2.3-3.3c-0.9-1-1.8-1.9-2.7-2.8c-0.9-0.9-1.7-1.8-2.5-2.8c-0.8-1-1.2-2.1-1.4-3.3c-0.8-1.2-1-2.7-0.7-4.5
		c0.3-1.8,0.5-3.8,0.7-5.9c0.3-9.5,0.1-19.6-0.5-30.4c-0.6-10.8-0.8-21.6-0.5-32.4c0.3-9.9,0.4-19.8,0.3-29.6
		c-0.1-9.8,0.1-20.3,0.6-31.6l33.9,2.3c0.1,6.5,0.1,12.9-0.2,19.3c-0.3,6.4-0.6,12.8-0.9,19.2c-0.3,6.4-0.5,12.7-0.6,19
		c-0.1,6.3,0.2,12.4,0.8,18.4c1.1,1.5,1.6,3.4,1.6,5.7c0,1.7-0.2,3.2-0.5,4.7c-0.3,1.5-0.7,3.1-1.1,4.7c-0.3,4.8-0.6,9.8-1,15
		c-0.4,5.2-0.6,10.4-0.6,15.7c1.8,0.5,4,0.7,6.4,0.8c2.5,0.1,5,0,7.7-0.1c2.6-0.1,5.2-0.3,7.8-0.5c2.6-0.1,4.9-0.2,7-0.2
		c-0.6-9.6-1.2-19.7-1.7-30.1c-0.5-10.4-0.9-20.8-1.1-31.3c-0.2-10.5-0.3-20.8-0.3-31.1c0-10.2,0.2-20,0.7-29.4
		c5.3-1.2,10.5-1.9,15.8-2.1c5.3-0.2,10.8-0.6,16.5-1c0.8,10.1,1.1,21,1,32.7C1110.6,249.2,1110.6,261.1,1110.6,273.3z
		 M1022.6,294.4c0.5,0,0.6-0.3,0.6-0.8c-0.1-0.5,0.3-0.8,1-0.8c0-0.6-0.5-0.9-1.6-0.9c0.5,0.5,0.6,0.9,0.3,1.2
		C1022.8,293.5,1022.6,293.9,1022.6,294.4z M1023.7,312.9V312c0-0.3-0.2-0.6-0.5-0.8c-0.3-0.2-0.7,0-1.1,0.8c0.5,0,0.8,0.2,0.9,0.5
		C1023.2,312.7,1023.4,312.9,1023.7,312.9z M1024.4,289.3h-0.7v1.6c0.3,0,0.5-0.1,0.6-0.2C1024.4,290.5,1024.4,290,1024.4,289.3z
		 M1042.1,273.3c-0.5,0-0.8,0.1-0.9,0.3c-0.2,0.2-0.4,0.1-0.7-0.3c0,0.8,0.3,1.1,1,1.1C1042.2,274.5,1042.4,274.1,1042.1,273.3z
		 M1042.8,308.1c0.5,0,0.8-0.2,0.9-0.6c0.1-0.4,0.5-0.8,0.9-1.2c-0.9,0-1.4-0.1-1.6-0.5c-0.2-0.3-0.2-0.7-0.2-1.1l-2.3-1.6
		c0,1.7,0.3,2.7,0.9,3.1C1042,306.6,1042.4,307.2,1042.8,308.1z"/>
	<path class="st0" d="M1209.5,264.5c-1.7-0.5-3.1-0.5-4.4,0c-1.3,0.5-2.8,0.5-4.4,0c1.2,8.1,2.7,16.3,4.5,24.5
		c1.8,8.2,3.7,16.5,5.5,24.7c1.9,8.3,3.7,16.5,5.5,24.7c1.8,8.2,4.5,24.7,4.5,24.7h-29.1l-7.2-23.5c-1.4-4.4-2.7-8.5-4.1-12.4
		c-1.4-3.9-2.4-7.8-3.2-11.8c0-1.2-0.1-2.1-0.2-2.7c-0.2-0.6-0.1-1.1,0.2-1.4c0-0.5-0.3-0.8-0.8-1c-0.5-0.2-0.8-0.7-0.8-1.5
		c-1.2-6.9-2.5-14.1-3.7-21.4c-1.3-7.3-3-14.4-5.1-21.4h-7.2c0,8.5,0.3,16.2,0.9,23.2c0.6,7,1.1,14.4,1.4,22.1
		c0.5,9.1,0.5,17.7,0.1,26c-0.4,8.3-1.2,16.5-2.4,24.7h-9.7h0.9v-2h-0.9h-0.9h-0.7c-0.6,0.1-0.9,0.2-0.9,0.5
		c-0.2,0.2,0.3,0.5,0.3,0.5v1h0.6h-5.7c-1.7-0.4-3.4-0.2-5.2,0c-1.8,0.2-3.3,0.1-4.5-0.3c-1.4-0.8-2.2-2-2.6-3.6
		c-0.4-1.7-0.5-3.5-0.5-5.6c0.1-2.1,0.2-4.3,0.5-6.4c0.2-2.2,0.3-4.2,0.1-6c0-1.7-0.5-3.2-1.4-4.7c-0.9-1.5-1.5-2.9-1.8-4.1
		c-0.6-2.4-0.5-5.3,0.3-8.6c0.8-3.3,1.2-6.3,1.2-9c0-6.3-0.2-12-0.5-17.1c-0.3-5-0.5-10.4-0.5-16.2c0-3.2-0.1-6.3-0.2-9.5
		c-0.2-3.2-0.1-6.2,0.2-9c0-0.8,0-1.3-0.1-1.6c-0.1-0.3,0.3-0.8,1-1.6c0-0.5-0.2-0.6-0.7-0.6c-0.5,0.1-0.5-0.3-0.2-1
		c0-7.2,0-15.8,0.1-25.7c0.1-9.9,0.3-19.8,0.8-29.9c7.2,0.2,14.7,0.2,22.4,0c7.7-0.1,15.3-0.3,22.9-0.5c7.6-0.1,15-0.3,22.3-0.5
		c7.2-0.1,14-0.1,20.3,0c-0.8,3.3-0.6,6.3,0.3,8.9c1,2.6,1.7,5.6,2.1,8.9c0.3,3.2,0.3,6.6,0,10.4c-0.3,3.8-0.3,7.2,0,10.4
		c0.1,2.4,0.6,5,1.4,7.8c0.8,2.8,1.2,5.4,1.5,7.9c0.2,2.5,0,4.7-0.7,6.6c-0.7,1.9-2.2,3.1-4.6,3.7c-1.2,0.3-2.4,0.2-3.6-0.2
		C1211.9,264.7,1210.7,264.5,1209.5,264.5z M1137,217.7c1.2,0.5,2.1,0.5,2.6,0c0.5-0.5,0.8-0.9,0.8-1.5c0-0.5-0.3-0.8-0.8-0.9
		c-0.5-0.1-1.2,0.5-1.9,1.7c-0.3,0-0.6-0.1-0.9-0.2C1136.5,216.7,1136.5,217,1137,217.7z M1136.7,224.3v0.7c0.3,0,0.6,0.1,1,0.2
		c0.4,0.2,0.6-0.1,0.6-0.9c0-0.5-0.2-0.6-0.6-0.3C1137.4,224.2,1137,224.3,1136.7,224.3z M1188.7,237.2c0.5-2.1,0.7-4,0.8-5.7
		c0.1-1.7,0.1-3.5,0.1-5.7c-3.3-0.5-6.7-0.6-10.3-0.3c-3.5,0.2-7.1,0.3-10.7,0.3c-0.5-0.5-0.6-1-0.6-1.6c0.1-0.6-0.3-0.9-1-0.9
		c-0.5,0.8-0.5,1,0,0.7c0.5-0.3,0.7-0.2,0.7,0.2v0.7c-1.7,0.8-3.1,1.1-4.4,1.1c-1.3,0-2.8,0.2-4.4,0.5c0,1.7,0.1,3.4,0.5,5.3
		c0.3,1.9,0.5,3.7,0.5,5.3C1169.9,237.8,1179.6,237.8,1188.7,237.2z"/>
	<path class="st0" d="M1254.5,199.1c13.2-0.8,26.4-1.5,39.4-2.3c13-0.8,25.6-1.4,37.8-1.8c-0.2,2.4-0.4,5-0.8,7.8
		c-0.4,2.8-0.7,5.6-0.9,8.4c-0.2,2.8-0.3,5.6-0.2,8.4c0.1,2.8,0.5,5.4,1.2,7.8c-2.1,0.6-4.5,1-7.2,1.1c-2.7,0.2-5.6,0.2-8.6,0.1
		c-3-0.1-6.1-0.2-9.1-0.5c-3.1-0.2-6.1-0.5-8.9-0.8h-27.1c-0.3,5.3-0.2,10.4,0.2,15.3c0.5,5,0.7,10.6,0.7,16.9l54.5,2.3l4.1,32.2
		c0.5,0.8,0.3,1.1-0.6,1.1c-0.8,0-1.2,0.5-1,1.4c0.3,6,0.3,11.7-0.1,17c-0.4,5.3-0.6,10.6-0.6,15.9c0,1.4,0.1,3.6,0.2,6.6
		c0.1,3.1,0.2,6.3,0.2,9.6c0,3.3-0.2,6.4-0.4,9.2c-0.3,2.9-0.9,4.8-1.8,5.9c-0.5,0.5-2,0.8-4.6,1.1c-2.6,0.3-5.6,0.5-8.9,0.7
		c-3.3,0.1-6.5,0.2-9.6,0.2c-3.1,0-5.3-0.1-6.6-0.2c0-0.7-0.3-1.1-0.9-1.1c-0.6,0-1.1,0-1.4,0h-0.9h-0.9v2l0.9,0.2
		c-2-0.3-3.8-0.4-5.2-0.3c-1.5,0.1-3,0.1-4.6,0.1h3v-0.9c0-0.7-0.2-1.4-0.6-2.1c-0.4-0.7-1-1-1.7-1h-1.1l-0.9,0.4l-0.7,0.7v0.9v1
		h0.7h1.3v0.2c-4.2-0.1-8.2-0.2-12-0.2c-3.8,0-7.5,0-11.2,0c-3.7,0-7.4,0-11.3,0.1c-3.8,0.1-7.9,0.1-12.3,0.1c0-5.3,0-10.8,0.1-16.6
		c0.1-5.8,0.3-10.7,0.6-14.8c1.2,0.5,2.6,0.5,4.1,0c1.5-0.5,3.1-0.5,4.7,0c1.2,0,2.1,0.3,2.8,0.8c0.7,0.5,1.6,0.8,2.8,0.8
		c1.7,0.5,3.3,0.5,5,0.2c1.7-0.3,3.5-0.4,5.6-0.2c5.7,0.3,11.7,0.7,18.1,1.1c6.3,0.5,12.3,0.1,18.1-1.1c0-6.5-0.3-12.7-0.9-18.7
		c-0.6-6-1.1-12.6-1.4-19.9c-9.5,0.3-19.2,0-29-0.8c-9.9-0.8-19.5-1.6-29-2.4c0-5.3-0.5-10.6-1.4-16c-0.9-5.4-1-10.5-0.2-15.4
		c0-0.9,0.1-1.7,0.3-2.5c0.2-0.8,0.3-1.3,0.3-1.6c0.1-0.9,0.3-2.7,0.3-5.5c0.1-2.8,0.1-6,0.1-9.6c0-3.6,0-7.4-0.1-11.5
		c-0.1-4.1-0.1-7.9-0.1-11.5c0-3.6,0-6.8-0.1-9.5c-0.1-2.7-0.1-4.6-0.1-5.6c0.1-1.4,0.6-2.2,1.4-2.5c0.8-0.3,1.8-0.4,3.2-0.2
		c1.4,0.2,3.1,0.3,5.3,0.3C1248.7,199.9,1251.3,199.7,1254.5,199.1z M1245.9,257.3c0.5,0.3,0.9,0.4,1.5,0.3c0.5-0.1,0.6-0.5,0.1-1.2
		C1246.4,256.4,1245.9,256.7,1245.9,257.3z M1250.1,267.7c0,0.5-0.2,0.8-0.5,1c-0.3,0.2-0.5,0.7-0.5,1.5c0.8-0.5,1.2-0.6,1.5-0.5
		c0.2,0.2,0.6,0,1-0.5c0-0.3-0.2-0.4-0.5-0.3c-0.3,0.1-0.5,0-0.5-0.3v-0.5C1250.7,267.8,1250.5,267.7,1250.1,267.7z M1250,271.8
		c-0.5,0.8-0.2,1.1,0.9,1.1c1.1,0,1.6-0.4,1.6-1.1c-0.9-0.3-1.5-0.4-1.7-0.2C1250.6,271.7,1250.3,271.8,1250,271.8z M1253.2,270.2
		c0.5-0.5,0.8-0.9,1.1-1.4c0.3-0.5,0.5-1.1,0.5-1.8c-0.3-0.8-0.8-0.8-1.5-0.2c-0.7,0.6-1.2,0.9-1.7,0.9c0.5,0.5,0.6,1,0.6,1.6
		C1252.1,269.9,1252.4,270.2,1253.2,270.2z M1252.7,263.6v1.8c0.5,0,1,0,1.7-0.1c0.7-0.1,1.2-0.3,1.5-0.8c-0.8,0-1.3-0.1-1.6-0.5
		C1254,263.8,1253.5,263.6,1252.7,263.6z M1256.3,270.2c0,0.6,0.6,0.9,1.8,0.9C1258.1,270.5,1257.5,270.2,1256.3,270.2z M1271.7,279
		c-0.3,0-0.8,0-1.4,0.1c-0.6,0.1-0.9,0.3-0.9,0.8c0.3,0.3,0.8,0.4,1.4,0.3C1271.4,280.2,1271.7,279.7,1271.7,279z M1274.9,261.4
		c-0.3,0-0.7-0.1-1.1-0.3c-0.5-0.2-0.8-0.1-1.1,0.3c-0.5,0.8-0.2,1.1,0.8,1.1C1274.4,262.5,1274.9,262.1,1274.9,261.4z
		 M1274.9,210.5c0.6,0,0.9-0.3,0.9-0.9C1275.2,209.2,1274.9,209.5,1274.9,210.5z"/>
</g>
</svg>
