<?xml version="1.0" encoding="utf-8"?>
<!-- Generator: Adobe Illustrator 22.0.1, SVG Export Plug-In . SVG Version: 6.00 Build 0)  -->
<svg version="1.1" id="Layer_1" xmlns="http://www.w3.org/2000/svg" xmlns:xlink="http://www.w3.org/1999/xlink" x="0px" y="0px"
	 viewBox="0 0 1707.9 168.7" style="enable-background:new 0 0 1707.9 168.7;" xml:space="preserve">
<style type="text/css">
	.st0{fill:#FFFFFF;}
</style>
<g>
	<path class="st0" d="M85.7,71.9c-0.2,1.2,0,2.3,0.3,3.3c0.4,1,0.8,2.3,1.2,4c0,2.4-0.2,4.9-0.5,7.6c-0.3,2.6-0.5,5.2-0.5,7.8
		c0,4.4,0,8.8,0,13.3s-0.2,9.4-0.7,14.7c-0.3,3.3-0.5,6.3-0.7,8.8c-0.2,2.6,0.1,5.3,0.7,8.1c0,0.5,0.1,1,0.3,1.7
		c0.2,0.7,0.3,1.2,0.3,1.7c0,1.2-0.3,2.4-0.8,3.6c-0.5,1.2-0.8,2.4-0.8,3.6c-0.3,2.9-0.2,5.8,0.5,8.8c0.6,3,0.8,6,0.5,8.8
		c-1.2,0.3-2,0.2-2.4-0.2c-0.4-0.5-0.9-0.7-1.7-0.7c-4.1,0-7.8-0.4-11.1-1.1c-3.3-0.8-6.6-1.1-9.9-1.1c-2.9,0.3-5.8,0.7-8.8,1.1
		c-3,0.5-6,0.3-8.8-0.5c-0.3-0.1-0.5-0.5-0.5-1.1c0-0.6-0.1-1.2-0.2-1.9c-0.2-0.7-0.3-1.4-0.6-2c-0.2-0.7-0.6-1.1-1.2-1.2
		c0.8-0.5,1-1.3,0.8-2.6c-0.2-1.3-0.5-2.3-0.8-3.1c0.8-1.2,0.9-2.6,0.6-4.2c-0.4-1.6-0.6-3.4-0.6-5.5c0-1.2,0.1-2.2,0.3-3.1
		c0.2-0.8,0.3-1.4,0.3-1.7c-0.3-1.2-0.8-1.8-1.4-1.9c-0.6-0.1-0.9-0.6-0.9-1.5c3.2-0.8,6.3-1.1,9.3-0.9c3,0.2,5.6,0.2,7.7,0.2
		c0.8-1.2,1-2.4,0.8-3.7c-0.2-1.3,0-1.9,0.8-1.9c-0.8-4.8-1-10.4-0.8-16.8c0.2-6.4,0.2-12.6-0.1-18.6c-0.5-9.9-0.9-19.5-1.4-28.8
		S54.6,46.6,54.9,38c-2.6-0.8-4.7-1.2-6.6-1.2c-1.8-0.1-3.6,0-5.3,0.1c-1.7,0.2-3.5,0.4-5.4,0.7c-1.9,0.3-4.2,0.5-6.9,0.5
		c-0.3,8.4-0.3,16.7,0.1,24.9c0.4,8.1,0.8,16.2,1.2,24.1c0.5,7.9,0.8,15.7,1,23.5c0.2,7.8,0,15.6-0.8,23.4c0.5,0.6,1.1,1,1.8,1.2
		c0.8,0.2,1.5,0.5,2.3,0.7c0.8,0.2,1.4,0.6,2,1c0.6,0.5,1,1.1,1.1,2c-0.3,0-0.8-0.1-1.4-0.3c-0.6-0.2-0.9-0.1-0.9,0.3
		c0.3,2.4,0.6,5,1,7.9c0.4,2.9,0.3,6.1-0.3,9.7c0,0.5-0.1,1.1-0.3,1.8c-0.2,0.8-0.3,1.5-0.3,2.3c0,0.8,0.4,1.5,1.1,2.4
		c0.8,0.8,1.1,1.6,1.1,2.4c-5.7,0.8-11.8,0.9-18.1,0.6c-6.3-0.4-12.1-0.6-17.4-0.6c-1.7-16-2.7-31.8-3.1-47.5
		C0.7,102.1,0.3,86.5,0,71c-0.2-6.5,0.3-13.1,1.5-19.8c1.1-6.7,1.5-13.3,1-19.8C2.2,27,1.7,22.9,0.9,19.1c-0.8-3.8-0.8-7.8,0-11.9
		c10.1,0,20.8,0,32.1-0.1C44.3,7,55.2,6.9,65.6,6.6c3.2-0.5,6.3-0.6,9.5-0.3s6.2,1.2,9,2.8c0.6,2.4,0.8,4.9,0.7,7.3
		c-0.2,2.5-0.4,5-0.7,7.5c-0.3,2.5-0.5,5-0.7,7.5c-0.2,2.5,0.1,4.9,0.7,7.3c0,0.9,0.3,1.8,0.9,2.6c0.6,0.8,1.1,1.8,1.4,3.1
		c0.5,2.1,0.2,4.3-0.7,6.7c-0.9,2.3-1.2,4.7-0.9,7.1c0,0.8,0.3,1.4,0.8,2c0.5,0.6,0.8,1.3,0.8,2c0,1.7-0.2,3.3-0.6,4.9
		C85.4,68.6,85.4,70.2,85.7,71.9z M9.1,116.2c0,0.3,0.3,0.3,1,0.1c0.7-0.2,0.9-0.6,0.6-1C9.6,115.3,9.1,115.6,9.1,116.2z M12.2,87
		c0.3-0.3,0.6-0.5,1-0.7c0.4-0.1,0.6-0.5,0.6-0.9c-0.8-0.3-1.3-0.2-1.7,0.3C11.7,86.3,11.8,86.7,12.2,87z M15.4,36.4
		c0-0.8-0.3-1.3-1-1.7c-0.7-0.4-1.4-0.3-2.1,0.1c0,0.8,0.3,1.2,1,1.4C13.9,36.3,14.6,36.4,15.4,36.4z M12.2,45.2v1.6h1.6
		C13.8,45.7,13.3,45.2,12.2,45.2z M13.8,49.9c-0.5,0.5-0.2,0.7,0.8,0.7c1,0,1.2-0.2,0.8-0.7c0-0.3-0.2-0.4-0.5-0.2
		C14.6,49.9,14.3,49.9,13.8,49.9z M19.5,16.3l-3.2,3.8c0.8,0,1.7-0.5,2.7-1.4C20.1,17.9,20.2,17,19.5,16.3z M17.9,29.2
		c0,0.3,0.1,0.6,0.2,1c0.1,0.4,0.6,0.6,1.4,0.6c0.5-0.5,0.5-0.9,0.1-1.5C19.2,28.7,18.6,28.7,17.9,29.2z M19.5,79.1
		c0.5,0.3,1,0.3,1.6,0.1c0.6-0.2,0.9-0.6,0.9-1c-0.8,0-1.3-0.4-1.6-1.1c-0.3-0.8-0.8-1.1-1.6-1.1c-0.5,0.8-0.3,1.4,0.3,1.8
		C19.8,78.2,19.9,78.6,19.5,79.1z M61.5,148.3c0-0.8,0.1-1.3,0.3-1.6c0.2-0.3,0.3-0.8,0.3-1.6c-0.8-0.3-1.4-0.3-2,0.1
		c-0.6,0.4-1.5,0.3-2.7-0.1c0.3,0.8,0.4,1.2,0.2,1.5c-0.2,0.2-0.2,0.6-0.2,1c0.8,0,1.4,0,2,0.1C60.1,147.8,60.7,148,61.5,148.3z
		 M65.6,136.3c0.3-0.5,0.4-0.9,0.2-1.2c-0.2-0.4-0.2-0.8-0.2-1.2c-1.2,0-1.8,0.5-1.8,1.6c0.5,0,0.8,0.2,0.9,0.5
		C64.8,136.1,65.1,136.3,65.6,136.3z M71.9,152.3h-1.6c0,0.5,0.3,0.8,0.8,0.9C71.6,153.4,71.9,153.1,71.9,152.3z"/>
	<path class="st0" d="M193.9,78.2c0,8.6,0.1,16.9,0.3,24.9c0.2,8,0.3,16.6,0.3,26c0,3.2,0.1,6.1,0.3,8.8c0.2,2.7,0.1,5.1-0.3,7.2
		c-0.8,2.1-2,3.9-3.7,5.3c-1.7,1.4-3.4,3.2-5.1,5.3c-0.6,0.8-1.2,1.7-1.8,2.9c-0.6,1.2-1.2,2.4-1.9,3.5c-0.7,1.1-1.4,2.1-2,3.1
		c-0.7,0.9-1.5,1.4-2.4,1.6c-1.2,0.5-3,0.3-5.3-0.5c-2.3-0.8-4.6-1.1-6.7-1.1h-28.2c-2,0-4.2,0.1-6.7,0.3s-4.6,0.1-6.2-0.3
		c-0.8,0-1.2-0.1-1.5-0.2c-0.2-0.1-0.5-0.6-0.8-1.4v0.9c0-1.2-0.4-2.1-1.1-2.6c-0.8-0.5-1.5-1-2.3-1.5h-0.7v1.6v0.9
		c0,0.5,0.1,0.7,0.2,0.7h0.5v0.9c0.5,0,0.8,0.2,1.1,0.5c0.1,0.2,0.3,0.2,0.5,0.2h0.9l0.9-0.7c-0.5,0.3-0.9,0.6-1.5,1
		c-0.5,0.4-1.2,0.6-1.9,0.6c-0.8,0-1.4-0.3-2-1c-0.6-0.7-1.2-1.5-1.8-2.5c-0.6-1-1.2-2-1.7-2.9c-0.5-1-1.1-1.8-1.7-2.4
		c-0.6-1.2-1.4-2.3-2.3-3.3c-0.9-1-1.8-1.9-2.7-2.8c-0.9-0.9-1.7-1.8-2.5-2.8c-0.8-1-1.2-2.1-1.4-3.3c-0.8-1.2-1-2.7-0.7-4.5
		c0.3-1.8,0.5-3.8,0.7-5.9c0.3-9.5,0.1-19.6-0.5-30.4c-0.6-10.8-0.8-21.6-0.5-32.4c0.3-9.9,0.4-19.8,0.3-29.6
		c-0.1-9.8,0.1-20.3,0.6-31.6l33.9,2.3c0.1,6.5,0.1,12.9-0.2,19.3c-0.3,6.4-0.6,12.8-0.9,19.2c-0.3,6.4-0.5,12.7-0.6,19
		c-0.1,6.3,0.2,12.4,0.8,18.4c1.1,1.5,1.6,3.4,1.6,5.6c0,1.7-0.2,3.2-0.5,4.7c-0.3,1.5-0.7,3.1-1.1,4.7c-0.3,4.8-0.6,9.8-1,15
		c-0.4,5.2-0.6,10.4-0.6,15.7c1.8,0.5,4,0.7,6.4,0.8c2.5,0.1,5,0,7.7-0.1c2.6-0.1,5.2-0.3,7.8-0.5c2.6-0.1,4.9-0.2,7-0.2
		c-0.6-9.6-1.2-19.7-1.7-30.1c-0.5-10.4-0.9-20.8-1.1-31.3c-0.2-10.5-0.3-20.8-0.3-31.1c0-10.2,0.2-20,0.7-29.4
		c5.3-1.2,10.5-1.9,15.8-2.1c5.3-0.2,10.8-0.6,16.5-1c0.8,10.1,1.1,21,1,32.7C194,54.1,193.9,66,193.9,78.2z M106,99.2
		c0.5,0,0.6-0.3,0.6-0.8c-0.1-0.5,0.3-0.8,1-0.8c0-0.6-0.5-0.9-1.6-0.9c0.5,0.5,0.6,0.9,0.3,1.2C106.1,98.3,106,98.8,106,99.2z
		 M107.6,117.7v-0.9c0-0.3-0.2-0.6-0.5-0.8c-0.3-0.2-0.7,0-1.1,0.8c0.5,0,0.8,0.2,0.9,0.5C107.1,117.6,107.3,117.7,107.6,117.7z
		 M107.6,94.5h-0.7V96c0.3,0,0.5-0.1,0.6-0.2C107.6,95.7,107.6,95.2,107.6,94.5z M125.5,78.2c-0.5,0-0.8,0.1-0.9,0.3
		c-0.2,0.2-0.4,0.1-0.7-0.3c0,0.8,0.3,1.1,1,1.1S125.8,79,125.5,78.2z M126.1,113c0.5,0,0.8-0.2,0.9-0.6c0.1-0.4,0.5-0.8,0.9-1.2
		c-0.9,0-1.4-0.1-1.6-0.5c-0.2-0.3-0.2-0.7-0.2-1.1l-2.3-1.6c0,1.7,0.3,2.7,0.9,3.1C125.4,111.5,125.8,112.1,126.1,113z"/>
	<path class="st0" d="M311.7,5.6c0.5,1.8,0.7,4.1,0.8,6.9c0.1,2.8,0.1,5.6,0,8.6c-0.1,2.9-0.2,5.8-0.2,8.7c-0.1,2.9,0,5.3,0.1,7.2
		c-5.7-0.3-11.5-0.6-17.3-0.8c-5.8-0.2-11.6,0-17.3,0.8c-0.5,4.5-0.8,9.5-0.9,14.9c-0.2,5.4-0.3,11-0.3,16.6
		c-0.1,5.7-0.1,11.2-0.1,16.6c0,5.4-0.1,10.3-0.2,14.7c-0.3,11.3-0.8,22.4-1.5,33.3c-0.7,10.9-1,22.5-1,34.7c-2.4-0.1-5-0.2-7.8-0.2
		c-2.8,0-5.5,0-8.2,0.1c-2.7,0.1-5.4,0.1-8,0.2c-2.6,0.1-5.1,0-7.3-0.1c-0.5-9.5-0.7-19.3-0.7-29.5s-0.4-21.7-1.1-34.5
		c-0.2-1.2-0.3-2.5-0.5-4c-0.2-1.4-0.2-2.7-0.2-4c0-1.2,0.3-2.3,0.8-3.2c0.5-0.9,0.8-1.7,0.8-2.5c0.5-2.1,0.4-4.3-0.2-6.6
		c-0.6-2.3-1.1-4.7-1.4-7.2c-0.8-5.7-0.7-11.9,0.2-18.5c0.9-6.6,1.4-13.6,1.4-21c-3.5-0.1-6.6-0.2-9.4-0.2c-2.8,0-5.5,0-8.1,0
		c-2.6,0-5.3,0-7.9,0.1c-2.6,0.1-5.5,0.1-8.5,0.1c0.5-5.7,0.7-11,0.8-15.9c0.1-4.9,0.1-9.8,0.1-14.6c14.2,0,27.3,0.1,39.3,0.2
		c12.1,0.2,24,0.1,35.7-0.2c4.8-0.1,9.6-0.3,14.4-0.6C302.5,5.8,307.2,5.6,311.7,5.6z M243.9,150.1l2.3-1.8
		C244.6,148.3,243.9,148.9,243.9,150.1z M245.5,129c0.3,0.3,0.8,0.4,1.5,0.3c0.7-0.1,1-0.5,1-1.2C246.3,128.1,245.5,128.4,245.5,129
		z M253.6,29.8h-1.8c0,1.1,0.3,1.6,0.9,1.6C253.3,31,253.6,30.4,253.6,29.8z M254.3,72.5v-0.7c-1.1,0-1.6,0.5-1.6,1.6
		c0.5,0,0.8-0.1,0.9-0.5C253.7,72.7,254,72.5,254.3,72.5z M256.8,14.5c0,0.5,0.3,0.7,0.8,0.7c0.5,0,0.8-0.2,0.8-0.7
		c-0.5,0-0.8-0.1-1.1-0.2C256.9,14.1,256.8,14.2,256.8,14.5z M261.5,83.8c1.1,0,1.6-0.2,1.6-0.7c-0.3-0.5-0.6-0.6-1-0.6
		C261.7,82.7,261.5,83.1,261.5,83.8z M267.2,92.7v-1.6c-0.3,0-0.7-0.2-1.1-0.7c-0.5-0.5-0.8-0.5-1.1,0c0.3,0.8,0.6,1.3,0.8,1.7
		C265.9,92.5,266.4,92.7,267.2,92.7z"/>
	<path class="st0" d="M402.8,132.2c1.2-1.2,3-1.5,5.4-1c2.4,0.5,4.6,0.6,6.6,0.3v31.4c-5.4,0.2-11.5,0.2-18.1,0
		c-6.6-0.1-13.4-0.3-20.2-0.3c-6.9-0.1-13.7-0.1-20.5,0c-6.8,0.1-13,0.4-18.5,1c-1.4-1.4-2.6-2.9-3.7-4.5c-1.1-1.7-2.2-3.3-3.3-5
		c-1.1-1.7-2.2-3.2-3.4-4.7c-1.2-1.5-2.6-2.9-4.3-4.3c0-0.3,0.3-0.5,1-0.7c0.7-0.1,1.2-0.5,1.5-0.9c-0.3-0.3-0.7-0.3-1.1,0.1
		c-0.5,0.4-0.9,0.3-1.4-0.1c0.9-13.7,1.1-27.6,0.7-41.6c-0.5-14-0.7-29.2-0.7-45.4c0-5.7-0.1-11.4-0.2-17
		c-0.2-5.6-0.1-11.2,0.2-16.9c0.5-2.9,0.7-5.8,0.7-8.7s0.6-5.7,1.8-8.2l33.2-1.6c0.8,0,0.9,0.2,0.6,0.7c-0.4,0.5-0.6,1.1-0.6,1.8
		c-0.5,2.4-0.6,5-0.3,7.8c0.2,2.8,0.5,5.5,0.7,8.1c0.2,2.6,0.2,5.1,0,7.5c-0.2,2.3-0.9,4.2-2.1,5.5c0.5,4.4,1,9.5,1.6,15.3
		c0.6,5.8,0.9,11.7,0.9,17.7c-0.2,1.8-0.5,3.7-0.9,5.8c-0.5,2-0.8,4-1.1,5.9c-0.3,1.9-0.4,3.7-0.3,5.5c0.1,1.8,0.6,3.4,1.7,4.7
		c-1.7,6.8-2.6,13.8-2.8,21.1c-0.2,7.3-0.9,14.2-2.1,20.7c7.5,1.5,15.2,2,23.1,1.6C384.4,133.3,393.1,132.8,402.8,132.2z
		 M333.4,11.3c0-0.3,0-0.6-0.1-0.9c-0.1-0.3-0.3-0.2-0.8,0.2c-0.3,0-0.3,0.1-0.1,0.3C332.6,11.2,332.9,11.3,333.4,11.3z M343.8,86.3
		h-1.6v1.6C343.2,87.9,343.8,87.4,343.8,86.3z M343.8,56.5c0.5,0.8,0.5,1.2,0,1.2c-0.5,0.1-0.7,0.5-0.7,1.2c1.1-0.5,1.7-0.3,1.9,0.5
		c0.2,0.8,0.9,1.1,2.1,1.1c0.3-0.5,0.5-1,0.6-1.7c0.1-0.7,0.1-1.2,0.1-1.5c-0.8-0.5-1.4-0.6-2-0.5C345.2,57.1,344.5,57,343.8,56.5z
		 M350.3,74.1c0.8-2,0.6-3.3-0.5-4.1c-1.1-0.8-2-1.5-2.7-2.3h-0.5c-0.3,0-0.5,0.2-0.5,0.7l2.5,2.5c-0.8,0.8-1.6,1.2-2.5,1.2
		c-0.9,0.1-1.7,0.7-2.5,1.9c1.7,0,3-0.3,4-0.9C348.7,72.6,349.6,72.9,350.3,74.1z M348.7,41.1c-0.8,0-1.3,0.3-1.6,0.9
		c-0.3,0.6-0.9,1.1-1.8,1.6c0.9,0.3,1.7,0.3,2.4-0.1C348.4,43.1,348.7,42.3,348.7,41.1z M346.3,92c1.1,0,1.6-0.3,1.6-0.9
		C346.8,91.1,346.3,91.4,346.3,92z M350.3,67.8c0.8-0.5,0.9-0.8,0.5-1.1c-0.5-0.3-0.9-0.5-1.4-0.5c0.3,0.3,0.5,0.5,0.5,0.7
		c0,0.2,0.1,0.3,0.2,0.5C350.1,67.5,350.2,67.7,350.3,67.8z M350.3,63.7c0.8,0,1.3,0.1,1.7,0.2c0.4,0.2,0.3,0.6-0.1,1.4
		c0.8,0,1.2-0.1,1.5-0.5c0.2-0.3,0.6-0.7,1-1.1c-0.8-0.5-1.5-0.9-2.4-1.2C351.2,62.1,350.6,62.5,350.3,63.7z M353.5,103.3
		c-0.3-0.5-0.4-1-0.3-1.6c0.1-0.6,0-0.9-0.3-0.9c-0.5,0.5-0.6,1-0.6,1.6C352.3,103,352.7,103.3,353.5,103.3z"/>
	<path class="st0" d="M514.2,133.1h0.2c0.3,0,0.5,0.2,0.5,0.7l5.6,34.8h-22.6c-2.1-4.8-3.7-9.6-4.7-14.5c-1.1-4.8-2.4-9.4-4.1-13.8
		c-4.4,0-9.2-0.1-14.6-0.5c-5.4-0.3-10.4-0.5-15.3-0.5c-2.1,4.4-3.5,9-4.2,13.9c-0.7,4.9-1.5,9.8-2.4,14.6c-3.9,0-8,0.2-12.2,0.6
		c-4.2,0.4-8.7,0.2-13.6-0.6l5.6-38.9c0.8,0.8,1.8,0.8,3.2,0c-0.8-0.5-1.4-0.6-1.8-0.5c-0.5,0.2-0.9,0-1.4-0.5
		c1.7-9.6,3.1-19.5,4.2-29.6c1.1-10.1,2.4-20.3,4-30.7l2.5-17.9c0.3-1.7,0.9-3,1.8-4c0.9-1,1.4-2.3,1.4-4c0.8-2.6,1.3-5.2,1.6-7.8
		c0.3-2.6,0.8-5.2,1.6-7.6c1.2-3.6,2.2-7.2,2.9-10.8c0.8-3.6,1.1-7.2,1.1-10.8h6.6c-0.5,0.3-0.8,0.4-0.9,0.2
		C459.1,5,458.8,5,458.3,5c0,0.8,0.5,1,1.5,0.8c1-0.2,1.8-0.5,2.6-0.8c0.5,0,0.6,0.2,0.5,0.5c-0.2,0.3,0,0.7,0.5,1.1
		c0.3-0.5,0.6-0.8,0.9-0.9c0.3-0.1,0.2-0.4-0.2-0.7h16.3c2.9-0.5,5-0.8,6.6-0.9c1.5-0.1,2.6,1.2,3.2,4.1l2.3,12
		c0.8,1.7,1.4,3.4,1.9,5.3c0.5,1.9,1,3.7,1.5,5.3c0,0.3-0.2,0.4-0.5,0.3c-0.3-0.1-0.5,0-0.5,0.3v0.9c0-0.6-0.3-0.9-0.9-0.9
		c-0.5,0-0.7,0.2-0.7,0.5v0.5l-0.9-0.9v0.9c-0.3,0-0.6,0.1-1,0.2c-0.4,0.2-0.6,0.6-0.6,1.4v0.9h0.9h0.7l-0.7,0.7l0.7-0.7v0.7
		c-0.5,0.8-0.7,1.3-0.7,1.6V38l1.6-0.9v0.5c0,0.3,0.2,0.5,0.7,0.5c0.9,0,1.4-0.3,1.6-0.9c0.1-0.6,0.2-1.1,0.2-1.6v-0.7h-2.5h0.7
		c0.5-0.5,0.9-0.8,1.2-0.9c0.4-0.1,0.6-0.4,0.6-0.7l1.6,5.4c2.7,9.5,4.9,19.2,6.4,29.2c1.6,9.9,3.4,19.9,5.5,29.8
		c0,1.1-0.2,1.6-0.7,1.6c0.8,1.2,1.4,2.7,1.8,4.5s0.9,3.5,1.4,5.2c0.5,3.6,1,7.3,1.6,11.1c0.6,3.8,0.9,7.3,0.9,10.6
		C514.9,131.5,514.9,132.4,514.2,133.1z M460.8,11.3l-0.7,0.9h1.6h2.3v-0.9l0.9,0.9v-1.6H464V9.7l-0.7,0.9h-0.9H462
		c-0.2,0-0.3,0.1-0.5,0.2C461.4,11,461.1,11.2,460.8,11.3z M465.8,108.9c2,0.3,4.8,0.4,8.5,0.2c3.7-0.1,6.7-0.2,9.2-0.2
		c-1.2-7.2-2.5-14.4-3.7-21.5c-1.3-7.1-3-13.6-5.1-19.7c-1.7,6.5-3.4,13.1-5.1,20C467.8,94.7,466.6,101.7,465.8,108.9z M497.9,153.2
		h1.8h0.7l2.5,1.6l-0.9-2.5c-0.5-0.5-1.2-0.7-2.3-0.7h-0.9h-0.9l-1.6-0.9v0.9c0.5,0.8,0.8,1.2,0.9,1.4
		C497.4,153.2,497.6,153.2,497.9,153.2z"/>
	<path class="st0" d="M640.7,84.8c0.6-12.5,0.8-24.4,0.6-35.8c-0.2-11.4-0.1-23.1,0.3-35.1l33-2.5c-0.3,14.2-0.5,28-0.6,41.5
		C674,66.3,674,79.9,674,93.6v-0.9h-1.6c-0.2,0.2-0.3,0.2-0.5,0.2c-0.3,0.3-0.5,0.5-0.5,0.7c-0.5,0.5-0.7,1-0.7,1.6
		c0,0.6,0.2,0.9,0.7,0.9l0.9,0.7L673,96v-0.9c0-0.5,0.3-0.7,0.9-0.7v-0.9v30.5c0,3.8,0,7.3-0.1,10.6c-0.1,3.3-0.3,6.8-0.8,10.4
		c-1.4,1.7-2,3.4-1.9,5.1c0.1,1.7,0.3,3.5,0.7,5.2c0.4,1.7,0.6,3.4,0.7,5.1c0.1,1.7-0.6,3.2-1.9,4.7c-3,0-7.5,0-13.3,0.1
		c-5.9,0.1-11.8,0.2-17.9,0.3c-6,0.2-11.3,0.3-15.9,0.3c-4.6,0.1-7.1,0.1-7.6,0.1c-0.8-0.1-2.3-0.2-4.7-0.2c-2.4,0-5,0-7.8,0.1
		c-2.8,0.1-5.4,0.2-7.9,0.3c-2.5,0.2-4,0.3-4.6,0.5c-0.8,0-1.8-0.1-3.3-0.5c-1.4-0.3-2.8-0.4-4-0.2c-3,0.2-6,0.2-8.9,0
		c-2.9-0.1-5.9-0.3-8.8-0.5c-2.9-0.1-5.8-0.2-8.7-0.1c-2.9,0.1-5.7,0.5-8.4,1.2c-1.7-1.2-2.8-2.7-3.5-4.5s-1.6-3.8-2.8-5.9
		c-1.2-1.7-2.9-3.3-5.2-4.9c-2.3-1.6-3.8-3.4-4.5-5.5c-0.5-1.7-0.5-3.4-0.1-5.3c0.4-1.9,0.6-3.7,0.8-5.3c0.3-3.9,0.4-8.2,0.2-12.8
		c-0.2-4.6-0.2-8.9-0.2-13c0-1.2-0.3-2.4-0.8-3.6c-0.5-1.2-0.8-2.4-0.8-3.6c-0.3-6.8,0-13.6,0.8-20.5c0.8-6.9,0.9-12.9,0.1-18.2
		c0.3-0.8,0.6-1.1,0.9-1.1c0.3,0,0.2-0.1-0.2-0.5c1.2-0.5,1.4-0.6,0.6-0.6c-0.8,0.1-1.2-0.3-1.2-1V12.2v-0.5c0-0.3,0.2-0.5,0.7-0.5
		c2.4,0,5,0.2,7.9,0.5c2.9,0.3,5.8,0.6,8.7,0.9c2.9,0.3,5.8,0.6,8.7,1c2.9,0.4,5.5,0.6,7.9,0.8c0,4.5,0.1,9,0.5,13.6
		c0.3,4.5-0.2,8.4-1.4,11.5c0.5,14.2,0.5,27.5,0.2,40.1c-0.3,12.6-0.9,25-1.8,37.2c-0.3,3.6-0.6,6.9-0.8,9.9c-0.2,3,0,6.2,0.8,9.5
		c4.1,0.8,8.3,0.8,12.7,0c4.4-0.8,8.7-1.3,13.1-1.6c0-6.3,0-12.9-0.1-19.7c-0.1-6.8-0.3-13.4-0.6-19.9c-0.3-7.2-0.4-14.4-0.3-21.4
		c0.1-7-0.1-14.1-0.6-21.4c-0.2-3.6-0.3-6.9-0.3-9.8c-0.1-2.9-0.2-5.9-0.2-8.8c-0.1-2.9-0.1-5.9-0.1-8.9c0-3,0-6.5,0-10.4
		c4.8-1.2,9.9-1.6,15.4-1.2c5.4,0.4,11,0.6,16.7,0.6c-0.2,10.8-0.3,21.2-0.5,31.1c-0.2,9.9-0.3,19.6-0.6,29.3
		c-0.2,9.6-0.6,19.4-1,29.2c-0.5,9.8-1.1,20-1.8,30.5c1.8,0.3,4,0.6,6.4,0.9c2.5,0.3,5,0.5,7.5,0.7c2.5,0.2,4.9,0.2,7.2,0.1
		c2.3-0.1,4.4-0.3,6.2-0.8c0-5.3-0.3-10.5-1-15.7c-0.7-5.2-1.2-10.4-1.5-15.7c-0.2-1.7-0.5-3.1-0.9-4.4c-0.5-1.3-0.7-2.7-0.7-4.4
		c0.3-1.5,0.6-3.1,0.9-4.6C640.4,88.3,640.6,86.6,640.7,84.8z M544,49.3c-0.5-0.5-0.6-0.8-0.3-0.9c0.2-0.1,0.3-0.4,0.3-0.7
		c-1.7,0.8-2.5,1.8-2.5,3.2c0.6,0.3,0.9,0.3,1,0.1c0.1-0.2,0.1-0.5,0.1-0.8c0-0.3,0.1-0.6,0.2-0.8C543,49.2,543.4,49.1,544,49.3z
		 M545.6,45.2h-0.9c0,0.8,0.1,1.5,0.3,2.1c0.2,0.7,0.9,1,2.1,1v-1.6c-0.3,0-0.5-0.1-0.7-0.5C546.3,46,546,45.7,545.6,45.2z
		 M546.5,115.3c1.7-0.3,3-1.3,4-2.9c1-1.7,1.2-3.3,0.8-5c-0.5,0.3-0.9,0.4-1.4,0.2c-0.5-0.1-1.1-0.2-1.8-0.2c0,0.3,0,0.8-0.1,1.4
		c-0.1,0.6-0.3,0.9-0.8,0.9c0.5,0.8,0.4,1.4-0.1,2c-0.5,0.6-1,1.3-1.5,2c0.5,0,0.8,0.2,1,0.6C546.8,114.6,546.8,115,546.5,115.3z
		 M546.5,153.9c-0.5,0.5-0.3,0.8,0.5,1.1c0.8,0.3,1.1,0.2,1.1-0.2c-0.5,0-0.8-0.1-0.9-0.5C547,154.1,546.8,153.9,546.5,153.9z
		 M547.2,42c0,0.5,0.5,0.7,1.6,0.7h0.5c0.3,0,0.5-0.2,0.5-0.7c-0.5-0.5-0.9-0.6-1.2-0.3C548,41.9,547.6,42,547.2,42z M551.2,62.1
		c-0.8-0.5-1.5-0.5-2.3-0.2c-0.8,0.3-1.4,0.6-1.8,0.9c0,0.9,0.1,1.5,0.5,1.7c0.3,0.2,0.5,0.5,0.5,0.8c0.8-0.3,1.4-0.7,1.8-1.2
		C550.3,63.5,550.8,62.9,551.2,62.1z M549.2,46.1h0.5v-0.9h-0.9c-0.2,0.2-0.2,0.5-0.2,0.9s0.1,0.7,0.2,0.7
		C548.7,46.3,548.9,46.1,549.2,46.1z M555.3,153.9c0.3-0.8,0.4-1.2,0.2-1.5c-0.2-0.2-0.2-0.5-0.2-0.8c-0.5,0-0.9,0.1-1.2,0.2
		c-0.4,0.2-0.8,0.1-1.2-0.2c0.5,0.8,0.5,1.4,0.1,1.9c-0.4,0.5-0.4,1.2-0.1,2.1c0.5-0.5,0.8-1.1,1-1.8
		C554.1,153.2,554.5,153.2,555.3,153.9z"/>
	<path class="st0" d="M706.7,4.1c13.3-0.8,26.4-1.5,39.4-2.3c13-0.8,25.7-1.4,37.9-1.8c-0.2,2.4-0.4,5-0.8,7.8
		c-0.4,2.8-0.7,5.6-0.9,8.4c-0.2,2.8-0.3,5.6-0.2,8.4c0.1,2.8,0.5,5.4,1.2,7.8c-2.1,0.6-4.5,1-7.2,1.1c-2.7,0.2-5.6,0.2-8.6,0.1
		c-3-0.1-6.1-0.2-9.2-0.5c-3.1-0.2-6.1-0.5-8.9-0.8h-26.7c-0.3,5.3-0.2,10.4,0.2,15.4s0.7,10.6,0.7,16.9l54.7,2.3l4.1,32.3
		c0.5,0.8,0.3,1.1-0.6,1.1c-0.8,0-1.2,0.5-1,1.4c0.3,6,0.3,11.7-0.1,17.1c-0.4,5.3-0.6,10.7-0.6,15.9c0,1.4,0.1,3.6,0.2,6.7
		c0.1,3.1,0.2,6.3,0.2,9.6c0,3.3-0.2,6.4-0.5,9.3c-0.3,2.9-0.9,4.8-1.8,5.9c-0.5,0.5-2,0.8-4.6,1.1c-2.6,0.3-5.6,0.5-8.9,0.7
		c-3.3,0.1-6.5,0.2-9.6,0.2c-3.1,0-5.3-0.1-6.7-0.2c0-0.8-0.3-1.1-0.9-1.1c-0.6,0-1.1,0-1.4,0h-0.9h-0.9v0.9l0.9,0.2
		c-2.1-0.3-4-0.4-5.5-0.3c-1.6,0.1-3.2,0.1-4.9,0.1h3.2v-0.9c0-0.8-0.2-1.5-0.7-2.1c-0.5-0.7-1.1-1-1.8-1H735l-0.9,0.9l-0.9,0.7v0.9
		v0.7h0.9h0.9v0.9c-4.2-0.1-8.2-0.2-12-0.2c-3.8,0-7.5,0-11.2,0c-3.7,0-7.5,0-11.3,0.1c-3.8,0.1-7.9,0.1-12.3,0.1
		c0-5.3,0-10.8,0.1-16.6c0.1-5.8,0.3-10.7,0.6-14.8c1.2,0.5,2.6,0.5,4.1,0c1.5-0.5,3.1-0.5,4.7,0c1.2,0,2.1,0.3,2.8,0.8
		c0.7,0.5,1.6,0.8,2.8,0.8c1.7,0.5,3.3,0.5,5,0.2c1.7-0.3,3.5-0.4,5.7-0.2c5.7,0.3,11.8,0.7,18.1,1.1c6.3,0.5,12.4,0.1,18.1-1.1
		c0-6.5-0.3-12.7-0.9-18.8c-0.6-6-1.1-12.7-1.4-19.9c-9.5,0.3-19.2,0-29-0.8c-9.9-0.8-19.5-1.6-29-2.4c0-5.3-0.5-10.6-1.4-16
		s-1-10.5-0.2-15.4c0-0.9,0.1-1.7,0.3-2.5c0.2-0.8,0.3-1.3,0.3-1.6c0.1-0.9,0.3-2.7,0.3-5.5c0.1-2.8,0.1-6,0.1-9.6
		c0-3.6,0-7.5-0.1-11.5c-0.1-4.1-0.1-7.9-0.1-11.5c0-3.6,0-6.8-0.1-9.5c-0.1-2.7-0.1-4.6-0.1-5.6c0.1-1.4,0.6-2.2,1.4-2.5
		c0.8-0.3,1.8-0.4,3.2-0.2c1.4,0.2,3.1,0.3,5.3,0.3C700.9,4.9,703.6,4.7,706.7,4.1z M698.6,62.1c0.5,0.3,0.9,0.4,1.5,0.3
		c0.5-0.1,0.6-0.5,0.1-1.2C699.1,61.2,698.6,61.5,698.6,62.1z M702.7,72.5c0,0.5-0.2,0.8-0.5,1c-0.3,0.2-0.5,0.7-0.5,1.5
		c0.8-0.5,1.2-0.6,1.5-0.5c0.2,0.2,0.6,0,1-0.5c0-0.3-0.2-0.4-0.5-0.3c-0.3,0.1-0.5,0-0.5-0.3V73C703.3,72.7,703.1,72.5,702.7,72.5z
		 M702.7,76.6c-0.5,0.8-0.2,1.1,0.9,1.1c1.1,0,1.6-0.4,1.6-1.1c-0.9-0.3-1.5-0.4-1.7-0.2C703.2,76.5,703,76.6,702.7,76.6z M705.8,75
		c0.5-0.5,0.8-0.9,1.1-1.4c0.3-0.5,0.5-1.1,0.5-1.8c-0.3-0.8-0.8-0.8-1.5-0.2c-0.7,0.6-1.2,0.9-1.7,0.9c0.5,0.5,0.6,1,0.6,1.6
		C704.7,74.7,705.1,75,705.8,75z M705.8,68.5v1.8c0.5,0,1,0,1.7-0.1c0.7-0.1,1.2-0.3,1.5-0.8c-0.8,0-1.3-0.1-1.6-0.5
		C707.1,68.6,706.6,68.5,705.8,68.5z M709,75c0,0.6,0.6,0.9,1.8,0.9C710.8,75.3,710.2,75,709,75z M724.3,83.8c-0.3,0-0.8,0-1.4,0.1
		c-0.6,0.1-0.9,0.3-0.9,0.8c0.3,0.3,0.8,0.4,1.4,0.3C724,85,724.3,84.6,724.3,83.8z M727.5,66.2c-0.3,0-0.7-0.1-1.1-0.3
		c-0.5-0.2-0.8-0.1-1.1,0.3c-0.5,0.8-0.2,1.1,0.8,1.1C727,67.3,727.5,67,727.5,66.2z M727.5,15.4c0.6,0,0.9-0.3,0.9-0.9
		C727.8,14,727.5,14.3,727.5,15.4z"/>
	<path class="st0" d="M958,133.1h0.2c0.3,0,0.5,0.2,0.5,0.7l5.7,34.8h-22.6c-2.1-4.8-3.7-9.6-4.7-14.5c-1.1-4.8-2.4-9.4-4.1-13.8
		c-4.4,0-9.2-0.1-14.6-0.5c-5.3-0.3-10.4-0.5-15.3-0.5c-2.1,4.4-3.5,9-4.2,13.9c-0.7,4.9-1.5,9.8-2.4,14.6c-3.9,0-8,0.2-12.2,0.6
		c-4.2,0.4-8.7,0.2-13.6-0.6l5.7-38.9c0.8,0.8,1.8,0.8,3.2,0c-0.8-0.5-1.4-0.6-1.8-0.5c-0.5,0.2-0.9,0-1.4-0.5
		c1.7-9.6,3.1-19.5,4.2-29.6c1.1-10.1,2.4-20.3,4-30.7l2.5-17.9c0.3-1.7,0.9-3,1.8-4c0.9-1,1.4-2.3,1.4-4c0.8-2.6,1.3-5.2,1.6-7.8
		c0.3-2.6,0.8-5.2,1.6-7.6c1.2-3.6,2.2-7.2,2.9-10.8c0.8-3.6,1.1-7.2,1.1-10.8h6.6c-0.5,0.3-0.8,0.4-0.9,0.2C903,5,902.7,5,902.2,5
		c0,0.8,0.5,1,1.5,0.8c1-0.2,1.8-0.5,2.6-0.8c0.5,0,0.6,0.2,0.5,0.5c-0.2,0.3,0,0.7,0.5,1.1c0.3-0.5,0.6-0.8,0.9-0.9
		c0.3-0.1,0.2-0.4-0.2-0.7h16.3c2.9-0.5,5-0.8,6.6-0.9c1.5-0.1,2.6,1.2,3.2,4.1l2.3,12c0.8,1.7,1.4,3.4,1.9,5.3
		c0.5,1.9,1,3.7,1.5,5.3c0,0.3-0.2,0.4-0.5,0.3c-0.3-0.1-0.5,0-0.5,0.3v0.9c0-0.6-0.3-0.9-0.9-0.9c-0.5,0-0.7,0.2-0.7,0.5v0.5
		l-0.9-0.9v0.9c-0.3,0-0.6,0.1-1,0.2c-0.4,0.2-0.6,0.6-0.6,1.4v0.9h0.9h0.7l-0.7,0.7l0.7-0.7v0.7c-0.5,0.8-0.7,1.3-0.7,1.6V38
		l1.6-0.9v0.5c0,0.3,0.2,0.5,0.7,0.5c0.9,0,1.4-0.3,1.6-0.9c0.1-0.6,0.2-1.1,0.2-1.6v-0.7H937h0.7c0.5-0.5,0.9-0.8,1.2-0.9
		c0.4-0.1,0.6-0.4,0.6-0.7l1.6,5.4c2.7,9.5,4.9,19.2,6.4,29.2c1.6,9.9,3.4,19.9,5.5,29.8c0,1.1-0.2,1.6-0.7,1.6
		c0.8,1.2,1.4,2.7,1.8,4.5c0.5,1.8,0.9,3.5,1.4,5.2c0.5,3.6,1,7.3,1.6,11.1c0.6,3.8,0.9,7.3,0.9,10.6
		C958.8,131.5,958.8,132.4,958,133.1z M904.7,11.3l-0.7,0.9h1.6h2.3v-0.9l0.9,0.9v-1.6h-0.9V9.7l-0.7,0.9h-0.9h-0.5
		c-0.2,0-0.3,0.1-0.5,0.2C905.2,11,905,11.2,904.7,11.3z M909.7,108.9c2,0.3,4.8,0.4,8.5,0.2c3.7-0.1,6.7-0.2,9.2-0.2
		c-1.2-7.2-2.5-14.4-3.7-21.5c-1.3-7.1-3-13.6-5.1-19.7c-1.7,6.5-3.4,13.1-5.1,20C911.7,94.7,910.4,101.7,909.7,108.9z M941.8,153.2
		h1.8h0.7l2.5,1.6l-0.9-2.5c-0.5-0.5-1.2-0.7-2.3-0.7h-0.9h-0.9l-1.6-0.9v0.9c0.5,0.8,0.8,1.2,0.9,1.4
		C941.2,153.2,941.5,153.2,941.8,153.2z"/>
	<path class="st0" d="M1067.9,78.2c0,8.6,0.1,16.9,0.3,24.9c0.2,8,0.3,16.6,0.3,26c0,3.2,0.1,6.1,0.3,8.8c0.2,2.7,0.1,5.1-0.3,7.2
		c-0.8,2.1-2,3.9-3.7,5.3c-1.7,1.4-3.4,3.2-5.1,5.3c-0.6,0.8-1.2,1.7-1.8,2.9c-0.6,1.2-1.2,2.4-1.9,3.5c-0.7,1.1-1.4,2.1-2,3.1
		c-0.7,0.9-1.5,1.4-2.4,1.6c-1.2,0.5-3,0.3-5.3-0.5c-2.3-0.8-4.6-1.1-6.7-1.1h-28.2c-2,0-4.2,0.1-6.7,0.3c-2.5,0.2-4.6,0.1-6.2-0.3
		c-0.8,0-1.2-0.1-1.5-0.2c-0.2-0.1-0.5-0.6-0.8-1.4v0.9c0-1.2-0.4-2.1-1.1-2.6c-0.8-0.5-1.5-1-2.3-1.5h-0.7v1.6v0.9
		c0,0.5,0.1,0.7,0.2,0.7h0.5v0.9c0.5,0,0.8,0.2,1.1,0.5c0.1,0.2,0.3,0.2,0.5,0.2h0.9l0.9-0.7c-0.5,0.3-0.9,0.6-1.5,1
		c-0.5,0.4-1.2,0.6-1.9,0.6c-0.8,0-1.4-0.3-2-1c-0.6-0.7-1.2-1.5-1.8-2.5c-0.6-1-1.2-2-1.7-2.9c-0.5-1-1.1-1.8-1.7-2.4
		c-0.6-1.2-1.4-2.3-2.3-3.3c-0.9-1-1.8-1.9-2.7-2.8c-0.9-0.9-1.7-1.8-2.5-2.8c-0.8-1-1.2-2.1-1.4-3.3c-0.8-1.2-1-2.7-0.7-4.5
		c0.3-1.8,0.5-3.8,0.7-5.9c0.3-9.5,0.1-19.6-0.5-30.4c-0.6-10.8-0.8-21.6-0.5-32.4c0.3-9.9,0.4-19.8,0.3-29.6
		c-0.1-9.8,0.1-20.3,0.6-31.6l33.9,2.3c0.1,6.5,0.1,12.9-0.2,19.3c-0.3,6.4-0.6,12.8-0.9,19.2c-0.3,6.4-0.5,12.7-0.6,19
		c-0.1,6.3,0.2,12.4,0.8,18.4c1.1,1.5,1.6,3.4,1.6,5.6c0,1.7-0.2,3.2-0.5,4.7c-0.3,1.5-0.7,3.1-1.1,4.7c-0.3,4.8-0.6,9.8-1,15
		c-0.4,5.2-0.6,10.4-0.6,15.7c1.8,0.5,4,0.7,6.4,0.8c2.5,0.1,5,0,7.7-0.1c2.6-0.1,5.2-0.3,7.8-0.5c2.6-0.1,4.9-0.2,7-0.2
		c-0.6-9.6-1.2-19.7-1.7-30.1c-0.5-10.4-0.9-20.8-1.1-31.3c-0.2-10.5-0.3-20.8-0.3-31.1c0-10.2,0.2-20,0.7-29.4
		c5.3-1.2,10.5-1.9,15.8-2.1c5.3-0.2,10.8-0.6,16.5-1c0.8,10.1,1.1,21,1,32.7C1067.9,54.1,1067.9,66,1067.9,78.2z M979.9,99.2
		c0.5,0,0.6-0.3,0.6-0.8c-0.1-0.5,0.3-0.8,1-0.8c0-0.6-0.5-0.9-1.6-0.9c0.5,0.5,0.6,0.9,0.3,1.2C980.1,98.3,979.9,98.8,979.9,99.2z
		 M981.5,117.7v-0.9c0-0.3-0.2-0.6-0.5-0.8c-0.3-0.2-0.7,0-1.1,0.8c0.5,0,0.8,0.2,0.9,0.5C981,117.6,981.2,117.7,981.5,117.7z
		 M981.5,94.5h-0.7V96c0.3,0,0.5-0.1,0.6-0.2C981.5,95.7,981.5,95.2,981.5,94.5z M999.4,78.2c-0.5,0-0.8,0.1-0.9,0.3
		c-0.2,0.2-0.4,0.1-0.7-0.3c0,0.8,0.3,1.1,1,1.1C999.5,79.3,999.7,79,999.4,78.2z M1000.1,113c0.5,0,0.8-0.2,0.9-0.6
		c0.1-0.4,0.5-0.8,0.9-1.2c-0.9,0-1.4-0.1-1.6-0.5c-0.2-0.3-0.2-0.7-0.2-1.1l-2.3-1.6c0,1.7,0.3,2.7,0.9,3.1
		C999.3,111.5,999.8,112.1,1000.1,113z"/>
	<path class="st0" d="M1168,9c0,5.3-0.1,10.5-0.2,15.6c-0.2,5.1-0.1,10.1,0.2,14.9c-3.8-1.5-7.9-2.5-12.3-3.1
		c-4.4-0.5-9-0.8-13.8-0.8s-9.5,0.1-14.4,0.3c-4.8,0.2-9.6,0.3-14.2,0.3c-0.5,5.3-0.5,10.5-0.2,15.6c0.3,5.1,0.6,10.1,0.9,14.9
		c5.7,1.7,11.7,2.2,18,1.6c6.2-0.6,12.6-1.1,19.1-1.6c0.1,2.1,0.2,4.6,0.1,7.3c-0.1,2.8-0.1,5.6-0.1,8.6s0,5.8,0.1,8.7
		c0.1,2.9,0.3,5.4,0.8,7.7c-6.5,0.8-12.8,1-19.1,0.7c-6.3-0.3-12.5-0.3-18.9,0c0.8,11.3,1,22.9,0.7,34.7
		c-0.3,11.8-0.2,22.9,0.2,33.3c-5.7,0-10.8,0.1-15.3,0.2c-4.4,0.1-9.1,0.1-13.9-0.2c-0.9-11.6-1.4-22.7-1.5-33.3
		c-0.1-10.6-0.1-22.4-0.1-35.4c0-2.1-0.1-4.1-0.2-6.1c-0.2-2-0.1-4,0.2-6.1c0-1.7,0.3-3.1,0.8-4.4c0.5-1.3,0.8-2.7,0.8-4.4
		c0-0.8-0.2-1.4-0.5-1.9c-0.3-0.5-0.7-1.2-1.1-2.1c0-2.4,0.2-4.9,0.6-7.6c0.4-2.6,0.2-5.2-0.6-7.6c0.5-4.1,0.8-7.8,0.9-11.3
		c0.1-3.5,0.3-6.9,0.3-10.2c0.1-3.3,0.1-6.7,0.1-10.1s0.1-7.1,0.2-11.2c-0.3-0.9-0.1-1.3,0.6-1.2c0.7,0.1,1-0.1,1-0.6
		c-0.8-2.3-0.8-4.7,0-7.2c5.7-1.2,11.9-1.8,18.4-1.9c6.6-0.1,13.1,0,19.5,0.3c7.2,0.5,14.5,0.6,21.9,0.6
		C1154.6,6.1,1161.5,7.1,1168,9z M1089.8,166.8c0,0.5,0.2,0.6,0.6,0.3c0.4-0.2,0.7-0.3,1-0.3c-0.3,0-0.6-0.1-1-0.2
		C1090,166.4,1089.8,166.5,1089.8,166.8z M1091.4,6.6v0.7h0.9c0,0.5,0.1,0.5,0.3,0.2c0.2-0.3,0.3-0.6,0.3-0.9
		c-0.3-0.5-0.6-0.5-1-0.1C1091.6,6.8,1091.4,6.9,1091.4,6.6z M1101.1,159.6c0.5,0.5,0.8,0.6,0.9,0.3c0.1-0.2,0.4-0.3,0.7-0.3
		c0-1.2-0.3-1.9-1-2c-0.7-0.1-1.4-0.2-2.1-0.2c0.3,0.8,0.4,1.4,0.3,1.8c-0.1,0.5,0,0.9,0.3,1.4c-0.2,0-0.3,0.1-0.5,0.2
		c-0.2,0.2-0.2,0.6-0.2,1.4c0.8,0,1.2-0.2,1.4-0.6C1101,161.1,1101.1,160.5,1101.1,159.6z"/>
	<path class="st0" d="M1336.3,160.5c0,1.7,0.2,3.1,0.6,4.3c0.4,1.2,0.2,2.2-0.6,2.9c-4.1,0-8.2,0-12.3,0.1c-4.1,0.1-7.8-0.3-11-1
		c0-0.5-0.3-0.7-0.9-0.7h-0.9h-0.7v0.7c-0.6,0.6-1.7,0.9-3.2,0.9c-0.5-0.5-1.1-0.5-2-0.2c-0.9,0.3-1.4,0.1-1.4-0.7
		c-1.7,0.5-3.4,0.9-5.2,1.4c-1.8,0.5-3.3,0.3-4.5-0.5c-0.3,0-0.7,0-1.1,0.1c-0.5,0.1-0.8,0.1-1.1,0.1c-6.9,0.3-13.3,0.4-19.1,0.2
		c-5.8-0.2-11.6-0.2-17.3-0.2c-0.8-8.1-1.3-15.9-1.7-23.2c-0.4-7.3-0.3-14.4,0.1-21.4c0.5-5.7,0.5-11.5,0.1-17.3
		c-0.4-5.8-0.4-11.3-0.1-16.6c0.1-1.7,0.4-3.2,0.7-4.7c0.3-1.5,0.6-2.9,0.9-4.1c-0.6-1.8-0.9-3.5-1-5.2c-0.1-1.7,0-3.3,0.1-5
		c0.1-1.7,0.2-3.4,0.2-5.1c0-1.7-0.3-3.7-0.9-5.8c0.8-3.8,1.1-8.1,1.1-12.9c0-4.8-0.1-9.7-0.2-14.6c-0.2-4.9-0.1-9.6,0.1-14.1
		s0.9-8.4,2.1-11.5c2.9,0,5.7,0,8.5-0.1c2.8-0.1,5.6-0.3,8.5-0.8c5-0.1,10.2-0.3,15.7-0.5c5.5-0.1,11-0.2,16.4-0.1
		c5.4,0.1,10.8,0.3,16,0.8c5.3,0.5,10.2,1.2,14.9,2.3c0,4.8-0.2,10-0.5,15.6c-0.3,5.6-0.5,10.5-0.5,14.9c-3.6-1.8-7.5-2.9-11.8-3.3
		c-4.2-0.4-8.6-0.5-13.1-0.2c-4.5,0.2-9,0.5-13.6,0.9c-4.5,0.4-8.9,0.5-13.1,0.3c-0.9,5.3-1.2,10.8-1,16.7c0.2,5.9,0.6,11,1,15.4
		c2,0.5,4.2,0.4,6.7-0.1c2.5-0.5,4.8-0.2,6.9,1c0.5-0.5,0.5-0.7,0.1-0.8c-0.4-0.1-0.9-0.1-1.7-0.1c0.5-0.3,1.1-0.4,1.8-0.3
		c0.8,0.1,1,0.5,0.7,1.2c2.9-1.7,6.3-2.5,10.2-2.6c3.9-0.1,7.5-0.3,10.8-0.6c0.5,2.9,0.6,5.6,0.6,8.1c-0.1,2.6-0.2,5.1-0.2,7.7
		c-0.1,2.6-0.2,5.2-0.2,7.8c-0.1,2.6,0.1,5.5,0.6,8.5c-6.5,0.5-12.4,0.8-17.9,1.1c-5.4,0.3-11.5,0.5-18.3,0.5
		c0.8,6.3,0.8,12.5,0.2,18.6c-0.6,6.1-0.7,12.3-0.2,18.6c9.6,0,18.9,0.1,27.9,0.2c9,0.2,17.1,0.1,24.5-0.2c0.3,3.2,0.1,6.9-0.6,11.3
		C1336,152.9,1335.9,156.8,1336.3,160.5z M1266.1,112.1c-0.5,0.8-0.7,1.3-0.7,1.6h1.6C1267,112.6,1266.7,112.1,1266.1,112.1z
		 M1267,116.8c0,0.5,0.4,0.7,1.2,0.7c0.8,0,1.2-0.2,1.2-0.7c-0.5-0.3-0.9-0.4-1.2-0.2C1267.8,116.8,1267.4,116.8,1267,116.8z
		 M1269.4,87c0.5,0,1-0.1,1.6-0.3c0.6-0.2,1.2-0.5,1.7-0.9c0.5-0.4,0.9-0.8,1.1-1.2c0.2-0.5,0.1-0.9-0.3-1.4
		c-0.9,0.8-1.7,1.4-2.5,1.9C1270.3,85.6,1269.7,86.3,1269.4,87z M1271,96c0,1.1,0.5,1.6,1.6,1.6c0.5-0.5,0.5-0.9,0.1-1.5
		C1272.3,95.6,1271.8,95.6,1271,96z M1272.6,146c0.5,0.3,1,0.3,1.6,0c0.6-0.3,0.9-0.8,0.9-1.6c-0.8,0.3-1.2,0.1-1.5-0.6
		c-0.2-0.7-0.6-1-1-1c-0.5,0.8-0.4,1.4,0.2,1.8C1273.4,145.1,1273.4,145.5,1272.6,146z M1290.5,26.7c-0.6,0-0.9,0.2-0.9,0.5
		c-0.2,0.2-0.2,0.3,0,0.5c0.6,0,0.9,0.5,0.9,1.6c0.5,0,1-0.3,1.6-0.9c-0.5-0.3-0.8-0.5-1.1-0.5C1290.6,27.8,1290.5,27.4,1290.5,26.7
		z M1298.4,9.7c-0.3,0-0.6,0.1-1,0.2c-0.4,0.2-0.6,0.6-0.6,1.4c0.5,0.5,0.9,0.5,1.5,0.1C1298.8,11,1298.8,10.5,1298.4,9.7z
		 M1300.9,21c0,0.5-0.2,0.9-0.5,1.2c-0.3,0.4-0.5,0.8-0.5,1.2c0.9-0.5,1.5-0.6,1.7-0.5c0.2,0.2,0.5,0,0.8-0.5h-0.5
		c-0.2,0-0.2-0.2-0.2-0.7c-0.2-0.1-0.2-0.3-0.2-0.5C1301.2,21.2,1301,21,1300.9,21z M1302.4,25.1h-2.5c0,0.8,0.5,1.2,1.6,1.5
		C1302.6,26.8,1302.9,26.3,1302.4,25.1z M1305.6,20.1c-0.8-0.3-1.4-0.2-1.8,0.3c-0.5,0.5-0.9,1-1.4,1.5c0.5,0,0.6,0.3,0.6,0.8
		c-0.1,0.5,0.3,0.8,1,0.8c0.5-0.5,0.8-0.9,1.1-1.4C1305.5,21.7,1305.6,21,1305.6,20.1z M1304,17v1.6c0.5,0,1,0,1.6-0.1
		c0.6-0.1,0.9-0.3,0.9-0.6c-0.5,0-0.8-0.1-1-0.5C1305.3,17.1,1304.8,17,1304,17z M1307.2,23.5c0,0.8,0.1,1.1,0.5,0.9
		c0.3-0.1,0.7-0.2,1.1-0.2C1308.8,23.7,1308.2,23.5,1307.2,23.5z"/>
	<path class="st0" d="M1462.9,84.8c0.6-12.5,0.8-24.4,0.6-35.8c-0.2-11.4-0.1-23.1,0.3-35.1l33-2.5c-0.3,14.2-0.5,28-0.6,41.5
		c-0.1,13.5-0.1,27.1-0.1,40.8v-0.9h-1.6c-0.2,0.2-0.3,0.2-0.5,0.2c-0.3,0.3-0.5,0.5-0.5,0.7c-0.5,0.5-0.7,1-0.7,1.6
		c0,0.6,0.2,0.9,0.7,0.9l0.9,0.7l0.7-0.7v-0.9c0-0.5,0.3-0.7,0.9-0.7v-0.9v30.5c0,3.8,0,7.3-0.1,10.6c-0.1,3.3-0.3,6.8-0.8,10.4
		c-1.4,1.7-2,3.4-1.9,5.1c0.1,1.7,0.3,3.5,0.7,5.2c0.4,1.7,0.6,3.4,0.7,5.1c0.1,1.7-0.6,3.2-1.9,4.7c-3,0-7.5,0-13.3,0.1
		c-5.9,0.1-11.8,0.2-17.9,0.3c-6,0.2-11.3,0.3-15.9,0.3c-4.6,0.1-7.1,0.1-7.6,0.1c-0.8-0.1-2.3-0.2-4.7-0.2c-2.4,0-5,0-7.8,0.1
		c-2.8,0.1-5.4,0.2-7.9,0.3c-2.5,0.2-4,0.3-4.6,0.5c-0.8,0-1.8-0.1-3.3-0.5c-1.4-0.3-2.8-0.4-4-0.2c-3,0.2-6,0.2-8.9,0
		c-2.9-0.1-5.9-0.3-8.8-0.5c-2.9-0.1-5.8-0.2-8.7-0.1c-2.9,0.1-5.7,0.5-8.4,1.2c-1.7-1.2-2.8-2.7-3.5-4.5s-1.6-3.8-2.8-5.9
		c-1.2-1.7-2.9-3.3-5.2-4.9c-2.3-1.6-3.8-3.4-4.5-5.5c-0.5-1.7-0.5-3.4-0.1-5.3c0.4-1.9,0.6-3.7,0.8-5.3c0.3-3.9,0.4-8.2,0.2-12.8
		c-0.2-4.6-0.2-8.9-0.2-13c0-1.2-0.3-2.4-0.8-3.6c-0.5-1.2-0.8-2.4-0.8-3.6c-0.3-6.8,0-13.6,0.8-20.5c0.8-6.9,0.9-12.9,0.1-18.2
		c0.3-0.8,0.6-1.1,0.9-1.1c0.3,0,0.2-0.1-0.2-0.5c1.2-0.5,1.4-0.6,0.6-0.6c-0.8,0.1-1.2-0.3-1.2-1V12.2v-0.5c0-0.3,0.2-0.5,0.7-0.5
		c2.4,0,5,0.2,7.9,0.5c2.9,0.3,5.8,0.6,8.7,0.9c2.9,0.3,5.8,0.6,8.7,1c2.9,0.4,5.5,0.6,7.9,0.8c0,4.5,0.1,9,0.5,13.6
		c0.3,4.5-0.2,8.4-1.4,11.5c0.5,14.2,0.5,27.5,0.2,40.1c-0.3,12.6-0.9,25-1.8,37.2c-0.3,3.6-0.6,6.9-0.8,9.9c-0.2,3,0,6.2,0.8,9.5
		c4.1,0.8,8.3,0.8,12.7,0c4.4-0.8,8.7-1.3,13.1-1.6c0-6.3,0-12.9-0.1-19.7c-0.1-6.8-0.3-13.4-0.6-19.9c-0.3-7.2-0.4-14.4-0.3-21.4
		c0.1-7-0.1-14.1-0.6-21.4c-0.2-3.6-0.3-6.9-0.3-9.8c-0.1-2.9-0.2-5.9-0.2-8.8c-0.1-2.9-0.1-5.9-0.1-8.9c0-3,0-6.5,0-10.4
		c4.8-1.2,9.9-1.6,15.4-1.2c5.4,0.4,11,0.6,16.7,0.6c-0.2,10.8-0.3,21.2-0.5,31.1c-0.2,9.9-0.3,19.6-0.6,29.3
		c-0.2,9.6-0.6,19.4-1,29.2c-0.5,9.8-1.1,20-1.8,30.5c1.8,0.3,4,0.6,6.4,0.9c2.5,0.3,5,0.5,7.5,0.7c2.5,0.2,4.9,0.2,7.2,0.1
		c2.3-0.1,4.4-0.3,6.2-0.8c0-5.3-0.3-10.5-1-15.7c-0.7-5.2-1.2-10.4-1.5-15.7c-0.2-1.7-0.5-3.1-0.9-4.4c-0.5-1.3-0.7-2.7-0.7-4.4
		c0.3-1.5,0.6-3.1,0.9-4.6C1462.5,88.3,1462.8,86.6,1462.9,84.8z M1366.2,49.3c-0.5-0.5-0.6-0.8-0.3-0.9c0.2-0.1,0.3-0.4,0.3-0.7
		c-1.7,0.8-2.5,1.8-2.5,3.2c0.6,0.3,0.9,0.3,1,0.1c0.1-0.2,0.1-0.5,0.1-0.8c0-0.3,0.1-0.6,0.2-0.8
		C1365.2,49.2,1365.6,49.1,1366.2,49.3z M1367.8,45.2h-0.9c0,0.8,0.1,1.5,0.3,2.1c0.2,0.7,0.9,1,2.1,1v-1.6c-0.3,0-0.5-0.1-0.7-0.5
		C1368.5,46,1368.2,45.7,1367.8,45.2z M1368.7,115.3c1.7-0.3,3-1.3,4-2.9c1-1.7,1.2-3.3,0.8-5c-0.5,0.3-0.9,0.4-1.4,0.2
		c-0.5-0.1-1.1-0.2-1.8-0.2c0,0.3,0,0.8-0.1,1.4c-0.1,0.6-0.3,0.9-0.8,0.9c0.5,0.8,0.4,1.4-0.1,2c-0.5,0.6-1,1.3-1.5,2
		c0.5,0,0.8,0.2,1,0.6C1369,114.6,1369,115,1368.7,115.3z M1368.7,153.9c-0.5,0.5-0.3,0.8,0.5,1.1c0.8,0.3,1.1,0.2,1.1-0.2
		c-0.5,0-0.8-0.1-0.9-0.5C1369.2,154.1,1369,153.9,1368.7,153.9z M1369.3,42c0,0.5,0.5,0.7,1.6,0.7h0.5c0.3,0,0.5-0.2,0.5-0.7
		c-0.5-0.5-0.9-0.6-1.2-0.3C1370.2,41.9,1369.8,42,1369.3,42z M1373.4,62.1c-0.8-0.5-1.5-0.5-2.3-0.2c-0.8,0.3-1.4,0.6-1.8,0.9
		c0,0.9,0.1,1.5,0.5,1.7c0.3,0.2,0.5,0.5,0.5,0.8c0.8-0.3,1.4-0.7,1.8-1.2C1372.5,63.5,1373,62.9,1373.4,62.1z M1371.4,46.1h0.5
		v-0.9h-0.9c-0.2,0.2-0.2,0.5-0.2,0.9s0.1,0.7,0.2,0.7C1370.9,46.3,1371.1,46.1,1371.4,46.1z M1377.5,153.9c0.3-0.8,0.4-1.2,0.2-1.5
		c-0.2-0.2-0.2-0.5-0.2-0.8c-0.5,0-0.9,0.1-1.2,0.2c-0.4,0.2-0.8,0.1-1.2-0.2c0.5,0.8,0.5,1.4,0.1,1.9c-0.4,0.5-0.4,1.2-0.1,2.1
		c0.5-0.5,0.8-1.1,1-1.8C1376.2,153.2,1376.7,153.2,1377.5,153.9z"/>
	<path class="st0" d="M1570.7,142.8l1.8,24.9c-11.3-0.9-22.1-1.1-32.4-0.5c-10.3,0.6-20.5,0.8-30.6,0.5c0-5.3,0.1-10.6,0.2-15.9
		c0.1-5.3,0.6-10.2,1.4-14.6c1.7-0.5,3.4-0.5,5.3-0.1c1.9,0.4,3.7,0.4,5.3,0.1c0.3-5.3,0.6-10.1,1-14.6c0.4-4.4,0.6-9.3,0.6-14.6
		c0.3-0.8,0.8-0.8,1.5-0.2c0.7,0.6,1.2,0.7,1.7,0.2c0-0.6-0.2-1-0.5-1.1c-0.3-0.1-0.7-0.3-1.1-0.3c-0.5-0.1-0.8-0.1-1.1-0.2
		c-0.3-0.1-0.5-0.3-0.5-0.8c0.3-6.8,0.5-13.8,0.6-21c0.1-7.2,0.1-14.7,0.1-22.4c0-0.6,0.5-0.9,1.6-0.9c0-0.8-0.3-1.1-0.8-1
		c-0.5,0.1-0.8-0.1-0.8-0.6c0-1.2,0-2.3,0.1-3.4c0.1-1.1,0.3-1.8,0.8-2.3c-0.8-2.1-0.9-4.5-0.6-7.2c0.4-2.7,0.6-5.6,0.6-8.8
		c-1.7-0.3-4-0.3-7,0c-3,0.3-5.5,0.3-7.5,0l1.6-29.8c6.5-0.5,13.8-0.5,21.9-0.1c8.1,0.4,15.9,0.1,23.3-0.8c2.9-0.3,5.5-0.6,7.8-1
		c2.3-0.4,5.1-0.6,8.2-0.6V38h-19.4c-0.3,15.5-0.6,31.5-1,47.8c-0.4,16.3-0.6,33.2-0.6,50.5c3.3,0.5,6.5,0.6,9.6,0.3
		c3.1-0.2,6.1-0.3,8.9-0.3v4.7h-1.6h-0.7v0.9c0,0.8,0.1,1.2,0.3,1.5c0.2,0.2,0.3,0.6,0.3,1h0.9v-0.9h0.2
		C1570.6,143.5,1570.7,143.3,1570.7,142.8z M1530.5,27.6c0.3,0.3,0.6,0.4,1,0.3c0.4-0.1,0.6-0.5,0.6-1.2c0,0.5-0.3,0.6-0.8,0.5
		C1530.7,27,1530.5,27.1,1530.5,27.6z M1539.3,14.5h-1.6c0,0.9,0.4,1.4,1.1,1.4C1539.6,15.8,1539.7,15.4,1539.3,14.5z M1540.2,46.1
		l-2.5-1.8c0,1.7,0.3,2.7,0.9,3.2c0.6,0.5,1.1,1.1,1.6,1.8c0.3,0,0.5-0.2,0.7-0.6c0.1-0.4,0.5-0.7,0.9-1c-0.8,0-1.2-0.2-1.4-0.6
		C1540.3,46.7,1540.2,46.4,1540.2,46.1z M1540.2,92c0.8,0.3,1.2,0.2,1.4-0.3c0.1-0.5,0.2-0.9,0.2-1.2c-0.8,0-1.2,0.2-1.4,0.5
		C1540.3,91.2,1540.2,91.5,1540.2,92z M1545.8,51.8c0.3,0.3,0.6,0.3,1,0.1c0.4-0.2,0.6-0.6,0.6-1c-0.8-0.5-1.2-0.5-1.4-0.2
		C1545.9,50.9,1545.8,51.3,1545.8,51.8z M1547.4,54.9v-1.6c-0.5,0-0.8,0.1-0.9,0.3c-0.2,0.2-0.4,0.3-0.7,0.3
		C1545.8,54.6,1546.4,54.9,1547.4,54.9z M1548.1,29.8c0.5,0.5,1,0.6,1.6,0.6c0.6-0.1,0.9-0.5,0.9-1.2c-0.3-0.5-0.8-0.5-1.5-0.2
		C1548.4,29.2,1548.1,29.5,1548.1,29.8z M1551.5,155.7c1.1,0,1.6-0.3,1.6-0.9l-0.9-0.9c0,0.5-0.1,0.8-0.3,0.9
		C1551.6,155,1551.5,155.3,1551.5,155.7z M1557.8,17h-1.6v0.9c0-0.5,0.3-0.6,0.8-0.5C1557.6,17.6,1557.8,17.4,1557.8,17z
		 M1558.7,158c0.3-0.3,0.6-0.6,1-0.8c0.4-0.2,0.6-0.7,0.6-1.5c-0.8,0-1.3,0.3-1.7,0.9C1558.2,157.2,1558.3,157.7,1558.7,158z"/>
	<path class="st0" d="M1707,144.4v4.7v18.5c-5.7,0-11.6,0.2-17.5,0.7c-6,0.5-11.9,0.3-18-0.5c-2.6-0.3-5.2-0.3-7.9-0.1
		c-2.7,0.2-5.5,0.2-8.4-0.1c-7.2,0-15,0-23.2,0.1c-8.2,0.1-15.8,0.1-22.7,0.1c-0.6,0-2,0-4.2,0.1c-2.2,0.1-4.5,0.1-7,0.2
		c-2.5,0.1-4.7,0.1-6.8,0.1s-3.3-0.2-3.7-0.5c-0.9,0-1.4-0.8-1.6-2.5c-0.2-1.7-0.2-3.5-0.1-5.7c0.1-2.1,0.2-4.3,0.5-6.4
		c0.2-2.2,0.3-3.9,0.3-5.1c-0.5-3.2-0.6-6.2-0.5-9c0.1-2.9,0.3-5.7,0.5-8.6c0.5-7.1,0.8-14.5,1-22.4c0.2-7.8,0.4-15.7,0.5-23.5
		c0.1-7.8,0.1-15.5,0.1-22.9s0-14.4,0-20.7c0-1.2,0-3.3-0.1-6.2c-0.1-2.9-0.1-6-0.1-9.2c0-3.2,0-6.1,0-8.7c0-2.6,0.1-4.3,0.2-4.9
		c0.1-0.8,1-1.2,2.6-1.5s3.4-0.4,5.3-0.6c2-0.1,3.8-0.3,5.5-0.6c1.7-0.2,2.9-0.7,3.5-1.5L1674,5h9.5c-0.2,2.4-0.4,5-0.7,7.7
		c-0.3,2.7-0.5,5.5-0.7,8.2c-0.2,2.8-0.2,5.5,0,8.1c0.1,2.6,0.6,5.1,1.4,7.3c-2,0.8-3.9,1.2-5.8,1.4c-1.9,0.2-4.3,0.2-7.1,0.2
		c-8.7-0.9-16.9-1.3-24.4-1.1c-7.5,0.2-15.5,0.2-24,0.2c-0.3,6.5,0,13.1,0.8,20c0.8,6.9,0.9,13.9,0.1,21.1c-0.8,3.3-1.4,6.6-1.8,9.8
		c-0.5,3.2,0.1,5.9,1.8,8c-1.7,7.2-2.7,14.1-3.2,20.5c-0.5,6.4-1.1,13.3-1.8,20.7c3.6,1.2,7.5,1.8,11.5,1.9c4.1,0.1,8.3,0,12.7-0.3
		c5.3-0.3,10.5-0.6,15.6-1c5.1-0.4,9.9-1.2,14.2-2.4c-0.3-5.3-0.2-10,0.2-14.2c0.5-4.2,0.7-8.3,0.7-12.2c0-0.6,0.5-0.9,1.6-0.9
		c-1.2-0.3-1.6-0.9-1.1-1.7c0.5-0.8,0.3-1.8-0.5-3.1h-13.8v-1.6h-3.2v0.7l0.9,0.9h-21c0-1.8,0-4.1,0.1-6.9c0.1-2.8,0.1-5.7,0.2-8.7
		c0.1-3,0.1-6,0.2-8.9c0.1-2.9,0.1-5.5,0.1-7.8c8.1,0,16.8,0.3,26.1,0.9c9.3,0.6,18.6,1.1,28.1,1.6l16,22.6c0,8.6,0,16.5,0.1,23.7
		c0.1,7.2,0.3,14.9,0.8,23.1c-0.6,0.5-1.1,0.6-1.5,0.6c-0.4-0.1-0.7-0.2-0.9-0.5c-0.2-0.2-0.5-0.4-0.7-0.6c-0.2-0.1-0.6,0-1,0.5
		c0,0.8,0.1,1.2,0.5,1.4c0.3,0.2,0.7,0.2,1.1,0c0.5-0.1,0.8-0.3,1.1-0.3C1706.8,143.8,1707,144,1707,144.4z M1608.4,62.1l-1.6-1.6
		c0,0.8-0.1,1.2-0.3,1.5c-0.2,0.2-0.3,0.5-0.3,0.8c0.3,0.5,0.6,0.3,0.8-0.3C1607.2,61.8,1607.7,61.7,1608.4,62.1z M1606.2,160.5
		c0.3,0,0.7-0.1,1.1-0.5c0.5-0.3,0.8-0.5,1.1-0.5c-0.3-0.3-0.6-0.5-1-0.5c-0.4,0-0.6-0.4-0.6-1.1c-0.5,0-0.7,0.3-0.7,0.9
		c0.3,0,0.4,0.2,0.2,0.5C1606.3,159.6,1606.2,160,1606.2,160.5z M1614.1,71h-2.3c0.5,0.6,1,0.9,1.6,0.9c0,0.2,0.1,0.2,0.2,0
		C1613.9,71.9,1614.1,71.6,1614.1,71z M1612.5,141.9c0.5,0.5,1,0.6,1.6,0.6c0.6-0.1,0.9-0.6,0.9-1.5c-0.5,0-1,0-1.6,0.1
		C1612.8,141.2,1612.5,141.5,1612.5,141.9z M1617.5,153.2v-0.9c-0.5,0.5-0.7,0.8-0.8,1c-0.1,0.2-0.1,0.7-0.1,1.5
		c0.5-0.5,0.9-0.6,1.2-0.5c0.4,0.2,0.8,0,1.2-0.5c0-0.3-0.3-0.4-0.8-0.3C1617.7,153.6,1617.5,153.5,1617.5,153.2z M1616.6,156.4
		c0,0.5,0.5,0.8,1.5,0.9c1,0.2,1.3-0.1,1-0.9c-0.5-0.3-0.8-0.4-1-0.2C1617.8,156.3,1617.3,156.4,1616.6,156.4z M1620.6,154.8
		c0.5-0.5,0.8-0.9,1.1-1.4c0.3-0.5,0.5-1.1,0.5-1.8c-0.8-0.8-1.4-0.9-1.9-0.5c-0.5,0.5-0.9,0.8-1.2,1.1c0.3,0.5,0.5,1,0.5,1.6
		C1619.5,154.5,1619.9,154.8,1620.6,154.8z M1620.6,148.3v0.9c0.5,0.5,1,0.7,1.6,0.7c0.6,0,0.9-0.2,0.9-0.7c-0.5,0-0.8-0.1-1-0.5
		C1621.9,148.4,1621.4,148.3,1620.6,148.3z M1623.8,154.8c0,0.6,0.5,0.9,1.6,0.9C1625.4,155.1,1624.9,154.8,1623.8,154.8z
		 M1636.7,164.5c0,0.3,0.4,0.3,1.2,0.1c0.8-0.2,1.2-0.6,1.2-1c-0.5,0-1,0-1.6,0.1C1637,163.8,1636.7,164.1,1636.7,164.5z
		 M1639.2,146c0,0.3,0.4,0.5,1.2,0.5c0.8,0,1.2-0.1,1.2-0.5c-0.5,0-0.8-0.1-0.9-0.2c-0.3,0-0.6,0-0.8-0.1
		C1639.7,145.6,1639.5,145.7,1639.2,146z M1652.1,152.3h0.9c0.3,0,0.5-0.3,0.5-0.8c0-0.5-0.2-0.8-0.5-0.8c-0.5,0.5-0.8,0.8-1,0.9
		C1651.7,151.8,1651.8,152,1652.1,152.3z M1652.1,150.7c1.5-0.6,2.6-1.7,3.2-3.2c-0.8,0-1.5,0.3-2.1,1
		C1652.4,149.3,1652.1,150,1652.1,150.7z M1668.3,141.9c0.8,0,1.2-0.1,1.4-0.2c0.1-0.1,0.2-0.6,0.2-1.4h-0.9c0,0.3-0.1,0.5-0.3,0.7
		C1668.4,141.2,1668.3,141.5,1668.3,141.9z M1669,163.6c0-0.5,0.1-0.7,0.5-0.7h0.5c-0.5-0.5-0.8-0.8-1.1-0.9
		c-0.3-0.1-0.5,0.2-0.5,0.9c0.3,0,0.4,0.1,0.3,0.3C1668.6,163.5,1668.7,163.6,1669,163.6z M1678.7,137.2c0,0.3,0.3,0.4,0.8,0.3
		c0.5-0.1,0.8-0.5,0.8-1.2c-0.3,0.5-0.6,0.6-1,0.5C1678.9,136.6,1678.7,136.7,1678.7,137.2z"/>
</g>
</svg>
