<?xml version="1.0" encoding="utf-8"?>
<!-- Generator: Adobe Illustrator 22.0.1, SVG Export Plug-In . SVG Version: 6.00 Build 0)  -->
<svg version="1.1" id="Layer_1" xmlns="http://www.w3.org/2000/svg" xmlns:xlink="http://www.w3.org/1999/xlink" x="0px" y="0px"
	 viewBox="0 0 2131.4 168.7" style="enable-background:new 0 0 2131.4 168.7;" xml:space="preserve">
<style type="text/css">
	.st0{fill:#FFFFFF;}
</style>
<g>
	<path class="st0" d="M84.1,9c0,5.3-0.1,10.5-0.2,15.6c-0.2,5.1-0.1,10.1,0.2,14.9c-3.8-1.5-7.9-2.5-12.3-3.1
		c-4.4-0.5-9-0.8-13.8-0.8c-4.7,0-9.5,0.1-14.4,0.3c-4.8,0.2-9.6,0.3-14.2,0.3C29,41.7,28.9,46.9,29.2,52c0.3,5.1,0.6,10.1,0.9,14.9
		c5.7,1.7,11.7,2.2,18,1.6c6.2-0.6,12.6-1.1,19.1-1.6c0.1,2.1,0.2,4.6,0.1,7.3c-0.1,2.8-0.1,5.7-0.1,8.6c0,2.9,0,5.8,0.1,8.7
		c0.1,2.9,0.3,5.4,0.8,7.7c-6.5,0.8-12.8,1-19.1,0.7c-6.3-0.3-12.5-0.3-18.9,0c0.8,11.3,1,22.9,0.7,34.7
		c-0.3,11.8-0.2,22.9,0.2,33.3c-5.7,0-10.8,0.1-15.3,0.2c-4.4,0.1-9.1,0.1-13.9-0.2c-0.9-11.6-1.4-22.7-1.5-33.3
		C0.3,124,0.3,112.2,0.3,99.2c0-2.1-0.1-4.1-0.2-6.1c-0.2-2-0.1-4,0.2-6.1c0-1.7,0.3-3.1,0.8-4.4c0.5-1.3,0.8-2.7,0.8-4.4
		c0-0.8-0.2-1.4-0.5-1.9c-0.3-0.5-0.7-1.2-1.1-2.1c0-2.4,0.2-4.9,0.6-7.6c0.4-2.6,0.2-5.2-0.6-7.6c0.5-4.1,0.8-7.8,0.9-11.3
		c0.1-3.5,0.3-6.9,0.3-10.2c0.1-3.3,0.1-6.7,0.1-10.1c0-3.4,0.1-7.1,0.2-11.2C1.6,15.4,1.8,15,2.4,15c0.7,0.1,1-0.1,1-0.6
		c-0.8-2.3-0.8-4.7,0-7.2C9.2,6,15.3,5.4,21.9,5.3c6.6-0.1,13.1,0,19.5,0.3C48.7,6.1,56,6.3,63.4,6.2C70.7,6.1,77.7,7.1,84.1,9z
		 M6,166.8c0,0.5,0.2,0.6,0.6,0.3c0.4-0.2,0.7-0.3,1-0.3c-0.3,0-0.6-0.1-1-0.2C6.1,166.4,6,166.5,6,166.8z M7.5,6.6v0.7h0.9
		c0,0.5,0.1,0.5,0.3,0.2C9,7.2,9.1,6.9,9.1,6.6c-0.3-0.5-0.6-0.5-1-0.1C7.7,6.8,7.5,6.9,7.5,6.6z M17.3,159.6
		c0.5,0.5,0.8,0.6,0.9,0.3c0.1-0.2,0.4-0.3,0.7-0.3c0-1.2-0.3-1.9-1-2c-0.7-0.1-1.4-0.2-2.1-0.2c0.3,0.8,0.4,1.4,0.3,1.8
		c-0.1,0.5,0,0.9,0.3,1.4c-0.2,0-0.3,0.1-0.5,0.2c-0.2,0.2-0.2,0.6-0.2,1.4c0.8,0,1.2-0.2,1.4-0.6C17.2,161.1,17.3,160.5,17.3,159.6
		z"/>
	<path class="st0" d="M180.4,71.9c-0.2,1.2,0,2.3,0.3,3.3c0.4,1,0.8,2.3,1.2,4c0,2.4-0.2,4.9-0.5,7.6c-0.3,2.6-0.5,5.2-0.5,7.8
		c0,4.4,0,8.8,0,13.3c0,4.5-0.2,9.4-0.7,14.7c-0.3,3.3-0.5,6.3-0.7,8.8c-0.2,2.6,0.1,5.3,0.7,8.1c0,0.5,0.1,1,0.3,1.7
		c0.2,0.7,0.3,1.2,0.3,1.7c0,1.2-0.3,2.4-0.8,3.6c-0.5,1.2-0.8,2.4-0.8,3.6c-0.3,2.9-0.2,5.8,0.5,8.8c0.6,3,0.8,6,0.5,8.8
		c-1.2,0.3-2,0.2-2.4-0.2c-0.4-0.5-0.9-0.7-1.7-0.7c-4.1,0-7.8-0.4-11.1-1.1c-3.3-0.8-6.6-1.1-9.9-1.1c-2.9,0.3-5.8,0.7-8.8,1.1
		c-3,0.5-6,0.3-8.8-0.5c-0.3-0.1-0.5-0.5-0.5-1.1c0-0.6-0.1-1.2-0.2-1.9c-0.2-0.7-0.3-1.4-0.6-2c-0.2-0.7-0.6-1.1-1.2-1.2
		c0.8-0.5,1-1.3,0.8-2.6c-0.2-1.3-0.5-2.3-0.8-3.1c0.8-1.2,0.9-2.6,0.6-4.2c-0.4-1.6-0.6-3.4-0.6-5.5c0-1.2,0.1-2.2,0.3-3.1
		c0.2-0.8,0.3-1.4,0.3-1.7c-0.3-1.2-0.8-1.8-1.4-1.9c-0.6-0.1-0.9-0.6-0.9-1.5c3.2-0.8,6.3-1.1,9.3-0.9c3,0.2,5.6,0.2,7.7,0.2
		c0.8-1.2,1-2.4,0.8-3.7c-0.2-1.3,0-1.9,0.8-1.9c-0.8-4.8-1-10.4-0.8-16.8c0.2-6.4,0.2-12.6-0.1-18.6c-0.5-9.9-0.9-19.5-1.4-28.8
		c-0.5-9.3-0.5-18.2-0.2-26.8c-2.6-0.8-4.7-1.2-6.6-1.2c-1.8-0.1-3.6,0-5.3,0.1c-1.7,0.2-3.5,0.4-5.4,0.7c-1.9,0.3-4.2,0.5-6.9,0.5
		c-0.3,8.4-0.3,16.7,0.1,24.9c0.4,8.1,0.8,16.2,1.2,24.1c0.5,7.9,0.8,15.7,1,23.5c0.2,7.8,0,15.6-0.8,23.4c0.5,0.6,1.1,1,1.8,1.2
		c0.8,0.2,1.5,0.5,2.3,0.7c0.8,0.2,1.4,0.6,2,1c0.6,0.5,1,1.1,1.1,2c-0.3,0-0.8-0.1-1.4-0.3c-0.6-0.2-0.9-0.1-0.9,0.3
		c0.3,2.4,0.6,5,1,7.9c0.4,2.9,0.3,6.1-0.3,9.7c0,0.5-0.1,1.1-0.3,1.8c-0.2,0.8-0.3,1.5-0.3,2.3c0,0.8,0.4,1.5,1.1,2.4
		c0.8,0.8,1.1,1.6,1.1,2.4c-5.7,0.8-11.8,0.9-18.1,0.6c-6.3-0.4-12.1-0.6-17.4-0.6c-1.7-16-2.7-31.8-3.1-47.5
		c-0.4-15.7-0.7-31.3-1-46.8c-0.2-6.5,0.3-13.1,1.5-19.8c1.1-6.7,1.5-13.3,1-19.8c-0.3-4.4-0.8-8.5-1.6-12.3
		c-0.8-3.8-0.8-7.8,0-11.9c10.1,0,20.8,0,32.1-0.1c11.3-0.1,22.1-0.3,32.5-0.6c3.2-0.5,6.3-0.6,9.5-0.3c3.2,0.2,6.2,1.2,9,2.8
		c0.6,2.4,0.8,4.9,0.7,7.3c-0.2,2.5-0.4,5-0.7,7.5c-0.3,2.5-0.5,5-0.7,7.5c-0.2,2.5,0.1,4.9,0.7,7.3c0,0.9,0.3,1.8,0.9,2.6
		c0.6,0.8,1.1,1.8,1.4,3.1c0.5,2.1,0.2,4.3-0.7,6.7c-0.9,2.3-1.2,4.7-0.9,7.1c0,0.8,0.3,1.4,0.8,2c0.5,0.6,0.8,1.3,0.8,2
		c0,1.7-0.2,3.3-0.6,4.9C180.2,68.6,180.1,70.2,180.4,71.9z M103.8,116.2c0,0.3,0.3,0.3,1,0.1c0.7-0.2,0.9-0.6,0.6-1
		C104.3,115.3,103.8,115.6,103.8,116.2z M107,87c0.3-0.3,0.6-0.5,1-0.7c0.4-0.1,0.6-0.5,0.6-0.9c-0.8-0.3-1.3-0.2-1.7,0.3
		C106.5,86.3,106.5,86.7,107,87z M110.1,36.4c0-0.8-0.3-1.3-1-1.7c-0.7-0.4-1.4-0.3-2.1,0.1c0,0.8,0.3,1.2,1,1.4
		C108.7,36.3,109.4,36.4,110.1,36.4z M107,45.2v1.6h1.6C108.6,45.7,108,45.2,107,45.2z M108.6,49.9c-0.5,0.5-0.2,0.7,0.8,0.7
		c1,0,1.2-0.2,0.8-0.7c0-0.3-0.2-0.4-0.5-0.2C109.4,49.9,109,49.9,108.6,49.9z M114.2,16.3l-3.2,3.8c0.8,0,1.7-0.5,2.7-1.4
		C114.8,17.9,115,17,114.2,16.3z M112.6,29.2c0,0.3,0.1,0.6,0.2,1c0.1,0.4,0.6,0.6,1.4,0.6c0.5-0.5,0.5-0.9,0.1-1.5
		C113.9,28.7,113.4,28.7,112.6,29.2z M114.2,79.1c0.5,0.3,1,0.3,1.6,0.1c0.6-0.2,0.9-0.6,0.9-1c-0.8,0-1.3-0.4-1.6-1.1
		c-0.3-0.8-0.8-1.1-1.6-1.1c-0.5,0.8-0.3,1.4,0.3,1.8C114.5,78.2,114.7,78.6,114.2,79.1z M156.2,148.3c0-0.8,0.1-1.3,0.3-1.6
		c0.2-0.3,0.3-0.8,0.3-1.6c-0.8-0.3-1.4-0.3-2,0.1c-0.6,0.4-1.5,0.3-2.7-0.1c0.3,0.8,0.4,1.2,0.2,1.5c-0.2,0.2-0.2,0.6-0.2,1
		c0.8,0,1.4,0,2,0.1C154.8,147.8,155.5,148,156.2,148.3z M160.3,136.3c0.3-0.5,0.4-0.9,0.2-1.2c-0.2-0.4-0.2-0.8-0.2-1.2
		c-1.2,0-1.8,0.5-1.8,1.6c0.5,0,0.8,0.2,0.9,0.5C159.6,136.1,159.9,136.3,160.3,136.3z M166.6,152.3h-1.6c0,0.5,0.3,0.8,0.8,0.9
		C166.4,153.4,166.6,153.1,166.6,152.3z"/>
	<path class="st0" d="M279.2,69.4c-1.7-0.5-3.1-0.5-4.4,0c-1.3,0.5-2.8,0.5-4.4,0c1.2,8.1,2.7,16.3,4.5,24.5
		c1.8,8.2,3.7,16.5,5.5,24.7c1.9,8.3,3.7,16.5,5.5,24.7c1.8,8.2,3.3,16.4,4.5,24.5h-29.2l-7.2-23.5c-1.4-4.4-2.7-8.5-4.1-12.4
		c-1.4-3.9-2.4-7.8-3.2-11.8c0-1.2-0.1-2.1-0.2-2.7c-0.2-0.6-0.1-1.1,0.2-1.4c0-0.5-0.3-0.8-0.8-1c-0.5-0.2-0.8-0.7-0.8-1.5
		c-1.2-6.9-2.5-14-3.7-21.4c-1.3-7.3-3-14.4-5.1-21.4h-7.2c0,8.4,0.3,16.2,0.9,23.2c0.6,7,1.1,14.4,1.4,22c0.5,9,0.5,17.7,0.1,26
		c-0.4,8.3-1.2,16.5-2.4,24.6h-9.7h0.7v-1.6h-0.7h-0.9h-0.7c-0.6,0-0.9,0.2-0.9,0.5c-0.2,0.2-0.2,0.3,0,0.5v0.7h0.9h-5.6
		c-1.7,0-3.4,0.1-5.2,0.3c-1.8,0.2-3.3,0.1-4.5-0.3c-1.4-0.8-2.2-2-2.6-3.6c-0.4-1.7-0.5-3.5-0.5-5.6c0.1-2.1,0.2-4.3,0.5-6.4
		c0.2-2.2,0.3-4.2,0.1-6c0-1.7-0.5-3.2-1.4-4.7c-0.9-1.5-1.5-2.9-1.8-4.1c-0.6-2.4-0.5-5.3,0.3-8.6c0.8-3.3,1.2-6.3,1.2-9
		c0-6.3-0.2-12-0.5-17.1c-0.3-5-0.5-10.4-0.5-16.2c0-3.2-0.1-6.3-0.2-9.5c-0.2-3.2-0.1-6.2,0.2-9c0-0.8,0-1.3-0.1-1.6
		c-0.1-0.3,0.3-0.8,1-1.6c0-0.5-0.2-0.6-0.7-0.6c-0.5,0.1-0.5-0.3-0.2-1c0-7.2,0-15.8,0.1-25.7c0.1-9.9,0.3-19.8,0.8-29.9
		c7.2,0.2,14.7,0.2,22.4,0c7.7-0.1,15.3-0.3,22.9-0.5c7.6-0.1,15-0.3,22.3-0.5c7.2-0.1,14-0.1,20.3,0c-0.8,3.3-0.6,6.3,0.3,8.9
		c1,2.6,1.7,5.6,2.1,8.9c0.3,3.2,0.3,6.6,0,10.4c-0.3,3.8-0.3,7.2,0,10.4c0.1,2.4,0.6,5,1.4,7.8c0.8,2.8,1.2,5.4,1.5,7.9
		c0.2,2.5,0,4.7-0.7,6.6c-0.7,1.9-2.2,3.1-4.6,3.7c-1.2,0.3-2.4,0.2-3.6-0.2C281.6,69.6,280.4,69.4,279.2,69.4z M206.6,22.6
		c1.2,0.5,2.1,0.5,2.6,0c0.5-0.5,0.8-0.9,0.8-1.5c0-0.5-0.3-0.8-0.8-0.9c-0.5-0.1-1.2,0.5-1.9,1.7c-0.3,0-0.6-0.1-0.9-0.2
		C206.1,21.5,206.2,21.8,206.6,22.6z M206.6,29.2v0.7c0.3,0,0.6,0.1,1,0.2c0.4,0.2,0.6-0.1,0.6-0.9c0-0.5-0.2-0.6-0.6-0.3
		C207.3,29,206.9,29.2,206.6,29.2z M258.2,42c0.5-2.1,0.7-4,0.8-5.7c0.1-1.7,0.1-3.5,0.1-5.6c-3.3-0.5-6.7-0.6-10.3-0.3
		c-3.5,0.2-7.1,0.3-10.7,0.3c-0.5-0.5-0.6-1-0.6-1.6c0.1-0.6-0.3-0.9-1-0.9c-0.5,0.8-0.5,1,0,0.7c0.5-0.3,0.7-0.2,0.7,0.2v0.7
		c-1.7,0.8-3.1,1.1-4.4,1.1c-1.3,0-2.8,0.2-4.4,0.5c0,1.7,0.1,3.4,0.5,5.3c0.3,1.9,0.5,3.7,0.5,5.3C239.3,42.6,249,42.6,258.2,42z"
		/>
	<path class="st0" d="M390.8,133.1h0.2c0.3,0,0.5,0.2,0.5,0.7l5.6,34.8h-22.6c-2.1-4.8-3.7-9.6-4.7-14.5c-1.1-4.8-2.4-9.4-4.1-13.8
		c-4.4,0-9.2-0.1-14.6-0.5c-5.4-0.3-10.4-0.5-15.3-0.5c-2.1,4.4-3.5,9-4.2,13.9c-0.7,4.9-1.5,9.8-2.4,14.6c-3.9,0-8,0.2-12.2,0.6
		c-4.2,0.4-8.7,0.2-13.6-0.6l5.6-38.9c0.8,0.8,1.8,0.8,3.2,0c-0.8-0.5-1.4-0.6-1.8-0.5c-0.5,0.2-0.9,0-1.4-0.5
		c1.7-9.6,3.1-19.5,4.2-29.6c1.1-10.1,2.4-20.3,4-30.7l2.5-17.9c0.3-1.7,0.9-3,1.8-4c0.9-1,1.4-2.3,1.4-4c0.8-2.6,1.3-5.2,1.6-7.8
		c0.3-2.6,0.8-5.2,1.6-7.6c1.2-3.6,2.2-7.2,2.9-10.8c0.8-3.6,1.1-7.2,1.1-10.8h6.6c-0.5,0.3-0.8,0.4-0.9,0.2C335.8,5,335.5,5,335,5
		c0,0.8,0.5,1,1.5,0.8c1-0.2,1.8-0.5,2.6-0.8c0.5,0,0.6,0.2,0.5,0.5c-0.2,0.3,0,0.7,0.5,1.1c0.3-0.5,0.6-0.8,0.9-0.9
		c0.3-0.1,0.2-0.4-0.2-0.7h16.3c2.9-0.5,5-0.8,6.6-0.9c1.5-0.1,2.6,1.2,3.2,4.1l2.3,12c0.8,1.7,1.4,3.4,1.9,5.3
		c0.5,1.9,1,3.7,1.5,5.3c0,0.3-0.2,0.4-0.5,0.3c-0.3-0.1-0.5,0-0.5,0.3v0.9c0-0.6-0.3-0.9-0.9-0.9c-0.5,0-0.7,0.2-0.7,0.5v0.5
		l-0.9-0.9v0.9c-0.3,0-0.6,0.1-1,0.2c-0.4,0.2-0.6,0.6-0.6,1.4v0.9h0.9h0.7l-0.7,0.7l0.7-0.7v0.7c-0.5,0.8-0.7,1.3-0.7,1.6V38
		l1.6-0.9v0.5c0,0.3,0.2,0.5,0.7,0.5c0.9,0,1.4-0.3,1.6-0.9c0.1-0.6,0.2-1.1,0.2-1.6v-0.7h-2.5h0.7c0.5-0.5,0.9-0.8,1.2-0.9
		c0.4-0.1,0.6-0.4,0.6-0.7l1.6,5.4c2.7,9.5,4.9,19.2,6.4,29.2c1.6,9.9,3.4,19.9,5.5,29.8c0,1.1-0.2,1.6-0.7,1.6
		c0.8,1.2,1.4,2.7,1.8,4.5c0.5,1.8,0.9,3.5,1.4,5.2c0.5,3.6,1,7.3,1.6,11.1c0.6,3.8,0.9,7.3,0.9,10.6
		C391.6,131.5,391.6,132.4,390.8,133.1z M337.5,11.3l-0.7,0.9h1.6h2.3v-0.9l0.9,0.9v-1.6h-0.9V9.7l-0.7,0.9h-0.9h-0.5
		c-0.2,0-0.3,0.1-0.5,0.2C338,11,337.8,11.2,337.5,11.3z M342.5,108.9c2,0.3,4.8,0.4,8.5,0.2c3.7-0.1,6.7-0.2,9.2-0.2
		c-1.2-7.2-2.5-14.4-3.7-21.5c-1.3-7.1-3-13.6-5.1-19.7c-1.7,6.5-3.4,13.1-5.1,20C344.5,94.7,343.2,101.7,342.5,108.9z M374.6,153.2
		h1.8h0.7l2.5,1.6l-0.9-2.5c-0.5-0.5-1.2-0.7-2.3-0.7h-0.9h-0.9l-1.6-0.9v0.9c0.5,0.8,0.8,1.2,0.9,1.4
		C374,153.2,374.2,153.2,374.6,153.2z"/>
	<path class="st0" d="M529.6,144.4v4.7v18.5c-5.7,0-11.6,0.2-17.5,0.7c-6,0.5-11.9,0.3-18-0.5c-2.6-0.3-5.2-0.3-7.9-0.1
		c-2.7,0.2-5.5,0.2-8.4-0.1c-7.2,0-15,0-23.2,0.1c-8.2,0.1-15.8,0.1-22.7,0.1c-0.6,0-2,0-4.2,0.1c-2.2,0.1-4.5,0.1-7,0.2
		c-2.5,0.1-4.7,0.1-6.8,0.1s-3.3-0.2-3.7-0.5c-0.9,0-1.4-0.8-1.6-2.5c-0.2-1.7-0.2-3.5-0.1-5.7c0.1-2.1,0.2-4.3,0.5-6.4
		c0.2-2.2,0.3-3.9,0.3-5.1c-0.5-3.2-0.6-6.2-0.5-9c0.1-2.9,0.3-5.7,0.5-8.6c0.5-7.1,0.8-14.5,1-22.4c0.2-7.8,0.4-15.7,0.5-23.5
		c0.1-7.8,0.1-15.5,0.1-22.9s0-14.4,0-20.7c0-1.2,0-3.3-0.1-6.2c-0.1-2.9-0.1-6-0.1-9.2c0-3.2,0-6.1,0-8.7c0-2.6,0.1-4.3,0.2-4.9
		c0.1-0.8,1-1.2,2.6-1.5c1.6-0.2,3.4-0.4,5.3-0.6c2-0.1,3.8-0.3,5.5-0.6c1.7-0.2,2.9-0.7,3.5-1.5L496.6,5h9.5
		c-0.2,2.4-0.4,5-0.7,7.7c-0.3,2.7-0.5,5.5-0.7,8.2c-0.2,2.8-0.2,5.5,0,8.1c0.1,2.6,0.6,5.1,1.4,7.3c-2,0.8-3.9,1.2-5.8,1.4
		c-1.9,0.2-4.3,0.2-7.1,0.2c-8.7-0.9-16.9-1.3-24.4-1.1c-7.5,0.2-15.5,0.2-24,0.2c-0.3,6.5,0,13.1,0.8,20c0.8,6.9,0.9,13.9,0.1,21.1
		c-0.8,3.3-1.4,6.6-1.8,9.8c-0.5,3.2,0.1,5.9,1.8,8c-1.7,7.2-2.7,14.1-3.2,20.5c-0.5,6.4-1.1,13.3-1.8,20.7
		c3.6,1.2,7.5,1.8,11.5,1.9c4.1,0.1,8.3,0,12.7-0.3c5.3-0.3,10.5-0.6,15.6-1c5.1-0.4,9.9-1.2,14.2-2.4c-0.3-5.3-0.2-10,0.2-14.2
		c0.5-4.2,0.7-8.3,0.7-12.2c0-0.6,0.5-0.9,1.6-0.9c-1.2-0.3-1.6-0.9-1.1-1.7c0.5-0.8,0.3-1.8-0.5-3.1h-13.8v-1.6h-3.2v0.7l0.9,0.9
		h-21c0-1.8,0-4.1,0.1-6.9c0.1-2.8,0.1-5.7,0.2-8.7c0.1-3,0.1-6,0.2-8.9c0.1-2.9,0.1-5.5,0.1-7.8c8.1,0,16.8,0.3,26.1,0.9
		c9.3,0.6,18.6,1.1,28.1,1.6l16,22.6c0,8.6,0,16.5,0.1,23.7c0.1,7.2,0.3,14.9,0.8,23.1c-0.6,0.5-1.1,0.6-1.5,0.6
		c-0.4-0.1-0.7-0.2-0.9-0.5c-0.2-0.2-0.5-0.4-0.7-0.6c-0.2-0.1-0.6,0-1,0.5c0,0.8,0.1,1.2,0.5,1.4c0.3,0.2,0.7,0.2,1.1,0
		c0.5-0.1,0.8-0.3,1.1-0.3C529.4,143.8,529.6,144,529.6,144.4z M431.1,62.2l-1.6-1.6c0,0.8-0.1,1.2-0.3,1.5
		c-0.2,0.2-0.3,0.5-0.3,0.8c0.3,0.5,0.6,0.3,0.8-0.3C429.8,61.8,430.3,61.7,431.1,62.2z M428.8,160.5c0.3,0,0.7-0.1,1.1-0.5
		c0.5-0.3,0.8-0.5,1.1-0.5c-0.3-0.3-0.6-0.5-1-0.5c-0.4,0-0.6-0.4-0.6-1.1c-0.5,0-0.7,0.3-0.7,0.9c0.3,0,0.4,0.2,0.2,0.5
		C428.9,159.6,428.8,160,428.8,160.5z M436.7,71h-2.3c0.5,0.6,1,0.9,1.6,0.9c0,0.2,0.1,0.2,0.2,0C436.5,71.9,436.7,71.6,436.7,71z
		 M435.1,141.9c0.5,0.5,1,0.6,1.6,0.6c0.6-0.1,0.9-0.6,0.9-1.5c-0.5,0-1,0-1.6,0.1C435.4,141.2,435.1,141.5,435.1,141.9z
		 M440.1,153.2v-0.9c-0.5,0.5-0.7,0.8-0.8,1c-0.1,0.2-0.1,0.7-0.1,1.5c0.5-0.5,0.9-0.6,1.2-0.5c0.4,0.2,0.8,0,1.2-0.5
		c0-0.3-0.3-0.4-0.8-0.3C440.4,153.6,440.1,153.5,440.1,153.2z M439.2,156.4c0,0.5,0.5,0.8,1.5,0.9c1,0.2,1.3-0.1,1-0.9
		c-0.5-0.3-0.8-0.4-1-0.2C440.4,156.3,439.9,156.4,439.2,156.4z M443.3,154.8c0.5-0.5,0.8-0.9,1.1-1.4c0.3-0.5,0.5-1.1,0.5-1.8
		c-0.8-0.8-1.4-0.9-1.9-0.5c-0.5,0.5-0.9,0.8-1.2,1.1c0.3,0.5,0.5,1,0.5,1.6C442.1,154.5,442.5,154.8,443.3,154.8z M443.3,148.3v0.9
		c0.5,0.5,1,0.7,1.6,0.7c0.6,0,0.9-0.2,0.9-0.7c-0.5,0-0.8-0.1-1-0.5C444.5,148.4,444,148.3,443.3,148.3z M446.4,154.8
		c0,0.6,0.5,0.9,1.6,0.9C448,155.1,447.5,154.8,446.4,154.8z M459.3,164.5c0,0.3,0.4,0.3,1.2,0.1c0.8-0.2,1.2-0.6,1.2-1
		c-0.5,0-1,0-1.6,0.1C459.6,163.8,459.3,164.1,459.3,164.5z M461.8,146c0,0.3,0.4,0.5,1.2,0.5c0.8,0,1.2-0.1,1.2-0.5
		c-0.5,0-0.8-0.1-0.9-0.2c-0.3,0-0.6,0-0.8-0.1C462.4,145.6,462.1,145.7,461.8,146z M474.7,152.3h0.9c0.3,0,0.5-0.3,0.5-0.8
		c0-0.5-0.2-0.8-0.5-0.8c-0.5,0.5-0.8,0.8-1,0.9C474.3,151.8,474.4,152,474.7,152.3z M474.7,150.7c1.5-0.6,2.6-1.7,3.2-3.2
		c-0.8,0-1.5,0.3-2.1,1C475,149.3,474.7,150,474.7,150.7z M490.9,141.9c0.8,0,1.2-0.1,1.4-0.2c0.1-0.1,0.2-0.6,0.2-1.4h-0.9
		c0,0.3-0.1,0.5-0.3,0.7C491.1,141.2,490.9,141.5,490.9,141.9z M491.6,163.6c0-0.5,0.1-0.7,0.5-0.7h0.5c-0.5-0.5-0.8-0.8-1.1-0.9
		c-0.3-0.1-0.5,0.2-0.5,0.9c0.3,0,0.4,0.1,0.3,0.3C491.2,163.5,491.3,163.6,491.6,163.6z M501.3,137.2c0,0.3,0.3,0.4,0.8,0.3
		c0.5-0.1,0.8-0.5,0.8-1.2c-0.3,0.5-0.6,0.6-1,0.5C501.5,136.6,501.3,136.7,501.3,137.2z"/>
	<path class="st0" d="M603.3,142.8l1.8,24.9c-11.3-0.9-22.1-1.1-32.4-0.5c-10.3,0.6-20.5,0.8-30.6,0.5c0-5.3,0.1-10.6,0.2-15.9
		c0.1-5.3,0.6-10.2,1.4-14.6c1.7-0.5,3.4-0.5,5.3-0.1c1.9,0.4,3.7,0.4,5.3,0.1c0.3-5.3,0.6-10.1,1-14.6c0.4-4.4,0.6-9.3,0.6-14.6
		c0.3-0.8,0.8-0.8,1.5-0.2c0.7,0.6,1.2,0.7,1.7,0.2c0-0.6-0.2-1-0.5-1.1c-0.3-0.1-0.7-0.3-1.1-0.3c-0.5-0.1-0.8-0.1-1.1-0.2
		c-0.3-0.1-0.5-0.3-0.5-0.8c0.3-6.8,0.5-13.8,0.6-21c0.1-7.2,0.1-14.7,0.1-22.4c0-0.6,0.5-0.9,1.6-0.9c0-0.8-0.3-1.1-0.8-1
		c-0.5,0.1-0.8-0.1-0.8-0.6c0-1.2,0-2.3,0.1-3.4c0.1-1.1,0.3-1.8,0.8-2.3c-0.8-2.1-0.9-4.5-0.6-7.2c0.4-2.7,0.6-5.7,0.6-8.8
		c-1.7-0.3-4-0.3-7,0c-3,0.3-5.5,0.3-7.5,0l1.6-29.8c6.5-0.5,13.8-0.5,21.9-0.1c8.1,0.4,15.9,0.1,23.3-0.8c2.9-0.3,5.5-0.6,7.8-1
		c2.3-0.4,5.1-0.6,8.2-0.6V38h-19.4c-0.3,15.5-0.6,31.5-1,47.8c-0.4,16.3-0.6,33.2-0.6,50.5c3.3,0.5,6.5,0.6,9.6,0.3
		c3.1-0.2,6.1-0.3,8.9-0.3v4.7h-1.6H601v0.9c0,0.8,0.1,1.2,0.3,1.5c0.2,0.2,0.3,0.6,0.3,1h0.9v-0.9h0.2
		C603.1,143.5,603.3,143.3,603.3,142.8z M563,27.6c0.3,0.3,0.6,0.4,1,0.3c0.4-0.1,0.6-0.5,0.6-1.2c0,0.5-0.3,0.6-0.8,0.5
		C563.3,27,563,27.1,563,27.6z M571.8,14.5h-1.6c0,0.9,0.4,1.4,1.1,1.4C572.1,15.8,572.3,15.4,571.8,14.5z M572.8,46.1l-2.5-1.8
		c0,1.7,0.3,2.7,0.9,3.2c0.6,0.5,1.1,1.1,1.6,1.8c0.3,0,0.5-0.2,0.7-0.6c0.1-0.4,0.5-0.7,0.9-1c-0.8,0-1.2-0.2-1.4-0.6
		C572.8,46.7,572.8,46.4,572.8,46.1z M572.8,92c0.8,0.3,1.2,0.2,1.4-0.3c0.1-0.5,0.2-0.9,0.2-1.2c-0.8,0-1.2,0.2-1.4,0.5
		C572.8,91.2,572.8,91.5,572.8,92z M578.4,51.8c0.3,0.3,0.6,0.3,1,0.1c0.4-0.2,0.6-0.6,0.6-1c-0.8-0.5-1.2-0.5-1.4-0.2
		C578.5,50.9,578.4,51.3,578.4,51.8z M580,54.9v-1.6c-0.5,0-0.8,0.1-0.9,0.3c-0.2,0.2-0.4,0.3-0.7,0.3
		C578.4,54.6,578.9,54.9,580,54.9z M580.7,29.8c0.5,0.5,1,0.6,1.6,0.6c0.6-0.1,0.9-0.5,0.9-1.2c-0.3-0.5-0.8-0.5-1.5-0.2
		C581,29.2,580.7,29.5,580.7,29.8z M584.1,155.7c1.1,0,1.6-0.3,1.6-0.9l-0.9-0.9c0,0.5-0.1,0.8-0.3,0.9
		C584.2,155,584.1,155.3,584.1,155.7z M590.4,17h-1.6v0.9c0-0.5,0.3-0.6,0.8-0.5C590.1,17.6,590.4,17.4,590.4,17z M591.3,158
		c0.3-0.3,0.6-0.6,1-0.8c0.4-0.2,0.6-0.7,0.6-1.5c-0.8,0-1.3,0.3-1.7,0.9C590.8,157.2,590.8,157.7,591.3,158z"/>
	<path class="st0" d="M617.7,167.9l2.5-30.7c1.7,0,3.6-0.1,5.8-0.3c2.2-0.2,4.6-0.1,7.1,0.3c1.2-5.7,1.9-11.3,2-16.7
		c0.1-5.4,0-10.4-0.5-14.9c0-0.5,0.5-0.7,1.6-0.7c0-0.5-0.3-0.6-0.8-0.6c-0.5,0.1-0.8-0.3-0.8-1c0.5-4.1,0.6-7.8,0.3-11.1
		c-0.2-3.3-0.3-6.6-0.3-9.9c0-2.6,0-5.5-0.1-8.8c-0.1-3.3-0.2-6.8-0.2-10.4c-0.1-3.6-0.1-7.2-0.1-10.8s0.1-7,0.5-10.2
		c0.5,0,0.5-0.3,0.1-0.8c-0.4-0.5-0.1-0.8,0.8-0.8c-0.5-0.5-0.7-1-0.8-1.7c-0.1-0.7-0.1-1.2-0.1-1.7c-2.9,0.5-5.7,0.8-8.6,0.9
		c-2.9,0.2-5.1-0.4-6.8-1.6c1.2-4.8,1.7-9.8,1.4-14.8c-0.3-5-0.5-10.6-0.5-16.6c11.8,0,23.4,0.2,35,0.6c11.6,0.4,23.3,0.9,35,1.7
		c0.5,0.9,1.1,1.3,1.9,1.1c0.8-0.1,1.8-0.2,3.1-0.2l1.6,1.6c0.3-0.3,0.2-0.6-0.2-0.8c-0.5-0.2-0.7-0.8-0.7-1.7
		c1.2,0.5,2.2,1.2,3.1,2.3c0.8,1.1,1.5,2,1.9,2.7l4.7,5.7c0.5,0.5,1.1,1.1,1.8,2c0.8,0.9,1.5,1.9,2.4,2.9c0.8,1.1,1.6,2.1,2.4,3.3
		c0.8,1.1,1.3,2.1,1.6,3.1c1.1,2.9,1.3,6.1,0.8,9.7c-0.5,3.6-0.8,7.1-0.8,10.4v64.4c-0.6,0-0.9-0.1-0.9-0.2c-0.2-0.1-0.2-0.3,0-0.5
		c-0.3,0.8-0.3,1.2-0.1,1.2c0.2,0.1,0.6-0.1,1-0.6v13.8l-0.9-0.9h-0.7v0.9c-0.2,0.2-0.2,0.3-0.2,0.5c-0.2,0.2-0.4,0.2-0.7,0.2
		c-0.2,0.2-0.2,0.4-0.2,0.7c0,0.3,0,0.6-0.1,0.9c-0.1,0.3,0,0.6,0.3,0.9c0.5,0,0.9-0.2,1.2-0.6c0.4-0.4,0.8-0.7,1.2-1
		c0,2.9,0.1,5.7,0.2,8.4c0.1,2.7,0.1,5.3-0.2,7.7c0,2.9-1,5.4-2.9,7.5c-2,2.1-3.9,4.2-5.9,6.3c-1.1,2-2.1,3.7-3.2,5.1
		c-1.1,1.4-2.2,2.8-3.4,4c-1.2-0.3-2.7-0.3-4.4-0.1c-1.7,0.2-3,0.2-3.7-0.1v-0.9c-0.8,0-1.2,0.1-1.5,0.3c-0.2,0.2-0.5,0.5-0.8,0.8
		h-38.9h-10.4c-0.5-0.3-0.8-0.2-1.1,0.2c-0.3,0.5-0.5,0.3-0.5-0.5c-2.9,0.8-6.1,1-9.7,0.7C623.8,168.1,620.6,167.9,617.7,167.9z
		 M646,64.6h-1.6v1.6c0.3-0.5,0.6-0.8,1-0.9C645.8,65.2,646,64.9,646,64.6z M646,34.8c0.3,0.3,0.3,0.5-0.1,0.7
		c-0.4,0.2-0.3,0.5,0.1,0.9c0.8,0,1.2,0.3,1.2,1c0.1,0.7,0.7,0.9,1.9,0.6c0.5,0,0.7-0.3,0.8-0.9c0.1-0.6,0.1-1.1,0.1-1.6
		c-0.8-0.3-1.4-0.4-2-0.3C647.4,35.2,646.7,35.1,646,34.8z M652.5,51.8c0.8-1.7,0.6-2.9-0.5-3.6c-1.1-0.8-1.7-1.7-2-2.9l-1.6,1.6
		c0.3,0.5,0.8,0.8,1.4,1c0.6,0.2,0.9,0.7,0.9,1.5c-0.8,0.8-1.4,1.1-2,1.1c-0.6,0-1.5,0.5-2.7,1.4c1.7,0.3,2.9,0.2,3.8-0.5
		C650.7,50.7,651.6,50.9,652.5,51.8z M650.7,19.4c-0.8,0-1.2,0.3-1.5,0.9c-0.2,0.6-0.5,1.1-0.8,1.6c0.3,0,0.8-0.2,1.4-0.7
		C650.4,20.8,650.7,20.2,650.7,19.4z M648.5,70.3c1.1,0,1.6-0.3,1.6-0.9c0-0.5-0.3-0.6-0.8-0.6C648.7,68.9,648.5,69.4,648.5,70.3z
		 M653.2,46.1c0.5-0.9,0.5-1.5,0-1.8c-0.5-0.3-0.7-0.3-0.7,0V45C652.5,45.3,652.8,45.7,653.2,46.1z M656.4,41.1
		c-0.3,0-0.9-0.2-1.8-0.6c-0.9-0.4-1.4-0.2-1.4,0.6c0.5,0.5,0.9,0.8,1.4,1c0.5,0.2,0.3,0.7-0.5,1.5c0.8-0.5,1.2-0.9,1.5-1.2
		C655.8,42,656.1,41.6,656.4,41.1z M655.7,81.6c-0.5-0.5-0.6-1-0.5-1.6c0.1-0.6,0-0.9-0.5-0.9c-0.3,0.3-0.4,0.8-0.3,1.5
		C654.5,81.2,654.9,81.6,655.7,81.6z M679,35.5c-2.1,0.5-4.5,0.6-7.1,0.5c-2.6-0.1-4.8,0-6.4,0.5c0,17.8,0,34.8,0.1,51.2
		c0.1,16.3,0.3,33.4,0.6,51.2c2.6,0,5.5-0.1,8.8-0.2c3.3-0.1,6-0.6,8.1-1.4l-1.6-23.5c-0.2-2.4-0.5-4.8-0.9-7.1
		c-0.5-2.3-0.7-4.6-0.7-6.7c0-0.1,0.1-0.3,0.2-0.5c0.3-0.3,0.5-0.7,0.5-1.1c0-0.3-0.2-0.5-0.6-0.7c-0.4-0.1-0.2-0.5,0.6-0.9
		c-1.1,0-1.6-0.2-1.6-0.7c0-1.2,0.3-2.6,0.8-4.1c0.5-1.5,0.8-2.9,0.8-4.1c-0.3-3.2-0.8-6.2-1.4-9c-0.6-2.9-0.9-5.7-0.9-8.6
		c0-5.7,0.3-11.3,0.9-16.8C679.8,48,679.7,42,679,35.5z"/>
	<path class="st0" d="M812.3,71.9c-0.2,1.2,0,2.3,0.3,3.3c0.4,1,0.8,2.3,1.2,4c0,2.4-0.2,4.9-0.5,7.6c-0.3,2.6-0.5,5.2-0.5,7.8
		c0,4.4,0,8.8,0,13.3c0,4.5-0.2,9.4-0.7,14.7c-0.3,3.3-0.5,6.3-0.7,8.8c-0.2,2.6,0.1,5.3,0.7,8.1c0,0.5,0.1,1,0.3,1.7
		c0.2,0.7,0.3,1.2,0.3,1.7c0,1.2-0.3,2.4-0.8,3.6c-0.5,1.2-0.8,2.4-0.8,3.6c-0.3,2.9-0.2,5.8,0.5,8.8c0.6,3,0.8,6,0.5,8.8
		c-1.2,0.3-2,0.2-2.4-0.2c-0.4-0.5-0.9-0.7-1.7-0.7c-4.1,0-7.8-0.4-11.1-1.1c-3.3-0.8-6.6-1.1-9.9-1.1c-2.9,0.3-5.8,0.7-8.8,1.1
		c-3,0.5-6,0.3-8.8-0.5c-0.3-0.1-0.5-0.5-0.5-1.1c0-0.6-0.1-1.2-0.2-1.9c-0.2-0.7-0.3-1.4-0.6-2c-0.2-0.7-0.6-1.1-1.2-1.2
		c0.8-0.5,1-1.3,0.8-2.6c-0.2-1.3-0.5-2.3-0.8-3.1c0.8-1.2,0.9-2.6,0.6-4.2c-0.4-1.6-0.6-3.4-0.6-5.5c0-1.2,0.1-2.2,0.3-3.1
		c0.2-0.8,0.3-1.4,0.3-1.7c-0.3-1.2-0.8-1.8-1.4-1.9c-0.6-0.1-0.9-0.6-0.9-1.5c3.2-0.8,6.2-1.1,9.3-0.9c3,0.2,5.6,0.2,7.7,0.2
		c0.8-1.2,1-2.4,0.8-3.7c-0.2-1.3,0-1.9,0.8-1.9c-0.8-4.8-1-10.4-0.8-16.8c0.2-6.4,0.2-12.6-0.1-18.6c-0.5-9.9-0.9-19.5-1.4-28.8
		c-0.5-9.3-0.5-18.2-0.2-26.8c-2.6-0.8-4.7-1.2-6.6-1.2c-1.8-0.1-3.6,0-5.3,0.1c-1.7,0.2-3.5,0.4-5.4,0.7c-1.9,0.3-4.2,0.5-6.9,0.5
		c-0.3,8.4-0.3,16.7,0.1,24.9c0.4,8.1,0.8,16.2,1.2,24.1s0.8,15.7,1,23.5c0.2,7.8,0,15.6-0.8,23.4c0.5,0.6,1.1,1,1.8,1.2
		c0.8,0.2,1.5,0.5,2.3,0.7c0.8,0.2,1.4,0.6,2,1c0.6,0.5,1,1.1,1.1,2c-0.3,0-0.8-0.1-1.4-0.3c-0.6-0.2-0.9-0.1-0.9,0.3
		c0.3,2.4,0.6,5,1,7.9c0.4,2.9,0.3,6.1-0.3,9.7c0,0.5-0.1,1.1-0.3,1.8c-0.2,0.8-0.3,1.5-0.3,2.3c0,0.8,0.4,1.5,1.1,2.4
		c0.8,0.8,1.1,1.6,1.1,2.4c-5.7,0.8-11.8,0.9-18.1,0.6c-6.3-0.4-12.1-0.6-17.4-0.6c-1.7-16-2.7-31.8-3.1-47.5
		c-0.4-15.7-0.7-31.3-1-46.8c-0.2-6.5,0.3-13.1,1.5-19.8c1.1-6.7,1.5-13.3,1-19.8c-0.3-4.4-0.8-8.5-1.6-12.3
		c-0.8-3.8-0.8-7.8,0-11.9c10.1,0,20.8,0,32.1-0.1C771,7,781.8,6.9,792.2,6.6c3.2-0.5,6.3-0.6,9.5-0.3c3.2,0.2,6.2,1.2,9,2.8
		c0.6,2.4,0.8,4.9,0.7,7.3c-0.2,2.5-0.4,5-0.7,7.5c-0.3,2.5-0.5,5-0.7,7.5c-0.2,2.5,0.1,4.9,0.7,7.3c0,0.9,0.3,1.8,0.9,2.6
		c0.6,0.8,1.1,1.8,1.4,3.1c0.5,2.1,0.2,4.3-0.7,6.7c-0.9,2.3-1.2,4.7-0.9,7.1c0,0.8,0.3,1.4,0.8,2c0.5,0.6,0.8,1.3,0.8,2
		c0,1.7-0.2,3.3-0.6,4.9C812,68.6,812,70.2,812.3,71.9z M735.7,116.2c0,0.3,0.3,0.3,1,0.1c0.7-0.2,0.9-0.6,0.6-1
		C736.2,115.3,735.7,115.6,735.7,116.2z M738.9,87c0.3-0.3,0.6-0.5,1-0.7c0.4-0.1,0.6-0.5,0.6-0.9c-0.8-0.3-1.3-0.2-1.7,0.3
		C738.4,86.3,738.4,86.7,738.9,87z M742,36.4c0-0.8-0.3-1.3-1-1.7c-0.7-0.4-1.4-0.3-2.1,0.1c0,0.8,0.3,1.2,1,1.4
		C740.6,36.3,741.3,36.4,742,36.4z M738.9,45.2v1.6h1.6C740.4,45.7,739.9,45.2,738.9,45.2z M740.4,49.9c-0.5,0.5-0.2,0.7,0.8,0.7
		c1,0,1.2-0.2,0.8-0.7c0-0.3-0.2-0.4-0.5-0.2C741.3,49.9,740.9,49.9,740.4,49.9z M746.1,16.3l-3.2,3.8c0.8,0,1.7-0.5,2.7-1.4
		C746.7,17.9,746.8,17,746.1,16.3z M744.5,29.2c0,0.3,0.1,0.6,0.2,1c0.1,0.4,0.6,0.6,1.4,0.6c0.5-0.5,0.5-0.9,0.1-1.5
		C745.8,28.7,745.3,28.7,744.5,29.2z M746.1,79.1c0.5,0.3,1,0.3,1.6,0.1c0.6-0.2,0.9-0.6,0.9-1c-0.8,0-1.3-0.4-1.6-1.1
		c-0.3-0.8-0.8-1.1-1.6-1.1c-0.5,0.8-0.3,1.4,0.3,1.8C746.4,78.2,746.5,78.6,746.1,79.1z M788.1,148.3c0-0.8,0.1-1.3,0.3-1.6
		c0.2-0.3,0.3-0.8,0.3-1.6c-0.8-0.3-1.4-0.3-2,0.1c-0.6,0.4-1.5,0.3-2.7-0.1c0.3,0.8,0.4,1.2,0.2,1.5c-0.2,0.2-0.2,0.6-0.2,1
		c0.8,0,1.4,0,2,0.1C786.7,147.8,787.4,148,788.1,148.3z M792.2,136.3c0.3-0.5,0.4-0.9,0.2-1.2c-0.2-0.4-0.2-0.8-0.2-1.2
		c-1.2,0-1.8,0.5-1.8,1.6c0.5,0,0.8,0.2,0.9,0.5C791.4,136.1,791.7,136.3,792.2,136.3z M798.5,152.3h-1.6c0,0.5,0.3,0.8,0.8,0.9
		C798.3,153.4,798.5,153.1,798.5,152.3z"/>
	<path class="st0" d="M846.7,4.1c13.3-0.8,26.4-1.5,39.4-2.3c13-0.8,25.7-1.4,37.9-1.8c-0.2,2.4-0.4,5-0.8,7.8
		c-0.4,2.8-0.7,5.6-0.9,8.4c-0.2,2.8-0.3,5.6-0.2,8.4c0.1,2.8,0.5,5.4,1.2,7.8c-2.1,0.6-4.5,1-7.2,1.1c-2.7,0.2-5.6,0.2-8.6,0.1
		c-3-0.1-6.1-0.2-9.2-0.5c-3.1-0.2-6.1-0.5-8.9-0.8h-26.7c-0.3,5.3-0.2,10.4,0.2,15.4c0.5,5,0.7,10.6,0.7,16.9l54.7,2.3l4.1,32.3
		c0.5,0.8,0.3,1.1-0.6,1.1c-0.8,0-1.2,0.5-1,1.4c0.3,6,0.3,11.7-0.1,17.1c-0.4,5.3-0.6,10.7-0.6,15.9c0,1.4,0.1,3.6,0.2,6.7
		c0.1,3.1,0.2,6.3,0.2,9.6c0,3.3-0.2,6.4-0.5,9.3c-0.3,2.9-0.9,4.8-1.8,5.9c-0.5,0.5-2,0.8-4.6,1.1c-2.6,0.3-5.6,0.5-8.9,0.7
		c-3.3,0.1-6.5,0.2-9.6,0.2c-3.1,0-5.3-0.1-6.7-0.2c0-0.8-0.3-1.1-0.9-1.1c-0.6,0-1.1,0-1.4,0h-0.9h-0.9v0.9l0.9,0.2
		c-2.1-0.3-4-0.4-5.5-0.3c-1.6,0.1-3.2,0.1-4.9,0.1h3.2v-0.9c0-0.8-0.2-1.5-0.7-2.1c-0.5-0.7-1.1-1-1.8-1h-0.7l-0.9,0.9l-0.9,0.7
		v0.9v0.7h0.9h0.9v0.9c-4.2-0.1-8.2-0.2-12-0.2c-3.8,0-7.5,0-11.2,0c-3.7,0-7.5,0-11.3,0.1c-3.8,0.1-7.9,0.1-12.3,0.1
		c0-5.3,0-10.8,0.1-16.6c0.1-5.8,0.3-10.7,0.6-14.8c1.2,0.5,2.6,0.5,4.1,0c1.5-0.5,3.1-0.5,4.7,0c1.2,0,2.1,0.3,2.8,0.8
		c0.7,0.5,1.6,0.8,2.8,0.8c1.7,0.5,3.3,0.5,5,0.2c1.7-0.3,3.5-0.4,5.6-0.2c5.7,0.3,11.8,0.7,18.1,1.1s12.4,0.1,18.1-1.1
		c0-6.5-0.3-12.7-0.9-18.8c-0.6-6-1.1-12.7-1.4-19.9c-9.5,0.3-19.2,0-29-0.8c-9.9-0.8-19.5-1.6-29-2.4c0-5.3-0.5-10.6-1.4-16
		c-0.9-5.4-1-10.5-0.2-15.4c0-0.9,0.1-1.7,0.3-2.5c0.2-0.8,0.3-1.3,0.3-1.6c0.1-0.9,0.3-2.7,0.3-5.5c0.1-2.8,0.1-6,0.1-9.6
		c0-3.6,0-7.5-0.1-11.5c-0.1-4.1-0.1-7.9-0.1-11.5s0-6.8-0.1-9.5c-0.1-2.7-0.1-4.6-0.1-5.6c0.1-1.4,0.6-2.2,1.4-2.5
		c0.8-0.3,1.8-0.4,3.2-0.2c1.4,0.2,3.1,0.3,5.3,0.3C840.8,4.9,843.5,4.7,846.7,4.1z M838.5,62.2c0.5,0.3,0.9,0.4,1.5,0.3
		c0.5-0.1,0.6-0.5,0.1-1.2C839,61.2,838.5,61.5,838.5,62.2z M842.6,72.5c0,0.5-0.2,0.8-0.5,1c-0.3,0.2-0.5,0.7-0.5,1.5
		c0.8-0.5,1.2-0.6,1.5-0.5c0.2,0.2,0.6,0,1-0.5c0-0.3-0.2-0.4-0.5-0.3c-0.3,0.1-0.5,0-0.5-0.3V73C843.3,72.7,843,72.5,842.6,72.5z
		 M842.6,76.6c-0.5,0.8-0.2,1.1,0.9,1.1c1.1,0,1.6-0.4,1.6-1.1c-0.9-0.3-1.5-0.4-1.7-0.2C843.2,76.5,842.9,76.6,842.6,76.6z
		 M845.8,75c0.5-0.5,0.8-0.9,1.1-1.4c0.3-0.5,0.5-1.1,0.5-1.8c-0.3-0.8-0.8-0.8-1.5-0.2c-0.7,0.6-1.2,0.9-1.7,0.9
		c0.5,0.5,0.6,1,0.6,1.6C844.7,74.7,845,75,845.8,75z M845.8,68.5v1.8c0.5,0,1,0,1.7-0.1c0.7-0.1,1.2-0.3,1.5-0.8
		c-0.8,0-1.3-0.1-1.6-0.5C847,68.6,846.5,68.5,845.8,68.5z M848.9,75c0,0.6,0.6,0.9,1.8,0.9C850.7,75.3,850.1,75,848.9,75z
		 M864.3,83.8c-0.3,0-0.8,0-1.4,0.1c-0.6,0.1-0.9,0.3-0.9,0.8c0.3,0.3,0.8,0.4,1.4,0.3C864,85,864.3,84.6,864.3,83.8z M867.5,66.2
		c-0.3,0-0.7-0.1-1.1-0.3c-0.5-0.2-0.8-0.1-1.1,0.3c-0.5,0.8-0.2,1.1,0.8,1.1C867,67.3,867.5,67,867.5,66.2z M867.5,15.4
		c0.6,0,0.9-0.3,0.9-0.9C867.8,14,867.5,14.3,867.5,15.4z"/>
	<path class="st0" d="M1080.8,11.3h0.9V8.1c3.6,0,7.3,0,11-0.1c3.7-0.1,7.6-0.3,11.6-0.8v32.3v42c-3.9,0.5-8.1,0.7-12.7,0.8
		c-4.5,0.1-9.1,0-13.7-0.1c-4.6-0.1-9.2-0.3-13.7-0.5c-4.5-0.1-8.7-0.2-12.4-0.2c-1.1,5.3-1.6,10.6-1.6,16c0,5.4,0.1,10.9,0.5,16.4
		c0.3,5.5,0.6,11.1,0.8,16.7s0,11.3-0.6,16.8c-0.3,3.2-0.6,6.3-0.9,9.3c-0.3,3-0.2,6.3,0.2,9.9c-2.4,0-5.1,0-8.1-0.1
		c-3-0.1-6.1-0.1-9.4-0.1c-3.2,0-6.5,0.1-9.7,0.2c-3.2,0.2-6.3,0.5-9.2,0.9v-12.9c0-2.1-0.2-4.3-0.5-6.6c-0.3-2.3-0.5-4.7-0.5-7.2
		c0-0.8,0.1-1.8,0.5-3.3c0.3-1.4,0.5-2.7,0.5-4c0.5-1.7,0.7-3.3,0.8-4.9c0.1-1.6,0.1-3.2,0.1-4.9c0.5,0.6,1,0.9,1.6,0.9
		c0.8,0,1.3-0.1,1.7-0.2c0.4-0.1,0.6-0.6,0.6-1.4h-0.7c0-0.6-0.5-0.9-1.6-0.9h-1.6c0.3-9.5,0.1-19.2-0.7-29
		c-0.8-9.9-0.5-19.8,0.7-29.7c-1.2-4.1-1.5-8.6-0.8-13.7c0.7-5,1.2-10.4,1.5-16.2c0.3-4.5,0.3-8.9,0.1-13.2
		c-0.2-4.3-0.5-8.5-0.8-12.5c3.6,0,7.6,0,12-0.1c4.4-0.1,9-0.3,13.8-0.8c0.5,0,0.7,0.2,0.7,0.5v0.5c-0.3,0-0.5,0.2-0.7,0.6
		c-0.2,0.4-0.5,0.7-0.9,1c-0.2,0.2-0.2,0.3,0,0.5c0,0.6,0.3,1,0.9,1.1h0.7h0.5c0.3,0,0.5-0.2,0.5-0.7c0.3,0,0.4-0.2,0.2-0.6
		c-0.2-0.4-0.2-0.7-0.2-1V8.1c1.7-0.5,3.3-0.7,4.9-0.8c1.6-0.1,3.4-0.1,5.5-0.1h9.7c0.8,0,1.4,0.2,2,0.6c0.6,0.4,1.3,0.8,2,1.2
		c1.7,0,3.4,0,5.2-0.1c1.8-0.1,3.5-0.3,5.2-0.8V9c-0.5,0.5-0.7,1-0.7,1.6l0.7,0.7l0.9-0.7h0.7h0.9
		C1080.3,10.6,1080.8,10.8,1080.8,11.3z M1020.2,146.7c1.2,0,1.8-0.2,1.8-0.7c-0.9,0-1.4,0-1.6,0.1
		C1020.3,146.2,1020.2,146.4,1020.2,146.7z M1022.7,59c0.8-0.5,1.4-0.8,1.8-1.1c0.5-0.3,0.7-1.1,0.7-2.3c-1.2,0-1.9,0.4-2.1,1.1
		C1022.8,57.5,1022.7,58.2,1022.7,59z M1034,88.8c1.2,0.3,2,0,2.5-0.9c0.5-0.9,0.7-1.7,0.7-2.5c-1.2,0-1.8,0.3-1.9,1
		C1035.2,87.1,1034.8,87.9,1034,88.8z M1034,113.7c0.8,0,1.2-0.2,1.4-0.6c0.1-0.4,0.2-1,0.2-1.9C1034.5,111.2,1034,112,1034,113.7z
		 M1034,116.8c0.5,0,0.8-0.3,1-0.8c0.2-0.5,0.2-0.8-0.1-0.8c0,0.5-0.2,0.8-0.5,0.9C1034.2,116.3,1034,116.5,1034,116.8z
		 M1035.6,113.7c0.8,0,1.2-0.1,1.4-0.5c0.1-0.3,0.2-0.7,0.2-1.1c-0.3,0-0.5,0.2-0.7,0.6C1036.3,113,1036,113.4,1035.6,113.7z
		 M1037.2,79.8c0.5,0.5,0.8,0.5,1.1,0.2c0.3-0.3,0.2-0.6-0.2-0.9C1037.5,79.1,1037.2,79.3,1037.2,79.8z M1046.2,73.5
		c0.3,0,0.7-0.2,1.1-0.6c0.5-0.4,0.8-0.7,1.1-1c-0.3,0-0.7,0-1.2-0.1c-0.5-0.1-0.6-0.3-0.3-0.8c-0.3,0-0.5,0-0.7,0.1
		c-0.2,0.1-0.5,0.3-0.9,0.8C1045.9,71.9,1046.2,72.4,1046.2,73.5z M1071.1,49.3c0.5-2.1,0.7-4.3,0.8-6.6c0.1-2.3,0.1-4.7,0.1-7.2
		c-3.6-0.3-7.5-0.5-11.6-0.7c-4.1-0.1-8.1,0.4-11.9,1.6v10.4c3.8,0.8,7.7,1.4,11.8,2C1064.3,49.4,1067.9,49.6,1071.1,49.3z
		 M1052.5,54.9c0.5,0.3,1,0.4,1.6,0.3c0.6-0.1,0.9-0.5,0.9-1.2C1053.4,54,1052.5,54.3,1052.5,54.9z M1056.6,66.9
		c0.5,0,0.9,0.1,1.2,0.3c0.4,0.2,0.8,0.1,1.2-0.3c0-0.3-0.3-0.4-0.8-0.3c-0.5,0.1-0.8,0-0.8-0.3v-0.9
		C1056.9,65.9,1056.6,66.4,1056.6,66.9z M1056.6,69.4c0,0.5,0.5,0.8,1.5,0.9c1,0.2,1.3-0.1,1-0.9c-0.5-0.5-0.8-0.6-1-0.3
		C1057.9,69.3,1057.4,69.4,1056.6,69.4z M1060.7,66.9c1.1,0,1.6-0.8,1.6-2.3c-0.8-0.9-1.5-1.1-2.3-0.6c-0.8,0.5-1.4,0.9-1.8,1.2
		c0.8,0,1.2,0.4,1.2,1.1C1059.5,67.2,1059.9,67.3,1060.7,66.9z M1060.7,61.2v0.9c0,0.3,0.4,0.5,1.2,0.5c0.8,0,1.2-0.1,1.2-0.5
		c-0.5,0-0.8-0.1-1-0.5C1061.9,61.4,1061.4,61.2,1060.7,61.2z M1063.8,67.8c-0.5,0.5-0.2,0.7,0.9,0.7
		C1064.7,68,1064.4,67.8,1063.8,67.8z M1076.7,77.5c0,0.3,0.4,0.3,1.1,0.1c0.8-0.2,0.9-0.6,0.5-1c-0.2-0.1-0.5-0.2-0.9-0.2
		S1076.7,76.8,1076.7,77.5z M1079.2,59c0,0.3,0.4,0.5,1.2,0.5c0.8,0,1.2-0.1,1.2-0.5c-0.5,0-0.8-0.1-0.9-0.2c-0.3,0-0.6,0-0.8-0.1
		C1079.8,58.6,1079.5,58.7,1079.2,59z"/>
	<path class="st0" d="M1188.8,133.1h0.2c0.3,0,0.5,0.2,0.5,0.7l5.7,34.8h-22.6c-2.1-4.8-3.7-9.6-4.7-14.5c-1.1-4.8-2.4-9.4-4.1-13.8
		c-4.4,0-9.2-0.1-14.6-0.5c-5.3-0.3-10.4-0.5-15.3-0.5c-2.1,4.4-3.5,9-4.2,13.9c-0.7,4.9-1.5,9.8-2.4,14.6c-3.9,0-8,0.2-12.2,0.6
		c-4.2,0.4-8.7,0.2-13.6-0.6l5.7-38.9c0.8,0.8,1.8,0.8,3.2,0c-0.8-0.5-1.4-0.6-1.8-0.5c-0.5,0.2-0.9,0-1.4-0.5
		c1.7-9.6,3.1-19.5,4.2-29.6c1.1-10.1,2.4-20.3,4-30.7l2.5-17.9c0.3-1.7,0.9-3,1.8-4c0.9-1,1.4-2.3,1.4-4c0.8-2.6,1.3-5.2,1.6-7.8
		c0.3-2.6,0.8-5.2,1.6-7.6c1.2-3.6,2.2-7.2,2.9-10.8c0.8-3.6,1.1-7.2,1.1-10.8h6.6c-0.5,0.3-0.8,0.4-0.9,0.2
		c-0.2-0.1-0.5-0.2-0.9-0.2c0,0.8,0.5,1,1.5,0.8c1-0.2,1.8-0.5,2.6-0.8c0.5,0,0.6,0.2,0.5,0.5c-0.2,0.3,0,0.7,0.5,1.1
		c0.3-0.5,0.6-0.8,0.9-0.9c0.3-0.1,0.2-0.4-0.2-0.7h16.3c2.9-0.5,5-0.8,6.6-0.9c1.5-0.1,2.6,1.2,3.2,4.1l2.3,12
		c0.8,1.7,1.4,3.4,1.9,5.3c0.5,1.9,1,3.7,1.5,5.3c0,0.3-0.2,0.4-0.5,0.3c-0.3-0.1-0.5,0-0.5,0.3v0.9c0-0.6-0.3-0.9-0.9-0.9
		c-0.5,0-0.7,0.2-0.7,0.5v0.5l-0.9-0.9v0.9c-0.3,0-0.6,0.1-1,0.2c-0.4,0.2-0.6,0.6-0.6,1.4v0.9h0.9h0.7l-0.7,0.7l0.7-0.7v0.7
		c-0.5,0.8-0.7,1.3-0.7,1.6V38l1.6-0.9v0.5c0,0.3,0.2,0.5,0.7,0.5c0.9,0,1.4-0.3,1.6-0.9c0.1-0.6,0.2-1.1,0.2-1.6v-0.7h-2.5h0.7
		c0.5-0.5,0.9-0.8,1.2-0.9c0.4-0.1,0.6-0.4,0.6-0.7l1.6,5.4c2.7,9.5,4.9,19.2,6.4,29.2c1.6,9.9,3.4,19.9,5.5,29.8
		c0,1.1-0.2,1.6-0.7,1.6c0.8,1.2,1.4,2.7,1.8,4.5c0.5,1.8,0.9,3.5,1.4,5.2c0.5,3.6,1,7.3,1.6,11.1c0.6,3.8,0.9,7.3,0.9,10.6
		C1189.6,131.5,1189.6,132.4,1188.8,133.1z M1135.5,11.3l-0.7,0.9h1.6h2.3v-0.9l0.9,0.9v-1.6h-0.9V9.7l-0.7,0.9h-0.9h-0.5
		c-0.2,0-0.3,0.1-0.5,0.2C1136,11,1135.8,11.2,1135.5,11.3z M1140.5,108.9c2,0.3,4.8,0.4,8.5,0.2c3.7-0.1,6.7-0.2,9.2-0.2
		c-1.2-7.2-2.5-14.4-3.7-21.5c-1.3-7.1-3-13.6-5.1-19.7c-1.7,6.5-3.4,13.1-5.1,20C1142.5,94.7,1141.2,101.7,1140.5,108.9z
		 M1172.5,153.2h1.8h0.7l2.5,1.6l-0.9-2.5c-0.5-0.5-1.2-0.7-2.3-0.7h-0.9h-0.9l-1.6-0.9v0.9c0.5,0.8,0.8,1.2,0.9,1.4
		C1172,153.2,1172.2,153.2,1172.5,153.2z"/>
	<path class="st0" d="M1289.2,69.4c-1.7-0.5-3.1-0.5-4.4,0c-1.3,0.5-2.8,0.5-4.4,0c1.2,8.1,2.7,16.3,4.5,24.5
		c1.8,8.2,3.7,16.5,5.5,24.7c1.9,8.3,3.7,16.5,5.5,24.7c1.8,8.2,3.3,16.4,4.5,24.5h-29.2l-7.2-23.5c-1.4-4.4-2.7-8.5-4.1-12.4
		c-1.4-3.9-2.4-7.8-3.2-11.8c0-1.2-0.1-2.1-0.2-2.7c-0.2-0.6-0.1-1.1,0.2-1.4c0-0.5-0.3-0.8-0.8-1c-0.5-0.2-0.8-0.7-0.8-1.5
		c-1.2-6.9-2.5-14-3.7-21.4c-1.3-7.3-3-14.4-5.1-21.4h-7.2c0,8.4,0.3,16.2,0.9,23.2c0.6,7,1.1,14.4,1.4,22c0.5,9,0.5,17.7,0.1,26
		c-0.4,8.3-1.2,16.5-2.4,24.6h-9.7h0.7v-1.6h-0.7h-0.9h-0.7c-0.6,0-0.9,0.2-0.9,0.5c-0.2,0.2-0.2,0.3,0,0.5v0.7h0.9h-5.7
		c-1.7,0-3.4,0.1-5.2,0.3c-1.8,0.2-3.3,0.1-4.5-0.3c-1.4-0.8-2.2-2-2.6-3.6c-0.4-1.7-0.5-3.5-0.5-5.6c0.1-2.1,0.2-4.3,0.5-6.4
		c0.2-2.2,0.3-4.2,0.1-6c0-1.7-0.5-3.2-1.4-4.7c-0.9-1.5-1.5-2.9-1.8-4.1c-0.6-2.4-0.5-5.3,0.3-8.6c0.8-3.3,1.2-6.3,1.2-9
		c0-6.3-0.2-12-0.5-17.1c-0.3-5-0.5-10.4-0.5-16.2c0-3.2-0.1-6.3-0.2-9.5c-0.2-3.2-0.1-6.2,0.2-9c0-0.8,0-1.3-0.1-1.6
		c-0.1-0.3,0.3-0.8,1-1.6c0-0.5-0.2-0.6-0.7-0.6c-0.5,0.1-0.5-0.3-0.2-1c0-7.2,0-15.8,0.1-25.7c0.1-9.9,0.3-19.8,0.8-29.9
		c7.2,0.2,14.7,0.2,22.4,0c7.7-0.1,15.3-0.3,22.9-0.5c7.6-0.1,15-0.3,22.3-0.5c7.2-0.1,14-0.1,20.3,0c-0.8,3.3-0.6,6.3,0.3,8.9
		c1,2.6,1.7,5.6,2.1,8.9c0.3,3.2,0.3,6.6,0,10.4c-0.3,3.8-0.3,7.2,0,10.4c0.1,2.4,0.6,5,1.4,7.8c0.8,2.8,1.2,5.4,1.5,7.9
		c0.2,2.5,0,4.7-0.7,6.6c-0.7,1.9-2.2,3.1-4.6,3.7c-1.2,0.3-2.4,0.2-3.6-0.2C1291.6,69.6,1290.4,69.4,1289.2,69.4z M1216.6,22.6
		c1.2,0.5,2.1,0.5,2.6,0c0.5-0.5,0.8-0.9,0.8-1.5c0-0.5-0.3-0.8-0.8-0.9c-0.5-0.1-1.2,0.5-1.9,1.7c-0.3,0-0.6-0.1-0.9-0.2
		C1216.1,21.5,1216.2,21.8,1216.6,22.6z M1216.6,29.2v0.7c0.3,0,0.6,0.1,1,0.2c0.4,0.2,0.6-0.1,0.6-0.9c0-0.5-0.2-0.6-0.6-0.3
		C1217.3,29,1216.9,29.2,1216.6,29.2z M1268.1,42c0.5-2.1,0.7-4,0.8-5.7c0.1-1.7,0.1-3.5,0.1-5.6c-3.3-0.5-6.7-0.6-10.3-0.3
		c-3.5,0.2-7.1,0.3-10.7,0.3c-0.5-0.5-0.6-1-0.6-1.6c0.1-0.6-0.3-0.9-1-0.9c-0.5,0.8-0.5,1,0,0.7c0.5-0.3,0.7-0.2,0.7,0.2v0.7
		c-1.7,0.8-3.1,1.1-4.4,1.1c-1.3,0-2.8,0.2-4.4,0.5c0,1.7,0.1,3.4,0.5,5.3c0.3,1.9,0.5,3.7,0.5,5.3C1249.3,42.6,1259,42.6,1268.1,42
		z"/>
	<path class="st0" d="M1400.8,133.1h0.2c0.3,0,0.5,0.2,0.5,0.7l5.7,34.8h-22.6c-2.1-4.8-3.7-9.6-4.7-14.5c-1.1-4.8-2.4-9.4-4.1-13.8
		c-4.4,0-9.2-0.1-14.6-0.5c-5.3-0.3-10.4-0.5-15.3-0.5c-2.1,4.4-3.5,9-4.2,13.9c-0.7,4.9-1.5,9.8-2.4,14.6c-3.9,0-8,0.2-12.2,0.6
		c-4.2,0.4-8.7,0.2-13.6-0.6l5.7-38.9c0.8,0.8,1.8,0.8,3.2,0c-0.8-0.5-1.4-0.6-1.8-0.5c-0.5,0.2-0.9,0-1.4-0.5
		c1.7-9.6,3.1-19.5,4.2-29.6c1.1-10.1,2.4-20.3,4-30.7l2.5-17.9c0.3-1.7,0.9-3,1.8-4c0.9-1,1.4-2.3,1.4-4c0.8-2.6,1.3-5.2,1.6-7.8
		c0.3-2.6,0.8-5.2,1.6-7.6c1.2-3.6,2.2-7.2,2.9-10.8c0.8-3.6,1.1-7.2,1.1-10.8h6.6c-0.5,0.3-0.8,0.4-0.9,0.2
		c-0.2-0.1-0.5-0.2-0.9-0.2c0,0.8,0.5,1,1.5,0.8c1-0.2,1.8-0.5,2.6-0.8c0.5,0,0.6,0.2,0.5,0.5c-0.2,0.3,0,0.7,0.5,1.1
		c0.3-0.5,0.6-0.8,0.9-0.9c0.3-0.1,0.2-0.4-0.2-0.7h16.3c2.9-0.5,5-0.8,6.6-0.9c1.5-0.1,2.6,1.2,3.2,4.1l2.3,12
		c0.8,1.7,1.4,3.4,1.9,5.3c0.5,1.9,1,3.7,1.5,5.3c0,0.3-0.2,0.4-0.5,0.3c-0.3-0.1-0.5,0-0.5,0.3v0.9c0-0.6-0.3-0.9-0.9-0.9
		c-0.5,0-0.7,0.2-0.7,0.5v0.5l-0.9-0.9v0.9c-0.3,0-0.6,0.1-1,0.2c-0.4,0.2-0.6,0.6-0.6,1.4v0.9h0.9h0.7l-0.7,0.7l0.7-0.7v0.7
		c-0.5,0.8-0.7,1.3-0.7,1.6V38l1.6-0.9v0.5c0,0.3,0.2,0.5,0.7,0.5c0.9,0,1.4-0.3,1.6-0.9c0.1-0.6,0.2-1.1,0.2-1.6v-0.7h-2.5h0.7
		c0.5-0.5,0.9-0.8,1.2-0.9c0.4-0.1,0.6-0.4,0.6-0.7l1.6,5.4c2.7,9.5,4.9,19.2,6.4,29.2c1.6,9.9,3.4,19.9,5.5,29.8
		c0,1.1-0.2,1.6-0.7,1.6c0.8,1.2,1.4,2.7,1.8,4.5c0.5,1.8,0.9,3.5,1.4,5.2c0.5,3.6,1,7.3,1.6,11.1c0.6,3.8,0.9,7.3,0.9,10.6
		C1401.6,131.5,1401.6,132.4,1400.8,133.1z M1347.5,11.3l-0.7,0.9h1.6h2.3v-0.9l0.9,0.9v-1.6h-0.9V9.7l-0.7,0.9h-0.9h-0.5
		c-0.2,0-0.3,0.1-0.5,0.2C1348,11,1347.8,11.2,1347.5,11.3z M1352.4,108.9c2,0.3,4.8,0.4,8.5,0.2c3.7-0.1,6.7-0.2,9.2-0.2
		c-1.2-7.2-2.5-14.4-3.7-21.5c-1.3-7.1-3-13.6-5.1-19.7c-1.7,6.5-3.4,13.1-5.1,20C1354.4,94.7,1353.2,101.7,1352.4,108.9z
		 M1384.5,153.2h1.8h0.7l2.5,1.6l-0.9-2.5c-0.5-0.5-1.2-0.7-2.3-0.7h-0.9h-0.9l-1.6-0.9v0.9c0.5,0.8,0.8,1.2,0.9,1.4
		C1384,153.2,1384.2,153.2,1384.5,153.2z"/>
	<path class="st0" d="M1512,4.1c13.3-0.8,26.4-1.5,39.4-2.3c13-0.8,25.7-1.4,37.9-1.8c-0.2,2.4-0.4,5-0.8,7.8
		c-0.4,2.8-0.7,5.6-0.9,8.4c-0.2,2.8-0.3,5.6-0.2,8.4c0.1,2.8,0.5,5.4,1.2,7.8c-2.1,0.6-4.5,1-7.2,1.1c-2.7,0.2-5.6,0.2-8.6,0.1
		c-3-0.1-6.1-0.2-9.2-0.5c-3.1-0.2-6.1-0.5-8.9-0.8H1528c-0.3,5.3-0.2,10.4,0.2,15.4c0.5,5,0.7,10.6,0.7,16.9l54.7,2.3l4.1,32.3
		c0.5,0.8,0.3,1.1-0.6,1.1c-0.8,0-1.2,0.5-1,1.4c0.3,6,0.3,11.7-0.1,17.1c-0.4,5.3-0.6,10.7-0.6,15.9c0,1.4,0.1,3.6,0.2,6.7
		c0.1,3.1,0.2,6.3,0.2,9.6c0,3.3-0.2,6.4-0.5,9.3c-0.3,2.9-0.9,4.8-1.8,5.9c-0.5,0.5-2,0.8-4.6,1.1c-2.6,0.3-5.6,0.5-8.9,0.7
		c-3.3,0.1-6.5,0.2-9.6,0.2c-3.1,0-5.3-0.1-6.7-0.2c0-0.8-0.3-1.1-0.9-1.1c-0.6,0-1.1,0-1.4,0h-0.9h-0.9v0.9l0.9,0.2
		c-2.1-0.3-4-0.4-5.5-0.3c-1.6,0.1-3.2,0.1-4.9,0.1h3.2v-0.9c0-0.8-0.2-1.5-0.7-2.1c-0.5-0.7-1.1-1-1.8-1h-0.7l-0.9,0.9l-0.9,0.7
		v0.9v0.7h0.9h0.9v0.9c-4.2-0.1-8.2-0.2-12-0.2c-3.8,0-7.5,0-11.2,0c-3.7,0-7.5,0-11.3,0.1c-3.8,0.1-7.9,0.1-12.3,0.1
		c0-5.3,0-10.8,0.1-16.6c0.1-5.8,0.3-10.7,0.6-14.8c1.2,0.5,2.6,0.5,4.1,0c1.5-0.5,3.1-0.5,4.7,0c1.2,0,2.1,0.3,2.8,0.8
		c0.7,0.5,1.6,0.8,2.8,0.8c1.7,0.5,3.3,0.5,5,0.2c1.7-0.3,3.5-0.4,5.6-0.2c5.7,0.3,11.8,0.7,18.1,1.1s12.4,0.1,18.1-1.1
		c0-6.5-0.3-12.7-0.9-18.8c-0.6-6-1.1-12.7-1.4-19.9c-9.5,0.3-19.2,0-29-0.8c-9.9-0.8-19.5-1.6-29-2.4c0-5.3-0.5-10.6-1.4-16
		c-0.9-5.4-1-10.5-0.2-15.4c0-0.9,0.1-1.7,0.3-2.5c0.2-0.8,0.3-1.3,0.3-1.6c0.1-0.9,0.3-2.7,0.3-5.5c0.1-2.8,0.1-6,0.1-9.6
		c0-3.6,0-7.5-0.1-11.5c-0.1-4.1-0.1-7.9-0.1-11.5s0-6.8-0.1-9.5c-0.1-2.7-0.1-4.6-0.1-5.6c0.1-1.4,0.6-2.2,1.4-2.5
		c0.8-0.3,1.8-0.4,3.2-0.2c1.4,0.2,3.1,0.3,5.3,0.3C1506.2,4.9,1508.8,4.7,1512,4.1z M1503.9,62.2c0.5,0.3,0.9,0.4,1.5,0.3
		c0.5-0.1,0.6-0.5,0.1-1.2C1504.4,61.2,1503.9,61.5,1503.9,62.2z M1507.9,72.5c0,0.5-0.2,0.8-0.5,1c-0.3,0.2-0.5,0.7-0.5,1.5
		c0.8-0.5,1.2-0.6,1.5-0.5c0.2,0.2,0.6,0,1-0.5c0-0.3-0.2-0.4-0.5-0.3c-0.3,0.1-0.5,0-0.5-0.3V73
		C1508.6,72.7,1508.4,72.5,1507.9,72.5z M1507.9,76.6c-0.5,0.8-0.2,1.1,0.9,1.1c1.1,0,1.6-0.4,1.6-1.1c-0.9-0.3-1.5-0.4-1.7-0.2
		C1508.5,76.5,1508.2,76.6,1507.9,76.6z M1511.1,75c0.5-0.5,0.8-0.9,1.1-1.4c0.3-0.5,0.5-1.1,0.5-1.8c-0.3-0.8-0.8-0.8-1.5-0.2
		c-0.7,0.6-1.2,0.9-1.7,0.9c0.5,0.5,0.6,1,0.6,1.6C1510,74.7,1510.3,75,1511.1,75z M1511.1,68.5v1.8c0.5,0,1,0,1.7-0.1
		c0.7-0.1,1.2-0.3,1.5-0.8c-0.8,0-1.3-0.1-1.6-0.5C1512.4,68.6,1511.8,68.5,1511.1,68.5z M1514.3,75c0,0.6,0.6,0.9,1.8,0.9
		C1516.1,75.3,1515.5,75,1514.3,75z M1529.6,83.8c-0.3,0-0.8,0-1.4,0.1c-0.6,0.1-0.9,0.3-0.9,0.8c0.3,0.3,0.8,0.4,1.4,0.3
		C1529.3,85,1529.6,84.6,1529.6,83.8z M1532.8,66.2c-0.3,0-0.7-0.1-1.1-0.3c-0.5-0.2-0.8-0.1-1.1,0.3c-0.5,0.8-0.2,1.1,0.8,1.1
		C1532.3,67.3,1532.8,67,1532.8,66.2z M1532.8,15.4c0.6,0,0.9-0.3,0.9-0.9C1533.1,14,1532.8,14.3,1532.8,15.4z"/>
	<path class="st0" d="M1684.4,160.5c0,1.7,0.2,3.1,0.6,4.3c0.4,1.2,0.2,2.2-0.6,2.9c-4.1,0-8.2,0-12.3,0.1c-4.1,0.1-7.8-0.3-11-1
		c0-0.5-0.3-0.7-0.9-0.7h-0.9h-0.7v0.7c-0.6,0.6-1.7,0.9-3.2,0.9c-0.5-0.5-1.1-0.5-2-0.2c-0.9,0.3-1.4,0.1-1.4-0.7
		c-1.7,0.5-3.4,0.9-5.2,1.4c-1.8,0.5-3.3,0.3-4.5-0.5c-0.3,0-0.7,0-1.1,0.1c-0.5,0.1-0.8,0.1-1.1,0.1c-6.9,0.3-13.3,0.4-19.1,0.2
		c-5.8-0.2-11.6-0.2-17.3-0.2c-0.8-8.1-1.3-15.9-1.7-23.2c-0.4-7.3-0.3-14.4,0.1-21.4c0.5-5.7,0.5-11.5,0.1-17.3
		c-0.4-5.8-0.4-11.3-0.1-16.6c0.1-1.7,0.4-3.2,0.7-4.7c0.3-1.5,0.6-2.9,0.9-4.1c-0.6-1.8-0.9-3.5-1-5.2c-0.1-1.7,0-3.3,0.1-5
		c0.1-1.7,0.2-3.4,0.2-5.1c0-1.7-0.3-3.7-0.9-5.8c0.8-3.8,1.1-8.1,1.1-12.9c0-4.8-0.1-9.7-0.2-14.6c-0.2-4.9-0.1-9.6,0.1-14.1
		c0.2-4.5,0.9-8.4,2.1-11.5c2.9,0,5.7,0,8.5-0.1c2.8-0.1,5.6-0.3,8.5-0.8c5-0.1,10.2-0.3,15.7-0.5c5.5-0.1,11-0.2,16.4-0.1
		c5.4,0.1,10.8,0.3,16,0.8c5.3,0.5,10.2,1.2,14.9,2.3c0,4.8-0.2,10-0.5,15.6c-0.3,5.6-0.5,10.5-0.5,14.9c-3.6-1.8-7.5-2.9-11.8-3.3
		c-4.2-0.4-8.6-0.5-13.1-0.2c-4.5,0.2-9,0.5-13.6,0.9c-4.5,0.4-8.9,0.5-13.1,0.3c-0.9,5.3-1.2,10.8-1,16.7c0.2,5.9,0.6,11,1,15.4
		c2,0.5,4.2,0.4,6.7-0.1c2.5-0.5,4.8-0.2,6.9,1c0.5-0.5,0.5-0.7,0.1-0.8c-0.4-0.1-0.9-0.1-1.7-0.1c0.5-0.3,1.1-0.4,1.8-0.3
		c0.8,0.1,1,0.5,0.7,1.2c2.9-1.7,6.3-2.5,10.2-2.6c3.9-0.1,7.5-0.3,10.8-0.6c0.5,2.9,0.6,5.6,0.6,8.1c-0.1,2.6-0.2,5.1-0.2,7.7
		c-0.1,2.6-0.2,5.2-0.2,7.8c-0.1,2.6,0.1,5.5,0.6,8.5c-6.5,0.5-12.4,0.8-17.9,1.1c-5.4,0.3-11.5,0.5-18.3,0.5
		c0.8,6.3,0.8,12.5,0.2,18.6c-0.6,6.1-0.7,12.3-0.2,18.6c9.6,0,18.9,0.1,27.9,0.2c9,0.2,17.1,0.1,24.5-0.2c0.3,3.2,0.1,6.9-0.6,11.3
		C1684.1,152.9,1684,156.8,1684.4,160.5z M1614.1,112.1c-0.5,0.8-0.7,1.3-0.7,1.6h1.6C1615,112.6,1614.7,112.1,1614.1,112.1z
		 M1615,116.8c0,0.5,0.4,0.7,1.2,0.7c0.8,0,1.2-0.2,1.2-0.7c-0.5-0.3-0.9-0.4-1.2-0.2C1615.9,116.8,1615.5,116.8,1615,116.8z
		 M1617.5,87c0.5,0,1-0.1,1.6-0.3c0.6-0.2,1.2-0.5,1.7-0.9c0.5-0.4,0.9-0.8,1.1-1.2c0.2-0.5,0.1-0.9-0.3-1.4
		c-0.9,0.8-1.7,1.4-2.5,1.9C1618.4,85.6,1617.8,86.3,1617.5,87z M1619.1,96c0,1.1,0.5,1.6,1.6,1.6c0.5-0.5,0.5-0.9,0.1-1.5
		C1620.4,95.6,1619.9,95.6,1619.1,96z M1620.7,146c0.5,0.3,1,0.3,1.6,0c0.6-0.3,0.9-0.8,0.9-1.6c-0.8,0.3-1.2,0.1-1.5-0.6
		c-0.2-0.7-0.6-1-1-1c-0.5,0.8-0.4,1.4,0.2,1.8C1621.5,145.1,1621.5,145.5,1620.7,146z M1638.6,26.7c-0.6,0-0.9,0.2-0.9,0.5
		c-0.2,0.2-0.2,0.3,0,0.5c0.6,0,0.9,0.5,0.9,1.6c0.5,0,1-0.3,1.6-0.9c-0.5-0.3-0.8-0.5-1.1-0.5C1638.7,27.8,1638.6,27.4,1638.6,26.7
		z M1646.5,9.7c-0.3,0-0.6,0.1-1,0.2c-0.4,0.2-0.6,0.6-0.6,1.4c0.5,0.5,0.9,0.5,1.5,0.1C1646.9,11,1646.9,10.5,1646.5,9.7z
		 M1648.9,21c0,0.5-0.2,0.9-0.5,1.2c-0.3,0.4-0.5,0.8-0.5,1.2c0.9-0.5,1.5-0.6,1.7-0.5c0.2,0.2,0.5,0,0.8-0.5h-0.5
		c-0.2,0-0.2-0.2-0.2-0.7c-0.2-0.1-0.2-0.3-0.2-0.5C1649.3,21.2,1649.1,21,1648.9,21z M1650.5,25.1h-2.5c0,0.8,0.5,1.2,1.6,1.5
		C1650.7,26.8,1651,26.3,1650.5,25.1z M1653.7,20.1c-0.8-0.3-1.4-0.2-1.8,0.3c-0.5,0.5-0.9,1-1.4,1.5c0.5,0,0.6,0.3,0.6,0.8
		c-0.1,0.5,0.3,0.8,1,0.8c0.5-0.5,0.8-0.9,1.1-1.4C1653.5,21.7,1653.7,21,1653.7,20.1z M1652.1,17v1.6c0.5,0,1,0,1.6-0.1
		c0.6-0.1,0.9-0.3,0.9-0.6c-0.5,0-0.8-0.1-1-0.5C1653.4,17.1,1652.9,17,1652.1,17z M1655.3,23.5c0,0.8,0.1,1.1,0.5,0.9
		c0.3-0.1,0.7-0.2,1.1-0.2C1656.9,23.7,1656.3,23.5,1655.3,23.5z"/>
	<path class="st0" d="M1762.6,50.9l25.1-43.6c5.7-0.3,11.5-0.5,17.3-0.6c5.8-0.1,11.6-0.1,17.3-0.1c-1.2,7.2-1.8,14.8-1.7,22.6
		c0.1,7.8-0.1,15.6-0.6,23.3c-0.3,4.8-0.5,10-0.7,15.6c-0.2,5.6-0.5,11.4-1.1,17.4c-0.3,3.3-0.8,6.4-1.4,9.3
		c-0.6,2.9-0.9,5.7-0.9,8.6c-0.5,3.6-0.3,7.3,0.6,11c0.8,3.7,1.4,7.6,1.7,11.6c0.3,4.4,0,9.1-0.9,14.1c-0.9,5-1.1,10-0.7,14.8
		c0.3,3.3,0.2,6-0.3,7.9c-0.5,2-2,3.3-4.4,4.1c-2.3,0.6-4.6,0.8-7,0.7c-2.4-0.1-4.9-0.3-7.5-0.6c-2.6-0.2-5.1-0.4-7.6-0.6
		c-2.5-0.1-4.9,0-7.1,0.5c-1.2-2-1.5-4.1-0.9-6.4c0.6-2.3,0.9-4.7,0.9-7.1c0.5-3.6,0.7-7.5,0.7-11.5s0.6-7.8,1.8-11.1
		c-0.2-0.5-0.3-1.7-0.3-3.7c-0.1-2-0.1-4.3-0.1-6.8s0-4.7,0.1-6.8c0.1-2,0.2-3.3,0.3-3.7c-0.8-3.6-0.7-7.2,0.2-10.6
		c0.9-3.5,1.4-7.5,1.4-12c-1.1,1.8-2.6,4.4-4.5,7.7c-2,3.3-4,6.8-6.2,10.5c-2.2,3.7-4.2,7.2-6.1,10.5c-1.9,3.3-3.3,5.9-4.2,7.7h-9.5
		c-0.5-2-1.5-4.6-3.1-7.8c-1.6-3.2-3.3-6.5-5.1-9.8c-1.8-3.3-3.5-6.5-5.1-9.6c-1.6-3.1-2.6-5.5-3.1-7.3c-0.2,5-0.4,10.8-0.7,17.4
		c-0.3,6.6-0.6,13.4-0.8,20.5c-0.2,7-0.5,13.9-0.7,20.7c-0.2,6.8-0.3,12.7-0.3,17.9c0-0.3-0.1-0.5-0.3-0.5c-0.2,0-0.3,0.2-0.3,0.5
		c-3.5,0-6.5,0-9.2-0.1c-2.6-0.1-5.2-0.1-7.7-0.2c-2.5-0.1-5-0.1-7.6-0.2c-2.6-0.1-5.5-0.1-8.8-0.1c-1.4-3.8-2.3-7.8-2.7-12
		c-0.5-4.2-0.7-8.5-0.7-12.9c0-4.4,0.1-8.7,0.2-13.1c0.1-4.4,0.1-8.7,0-12.9c-0.2-5.4-0.1-10.6,0.2-15.6c0.3-5,0.6-9.8,1-14.6
		c0.4-4.7,0.6-9.4,0.8-14c0.1-4.6,0-9.2-0.5-13.9c0-0.5,0.5-0.7,1.6-0.7c-0.5-1.8-0.8-4-0.9-6.7c-0.2-2.6-0.3-5.5-0.3-8.6
		c-0.1-3.1-0.1-6.2-0.1-9.3c0-3.1-0.1-5.9-0.2-8.5c-0.2-2.1-0.4-4-0.7-5.5c-0.3-1.6-0.1-3,0.7-4.2c0.9-2.4,2.7-3.9,5.3-4.4
		c2.6-0.5,5.5-0.9,8.5-1.2c2.4,0,4.9,0.1,7.5,0.2c2.6,0.2,4.9,0.6,7,1.4c0.8-0.5,1.7-0.6,2.9-0.3c1.2,0.2,2.4,0.3,3.6,0.3
		c0,0.5,0.2,1,0.6,1.6c0.4,0.6,0.2,0.9-0.6,0.9c-0.8-0.5-1-0.8-0.7-1c0.3-0.2,0.2-0.7-0.2-1.5c-0.3,0-0.5,0.1-0.7,0.3
		c-0.2,0.2-0.5,0.1-0.9-0.3V9h-0.7c0-0.6-0.3-0.9-0.9-0.9h-0.9v1.6v1.6l0.9-0.7h0.9c0.1,0.2,0.3,0.2,0.5,0c0.1,0,0.5-0.3,1.1-0.9V9
		v1.6c0,0.3,0.3,0.5,0.9,0.6c0.6,0.1,1.1,0.1,1.4,0.1c0.9,1.8,2.4,4.5,4.5,8.1c2.1,3.6,4.3,7.4,6.7,11.4c2.3,4,4.5,7.9,6.6,11.8
		c2,3.8,3.4,6.9,4.2,9.2c-0.8,0-1.1,0.1-0.9,0.3c0.1,0.2,0.5,0.3,0.9,0.3c0,0.6-0.2,0.8-0.5,0.5l-0.5-0.5c0,0.8,0.2,1.1,0.6,1.1
		c0.4,0,0.7,0.2,1,0.5c-0.3,0.5-0.6,0.6-0.8,0.5c-0.2-0.1,0,0,0.8,0.5c0.9-0.5,1.5-1.1,1.7-1.8C1762.1,52.4,1762.3,51.6,1762.6,50.9
		z M1732.8,57.4c-0.8-0.9-0.9-1.4-0.6-1.4c0.4,0,0.6-0.4,0.6-1.1h-0.9c0,1.2-0.6,1.9-1.7,2.1c-1.1,0.2-1.8,0.3-2.1,0.3
		c0,0.3-0.3,0.5-0.8,0.7c-0.5,0.2-0.6,0.5-0.1,0.9c1.2,0,2-0.3,2.5-1C1730.1,57.3,1731.1,57.1,1732.8,57.4z M1732.8,80.7
		c0,0.5,0.3,0.6,0.8,0.6c0.5-0.1,0.8-0.6,0.8-1.5c-0.2,0.2-0.5,0.2-0.9,0.2C1733,80.3,1732.8,80.5,1732.8,80.7z M1745,67.8
		c-0.5,0.8-0.3,1,0.5,0.8c0.8-0.2,1.1-0.5,1.1-0.8c-0.8-0.5-1.1-0.6-1.1-0.3C1745.5,67.7,1745.3,67.8,1745,67.8z M1754.5,83.2
		c0.5,0.3,1,0.4,1.6,0.3c0.6-0.1,0.9-0.5,0.9-1.2c-0.3-0.3-0.8-0.3-1.5-0.1C1754.8,82.4,1754.5,82.7,1754.5,83.2z M1764.2,70.3h-1.6
		c0.5,0,0.8,0.1,1.1,0.2C1764.1,70.7,1764.2,70.6,1764.2,70.3z M1786.8,46.1h1.6c0-0.5-0.1-0.8-0.3-0.9c-0.2-0.1-0.3-0.5-0.3-0.9
		C1787.1,44.3,1786.8,44.9,1786.8,46.1z M1790,44.3c0,0.5,0.2,0.6,0.6,0.6c0.4-0.1,0.8-0.5,1.2-1.2C1790.6,43.6,1790,43.8,1790,44.3
		z M1803.8,91.1c1.1,0,1.6-0.2,1.6-0.7c-0.5,0-0.7-0.1-0.7-0.5v-0.5C1804.1,90.1,1803.8,90.6,1803.8,91.1z M1811,93.6
		c0-0.5,0.3-0.8,0.8-1c0.5-0.2,0.8-0.7,0.8-1.5c-0.8,0-1.3,0.3-1.6,0.9C1810.7,92.6,1810.7,93.1,1811,93.6z"/>
	<path class="st0" d="M1904.8,11.3h0.9V8.1c3.6,0,7.3,0,11-0.1c3.7-0.1,7.6-0.3,11.6-0.8v32.3v42c-3.9,0.5-8.1,0.7-12.7,0.8
		c-4.5,0.1-9.1,0-13.7-0.1c-4.6-0.1-9.2-0.3-13.7-0.5c-4.5-0.1-8.7-0.2-12.4-0.2c-1.1,5.3-1.6,10.6-1.6,16c0,5.4,0.1,10.9,0.5,16.4
		c0.3,5.5,0.6,11.1,0.8,16.7s0,11.3-0.6,16.8c-0.3,3.2-0.6,6.3-0.9,9.3c-0.3,3-0.2,6.3,0.2,9.9c-2.4,0-5.1,0-8.1-0.1
		c-3-0.1-6.1-0.1-9.4-0.1c-3.2,0-6.5,0.1-9.7,0.2c-3.2,0.2-6.3,0.5-9.2,0.9v-12.9c0-2.1-0.2-4.3-0.5-6.6c-0.3-2.3-0.5-4.7-0.5-7.2
		c0-0.8,0.1-1.8,0.5-3.3c0.3-1.4,0.5-2.7,0.5-4c0.5-1.7,0.7-3.3,0.8-4.9c0.1-1.6,0.1-3.2,0.1-4.9c0.5,0.6,1,0.9,1.6,0.9
		c0.8,0,1.3-0.1,1.7-0.2c0.4-0.1,0.6-0.6,0.6-1.4h-0.7c0-0.6-0.5-0.9-1.6-0.9h-1.6c0.3-9.5,0.1-19.2-0.7-29
		c-0.8-9.9-0.5-19.8,0.7-29.7c-1.2-4.1-1.5-8.6-0.8-13.7c0.7-5,1.2-10.4,1.5-16.2c0.3-4.5,0.3-8.9,0.1-13.2
		c-0.2-4.3-0.5-8.5-0.8-12.5c3.6,0,7.6,0,12-0.1c4.4-0.1,9-0.3,13.8-0.8c0.5,0,0.7,0.2,0.7,0.5v0.5c-0.3,0-0.5,0.2-0.7,0.6
		c-0.2,0.4-0.5,0.7-0.9,1c-0.2,0.2-0.2,0.3,0,0.5c0,0.6,0.3,1,0.9,1.1h0.7h0.5c0.3,0,0.5-0.2,0.5-0.7c0.3,0,0.4-0.2,0.2-0.6
		c-0.2-0.4-0.2-0.7-0.2-1V8.1c1.7-0.5,3.3-0.7,4.9-0.8c1.6-0.1,3.4-0.1,5.5-0.1h9.7c0.8,0,1.4,0.2,2,0.6c0.6,0.4,1.3,0.8,2,1.2
		c1.7,0,3.4,0,5.2-0.1c1.8-0.1,3.5-0.3,5.2-0.8V9c-0.5,0.5-0.7,1-0.7,1.6l0.7,0.7l0.9-0.7h0.7h0.9
		C1904.2,10.6,1904.8,10.8,1904.8,11.3z M1844.2,146.7c1.2,0,1.8-0.2,1.8-0.7c-0.9,0-1.4,0-1.6,0.1
		C1844.3,146.2,1844.2,146.4,1844.2,146.7z M1846.7,59c0.8-0.5,1.4-0.8,1.8-1.1c0.5-0.3,0.7-1.1,0.7-2.3c-1.2,0-1.9,0.4-2.1,1.1
		C1846.8,57.5,1846.7,58.2,1846.7,59z M1858,88.8c1.2,0.3,2,0,2.5-0.9c0.5-0.9,0.7-1.7,0.7-2.5c-1.2,0-1.8,0.3-1.9,1
		C1859.2,87.1,1858.7,87.9,1858,88.8z M1858,113.7c0.8,0,1.2-0.2,1.4-0.6c0.1-0.4,0.2-1,0.2-1.9C1858.5,111.2,1858,112,1858,113.7z
		 M1858,116.8c0.5,0,0.8-0.3,1-0.8c0.2-0.5,0.2-0.8-0.1-0.8c0,0.5-0.2,0.8-0.5,0.9C1858.1,116.3,1858,116.5,1858,116.8z
		 M1859.6,113.7c0.8,0,1.2-0.1,1.4-0.5c0.1-0.3,0.2-0.7,0.2-1.1c-0.3,0-0.5,0.2-0.7,0.6C1860.3,113,1860,113.4,1859.6,113.7z
		 M1861.2,79.8c0.5,0.5,0.8,0.5,1.1,0.2c0.3-0.3,0.2-0.6-0.2-0.9C1861.5,79.1,1861.2,79.3,1861.2,79.8z M1870.2,73.5
		c0.3,0,0.7-0.2,1.1-0.6c0.5-0.4,0.8-0.7,1.1-1c-0.3,0-0.7,0-1.2-0.1c-0.5-0.1-0.6-0.3-0.3-0.8c-0.3,0-0.5,0-0.7,0.1
		c-0.2,0.1-0.5,0.3-0.9,0.8C1869.9,71.9,1870.2,72.4,1870.2,73.5z M1895.1,49.3c0.5-2.1,0.7-4.3,0.8-6.6c0.1-2.3,0.1-4.7,0.1-7.2
		c-3.6-0.3-7.5-0.5-11.6-0.7c-4.1-0.1-8.1,0.4-11.9,1.6v10.4c3.8,0.8,7.7,1.4,11.8,2C1888.3,49.4,1891.9,49.6,1895.1,49.3z
		 M1876.5,54.9c0.5,0.3,1,0.4,1.6,0.3c0.6-0.1,0.9-0.5,0.9-1.2C1877.4,54,1876.5,54.3,1876.5,54.9z M1880.6,66.9
		c0.5,0,0.9,0.1,1.2,0.3c0.4,0.2,0.8,0.1,1.2-0.3c0-0.3-0.3-0.4-0.8-0.3c-0.5,0.1-0.8,0-0.8-0.3v-0.9
		C1880.9,65.9,1880.6,66.4,1880.6,66.9z M1880.6,69.4c0,0.5,0.5,0.8,1.5,0.9c1,0.2,1.3-0.1,1-0.9c-0.5-0.5-0.8-0.6-1-0.3
		C1881.8,69.3,1881.3,69.4,1880.6,69.4z M1884.7,66.9c1.1,0,1.6-0.8,1.6-2.3c-0.8-0.9-1.5-1.1-2.3-0.6c-0.8,0.5-1.4,0.9-1.8,1.2
		c0.8,0,1.2,0.4,1.2,1.1C1883.5,67.2,1883.9,67.3,1884.7,66.9z M1884.7,61.2v0.9c0,0.3,0.4,0.5,1.2,0.5c0.8,0,1.2-0.1,1.2-0.5
		c-0.5,0-0.8-0.1-1-0.5C1885.9,61.4,1885.4,61.2,1884.7,61.2z M1887.8,67.8c-0.5,0.5-0.2,0.7,0.9,0.7
		C1888.7,68,1888.4,67.8,1887.8,67.8z M1900.7,77.5c0,0.3,0.4,0.3,1.1,0.1c0.8-0.2,0.9-0.6,0.5-1c-0.2-0.1-0.5-0.2-0.9-0.2
		S1900.7,76.8,1900.7,77.5z M1903.2,59c0,0.3,0.4,0.5,1.2,0.5c0.8,0,1.2-0.1,1.2-0.5c-0.5,0-0.8-0.1-0.9-0.2c-0.3,0-0.6,0-0.8-0.1
		C1903.8,58.6,1903.5,58.7,1903.2,59z"/>
	<path class="st0" d="M2022.3,69.4c-1.7-0.5-3.1-0.5-4.4,0c-1.3,0.5-2.8,0.5-4.4,0c1.2,8.1,2.7,16.3,4.5,24.5
		c1.8,8.2,3.7,16.5,5.5,24.7c1.9,8.3,3.7,16.5,5.5,24.7c1.8,8.2,3.3,16.4,4.5,24.5h-29.2l-7.2-23.5c-1.4-4.4-2.7-8.5-4.1-12.4
		c-1.4-3.9-2.4-7.8-3.2-11.8c0-1.2-0.1-2.1-0.2-2.7c-0.2-0.6-0.1-1.1,0.2-1.4c0-0.5-0.3-0.8-0.8-1c-0.5-0.2-0.8-0.7-0.8-1.5
		c-1.2-6.9-2.5-14-3.7-21.4c-1.3-7.3-3-14.4-5.1-21.4h-7.2c0,8.4,0.3,16.2,0.9,23.2c0.6,7,1.1,14.4,1.4,22c0.5,9,0.5,17.7,0.1,26
		c-0.4,8.3-1.2,16.5-2.4,24.6h-9.7h0.7v-1.6h-0.7h-0.9h-0.7c-0.6,0-0.9,0.2-0.9,0.5c-0.2,0.2-0.2,0.3,0,0.5v0.7h0.9h-5.7
		c-1.7,0-3.4,0.1-5.2,0.3c-1.8,0.2-3.3,0.1-4.5-0.3c-1.4-0.8-2.2-2-2.6-3.6c-0.4-1.7-0.5-3.5-0.5-5.6c0.1-2.1,0.2-4.3,0.5-6.4
		c0.2-2.2,0.3-4.2,0.1-6c0-1.7-0.5-3.2-1.4-4.7c-0.9-1.5-1.5-2.9-1.8-4.1c-0.6-2.4-0.5-5.3,0.3-8.6c0.8-3.3,1.2-6.3,1.2-9
		c0-6.3-0.2-12-0.5-17.1c-0.3-5-0.5-10.4-0.5-16.2c0-3.2-0.1-6.3-0.2-9.5c-0.2-3.2-0.1-6.2,0.2-9c0-0.8,0-1.3-0.1-1.6
		c-0.1-0.3,0.3-0.8,1-1.6c0-0.5-0.2-0.6-0.7-0.6c-0.5,0.1-0.5-0.3-0.2-1c0-7.2,0-15.8,0.1-25.7c0.1-9.9,0.3-19.8,0.8-29.9
		c7.2,0.2,14.7,0.2,22.4,0c7.7-0.1,15.3-0.3,22.9-0.5c7.6-0.1,15-0.3,22.3-0.5c7.2-0.1,14-0.1,20.3,0c-0.8,3.3-0.6,6.3,0.3,8.9
		c1,2.6,1.7,5.6,2.1,8.9c0.3,3.2,0.3,6.6,0,10.4c-0.3,3.8-0.3,7.2,0,10.4c0.1,2.4,0.6,5,1.4,7.8c0.8,2.8,1.2,5.4,1.5,7.9
		c0.2,2.5,0,4.7-0.7,6.6c-0.7,1.9-2.2,3.1-4.6,3.7c-1.2,0.3-2.4,0.2-3.6-0.2C2024.7,69.6,2023.5,69.4,2022.3,69.4z M1949.8,22.6
		c1.2,0.5,2.1,0.5,2.6,0c0.5-0.5,0.8-0.9,0.8-1.5c0-0.5-0.3-0.8-0.8-0.9c-0.5-0.1-1.2,0.5-1.9,1.7c-0.3,0-0.6-0.1-0.9-0.2
		C1949.2,21.5,1949.3,21.8,1949.8,22.6z M1949.8,29.2v0.7c0.3,0,0.6,0.1,1,0.2c0.4,0.2,0.6-0.1,0.6-0.9c0-0.5-0.2-0.6-0.6-0.3
		C1950.4,29,1950.1,29.2,1949.8,29.2z M2001.3,42c0.5-2.1,0.7-4,0.8-5.7c0.1-1.7,0.1-3.5,0.1-5.6c-3.3-0.5-6.7-0.6-10.3-0.3
		c-3.5,0.2-7.1,0.3-10.7,0.3c-0.5-0.5-0.6-1-0.6-1.6c0.1-0.6-0.3-0.9-1-0.9c-0.5,0.8-0.5,1,0,0.7c0.5-0.3,0.7-0.2,0.7,0.2v0.7
		c-1.7,0.8-3.1,1.1-4.4,1.1c-1.3,0-2.8,0.2-4.4,0.5c0,1.7,0.1,3.4,0.5,5.3c0.3,1.9,0.5,3.7,0.5,5.3
		C1982.4,42.6,1992.1,42.6,2001.3,42z"/>
	<path class="st0" d="M2130.3,160.5c0,1.7,0.2,3.1,0.6,4.3c0.4,1.2,0.2,2.2-0.6,2.9c-4.1,0-8.2,0-12.3,0.1c-4.1,0.1-7.8-0.3-11-1
		c0-0.5-0.3-0.7-0.9-0.7h-0.9h-0.7v0.7c-0.6,0.6-1.7,0.9-3.2,0.9c-0.5-0.5-1.1-0.5-2-0.2c-0.9,0.3-1.4,0.1-1.4-0.7
		c-1.7,0.5-3.4,0.9-5.2,1.4c-1.8,0.5-3.3,0.3-4.5-0.5c-0.3,0-0.7,0-1.1,0.1c-0.5,0.1-0.8,0.1-1.1,0.1c-6.9,0.3-13.3,0.4-19.1,0.2
		c-5.8-0.2-11.6-0.2-17.3-0.2c-0.8-8.1-1.3-15.9-1.7-23.2c-0.4-7.3-0.3-14.4,0.1-21.4c0.5-5.7,0.5-11.5,0.1-17.3
		c-0.4-5.8-0.4-11.3-0.1-16.6c0.1-1.7,0.4-3.2,0.7-4.7c0.3-1.5,0.6-2.9,0.9-4.1c-0.6-1.8-0.9-3.5-1-5.2c-0.1-1.7,0-3.3,0.1-5
		c0.1-1.7,0.2-3.4,0.2-5.1c0-1.7-0.3-3.7-0.9-5.8c0.8-3.8,1.1-8.1,1.1-12.9c0-4.8-0.1-9.7-0.2-14.6c-0.2-4.9-0.1-9.6,0.1-14.1
		c0.2-4.5,0.9-8.4,2.1-11.5c2.9,0,5.7,0,8.5-0.1c2.8-0.1,5.6-0.3,8.5-0.8c5-0.1,10.2-0.3,15.7-0.5c5.5-0.1,11-0.2,16.4-0.1
		c5.4,0.1,10.8,0.3,16,0.8c5.3,0.5,10.2,1.2,14.9,2.3c0,4.8-0.2,10-0.5,15.6c-0.3,5.6-0.5,10.5-0.5,14.9c-3.6-1.8-7.5-2.9-11.8-3.3
		c-4.2-0.4-8.6-0.5-13.1-0.2c-4.5,0.2-9,0.5-13.6,0.9c-4.5,0.4-8.9,0.5-13.1,0.3c-0.9,5.3-1.2,10.8-1,16.7c0.2,5.9,0.6,11,1,15.4
		c2,0.5,4.2,0.4,6.7-0.1c2.5-0.5,4.8-0.2,6.9,1c0.5-0.5,0.5-0.7,0.1-0.8c-0.4-0.1-0.9-0.1-1.7-0.1c0.5-0.3,1.1-0.4,1.8-0.3
		c0.8,0.1,1,0.5,0.7,1.2c2.9-1.7,6.3-2.5,10.2-2.6c3.9-0.1,7.5-0.3,10.8-0.6c0.5,2.9,0.6,5.6,0.6,8.1c-0.1,2.6-0.2,5.1-0.2,7.7
		c-0.1,2.6-0.2,5.2-0.2,7.8c-0.1,2.6,0.1,5.5,0.6,8.5c-6.5,0.5-12.4,0.8-17.9,1.1c-5.4,0.3-11.5,0.5-18.3,0.5
		c0.8,6.3,0.8,12.5,0.2,18.6c-0.6,6.1-0.7,12.3-0.2,18.6c9.6,0,18.9,0.1,27.9,0.2c9,0.2,17.1,0.1,24.5-0.2c0.3,3.2,0.1,6.9-0.6,11.3
		C2130,152.9,2129.9,156.8,2130.3,160.5z M2060,112.1c-0.5,0.8-0.7,1.3-0.7,1.6h1.6C2060.9,112.6,2060.6,112.1,2060,112.1z
		 M2060.9,116.8c0,0.5,0.4,0.7,1.2,0.7c0.8,0,1.2-0.2,1.2-0.7c-0.5-0.3-0.9-0.4-1.2-0.2C2061.8,116.8,2061.4,116.8,2060.9,116.8z
		 M2063.4,87c0.5,0,1-0.1,1.6-0.3c0.6-0.2,1.2-0.5,1.7-0.9c0.5-0.4,0.9-0.8,1.1-1.2c0.2-0.5,0.1-0.9-0.3-1.4
		c-0.9,0.8-1.7,1.4-2.5,1.9C2064.3,85.6,2063.7,86.3,2063.4,87z M2065,96c0,1.1,0.5,1.6,1.6,1.6c0.5-0.5,0.5-0.9,0.1-1.5
		C2066.3,95.6,2065.8,95.6,2065,96z M2066.6,146c0.5,0.3,1,0.3,1.6,0c0.6-0.3,0.9-0.8,0.9-1.6c-0.8,0.3-1.2,0.1-1.5-0.6
		c-0.2-0.7-0.6-1-1-1c-0.5,0.8-0.4,1.4,0.2,1.8C2067.4,145.1,2067.3,145.5,2066.6,146z M2084.4,26.7c-0.6,0-0.9,0.2-0.9,0.5
		c-0.2,0.2-0.2,0.3,0,0.5c0.6,0,0.9,0.5,0.9,1.6c0.5,0,1-0.3,1.6-0.9c-0.5-0.3-0.8-0.5-1.1-0.5C2084.6,27.8,2084.4,27.4,2084.4,26.7
		z M2092.4,9.7c-0.3,0-0.6,0.1-1,0.2c-0.4,0.2-0.6,0.6-0.6,1.4c0.5,0.5,0.9,0.5,1.5,0.1C2092.8,11,2092.8,10.5,2092.4,9.7z
		 M2094.8,21c0,0.5-0.2,0.9-0.5,1.2c-0.3,0.4-0.5,0.8-0.5,1.2c0.9-0.5,1.5-0.6,1.7-0.5c0.2,0.2,0.5,0,0.8-0.5h-0.5
		c-0.2,0-0.2-0.2-0.2-0.7c-0.2-0.1-0.2-0.3-0.2-0.5C2095.2,21.2,2095,21,2094.8,21z M2096.4,25.1h-2.5c0,0.8,0.5,1.2,1.6,1.5
		C2096.6,26.8,2096.9,26.3,2096.4,25.1z M2099.6,20.1c-0.8-0.3-1.4-0.2-1.8,0.3c-0.5,0.5-0.9,1-1.4,1.5c0.5,0,0.6,0.3,0.6,0.8
		c-0.1,0.5,0.3,0.8,1,0.8c0.5-0.5,0.8-0.9,1.1-1.4C2099.4,21.7,2099.6,21,2099.6,20.1z M2098,17v1.6c0.5,0,1,0,1.6-0.1
		c0.6-0.1,0.9-0.3,0.9-0.6c-0.5,0-0.8-0.1-1-0.5C2099.2,17.1,2098.8,17,2098,17z M2101.2,23.5c0,0.8,0.1,1.1,0.5,0.9
		c0.3-0.1,0.7-0.2,1.1-0.2C2102.8,23.7,2102.2,23.5,2101.2,23.5z"/>
</g>
</svg>
