<?xml version="1.0" encoding="utf-8"?>
<!-- Generator: Adobe Illustrator 22.0.1, SVG Export Plug-In . SVG Version: 6.00 Build 0)  -->
<svg version="1.1" id="Layer_1" xmlns="http://www.w3.org/2000/svg" xmlns:xlink="http://www.w3.org/1999/xlink" x="0px" y="0px"
	 viewBox="0 0 1695.9 168.7" style="enable-background:new 0 0 1695.9 168.7;" xml:space="preserve">
<style type="text/css">
	.st0{fill:#FFFFFF;}
</style>
<g>
	<path class="st0" d="M84.1,9c0,5.3-0.1,10.5-0.2,15.6c-0.2,5.1-0.1,10.1,0.2,14.9c-3.8-1.5-7.9-2.5-12.3-3.1
		c-4.4-0.5-9-0.8-13.8-0.8c-4.7,0-9.5,0.1-14.4,0.3c-4.8,0.2-9.6,0.3-14.2,0.3C29,41.7,28.9,46.9,29.2,52c0.3,5.1,0.6,10.1,0.9,14.9
		c5.7,1.7,11.7,2.2,18,1.6c6.2-0.6,12.6-1.1,19.1-1.6c0.1,2.1,0.2,4.6,0.1,7.3c-0.1,2.8-0.1,5.6-0.1,8.6s0,5.8,0.1,8.7
		c0.1,2.9,0.3,5.4,0.8,7.7c-6.5,0.8-12.8,1-19.1,0.7c-6.3-0.3-12.5-0.3-18.9,0c0.8,11.3,1,22.9,0.7,34.7
		c-0.3,11.8-0.2,22.9,0.2,33.3c-5.7,0-10.8,0.1-15.3,0.2c-4.4,0.1-9.1,0.1-13.9-0.2c-0.9-11.6-1.4-22.7-1.5-33.3
		C0.3,124,0.3,112.2,0.3,99.2c0-2.1-0.1-4.1-0.2-6.1c-0.2-2-0.1-4,0.2-6.1c0-1.7,0.3-3.1,0.8-4.4c0.5-1.3,0.8-2.7,0.8-4.4
		c0-0.8-0.2-1.4-0.5-1.9c-0.3-0.5-0.7-1.2-1.1-2.1c0-2.4,0.2-4.9,0.6-7.6c0.4-2.6,0.2-5.2-0.6-7.6c0.5-4.1,0.8-7.8,0.9-11.3
		c0.1-3.5,0.3-6.9,0.3-10.2c0.1-3.3,0.1-6.7,0.1-10.1s0.1-7.1,0.2-11.2C1.6,15.4,1.8,15,2.4,15c0.7,0.1,1-0.1,1-0.6
		c-0.8-2.3-0.8-4.7,0-7.2C9.2,6,15.3,5.4,21.9,5.3c6.6-0.1,13.1,0,19.5,0.3C48.7,6.1,56,6.3,63.4,6.2C70.7,6.1,77.7,7.1,84.1,9z
		 M6,166.8c0,0.5,0.2,0.6,0.6,0.3c0.4-0.2,0.7-0.3,1-0.3c-0.3,0-0.6-0.1-1-0.2C6.1,166.4,6,166.5,6,166.8z M7.5,6.6v0.7h0.9
		c0,0.5,0.1,0.5,0.3,0.2C9,7.2,9.1,6.9,9.1,6.6c-0.3-0.5-0.6-0.5-1-0.1C7.7,6.8,7.5,6.9,7.5,6.6z M17.3,159.6
		c0.5,0.5,0.8,0.6,0.9,0.3c0.1-0.2,0.4-0.3,0.7-0.3c0-1.2-0.3-1.9-1-2c-0.7-0.1-1.4-0.2-2.1-0.2c0.3,0.8,0.4,1.4,0.3,1.8
		c-0.1,0.5,0,0.9,0.3,1.4c-0.2,0-0.3,0.1-0.5,0.2c-0.2,0.2-0.2,0.6-0.2,1.4c0.8,0,1.2-0.2,1.4-0.6C17.2,161.1,17.3,160.5,17.3,159.6
		z"/>
	<path class="st0" d="M180.4,71.9c-0.2,1.2,0,2.3,0.3,3.3c0.4,1,0.8,2.3,1.2,4c0,2.4-0.2,4.9-0.5,7.6c-0.3,2.6-0.5,5.2-0.5,7.8
		c0,4.4,0,8.8,0,13.3s-0.2,9.4-0.7,14.7c-0.3,3.3-0.5,6.3-0.7,8.8c-0.2,2.6,0.1,5.3,0.7,8.1c0,0.5,0.1,1,0.3,1.7
		c0.2,0.7,0.3,1.2,0.3,1.7c0,1.2-0.3,2.4-0.8,3.6c-0.5,1.2-0.8,2.4-0.8,3.6c-0.3,2.9-0.2,5.8,0.5,8.8c0.6,3,0.8,6,0.5,8.8
		c-1.2,0.3-2,0.2-2.4-0.2c-0.4-0.5-0.9-0.7-1.7-0.7c-4.1,0-7.8-0.4-11.1-1.1c-3.3-0.8-6.6-1.1-9.9-1.1c-2.9,0.3-5.8,0.7-8.8,1.1
		c-3,0.5-6,0.3-8.8-0.5c-0.3-0.1-0.5-0.5-0.5-1.1c0-0.6-0.1-1.2-0.2-1.9c-0.2-0.7-0.3-1.4-0.6-2c-0.2-0.7-0.6-1.1-1.2-1.2
		c0.8-0.5,1-1.3,0.8-2.6c-0.2-1.3-0.5-2.3-0.8-3.1c0.8-1.2,0.9-2.6,0.6-4.2c-0.4-1.6-0.6-3.4-0.6-5.5c0-1.2,0.1-2.2,0.3-3.1
		c0.2-0.8,0.3-1.4,0.3-1.7c-0.3-1.2-0.8-1.8-1.4-1.9c-0.6-0.1-0.9-0.6-0.9-1.5c3.2-0.8,6.3-1.1,9.3-0.9c3,0.2,5.6,0.2,7.7,0.2
		c0.8-1.2,1-2.4,0.8-3.7c-0.2-1.3,0-1.9,0.8-1.9c-0.8-4.8-1-10.4-0.8-16.8c0.2-6.4,0.2-12.6-0.1-18.6c-0.5-9.9-0.9-19.5-1.4-28.8
		s-0.5-18.2-0.2-26.8c-2.6-0.8-4.7-1.2-6.6-1.2c-1.8-0.1-3.6,0-5.3,0.1c-1.7,0.2-3.5,0.4-5.4,0.7c-1.9,0.3-4.2,0.5-6.9,0.5
		c-0.3,8.4-0.3,16.7,0.1,24.9c0.4,8.1,0.8,16.2,1.2,24.1c0.5,7.9,0.8,15.7,1,23.5c0.2,7.8,0,15.6-0.8,23.4c0.5,0.6,1.1,1,1.8,1.2
		c0.8,0.2,1.5,0.5,2.3,0.7c0.8,0.2,1.4,0.6,2,1c0.6,0.5,1,1.1,1.1,2c-0.3,0-0.8-0.1-1.4-0.3c-0.6-0.2-0.9-0.1-0.9,0.3
		c0.3,2.4,0.6,5,1,7.9c0.4,2.9,0.3,6.1-0.3,9.7c0,0.5-0.1,1.1-0.3,1.8c-0.2,0.8-0.3,1.5-0.3,2.3c0,0.8,0.4,1.5,1.1,2.4
		c0.8,0.8,1.1,1.6,1.1,2.4c-5.7,0.8-11.8,0.9-18.1,0.6c-6.3-0.4-12.1-0.6-17.4-0.6c-1.7-16-2.7-31.8-3.1-47.5
		c-0.4-15.7-0.7-31.3-1-46.8c-0.2-6.5,0.3-13.1,1.5-19.8c1.1-6.7,1.5-13.3,1-19.8c-0.3-4.4-0.8-8.5-1.6-12.3
		c-0.8-3.8-0.8-7.8,0-11.9c10.1,0,20.8,0,32.1-0.1c11.3-0.1,22.1-0.3,32.5-0.6c3.2-0.5,6.3-0.6,9.5-0.3s6.2,1.2,9,2.8
		c0.6,2.4,0.8,4.9,0.7,7.3c-0.2,2.5-0.4,5-0.7,7.5c-0.3,2.5-0.5,5-0.7,7.5c-0.2,2.5,0.1,4.9,0.7,7.3c0,0.9,0.3,1.8,0.9,2.6
		c0.6,0.8,1.1,1.8,1.4,3.1c0.5,2.1,0.2,4.3-0.7,6.7c-0.9,2.3-1.2,4.7-0.9,7.1c0,0.8,0.3,1.4,0.8,2c0.5,0.6,0.8,1.3,0.8,2
		c0,1.7-0.2,3.3-0.6,4.9C180.2,68.6,180.1,70.2,180.4,71.9z M103.8,116.2c0,0.3,0.3,0.3,1,0.1c0.7-0.2,0.9-0.6,0.6-1
		C104.3,115.3,103.8,115.6,103.8,116.2z M107,87c0.3-0.3,0.6-0.5,1-0.7c0.4-0.1,0.6-0.5,0.6-0.9c-0.8-0.3-1.3-0.2-1.7,0.3
		C106.5,86.3,106.5,86.7,107,87z M110.1,36.4c0-0.8-0.3-1.3-1-1.7c-0.7-0.4-1.4-0.3-2.1,0.1c0,0.8,0.3,1.2,1,1.4
		C108.7,36.3,109.4,36.4,110.1,36.4z M107,45.2v1.6h1.6C108.6,45.7,108,45.2,107,45.2z M108.6,49.9c-0.5,0.5-0.2,0.7,0.8,0.7
		c1,0,1.2-0.2,0.8-0.7c0-0.3-0.2-0.4-0.5-0.2C109.4,49.9,109,49.9,108.6,49.9z M114.2,16.3l-3.2,3.8c0.8,0,1.7-0.5,2.7-1.4
		C114.8,17.9,115,17,114.2,16.3z M112.6,29.2c0,0.3,0.1,0.6,0.2,1c0.1,0.4,0.6,0.6,1.4,0.6c0.5-0.5,0.5-0.9,0.1-1.5
		C113.9,28.7,113.4,28.7,112.6,29.2z M114.2,79.1c0.5,0.3,1,0.3,1.6,0.1c0.6-0.2,0.9-0.6,0.9-1c-0.8,0-1.3-0.4-1.6-1.1
		c-0.3-0.8-0.8-1.1-1.6-1.1c-0.5,0.8-0.3,1.4,0.3,1.8C114.5,78.2,114.7,78.6,114.2,79.1z M156.2,148.3c0-0.8,0.1-1.3,0.3-1.6
		c0.2-0.3,0.3-0.8,0.3-1.6c-0.8-0.3-1.4-0.3-2,0.1c-0.6,0.4-1.5,0.3-2.7-0.1c0.3,0.8,0.4,1.2,0.2,1.5c-0.2,0.2-0.2,0.6-0.2,1
		c0.8,0,1.4,0,2,0.1C154.8,147.8,155.5,148,156.2,148.3z M160.3,136.3c0.3-0.5,0.4-0.9,0.2-1.2c-0.2-0.4-0.2-0.8-0.2-1.2
		c-1.2,0-1.8,0.5-1.8,1.6c0.5,0,0.8,0.2,0.9,0.5C159.6,136.1,159.9,136.3,160.3,136.3z M166.6,152.3h-1.6c0,0.5,0.3,0.8,0.8,0.9
		C166.4,153.4,166.6,153.1,166.6,152.3z"/>
	<path class="st0" d="M279.2,69.4c-1.7-0.5-3.1-0.5-4.4,0c-1.3,0.5-2.8,0.5-4.4,0c1.2,8.1,2.7,16.3,4.5,24.5
		c1.8,8.2,3.7,16.5,5.5,24.7c1.9,8.3,3.7,16.5,5.5,24.7c1.8,8.2,3.3,16.4,4.5,24.5h-29.2l-7.2-23.5c-1.4-4.4-2.7-8.5-4.1-12.4
		c-1.4-3.9-2.4-7.8-3.2-11.8c0-1.2-0.1-2.1-0.2-2.7c-0.2-0.6-0.1-1.1,0.2-1.4c0-0.5-0.3-0.8-0.8-1c-0.5-0.2-0.8-0.7-0.8-1.5
		c-1.2-6.9-2.5-14-3.7-21.4c-1.3-7.3-3-14.4-5.1-21.4h-7.2c0,8.4,0.3,16.2,0.9,23.2c0.6,7,1.1,14.4,1.4,22c0.5,9,0.5,17.7,0.1,26
		c-0.4,8.3-1.2,16.5-2.4,24.6h-9.7h0.7v-1.6h-0.7h-0.9h-0.7c-0.6,0-0.9,0.2-0.9,0.5c-0.2,0.2-0.2,0.3,0,0.5v0.7h0.9h-5.6
		c-1.7,0-3.4,0.1-5.2,0.3s-3.3,0.1-4.5-0.3c-1.4-0.8-2.2-2-2.6-3.6c-0.4-1.7-0.5-3.5-0.5-5.6c0.1-2.1,0.2-4.3,0.5-6.4
		c0.2-2.2,0.3-4.2,0.1-6c0-1.7-0.5-3.2-1.4-4.7c-0.9-1.5-1.5-2.9-1.8-4.1c-0.6-2.4-0.5-5.3,0.3-8.6c0.8-3.3,1.2-6.3,1.2-9
		c0-6.3-0.2-12-0.5-17.1c-0.3-5-0.5-10.4-0.5-16.2c0-3.2-0.1-6.3-0.2-9.5c-0.2-3.2-0.1-6.2,0.2-9c0-0.8,0-1.3-0.1-1.6
		c-0.1-0.3,0.3-0.8,1-1.6c0-0.5-0.2-0.6-0.7-0.6c-0.5,0.1-0.5-0.3-0.2-1c0-7.2,0-15.8,0.1-25.7c0.1-9.9,0.3-19.8,0.8-29.9
		c7.2,0.2,14.7,0.2,22.4,0c7.7-0.1,15.3-0.3,22.9-0.5c7.6-0.1,15-0.3,22.3-0.5c7.2-0.1,14-0.1,20.3,0c-0.8,3.3-0.6,6.3,0.3,8.9
		c1,2.6,1.7,5.6,2.1,8.9c0.3,3.2,0.3,6.6,0,10.4c-0.3,3.8-0.3,7.2,0,10.4c0.1,2.4,0.6,5,1.4,7.8c0.8,2.8,1.2,5.4,1.5,7.9
		c0.2,2.5,0,4.7-0.7,6.6c-0.7,1.9-2.2,3.1-4.6,3.7c-1.2,0.3-2.4,0.2-3.6-0.2C281.6,69.6,280.4,69.4,279.2,69.4z M206.6,22.6
		c1.2,0.5,2.1,0.5,2.6,0c0.5-0.5,0.8-0.9,0.8-1.5c0-0.5-0.3-0.8-0.8-0.9c-0.5-0.1-1.2,0.5-1.9,1.7c-0.3,0-0.6-0.1-0.9-0.2
		C206.1,21.5,206.2,21.8,206.6,22.6z M206.6,29.2v0.7c0.3,0,0.6,0.1,1,0.2c0.4,0.2,0.6-0.1,0.6-0.9c0-0.5-0.2-0.6-0.6-0.3
		C207.3,29,206.9,29.2,206.6,29.2z M258.2,42c0.5-2.1,0.7-4,0.8-5.7c0.1-1.7,0.1-3.5,0.1-5.6c-3.3-0.5-6.7-0.6-10.3-0.3
		c-3.5,0.2-7.1,0.3-10.7,0.3c-0.5-0.5-0.6-1-0.6-1.6c0.1-0.6-0.3-0.9-1-0.9c-0.5,0.8-0.5,1,0,0.7c0.5-0.3,0.7-0.2,0.7,0.2v0.7
		c-1.7,0.8-3.1,1.1-4.4,1.1c-1.3,0-2.8,0.2-4.4,0.5c0,1.7,0.1,3.4,0.5,5.3c0.3,1.9,0.5,3.7,0.5,5.3C239.3,42.6,249,42.6,258.2,42z"
		/>
	<path class="st0" d="M390.8,133.1h0.2c0.3,0,0.5,0.2,0.5,0.7l5.6,34.8h-22.6c-2.1-4.8-3.7-9.6-4.7-14.5c-1.1-4.8-2.4-9.4-4.1-13.8
		c-4.4,0-9.2-0.1-14.6-0.5c-5.4-0.3-10.4-0.5-15.3-0.5c-2.1,4.4-3.5,9-4.2,13.9c-0.7,4.9-1.5,9.8-2.4,14.6c-3.9,0-8,0.2-12.2,0.6
		c-4.2,0.4-8.7,0.2-13.6-0.6l5.6-38.9c0.8,0.8,1.8,0.8,3.2,0c-0.8-0.5-1.4-0.6-1.8-0.5c-0.5,0.2-0.9,0-1.4-0.5
		c1.7-9.6,3.1-19.5,4.2-29.6c1.1-10.1,2.4-20.3,4-30.7l2.5-17.9c0.3-1.7,0.9-3,1.8-4c0.9-1,1.4-2.3,1.4-4c0.8-2.6,1.3-5.2,1.6-7.8
		c0.3-2.6,0.8-5.2,1.6-7.6c1.2-3.6,2.2-7.2,2.9-10.8c0.8-3.6,1.1-7.2,1.1-10.8h6.6c-0.5,0.3-0.8,0.4-0.9,0.2C335.8,5,335.5,5,335,5
		c0,0.8,0.5,1,1.5,0.8c1-0.2,1.8-0.5,2.6-0.8c0.5,0,0.6,0.2,0.5,0.5c-0.2,0.3,0,0.7,0.5,1.1c0.3-0.5,0.6-0.8,0.9-0.9
		c0.3-0.1,0.2-0.4-0.2-0.7h16.3c2.9-0.5,5-0.8,6.6-0.9c1.5-0.1,2.6,1.2,3.2,4.1l2.3,12c0.8,1.7,1.4,3.4,1.9,5.3
		c0.5,1.9,1,3.7,1.5,5.3c0,0.3-0.2,0.4-0.5,0.3c-0.3-0.1-0.5,0-0.5,0.3v0.9c0-0.6-0.3-0.9-0.9-0.9c-0.5,0-0.7,0.2-0.7,0.5v0.5
		l-0.9-0.9v0.9c-0.3,0-0.6,0.1-1,0.2c-0.4,0.2-0.6,0.6-0.6,1.4v0.9h0.9h0.7l-0.7,0.7l0.7-0.7v0.7c-0.5,0.8-0.7,1.3-0.7,1.6V38
		l1.6-0.9v0.5c0,0.3,0.2,0.5,0.7,0.5c0.9,0,1.4-0.3,1.6-0.9c0.1-0.6,0.2-1.1,0.2-1.6v-0.7h-2.5h0.7c0.5-0.5,0.9-0.8,1.2-0.9
		c0.4-0.1,0.6-0.4,0.6-0.7l1.6,5.4c2.7,9.5,4.9,19.2,6.4,29.2c1.6,9.9,3.4,19.9,5.5,29.8c0,1.1-0.2,1.6-0.7,1.6
		c0.8,1.2,1.4,2.7,1.8,4.5s0.9,3.5,1.4,5.2c0.5,3.6,1,7.3,1.6,11.1c0.6,3.8,0.9,7.3,0.9,10.6C391.6,131.5,391.6,132.4,390.8,133.1z
		 M337.5,11.3l-0.7,0.9h1.6h2.3v-0.9l0.9,0.9v-1.6h-0.9V9.7l-0.7,0.9h-0.9h-0.5c-0.2,0-0.3,0.1-0.5,0.2
		C338,11,337.8,11.2,337.5,11.3z M342.5,108.9c2,0.3,4.8,0.4,8.5,0.2c3.7-0.1,6.7-0.2,9.2-0.2c-1.2-7.2-2.5-14.4-3.7-21.5
		c-1.3-7.1-3-13.6-5.1-19.7c-1.7,6.5-3.4,13.1-5.1,20C344.5,94.7,343.2,101.7,342.5,108.9z M374.6,153.2h1.8h0.7l2.5,1.6l-0.9-2.5
		c-0.5-0.5-1.2-0.7-2.3-0.7h-0.9h-0.9l-1.6-0.9v0.9c0.5,0.8,0.8,1.2,0.9,1.4C374,153.2,374.2,153.2,374.6,153.2z"/>
	<path class="st0" d="M498.9,57.4v-0.9c-0.6,0-1.1,0.2-1.4,0.5l-0.5,0.5c-0.5,0.5-0.7,1-0.7,1.6v0.7h0.7h1.8v-1.6v17.9v33v33
		c0,2.1-0.2,3.8-0.7,5c-0.5,1.2-1.1,2.3-1.8,3.2c-0.8,0.9-1.6,1.8-2.6,2.6c-1,0.8-2,1.8-3.1,3.1c-1.7,2-2.9,4-3.6,6.1
		c-0.8,2.1-2,3.8-3.6,5c-11-0.3-22.5-0.2-34.6,0.2c-12.1,0.5-24.2,0.7-36.4,0.7c-0.6,0-0.9-0.5-0.9-1.6c1.1,0,1.9-0.3,2.5-0.9v-0.7
		c0.5,0,0.8-0.1,1.1-0.5l0.5-0.5c0-0.3,0-0.5-0.1-0.7c-0.1-0.1-0.3-0.5-0.8-0.9l-0.7-0.7v0.7h-0.9h-0.7v0.9v0.7h-0.9v0.9l-0.7,0.7
		v0.9h0.7c-0.3,0.3-0.9,0.6-1.7,1c-0.8,0.4-1.6,0.6-2.4,0.6c-0.3-4.8-0.4-9.8-0.3-14.9c0.1-5.1,0-10.3-0.3-15.6
		c1.7-0.9,3.1-1.1,4.3-0.7c1.2,0.5,2.2,0.1,2.9-1.1c0.3,0,0.5,0.2,0.5,0.5c0,0.3-0.2,0.5-0.5,0.5c0,0.5,0.3,0.4,1-0.1
		c0.7-0.5,1.4-0.8,2.1-0.8c0.5,0.5,1,0.9,1.7,1.2c0.7,0.4,1.2,0.6,1.5,0.6c4.5,0.8,9.1,1,13.8,0.7c4.7-0.3,9.3-0.3,13.8,0
		c3.6,0.3,7.2,0.3,10.6,0c3.5-0.3,6.6-0.8,9.5-1.6c0-4.1-0.3-8.5-0.8-13.3c-0.5-4.8-0.8-9.3-0.8-13.3c0.3,0.5,0.6,0.8,0.9,1
		c0.3,0.2,1.1,0.2,2.3-0.1c0-0.8-0.6-1.2-1.7-1.2c-1.1-0.1-1.9-0.5-2.4-1.2c0.5-2.1,0.3-4.2-0.5-6.2c-0.8-2-1.1-4.3-1.1-6.7
		c0-0.8,0.1-1.4,0.5-2c0.3-0.6,0.5-1.3,0.5-2c0.3-3.2,0-6.3-0.8-9.5c-0.8-3.2-0.9-6.2-0.1-9c0-0.8-0.1-1-0.3-0.8
		c-0.2,0.2-0.3,0-0.3-0.8c0.3-5.3,0.6-10.6,1-15.9c0.4-5.3,0.6-11,0.6-17.1c-10.7-0.9-21.8-0.9-33.2,0c-0.8-5.3-0.9-10.6-0.6-16
		c0.4-5.4,0.6-10.5,0.6-15.4c1.2,0,2.6,0.1,4.2,0.2c1.6,0.2,3.2,0.1,4.9-0.2c0.3,0.3,0.5,0.6,0.5,1c0,0.4,0.4,0.6,1.1,0.6
		c0.8,0,0.8-0.2,0.2-0.6c-0.6-0.4-0.7-0.7-0.2-1c8.1,0,17,0.1,26.7,0.2c9.6,0.2,19,0.1,28-0.2c2,8.9,2.8,17.4,2.6,25.4
		C499.4,40,499.2,48.5,498.9,57.4z M422.9,157.3c0,0.5,0.2,0.7,0.7,0.7h0.9C424.5,157.5,424,157.3,422.9,157.3z M428.6,162
		c0-1.1-0.5-1.6-1.6-1.6c0,0.5,0.1,0.8,0.2,1.1C427.4,161.9,427.8,162,428.6,162z M431.1,146.7c0.8,0,1.2-0.3,1.4-0.9
		c0.1-0.6,0.2-1.1,0.2-1.4c-0.5-0.5-1-0.7-1.7-0.7s-1.2,0.2-1.5,0.7C431.1,144.4,431.7,145.2,431.1,146.7z M429.5,161.4
		c1.8,0,2.3-0.8,1.6-2.5c-0.8,0-1.2,0.2-1.4,0.6C429.5,159.8,429.5,160.5,429.5,161.4z M433.3,144.4c1.2,0,1.8-0.3,1.8-0.9
		c-0.5-0.3-0.9-0.3-1.2-0.1C433.5,143.6,433.3,144,433.3,144.4z M434.2,146c0.5,0.3,1.1,0.3,1.9,0c0.8-0.3,1.2-0.8,1.2-1.6l-0.5-0.5
		l-1.1-1.1v0.7c0.5,0.8,0.4,1.2-0.1,1.5C435.2,145.2,434.7,145.5,434.2,146z M439.9,153.2c0-0.8,0.1-1.2,0.5-1.5
		c0.3-0.2,0.5-0.6,0.5-1c-1.2,0-2,0.5-2.4,1.4c-0.4,0.9-0.9,1.5-1.7,1.8c0.3,0.5,0.8,0.5,1.5,0C438.8,153.5,439.4,153.2,439.9,153.2
		z"/>
	<path class="st0" d="M573.7,142.8l1.8,24.9c-11.3-0.9-22.1-1.1-32.4-0.5c-10.3,0.6-20.5,0.8-30.6,0.5c0-5.3,0.1-10.6,0.2-15.9
		c0.1-5.3,0.6-10.2,1.4-14.6c1.7-0.5,3.4-0.5,5.3-0.1c1.9,0.4,3.7,0.4,5.3,0.1c0.3-5.3,0.6-10.1,1-14.6c0.4-4.4,0.6-9.3,0.6-14.6
		c0.3-0.8,0.8-0.8,1.5-0.2c0.7,0.6,1.2,0.7,1.7,0.2c0-0.6-0.2-1-0.5-1.1c-0.3-0.1-0.7-0.3-1.1-0.3c-0.5-0.1-0.8-0.1-1.1-0.2
		c-0.3-0.1-0.5-0.3-0.5-0.8c0.3-6.8,0.5-13.8,0.6-21c0.1-7.2,0.1-14.7,0.1-22.4c0-0.6,0.5-0.9,1.6-0.9c0-0.8-0.3-1.1-0.8-1
		c-0.5,0.1-0.8-0.1-0.8-0.6c0-1.2,0-2.3,0.1-3.4c0.1-1.1,0.3-1.8,0.8-2.3c-0.8-2.1-0.9-4.5-0.6-7.2c0.4-2.7,0.6-5.6,0.6-8.8
		c-1.7-0.3-4-0.3-7,0c-3,0.3-5.5,0.3-7.5,0l1.6-29.8c6.5-0.5,13.8-0.5,21.9-0.1c8.1,0.4,15.9,0.1,23.3-0.8c2.9-0.3,5.5-0.6,7.8-1
		c2.3-0.4,5.1-0.6,8.2-0.6V38h-19.4c-0.3,15.5-0.6,31.5-1,47.8c-0.4,16.3-0.6,33.2-0.6,50.5c3.3,0.5,6.5,0.6,9.6,0.3
		c3.1-0.2,6.1-0.3,8.9-0.3v4.7h-1.6h-0.7v0.9c0,0.8,0.1,1.2,0.3,1.5c0.2,0.2,0.3,0.6,0.3,1h0.9v-0.9h0.2
		C573.5,143.5,573.7,143.3,573.7,142.8z M533.4,27.6c0.3,0.3,0.6,0.4,1,0.3c0.4-0.1,0.6-0.5,0.6-1.2c0,0.5-0.3,0.6-0.8,0.5
		C533.7,27,533.4,27.1,533.4,27.6z M542.2,14.5h-1.6c0,0.9,0.4,1.4,1.1,1.4C542.5,15.8,542.7,15.4,542.2,14.5z M543.1,46.1l-2.5-1.8
		c0,1.7,0.3,2.7,0.9,3.2c0.6,0.5,1.1,1.1,1.6,1.8c0.3,0,0.5-0.2,0.7-0.6c0.1-0.4,0.5-0.7,0.9-1c-0.8,0-1.2-0.2-1.4-0.6
		C543.2,46.7,543.1,46.4,543.1,46.1z M543.1,92c0.8,0.3,1.2,0.2,1.4-0.3c0.1-0.5,0.2-0.9,0.2-1.2c-0.8,0-1.2,0.2-1.4,0.5
		C543.2,91.2,543.1,91.5,543.1,92z M548.8,51.8c0.3,0.3,0.6,0.3,1,0.1c0.4-0.2,0.6-0.6,0.6-1c-0.8-0.5-1.2-0.5-1.4-0.2
		C548.9,50.9,548.8,51.3,548.8,51.8z M550.4,54.9v-1.6c-0.5,0-0.8,0.1-0.9,0.3c-0.2,0.2-0.4,0.3-0.7,0.3
		C548.8,54.6,549.3,54.9,550.4,54.9z M551.1,29.8c0.5,0.5,1,0.6,1.6,0.6c0.6-0.1,0.9-0.5,0.9-1.2c-0.3-0.5-0.8-0.5-1.5-0.2
		C551.4,29.2,551.1,29.5,551.1,29.8z M554.4,155.7c1.1,0,1.6-0.3,1.6-0.9l-0.9-0.9c0,0.5-0.1,0.8-0.3,0.9
		C554.6,155,554.4,155.3,554.4,155.7z M560.8,17h-1.6v0.9c0-0.5,0.3-0.6,0.8-0.5C560.5,17.6,560.8,17.4,560.8,17z M561.7,158
		c0.3-0.3,0.6-0.6,1-0.8c0.4-0.2,0.6-0.7,0.6-1.5c-0.8,0-1.3,0.3-1.7,0.9C561.2,157.2,561.2,157.7,561.7,158z"/>
	<path class="st0" d="M588.1,167.9l2.5-30.7c1.7,0,3.6-0.1,5.8-0.3c2.2-0.2,4.6-0.1,7.1,0.3c1.2-5.7,1.9-11.3,2-16.7
		c0.1-5.4,0-10.4-0.5-14.9c0-0.5,0.5-0.7,1.6-0.7c0-0.5-0.3-0.6-0.8-0.6c-0.5,0.1-0.8-0.3-0.8-1c0.5-4.1,0.6-7.8,0.3-11.1
		c-0.2-3.3-0.3-6.6-0.3-9.9c0-2.6,0-5.5-0.1-8.8c-0.1-3.3-0.2-6.8-0.2-10.4c-0.1-3.6-0.1-7.2-0.1-10.8c0-3.6,0.1-7,0.5-10.2
		c0.5,0,0.5-0.3,0.1-0.8c-0.4-0.5-0.1-0.8,0.8-0.8c-0.5-0.5-0.7-1-0.8-1.7c-0.1-0.7-0.1-1.2-0.1-1.7c-2.9,0.5-5.7,0.8-8.6,0.9
		c-2.9,0.2-5.1-0.4-6.8-1.6c1.2-4.8,1.7-9.8,1.4-14.8c-0.3-5-0.5-10.6-0.5-16.6c11.8,0,23.4,0.2,35,0.6c11.6,0.4,23.3,0.9,35,1.7
		c0.5,0.9,1.1,1.3,1.9,1.1c0.8-0.1,1.8-0.2,3.1-0.2l1.6,1.6c0.3-0.3,0.2-0.6-0.2-0.8c-0.5-0.2-0.7-0.8-0.7-1.7
		c1.2,0.5,2.2,1.2,3.1,2.3c0.8,1.1,1.5,2,1.9,2.7l4.7,5.6c0.5,0.5,1.1,1.1,1.8,2c0.8,0.9,1.5,1.9,2.4,2.9c0.8,1.1,1.6,2.1,2.4,3.3
		c0.8,1.1,1.3,2.1,1.6,3.1c1.1,2.9,1.3,6.1,0.8,9.7c-0.5,3.6-0.8,7.1-0.8,10.4v64.4c-0.6,0-0.9-0.1-0.9-0.2c-0.2-0.1-0.2-0.3,0-0.5
		c-0.3,0.8-0.3,1.2-0.1,1.2c0.2,0.1,0.6-0.1,1-0.6v13.8l-0.9-0.9h-0.7v0.9c-0.2,0.2-0.2,0.3-0.2,0.5c-0.2,0.2-0.4,0.2-0.7,0.2
		c-0.2,0.2-0.2,0.4-0.2,0.7c0,0.3,0,0.6-0.1,0.9c-0.1,0.3,0,0.6,0.3,0.9c0.5,0,0.9-0.2,1.2-0.6c0.4-0.4,0.8-0.7,1.2-1
		c0,2.9,0.1,5.6,0.2,8.4c0.1,2.7,0.1,5.3-0.2,7.7c0,2.9-1,5.4-2.9,7.5c-2,2.1-3.9,4.2-5.9,6.3c-1.1,2-2.1,3.7-3.2,5.1
		c-1.1,1.4-2.2,2.8-3.4,4c-1.2-0.3-2.7-0.3-4.4-0.1c-1.7,0.2-3,0.2-3.7-0.1v-0.9c-0.8,0-1.2,0.1-1.5,0.3c-0.2,0.2-0.5,0.5-0.8,0.8
		h-38.9h-10.4c-0.5-0.3-0.8-0.2-1.1,0.2c-0.3,0.5-0.5,0.3-0.5-0.5c-2.9,0.8-6.1,1-9.7,0.7C594.2,168.1,591,167.9,588.1,167.9z
		 M616.4,64.6h-1.6v1.6c0.3-0.5,0.6-0.8,1-0.9C616.2,65.2,616.4,64.9,616.4,64.6z M616.4,34.8c0.3,0.3,0.3,0.5-0.1,0.7
		c-0.4,0.2-0.3,0.5,0.1,0.9c0.8,0,1.2,0.3,1.2,1c0.1,0.7,0.7,0.9,1.9,0.6c0.5,0,0.7-0.3,0.8-0.9c0.1-0.6,0.1-1.1,0.1-1.6
		c-0.8-0.3-1.4-0.4-2-0.3C617.8,35.2,617.1,35.1,616.4,34.8z M622.9,51.8c0.8-1.7,0.6-2.9-0.5-3.6c-1.1-0.8-1.7-1.7-2-2.9l-1.6,1.6
		c0.3,0.5,0.8,0.8,1.4,1c0.6,0.2,0.9,0.7,0.9,1.5c-0.8,0.8-1.4,1.1-2,1.1c-0.6,0-1.5,0.5-2.7,1.4c1.7,0.3,2.9,0.2,3.8-0.5
		C621.1,50.7,622,50.9,622.9,51.8z M621.1,19.4c-0.8,0-1.2,0.3-1.5,0.9c-0.2,0.6-0.5,1.1-0.8,1.6c0.3,0,0.8-0.2,1.4-0.7
		C620.8,20.8,621.1,20.2,621.1,19.4z M618.9,70.3c1.1,0,1.6-0.3,1.6-0.9c0-0.5-0.3-0.6-0.8-0.6C619.1,68.9,618.9,69.4,618.9,70.3z
		 M623.6,46.1c0.5-0.9,0.5-1.5,0-1.8c-0.5-0.3-0.7-0.3-0.7,0V45C622.9,45.3,623.1,45.7,623.6,46.1z M626.8,41.1
		c-0.3,0-0.9-0.2-1.8-0.6c-0.9-0.4-1.4-0.2-1.4,0.6c0.5,0.5,0.9,0.8,1.4,1s0.3,0.7-0.5,1.5c0.8-0.5,1.2-0.9,1.5-1.2
		C626.2,42,626.5,41.6,626.8,41.1z M626.1,81.6c-0.5-0.5-0.6-1-0.5-1.6c0.1-0.6,0-0.9-0.5-0.9c-0.3,0.3-0.4,0.8-0.3,1.5
		C624.9,81.2,625.3,81.6,626.1,81.6z M649.4,35.5c-2.1,0.5-4.5,0.6-7.1,0.5c-2.6-0.1-4.8,0-6.4,0.5c0,17.8,0,34.8,0.1,51.2
		c0.1,16.3,0.3,33.4,0.6,51.2c2.6,0,5.5-0.1,8.8-0.2c3.3-0.1,6-0.6,8.1-1.4l-1.6-23.5c-0.2-2.4-0.5-4.8-0.9-7.1
		c-0.5-2.3-0.7-4.6-0.7-6.7c0-0.1,0.1-0.3,0.2-0.5c0.3-0.3,0.5-0.7,0.5-1.1c0-0.3-0.2-0.5-0.6-0.7c-0.4-0.1-0.2-0.5,0.6-0.9
		c-1.1,0-1.6-0.2-1.6-0.7c0-1.2,0.3-2.6,0.8-4.1c0.5-1.5,0.8-2.9,0.8-4.1c-0.3-3.2-0.8-6.2-1.4-9c-0.6-2.9-0.9-5.7-0.9-8.6
		c0-5.7,0.3-11.3,0.9-16.8C650.2,48,650.1,42,649.4,35.5z"/>
	<path class="st0" d="M782.7,71.9c-0.2,1.2,0,2.3,0.3,3.3c0.4,1,0.8,2.3,1.2,4c0,2.4-0.2,4.9-0.5,7.6c-0.3,2.6-0.5,5.2-0.5,7.8
		c0,4.4,0,8.8,0,13.3s-0.2,9.4-0.7,14.7c-0.3,3.3-0.5,6.3-0.7,8.8c-0.2,2.6,0.1,5.3,0.7,8.1c0,0.5,0.1,1,0.3,1.7
		c0.2,0.7,0.3,1.2,0.3,1.7c0,1.2-0.3,2.4-0.8,3.6c-0.5,1.2-0.8,2.4-0.8,3.6c-0.3,2.9-0.2,5.8,0.5,8.8c0.6,3,0.8,6,0.5,8.8
		c-1.2,0.3-2,0.2-2.4-0.2c-0.4-0.5-0.9-0.7-1.7-0.7c-4.1,0-7.8-0.4-11.1-1.1c-3.3-0.8-6.6-1.1-9.9-1.1c-2.9,0.3-5.8,0.7-8.8,1.1
		c-3,0.5-6,0.3-8.8-0.5c-0.3-0.1-0.5-0.5-0.5-1.1c0-0.6-0.1-1.2-0.2-1.9c-0.2-0.7-0.3-1.4-0.6-2c-0.2-0.7-0.6-1.1-1.2-1.2
		c0.8-0.5,1-1.3,0.8-2.6c-0.2-1.3-0.5-2.3-0.8-3.1c0.8-1.2,0.9-2.6,0.6-4.2c-0.4-1.6-0.6-3.4-0.6-5.5c0-1.2,0.1-2.2,0.3-3.1
		c0.2-0.8,0.3-1.4,0.3-1.7c-0.3-1.2-0.8-1.8-1.4-1.9c-0.6-0.1-0.9-0.6-0.9-1.5c3.2-0.8,6.2-1.1,9.3-0.9c3,0.2,5.6,0.2,7.7,0.2
		c0.8-1.2,1-2.4,0.8-3.7c-0.2-1.3,0-1.9,0.8-1.9c-0.8-4.8-1-10.4-0.8-16.8c0.2-6.4,0.2-12.6-0.1-18.6c-0.5-9.9-0.9-19.5-1.4-28.8
		c-0.5-9.3-0.5-18.2-0.2-26.8c-2.6-0.8-4.7-1.2-6.6-1.2c-1.8-0.1-3.6,0-5.3,0.1c-1.7,0.2-3.5,0.4-5.4,0.7c-1.9,0.3-4.2,0.5-6.9,0.5
		c-0.3,8.4-0.3,16.7,0.1,24.9c0.4,8.1,0.8,16.2,1.2,24.1c0.5,7.9,0.8,15.7,1,23.5c0.2,7.8,0,15.6-0.8,23.4c0.5,0.6,1.1,1,1.8,1.2
		c0.8,0.2,1.5,0.5,2.3,0.7c0.8,0.2,1.4,0.6,2,1c0.6,0.5,1,1.1,1.1,2c-0.3,0-0.8-0.1-1.4-0.3c-0.6-0.2-0.9-0.1-0.9,0.3
		c0.3,2.4,0.6,5,1,7.9c0.4,2.9,0.3,6.1-0.3,9.7c0,0.5-0.1,1.1-0.3,1.8c-0.2,0.8-0.3,1.5-0.3,2.3c0,0.8,0.4,1.5,1.1,2.4
		c0.8,0.8,1.1,1.6,1.1,2.4c-5.7,0.8-11.8,0.9-18.1,0.6c-6.3-0.4-12.1-0.6-17.4-0.6c-1.7-16-2.7-31.8-3.1-47.5
		c-0.4-15.7-0.7-31.3-1-46.8c-0.2-6.5,0.3-13.1,1.5-19.8c1.1-6.7,1.5-13.3,1-19.8c-0.3-4.4-0.8-8.5-1.6-12.3
		c-0.8-3.8-0.8-7.8,0-11.9c10.1,0,20.8,0,32.1-0.1c11.3-0.1,22.1-0.3,32.5-0.6c3.2-0.5,6.3-0.6,9.5-0.3s6.2,1.2,9,2.8
		c0.6,2.4,0.8,4.9,0.7,7.3c-0.2,2.5-0.4,5-0.7,7.5c-0.3,2.5-0.5,5-0.7,7.5c-0.2,2.5,0.1,4.9,0.7,7.3c0,0.9,0.3,1.8,0.9,2.6
		c0.6,0.8,1.1,1.8,1.4,3.1c0.5,2.1,0.2,4.3-0.7,6.7c-0.9,2.3-1.2,4.7-0.9,7.1c0,0.8,0.3,1.4,0.8,2c0.5,0.6,0.8,1.3,0.8,2
		c0,1.7-0.2,3.3-0.6,4.9C782.4,68.6,782.4,70.2,782.7,71.9z M706.1,116.2c0,0.3,0.3,0.3,1,0.1c0.7-0.2,0.9-0.6,0.6-1
		C706.6,115.3,706.1,115.6,706.1,116.2z M709.3,87c0.3-0.3,0.6-0.5,1-0.7c0.4-0.1,0.6-0.5,0.6-0.9c-0.8-0.3-1.3-0.2-1.7,0.3
		C708.8,86.3,708.8,86.7,709.3,87z M712.4,36.4c0-0.8-0.3-1.3-1-1.7c-0.7-0.4-1.4-0.3-2.1,0.1c0,0.8,0.3,1.2,1,1.4
		C710.9,36.3,711.7,36.4,712.4,36.4z M709.3,45.2v1.6h1.6C710.8,45.7,710.3,45.2,709.3,45.2z M710.8,49.9c-0.5,0.5-0.2,0.7,0.8,0.7
		c1,0,1.2-0.2,0.8-0.7c0-0.3-0.2-0.4-0.5-0.2C711.7,49.9,711.3,49.9,710.8,49.9z M716.5,16.3l-3.2,3.8c0.8,0,1.7-0.5,2.7-1.4
		C717.1,17.9,717.2,17,716.5,16.3z M714.9,29.2c0,0.3,0.1,0.6,0.2,1c0.1,0.4,0.6,0.6,1.4,0.6c0.5-0.5,0.5-0.9,0.1-1.5
		C716.2,28.7,715.7,28.7,714.9,29.2z M716.5,79.1c0.5,0.3,1,0.3,1.6,0.1c0.6-0.2,0.9-0.6,0.9-1c-0.8,0-1.3-0.4-1.6-1.1
		c-0.3-0.8-0.8-1.1-1.6-1.1c-0.5,0.8-0.3,1.4,0.3,1.8C716.8,78.2,716.9,78.6,716.5,79.1z M758.5,148.3c0-0.8,0.1-1.3,0.3-1.6
		c0.2-0.3,0.3-0.8,0.3-1.6c-0.8-0.3-1.4-0.3-2,0.1c-0.6,0.4-1.5,0.3-2.7-0.1c0.3,0.8,0.4,1.2,0.2,1.5c-0.2,0.2-0.2,0.6-0.2,1
		c0.8,0,1.4,0,2,0.1C757.1,147.8,757.8,148,758.5,148.3z M762.6,136.3c0.3-0.5,0.4-0.9,0.2-1.2c-0.2-0.4-0.2-0.8-0.2-1.2
		c-1.2,0-1.8,0.5-1.8,1.6c0.5,0,0.8,0.2,0.9,0.5C761.8,136.1,762.1,136.3,762.6,136.3z M768.9,152.3h-1.6c0,0.5,0.3,0.8,0.8,0.9
		C768.7,153.4,768.9,153.1,768.9,152.3z"/>
	<path class="st0" d="M817.1,4.1c13.3-0.8,26.4-1.5,39.4-2.3c13-0.8,25.7-1.4,37.9-1.8c-0.2,2.4-0.4,5-0.8,7.8
		c-0.4,2.8-0.7,5.6-0.9,8.4c-0.2,2.8-0.3,5.6-0.2,8.4c0.1,2.8,0.5,5.4,1.2,7.8c-2.1,0.6-4.5,1-7.2,1.1c-2.7,0.2-5.6,0.2-8.6,0.1
		c-3-0.1-6.1-0.2-9.2-0.5c-3.1-0.2-6.1-0.5-8.9-0.8h-26.7c-0.3,5.3-0.2,10.4,0.2,15.4s0.7,10.6,0.7,16.9l54.7,2.3l4.1,32.3
		c0.5,0.8,0.3,1.1-0.6,1.1c-0.8,0-1.2,0.5-1,1.4c0.3,6,0.3,11.7-0.1,17.1c-0.4,5.3-0.6,10.7-0.6,15.9c0,1.4,0.1,3.6,0.2,6.7
		c0.1,3.1,0.2,6.3,0.2,9.6c0,3.3-0.2,6.4-0.5,9.3c-0.3,2.9-0.9,4.8-1.8,5.9c-0.5,0.5-2,0.8-4.6,1.1c-2.6,0.3-5.6,0.5-8.9,0.7
		c-3.3,0.1-6.5,0.2-9.6,0.2c-3.1,0-5.3-0.1-6.7-0.2c0-0.8-0.3-1.1-0.9-1.1c-0.6,0-1.1,0-1.4,0h-0.9h-0.9v0.9l0.9,0.2
		c-2.1-0.3-4-0.4-5.5-0.3c-1.6,0.1-3.2,0.1-4.9,0.1h3.2v-0.9c0-0.8-0.2-1.5-0.7-2.1c-0.5-0.7-1.1-1-1.8-1h-0.7l-0.9,0.9l-0.9,0.7
		v0.9v0.7h0.9h0.9v0.9c-4.2-0.1-8.2-0.2-12-0.2c-3.8,0-7.5,0-11.2,0c-3.7,0-7.5,0-11.3,0.1c-3.8,0.1-7.9,0.1-12.3,0.1
		c0-5.3,0-10.8,0.1-16.6c0.1-5.8,0.3-10.7,0.6-14.8c1.2,0.5,2.6,0.5,4.1,0c1.5-0.5,3.1-0.5,4.7,0c1.2,0,2.1,0.3,2.8,0.8
		c0.7,0.5,1.6,0.8,2.8,0.8c1.7,0.5,3.3,0.5,5,0.2c1.7-0.3,3.5-0.4,5.6-0.2c5.7,0.3,11.8,0.7,18.1,1.1c6.3,0.5,12.4,0.1,18.1-1.1
		c0-6.5-0.3-12.7-0.9-18.8c-0.6-6-1.1-12.7-1.4-19.9c-9.5,0.3-19.2,0-29-0.8c-9.9-0.8-19.5-1.6-29-2.4c0-5.3-0.5-10.6-1.4-16
		c-0.9-5.4-1-10.5-0.2-15.4c0-0.9,0.1-1.7,0.3-2.5c0.2-0.8,0.3-1.3,0.3-1.6c0.1-0.9,0.3-2.7,0.3-5.5c0.1-2.8,0.1-6,0.1-9.6
		c0-3.6,0-7.5-0.1-11.5c-0.1-4.1-0.1-7.9-0.1-11.5c0-3.6,0-6.8-0.1-9.5c-0.1-2.7-0.1-4.6-0.1-5.6c0.1-1.4,0.6-2.2,1.4-2.5
		c0.8-0.3,1.8-0.4,3.2-0.2c1.4,0.2,3.1,0.3,5.3,0.3C811.2,4.9,813.9,4.7,817.1,4.1z M808.9,62.1c0.5,0.3,0.9,0.4,1.5,0.3
		c0.5-0.1,0.6-0.5,0.1-1.2C809.4,61.2,808.9,61.5,808.9,62.1z M813,72.5c0,0.5-0.2,0.8-0.5,1c-0.3,0.2-0.5,0.7-0.5,1.5
		c0.8-0.5,1.2-0.6,1.5-0.5c0.2,0.2,0.6,0,1-0.5c0-0.3-0.2-0.4-0.5-0.3c-0.3,0.1-0.5,0-0.5-0.3V73C813.7,72.7,813.4,72.5,813,72.5z
		 M813,76.6c-0.5,0.8-0.2,1.1,0.9,1.1c1.1,0,1.6-0.4,1.6-1.1c-0.9-0.3-1.5-0.4-1.7-0.2C813.6,76.5,813.3,76.6,813,76.6z M816.1,75
		c0.5-0.5,0.8-0.9,1.1-1.4c0.3-0.5,0.5-1.1,0.5-1.8c-0.3-0.8-0.8-0.8-1.5-0.2c-0.7,0.6-1.2,0.9-1.7,0.9c0.5,0.5,0.6,1,0.6,1.6
		C815.1,74.7,815.4,75,816.1,75z M816.1,68.5v1.8c0.5,0,1,0,1.7-0.1c0.7-0.1,1.2-0.3,1.5-0.8c-0.8,0-1.3-0.1-1.6-0.5
		C817.4,68.6,816.9,68.5,816.1,68.5z M819.3,75c0,0.6,0.6,0.9,1.8,0.9C821.1,75.3,820.5,75,819.3,75z M834.7,83.8
		c-0.3,0-0.8,0-1.4,0.1c-0.6,0.1-0.9,0.3-0.9,0.8c0.3,0.3,0.8,0.4,1.4,0.3C834.4,85,834.7,84.6,834.7,83.8z M837.8,66.2
		c-0.3,0-0.7-0.1-1.1-0.3c-0.5-0.2-0.8-0.1-1.1,0.3c-0.5,0.8-0.2,1.1,0.8,1.1C837.4,67.3,837.8,67,837.8,66.2z M837.8,15.4
		c0.6,0,0.9-0.3,0.9-0.9C838.1,14,837.8,14.3,837.8,15.4z"/>
	<path class="st0" d="M1001.2,4.1c13.3-0.8,26.4-1.5,39.4-2.3c13-0.8,25.7-1.4,37.9-1.8c-0.2,2.4-0.4,5-0.8,7.8
		c-0.4,2.8-0.7,5.6-0.9,8.4c-0.2,2.8-0.3,5.6-0.2,8.4c0.1,2.8,0.5,5.4,1.2,7.8c-2.1,0.6-4.5,1-7.2,1.1c-2.7,0.2-5.6,0.2-8.6,0.1
		c-3-0.1-6.1-0.2-9.2-0.5c-3.1-0.2-6.1-0.5-8.9-0.8h-26.7c-0.3,5.3-0.2,10.4,0.2,15.4s0.7,10.6,0.7,16.9l54.7,2.3l4.1,32.3
		c0.5,0.8,0.3,1.1-0.6,1.1c-0.8,0-1.2,0.5-1,1.4c0.3,6,0.3,11.7-0.1,17.1c-0.4,5.3-0.6,10.7-0.6,15.9c0,1.4,0.1,3.6,0.2,6.7
		c0.1,3.1,0.2,6.3,0.2,9.6c0,3.3-0.2,6.4-0.5,9.3c-0.3,2.9-0.9,4.8-1.8,5.9c-0.5,0.5-2,0.8-4.6,1.1c-2.6,0.3-5.6,0.5-8.9,0.7
		c-3.3,0.1-6.5,0.2-9.6,0.2c-3.1,0-5.3-0.1-6.7-0.2c0-0.8-0.3-1.1-0.9-1.1c-0.6,0-1.1,0-1.4,0h-0.9h-0.9v0.9l0.9,0.2
		c-2.1-0.3-4-0.4-5.5-0.3c-1.6,0.1-3.2,0.1-4.9,0.1h3.2v-0.9c0-0.8-0.2-1.5-0.7-2.1c-0.5-0.7-1.1-1-1.8-1h-0.7l-0.9,0.9l-0.9,0.7
		v0.9v0.7h0.9h0.9v0.9c-4.2-0.1-8.2-0.2-12-0.2c-3.8,0-7.5,0-11.2,0c-3.7,0-7.5,0-11.3,0.1c-3.8,0.1-7.9,0.1-12.3,0.1
		c0-5.3,0-10.8,0.1-16.6c0.1-5.8,0.3-10.7,0.6-14.8c1.2,0.5,2.6,0.5,4.1,0c1.5-0.5,3.1-0.5,4.7,0c1.2,0,2.1,0.3,2.8,0.8
		c0.7,0.5,1.6,0.8,2.8,0.8c1.7,0.5,3.3,0.5,5,0.2c1.7-0.3,3.5-0.4,5.6-0.2c5.7,0.3,11.8,0.7,18.1,1.1c6.3,0.5,12.4,0.1,18.1-1.1
		c0-6.5-0.3-12.7-0.9-18.8c-0.6-6-1.1-12.7-1.4-19.9c-9.5,0.3-19.2,0-29-0.8c-9.9-0.8-19.5-1.6-29-2.4c0-5.3-0.5-10.6-1.4-16
		c-0.9-5.4-1-10.5-0.2-15.4c0-0.9,0.1-1.7,0.3-2.5c0.2-0.8,0.3-1.3,0.3-1.6c0.1-0.9,0.3-2.7,0.3-5.5c0.1-2.8,0.1-6,0.1-9.6
		c0-3.6,0-7.5-0.1-11.5c-0.1-4.1-0.1-7.9-0.1-11.5c0-3.6,0-6.8-0.1-9.5c-0.1-2.7-0.1-4.6-0.1-5.6c0.1-1.4,0.6-2.2,1.4-2.5
		c0.8-0.3,1.8-0.4,3.2-0.2c1.4,0.2,3.1,0.3,5.3,0.3C995.4,4.9,998.1,4.7,1001.2,4.1z M993.1,62.1c0.5,0.3,0.9,0.4,1.5,0.3
		c0.5-0.1,0.6-0.5,0.1-1.2C993.6,61.2,993.1,61.5,993.1,62.1z M997.2,72.5c0,0.5-0.2,0.8-0.5,1c-0.3,0.2-0.5,0.7-0.5,1.5
		c0.8-0.5,1.2-0.6,1.5-0.5c0.2,0.2,0.6,0,1-0.5c0-0.3-0.2-0.4-0.5-0.3c-0.3,0.1-0.5,0-0.5-0.3V73C997.8,72.7,997.6,72.5,997.2,72.5z
		 M997.2,76.6c-0.5,0.8-0.2,1.1,0.9,1.1c1.1,0,1.6-0.4,1.6-1.1c-0.9-0.3-1.5-0.4-1.7-0.2C997.7,76.5,997.5,76.6,997.2,76.6z
		 M1000.3,75c0.5-0.5,0.8-0.9,1.1-1.4c0.3-0.5,0.5-1.1,0.5-1.8c-0.3-0.8-0.8-0.8-1.5-0.2c-0.7,0.6-1.2,0.9-1.7,0.9
		c0.5,0.5,0.6,1,0.6,1.6C999.2,74.7,999.6,75,1000.3,75z M1000.3,68.5v1.8c0.5,0,1,0,1.7-0.1c0.7-0.1,1.2-0.3,1.5-0.8
		c-0.8,0-1.3-0.1-1.6-0.5C1001.6,68.6,1001.1,68.5,1000.3,68.5z M1003.5,75c0,0.6,0.6,0.9,1.8,0.9C1005.3,75.3,1004.7,75,1003.5,75z
		 M1018.9,83.8c-0.3,0-0.8,0-1.4,0.1c-0.6,0.1-0.9,0.3-0.9,0.8c0.3,0.3,0.8,0.4,1.4,0.3C1018.6,85,1018.9,84.6,1018.9,83.8z
		 M1022,66.2c-0.3,0-0.7-0.1-1.1-0.3c-0.5-0.2-0.8-0.1-1.1,0.3c-0.5,0.8-0.2,1.1,0.8,1.1C1021.5,67.3,1022,67,1022,66.2z M1022,15.4
		c0.6,0,0.9-0.3,0.9-0.9C1022.3,14,1022,14.3,1022,15.4z"/>
	<path class="st0" d="M1152,142.8l1.8,24.9c-11.3-0.9-22.1-1.1-32.4-0.5c-10.3,0.6-20.5,0.8-30.6,0.5c0-5.3,0.1-10.6,0.2-15.9
		c0.1-5.3,0.6-10.2,1.4-14.6c1.7-0.5,3.4-0.5,5.3-0.1c1.9,0.4,3.7,0.4,5.3,0.1c0.3-5.3,0.6-10.1,1-14.6c0.4-4.4,0.6-9.3,0.6-14.6
		c0.3-0.8,0.8-0.8,1.5-0.2c0.7,0.6,1.2,0.7,1.7,0.2c0-0.6-0.2-1-0.5-1.1c-0.3-0.1-0.7-0.3-1.1-0.3c-0.5-0.1-0.8-0.1-1.1-0.2
		c-0.3-0.1-0.5-0.3-0.5-0.8c0.3-6.8,0.5-13.8,0.6-21c0.1-7.2,0.1-14.7,0.1-22.4c0-0.6,0.5-0.9,1.6-0.9c0-0.8-0.3-1.1-0.8-1
		c-0.5,0.1-0.8-0.1-0.8-0.6c0-1.2,0-2.3,0.1-3.4c0.1-1.1,0.3-1.8,0.8-2.3c-0.8-2.1-0.9-4.5-0.6-7.2c0.4-2.7,0.6-5.6,0.6-8.8
		c-1.7-0.3-4-0.3-7,0c-3,0.3-5.5,0.3-7.5,0l1.6-29.8c6.5-0.5,13.8-0.5,21.9-0.1c8.1,0.4,15.9,0.1,23.3-0.8c2.9-0.3,5.5-0.6,7.8-1
		c2.3-0.4,5.1-0.6,8.2-0.6V38H1135c-0.3,15.5-0.6,31.5-1,47.8c-0.4,16.3-0.6,33.2-0.6,50.5c3.3,0.5,6.5,0.6,9.6,0.3
		c3.1-0.2,6.1-0.3,8.9-0.3v4.7h-1.6h-0.7v0.9c0,0.8,0.1,1.2,0.3,1.5c0.2,0.2,0.3,0.6,0.3,1h0.9v-0.9h0.2
		C1151.8,143.5,1152,143.3,1152,142.8z M1111.8,27.6c0.3,0.3,0.6,0.4,1,0.3c0.4-0.1,0.6-0.5,0.6-1.2c0,0.5-0.3,0.6-0.8,0.5
		C1112,27,1111.8,27.1,1111.8,27.6z M1120.6,14.5h-1.6c0,0.9,0.4,1.4,1.1,1.4C1120.9,15.8,1121,15.4,1120.6,14.5z M1121.5,46.1
		l-2.5-1.8c0,1.7,0.3,2.7,0.9,3.2c0.6,0.5,1.1,1.1,1.6,1.8c0.3,0,0.5-0.2,0.7-0.6c0.1-0.4,0.5-0.7,0.9-1c-0.8,0-1.2-0.2-1.4-0.6
		C1121.5,46.7,1121.5,46.4,1121.5,46.1z M1121.5,92c0.8,0.3,1.2,0.2,1.4-0.3c0.1-0.5,0.2-0.9,0.2-1.2c-0.8,0-1.2,0.2-1.4,0.5
		C1121.5,91.2,1121.5,91.5,1121.5,92z M1127.1,51.8c0.3,0.3,0.6,0.3,1,0.1c0.4-0.2,0.6-0.6,0.6-1c-0.8-0.5-1.2-0.5-1.4-0.2
		C1127.2,50.9,1127.1,51.3,1127.1,51.8z M1128.7,54.9v-1.6c-0.5,0-0.8,0.1-0.9,0.3c-0.2,0.2-0.4,0.3-0.7,0.3
		C1127.1,54.6,1127.6,54.9,1128.7,54.9z M1129.4,29.8c0.5,0.5,1,0.6,1.6,0.6c0.6-0.1,0.9-0.5,0.9-1.2c-0.3-0.5-0.8-0.5-1.5-0.2
		C1129.7,29.2,1129.4,29.5,1129.4,29.8z M1132.8,155.7c1.1,0,1.6-0.3,1.6-0.9l-0.9-0.9c0,0.5-0.1,0.8-0.3,0.9
		C1132.9,155,1132.8,155.3,1132.8,155.7z M1139.1,17h-1.6v0.9c0-0.5,0.3-0.6,0.8-0.5C1138.8,17.6,1139.1,17.4,1139.1,17z M1140,158
		c0.3-0.3,0.6-0.6,1-0.8c0.4-0.2,0.6-0.7,0.6-1.5c-0.8,0-1.3,0.3-1.7,0.9C1139.5,157.2,1139.6,157.7,1140,158z"/>
	<path class="st0" d="M1248.9,160.5c0,1.7,0.2,3.1,0.6,4.3c0.4,1.2,0.2,2.2-0.6,2.9c-4.1,0-8.2,0-12.3,0.1c-4.1,0.1-7.8-0.3-11-1
		c0-0.5-0.3-0.7-0.9-0.7h-0.9h-0.7v0.7c-0.6,0.6-1.7,0.9-3.2,0.9c-0.5-0.5-1.1-0.5-2-0.2c-0.9,0.3-1.4,0.1-1.4-0.7
		c-1.7,0.5-3.4,0.9-5.2,1.4c-1.8,0.5-3.3,0.3-4.5-0.5c-0.3,0-0.7,0-1.1,0.1c-0.5,0.1-0.8,0.1-1.1,0.1c-6.9,0.3-13.3,0.4-19.1,0.2
		c-5.8-0.2-11.6-0.2-17.3-0.2c-0.8-8.1-1.3-15.9-1.7-23.2c-0.4-7.3-0.3-14.4,0.1-21.4c0.5-5.7,0.5-11.5,0.1-17.3
		c-0.4-5.8-0.4-11.3-0.1-16.6c0.1-1.7,0.4-3.2,0.7-4.7c0.3-1.5,0.6-2.9,0.9-4.1c-0.6-1.8-0.9-3.5-1-5.2c-0.1-1.7,0-3.3,0.1-5
		c0.1-1.7,0.2-3.4,0.2-5.1c0-1.7-0.3-3.7-0.9-5.8c0.8-3.8,1.1-8.1,1.1-12.9c0-4.8-0.1-9.7-0.2-14.6c-0.2-4.9-0.1-9.6,0.1-14.1
		s0.9-8.4,2.1-11.5c2.9,0,5.7,0,8.5-0.1c2.8-0.1,5.6-0.3,8.5-0.8c5-0.1,10.2-0.3,15.7-0.5c5.5-0.1,11-0.2,16.4-0.1
		c5.4,0.1,10.8,0.3,16,0.8c5.3,0.5,10.2,1.2,14.9,2.3c0,4.8-0.2,10-0.5,15.6c-0.3,5.6-0.5,10.5-0.5,14.9c-3.6-1.8-7.5-2.9-11.8-3.3
		c-4.2-0.4-8.6-0.5-13.1-0.2c-4.5,0.2-9,0.5-13.6,0.9c-4.5,0.4-8.9,0.5-13.1,0.3c-0.9,5.3-1.2,10.8-1,16.7c0.2,5.9,0.6,11,1,15.4
		c2,0.5,4.2,0.4,6.7-0.1c2.5-0.5,4.8-0.2,6.9,1c0.5-0.5,0.5-0.7,0.1-0.8c-0.4-0.1-0.9-0.1-1.7-0.1c0.5-0.3,1.1-0.4,1.8-0.3
		c0.8,0.1,1,0.5,0.7,1.2c2.9-1.7,6.3-2.5,10.2-2.6c3.9-0.1,7.5-0.3,10.8-0.6c0.5,2.9,0.6,5.6,0.6,8.1c-0.1,2.6-0.2,5.1-0.2,7.7
		c-0.1,2.6-0.2,5.2-0.2,7.8c-0.1,2.6,0.1,5.5,0.6,8.5c-6.5,0.5-12.4,0.8-17.9,1.1c-5.4,0.3-11.5,0.5-18.3,0.5
		c0.8,6.3,0.8,12.5,0.2,18.6c-0.6,6.1-0.7,12.3-0.2,18.6c9.6,0,18.9,0.1,27.9,0.2c9,0.2,17.1,0.1,24.5-0.2c0.3,3.2,0.1,6.9-0.6,11.3
		C1248.6,152.9,1248.5,156.8,1248.9,160.5z M1178.6,112.1c-0.5,0.8-0.7,1.3-0.7,1.6h1.6C1179.6,112.6,1179.2,112.1,1178.6,112.1z
		 M1179.6,116.8c0,0.5,0.4,0.7,1.2,0.7c0.8,0,1.2-0.2,1.2-0.7c-0.5-0.3-0.9-0.4-1.2-0.2C1180.4,116.8,1180,116.8,1179.6,116.8z
		 M1182,87c0.5,0,1-0.1,1.6-0.3c0.6-0.2,1.2-0.5,1.7-0.9c0.5-0.4,0.9-0.8,1.1-1.2c0.2-0.5,0.1-0.9-0.3-1.4c-0.9,0.8-1.7,1.4-2.5,1.9
		C1182.9,85.6,1182.3,86.3,1182,87z M1183.6,96c0,1.1,0.5,1.6,1.6,1.6c0.5-0.5,0.5-0.9,0.1-1.5C1184.9,95.6,1184.4,95.6,1183.6,96z
		 M1185.2,146c0.5,0.3,1,0.3,1.6,0c0.6-0.3,0.9-0.8,0.9-1.6c-0.8,0.3-1.2,0.1-1.5-0.6c-0.2-0.7-0.6-1-1-1c-0.5,0.8-0.4,1.4,0.2,1.8
		C1186,145.1,1186,145.5,1185.2,146z M1203.1,26.7c-0.6,0-0.9,0.2-0.9,0.5c-0.2,0.2-0.2,0.3,0,0.5c0.6,0,0.9,0.5,0.9,1.6
		c0.5,0,1-0.3,1.6-0.9c-0.5-0.3-0.8-0.5-1.1-0.5C1203.2,27.8,1203.1,27.4,1203.1,26.7z M1211,9.7c-0.3,0-0.6,0.1-1,0.2
		c-0.4,0.2-0.6,0.6-0.6,1.4c0.5,0.5,0.9,0.5,1.5,0.1C1211.4,11,1211.4,10.5,1211,9.7z M1213.5,21c0,0.5-0.2,0.9-0.5,1.2
		c-0.3,0.4-0.5,0.8-0.5,1.2c0.9-0.5,1.5-0.6,1.7-0.5c0.2,0.2,0.5,0,0.8-0.5h-0.5c-0.2,0-0.2-0.2-0.2-0.7c-0.2-0.1-0.2-0.3-0.2-0.5
		C1213.8,21.2,1213.6,21,1213.5,21z M1215,25.1h-2.5c0,0.8,0.5,1.2,1.6,1.5C1215.2,26.8,1215.5,26.3,1215,25.1z M1218.2,20.1
		c-0.8-0.3-1.4-0.2-1.8,0.3c-0.5,0.5-0.9,1-1.4,1.5c0.5,0,0.6,0.3,0.6,0.8c-0.1,0.5,0.3,0.8,1,0.8c0.5-0.5,0.8-0.9,1.1-1.4
		C1218,21.7,1218.2,21,1218.2,20.1z M1216.6,17v1.6c0.5,0,1,0,1.6-0.1c0.6-0.1,0.9-0.3,0.9-0.6c-0.5,0-0.8-0.1-1-0.5
		C1217.9,17.1,1217.4,17,1216.6,17z M1219.8,23.5c0,0.8,0.1,1.1,0.5,0.9c0.3-0.1,0.7-0.2,1.1-0.2
		C1221.4,23.7,1220.8,23.5,1219.8,23.5z"/>
	<path class="st0" d="M1327.1,50.9l25.1-43.6c5.7-0.3,11.5-0.5,17.3-0.6c5.8-0.1,11.6-0.1,17.3-0.1c-1.2,7.2-1.8,14.8-1.7,22.6
		c0.1,7.8-0.1,15.6-0.6,23.3c-0.3,4.8-0.5,10-0.7,15.6c-0.2,5.6-0.5,11.4-1.1,17.4c-0.3,3.3-0.8,6.4-1.4,9.3
		c-0.6,2.9-0.9,5.7-0.9,8.6c-0.5,3.6-0.3,7.3,0.6,11c0.8,3.7,1.4,7.6,1.7,11.6c0.3,4.4,0,9.1-0.9,14.1c-0.9,5-1.1,10-0.7,14.8
		c0.3,3.3,0.2,6-0.3,7.9c-0.5,2-2,3.3-4.4,4.1c-2.3,0.6-4.6,0.8-7,0.7c-2.4-0.1-4.9-0.3-7.5-0.6c-2.6-0.2-5.1-0.4-7.6-0.6
		c-2.5-0.1-4.9,0-7.1,0.5c-1.2-2-1.5-4.1-0.9-6.4c0.6-2.3,0.9-4.7,0.9-7.1c0.5-3.6,0.7-7.5,0.7-11.5c0-4.1,0.6-7.8,1.8-11.1
		c-0.2-0.5-0.3-1.7-0.3-3.7c-0.1-2-0.1-4.3-0.1-6.8c0-2.5,0-4.7,0.1-6.8c0.1-2,0.2-3.3,0.3-3.7c-0.8-3.6-0.7-7.2,0.2-10.6
		c0.9-3.5,1.4-7.5,1.4-12c-1.1,1.8-2.6,4.4-4.5,7.7c-2,3.3-4,6.8-6.2,10.5c-2.2,3.7-4.2,7.2-6.1,10.5c-1.9,3.3-3.3,5.9-4.2,7.7h-9.5
		c-0.5-2-1.5-4.6-3.1-7.8c-1.6-3.2-3.3-6.5-5.1-9.8c-1.8-3.3-3.5-6.5-5.1-9.6c-1.6-3.1-2.6-5.5-3.1-7.3c-0.2,5-0.4,10.8-0.7,17.4
		c-0.3,6.6-0.6,13.4-0.8,20.5c-0.2,7-0.5,13.9-0.7,20.7c-0.2,6.8-0.3,12.7-0.3,17.9c0-0.3-0.1-0.5-0.3-0.5c-0.2,0-0.3,0.2-0.3,0.5
		c-3.5,0-6.5,0-9.2-0.1c-2.6-0.1-5.2-0.1-7.7-0.2c-2.5-0.1-5-0.1-7.6-0.2c-2.6-0.1-5.5-0.1-8.8-0.1c-1.4-3.8-2.3-7.8-2.7-12
		c-0.5-4.2-0.7-8.5-0.7-12.9c0-4.4,0.1-8.7,0.2-13.1c0.1-4.4,0.1-8.7,0-12.9c-0.2-5.4-0.1-10.6,0.2-15.6c0.3-5,0.6-9.8,1-14.6
		c0.4-4.7,0.6-9.4,0.8-14c0.1-4.6,0-9.2-0.5-13.9c0-0.5,0.5-0.7,1.6-0.7c-0.5-1.8-0.8-4-0.9-6.7c-0.2-2.6-0.3-5.5-0.3-8.6
		c-0.1-3.1-0.1-6.2-0.1-9.3c0-3.1-0.1-5.9-0.2-8.5c-0.2-2.1-0.4-4-0.7-5.5c-0.3-1.6-0.1-3,0.7-4.2c0.9-2.4,2.7-3.9,5.3-4.4
		c2.6-0.5,5.5-0.9,8.5-1.2c2.4,0,4.9,0.1,7.5,0.2c2.6,0.2,4.9,0.6,7,1.4c0.8-0.5,1.7-0.6,2.9-0.3c1.2,0.2,2.4,0.3,3.6,0.3
		c0,0.5,0.2,1,0.6,1.6c0.4,0.6,0.2,0.9-0.6,0.9c-0.8-0.5-1-0.8-0.7-1c0.3-0.2,0.2-0.7-0.2-1.5c-0.3,0-0.5,0.1-0.7,0.3
		c-0.2,0.2-0.5,0.1-0.9-0.3V9h-0.7c0-0.6-0.3-0.9-0.9-0.9h-0.9v1.6v1.6l0.9-0.7h0.9c0.1,0.2,0.3,0.2,0.5,0c0.1,0,0.5-0.3,1.1-0.9V9
		v1.6c0,0.3,0.3,0.5,0.9,0.6c0.6,0.1,1.1,0.1,1.4,0.1c0.9,1.8,2.4,4.5,4.5,8.1c2.1,3.6,4.3,7.4,6.7,11.4c2.3,4,4.5,7.9,6.6,11.8
		c2,3.8,3.4,6.9,4.2,9.2c-0.8,0-1.1,0.1-0.9,0.3c0.1,0.2,0.5,0.3,0.9,0.3c0,0.6-0.2,0.8-0.5,0.5l-0.5-0.5c0,0.8,0.2,1.1,0.6,1.1
		c0.4,0,0.7,0.2,1,0.5c-0.3,0.5-0.6,0.6-0.8,0.5c-0.2-0.1,0,0,0.8,0.5c0.9-0.5,1.5-1.1,1.7-1.8C1326.6,52.4,1326.8,51.6,1327.1,50.9
		z M1297.3,57.4c-0.8-0.9-0.9-1.4-0.6-1.4c0.4,0,0.6-0.4,0.6-1.1h-0.9c0,1.2-0.6,1.9-1.7,2.1s-1.8,0.3-2.1,0.3
		c0,0.3-0.3,0.5-0.8,0.7c-0.5,0.2-0.6,0.5-0.1,0.9c1.2,0,2-0.3,2.5-1C1294.6,57.3,1295.6,57.1,1297.3,57.4z M1297.3,80.7
		c0,0.5,0.3,0.6,0.8,0.6c0.5-0.1,0.8-0.6,0.8-1.5c-0.2,0.2-0.5,0.2-0.9,0.2C1297.5,80.3,1297.3,80.5,1297.3,80.7z M1309.5,67.8
		c-0.5,0.8-0.3,1,0.5,0.8c0.8-0.2,1.1-0.5,1.1-0.8c-0.8-0.5-1.1-0.6-1.1-0.3S1309.8,67.8,1309.5,67.8z M1319,83.2
		c0.5,0.3,1,0.4,1.6,0.3c0.6-0.1,0.9-0.5,0.9-1.2c-0.3-0.3-0.8-0.3-1.5-0.1C1319.3,82.4,1319,82.7,1319,83.2z M1328.7,70.3h-1.6
		c0.5,0,0.8,0.1,1.1,0.2C1328.6,70.7,1328.7,70.6,1328.7,70.3z M1351.3,46.1h1.6c0-0.5-0.1-0.8-0.3-0.9c-0.2-0.1-0.3-0.5-0.3-0.9
		C1351.6,44.3,1351.3,44.9,1351.3,46.1z M1354.5,44.3c0,0.5,0.2,0.6,0.6,0.6c0.4-0.1,0.8-0.5,1.2-1.2
		C1355.1,43.6,1354.5,43.8,1354.5,44.3z M1368.3,91.1c1.1,0,1.6-0.2,1.6-0.7c-0.5,0-0.7-0.1-0.7-0.5v-0.5
		C1368.6,90.1,1368.3,90.6,1368.3,91.1z M1375.5,93.6c0-0.5,0.3-0.8,0.8-1c0.5-0.2,0.8-0.7,0.8-1.5c-0.8,0-1.3,0.3-1.6,0.9
		C1375.2,92.6,1375.2,93.1,1375.5,93.6z"/>
	<path class="st0" d="M1469.3,11.3h0.9V8.1c3.6,0,7.3,0,11-0.1c3.7-0.1,7.6-0.3,11.6-0.8v32.3v42c-3.9,0.5-8.1,0.7-12.7,0.8
		c-4.5,0.1-9.1,0-13.7-0.1c-4.6-0.1-9.2-0.3-13.7-0.5c-4.5-0.1-8.7-0.2-12.4-0.2c-1.1,5.3-1.6,10.6-1.6,16c0,5.4,0.1,10.9,0.5,16.4
		c0.3,5.5,0.6,11.1,0.8,16.7c0.2,5.6,0,11.3-0.6,16.8c-0.3,3.2-0.6,6.3-0.9,9.3c-0.3,3-0.2,6.3,0.2,9.9c-2.4,0-5.1,0-8.1-0.1
		c-3-0.1-6.1-0.1-9.4-0.1c-3.2,0-6.5,0.1-9.7,0.2c-3.2,0.2-6.3,0.5-9.2,0.9v-12.9c0-2.1-0.2-4.3-0.5-6.6c-0.3-2.3-0.5-4.7-0.5-7.2
		c0-0.8,0.1-1.8,0.5-3.3c0.3-1.4,0.5-2.7,0.5-4c0.5-1.7,0.7-3.3,0.8-4.9c0.1-1.6,0.1-3.2,0.1-4.9c0.5,0.6,1,0.9,1.6,0.9
		c0.8,0,1.3-0.1,1.7-0.2c0.4-0.1,0.6-0.6,0.6-1.4h-0.7c0-0.6-0.5-0.9-1.6-0.9h-1.6c0.3-9.5,0.1-19.2-0.7-29
		c-0.8-9.9-0.5-19.8,0.7-29.7c-1.2-4.1-1.5-8.6-0.8-13.7c0.7-5,1.2-10.4,1.5-16.2c0.3-4.5,0.3-8.9,0.1-13.2
		c-0.2-4.3-0.5-8.5-0.8-12.5c3.6,0,7.6,0,12-0.1c4.4-0.1,9-0.3,13.8-0.8c0.5,0,0.7,0.2,0.7,0.5v0.5c-0.3,0-0.5,0.2-0.7,0.6
		c-0.2,0.4-0.5,0.7-0.9,1c-0.2,0.2-0.2,0.3,0,0.5c0,0.6,0.3,1,0.9,1.1h0.7h0.5c0.3,0,0.5-0.2,0.5-0.7c0.3,0,0.4-0.2,0.2-0.6
		c-0.2-0.4-0.2-0.7-0.2-1V8.1c1.7-0.5,3.3-0.7,4.9-0.8c1.6-0.1,3.4-0.1,5.5-0.1h9.7c0.8,0,1.4,0.2,2,0.6c0.6,0.4,1.3,0.8,2,1.2
		c1.7,0,3.4,0,5.2-0.1c1.8-0.1,3.5-0.3,5.2-0.8V9c-0.5,0.5-0.7,1-0.7,1.6l0.7,0.7l0.9-0.7h0.7h0.9
		C1468.8,10.6,1469.3,10.8,1469.3,11.3z M1408.7,146.7c1.2,0,1.8-0.2,1.8-0.7c-0.9,0-1.4,0-1.6,0.1
		C1408.8,146.2,1408.7,146.4,1408.7,146.7z M1411.2,59c0.8-0.5,1.4-0.8,1.8-1.1c0.5-0.3,0.7-1.1,0.7-2.3c-1.2,0-1.9,0.4-2.1,1.1
		C1411.3,57.5,1411.2,58.2,1411.2,59z M1422.5,88.8c1.2,0.3,2,0,2.5-0.9c0.5-0.9,0.7-1.7,0.7-2.5c-1.2,0-1.8,0.3-1.9,1
		C1423.7,87.1,1423.3,87.9,1422.5,88.8z M1422.5,113.7c0.8,0,1.2-0.2,1.4-0.6c0.1-0.4,0.2-1,0.2-1.9
		C1423,111.2,1422.5,112,1422.5,113.7z M1422.5,116.8c0.5,0,0.8-0.3,1-0.8c0.2-0.5,0.2-0.8-0.1-0.8c0,0.5-0.2,0.8-0.5,0.9
		C1422.6,116.3,1422.5,116.5,1422.5,116.8z M1424.1,113.7c0.8,0,1.2-0.1,1.4-0.5c0.1-0.3,0.2-0.7,0.2-1.1c-0.3,0-0.5,0.2-0.7,0.6
		C1424.8,113,1424.5,113.4,1424.1,113.7z M1425.7,79.8c0.5,0.5,0.8,0.5,1.1,0.2c0.3-0.3,0.2-0.6-0.2-0.9
		C1426,79.1,1425.7,79.3,1425.7,79.8z M1434.7,73.5c0.3,0,0.7-0.2,1.1-0.6c0.5-0.4,0.8-0.7,1.1-1c-0.3,0-0.7,0-1.2-0.1
		c-0.5-0.1-0.6-0.3-0.3-0.8c-0.3,0-0.5,0-0.7,0.1c-0.2,0.1-0.5,0.3-0.9,0.8C1434.4,71.9,1434.7,72.4,1434.7,73.5z M1459.6,49.3
		c0.5-2.1,0.7-4.3,0.8-6.6c0.1-2.3,0.1-4.7,0.1-7.2c-3.6-0.3-7.5-0.5-11.6-0.7c-4.1-0.1-8.1,0.4-11.9,1.6v10.4
		c3.8,0.8,7.7,1.4,11.8,2C1452.8,49.4,1456.4,49.6,1459.6,49.3z M1441,54.9c0.5,0.3,1,0.4,1.6,0.3c0.6-0.1,0.9-0.5,0.9-1.2
		C1441.9,54,1441,54.3,1441,54.9z M1445.1,66.9c0.5,0,0.9,0.1,1.2,0.3c0.4,0.2,0.8,0.1,1.2-0.3c0-0.3-0.3-0.4-0.8-0.3
		c-0.5,0.1-0.8,0-0.8-0.3v-0.9C1445.4,65.9,1445.1,66.4,1445.1,66.9z M1445.1,69.4c0,0.5,0.5,0.8,1.5,0.9c1,0.2,1.3-0.1,1-0.9
		c-0.5-0.5-0.8-0.6-1-0.3C1446.3,69.3,1445.9,69.4,1445.1,69.4z M1449.2,66.9c1.1,0,1.6-0.8,1.6-2.3c-0.8-0.9-1.5-1.1-2.3-0.6
		c-0.8,0.5-1.4,0.9-1.8,1.2c0.8,0,1.2,0.4,1.2,1.1C1448,67.2,1448.4,67.3,1449.2,66.9z M1449.2,61.2v0.9c0,0.3,0.4,0.5,1.2,0.5
		c0.8,0,1.2-0.1,1.2-0.5c-0.5,0-0.8-0.1-1-0.5C1450.4,61.4,1449.9,61.2,1449.2,61.2z M1452.3,67.8c-0.5,0.5-0.2,0.7,0.9,0.7
		C1453.2,68,1452.9,67.8,1452.3,67.8z M1465.2,77.5c0,0.3,0.4,0.3,1.1,0.1c0.8-0.2,0.9-0.6,0.5-1c-0.2-0.1-0.5-0.2-0.9-0.2
		S1465.2,76.8,1465.2,77.5z M1467.7,59c0,0.3,0.4,0.5,1.2,0.5c0.8,0,1.2-0.1,1.2-0.5c-0.5,0-0.8-0.1-0.9-0.2c-0.3,0-0.6,0-0.8-0.1
		C1468.3,58.6,1468,58.7,1467.7,59z"/>
	<path class="st0" d="M1586.8,69.4c-1.7-0.5-3.1-0.5-4.4,0c-1.3,0.5-2.8,0.5-4.4,0c1.2,8.1,2.7,16.3,4.5,24.5
		c1.8,8.2,3.7,16.5,5.5,24.7c1.9,8.3,3.7,16.5,5.5,24.7c1.8,8.2,3.3,16.4,4.5,24.5h-29.2l-7.2-23.5c-1.4-4.4-2.7-8.5-4.1-12.4
		c-1.4-3.9-2.4-7.8-3.2-11.8c0-1.2-0.1-2.1-0.2-2.7c-0.2-0.6-0.1-1.1,0.2-1.4c0-0.5-0.3-0.8-0.8-1c-0.5-0.2-0.8-0.7-0.8-1.5
		c-1.2-6.9-2.5-14-3.7-21.4c-1.3-7.3-3-14.4-5.1-21.4h-7.2c0,8.4,0.3,16.2,0.9,23.2c0.6,7,1.1,14.4,1.4,22c0.5,9,0.5,17.7,0.1,26
		c-0.4,8.3-1.2,16.5-2.4,24.6h-9.7h0.7v-1.6h-0.7h-0.9h-0.7c-0.6,0-0.9,0.2-0.9,0.5c-0.2,0.2-0.2,0.3,0,0.5v0.7h0.9h-5.7
		c-1.7,0-3.4,0.1-5.2,0.3c-1.8,0.2-3.3,0.1-4.5-0.3c-1.4-0.8-2.2-2-2.6-3.6c-0.4-1.7-0.5-3.5-0.5-5.6c0.1-2.1,0.2-4.3,0.5-6.4
		c0.2-2.2,0.3-4.2,0.1-6c0-1.7-0.5-3.2-1.4-4.7c-0.9-1.5-1.5-2.9-1.8-4.1c-0.6-2.4-0.5-5.3,0.3-8.6c0.8-3.3,1.2-6.3,1.2-9
		c0-6.3-0.2-12-0.5-17.1c-0.3-5-0.5-10.4-0.5-16.2c0-3.2-0.1-6.3-0.2-9.5c-0.2-3.2-0.1-6.2,0.2-9c0-0.8,0-1.3-0.1-1.6
		c-0.1-0.3,0.3-0.8,1-1.6c0-0.5-0.2-0.6-0.7-0.6c-0.5,0.1-0.5-0.3-0.2-1c0-7.2,0-15.8,0.1-25.7c0.1-9.9,0.3-19.8,0.8-29.9
		c7.2,0.2,14.7,0.2,22.4,0c7.7-0.1,15.3-0.3,22.9-0.5c7.6-0.1,15-0.3,22.3-0.5c7.2-0.1,14-0.1,20.3,0c-0.8,3.3-0.6,6.3,0.3,8.9
		c1,2.6,1.7,5.6,2.1,8.9c0.3,3.2,0.3,6.6,0,10.4c-0.3,3.8-0.3,7.2,0,10.4c0.1,2.4,0.6,5,1.4,7.8c0.8,2.8,1.2,5.4,1.5,7.9
		c0.2,2.5,0,4.7-0.7,6.6c-0.7,1.9-2.2,3.1-4.6,3.7c-1.2,0.3-2.4,0.2-3.6-0.2C1589.2,69.6,1588,69.4,1586.8,69.4z M1514.3,22.6
		c1.2,0.5,2.1,0.5,2.6,0c0.5-0.5,0.8-0.9,0.8-1.5c0-0.5-0.3-0.8-0.8-0.9c-0.5-0.1-1.2,0.5-1.9,1.7c-0.3,0-0.6-0.1-0.9-0.2
		C1513.7,21.5,1513.8,21.8,1514.3,22.6z M1514.3,29.2v0.7c0.3,0,0.6,0.1,1,0.2c0.4,0.2,0.6-0.1,0.6-0.9c0-0.5-0.2-0.6-0.6-0.3
		C1514.9,29,1514.6,29.2,1514.3,29.2z M1565.8,42c0.5-2.1,0.7-4,0.8-5.7c0.1-1.7,0.1-3.5,0.1-5.6c-3.3-0.5-6.7-0.6-10.3-0.3
		c-3.5,0.2-7.1,0.3-10.7,0.3c-0.5-0.5-0.6-1-0.6-1.6c0.1-0.6-0.3-0.9-1-0.9c-0.5,0.8-0.5,1,0,0.7c0.5-0.3,0.7-0.2,0.7,0.2v0.7
		c-1.7,0.8-3.1,1.1-4.4,1.1c-1.3,0-2.8,0.2-4.4,0.5c0,1.7,0.1,3.4,0.5,5.3c0.3,1.9,0.5,3.7,0.5,5.3
		C1546.9,42.6,1556.6,42.6,1565.8,42z"/>
	<path class="st0" d="M1694.8,160.5c0,1.7,0.2,3.1,0.6,4.3c0.4,1.2,0.2,2.2-0.6,2.9c-4.1,0-8.2,0-12.3,0.1c-4.1,0.1-7.8-0.3-11-1
		c0-0.5-0.3-0.7-0.9-0.7h-0.9h-0.7v0.7c-0.6,0.6-1.7,0.9-3.2,0.9c-0.5-0.5-1.1-0.5-2-0.2c-0.9,0.3-1.4,0.1-1.4-0.7
		c-1.7,0.5-3.4,0.9-5.2,1.4c-1.8,0.5-3.3,0.3-4.5-0.5c-0.3,0-0.7,0-1.1,0.1c-0.5,0.1-0.8,0.1-1.1,0.1c-6.9,0.3-13.3,0.4-19.1,0.2
		c-5.8-0.2-11.6-0.2-17.3-0.2c-0.8-8.1-1.3-15.9-1.7-23.2c-0.4-7.3-0.3-14.4,0.1-21.4c0.5-5.7,0.5-11.5,0.1-17.3
		c-0.4-5.8-0.4-11.3-0.1-16.6c0.1-1.7,0.4-3.2,0.7-4.7c0.3-1.5,0.6-2.9,0.9-4.1c-0.6-1.8-0.9-3.5-1-5.2c-0.1-1.7,0-3.3,0.1-5
		c0.1-1.7,0.2-3.4,0.2-5.1c0-1.7-0.3-3.7-0.9-5.8c0.8-3.8,1.1-8.1,1.1-12.9c0-4.8-0.1-9.7-0.2-14.6c-0.2-4.9-0.1-9.6,0.1-14.1
		s0.9-8.4,2.1-11.5c2.9,0,5.7,0,8.5-0.1c2.8-0.1,5.6-0.3,8.5-0.8c5-0.1,10.2-0.3,15.7-0.5c5.5-0.1,11-0.2,16.4-0.1
		c5.4,0.1,10.8,0.3,16,0.8c5.3,0.5,10.2,1.2,14.9,2.3c0,4.8-0.2,10-0.5,15.6c-0.3,5.6-0.5,10.5-0.5,14.9c-3.6-1.8-7.5-2.9-11.8-3.3
		c-4.2-0.4-8.6-0.5-13.1-0.2c-4.5,0.2-9,0.5-13.6,0.9c-4.5,0.4-8.9,0.5-13.1,0.3c-0.9,5.3-1.2,10.8-1,16.7c0.2,5.9,0.6,11,1,15.4
		c2,0.5,4.2,0.4,6.7-0.1c2.5-0.5,4.8-0.2,6.9,1c0.5-0.5,0.5-0.7,0.1-0.8c-0.4-0.1-0.9-0.1-1.7-0.1c0.5-0.3,1.1-0.4,1.8-0.3
		c0.8,0.1,1,0.5,0.7,1.2c2.9-1.7,6.3-2.5,10.2-2.6c3.9-0.1,7.5-0.3,10.8-0.6c0.5,2.9,0.6,5.6,0.6,8.1c-0.1,2.6-0.2,5.1-0.2,7.7
		c-0.1,2.6-0.2,5.2-0.2,7.8c-0.1,2.6,0.1,5.5,0.6,8.5c-6.5,0.5-12.4,0.8-17.9,1.1c-5.4,0.3-11.5,0.5-18.3,0.5
		c0.8,6.3,0.8,12.5,0.2,18.6c-0.6,6.1-0.7,12.3-0.2,18.6c9.6,0,18.9,0.1,27.9,0.2c9,0.2,17.1,0.1,24.5-0.2c0.3,3.2,0.1,6.9-0.6,11.3
		C1694.5,152.9,1694.4,156.8,1694.8,160.5z M1624.5,112.1c-0.5,0.8-0.7,1.3-0.7,1.6h1.6C1625.4,112.6,1625.1,112.1,1624.5,112.1z
		 M1625.4,116.8c0,0.5,0.4,0.7,1.2,0.7c0.8,0,1.2-0.2,1.2-0.7c-0.5-0.3-0.9-0.4-1.2-0.2C1626.3,116.8,1625.9,116.8,1625.4,116.8z
		 M1627.9,87c0.5,0,1-0.1,1.6-0.3c0.6-0.2,1.2-0.5,1.7-0.9c0.5-0.4,0.9-0.8,1.1-1.2c0.2-0.5,0.1-0.9-0.3-1.4
		c-0.9,0.8-1.7,1.4-2.5,1.9C1628.8,85.6,1628.2,86.3,1627.9,87z M1629.5,96c0,1.1,0.5,1.6,1.6,1.6c0.5-0.5,0.5-0.9,0.1-1.5
		C1630.8,95.6,1630.3,95.6,1629.5,96z M1631.1,146c0.5,0.3,1,0.3,1.6,0c0.6-0.3,0.9-0.8,0.9-1.6c-0.8,0.3-1.2,0.1-1.5-0.6
		c-0.2-0.7-0.6-1-1-1c-0.5,0.8-0.4,1.4,0.2,1.8C1631.9,145.1,1631.8,145.5,1631.1,146z M1648.9,26.7c-0.6,0-0.9,0.2-0.9,0.5
		c-0.2,0.2-0.2,0.3,0,0.5c0.6,0,0.9,0.5,0.9,1.6c0.5,0,1-0.3,1.6-0.9c-0.5-0.3-0.8-0.5-1.1-0.5C1649.1,27.8,1648.9,27.4,1648.9,26.7
		z M1656.9,9.7c-0.3,0-0.6,0.1-1,0.2c-0.4,0.2-0.6,0.6-0.6,1.4c0.5,0.5,0.9,0.5,1.5,0.1C1657.3,11,1657.3,10.5,1656.9,9.7z
		 M1659.3,21c0,0.5-0.2,0.9-0.5,1.2c-0.3,0.4-0.5,0.8-0.5,1.2c0.9-0.5,1.5-0.6,1.7-0.5c0.2,0.2,0.5,0,0.8-0.5h-0.5
		c-0.2,0-0.2-0.2-0.2-0.7c-0.2-0.1-0.2-0.3-0.2-0.5C1659.7,21.2,1659.5,21,1659.3,21z M1660.9,25.1h-2.5c0,0.8,0.5,1.2,1.6,1.5
		C1661.1,26.8,1661.4,26.3,1660.9,25.1z M1664.1,20.1c-0.8-0.3-1.4-0.2-1.8,0.3c-0.5,0.5-0.9,1-1.4,1.5c0.5,0,0.6,0.3,0.6,0.8
		c-0.1,0.5,0.3,0.8,1,0.8c0.5-0.5,0.8-0.9,1.1-1.4C1663.9,21.7,1664.1,21,1664.1,20.1z M1662.5,17v1.6c0.5,0,1,0,1.6-0.1
		c0.6-0.1,0.9-0.3,0.9-0.6c-0.5,0-0.8-0.1-1-0.5C1663.8,17.1,1663.3,17,1662.5,17z M1665.7,23.5c0,0.8,0.1,1.1,0.5,0.9
		c0.3-0.1,0.7-0.2,1.1-0.2C1667.3,23.7,1666.7,23.5,1665.7,23.5z"/>
</g>
</svg>
