<?xml version="1.0" encoding="utf-8"?>
<!-- Generator: Adobe Illustrator 22.0.1, SVG Export Plug-In . SVG Version: 6.00 Build 0)  -->
<svg version="1.1" id="Layer_1" xmlns="http://www.w3.org/2000/svg" xmlns:xlink="http://www.w3.org/1999/xlink" x="0px" y="0px"
	 viewBox="0 0 1283.2 360" style="enable-background:new 0 0 1283.2 360;" xml:space="preserve">
<style type="text/css">
	.st0{fill:#FFFFFF;}
</style>
<g>
	<path class="st0" d="M205.7,5c0,5.3-0.1,10.5-0.2,15.6c-0.2,5.1-0.1,10.1,0.2,14.9c-3.8-1.5-7.9-2.5-12.3-3.1
		c-4.4-0.5-9-0.8-13.8-0.8c-4.7,0-9.5,0.1-14.4,0.3c-4.8,0.2-9.6,0.3-14.2,0.3c-0.5,5.3-0.5,10.5-0.2,15.6
		c0.3,5.1,0.6,10.1,0.9,14.9c5.7,1.7,11.7,2.2,18,1.6c6.3-0.6,12.6-1.1,19.1-1.6c0.1,2.1,0.2,4.6,0.1,7.3c-0.1,2.8-0.1,5.6-0.1,8.6
		s0,5.8,0.1,8.7c0.1,2.9,0.3,5.4,0.8,7.7c-6.5,0.8-12.8,1-19.1,0.7c-6.3-0.3-12.5-0.3-18.9,0c0.8,11.3,1,22.9,0.7,34.7
		c-0.3,11.8-0.2,22.9,0.2,33.3c-5.7,0-10.8,0.1-15.3,0.2c-4.4,0.1-9.1,0.1-13.9-0.2c-0.9-11.6-1.4-22.7-1.5-33.3
		c-0.1-10.6-0.1-22.4-0.1-35.4c0-2.1-0.1-4.1-0.2-6.1c-0.2-2-0.1-4,0.2-6.1c0-1.7,0.3-3.1,0.8-4.4c0.5-1.3,0.8-2.7,0.8-4.4
		c0-0.8-0.2-1.4-0.5-1.9c-0.3-0.5-0.7-1.2-1.1-2.1c0-2.4,0.2-4.9,0.6-7.6c0.4-2.6,0.2-5.2-0.6-7.6c0.5-4.1,0.8-7.8,0.9-11.3
		c0.1-3.5,0.3-6.9,0.3-10.2c0.1-3.3,0.1-6.7,0.1-10.1s0.1-7.1,0.2-11.2c-0.3-0.9-0.1-1.3,0.6-1.2c0.7,0.1,1-0.1,1-0.6
		c-0.8-2.3-0.8-4.7,0-7.2c5.7-1.2,11.9-1.8,18.4-1.9c6.6-0.1,13.1,0,19.5,0.3c7.2,0.5,14.5,0.6,21.9,0.6C192.2,2.1,199.2,3,205.7,5z
		 M127.5,162.7c0,0.5,0.2,0.6,0.6,0.3c0.4-0.2,0.7-0.3,1-0.3c-0.3,0-0.6-0.1-1-0.2C127.7,162.3,127.5,162.4,127.5,162.7z M129.2,2.3
		V3h0.9c0,0.5,0.1,0.5,0.3,0.2c0.2-0.3,0.3-0.6,0.3-0.9c-0.3-0.5-0.6-0.5-1-0.1C129.4,2.6,129.2,2.6,129.2,2.3z M138.8,155.5
		c0.5,0.5,0.8,0.6,0.9,0.3c0.1-0.2,0.4-0.3,0.7-0.3c0-1.2-0.3-1.9-1-2c-0.7-0.1-1.4-0.2-2.1-0.2c0.3,0.8,0.4,1.4,0.3,1.8
		c-0.1,0.5,0,0.9,0.3,1.4c-0.2,0-0.3,0.1-0.5,0.2c-0.2,0.2-0.2,0.6-0.2,1.4c0.8,0,1.2-0.2,1.4-0.6
		C138.7,157,138.8,156.4,138.8,155.5z"/>
	<path class="st0" d="M309.2,74.1c0,8.6,0.1,16.9,0.3,24.9c0.2,8,0.3,16.6,0.3,26c0,3.2,0.1,6.1,0.3,8.8c0.2,2.7,0.1,5.1-0.3,7.2
		c-0.8,2.1-2,3.9-3.7,5.3c-1.7,1.4-3.4,3.2-5.1,5.3c-0.6,0.8-1.2,1.7-1.8,2.9c-0.6,1.2-1.2,2.4-1.9,3.5c-0.7,1.1-1.4,2.1-2,3.1
		c-0.7,0.9-1.5,1.4-2.4,1.6c-1.2,0.5-3,0.3-5.3-0.5c-2.3-0.8-6.7-1.2-6.7-1.2h-28.8c-1.9,0-4.1,0.1-6.6,0.4
		c-2.4,0.2-4.5,0.1-6.1-0.4c-0.7,0-1.2-0.1-1.4-0.2c-0.2-0.2-0.5-0.6-0.8-1.4v1c0-1.3-0.4-2.2-1.1-2.7c-0.7-0.6-1.5-1.1-2.2-1.5
		h-0.7v1.9v0.9c0.2,0.5,0.3,0.7,0.5,0.1h0.5v1.4c0.4,0,0.7,0.2,1,0.5c0.1,0.2,0.3,0.2,0.5,0.1h0.9l0.9-0.6c-0.5,0.3-0.9,0.6-1.5,1
		c-0.5,0.4-1.2,0.6-1.9,0.6c-0.8,0-1.4-0.3-2-1c-0.6-0.7-1.2-1.5-1.8-2.5c-0.6-1-1.2-2-1.7-2.9c-0.5-1-1.1-1.8-1.7-2.4
		c-0.6-1.2-1.4-2.3-2.3-3.3c-0.9-1-1.8-1.9-2.7-2.8c-0.9-0.9-1.7-1.8-2.5-2.8c-0.8-1-1.2-2.1-1.4-3.3c-0.8-1.2-1-2.7-0.7-4.5
		c0.3-1.8,0.5-3.8,0.7-5.9c0.3-9.5,0.1-19.6-0.5-30.4c-0.6-10.8-0.8-21.6-0.5-32.4c0.3-9.9,0.4-19.8,0.3-29.6
		c-0.1-9.8,0.1-20.3,0.6-31.6L252,8.8c0.1,6.5,0.1,12.9-0.2,19.3c-0.3,6.4-0.6,12.8-0.9,19.2c-0.3,6.4-0.5,12.7-0.6,19
		c-0.1,6.3,0.2,12.4,0.8,18.4c1.1,1.5,1.6,3.4,1.6,5.6c0,1.7-0.2,3.2-0.5,4.7c-0.3,1.5-0.7,3.1-1.1,4.7c-0.3,4.8-0.6,9.8-1,15
		c-0.4,5.2-0.6,10.4-0.6,15.7c1.8,0.5,4,0.7,6.4,0.8c2.5,0.1,5,0,7.7-0.1c2.6-0.1,5.2-0.3,7.8-0.5c2.6-0.1,4.9-0.2,7-0.2
		c-0.6-9.6-1.2-19.7-1.7-30.1c-0.5-10.4-0.9-20.8-1.1-31.3c-0.2-10.5-0.3-20.8-0.3-31.1c0-10.2,0.2-20,0.7-29.4
		c5.3-1.2,10.5-1.9,15.8-2.1c5.3-0.2,10.8-0.6,16.5-1c0.8,10.1,1.1,21,1,32.7C309.2,50,309.2,61.9,309.2,74.1z M221.3,95.1
		c0.5,0,0.6-0.3,0.6-0.8c-0.1-0.5,0.3-0.8,1-0.8c0-0.6-0.5-0.9-1.6-0.9c0.5,0.5,0.6,0.9,0.3,1.2C221.4,94.3,221.3,94.7,221.3,95.1z
		 M223.2,113.7v-0.9c0-0.3-0.2-0.6-0.5-0.8c-0.3-0.2-0.7,0-1.1,0.8c0.5,0,0.8,0.2,0.9,0.5C222.7,113.5,222.9,113.7,223.2,113.7z
		 M222.9,90h-0.7v1.6c0.3,0,0.5-0.1,0.6-0.2C222.9,91.2,222.9,90.8,222.9,90z M240.7,74.1c-0.5,0-0.8,0.1-0.9,0.3
		c-0.2,0.2-0.4,0.1-0.7-0.3c0,0.8,0.3,1.1,1,1.1C240.8,75.3,241,74.9,240.7,74.1z M241.4,108.9c0.5,0,0.8-0.2,0.9-0.6
		c0.1-0.4,0.5-0.8,0.9-1.2c-0.9,0-1.4-0.1-1.6-0.5c-0.2-0.3-0.2-0.7-0.2-1.1l-2.3-1.6c0,1.7,0.3,2.7,0.9,3.1
		C240.6,107.4,241.1,108,241.4,108.9z"/>
	<path class="st0" d="M410.5,67.8c-0.2,1.2,0,2.3,0.3,3.3c0.4,1,0.8,2.3,1.2,4c0,2.4-0.2,4.9-0.5,7.6c-0.3,2.6-0.5,5.2-0.5,7.8
		c0,4.4,0,8.8,0,13.3s-0.2,9.4-0.7,14.7c-0.3,3.3-0.5,6.3-0.7,8.8c-0.2,2.6,0.1,5.3,0.7,8.1c0,0.5,0.1,1,0.3,1.7s0.3,1.2,0.3,1.7
		c0,1.2-0.3,2.4-0.8,3.6c-0.5,1.2-0.8,2.4-0.8,3.6c-0.3,2.9-0.2,5.8,0.5,8.8c0.6,3,0.8,6,0.5,8.8c-1.2,0.3-2,0.2-2.4-0.2
		c-0.4-0.5-0.9-0.7-1.7-0.7c-4.1,0-7.8-0.4-11.1-1.1c-3.3-0.8-6.6-1.1-9.9-1.1c-2.9,0.3-5.8,0.7-8.8,1.1c-3,0.5-6,0.3-8.8-0.5
		c-0.3-0.1-0.5-0.5-0.5-1.1c0-0.6-0.1-1.2-0.2-1.9c-0.2-0.7-0.3-1.4-0.6-2s-0.6-1.1-1.2-1.2c0.8-0.5,1-1.3,0.8-2.6
		c-0.2-1.3-0.5-2.3-0.8-3.1c0.8-1.2,0.9-2.6,0.6-4.2c-0.4-1.6-0.6-3.4-0.6-5.5c0-1.2,0.1-2.2,0.3-3.1c0.2-0.8,0.3-1.4,0.3-1.7
		c-0.3-1.2-0.8-1.8-1.4-1.9c-0.6-0.1-0.9-0.6-0.9-1.5c3.2-0.8,6.3-1.1,9.3-0.9c3,0.2,5.6,0.2,7.7,0.2c0.8-1.2,1-2.4,0.8-3.7
		c-0.2-1.3,0-1.9,0.8-1.9c-0.8-4.8-1-10.4-0.8-16.8c0.2-6.4,0.2-12.6-0.1-18.6c-0.5-9.9-0.9-19.5-1.4-28.8
		c-0.5-9.3-0.5-18.2-0.2-26.8c-2.6-0.8-4.7-1.2-6.6-1.2c-1.8-0.1-3.6,0-5.3,0.1c-1.7,0.2-3.5,0.4-5.4,0.7c-1.9,0.3-4.2,0.5-6.9,0.5
		c-0.3,8.4-0.3,16.7,0.1,24.9c0.4,8.1,0.8,16.2,1.2,24.1c0.5,7.9,0.8,15.7,1,23.5c0.2,7.8,0,15.6-0.8,23.4c0.5,0.6,1.1,1,1.8,1.2
		c0.8,0.2,1.5,0.5,2.3,0.7c0.8,0.2,1.4,0.6,2,1c0.6,0.5,1,1.1,1.1,2c-0.3,0-0.8-0.1-1.4-0.3c-0.6-0.2-0.9-0.1-0.9,0.3
		c0.3,2.4,0.6,5,1,7.9c0.4,2.9,0.3,6.1-0.3,9.7c0,0.5-0.1,1.1-0.3,1.8c-0.2,0.8-0.3,1.5-0.3,2.3c0,0.8,0.4,1.5,1.1,2.4
		c0.8,0.8,1.1,1.6,1.1,2.4c-5.7,0.8-11.8,0.9-18.1,0.6c-6.3-0.4-12.1-0.6-17.4-0.6c-1.7-16-2.7-31.8-3.1-47.5
		c-0.4-15.7-0.7-31.3-1-46.8c-0.2-6.5,0.3-13.1,1.5-19.8c1.1-6.7,1.5-13.3,1-19.8c-0.3-4.4-0.8-8.5-1.6-12.3
		c-0.8-3.8-0.8-7.8,0-11.9c10.1,0,20.8,0,32.1-0.1C369.2,3,380,2.8,390.4,2.5c3.2-0.5,6.3-0.6,9.5-0.3s6.2,1.2,9,2.8
		c0.6,2.4,0.8,4.9,0.7,7.3c-0.2,2.5-0.4,5-0.7,7.5c-0.3,2.5-0.5,5-0.7,7.5c-0.2,2.5,0.1,4.9,0.7,7.3c0,0.9,0.3,1.8,0.9,2.6
		c0.6,0.8,1.1,1.8,1.4,3.1c0.5,2.1,0.2,4.3-0.7,6.7c-0.9,2.3-1.2,4.7-0.9,7.1c0,0.8,0.3,1.4,0.8,2c0.5,0.6,0.8,1.3,0.8,2
		c0,1.7-0.2,3.3-0.6,4.9C410.3,64.5,410.2,66.1,410.5,67.8z M333.8,112.1c0,0.3,0.3,0.3,1,0.1c0.7-0.2,0.9-0.6,0.6-1
		C334.3,111.2,333.8,111.5,333.8,112.1z M337,82.9c0.3-0.3,0.6-0.5,1-0.7c0.4-0.1,0.6-0.5,0.6-0.9c-0.8-0.3-1.3-0.2-1.7,0.3
		C336.5,82.2,336.5,82.6,337,82.9z M340.1,32.3c0-0.8-0.3-1.3-1-1.7c-0.7-0.4-1.4-0.3-2.1,0.1c0,0.8,0.3,1.2,1,1.4
		C338.7,32.2,339.4,32.3,340.1,32.3z M337.2,41.4V43h1.6C338.8,42,338.3,41.4,337.2,41.4z M338.5,45.9c-0.5,0.5-0.2,0.7,0.8,0.7
		c1,0,1.2-0.2,0.8-0.7c0-0.3-0.2-0.4-0.5-0.2C339.4,45.8,339,45.9,338.5,45.9z M344.2,12.2L341,16c0.8,0,1.7-0.5,2.7-1.4
		C344.8,13.8,344.9,13,344.2,12.2z M342.6,25.1c0,0.3,0.1,0.6,0.2,1c0.1,0.4,0.6,0.6,1.4,0.6c0.5-0.5,0.5-0.9,0.1-1.5
		C343.9,24.7,343.4,24.6,342.6,25.1z M344.2,75c0.5,0.3,1,0.3,1.6,0.1c0.6-0.2,0.9-0.6,0.9-1c-0.8,0-1.3-0.4-1.6-1.1
		c-0.3-0.8-0.8-1.1-1.6-1.1c-0.5,0.8-0.3,1.4,0.3,1.8C344.5,74.1,344.6,74.6,344.2,75z M386.2,144.2c0-0.8,0.1-1.3,0.3-1.6
		c0.2-0.3,0.3-0.8,0.3-1.6c-0.8-0.3-1.4-0.3-2,0.1c-0.6,0.4-1.5,0.3-2.7-0.1c0.3,0.8,0.4,1.2,0.2,1.5c-0.2,0.2-0.2,0.6-0.2,1
		c0.8,0,1.4,0,2,0.1C384.8,143.7,385.5,143.9,386.2,144.2z M390.3,132.2c0.3-0.5,0.4-0.9,0.2-1.2c-0.2-0.4-0.2-0.8-0.2-1.2
		c-1.2,0-1.8,0.5-1.8,1.6c0.5,0,0.8,0.2,0.9,0.5C389.5,132.1,389.8,132.2,390.3,132.2z M396.6,148H395c0,0.5,0.3,0.8,0.8,0.9
		C396.4,149.1,396.6,148.8,396.6,148z"/>
	<path class="st0" d="M509.2,65.3c-1.7-0.5-3.1-0.5-4.4,0c-1.3,0.5-2.8,0.5-4.4,0c1.2,8.1,2.7,16.3,4.5,24.5
		c1.8,8.2,3.7,16.5,5.5,24.7c1.9,8.3,3.7,16.5,5.5,24.7c1.8,8.2,4.5,24.7,4.5,24.7h-29.1l-7.2-23.5c-1.4-4.4-2.7-8.5-4.1-12.4
		c-1.4-3.9-2.4-7.8-3.2-11.8c0-1.2-0.1-2.1-0.2-2.7c-0.2-0.6-0.1-1.1,0.2-1.4c0-0.5-0.3-0.8-0.8-1c-0.5-0.2-0.8-0.7-0.8-1.5
		c-1.2-6.9-2.5-14.1-3.7-21.4c-1.3-7.3-3-14.4-5.1-21.4h-7.2c0,8.5,0.3,16.2,0.9,23.2c0.6,7,1.1,14.4,1.4,22.1
		c0.5,9.1,0.5,17.7,0.1,26c-0.4,8.3-1.2,16.5-2.4,24.7h-9.7h0.7v-2h-0.7h-0.9h-0.7c-0.6,0.1-0.9,0.3-0.9,0.6
		c-0.2,0.2,0.2,0.5,0.2,0.5v1h0.7h-5.6c-1.7-0.3-3.4-0.2-5.2,0c-1.8,0.2-3.3,0.1-4.5-0.3c-1.4-0.8-2.2-2-2.6-3.6
		c-0.4-1.7-0.5-3.5-0.5-5.7c0.1-2.1,0.2-4.3,0.5-6.4c0.2-2.2,0.3-4.2,0.1-6c0-1.7-0.5-3.2-1.4-4.7c-0.9-1.5-1.5-2.9-1.8-4.1
		c-0.6-2.4-0.5-5.3,0.3-8.6c0.8-3.3,1.2-6.3,1.2-9c0-6.3-0.2-12-0.5-17.1c-0.3-5-0.5-10.4-0.5-16.2c0-3.2-0.1-6.3-0.2-9.5
		c-0.2-3.2-0.1-6.2,0.2-9c0-0.8,0-1.3-0.1-1.6c-0.1-0.3,0.3-0.8,1-1.6c0-0.5-0.2-0.6-0.7-0.6c-0.5,0.1-0.5-0.3-0.2-1
		c0-7.2,0-15.8,0.1-25.7c0.1-9.9,0.3-19.8,0.8-29.9c7.2,0.2,14.7,0.2,22.4,0c7.7-0.1,15.3-0.3,22.9-0.5c7.6-0.1,15-0.3,22.3-0.5
		c7.2-0.1,14-0.1,20.3,0c-0.8,3.3-0.6,6.3,0.3,8.9c1,2.6,1.7,5.6,2.1,8.9c0.3,3.2,0.3,6.6,0,10.4c-0.3,3.8-0.3,7.2,0,10.4
		c0.1,2.4,0.6,5,1.4,7.8c0.8,2.8,1.2,5.4,1.5,7.9c0.2,2.5,0,4.7-0.7,6.6c-0.7,1.9-2.2,3.1-4.6,3.7c-1.2,0.3-2.4,0.2-3.6-0.2
		C511.6,65.5,510.4,65.3,509.2,65.3z M436.6,18.5c1.2,0.5,2.1,0.5,2.6,0c0.5-0.5,0.8-0.9,0.8-1.5c0-0.5-0.3-0.8-0.8-0.9
		c-0.5-0.1-1.2,0.5-1.9,1.7c-0.3,0-0.6-0.1-0.9-0.2C436.1,17.5,436.2,17.8,436.6,18.5z M436.2,25.1v0.7c0.3,0,0.6,0.1,1,0.2
		c0.4,0.2,0.6-0.1,0.6-0.9c0-0.5-0.2-0.6-0.6-0.3C436.9,25,436.5,25.1,436.2,25.1z M488.2,38c0.5-2.1,0.7-4,0.8-5.7
		c0.1-1.7,0.1-3.5,0.1-5.6c-3.3-0.5-6.7-0.6-10.3-0.3c-3.5,0.2-7.1,0.3-10.7,0.3c-0.5-0.5-0.6-1-0.6-1.6c0.1-0.6-0.3-0.9-1-0.9
		c-0.5,0.8-0.5,1,0,0.7c0.5-0.3,0.7-0.2,0.7,0.2v0.7c-1.7,0.8-3.1,1.1-4.4,1.1c-1.3,0-2.8,0.2-4.4,0.5c0,1.7,0.1,3.4,0.5,5.3
		c0.3,1.9,0.5,3.7,0.5,5.3C469.4,38.6,479.1,38.6,488.2,38z"/>
	<path class="st0" d="M595.5,138.8l1.8,24.9c-11.3-0.9-22.1-1.1-32.4-0.5c-10.3,0.6-20.5,0.8-30.6,0.5c0-5.3,0.1-10.6,0.2-15.9
		c0.1-5.3,0.6-10.2,1.4-14.6c1.7-0.5,3.4-0.5,5.3-0.1c1.9,0.4,3.7,0.4,5.3,0.1c0.3-5.3,0.6-10.1,1-14.6c0.4-4.4,0.6-9.3,0.6-14.6
		c0.3-0.8,0.8-0.8,1.5-0.2c0.7,0.6,1.2,0.7,1.7,0.2c0-0.6-0.2-1-0.5-1.1c-0.3-0.1-0.7-0.3-1.1-0.3c-0.5-0.1-0.8-0.1-1.1-0.2
		c-0.3-0.1-0.5-0.3-0.5-0.8c0.3-6.8,0.5-13.8,0.6-21c0.1-7.2,0.1-14.7,0.1-22.4c0-0.6,0.5-0.9,1.6-0.9c0-0.8-0.3-1.1-0.8-1
		c-0.5,0.1-0.8-0.1-0.8-0.6c0-1.2,0-2.3,0.1-3.4c0.1-1.1,0.3-1.8,0.8-2.3c-0.8-2.1-0.9-4.5-0.6-7.2c0.4-2.7,0.6-5.6,0.6-8.8
		c-1.7-0.3-4-0.3-7,0c-3,0.3-5.5,0.3-7.5,0l1.6-29.8c6.5-0.5,13.8-0.5,21.9-0.1c8.1,0.4,15.9,0.1,23.3-0.8c2.9-0.3,5.5-0.6,7.8-1
		c2.3-0.4,8.5-0.6,8.5-0.6V34h-19.7c-0.3,15.4-0.6,31.3-1,47.7c-0.4,16.3-0.6,33.2-0.6,50.5c3.3,0.5,6.5,0.6,9.6,0.3
		c3.1-0.2,9.6-0.3,9.6-0.3v4.8h-2.3h-0.7v0.8c0,0.8,0.1,1.2,0.4,1.5c0.2,0.2,0.3,0.7,0.3,0.7h1.3v-1h-0.2
		C595.4,139.4,595.5,139.2,595.5,138.8z M555.3,23.5c0.3,0.3,0.6,0.4,1,0.3c0.4-0.1,0.6-0.5,0.6-1.2c0,0.5-0.3,0.6-0.8,0.5
		C555.5,22.9,555.3,23.1,555.3,23.5z M564.1,10h-1.6c0,0.9,0.4,1.4,1.1,1.4C564.4,11.4,564.5,10.9,564.1,10z M565,42l-2.5-1.8
		c0,1.7,0.3,2.7,0.9,3.2c0.6,0.5,1.1,1.1,1.6,1.8c0.3,0,0.5-0.2,0.7-0.6c0.1-0.4,0.5-0.7,0.9-1c-0.8,0-1.2-0.2-1.4-0.6
		C565.1,42.7,565,42.3,565,42z M565,87.9c0.8,0.3,1.2,0.2,1.4-0.3c0.1-0.5,0.2-0.9,0.2-1.2c-0.8,0-1.2,0.2-1.4,0.5
		C565.1,87.1,565,87.5,565,87.9z M570.6,47.7c0.3,0.3,0.6,0.3,1,0.1c0.4-0.2,0.6-0.6,0.6-1c-0.8-0.5-1.2-0.5-1.4-0.2
		C570.7,46.9,570.6,47.2,570.6,47.7z M572.2,50.8v-1.6c-0.5,0-0.8,0.1-0.9,0.3c-0.2,0.2-0.4,0.3-0.7,0.3
		C570.6,50.5,571.2,50.8,572.2,50.8z M572.9,25.8c0.5,0.5,1,0.6,1.6,0.6c0.6-0.1,0.9-0.5,0.9-1.2c-0.3-0.5-0.8-0.5-1.5-0.2
		C573.2,25.2,572.9,25.5,572.9,25.8z M576.3,151.6c1.1,0,1.6-0.3,1.6-0.9l-0.9-0.9c0,0.5-0.1,0.8-0.3,0.9
		C576.4,150.9,576.3,151.2,576.3,151.6z M582.8,13h-1.6v0.9c0-0.5,0.3-0.6,0.8-0.5C582.5,13.6,582.8,13.5,582.8,13z M583.5,153.9
		c0.3-0.3,0.6-0.6,1-0.8c0.4-0.2,0.6-0.7,0.6-1.5c-0.8,0-1.3,0.3-1.7,0.9C583,153.2,583.1,153.6,583.5,153.9z"/>
	<path class="st0" d="M690.2,128.1c1.2-1.2,3-1.5,5.4-1c2.4,0.5,4.6,0.6,6.6,0.3v31.4c-5.4,0.2-11.5,0.2-18.1,0
		c-6.6-0.1-13.4-0.3-20.2-0.3c-6.9-0.1-13.7-0.1-20.5,0c-6.8,0.1-13,0.4-18.5,1c-1.4-1.4-2.6-2.9-3.7-4.5c-1.1-1.7-2.2-3.3-3.3-5
		c-1.1-1.7-2.2-3.2-3.4-4.7c-1.2-1.5-2.6-2.9-4.3-4.3c0-0.3,0.3-0.5,1-0.7c0.7-0.1,1.2-0.5,1.5-0.9c-0.3-0.3-0.7-0.3-1.1,0.1
		c-0.5,0.4-0.9,0.3-1.4-0.1c0.9-13.7,1.1-27.6,0.7-41.6s-0.7-29.2-0.7-45.4c0-5.7-0.1-11.4-0.2-17c-0.2-5.6-0.1-11.2,0.2-17
		c0.5-2.9,0.7-5.8,0.7-8.7c0-2.9,0.6-5.7,1.8-8.2L646,0c0.8,0,0.9,0.2,0.6,0.7c-0.4,0.5-0.6,1.1-0.6,1.8c-0.5,2.4-0.6,5-0.3,7.8
		c0.2,2.8,0.5,5.5,0.7,8.1c0.2,2.6,0.2,5.1,0,7.5c-0.2,2.3-0.9,4.2-2.1,5.5c0.5,4.4,1,9.5,1.6,15.3c0.6,5.8,0.9,11.7,0.9,17.7
		c-0.2,1.8-0.5,3.7-0.9,5.8s-0.8,4-1.1,5.9c-0.3,1.9-0.4,3.7-0.3,5.5c0.1,1.8,0.6,3.4,1.7,4.7c-1.7,6.8-2.6,13.8-2.8,21.1
		c-0.2,7.3-0.9,14.2-2.1,20.7c7.5,1.5,15.2,2,23.1,1.6C671.9,129.3,680.6,128.7,690.2,128.1z M620.8,7.2c0-0.3,0-0.6-0.1-0.9
		c-0.1-0.3-0.3-0.2-0.8,0.2c-0.3,0-0.3,0.1-0.1,0.3C620,7.1,620.4,7.2,620.8,7.2z M630.8,82h-1.6v1.6
		C630.3,83.6,630.8,83.1,630.8,82z M631.2,52.4c0.5,0.8,0.5,1.2,0,1.2c-0.5,0.1-0.7,0.5-0.7,1.2c1.1-0.5,1.7-0.3,1.9,0.5
		c0.2,0.8,0.9,1.1,2.1,1.1c0.3-0.5,0.5-1,0.6-1.7c0.1-0.7,0.1-1.2,0.1-1.5c-0.8-0.5-1.4-0.6-2-0.5C632.6,53,632,52.9,631.2,52.4z
		 M637.8,70.4c0.8-2,0.6-3.3-0.5-4.1c-1.1-0.8-2-1.5-2.7-2.3h-0.5c-0.3,0-0.5,0.2-0.5,0.7l2.5,2.5c-0.8,0.8-1.6,1.2-2.5,1.2
		c-0.9,0.1-1.7,0.7-2.5,1.9c1.7,0,3-0.3,4-0.9C636.1,68.8,637,69.1,637.8,70.4z M636.2,37.1c-0.8,0-1.3,0.3-1.6,0.9
		c-0.3,0.6-0.9,1.1-1.8,1.6c0.9,0.3,1.7,0.3,2.4-0.1C635.8,39.1,636.2,38.3,636.2,37.1z M633.7,87.9c1.1,0,1.6-0.3,1.6-0.9
		C634.2,87,633.7,87.3,633.7,87.9z M637.8,63.7c0.8-0.5,0.9-0.8,0.5-1.1c-0.5-0.3-0.9-0.5-1.4-0.5c0.3,0.3,0.5,0.5,0.5,0.7
		c0,0.2,0.1,0.3,0.2,0.5C637.5,63.4,637.6,63.6,637.8,63.7z M637.8,59.7c0.8,0,1.3,0.1,1.7,0.2c0.4,0.2,0.3,0.6-0.1,1.4
		c0.8,0,1.2-0.1,1.5-0.5c0.2-0.3,0.6-0.7,1-1.1c-0.8-0.5-1.5-0.9-2.4-1.2C638.6,58,638.1,58.5,637.8,59.7z M640.9,99.2
		c-0.3-0.5-0.4-1-0.3-1.6c0.1-0.6,0-0.9-0.3-0.9c-0.5,0.5-0.6,1-0.6,1.6C639.8,98.9,640.2,99.2,640.9,99.2z"/>
	<path class="st0" d="M793,156.4c0,1.7,0.2,3.1,0.6,4.3c0.4,1.2,0.2,2.2-0.6,2.9c-4.1,0-8.2,0-12.3,0.1c-4.1,0.1-7.8-0.3-11-1
		c0-0.5-0.3-0.7-0.9-0.7h-0.9h-0.7v0.7c-0.6,0.6-1.7,0.9-3.2,0.9c-0.5-0.5-1.1-0.5-2-0.2c-0.9,0.3-1.4,0.1-1.4-0.7
		c-1.7,0.5-3.4,0.9-5.2,1.4c-1.8,0.5-3.3,0.3-4.5-0.5c-0.3,0-0.7,0-1.1,0.1c-0.5,0.1-0.8,0.1-1.1,0.1c-6.9,0.3-13.3,0.4-19.1,0.2
		c-5.8-0.2-11.6-0.2-17.3-0.2c-0.8-8.1-1.3-15.9-1.7-23.2c-0.4-7.3-0.3-14.4,0.1-21.4c0.5-5.7,0.5-11.5,0.1-17.3
		c-0.4-5.8-0.4-11.3-0.1-16.6c0.1-1.7,0.4-3.2,0.7-4.7c0.3-1.5,0.6-2.9,0.9-4.1c-0.6-1.8-0.9-3.5-1-5.2c-0.1-1.7,0-3.3,0.1-5
		c0.1-1.7,0.2-3.4,0.2-5.1c0-1.7-0.3-3.7-0.9-5.8c0.8-3.8,1.1-8.1,1.1-12.9c0-4.8-0.1-9.7-0.2-14.6c-0.2-4.9-0.1-9.6,0.1-14.1
		s0.9-8.4,2.1-11.5c2.9,0,5.7,0,8.5-0.1c2.8-0.1,5.6-0.3,8.5-0.8c5-0.1,10.2-0.3,15.7-0.5c5.5-0.1,11-0.2,16.4-0.1
		c5.4,0.1,10.8,0.3,16,0.8c5.3,0.5,10.2,1.2,14.9,2.3c0,4.8-0.2,10-0.5,15.6c-0.3,5.6-0.5,10.5-0.5,14.9c-3.6-1.8-7.5-2.9-11.8-3.3
		c-4.2-0.4-8.6-0.5-13.1-0.2c-4.5,0.2-9,0.5-13.6,0.9c-4.5,0.4-8.9,0.5-13.1,0.3c-0.9,5.3-1.2,10.8-1,16.7c0.2,5.9,0.6,11,1,15.4
		c2,0.5,4.2,0.4,6.7-0.1c2.5-0.5,4.8-0.2,6.9,1c0.5-0.5,0.5-0.7,0.1-0.8c-0.4-0.1-0.9-0.1-1.7-0.1c0.5-0.3,1.1-0.4,1.8-0.3
		c0.8,0.1,1,0.5,0.7,1.2c2.9-1.7,6.3-2.5,10.2-2.6c3.9-0.1,7.5-0.3,10.8-0.6c0.5,2.9,0.6,5.6,0.6,8.1c-0.1,2.6-0.2,5.1-0.2,7.7
		c-0.1,2.6-0.2,5.2-0.2,7.8c-0.1,2.6,0.1,5.5,0.6,8.5c-6.5,0.5-12.4,0.8-17.9,1.1c-5.4,0.3-11.5,0.5-18.3,0.5
		c0.8,6.3,0.8,12.5,0.2,18.6c-0.6,6.1-0.7,12.3-0.2,18.6c9.6,0,18.9,0.1,27.9,0.2c9,0.2,17.1,0.1,24.5-0.2c0.3,3.2,0.1,6.9-0.6,11.3
		C792.6,148.8,792.5,152.8,793,156.4z M723.2,108.4c-0.5,0.8-0.7,1.3-0.7,1.6h1.6C724.1,109,723.8,108.4,723.2,108.4z M724.1,112.8
		c0,0.5,0.4,0.7,1.2,0.7c0.8,0,1.2-0.2,1.2-0.7c-0.5-0.3-0.9-0.4-1.2-0.2C725,112.7,724.5,112.8,724.1,112.8z M726.6,82.9
		c0.5,0,1-0.1,1.6-0.3c0.6-0.2,1.2-0.5,1.7-0.9c0.5-0.4,0.9-0.8,1.1-1.2c0.2-0.5,0.1-0.9-0.3-1.4c-0.9,0.8-1.7,1.4-2.5,1.9
		C727.4,81.6,726.9,82.2,726.6,82.9z M728.2,92c0,1.1,0.5,1.6,1.6,1.6c0.5-0.5,0.5-0.9,0.1-1.5C729.5,91.6,728.9,91.5,728.2,92z
		 M729.7,141.9c0.5,0.3,1,0.3,1.6,0c0.6-0.3,0.9-0.8,0.9-1.6c-0.8,0.3-1.2,0.1-1.5-0.6c-0.2-0.7-0.6-1-1-1c-0.5,0.8-0.4,1.4,0.2,1.8
		C730.6,141,730.5,141.5,729.7,141.9z M747.6,22.6c-0.6,0-0.9,0.2-0.9,0.5c-0.2,0.2-0.2,0.3,0,0.5c0.6,0,0.9,0.5,0.9,1.6
		c0.5,0,1-0.3,1.6-0.9c-0.5-0.3-0.8-0.5-1.1-0.5C747.7,23.7,747.6,23.4,747.6,22.6z M755.5,5.6c-0.3,0-0.6,0.1-1,0.2
		c-0.4,0.2-0.6,0.6-0.6,1.4c0.5,0.5,0.9,0.5,1.5,0.1C755.9,7,756,6.4,755.5,5.6z M758,17.4c0,0.5-0.2,0.9-0.5,1.2
		c-0.3,0.4-0.5,0.8-0.5,1.2c0.9-0.5,1.5-0.6,1.7-0.5c0.2,0.2,0.5,0,0.8-0.5h-0.5c-0.2,0-0.2-0.2-0.2-0.7c-0.2-0.1-0.2-0.3-0.2-0.5
		C758.4,17.6,758.1,17.4,758,17.4z M759.6,21h-2.5c0,0.8,0.5,1.2,1.6,1.5C759.7,22.7,760,22.2,759.6,21z M762.7,16
		c-0.8-0.3-1.4-0.2-1.8,0.3c-0.5,0.5-0.9,1-1.4,1.5c0.5,0,0.6,0.3,0.6,0.8c-0.1,0.5,0.3,0.8,1,0.8c0.5-0.5,0.8-0.9,1.1-1.4
		C762.6,17.6,762.7,16.9,762.7,16z M761.2,12.9v1.6c0.5,0,1,0,1.6-0.1c0.6-0.1,0.9-0.3,0.9-0.6c-0.5,0-0.8-0.1-1-0.5
		C762.5,13,762,12.9,761.2,12.9z M764.3,19.4c0,0.8,0.1,1.1,0.5,0.9c0.3-0.1,0.7-0.2,1.1-0.2C765.9,19.7,765.4,19.4,764.3,19.4z"/>
	<path class="st0" d="M930.2,140.2v4.7v18.5c-5.8,0-11.7,0.2-17.7,0.7c-6,0.5-12.1,0.3-18.2-0.5c-2.6-0.3-5.3-0.3-8-0.1
		c-2.7,0.2-5.6,0.2-8.5-0.1c-7.3,0-15.1,0-23.4,0.1c-8.3,0.1-16,0.1-23,0.1c-0.6,0-2,0-4.2,0.1c-2.2,0.1-4.6,0.1-7.1,0.2
		c-2.5,0.1-4.8,0.1-6.9,0.1c-2.1,0-3.3-0.2-3.8-0.5c-0.9,0-1.4-0.8-1.6-2.5c-0.2-1.7-0.2-3.5-0.1-5.7c0.1-2.1,0.2-4.3,0.5-6.4
		c0.2-2.2,0.3-3.9,0.3-5.1c-0.5-3.2-0.6-6.2-0.5-9c0.2-2.9,0.3-5.7,0.5-8.6c0.5-7.1,0.8-14.5,1-22.4c0.2-7.8,0.4-15.7,0.5-23.5
		c0.1-7.8,0.1-15.5,0.1-22.9c0-7.5,0-20.5,0-20.5s1.1-3.3,1-6.2c-0.1-2.9-0.1-6,0-9.2V13c-0.1-2.6,0-4.3,0.1-4.9
		c0.1-0.8,1-1.2,2.6-1.5c1.6-0.2,3.4-0.4,5.3-0.6c2-0.1,3.8-0.3,5.5-0.6c1.7-0.2,2.9-0.7,3.5-1.5L897,1h9.5
		c-0.2,2.3-0.4,4.9-0.7,7.6c-0.3,2.7-0.5,5.5-0.7,8.2c-0.2,2.8-0.2,5.5,0,8.1c0.1,2.6,0.6,5.1,1.4,7.3c-2,0.8-3.9,1.2-5.8,1.4
		c-1.9,0.2-4.3,0.2-7.1,0.2c-8.7-0.9-16.9-1.3-24.4-1.1c-7.5,0.2-15.5,0.2-24,0.2c-0.3,6.5,0,13.1,0.8,20c0.8,6.9,0.9,13.9,0.1,21.1
		c-0.8,3.3-1.4,6.6-1.8,9.8c-0.5,3.2,0.1,5.9,1.8,8c-1.7,7.2-2.7,14.1-3.2,20.5c-0.5,6.4-1.1,13.3-1.8,20.7
		c3.6,1.2,7.5,1.8,11.5,1.9c4.1,0.1,8.3,0,12.7-0.3c5.3-0.3,10.5-0.6,15.6-1c5.1-0.4,9.9-1.2,14.2-2.4c-0.3-5.3-0.2-10,0.2-14.2
		c0.5-4.2,0.7-8.3,0.7-12.2c0-0.6,0.5-0.9,1.6-0.9c-1.2-0.3-1.6-0.9-1.1-1.7c0.5-0.8-0.5-3.2-0.5-3.2h-13.9v-2h-3v1.3L880,99h-21.6
		c0-1.8,0-4.1,0.1-6.9c0.1-2.8,0.2-5.7,0.2-8.7c0.1-3,0.2-6,0.2-8.9c0.1-2.9,0.1-5.5,0.1-7.8c8.2,0,17,0.3,26.4,0.9
		c9.4,0.6,18.9,1.1,28.5,1.6l16.2,22.6c0,8.6,0,16.5,0.1,23.7c0.1,7.2,0.3,14.9,0.8,23.1c-0.6,0.5-1.1,0.6-1.5,0.6
		c-0.4-0.1-0.7-0.2-0.9-0.5c-0.2-0.2-0.5-0.4-0.7-0.6c-0.2-0.1-0.6,0-1,0.5c0,0.8,0.2,1.2,0.5,1.4c0.3,0.2,0.7,0.2,1.1,0
		c0.5-0.1,0.8-0.3,1.1-0.3C930.1,139.5,930.2,139.7,930.2,140.2z M831.4,58.1l-1.6-1.6c0,0.8-0.1,1.2-0.3,1.5
		c-0.2,0.2-0.3,0.5-0.3,0.8c0.3,0.5,0.6,0.3,0.8-0.3C830.2,57.7,830.7,57.6,831.4,58.1z M829.2,156.4c0.3,0,0.7-0.1,1.1-0.5
		c0.5-0.3,0.8-0.5,1.1-0.5c-0.3-0.3-0.6-0.5-1-0.5c-0.4,0-0.6-0.4-0.6-1.1c-0.5,0-0.7,0.3-0.7,0.9c0.3,0,0.4,0.2,0.2,0.5
		C829.3,155.6,829.2,155.9,829.2,156.4z M837.1,67h-2.3c0.5,0.6,1,0.9,1.6,0.9c0,0.2,0.1,0.2,0.2,0C836.9,67.9,837.1,67.6,837.1,67z
		 M835.5,137.9c0.5,0.5,1,0.6,1.6,0.6c0.6-0.1,0.9-0.6,0.9-1.5c-0.5,0-1,0-1.6,0.1C835.8,137.1,835.5,137.4,835.5,137.9z
		 M840.2,149.2v-0.9c-0.5,0.5-0.7,0.8-0.8,1c-0.1,0.2-0.1,0.7-0.1,1.5c0.5-0.5,0.9-0.6,1.2-0.5c0.4,0.2,0.8,0,1.2-0.5
		c0-0.3-0.3-0.4-0.8-0.3C840.5,149.6,840.2,149.5,840.2,149.2z M839.6,152.3c0,0.5,0.5,0.8,1.5,0.9c1,0.2,1.3-0.1,1-0.9
		c-0.5-0.3-0.8-0.4-1-0.2C840.8,152.2,840.3,152.3,839.6,152.3z M843.6,150.7c0.5-0.5,0.8-0.9,1.1-1.4c0.3-0.5,0.5-1.1,0.5-1.8
		c-0.8-0.8-1.4-0.9-1.9-0.5c-0.5,0.5-0.9,0.8-1.2,1.1c0.3,0.5,0.5,1,0.5,1.6C842.5,150.4,842.9,150.7,843.6,150.7z M843.2,144.2v0.9
		c0.5,0.5,1,0.7,1.6,0.7c0.6,0,0.9-0.2,0.9-0.7c-0.5,0-0.8-0.1-1-0.5C844.5,144.3,844,144.2,843.2,144.2z M846.8,150.7
		c0,0.6,0.5,0.9,1.6,0.9C848.4,151,847.9,150.7,846.8,150.7z M859.7,160.5c0,0.3,0.4,0.3,1.2,0.1c0.8-0.2,1.2-0.6,1.2-1
		c-0.5,0-1,0-1.6,0.1C860,159.7,859.7,160,859.7,160.5z M862.2,141.9c0,0.3,0.4,0.5,1.2,0.5c0.8,0,1.2-0.1,1.2-0.5
		c-0.5,0-0.8-0.1-0.9-0.2c-0.3,0-0.6,0-0.8-0.1C862.7,141.5,862.5,141.6,862.2,141.9z M875.1,148h0.9c0.3,0,0.5-0.3,0.5-0.8
		c0-0.5-0.2-0.8-0.5-0.8c-0.5,0.5-0.8,0.8-1,0.9C874.7,147.5,874.8,147.7,875.1,148z M875.1,146.7c1.5-0.6,2.6-1.7,3.2-3.2
		c-0.8,0-1.5,0.3-2.1,1C875.4,145.2,875.1,145.9,875.1,146.7z M891.3,137.6c0.8,0,1.2-0.1,1.4-0.2c0.1-0.1,0.2-0.6,0.2-1.4H892
		c0,0.3-0.1,0.5-0.3,0.7C891.4,136.9,891.3,137.2,891.3,137.6z M892,159.7c0-0.5,0.1-0.7,0.5-0.7h0.5c-0.5-0.5-0.8-0.8-1.1-0.9
		c-0.3-0.1-0.5,0.2-0.5,0.9c0.3,0,0.4,0.1,0.3,0.3C891.6,159.6,891.7,159.7,892,159.7z M901.7,133.1c0,0.3,0.3,0.4,0.8,0.3
		c0.5-0.1,0.8-0.5,0.8-1.2c-0.3,0.5-0.6,0.6-1,0.5C901.9,132.5,901.7,132.7,901.7,133.1z"/>
	<path class="st0" d="M1064.2,140.2v4.7v18.5c-5.7,0-11.6,0.2-17.6,0.7c-6,0.5-12,0.3-18-0.5c-2.6-0.3-5.2-0.3-7.9-0.1
		c-2.7,0.2-5.5,0.2-8.4-0.1c-7.3,0-15,0-23.2,0.1c-8.2,0.1-15.8,0.1-22.8,0.1c-0.6,0-2,0-4.2,0.1c-2.2,0.1-4.5,0.1-7,0.2
		c-2.5,0.1-4.8,0.1-6.8,0.1s-3.3-0.2-3.7-0.5c-0.9,0-1.4-0.8-1.6-2.5c-0.2-1.7-0.2-3.5-0.1-5.7c0.1-2.1,0.2-4.3,0.5-6.4
		c0.2-2.2,0.3-3.9,0.3-5.1c-0.5-3.2-0.6-6.2-0.5-9c0.1-2.9,0.3-5.7,0.5-8.6c0.5-7.1,0.8-14.5,1-22.4c0.2-7.8,0.4-15.7,0.5-23.5
		c0.1-7.8,0.1-15.5,0.1-22.9c0-7.5,0-20.5,0-20.5s0.8-3.3,0.7-6.2c-0.1-2.9-0.1-6,0.3-9.2V13c-0.4-2.6-0.4-4.3-0.2-4.9
		c0.1-0.8,1-1.2,2.6-1.5c1.6-0.2,3.4-0.4,5.3-0.6c2-0.1,3.8-0.3,5.5-0.6c1.7-0.2,2.9-0.7,3.5-1.5l68.7-3h9.5
		c-0.2,2.3-0.4,4.9-0.7,7.6c-0.3,2.7-0.5,5.5-0.7,8.2c-0.2,2.8-0.2,5.5,0,8.1c0.1,2.6,0.6,5.1,1.4,7.3c-2,0.8-3.9,1.2-5.8,1.4
		c-1.9,0.2-4.3,0.2-7.1,0.2c-8.7-0.9-16.9-1.3-24.4-1.1c-7.5,0.2-15.5,0.2-24,0.2c-0.3,6.5,0,13.1,0.8,20c0.8,6.9,0.9,13.9,0.1,21.1
		c-0.8,3.3-1.4,6.6-1.8,9.8c-0.5,3.2,0.1,5.9,1.8,8c-1.7,7.2-2.7,14.1-3.2,20.5c-0.5,6.4-1.1,13.3-1.8,20.7
		c3.6,1.2,7.5,1.8,11.5,1.9c4.1,0.1,8.3,0,12.7-0.3c5.3-0.3,10.5-0.6,15.6-1c5.1-0.4,9.9-1.2,14.2-2.4c-0.3-5.3-0.2-10,0.2-14.2
		c0.5-4.2,0.7-8.3,0.7-12.2c0-0.6,0.5-0.9,1.6-0.9c-1.2-0.3-1.6-0.9-1.1-1.7c0.5-0.8-0.5-3.2-0.5-3.2h-13.5v-2h-3v1.3l0.5,0.7h-21.7
		c0-1.8,0-4.1,0.1-6.9c0.1-2.8,0.1-5.7,0.2-8.7c0.1-3,0.1-6,0.2-8.9c0.1-2.9,0.1-5.5,0.1-7.8c8.2,0,16.9,0.3,26.2,0.9
		c9.3,0.6,18.7,1.1,28.2,1.6l16.1,22.6c0,8.6,0,16.5,0.1,23.7c0.1,7.2,0.3,14.9,0.8,23.1c-0.6,0.5-1.1,0.6-1.5,0.6
		c-0.4-0.1-0.7-0.2-0.9-0.5c-0.2-0.2-0.5-0.4-0.7-0.6c-0.2-0.1-0.6,0-1,0.5c0,0.8,0.1,1.2,0.5,1.4c0.3,0.2,0.7,0.2,1.1,0
		c0.5-0.1,0.8-0.3,1.1-0.3C1064.1,139.5,1064.2,139.7,1064.2,140.2z M966.1,58.1l-1.6-1.6c0,0.8-0.1,1.2-0.3,1.5
		c-0.2,0.2-0.3,0.5-0.3,0.8c0.3,0.5,0.6,0.3,0.8-0.3C964.9,57.7,965.4,57.6,966.1,58.1z M963.9,156.4c0.3,0,0.7-0.1,1.1-0.5
		c0.5-0.3,0.8-0.5,1.1-0.5c-0.3-0.3-0.6-0.5-1-0.5c-0.4,0-0.6-0.4-0.6-1.1c-0.5,0-0.7,0.3-0.7,0.9c0.3,0,0.4,0.2,0.2,0.5
		C964,155.6,963.9,155.9,963.9,156.4z M971.8,67h-2.3c0.5,0.6,1,0.9,1.6,0.9c0,0.2,0.1,0.2,0.2,0C971.6,67.9,971.8,67.6,971.8,67z
		 M970.2,137.9c0.5,0.5,1,0.6,1.6,0.6c0.6-0.1,0.9-0.6,0.9-1.5c-0.5,0-1,0-1.6,0.1C970.5,137.1,970.2,137.4,970.2,137.9z
		 M975.2,149.2v-0.9c-0.5,0.5-0.7,0.8-0.8,1c-0.1,0.2-0.1,0.7-0.1,1.5c0.5-0.5,0.9-0.6,1.2-0.5c0.4,0.2,0.8,0,1.2-0.5
		c0-0.3-0.3-0.4-0.8-0.3C975.5,149.6,975.2,149.5,975.2,149.2z M974.3,152.3c0,0.5,0.5,0.8,1.5,0.9c1,0.2,1.3-0.1,1-0.9
		c-0.5-0.3-0.8-0.4-1-0.2C975.5,152.2,975,152.3,974.3,152.3z M978.3,150.7c0.5-0.5,0.8-0.9,1.1-1.4c0.3-0.5,0.5-1.1,0.5-1.8
		c-0.8-0.8-1.4-0.9-1.9-0.5c-0.5,0.5-0.9,0.8-1.2,1.1c0.3,0.5,0.5,1,0.5,1.6C977.2,150.4,977.6,150.7,978.3,150.7z M978.2,144.2v0.9
		c0.5,0.5,1,0.7,1.6,0.7c0.6,0,0.9-0.2,0.9-0.7c-0.5,0-0.8-0.1-1-0.5C979.5,144.3,979,144.2,978.2,144.2z M981.5,150.7
		c0,0.6,0.5,0.9,1.6,0.9C983.1,151,982.6,150.7,981.5,150.7z M994.4,160.5c0,0.3,0.4,0.3,1.2,0.1c0.8-0.2,1.2-0.6,1.2-1
		c-0.5,0-1,0-1.6,0.1C994.7,159.7,994.4,160,994.4,160.5z M996.9,141.9c0,0.3,0.4,0.5,1.2,0.5c0.8,0,1.2-0.1,1.2-0.5
		c-0.5,0-0.8-0.1-0.9-0.2c-0.3,0-0.6,0-0.8-0.1C997.4,141.5,997.2,141.6,996.9,141.9z M1009.8,148h0.9c0.3,0,0.5-0.3,0.5-0.8
		c0-0.5-0.2-0.8-0.5-0.8c-0.5,0.5-0.8,0.8-1,0.9C1009.4,147.5,1009.5,147.7,1009.8,148z M1009.8,146.7c1.5-0.6,2.6-1.7,3.2-3.2
		c-0.8,0-1.5,0.3-2.1,1C1010.1,145.2,1009.8,145.9,1009.8,146.7z M1026,137.6c0.8,0,1.2-0.1,1.4-0.2c0.1-0.1,0.2-0.6,0.2-1.4h-0.9
		c0,0.3-0.1,0.5-0.3,0.7C1026.1,136.9,1026,137.2,1026,137.6z M1026.7,159.7c0-0.5,0.1-0.7,0.5-0.7h0.5c-0.5-0.5-0.8-0.8-1.1-0.9
		c-0.3-0.1-0.5,0.2-0.5,0.9c0.3,0,0.4,0.1,0.3,0.3C1026.3,159.6,1026.4,159.7,1026.7,159.7z M1036.4,133.1c0,0.3,0.3,0.4,0.8,0.3
		c0.5-0.1,0.8-0.5,0.8-1.2c-0.3,0.5-0.6,0.6-1,0.5C1036.6,132.5,1036.4,132.7,1036.4,133.1z"/>
	<path class="st0" d="M1160,156.4c0,1.7,0.2,3.1,0.6,4.3c0.4,1.2,0.2,2.2-0.6,2.9c-4.1,0-8.2,0-12.3,0.1c-4.1,0.1-7.8-0.3-11-1
		c0-0.5-0.3-0.7-0.9-0.7h-0.9h-0.7v0.7c-0.6,0.6-1.7,0.9-3.2,0.9c-0.5-0.5-1.1-0.5-2-0.2c-0.9,0.3-1.4,0.1-1.4-0.7
		c-1.7,0.5-3.4,0.9-5.2,1.4c-1.8,0.5-3.3,0.3-4.5-0.5c-0.3,0-0.7,0-1.1,0.1c-0.5,0.1-0.8,0.1-1.1,0.1c-6.9,0.3-13.3,0.4-19.1,0.2
		c-5.8-0.2-11.6-0.2-17.3-0.2c-0.8-8.1-1.3-15.9-1.7-23.2c-0.4-7.3-0.3-14.4,0.1-21.4c0.5-5.7,0.5-11.5,0.1-17.3
		c-0.4-5.8-0.4-11.3-0.1-16.6c0.1-1.7,0.4-3.2,0.7-4.7c0.3-1.5,0.6-2.9,0.9-4.1c-0.6-1.8-0.9-3.5-1-5.2c-0.1-1.7,0-3.3,0.1-5
		c0.1-1.7,0.2-3.4,0.2-5.1c0-1.7-0.3-3.7-0.9-5.8c0.8-3.8,1.1-8.1,1.1-12.9c0-4.8-0.1-9.7-0.2-14.6c-0.2-4.9-0.1-9.6,0.1-14.1
		s0.9-8.4,2.1-11.5c2.9,0,5.7,0,8.5-0.1c2.8-0.1,5.6-0.3,8.5-0.8c5-0.1,10.2-0.3,15.7-0.5c5.5-0.1,11-0.2,16.4-0.1
		c5.4,0.1,10.8,0.3,16,0.8c5.3,0.5,10.2,1.2,14.9,2.3c0,4.8-0.2,10-0.5,15.6c-0.3,5.6-0.5,10.5-0.5,14.9c-3.6-1.8-7.5-2.9-11.8-3.3
		c-4.2-0.4-8.6-0.5-13.1-0.2c-4.5,0.2-9,0.5-13.6,0.9c-4.5,0.4-8.9,0.5-13.1,0.3c-0.9,5.3-1.2,10.8-1,16.7c0.2,5.9,0.6,11,1,15.4
		c2,0.5,4.2,0.4,6.7-0.1c2.5-0.5,4.8-0.2,6.9,1c0.5-0.5,0.5-0.7,0.1-0.8c-0.4-0.1-0.9-0.1-1.7-0.1c0.5-0.3,1.1-0.4,1.8-0.3
		c0.8,0.1,1,0.5,0.7,1.2c2.9-1.7,6.3-2.5,10.2-2.6c3.9-0.1,7.5-0.3,10.8-0.6c0.5,2.9,0.6,5.6,0.6,8.1c-0.1,2.6-0.2,5.1-0.2,7.7
		c-0.1,2.6-0.2,5.2-0.2,7.8c-0.1,2.6,0.1,5.5,0.6,8.5c-6.5,0.5-12.4,0.8-17.9,1.1c-5.4,0.3-11.5,0.5-18.3,0.5
		c0.8,6.3,0.8,12.5,0.2,18.6c-0.6,6.1-0.7,12.3-0.2,18.6c9.6,0,18.9,0.1,27.9,0.2c9,0.2,17.1,0.1,24.5-0.2c0.3,3.2,0.1,6.9-0.6,11.3
		C1159.6,148.8,1159.5,152.8,1160,156.4z M1089.8,108.4c-0.5,0.8-0.7,1.3-0.7,1.6h1.6C1090.7,109,1090.4,108.4,1089.8,108.4z
		 M1090.7,112.8c0,0.5,0.4,0.7,1.2,0.7c0.8,0,1.2-0.2,1.2-0.7c-0.5-0.3-0.9-0.4-1.2-0.2C1091.5,112.7,1091.1,112.8,1090.7,112.8z
		 M1093.1,82.9c0.5,0,1-0.1,1.6-0.3c0.6-0.2,1.2-0.5,1.7-0.9c0.5-0.4,0.9-0.8,1.1-1.2c0.2-0.5,0.1-0.9-0.3-1.4
		c-0.9,0.8-1.7,1.4-2.5,1.9C1094,81.6,1093.4,82.2,1093.1,82.9z M1094.7,92c0,1.1,0.5,1.6,1.6,1.6c0.5-0.5,0.5-0.9,0.1-1.5
		C1096,91.6,1095.5,91.5,1094.7,92z M1096.3,141.9c0.5,0.3,1,0.3,1.6,0c0.6-0.3,0.9-0.8,0.9-1.6c-0.8,0.3-1.2,0.1-1.5-0.6
		c-0.2-0.7-0.6-1-1-1c-0.5,0.8-0.4,1.4,0.2,1.8C1097.1,141,1097.1,141.5,1096.3,141.9z M1114.2,22.6c-0.6,0-0.9,0.2-0.9,0.5
		c-0.2,0.2-0.2,0.3,0,0.5c0.6,0,0.9,0.5,0.9,1.6c0.5,0,1-0.3,1.6-0.9c-0.5-0.3-0.8-0.5-1.1-0.5C1114.3,23.7,1114.2,23.4,1114.2,22.6
		z M1122.1,5.6c-0.3,0-0.6,0.1-1,0.2c-0.4,0.2-0.6,0.6-0.6,1.4c0.5,0.5,0.9,0.5,1.5,0.1C1122.5,7,1122.5,6.4,1122.1,5.6z
		 M1124.6,17.4c0,0.5-0.2,0.9-0.5,1.2c-0.3,0.4-0.5,0.8-0.5,1.2c0.9-0.5,1.5-0.6,1.7-0.5c0.2,0.2,0.5,0,0.8-0.5h-0.5
		c-0.2,0-0.2-0.2-0.2-0.7c-0.2-0.1-0.2-0.3-0.2-0.5C1124.9,17.6,1124.7,17.4,1124.6,17.4z M1126.1,21h-2.5c0,0.8,0.5,1.2,1.6,1.5
		C1126.3,22.7,1126.6,22.2,1126.1,21z M1129.3,16c-0.8-0.3-1.4-0.2-1.8,0.3c-0.5,0.5-0.9,1-1.4,1.5c0.5,0,0.6,0.3,0.6,0.8
		c-0.1,0.5,0.3,0.8,1,0.8c0.5-0.5,0.8-0.9,1.1-1.4C1129.2,17.6,1129.3,16.9,1129.3,16z M1127.2,12.9v1.6c0.5,0,1,0,1.6-0.1
		c0.6-0.1,0.9-0.3,0.9-0.6c-0.5,0-0.8-0.1-1-0.5C1128.5,13,1128,12.9,1127.2,12.9z M1130.9,19.4c0,0.8,0.1,1.1,0.5,0.9
		c0.3-0.1,0.7-0.2,1.1-0.2C1132.5,19.7,1131.9,19.4,1130.9,19.4z"/>
	<path class="st0" d="M104.2,196.8c0.5,1.8,0.7,4.1,0.8,6.9c0.1,2.8,0.1,5.6,0,8.6c-0.1,2.9-0.2,5.8-0.2,8.7c-0.1,2.9,0,5.3,0.1,7.2
		c-5.7-0.3-11.5-0.6-17.3-0.8c-5.8-0.2-11.6,0-17.3,0.8c-0.5,4.5-0.8,9.5-0.9,14.9c-0.2,5.4-0.3,11-0.3,16.6
		c-0.1,5.7-0.1,11.2-0.1,16.6s-0.1,10.3-0.2,14.7c-0.3,11.3-0.8,22.4-1.5,33.3c-0.7,10.9-1,22.5-1,34.7c-2.4-0.1-5-0.2-7.8-0.2
		c-2.8,0-5.5,0-8.2,0.1c-2.7,0.1-5.4,0.1-8,0.2c-2.6,0.1-5.1,0-7.3-0.1c-0.5-9.5-0.7-19.3-0.7-29.5S33.7,308,33,295.1
		c-0.2-1.2-0.3-2.5-0.5-4c-0.2-1.4-0.2-2.7-0.2-4c0-1.2,0.3-2.3,0.8-3.2c0.5-0.9,0.8-1.7,0.8-2.5c0.5-2.1,0.4-4.3-0.2-6.6
		c-0.6-2.3-1.1-4.7-1.4-7.2c-0.8-5.7-0.7-11.9,0.2-18.5c0.9-6.6,1.4-13.6,1.4-21c-3.5-0.1-6.6-0.2-9.4-0.2c-2.8,0-5.5,0-8.1,0
		c-2.6,0-5.3,0-7.9,0.1c-2.6,0.1-5.5,0.1-8.5,0.1c0.5-5.7,0.7-11,0.8-15.9c0.1-4.9,0.1-9.8,0.1-14.6c14.2,0,27.3,0.1,39.3,0.2
		c12.1,0.2,24,0.1,35.7-0.2c4.8-0.1,9.6-0.3,14.4-0.6C95,196.9,99.7,196.8,104.2,196.8z M36.4,341.4l2.3-1.8
		C37.1,339.6,36.4,340.2,36.4,341.4z M38,320.4c0.3,0.3,0.8,0.4,1.5,0.3c0.7-0.1,1-0.5,1-1.2C38.8,319.5,38,319.8,38,320.4z
		 M46.1,221h-1.8c0,1.1,0.3,1.6,0.9,1.6C45.8,222.2,46.1,221.6,46.1,221z M47.2,263.9v-0.7c-1.1,0-1.6,0.5-1.6,1.6
		c0.5,0,0.8-0.1,0.9-0.5C46.7,264,46.9,263.9,47.2,263.9z M49.3,205.8c0,0.5,0.3,0.7,0.8,0.7c0.5,0,0.8-0.2,0.8-0.7
		c-0.5,0-0.8-0.1-1.1-0.2C49.4,205.4,49.3,205.5,49.3,205.8z M54,275.2c1.1,0,1.6-0.2,1.6-0.7c-0.3-0.5-0.6-0.6-1-0.6
		C54.2,274,54,274.4,54,275.2z M59.2,284v-1.6c-0.3,0-0.7-0.2-1.1-0.7c-0.5-0.5-0.8-0.5-1.1,0c0.3,0.8,0.6,1.3,0.8,1.7
		C58,283.8,58.5,284,59.2,284z"/>
	<path class="st0" d="M207.9,269.5c0,8.6,0.1,16.9,0.3,24.9c0.2,8,0.3,16.6,0.3,26c0,3.2,0.1,6.1,0.3,8.8c0.2,2.7,0.1,5.1-0.3,7.2
		c-0.8,2.1-2,3.9-3.7,5.3c-1.7,1.4-3.4,3.2-5.1,5.3c-0.6,0.8-1.2,1.7-1.8,2.9c-0.6,1.2-1.2,2.4-1.9,3.5c-0.7,1.1-1.4,2.1-2,3.1
		c-0.7,0.9-1.5,1.4-2.4,1.6c-1.2,0.5-3,0.3-5.3-0.5c-2.3-0.8-6.7-0.6-6.7-0.6h-28.6c-1.9,0-4.1,0.1-6.6,0.4
		c-2.4,0.2-4.5,0.1-6.1-0.4c-0.7,0-1.2-0.1-1.4-0.2c-0.2-0.2-0.5-0.6-0.8-1.4v1c0-1.3-0.4-2.2-1.1-2.7c-0.7-0.6-1.5-1.1-2.2-1.5
		h-0.7v1.3v0.9c0,0.5,0.1,0.7,0.2,0.7h0.8v0.8c0.1,0,0.5,0.2,0.8,0.5c0.1,0.2,0.3,0.2,0.5,0.7h0.9l0.9-1.2c-0.5,0.3-0.9,0.6-1.5,1
		c-0.5,0.4-1.2,0.6-1.9,0.6c-0.8,0-1.4-0.3-2-1c-0.6-0.7-1.2-1.5-1.8-2.5c-0.6-1-1.2-2-1.7-2.9c-0.5-1-1.1-1.8-1.7-2.4
		c-0.6-1.2-1.4-2.3-2.3-3.3c-0.9-1-1.8-1.9-2.7-2.8c-0.9-0.9-1.7-1.8-2.5-2.8c-0.8-1-1.2-2.1-1.4-3.3c-0.8-1.2-1-2.7-0.7-4.5
		c0.3-1.8,0.5-3.8,0.7-5.9c0.3-9.5,0.1-19.6-0.5-30.4c-0.6-10.8-0.8-21.6-0.5-32.4c0.3-9.9,0.4-19.8,0.3-29.6
		c-0.1-9.8,0.1-20.3,0.6-31.6l33.9,2.3c0.1,6.5,0.1,12.9-0.2,19.3c-0.3,6.4-0.6,12.8-0.9,19.2c-0.3,6.4-0.5,12.7-0.6,19
		c-0.1,6.3,0.2,12.4,0.8,18.4c1.1,1.5,1.6,3.4,1.6,5.6c0,1.7-0.2,3.2-0.5,4.7c-0.3,1.5-0.7,3.1-1.1,4.7c-0.3,4.8-0.6,9.8-1,15
		c-0.4,5.2-0.6,10.4-0.6,15.7c1.8,0.5,4,0.7,6.4,0.8c2.5,0.1,5,0,7.7-0.1c2.6-0.1,5.2-0.3,7.8-0.5c2.6-0.1,4.9-0.2,7-0.2
		c-0.6-9.6-1.2-19.7-1.7-30.1c-0.5-10.4-0.9-20.8-1.1-31.3c-0.2-10.5-0.3-20.8-0.3-31.1c0-10.2,0.2-20,0.7-29.4
		c5.3-1.2,10.5-1.9,15.8-2.1c5.3-0.2,10.8-0.6,16.5-1c0.8,10.1,1.1,21,1,32.7C208,245.4,207.9,257.3,207.9,269.5z M120,290.5
		c0.5,0,0.6-0.3,0.6-0.8c-0.1-0.5,0.3-0.8,1-0.8c0-0.6-0.5-0.9-1.6-0.9c0.5,0.5,0.6,0.9,0.3,1.2C120.1,289.7,120,290.1,120,290.5z
		 M121.2,309.1v-0.9c0-0.3-0.2-0.6-0.5-0.8c-0.3-0.2-0.7,0-1.1,0.8c0.5,0,0.8,0.2,0.9,0.5C120.7,308.9,120.9,309.1,121.2,309.1z
		 M121.9,286h-0.7v1.6c0.3,0,0.5-0.1,0.6-0.2C121.9,287.2,121.9,286.8,121.9,286z M139.4,269.5c-0.5,0-0.8,0.1-0.9,0.3
		c-0.2,0.2-0.4,0.1-0.7-0.3c0,0.8,0.3,1.1,1,1.1C139.6,270.7,139.7,270.3,139.4,269.5z M140.1,304.3c0.5,0,0.8-0.2,0.9-0.6
		c0.1-0.4,0.5-0.8,0.9-1.2c-0.9,0-1.4-0.1-1.6-0.5c-0.2-0.3-0.2-0.7-0.2-1.1l-2.3-1.6c0,1.7,0.3,2.7,0.9,3.1
		C139.4,302.8,139.8,303.4,140.1,304.3z"/>
	<path class="st0" d="M325.7,196.8c0.5,1.8,0.7,4.1,0.8,6.9c0.1,2.8,0.1,5.6,0,8.6c-0.1,2.9-0.2,5.8-0.2,8.7c-0.1,2.9,0,5.3,0.1,7.2
		c-5.7-0.3-11.5-0.6-17.3-0.8c-5.8-0.2-11.6,0-17.3,0.8c-0.5,4.5-0.8,9.5-0.9,14.9c-0.2,5.4-0.3,11-0.3,16.6
		c-0.1,5.7-0.1,11.2-0.1,16.6s-0.1,10.3-0.2,14.7c-0.3,11.3-0.8,22.4-1.5,33.3c-0.7,10.9-1,22.5-1,34.7c-2.4-0.1-5-0.2-7.8-0.2
		c-2.8,0-5.5,0-8.2,0.1c-2.7,0.1-5.4,0.1-8,0.2c-2.6,0.1-5.1,0-7.3-0.1c-0.5-9.5-0.7-19.3-0.7-29.5s-0.4-21.7-1.1-34.5
		c-0.2-1.2-0.3-2.5-0.5-4c-0.2-1.4-0.2-2.7-0.2-4c0-1.2,0.3-2.3,0.8-3.2c0.5-0.9,0.8-1.7,0.8-2.5c0.5-2.1,0.4-4.3-0.2-6.6
		c-0.6-2.3-1.1-4.7-1.4-7.2c-0.8-5.7-0.7-11.9,0.2-18.5c0.9-6.6,1.4-13.6,1.4-21c-3.5-0.1-6.6-0.2-9.4-0.2c-2.8,0-5.5,0-8.1,0
		c-2.6,0-5.3,0-7.9,0.1c-2.6,0.1-5.5,0.1-8.5,0.1c0.5-5.7,0.7-11,0.8-15.9c0.1-4.9,0.1-9.8,0.1-14.6c14.2,0,27.3,0.1,39.3,0.2
		c12.1,0.2,24,0.1,35.7-0.2c4.8-0.1,9.6-0.3,14.4-0.6C316.5,196.9,321.1,196.8,325.7,196.8z M257.9,341.4l2.3-1.8
		C258.6,339.6,257.9,340.2,257.9,341.4z M259.4,320.4c0.3,0.3,0.8,0.4,1.5,0.3c0.7-0.1,1-0.5,1-1.2
		C260.3,319.5,259.4,319.8,259.4,320.4z M267.6,221h-1.8c0,1.1,0.3,1.6,0.9,1.6C267.3,222.2,267.6,221.6,267.6,221z M268.2,263.9
		v-0.7c-1.1,0-1.6,0.5-1.6,1.6c0.5,0,0.8-0.1,0.9-0.5C267.7,264,267.9,263.9,268.2,263.9z M270.7,205.8c0,0.5,0.3,0.7,0.8,0.7
		c0.5,0,0.8-0.2,0.8-0.7c-0.5,0-0.8-0.1-1.1-0.2C270.9,205.4,270.7,205.5,270.7,205.8z M275.5,275.2c1.1,0,1.6-0.2,1.6-0.7
		c-0.3-0.5-0.6-0.6-1-0.6C275.7,274,275.5,274.4,275.5,275.2z M281.2,284v-1.6c-0.3,0-0.7-0.2-1.1-0.7c-0.5-0.5-0.8-0.5-1.1,0
		c0.3,0.8,0.6,1.3,0.8,1.7C280,283.8,280.5,284,281.2,284z"/>
	<path class="st0" d="M443.2,196.8c0.5,1.8,0.7,4.1,0.8,6.9c0.1,2.8,0.1,5.6,0,8.6c-0.1,2.9-0.2,5.8-0.2,8.7c-0.1,2.9,0,5.3,0.1,7.2
		c-5.7-0.3-11.5-0.6-17.3-0.8c-5.8-0.2-11.6,0-17.3,0.8c-0.5,4.5-0.8,9.5-0.9,14.9c-0.2,5.4-0.3,11-0.3,16.6
		c-0.1,5.7-0.1,11.2-0.1,16.6s-0.1,10.3-0.2,14.7c-0.3,11.3-0.8,22.4-1.5,33.3c-0.7,10.9-1,22.5-1,34.7c-2.4-0.1-5-0.2-7.8-0.2
		c-2.8,0-5.5,0-8.2,0.1c-2.7,0.1-5.4,0.1-8,0.2c-2.6,0.1-5.1,0-7.3-0.1c-0.5-9.5-0.7-19.3-0.7-29.5s-0.4-21.7-1.1-34.5
		c-0.2-1.2-0.3-2.5-0.5-4c-0.2-1.4-0.2-2.7-0.2-4c0-1.2,0.3-2.3,0.8-3.2c0.5-0.9,0.8-1.7,0.8-2.5c0.5-2.1,0.4-4.3-0.2-6.6
		c-0.6-2.3-1.1-4.7-1.4-7.2c-0.8-5.7-0.7-11.9,0.2-18.5c0.9-6.6,1.4-13.6,1.4-21c-3.5-0.1-6.6-0.2-9.4-0.2c-2.8,0-5.5,0-8.1,0
		c-2.6,0-5.3,0-7.9,0.1c-2.6,0.1-5.5,0.1-8.5,0.1c0.5-5.7,0.7-11,0.8-15.9c0.1-4.9,0.1-9.8,0.1-14.6c14.2,0,27.3,0.1,39.3,0.2
		c12.1,0.2,24,0.1,35.7-0.2c4.8-0.1,9.6-0.3,14.4-0.6C434,196.9,438.7,196.8,443.2,196.8z M375.4,341.4l2.3-1.8
		C376.1,339.6,375.4,340.2,375.4,341.4z M377,320.4c0.3,0.3,0.8,0.4,1.5,0.3c0.7-0.1,1-0.5,1-1.2C377.8,319.5,377,319.8,377,320.4z
		 M385.1,221h-1.8c0,1.1,0.3,1.6,0.9,1.6C384.8,222.2,385.1,221.6,385.1,221z M386.2,263.9v-0.7c-1.1,0-1.6,0.5-1.6,1.6
		c0.5,0,0.8-0.1,0.9-0.5C385.7,264,385.9,263.9,386.2,263.9z M388.3,205.8c0,0.5,0.3,0.7,0.8,0.7c0.5,0,0.8-0.2,0.8-0.7
		c-0.5,0-0.8-0.1-1.1-0.2C388.4,205.4,388.3,205.5,388.3,205.8z M393,275.2c1.1,0,1.6-0.2,1.6-0.7c-0.3-0.5-0.6-0.6-1-0.6
		C393.2,274,393,274.4,393,275.2z M398.2,284v-1.6c-0.3,0-0.7-0.2-1.1-0.7c-0.5-0.5-0.8-0.5-1.1,0c0.3,0.8,0.6,1.3,0.8,1.7
		C397,283.8,397.5,284,398.2,284z"/>
	<path class="st0" d="M529.1,325h0.3c0.3,0,0.4,0.2,0.4,0.7l5.6,34.3h-22.6c0,0-3.7-9.7-4.7-14.6c-1.1-4.8-2.4-9.4-4.1-13.8
		c-4.4,0-9.2-0.1-14.6-0.5c-5.3-0.3-10.4-0.5-15.3-0.5c-2.1,4.4-3.5,9-4.2,13.9c-0.7,4.9-1.5,9.8-2.4,14.6c-3.9,0-8,0.2-12.2,0.6
		c-4.2,0.4-8.7,0.2-13.6-0.6l5.6-38.9c0.8,0.8,1.8,0.8,3.2,0c-0.8-0.5-1.4-0.6-1.8-0.5c-0.5,0.2-0.9,0-1.4-0.5
		c1.7-9.6,3.1-19.5,4.2-29.6c1.1-10.1,2.4-20.3,4-30.7l2.5-17.9c0.3-1.7,0.9-3,1.8-4c0.9-1,1.4-2.3,1.4-4c0.8-2.6,1.3-5.2,1.6-7.8
		c0.3-2.6,0.8-5.2,1.6-7.6c1.2-3.6,2.2-7.2,2.9-10.8c0.8-3.6,1.1-7.2,1.1-11.1h6.6c-0.5,0.6-0.8,0.7-0.9,0.5
		c-0.2-0.1-0.5-0.2-0.9-0.2c0,0.8,0.5,1,1.5,0.8c1-0.2,1.8-0.5,2.6-0.8c0.5,0,0.6,0.2,0.5,0.5c-0.2,0.3,0,0.7,0.5,1.1
		c0.3-0.5,0.6-0.8,0.9-0.9c0.3-0.1,0.2-0.4-0.2-1h16.3c2.9-0.2,5-0.5,6.6-0.6c1.5-0.1,2.6,1.2,3.2,4.1l2.3,12
		c0.8,1.7,1.4,3.4,1.9,5.3c0.5,1.9,1,3.7,1.5,5.3c0,0.3-0.2,0.4-0.5,0.3c-0.3-0.1-0.5,0,0.1,0.3v0.9c-0.6-0.6-0.9-0.9-1.5-0.9
		c-0.5,0-0.5,0.5-0.5,0.5v0.5l-1-0.9v0.9c0,0-0.7,0.1-1.1,0.2c-0.4,0.2-0.6,0.6-0.9,1.4v0.8h1.2h0.7l-0.7,0.8l0.8-0.7v0.7
		c-0.5,0.8-1,1.6-1,1.6v0.9l2-0.9v0.5c0,0,0,0.5,0.5,0.5c0.9,0,1.4-0.3,1.6-0.9c0.1-0.6,0.2-1.1-0.1-1.6V226H508h0.7
		c0.5-0.3,0.9-0.6,1.2-0.8c0.4-0.1,0.6-0.4,0.6-0.7l1.6,5.4c2.7,9.5,4.9,19.2,6.4,29.2c1.6,9.9,3.4,19.9,5.5,29.8
		c0,1.1-0.2,1.6-0.7,1.6c0.8,1.2,1.4,2.7,1.8,4.5c0.5,1.8,0.9,3.5,1.4,5.2c0.5,3.6,1,7.3,1.6,11.1c0.6,3.8,0.9,7.3,0.9,10.6
		C529.8,322.9,529.1,325,529.1,325z M475.7,202.6L475,204h1.6h2.6v-1.4l1,0.9V202h-1v-1l-1,1h-0.9h-0.5c-0.2-0.1-0.3,0-0.5,0.2
		C476.3,202.3,476,202.5,475.7,202.6z M480.7,300.3c2,0.3,4.8,0.4,8.5,0.2c3.7-0.1,6.7-0.2,9.2-0.2c-1.2-7.2-2.5-14.4-3.7-21.5
		c-1.3-7.1-3-13.6-5.1-19.7c-1.7,6.5-3.4,13.1-5.1,20C482.7,286,481.5,293,480.7,300.3z M512.8,345h1.8h0.7l2.5,1.1l-0.9-2.5
		c-0.5-0.5-1.2-0.7-2.3-0.6h-0.9h-0.9l-1.6-0.9v0.9c0.4,0.8,0.7,1.2,0.9,1.4C512.3,344.5,512.5,344.6,512.8,345z"/>
	<path class="st0" d="M701.2,323.5c1.2-1.2,3-1.5,5.4-1c2.4,0.5,4.6,0.6,6.6,0.3v31.4c-5.4,0.2-11.5,0.2-18.1,0
		c-6.6-0.1-13.4-0.3-20.2-0.3c-6.9-0.1-13.7-0.1-20.5,0c-6.8,0.1-13,0.4-18.5,1c-1.4-1.4-2.6-2.9-3.7-4.5c-1.1-1.7-2.2-3.3-3.3-5
		c-1.1-1.7-2.2-3.2-3.4-4.7c-1.2-1.5-2.6-2.9-4.3-4.3c0-0.3,0.3-0.5,1-0.7c0.7-0.1,1.2-0.5,1.5-0.9c-0.3-0.3-0.7-0.3-1.1,0.1
		c-0.5,0.4-0.9,0.3-1.4-0.1c0.9-13.7,1.1-27.6,0.7-41.6s-0.7-29.2-0.7-45.4c0-5.7-0.1-11.4-0.2-17c-0.2-5.6-0.1-11.2,0.2-16.9
		c0.5-2.9,0.7-5.8,0.7-8.7s0.6-5.7,1.8-8.2l33.2-1.6c0.8,0,0.9,0.2,0.6,0.7c-0.4,0.5-0.6,1.1-0.6,1.8c-0.5,2.4-0.6,5-0.3,7.8
		c0.2,2.8,0.5,5.5,0.7,8.1c0.2,2.6,0.2,5.1,0,7.5c-0.2,2.3-0.9,4.2-2.1,5.5c0.5,4.4,1,9.5,1.6,15.3c0.6,5.8,0.9,11.7,0.9,17.7
		c-0.2,1.8-0.5,3.7-0.9,5.8c-0.5,2-0.8,4-1.1,5.9c-0.3,1.9-0.4,3.7-0.3,5.5c0.1,1.8,0.6,3.4,1.7,4.7c-1.7,6.8-2.6,13.8-2.8,21.1
		c-0.2,7.3-0.9,14.2-2.1,20.7c7.5,1.5,15.2,2,23.1,1.6C682.9,324.7,691.6,324.1,701.2,323.5z M632.1,202.6c0-0.3,0-0.6-0.1-0.9
		c-0.1-0.3-0.3-0.2-0.8,0.2c-0.3,0-0.3,0.1-0.1,0.3C631.3,202.5,631.7,202.6,632.1,202.6z M642.8,278h-1.6v1.6
		C642.3,279.6,642.8,279.1,642.8,278z M642.5,247.8c0.5,0.8,0.5,1.2,0,1.2c-0.5,0.1-0.7,0.5-0.7,1.2c1.1-0.5,1.7-0.3,1.9,0.5
		c0.2,0.8,0.9,1.1,2.1,1.1c0.3-0.5,0.5-1,0.6-1.7c0.1-0.7,0.1-1.2,0.1-1.5c-0.8-0.5-1.4-0.6-2-0.5
		C643.9,248.4,643.3,248.3,642.5,247.8z M649.1,265.4c0.8-2,0.6-3.3-0.5-4.1c-1.1-0.8-2-1.5-2.7-2.3h-0.5c-0.3,0-0.5,0.2-0.5,0.7
		l2.5,2.5c-0.8,0.8-1.6,1.2-2.5,1.2c-0.9,0.1-1.7,0.7-2.5,1.9c1.7,0,3-0.3,4-0.9C647.4,263.8,648.3,264.1,649.1,265.4z M647.5,232.5
		c-0.8,0-1.3,0.3-1.6,0.9c-0.3,0.6-0.9,1.1-1.8,1.6c0.9,0.3,1.7,0.3,2.4-0.1C647.1,234.5,647.5,233.7,647.5,232.5z M645,283.3
		c1.1,0,1.6-0.3,1.6-0.9C645.5,282.4,645,282.7,645,283.3z M649.1,259.1c0.8-0.5,0.9-0.8,0.5-1.1c-0.5-0.3-0.9-0.5-1.4-0.5
		c0.3,0.3,0.5,0.5,0.5,0.7c0,0.2,0.1,0.3,0.2,0.5C648.8,258.8,648.9,259,649.1,259.1z M649.1,255.1c0.8,0,1.3,0.1,1.7,0.2
		c0.4,0.2,0.3,0.6-0.1,1.4c0.8,0,1.2-0.1,1.5-0.5c0.2-0.3,0.6-0.7,1-1.1c-0.8-0.5-1.5-0.9-2.4-1.2
		C649.9,253.4,649.4,253.9,649.1,255.1z M652.2,294.6c-0.3-0.5-0.4-1-0.3-1.6c0.1-0.6,0-0.9-0.3-0.9c-0.5,0.5-0.6,1-0.6,1.6
		C651.1,294.3,651.5,294.6,652.2,294.6z"/>
	<path class="st0" d="M812.9,325h0.3c0.3,0,0.4,0.2,0.4,0.7l5.6,34.3h-22.6c0,0-3.7-9.7-4.7-14.6c-1.1-4.8-2.4-9.4-4.1-13.8
		c-4.4,0-9.2-0.1-14.6-0.5c-5.3-0.3-10.4-0.5-15.3-0.5c-2.1,4.4-3.5,9-4.2,13.9c-0.7,4.9-1.5,9.8-2.4,14.6c-3.9,0-8,0.2-12.2,0.6
		c-4.2,0.4-8.7,0.2-13.6-0.6l5.7-38.9c0.8,0.8,1.8,0.8,3.2,0c-0.8-0.5-1.4-0.6-1.8-0.5c-0.5,0.2-0.9,0-1.4-0.5
		c1.7-9.6,3.1-19.5,4.2-29.6c1.1-10.1,2.4-20.3,4-30.7l2.5-17.9c0.3-1.7,0.9-3,1.8-4c0.9-1,1.4-2.3,1.4-4c0.8-2.6,1.3-5.2,1.6-7.8
		c0.3-2.6,0.8-5.2,1.6-7.6c1.2-3.6,2.2-7.2,2.9-10.8c0.8-3.6,1.1-7.2,1.1-11.1h6.6c-0.5,0.6-0.8,0.7-0.9,0.5
		c-0.2-0.1-0.5-0.2-0.9-0.2c0,0.8,0.5,1,1.5,0.8c1-0.2,1.8-0.5,2.6-0.8c0.5,0,0.6,0.2,0.5,0.5c-0.2,0.3,0,0.7,0.5,1.1
		c0.3-0.5,0.6-0.8,0.9-0.9c0.3-0.1,0.2-0.4-0.2-1H779c2.9-0.2,5-0.5,6.6-0.6c1.5-0.1,2.6,1.2,3.2,4.1l2.3,12
		c0.8,1.7,1.4,3.4,1.9,5.3c0.5,1.9,1,3.7,1.5,5.3c0,0.3-0.2,0.4-0.5,0.3c-0.3-0.1-0.5,0-0.7,0.3v0.9c0.2-0.6-0.1-0.9-0.7-0.9
		c-0.5,0-1.3,0.5-1.3,0.5v0.5v-0.9v0.9c0,0-0.9,0.1-1.3,0.2c-0.4,0.2-0.6,0.6-0.7,1.4v0.8h1.1h0.7l-0.7,0.8l0.9-0.7v0.7
		c-0.7,0.8-1,1.6-1,1.6v0.9l2-0.9v0.5c0,0-0.1,0.5,0.3,0.5c0.9,0,1.4-0.3,1.6-0.9c0.1-0.6,0.2-1.1,0.1-1.6V226h-2.3h0.7
		c0.5-0.3,0.9-0.6,1.2-0.8c0.4-0.1,0.6-0.4,0.6-0.7l1.6,5.4c2.7,9.5,4.9,19.2,6.4,29.2c1.6,9.9,3.4,19.9,5.5,29.8
		c0,1.1-0.2,1.6-0.7,1.6c0.8,1.2,1.4,2.7,1.8,4.5c0.5,1.8,0.9,3.5,1.4,5.2c0.5,3.6,1,7.3,1.6,11.1c0.6,3.8,0.9,7.3,0.9,10.6
		C813.7,322.9,812.9,325,812.9,325z M759.6,202.6l-0.7,1.4h1.6h1.7v-1.4l1,0.9V202h-1v-1l-0.2,1h-0.9h-0.5c-0.2-0.1-0.3,0-0.5,0.2
		C760.1,202.3,759.9,202.5,759.6,202.6z M764.5,300.3c2,0.3,4.8,0.4,8.5,0.2c3.7-0.1,6.7-0.2,9.2-0.2c-1.2-7.2-2.5-14.4-3.7-21.5
		c-1.3-7.1-3-13.6-5.1-19.7c-1.7,6.5-3.4,13.1-5.1,20C766.5,286,765.3,293,764.5,300.3z M796.6,345h1.8h0.7l2.5,1.1l-0.9-2.5
		c-0.5-0.5-1.2-0.7-2.3-0.6h-0.9h-0.9l-1.4-0.9v0.9c0.3,0.8,0.6,1.2,0.7,1.4C796.1,344.5,796.3,344.6,796.6,345z"/>
	<path class="st0" d="M1003.3,201h0.9v1.1c0,0.8-0.2,2.6-0.6,5.6c-0.4,2.9-0.8,6.1-1.4,9.4c-0.5,3.3-1,6.4-1.5,9.3
		c-0.5,2.9-0.8,4.6-0.9,5.2c-2.1,11.2-4,21.2-5.5,30c-1.6,8.8-3,17.2-4.2,25.1c-1.2,7.9-2.4,15.5-3.5,23c-1.1,7.5-2.4,15.4-3.7,23.7
		c-0.2,0.6-0.3,1.2-0.5,1.7c-0.2,0.5-0.4,1.2-0.7,1.9c-0.8,1.7-2,3.1-3.8,4.4c-1.8,1.3-4.1,3.3-6.8,6c-0.8,0.8-1.5,1.8-2.4,3.1
		c-0.8,1.3-1.7,2.5-2.7,3.7c-1,1.2-2,2.3-3,3.2c-1.1,0.9-2.3,1.4-3.6,1.4c-0.2,0-0.6-0.1-1.5-0.2c-0.8-0.1-1.8-0.3-2.9-0.6
		c-1.1-0.2-2.3-0.5-3.4-0.8c-1.1-0.3-2.1-0.5-3-0.7c-0.5,0-0.8-0.4-1.1-1.1c-0.9-1.4-1.6-2.1-2-2.3c-0.5-0.1-1.1-0.5-1.8-1.1h-0.5
		c-0.2,0.2-0.2,0.4-0.2,0.7c0,0.3,0.1,0.8,0.3,1.5c0.2,0.7,0.5,1,0.8,1c-0.2,0.6,0.1,1,0.8,1.2c0.7,0.2,1.2,0.3,1.7,0.3
		c-0.5,0.6-1.1,0.9-2,0.9c-0.5,0-1.1-0.4-2-1.2c-0.9-0.8-1.8-1.8-2.7-2.8c-0.9-1.1-1.8-2.2-2.7-3.3c-0.9-1.1-1.7-2-2.3-2.6
		c-1.5-1.7-2.8-3-3.8-4c-1.1-1-2-1.8-2.7-2.6c-0.8-0.8-1.4-1.4-1.9-2c-0.5-0.6-1-1.4-1.5-2.3c-1.1-2-1.5-3.2-1.5-3.6
		c0.1-0.5,0-1.4-0.1-2.9c-0.5-4.7-1.1-9.1-1.8-13.4c-0.8-4.2-1.6-8.4-2.5-12.6c-0.9-4.2-1.8-8.4-2.8-12.7c-1-4.3-1.9-8.9-2.8-13.7
		c-0.5-2.7-1.1-6.4-1.9-11c-0.8-4.6-1.7-9.6-2.6-15.1c-0.9-5.4-1.8-11-2.7-16.7c-0.9-5.7-1.7-10.8-2.5-15.5
		c-0.8-4.7-1.4-8.6-1.8-11.7c-0.5-3.1-0.7-4.9-0.7-5.3v-0.9c5.1,0.5,10.4,0.9,15.8,1.2c5.4,0.4,11.5,0.8,18.3,1.2
		c1.4,6.2,2.3,11.8,2.8,16.7c0.5,4.9,1,9.6,1.5,14.2c0.5,4.5,1.1,9.2,1.8,14.1c0.8,4.8,2,10.4,3.8,16.6c0.1,0.3,0.6,1.2,1.2,2.8
		c0.7,1.6,1.2,2.7,1.5,3.3c0.3,0.6,0.4,1.5,0.3,2.6c-0.1,1.1-0.1,2.1-0.1,2.8c0,1.4,0.1,3,0.3,5c0.2,2,0.5,3.9,0.9,5.8
		c0.4,1.9,0.7,3.5,0.9,4.9c0.2,1.4,0.3,2.1,0.3,2.3c0,0.3,0.1,1.2,0.2,2.6c0.1,1.4,0.3,2.6,0.5,3.5c0.3,4.4,0.5,7.8,0.6,10.3
		c0.1,2.5,0.1,4.6,0.2,6.5c0.1,1.8,0.1,3.6,0.2,5.2c0.1,1.7,0.3,3.9,0.6,6.6c2-20.7,4.4-41.6,7.5-62.8c3-21.2,6.7-42.1,11.1-62.8
		c2-0.5,4.7-0.9,8.2-1.2c3.5-0.4,7-0.7,10.4-1c3.4-0.3,6.4-0.5,8.9-0.7C1001.6,201.1,1003,201,1003.3,201z M920.7,288.5
		c-0.3-0.5-0.8-0.7-1.4-0.7c0.5,0.3,0.6,0.7,0.5,1.1c-0.2,0.5-0.2,0.8,0,1.1c0.1-0.3,0.2-0.6,0.1-1
		C919.8,288.7,920.1,288.5,920.7,288.5z M920.2,285.8v-0.2c-0.3,0.3-0.4,0.6-0.3,0.8c0.1,0.2,0.1,0.4,0.1,0.6l0.5-0.2
		C920.3,286.6,920.2,286.3,920.2,285.8z M924.3,308.6c0-1.1-0.4-1.6-1.1-1.6c0,0.2,0,0.3-0.1,0.3c-0.1,0.1-0.1,0.2-0.1,0.3
		c0.3,0.2,0.5,0.3,0.7,0.5C923.8,308.3,924,308.5,924.3,308.6z M929,320.2l0.2-0.2v-0.2c0,0.2-0.4,0.4-1.1,0.7l0.2,0.2
		C928.5,320.6,928.7,320.5,929,320.2z M928.2,320.2v-0.5v0.2V320.2z M928.8,319.5l0.5-0.5h-0.2C928.9,319,928.8,319.2,928.8,319.5z
		 M937.5,307.5l-0.2-0.2l0.2-0.2h-0.2v-0.2c-0.6,0.3-1.2,0.6-1.8,0.8c-0.6,0.2-1.2,0.5-1.8,0.8c-0.9,0.9-1.4,1.5-1.4,1.6h0.9
		c0.3,0,0.7-0.2,1.2-0.6c0.5-0.4,1-0.7,1.6-1c0.3-0.3,0.6-0.5,0.9-0.6C937.1,307.8,937.3,307.6,937.5,307.5z M937.2,307.1v0.2
		l-1.4,1.1c-0.6,0.3-1.2,0.6-1.7,1c-0.5,0.4-0.9,0.6-1,0.6h-0.9l1.4-1.6C934.8,307.7,936,307.2,937.2,307.1z M935.5,270
		c-0.2,0-0.2-0.1-0.2-0.5v-0.2l-1.1,0.5c0,0.3,0.2,0.5,0.7,0.5C935.1,270.2,935.3,270.1,935.5,270z M943.5,302c-0.8,0-1.2,0-1.4,0
		c-0.2,0-0.3-0.1-0.5-0.3c-0.2-0.2-0.3-0.5-0.6-0.9c-0.2-0.4-0.9-0.9-1.9-1.7c0,0.9,0.1,1.5,0.2,1.8c0.1,0.3,0.3,0.6,0.6,0.8
		c0.2,0.2,0.5,0.5,0.9,0.7c0.4,0.2,0.8,0.7,1.2,1.5C942.8,303.4,943.2,302.8,943.5,302z M971.6,239.5c0.3,0,0.5,0,0.6-0.1
		c0.1-0.1,0.2-0.1,0.3-0.1c0.1,0,0.3-0.1,0.5-0.2h0.7l-0.2-0.2c-0.5,0-0.8,0.1-1,0.2C972.1,239.2,971.9,239.3,971.6,239.5z
		 M977.9,232h-1.1c-0.5,0.9-0.8,0.8-0.9,1h-0.5c0.1-0.2,0.5-0.1,0.9-0.1c0.1,0,0.3,0.1,0.5,0.2c0.1,0,0.3,0,0.5-0.1
		C977.4,233,977.6,232.9,977.9,232z M977,232.2c0.5-0.5,1.1-0.8,2-1.1C978.4,231.1,977.7,231.5,977,232.2z"/>
	<path class="st0" d="M1074.4,334.2l1.8,24.9c-11.3-0.9-22.1-1.1-32.4-0.5c-10.3,0.6-20.5,0.8-30.6,0.5c0-5.3,0.1-10.6,0.2-15.9
		c0.1-5.3,0.6-10.2,1.4-14.6c1.7-0.5,3.4-0.5,5.3-0.1c1.9,0.4,3.7,0.4,5.3,0.1c0.3-5.3,0.6-10.1,1-14.6c0.4-4.4,0.6-9.3,0.6-14.6
		c0.3-0.8,0.8-0.8,1.5-0.2c0.7,0.6,1.2,0.7,1.7,0.2c0-0.6-0.2-1-0.5-1.1c-0.3-0.1-0.7-0.3-1.1-0.3c-0.5-0.1-0.8-0.1-1.1-0.2
		c-0.3-0.1-0.5-0.3-0.5-0.8c0.3-6.8,0.5-13.8,0.6-21c0.1-7.2,0.1-14.7,0.1-22.4c0-0.6,0.5-0.9,1.6-0.9c0-0.8-0.3-1.1-0.8-1
		c-0.5,0.1-0.8-0.1-0.8-0.6c0-1.2,0-2.3,0.1-3.4c0.1-1.1,0.3-1.8,0.8-2.3c-0.8-2.1-0.9-4.5-0.6-7.2c0.4-2.7,0.6-5.7,0.6-8.8
		c-1.7-0.3-4-0.3-7,0c-3,0.3-5.5,0.3-7.5,0l1.6-29.8c6.5-0.5,13.8-0.5,21.9-0.1c8.1,0.4,15.9,0.1,23.3-0.8c2.9-0.3,5.5-0.6,7.8-1
		c2.3-0.4,7.6-0.6,7.6-0.6v32h-18.8c-0.3,15.8-0.6,31.7-1,48.1c-0.4,16.3-0.6,33.2-0.6,50.5c3.3,0.5,6.5,0.6,9.6,0.3
		c3.1-0.2,8.8-0.3,8.8-0.3v5.4h-1.4h-0.6v0.2c-0.1,0.8,0,1.2,0.2,1.5c0.2,0.2,0.3,1.3,0.3,1.3h0.4v-1h0.7
		C1074.2,334.8,1074.4,334.6,1074.4,334.2z M1034.2,218.9c0.3,0.3,0.6,0.4,1,0.3c0.4-0.1,0.6-0.5,0.6-1.2c0,0.5-0.3,0.6-0.8,0.5
		C1034.4,218.3,1034.2,218.5,1034.2,218.9z M1043,206h-1.6c0,0.9,0.4,1.4,1.1,1.4C1043.3,207.4,1043.4,206.9,1043,206z
		 M1043.9,237.4l-2.5-1.8c0,1.7,0.3,2.7,0.9,3.2c0.6,0.5,1.1,1.1,1.6,1.8c0.3,0,0.5-0.2,0.7-0.6c0.1-0.4,0.5-0.7,0.9-1
		c-0.8,0-1.2-0.2-1.4-0.6C1044,238.1,1043.9,237.7,1043.9,237.4z M1043.9,283.3c0.8,0.3,1.2,0.2,1.4-0.3c0.1-0.5,0.2-0.9,0.2-1.2
		c-0.8,0-1.2,0.2-1.4,0.5C1044,282.5,1043.9,282.9,1043.9,283.3z M1049.5,243.1c0.3,0.3,0.6,0.3,1,0.1c0.4-0.2,0.6-0.6,0.6-1
		c-0.8-0.5-1.2-0.5-1.4-0.2C1049.6,242.3,1049.5,242.6,1049.5,243.1z M1051.2,246.2v-1.6c-0.5,0-0.8,0.1-0.9,0.3
		c-0.2,0.2-0.4,0.3-0.7,0.3C1049.6,245.9,1050.2,246.2,1051.2,246.2z M1051.8,221.2c0.5,0.5,1,0.6,1.6,0.6c0.6-0.1,0.9-0.5,0.9-1.2
		c-0.3-0.5-0.8-0.5-1.5-0.2C1052.1,220.6,1051.8,220.9,1051.8,221.2z M1055.2,347c1.1,0,1.6-0.3,1.6-0.9l-0.9-0.9
		c0,0.5-0.1,0.8-0.3,0.9C1055.3,346.3,1055.2,346.6,1055.2,347z M1061.8,208h-1.6v0.9c0-0.5,0.3-0.6,0.8-0.5
		C1061.5,208.6,1061.8,208.5,1061.8,208z M1062.4,349.3c0.3-0.3,0.6-0.6,1-0.8c0.4-0.2,0.6-0.7,0.6-1.5c-0.8,0-1.3,0.3-1.7,0.9
		C1061.9,348.6,1062,349,1062.4,349.3z"/>
	<path class="st0" d="M1191,196.8c0.5,1.8,0.7,4.1,0.8,6.9c0.1,2.8,0.1,5.6,0,8.6c-0.1,2.9-0.2,5.8-0.2,8.7c-0.1,2.9,0,5.3,0.1,7.2
		c-5.7-0.3-11.5-0.6-17.3-0.8c-5.8-0.2-11.6,0-17.3,0.8c-0.5,4.5-0.8,9.5-0.9,14.9c-0.2,5.4-0.3,11-0.3,16.6
		c-0.1,5.7-0.1,11.2-0.1,16.6s-0.1,10.3-0.2,14.7c-0.3,11.3-0.8,22.4-1.5,33.3c-0.7,10.9-1,22.5-1,34.7c-2.4-0.1-5-0.2-7.8-0.2
		c-2.8,0-5.5,0-8.2,0.1c-2.7,0.1-5.4,0.1-8,0.2c-2.6,0.1-5.1,0-7.3-0.1c-0.5-9.5-0.7-19.3-0.7-29.5s-0.4-21.7-1.1-34.5
		c-0.2-1.2-0.3-2.5-0.5-4c-0.2-1.4-0.2-2.7-0.2-4c0-1.2,0.3-2.3,0.8-3.2c0.5-0.9,0.8-1.7,0.8-2.5c0.5-2.1,0.4-4.3-0.2-6.6
		c-0.6-2.3-1.1-4.7-1.4-7.2c-0.8-5.7-0.7-11.9,0.2-18.5c0.9-6.6,1.4-13.6,1.4-21c-3.5-0.1-6.6-0.2-9.4-0.2c-2.8,0-5.5,0-8.1,0
		c-2.6,0-5.3,0-7.9,0.1c-2.6,0.1-5.5,0.1-8.5,0.1c0.5-5.7,0.7-11,0.8-15.9c0.1-4.9,0.1-9.8,0.1-14.6c14.2,0,27.3,0.1,39.3,0.2
		c12.1,0.2,24,0.1,35.7-0.2c4.8-0.1,9.6-0.3,14.4-0.6C1181.8,196.9,1186.5,196.8,1191,196.8z M1123.2,341.4l2.3-1.8
		C1124,339.6,1123.2,340.2,1123.2,341.4z M1124.8,320.4c0.3,0.3,0.8,0.4,1.5,0.3c0.7-0.1,1-0.5,1-1.2
		C1125.6,319.5,1124.8,319.8,1124.8,320.4z M1132.9,221h-1.8c0,1.1,0.3,1.6,0.9,1.6C1132.6,222.2,1132.9,221.6,1132.9,221z
		 M1133.2,263.9v-0.7c-1.1,0-1.6,0.5-1.6,1.6c0.5,0,0.8-0.1,0.9-0.5C1132.7,264,1132.9,263.9,1133.2,263.9z M1136.1,205.8
		c0,0.5,0.3,0.7,0.8,0.7c0.5,0,0.8-0.2,0.8-0.7c-0.5,0-0.8-0.1-1.1-0.2C1136.2,205.4,1136.1,205.5,1136.1,205.8z M1140.8,275.2
		c1.1,0,1.6-0.2,1.6-0.7c-0.3-0.5-0.6-0.6-1-0.6C1141,274,1140.8,274.4,1140.8,275.2z M1146.2,284v-1.6c-0.3,0-0.7-0.2-1.1-0.7
		s-0.8-0.5-1.1,0c0.3,0.8,0.6,1.3,0.8,1.7C1145,283.8,1145.5,284,1146.2,284z"/>
	<path class="st0" d="M1276.9,325h0.3c0.3,0,0.4,0.2,0.4,0.7l5.6,34.3h-22.6c0,0-3.7-9.7-4.7-14.6c-1.1-4.8-2.4-9.4-4.1-13.8
		c-4.4,0-9.2-0.1-14.6-0.5c-5.3-0.3-10.4-0.5-15.3-0.5c-2.1,4.4-3.5,9-4.2,13.9c-0.7,4.9-1.5,9.8-2.4,14.6c-3.9,0-8,0.2-12.2,0.6
		c-4.2,0.4-8.7,0.2-13.6-0.6l5.7-38.9c0.8,0.8,1.8,0.8,3.2,0c-0.8-0.5-1.4-0.6-1.8-0.5c-0.5,0.2-0.9,0-1.4-0.5
		c1.7-9.6,3.1-19.5,4.2-29.6c1.1-10.1,2.4-20.3,4-30.7l2.5-17.9c0.3-1.7,0.9-3,1.8-4c0.9-1,1.4-2.3,1.4-4c0.8-2.6,1.3-5.2,1.6-7.8
		c0.3-2.6,0.8-5.2,1.6-7.6c1.2-3.6,2.2-7.2,2.9-10.8c0.8-3.6,1.1-7.2,1.1-11.1h6.6c-0.5,0.6-0.8,0.7-0.9,0.5
		c-0.2-0.1-0.5-0.2-0.9-0.2c0,0.8,0.5,1,1.5,0.8c1-0.2,1.8-0.5,2.6-0.8c0.5,0,0.6,0.2,0.5,0.5c-0.2,0.3,0,0.7,0.5,1.1
		c0.3-0.5,0.6-0.8,0.9-0.9c0.3-0.1,0.2-0.4-0.2-1h16.3c2.9-0.2,5-0.5,6.6-0.6c1.5-0.1,2.6,1.2,3.2,4.1l2.3,12
		c0.8,1.7,1.4,3.4,1.9,5.3c0.5,1.9,1,3.7,1.5,5.3c0,0.3-0.2,0.4-0.5,0.3c-0.3-0.1-0.5,0-0.7,0.3v0.9c0.2-0.6-0.1-0.9-0.7-0.9
		c-0.5,0-1.3,0.5-1.3,0.5v0.5v-0.9v0.9c0,0-0.9,0.1-1.3,0.2c-0.4,0.2-0.6,0.6-0.7,1.4v0.8h1.1h0.7l-0.7,0.8l0.9-0.7v0.7
		c-0.7,0.8-1,1.6-1,1.6v0.9l2-0.9v0.5c0,0-0.1,0.5,0.3,0.5c0.9,0,1.4-0.3,1.6-0.9c0.1-0.6,0.2-1.1,0.1-1.6V226h-2.4h0.7
		c0.5-0.3,0.9-0.6,1.2-0.8c0.4-0.1,0.6-0.4,0.6-0.7l1.6,5.4c2.7,9.5,4.9,19.2,6.4,29.2c1.6,9.9,3.4,19.9,5.5,29.8
		c0,1.1-0.2,1.6-0.7,1.6c0.8,1.2,1.4,2.7,1.8,4.5c0.5,1.8,0.9,3.5,1.4,5.2c0.5,3.6,1,7.3,1.6,11.1c0.6,3.8,0.9,7.3,0.9,10.6
		C1277.6,322.9,1276.9,325,1276.9,325z M1223.5,202.6l-0.7,1.4h1.6h1.8v-1.4l1,0.9V202h-1v-1l-0.2,1h-0.9h-0.5
		c-0.2-0.1-0.3,0-0.5,0.2C1224.1,202.3,1223.8,202.5,1223.5,202.6z M1228.5,300.3c2,0.3,4.8,0.4,8.5,0.2c3.7-0.1,6.7-0.2,9.2-0.2
		c-1.2-7.2-2.5-14.4-3.7-21.5c-1.3-7.1-3-13.6-5.1-19.7c-1.7,6.5-3.4,13.1-5.1,20C1230.5,286,1229.3,293,1228.5,300.3z M1260.6,345
		h1.8h0.7l2.5,1.1l-0.9-2.5c-0.5-0.5-1.2-0.7-2.3-0.6h-0.9h-0.9l-1.4-0.9v0.9c0.3,0.8,0.6,1.2,0.7,1.4
		C1260.1,344.5,1260.3,344.6,1260.6,345z"/>
</g>
</svg>
