<?xml version="1.0" encoding="utf-8"?>
<!-- Generator: Adobe Illustrator 21.0.2, SVG Export Plug-In . SVG Version: 6.00 Build 0)  -->
<svg version="1.1" id="Layer_1" xmlns="http://www.w3.org/2000/svg" xmlns:xlink="http://www.w3.org/1999/xlink" x="0px" y="0px"
	 viewBox="0 0 45.3 68" style="enable-background:new 0 0 45.3 68;" xml:space="preserve">
<style type="text/css">
	.st0{fill:#FFFFFF;}
</style>
<g>
	<polygon class="st0" points="45.3,0 0,0 0,68 45.3,68 	"/>
	<polyline points="44.7,0.7 44.7,67.3 0.7,67.3 0.7,0.7 44.7,0.7 	"/>
	<rect x="2.7" y="2.8" class="st0" width="39.9" height="18.7"/>
	<rect x="2.7" y="23.5" class="st0" width="39.9" height="34.2"/>
	<g>
		<polygon class="st0" points="2.7,65.2 2.7,59.7 10.7,59.7 10.7,61 5.9,61 5.9,61.8 10,61.8 10,63.1 5.9,63.1 5.9,63.9 10.9,63.9 
			10.9,65.2 		"/>
		<path class="st0" d="M17.7,61.3c-0.1-0.2-0.2-0.3-0.5-0.4c-0.2-0.1-0.5-0.1-0.8-0.1c-0.7,0-1,0.1-1,0.3c0,0.8,5.6,0.3,5.6,2.3
			c0,1.3-1.9,1.9-4.6,1.9c-2.6,0-4.3-0.8-4.3-1.8h3.1c0.1,0.2,0.3,0.3,0.5,0.4C16,64,16.3,64,16.6,64c0.8,0,1.3-0.1,1.3-0.4
			c0-0.8-5.6-0.3-5.6-2.4c0-1.2,1.8-1.7,4.3-1.7c2.7,0,4,0.8,4.2,1.7h-3.1V61.3z"/>
		<path class="st0" d="M25.9,62.1h1.3c1,0,1.5-0.1,1.5-0.5S28.2,61,27.4,61h-1.5V62.1z M25.9,63.3v1.9h-3.2v-5.5h4.6
			c3.3,0,4.3,0.5,4.3,1.6c0,0.6-0.5,1.2-1.6,1.3c1,0.2,1.7,0.3,1.7,1.4c0,0.7,0,1,0.3,1v0.2h-3.3c-0.1-0.1-0.2-0.5-0.2-1
			c0-0.7-0.2-1-1.7-1h-0.9V63.3z"/>
		<path class="st0" d="M36.8,61v0.9h1.3c0.6,0,1.1-0.2,1.1-0.5c0-0.4-0.6-0.4-1.3-0.4H36.8z M36.8,62.9v1h1.4c0.8,0,1.4-0.1,1.4-0.5
			c0-0.5-0.7-0.5-1.8-0.5H36.8z M33.6,65.2v-5.5h4.7c2.2,0,4,0.3,4,1.4c0,0.6-0.7,1-1.3,1.2c1.1,0.2,1.6,0.7,1.6,1.3
			c0,1.2-1.7,1.7-4.2,1.7h-4.8V65.2z"/>
	</g>
	<g>
		<path d="M3.8,11.1V4.9h1.6l0.7,4.2l0,0l0.8-4.2h1.5v6.2h-1V6.3l0,0l-0.9,4.8H5.6L4.7,6.3l0,0v4.8H3.8z"/>
		<path d="M9,11.1l1.3-6.2h1.3l1.3,6.2h-1l-0.3-1.4h-1.4l-0.3,1.4H9z M10.9,6L10.9,6l-0.5,2.7h0.9L10.9,6z"/>
		<path d="M15.8,4.9v1h-1.1v5.2h-1V5.9h-1.1v-1H15.8z"/>
		<path d="M19.5,4.9v4.4c0,0.2,0,0.5-0.1,0.7s-0.1,0.4-0.3,0.6c-0.1,0.2-0.3,0.3-0.5,0.4s-0.5,0.2-0.8,0.2c-0.5,0-1-0.2-1.2-0.5
			c-0.3-0.3-0.4-0.8-0.4-1.4V4.9h1v4.3c0,0.4,0.1,0.7,0.2,0.8c0.1,0.2,0.3,0.2,0.4,0.2c0.2,0,0.4-0.1,0.5-0.3
			c0.1-0.2,0.2-0.4,0.2-0.8V4.9H19.5z"/>
		<path d="M21.2,11.1h-1V4.9H22c0.3,0,0.6,0.1,0.8,0.4C23,5.6,23.1,6,23.1,6.5c0,0.4-0.1,0.7-0.2,1S22.5,7.9,22.2,8l0,0
			c0.1,0,0.1,0,0.2,0.1c0.1,0,0.2,0.1,0.3,0.2c0.1,0.1,0.2,0.2,0.2,0.4C23,8.9,23,9.1,23,9.4c0,0.1,0,0.2,0,0.4c0,0.2,0,0.4,0,0.6
			s0,0.4,0,0.5c0,0.2,0,0.3,0.1,0.3h-1C22,11,22,10.8,22,10.6s0-0.4,0-0.6s0-0.4,0-0.5c0-0.2,0-0.3-0.1-0.4c0-0.1-0.1-0.2-0.2-0.3
			c-0.1-0.1-0.2-0.1-0.4-0.1H21v2.4H21.2z M21.2,7.5h0.4c0.1,0,0.2,0,0.2-0.1c0.1-0.1,0.1-0.1,0.2-0.2c0-0.1,0.1-0.2,0.1-0.3
			c0-0.1,0-0.2,0-0.3c0-0.3,0-0.5-0.1-0.6s-0.2-0.2-0.4-0.2h-0.4L21.2,7.5L21.2,7.5z"/>
		<path d="M23.9,11.1V4.9h2.6v1h-1.6v1.5h1.5v1h-1.5v1.8h1.6v1h-2.6V11.1z"/>
		<path d="M28.6,6c0.2-0.1,0.3-0.3,0.5-0.4c0.2-0.2,0.3-0.3,0.4-0.5h0.9v6h-1V6.5c-0.1,0.1-0.2,0.3-0.4,0.4
			c-0.1,0.1-0.3,0.2-0.4,0.3V6z"/>
		<path d="M33.9,6.2l-1.1,4.9h-1L33.1,6h-1.7V5.1h2.5V6.2z"/>
		<path d="M35.4,6.1h0.7v1.7h1.1v1h-1.1v1.7h-0.7V8.8h-1.1v-1h1.1V6.1z"/>
	</g>
	<g>
		<polygon points="7.4,32.1 17.5,29.4 23.2,42.8 23.3,42.8 21.5,28.3 31.6,25.6 37.9,49.1 31.8,50.8 27.3,33.9 27.2,33.9 29.1,51.5 
			22.5,53.3 15.4,37.1 15.4,37.1 19.8,54 13.7,55.6 		"/>
	</g>
	<g>
		<path d="M3.8,19.4v-6.2h1.6l0.7,4.2l0,0l0.8-4.2h1.6v6.2h-1v-4.8l0,0l-0.9,4.8h-1l-0.9-4.8l0,0v4.8H3.8z"/>
		<path d="M9,19.4l1.3-6.2h1.3l1.3,6.2h-1.1L11.5,18h-1.4l-0.3,1.4H9z M10.9,14.3L10.9,14.3L10.4,17h1L10.9,14.3z"/>
		<path d="M13.4,13.2h1.7c0.3,0,0.6,0.1,0.8,0.2c0.2,0.1,0.4,0.3,0.5,0.6c0.1,0.3,0.2,0.6,0.2,1s0.1,0.8,0.1,1.3c0,0.2,0,0.3,0,0.6
			c0,0.2,0,0.4,0,0.7c0,0.2-0.1,0.5-0.1,0.7c-0.1,0.2-0.1,0.4-0.3,0.6c-0.1,0.2-0.3,0.3-0.5,0.4s-0.4,0.2-0.7,0.2h-1.7V13.2z
			 M14.4,18.4h0.5c0.2,0,0.3,0,0.4-0.1s0.2-0.2,0.2-0.4c0.1-0.2,0.1-0.4,0.1-0.7c0-0.3,0-0.6,0-1c0-0.3,0-0.6,0-0.8
			c0-0.3,0-0.5-0.1-0.7c0-0.2-0.1-0.4-0.2-0.5S15.1,14,14.9,14h-0.5V18.4z"/>
		<path d="M20.7,13.2v4.4c0,0.2,0,0.5-0.1,0.7s-0.1,0.4-0.3,0.6c-0.1,0.2-0.3,0.3-0.5,0.4s-0.5,0.2-0.8,0.2c-0.6,0-1-0.2-1.2-0.5
			c-0.3-0.3-0.4-0.8-0.4-1.4v-4.4h1v4.3c0,0.4,0.1,0.7,0.2,0.8c0.1,0.2,0.3,0.2,0.4,0.2c0.2,0,0.4-0.1,0.5-0.3
			c0.1-0.2,0.2-0.4,0.2-0.8v-4.3h1V13.2z"/>
		<path d="M22.4,19.4h-1v-6.2h1.8c0.3,0,0.6,0.1,0.8,0.4c0.2,0.3,0.3,0.7,0.3,1.2c0,0.4-0.1,0.7-0.2,1s-0.4,0.4-0.7,0.5l0,0
			c0.1,0,0.1,0,0.2,0.1c0.1,0,0.2,0.1,0.3,0.2c0.1,0.1,0.2,0.2,0.2,0.4c0.1,0.2,0.1,0.4,0.1,0.7c0,0.1,0,0.2,0,0.4
			c0,0.2,0,0.4,0,0.5c0,0.2,0,0.4,0,0.5c0,0.2,0,0.3,0.1,0.3h-1c-0.1-0.2-0.1-0.4-0.1-0.6s0-0.4,0-0.6s0-0.4,0-0.5
			c0-0.2,0-0.3-0.1-0.4c0-0.1-0.1-0.2-0.2-0.3c-0.1-0.1-0.2-0.1-0.4-0.1h-0.1V19.4z M22.4,15.8h0.4c0.1,0,0.2,0,0.2-0.1
			c0.1-0.1,0.1-0.1,0.2-0.2c0-0.1,0.1-0.2,0.1-0.3c0-0.1,0-0.2,0-0.3c0-0.3,0-0.5-0.1-0.6s-0.2-0.2-0.4-0.2h-0.4V15.8z"/>
		<path d="M26.7,19.5c-0.4,0-0.7-0.1-1-0.3c-0.2-0.2-0.4-0.4-0.5-0.7c-0.1-0.3-0.2-0.6-0.2-1s0-0.8,0-1.2c0-0.4,0-0.8,0-1.2
			c0-0.4,0.1-0.7,0.2-1s0.3-0.5,0.5-0.7s0.5-0.3,1-0.3c0.4,0,0.7,0.1,1,0.3c0.2,0.2,0.4,0.4,0.5,0.7c0.1,0.3,0.2,0.6,0.2,1
			s0,0.8,0,1.2c0,0.4,0,0.8,0,1.2c0,0.4-0.1,0.7-0.2,1s-0.3,0.5-0.5,0.7C27.5,19.4,27.1,19.5,26.7,19.5z M26.7,18.5
			c0.1,0,0.3,0,0.3-0.1c0.1-0.1,0.1-0.2,0.2-0.4c0-0.2,0.1-0.4,0.1-0.7c0-0.3,0-0.6,0-1s0-0.7,0-1s0-0.5-0.1-0.7
			c0-0.2-0.1-0.3-0.2-0.4s-0.2-0.1-0.3-0.1c-0.1,0-0.3,0-0.3,0.1c-0.1,0.1-0.1,0.2-0.2,0.4c0,0.2-0.1,0.4-0.1,0.7c0,0.3,0,0.6,0,1
			s0,0.7,0,1s0,0.5,0.1,0.7c0,0.2,0.1,0.3,0.2,0.4S26.6,18.5,26.7,18.5z"/>
		<path d="M31.5,14.4h0.7v1.7h1.1v1h-1.1v1.7h-0.7v-1.7h-1.1v-1h1.1V14.4z"/>
		<path d="M33.9,14.3c0.2-0.1,0.3-0.3,0.5-0.4s0.3-0.3,0.4-0.5h0.9v6h-1v-4.6c-0.1,0.1-0.2,0.3-0.4,0.4c-0.1,0.1-0.3,0.2-0.4,0.3
			V14.3z"/>
		<path d="M39.1,14.5L38,19.4h-1l1.3-5.1h-1.6v-0.9h2.5v1.1H39.1z"/>
	</g>
</g>
</svg>
