<?xml version="1.0" encoding="utf-8"?>
<!-- Generator: Adobe Illustrator 22.1.0, SVG Export Plug-In . SVG Version: 6.00 Build 0)  -->
<svg version="1.1" id="Layer_1" xmlns="http://www.w3.org/2000/svg" xmlns:xlink="http://www.w3.org/1999/xlink" x="0px" y="0px"
	 viewBox="0 0 106.554 56.392" style="enable-background:new 0 0 106.554 56.392;" xml:space="preserve">
<style type="text/css">
	.st0{fill:#FFFFFF;}
</style>
<g>
	<polygon class="st0" points="106.488,0 105.895,0 0.594,0 0.001,0 0.001,0.529 0.001,48.771 0.001,49.298 0.594,49.298 
		106.554,49.298 106.554,0 	"/>
	<g>
		<g>
			<path d="M105.895,0.529v48.243H0.594V0.529H105.895"/>
		</g>
		<rect x="2.069" y="2.243" class="st0" width="28.469" height="7.999"/>
		<rect x="2.056" y="11.987" class="st0" width="28.487" height="29.408"/>
		<g>
			<polygon class="st0" points="2.062,47.032 2.062,43.127 7.781,43.127 7.781,44.04 4.36,44.04 4.36,44.599 7.255,44.599 
				7.255,45.51 4.36,45.51 4.36,46.121 7.913,46.121 7.913,47.032 			"/>
			<path class="st0" d="M12.773,44.264c-0.036-0.132-0.164-0.218-0.331-0.264c-0.163-0.049-0.366-0.072-0.594-0.072
				c-0.505,0-0.73,0.082-0.73,0.227c0,0.577,4.031,0.215,4.031,1.636c0,0.904-1.355,1.346-3.283,1.346
				c-1.85,0-3.057-0.602-3.105-1.307h2.201c0.049,0.14,0.185,0.241,0.381,0.307c0.184,0.065,0.426,0.099,0.653,0.099
				c0.576,0,0.957-0.102,0.957-0.287c0-0.591-4.035-0.185-4.035-1.674c0-0.831,1.285-1.245,3.04-1.245c1.946,0,2.833,0.55,3,1.234
				H12.773z"/>
			<path class="st0" d="M18.59,44.821h0.903c0.711,0,1.093-0.104,1.093-0.373c0-0.275-0.389-0.408-0.926-0.408h-1.07V44.821z
				 M18.59,45.671v1.361h-2.298v-3.905h3.313c2.334,0,3.105,0.357,3.105,1.117c0,0.451-0.359,0.826-1.178,0.958
				c0.74,0.149,1.189,0.241,1.189,1.029c0,0.507-0.03,0.684,0.242,0.684v0.118h-2.329c-0.057-0.088-0.114-0.336-0.114-0.683
				c0-0.513-0.158-0.678-1.228-0.678H18.59z"/>
			<path class="st0" d="M26.417,44.04v0.654h0.958c0.457,0,0.79-0.118,0.79-0.342c0-0.306-0.453-0.312-0.936-0.312H26.417z
				 M26.417,45.401v0.72h1.003c0.569,0,0.996-0.067,0.996-0.357c0-0.341-0.533-0.362-1.267-0.362H26.417z M24.121,47.032v-3.905
				h3.352c1.577,0,2.834,0.213,2.834,0.985c0,0.404-0.469,0.696-0.915,0.848c0.758,0.109,1.165,0.476,1.165,0.894
				c0,0.87-1.195,1.178-3.02,1.178H24.121z"/>
		</g>
		<g>
			<rect x="32.287" y="2.232" class="st0" width="71.91" height="44.807"/>
		</g>
		<g>
			<polygon points="3.086,19.269 11.822,16.914 16.803,28.648 16.845,28.633 15.342,15.971 24.077,13.621 29.528,34.109 
				24.203,35.535 20.305,20.889 20.263,20.906 21.915,36.15 16.153,37.704 10.01,23.666 9.967,23.679 13.858,38.324 8.537,39.753 
							"/>
		</g>
		<g>
			<path d="M2.83,8.502V3.974h1.286l0.598,3.08h0.012l0.633-3.08h1.245v4.528H5.827V5.008H5.816L5.08,8.502H4.318l-0.7-3.494H3.608
				v3.494H2.83z"/>
			<path d="M6.965,8.502l1.058-4.528h1.055l1.036,4.528H9.272L9.06,7.499H7.97L7.754,8.502H6.965z M8.506,4.845H8.493L8.129,6.803
				H8.89L8.506,4.845z"/>
			<path d="M12.449,3.974v0.752h-0.89v3.777h-0.801V4.726H9.871V3.974H12.449z"/>
			<path d="M15.401,3.974v3.212c0,0.171-0.021,0.34-0.066,0.504c-0.044,0.165-0.115,0.313-0.217,0.445
				c-0.101,0.133-0.234,0.24-0.4,0.321c-0.164,0.082-0.37,0.123-0.615,0.123c-0.439,0-0.768-0.126-0.981-0.377
				c-0.214-0.25-0.32-0.589-0.32-1.016V3.974h0.801v3.148c0,0.28,0.045,0.481,0.133,0.599c0.091,0.12,0.21,0.18,0.357,0.18
				c0.177,0,0.306-0.066,0.387-0.201c0.082-0.133,0.122-0.326,0.122-0.577V3.974H15.401z"/>
			<path d="M16.837,8.502h-0.801V3.974h1.478c0.275,0,0.493,0.101,0.654,0.3C18.327,4.475,18.41,4.77,18.41,5.16
				c0,0.289-0.055,0.533-0.163,0.734C18.139,6.094,17.958,6.219,17.7,6.27v0.013c0.041,0.007,0.102,0.02,0.18,0.038
				c0.078,0.016,0.154,0.053,0.23,0.112c0.074,0.058,0.141,0.146,0.197,0.261c0.057,0.114,0.085,0.274,0.085,0.48
				c0,0.071,0.001,0.171,0.004,0.3c0.001,0.132,0.004,0.264,0.013,0.402c0.006,0.137,0.014,0.265,0.028,0.382
				c0.012,0.118,0.027,0.2,0.044,0.244H17.7c-0.054-0.136-0.082-0.281-0.082-0.432c-0.002-0.151-0.004-0.3-0.004-0.446
				c0-0.134,0-0.26-0.002-0.382c0-0.122-0.019-0.227-0.051-0.317c-0.034-0.09-0.091-0.161-0.17-0.216
				c-0.08-0.054-0.196-0.082-0.349-0.082h-0.205V8.502z M16.837,5.93h0.355c0.077,0,0.142-0.02,0.196-0.061
				c0.052-0.042,0.095-0.097,0.126-0.16c0.034-0.064,0.055-0.137,0.068-0.218c0.011-0.079,0.018-0.154,0.018-0.225
				c0-0.217-0.037-0.372-0.109-0.461c-0.072-0.09-0.171-0.135-0.298-0.135h-0.355V5.93z"/>
			<path d="M18.995,8.502V3.974h2.086V4.67h-1.286v1.118h1.185v0.695h-1.185v1.324h1.327v0.695H18.995z"/>
			<path d="M22.744,4.653c0.134-0.091,0.263-0.193,0.387-0.306c0.123-0.113,0.231-0.245,0.327-0.397h0.709v4.553h-0.799V5
				c-0.095,0.1-0.194,0.191-0.301,0.275c-0.106,0.082-0.213,0.16-0.323,0.235V4.653z"/>
			<path d="M26.984,4.817l-0.902,3.685h-0.83l1.012-3.849h-1.266V3.95h1.986V4.817z"/>
			<path d="M28.217,4.852h0.589V6.09h0.894v0.695h-0.894V8.02h-0.589V6.785h-0.9V6.09h0.9V4.852z"/>
		</g>
	</g>
</g>
<g>
	<path d="M34.715,9.688V4.631h1.877c0.806,0,1.471,0.231,1.471,1.31c0,0.582-0.287,1.001-0.862,1.114v0.014
		c0.75,0.105,0.946,0.588,0.946,1.282c0,1.282-1.114,1.338-1.562,1.338H34.715z M35.773,6.697h0.708
		c0.231,0,0.553-0.154,0.553-0.644c0-0.372-0.252-0.645-0.609-0.645h-0.651V6.697z M35.773,8.91h0.588
		c0.224,0,0.729-0.007,0.729-0.714c0-0.448-0.168-0.722-0.701-0.722h-0.616V8.91z"/>
	<path d="M40.001,4.631v5.057h-0.988V4.631H40.001z"/>
	<path d="M40.792,7.874c0-0.966,0.14-1.793,1.443-1.793s1.443,0.827,1.443,1.793c0,1.106-0.168,1.884-1.443,1.884
		S40.792,8.98,40.792,7.874z M42.69,7.818c0-0.735-0.035-1.106-0.455-1.106s-0.455,0.371-0.455,1.106c0,1.079,0.091,1.31,0.455,1.31
		S42.69,8.896,42.69,7.818z"/>
	<path d="M44.292,7.874c0-0.966,0.141-1.793,1.442-1.793c1.303,0,1.443,0.827,1.443,1.793c0,1.106-0.168,1.884-1.443,1.884
		C44.46,9.758,44.292,8.98,44.292,7.874z M46.19,7.818c0-0.735-0.035-1.106-0.456-1.106c-0.42,0-0.455,0.371-0.455,1.106
		c0,1.079,0.092,1.31,0.455,1.31C46.098,9.127,46.19,8.896,46.19,7.818z"/>
	<path d="M49.64,9.688V9.296h-0.014c-0.183,0.343-0.456,0.462-0.834,0.462c-1.022,0-0.987-1.134-0.987-1.863
		c0-0.714-0.028-1.814,0.967-1.814c0.356,0,0.602,0.105,0.805,0.406h0.015V4.631h0.987v5.057H49.64z M49.591,7.888
		c0-0.708,0.007-1.198-0.399-1.198c-0.428,0-0.42,0.49-0.42,1.198c0,0.889,0.063,1.261,0.42,1.261
		C49.528,9.149,49.591,8.777,49.591,7.888z"/>
	<path d="M55.611,9.029c0,0.217,0.028,0.441,0.05,0.658h-0.918l-0.042-0.469h-0.014c-0.21,0.364-0.497,0.539-0.925,0.539
		c-0.687,0-0.938-0.511-0.938-1.127c0-1.169,0.903-1.219,1.821-1.205V7.153c0-0.301-0.042-0.519-0.399-0.519
		c-0.343,0-0.371,0.259-0.371,0.54h-0.967c0-0.427,0.133-0.701,0.364-0.862c0.225-0.168,0.546-0.231,0.925-0.231
		c1.253,0,1.414,0.539,1.414,1.184V9.029z M53.791,8.588c0,0.252,0.042,0.561,0.364,0.561c0.581,0,0.49-0.785,0.49-1.17
		C54.155,8,53.791,7.958,53.791,8.588z"/>
	<path d="M57.417,6.508h0.014c0.099-0.161,0.218-0.266,0.351-0.329c0.14-0.07,0.301-0.098,0.483-0.098
		c0.469,0,0.882,0.28,0.882,0.771v2.836h-0.987V7.25c0-0.315-0.056-0.56-0.371-0.56s-0.371,0.245-0.371,0.56v2.438h-0.987V6.151
		h0.987V6.508z"/>
	<path d="M61.694,9.688V9.296H61.68c-0.183,0.343-0.456,0.462-0.834,0.462c-1.022,0-0.987-1.134-0.987-1.863
		c0-0.714-0.028-1.814,0.967-1.814c0.356,0,0.602,0.105,0.805,0.406h0.015V4.631h0.987v5.057H61.694z M61.645,7.888
		c0-0.708,0.007-1.198-0.399-1.198c-0.428,0-0.42,0.49-0.42,1.198c0,0.889,0.063,1.261,0.42,1.261
		C61.582,9.149,61.645,8.777,61.645,7.888z"/>
	<path d="M67.344,6.186c0.007-0.469-0.07-0.882-0.631-0.882c-0.658,0-0.658,0.889-0.658,1.87c0,1.583,0.154,1.863,0.756,1.863
		c0.176,0,0.364-0.042,0.525-0.098V7.818h-0.574V7.04h1.632v2.563c-0.287,0.056-1.008,0.168-1.429,0.168
		c-1.778,0-1.981-0.735-1.981-2.654c0-1.275,0.063-2.57,1.793-2.57c1.036,0,1.681,0.581,1.617,1.639H67.344z"/>
	<path d="M69.176,7.874c0-0.966,0.14-1.793,1.442-1.793s1.442,0.827,1.442,1.793c0,1.106-0.168,1.884-1.442,1.884
		S69.176,8.98,69.176,7.874z M71.074,7.818c0-0.735-0.035-1.106-0.455-1.106s-0.455,0.371-0.455,1.106
		c0,1.079,0.091,1.31,0.455,1.31S71.074,8.896,71.074,7.818z"/>
	<path d="M73.699,6.151v0.456h0.014c0.182-0.406,0.519-0.525,0.918-0.525v0.882c-0.869-0.056-0.883,0.448-0.883,0.798v1.926H72.76
		V6.151H73.699z"/>
	<path d="M76.002,8.077c0,0.42,0.014,1.05,0.448,1.05c0.351,0,0.42-0.336,0.42-0.63h1.002c-0.014,0.385-0.141,0.7-0.378,0.917
		c-0.231,0.217-0.582,0.343-1.044,0.343c-1.274,0-1.442-0.777-1.442-1.884c0-0.966,0.14-1.793,1.442-1.793
		c1.331,0,1.478,0.861,1.442,1.996H76.002z M76.905,7.524c0-0.343,0.014-0.833-0.455-0.833c-0.455,0-0.448,0.532-0.448,0.833H76.905
		z"/>
	<path d="M34.702,16.688v-5.057h1.058v5.057H34.702z"/>
	<path d="M37.586,13.508H37.6c0.098-0.161,0.217-0.266,0.351-0.329c0.14-0.07,0.301-0.098,0.483-0.098
		c0.469,0,0.883,0.28,0.883,0.771v2.836h-0.988V14.25c0-0.315-0.056-0.56-0.371-0.56c-0.315,0-0.371,0.245-0.371,0.56v2.437h-0.988
		v-3.537h0.988V13.508z"/>
	<path d="M39.699,13.151h0.399v-0.56l0.988-0.441v1.001h0.511v0.609h-0.511v1.891c0,0.266-0.007,0.441,0.315,0.441
		c0.063,0,0.126,0,0.175-0.014v0.609c-0.133,0.014-0.273,0.035-0.511,0.035c-0.854,0-0.967-0.567-0.967-0.785V13.76h-0.399V13.151z"
		/>
	<path d="M42.955,15.077c0,0.42,0.014,1.05,0.448,1.05c0.35,0,0.42-0.336,0.42-0.63h1.001c-0.014,0.385-0.14,0.7-0.378,0.917
		c-0.231,0.217-0.581,0.343-1.043,0.343c-1.275,0-1.443-0.777-1.443-1.884c0-0.966,0.14-1.793,1.443-1.793
		c1.331,0,1.478,0.861,1.443,1.996H42.955z M43.859,14.524c0-0.343,0.014-0.833-0.455-0.833c-0.455,0-0.448,0.532-0.448,0.833
		H43.859z"/>
	<path d="M46.532,13.508h0.014c0.099-0.161,0.218-0.266,0.351-0.329c0.14-0.07,0.301-0.098,0.483-0.098
		c0.469,0,0.882,0.28,0.882,0.771v2.836h-0.987V14.25c0-0.315-0.056-0.56-0.371-0.56s-0.371,0.245-0.371,0.56v2.437h-0.987v-3.537
		h0.987V13.508z"/>
	<path d="M49.822,15.553c-0.007,0.161,0,0.315,0.049,0.427c0.056,0.112,0.161,0.168,0.357,0.168c0.195,0,0.364-0.126,0.364-0.364
		c0-0.75-1.737-0.582-1.737-1.709c0-0.764,0.757-0.995,1.394-0.995c0.673,0,1.282,0.322,1.226,1.085h-0.966
		c0-0.245-0.028-0.392-0.099-0.455c-0.063-0.063-0.146-0.077-0.252-0.077c-0.217,0-0.336,0.14-0.336,0.378
		c0,0.56,1.736,0.532,1.736,1.667c0,0.617-0.504,1.079-1.323,1.079c-0.861,0-1.436-0.217-1.38-1.205H49.822z"/>
	<path d="M53.063,15.077c0,0.42,0.014,1.05,0.448,1.05c0.351,0,0.42-0.336,0.42-0.63h1.002c-0.014,0.385-0.141,0.7-0.378,0.917
		c-0.231,0.217-0.582,0.343-1.044,0.343c-1.274,0-1.442-0.777-1.442-1.884c0-0.966,0.14-1.793,1.442-1.793
		c1.331,0,1.478,0.861,1.442,1.996H53.063z M53.966,14.524c0-0.343,0.014-0.833-0.455-0.833c-0.455,0-0.448,0.532-0.448,0.833
		H53.966z"/>
	<path d="M56.849,11.631h1.1l0.784,3.677h0.014l0.883-3.677h1.044l-1.338,5.057h-1.24L56.849,11.631z"/>
	<path d="M62.17,11.631v0.777h-0.987v-0.777H62.17z M62.17,16.688h-0.987v-3.537h0.987V16.688z"/>
	<path d="M62.961,14.874c0-0.966,0.14-1.793,1.442-1.793c1.303,0,1.442,0.827,1.442,1.793c0,1.106-0.168,1.884-1.442,1.884
		C63.129,16.758,62.961,15.98,62.961,14.874z M64.858,14.818c0-0.735-0.035-1.106-0.455-1.106c-0.42,0-0.455,0.371-0.455,1.106
		c0,1.079,0.091,1.31,0.455,1.31S64.858,15.896,64.858,14.818z"/>
	<path d="M67.616,11.631v5.057h-0.987v-5.057H67.616z"/>
	<path d="M69.401,15.077c0,0.42,0.014,1.05,0.448,1.05c0.351,0,0.42-0.336,0.42-0.63h1.002c-0.014,0.385-0.141,0.7-0.378,0.917
		c-0.231,0.217-0.582,0.343-1.044,0.343c-1.274,0-1.442-0.777-1.442-1.884c0-0.966,0.14-1.793,1.442-1.793
		c1.331,0,1.478,0.861,1.442,1.996H69.401z M70.304,14.524c0-0.343,0.014-0.833-0.455-0.833c-0.455,0-0.448,0.532-0.448,0.833
		H70.304z"/>
	<path d="M72.978,13.508h0.014c0.099-0.161,0.218-0.266,0.351-0.329c0.14-0.07,0.301-0.098,0.483-0.098
		c0.469,0,0.882,0.28,0.882,0.771v2.836H73.72V14.25c0-0.315-0.056-0.56-0.371-0.56s-0.371,0.245-0.371,0.56v2.437h-0.987v-3.537
		h0.987V13.508z"/>
	<path d="M77.291,14.411c0-0.525-0.133-0.7-0.441-0.7c-0.42,0-0.455,0.371-0.455,1.106c0,1.079,0.091,1.31,0.455,1.31
		c0.309,0,0.455-0.28,0.455-0.742h0.987c0,0.959-0.518,1.373-1.442,1.373c-1.274,0-1.442-0.777-1.442-1.884
		c0-0.966,0.14-1.793,1.442-1.793c0.91,0,1.429,0.406,1.429,1.331H77.291z"/>
	<path d="M79.901,15.077c0,0.42,0.014,1.05,0.448,1.05c0.351,0,0.42-0.336,0.42-0.63h1.002c-0.014,0.385-0.141,0.7-0.378,0.917
		c-0.231,0.217-0.582,0.343-1.044,0.343c-1.274,0-1.442-0.777-1.442-1.884c0-0.966,0.14-1.793,1.442-1.793
		c1.331,0,1.478,0.861,1.442,1.996H79.901z M80.804,14.524c0-0.343,0.014-0.833-0.455-0.833c-0.455,0-0.448,0.532-0.448,0.833
		H80.804z"/>
	<path d="M34.709,23.688v-5.057h1.429l1.345,3.502h0.014v-3.502h0.987v5.057H37.09l-1.38-3.698h-0.014v3.698H34.709z"/>
	<path d="M41.051,23.33h-0.014c-0.098,0.154-0.21,0.267-0.35,0.33c-0.14,0.07-0.294,0.098-0.483,0.098
		c-0.469,0-0.883-0.28-0.883-0.77v-2.837h0.988v2.452c0,0.315,0.056,0.546,0.371,0.546c0.315,0,0.371-0.231,0.371-0.546v-2.452
		h0.988v2.837c0,0.231,0.014,0.469,0.035,0.7h-1.022V23.33z"/>
	<path d="M44.587,23.688v-0.392h-0.014c-0.183,0.343-0.456,0.462-0.834,0.462c-1.022,0-0.987-1.134-0.987-1.863
		c0-0.714-0.028-1.814,0.966-1.814c0.357,0,0.603,0.105,0.805,0.406h0.015v-1.856h0.987v5.057H44.587z M44.538,21.888
		c0-0.708,0.007-1.198-0.399-1.198c-0.427,0-0.42,0.49-0.42,1.198c0,0.889,0.063,1.261,0.42,1.261
		C44.474,23.149,44.538,22.777,44.538,21.888z"/>
	<path d="M47.393,18.631v0.777h-0.987v-0.777H47.393z M47.393,23.688h-0.987v-3.537h0.987V23.688z"/>
	<path d="M47.869,20.151h0.399v-0.56l0.987-0.441v1.001h0.511v0.609h-0.511v1.891c0,0.266-0.007,0.441,0.315,0.441
		c0.063,0,0.126,0,0.175-0.014v0.609c-0.133,0.014-0.273,0.035-0.512,0.035c-0.854,0-0.966-0.567-0.966-0.785V20.76h-0.399V20.151z"
		/>
	<path d="M50.843,23.716l-0.959-3.565h0.98l0.504,2.486h0.014l0.532-2.486h0.953l-1.366,4.875h-1.036L50.843,23.716z"/>
	<path d="M36.074,30.772c-1.31,0-1.555-0.771-1.499-1.646h1.058c0,0.483,0.021,0.89,0.603,0.89c0.357,0,0.532-0.231,0.532-0.575
		c0-0.91-2.129-0.966-2.129-2.472c0-0.791,0.378-1.421,1.667-1.421c1.03,0,1.541,0.462,1.471,1.52h-1.03
		c0-0.378-0.063-0.763-0.49-0.763c-0.343,0-0.546,0.189-0.546,0.539c0,0.959,2.129,0.875,2.129,2.465
		C37.839,30.617,36.88,30.772,36.074,30.772z"/>
	<path d="M39.455,29.076c0,0.421,0.014,1.051,0.448,1.051c0.35,0,0.42-0.336,0.42-0.63h1.001c-0.014,0.385-0.14,0.7-0.378,0.917
		c-0.231,0.218-0.581,0.344-1.043,0.344c-1.275,0-1.443-0.777-1.443-1.885c0-0.966,0.14-1.792,1.443-1.792
		c1.331,0,1.478,0.861,1.443,1.996H39.455z M40.359,28.524c0-0.343,0.014-0.833-0.455-0.833c-0.455,0-0.448,0.532-0.448,0.833
		H40.359z"/>
	<path d="M42.668,30.688h-0.98l1.043-1.856l-0.959-1.681h1.106l0.519,1.072l0.595-1.072h0.987l-0.945,1.695l1.016,1.842h-1.114
		l-0.616-1.239L42.668,30.688z"/>
	<path d="M47.274,30.33H47.26c-0.099,0.154-0.21,0.267-0.351,0.329c-0.14,0.07-0.294,0.099-0.483,0.099
		c-0.469,0-0.882-0.28-0.882-0.771v-2.837h0.987v2.451c0,0.315,0.056,0.547,0.371,0.547s0.371-0.231,0.371-0.547v-2.451h0.987v2.837
		c0,0.23,0.015,0.469,0.035,0.7h-1.022V30.33z"/>
	<path d="M51.726,30.029c0,0.217,0.028,0.441,0.05,0.658h-0.918l-0.042-0.47h-0.014c-0.21,0.364-0.497,0.54-0.925,0.54
		c-0.687,0-0.938-0.512-0.938-1.128c0-1.169,0.903-1.219,1.821-1.205v-0.273c0-0.301-0.042-0.519-0.399-0.519
		c-0.343,0-0.371,0.259-0.371,0.54h-0.967c0-0.427,0.133-0.701,0.364-0.862c0.225-0.168,0.546-0.231,0.925-0.231
		c1.253,0,1.414,0.539,1.414,1.184V30.029z M49.906,29.588c0,0.252,0.042,0.561,0.364,0.561c0.581,0,0.49-0.784,0.49-1.17
		C50.27,29,49.906,28.958,49.906,29.588z"/>
	<path d="M53.616,25.631v5.057h-0.987v-5.057H53.616z"/>
	<path d="M56.045,28.159c0-1.338,0-2.612,1.743-2.612c1.079,0,1.514,0.595,1.472,1.681h-1.037c0-0.672-0.119-0.924-0.435-0.924
		c-0.595,0-0.672,0.56-0.672,1.856s0.077,1.856,0.672,1.856c0.49,0,0.47-0.631,0.483-1.03h1.044c0,1.352-0.539,1.786-1.527,1.786
		C56.045,30.772,56.045,29.483,56.045,28.159z"/>
	<path d="M59.853,28.873c0-0.966,0.14-1.792,1.442-1.792s1.442,0.827,1.442,1.792c0,1.107-0.168,1.885-1.442,1.885
		S59.853,29.981,59.853,28.873z M61.751,28.818c0-0.735-0.035-1.106-0.455-1.106s-0.455,0.371-0.455,1.106
		c0,1.079,0.091,1.31,0.455,1.31S61.751,29.897,61.751,28.818z"/>
	<path d="M64.424,27.508h0.014c0.099-0.161,0.218-0.266,0.351-0.329c0.14-0.07,0.301-0.098,0.483-0.098
		c0.469,0,0.882,0.28,0.882,0.771v2.836h-0.987V28.25c0-0.315-0.056-0.56-0.371-0.56s-0.371,0.245-0.371,0.56v2.438h-0.987v-3.537
		h0.987V27.508z"/>
	<path d="M66.538,27.151h0.399v-0.56l0.987-0.441v1.001h0.511v0.609h-0.511v1.892c0,0.266-0.007,0.44,0.315,0.44
		c0.063,0,0.126,0,0.175-0.014v0.609c-0.133,0.014-0.273,0.035-0.512,0.035c-0.854,0-0.966-0.567-0.966-0.784V27.76h-0.399V27.151z"
		/>
	<path d="M69.793,29.076c0,0.421,0.014,1.051,0.448,1.051c0.351,0,0.42-0.336,0.42-0.63h1.002c-0.014,0.385-0.141,0.7-0.378,0.917
		c-0.231,0.218-0.582,0.344-1.044,0.344c-1.274,0-1.442-0.777-1.442-1.885c0-0.966,0.14-1.792,1.442-1.792
		c1.331,0,1.478,0.861,1.442,1.996H69.793z M70.696,28.524c0-0.343,0.014-0.833-0.455-0.833c-0.455,0-0.448,0.532-0.448,0.833
		H70.696z"/>
	<path d="M73.37,27.508h0.014c0.099-0.161,0.218-0.266,0.351-0.329c0.14-0.07,0.301-0.098,0.483-0.098
		c0.469,0,0.882,0.28,0.882,0.771v2.836h-0.987V28.25c0-0.315-0.056-0.56-0.371-0.56s-0.371,0.245-0.371,0.56v2.438h-0.987v-3.537
		h0.987V27.508z"/>
	<path d="M75.483,27.151h0.399v-0.56l0.987-0.441v1.001h0.511v0.609H76.87v1.892c0,0.266-0.007,0.44,0.315,0.44
		c0.063,0,0.126,0,0.175-0.014v0.609c-0.133,0.014-0.273,0.035-0.512,0.035c-0.854,0-0.966-0.567-0.966-0.784V27.76h-0.399V27.151z"
		/>
	<path d="M36.074,37.772c-1.31,0-1.555-0.771-1.499-1.646h1.058c0,0.483,0.021,0.89,0.603,0.89c0.357,0,0.532-0.231,0.532-0.575
		c0-0.91-2.129-0.966-2.129-2.472c0-0.792,0.378-1.422,1.667-1.422c1.03,0,1.541,0.462,1.471,1.52h-1.03
		c0-0.378-0.063-0.764-0.49-0.764c-0.343,0-0.546,0.189-0.546,0.54c0,0.959,2.129,0.875,2.129,2.465
		C37.839,37.617,36.88,37.772,36.074,37.772z"/>
	<path d="M38.146,34.151h0.399V33.59l0.988-0.44v1.001h0.511v0.609h-0.511v1.892c0,0.266-0.007,0.44,0.315,0.44
		c0.063,0,0.126,0,0.175-0.014v0.609c-0.133,0.014-0.273,0.035-0.511,0.035c-0.854,0-0.967-0.567-0.967-0.784V34.76h-0.399V34.151z"
		/>
	<path d="M41.429,34.151v0.455h0.014c0.182-0.406,0.518-0.525,0.917-0.525v0.883c-0.869-0.056-0.882,0.448-0.882,0.799v1.926H40.49
		v-3.537H41.429z"/>
	<path d="M42.737,35.873c0-0.966,0.14-1.793,1.443-1.793s1.442,0.827,1.442,1.793c0,1.107-0.168,1.885-1.442,1.885
		C42.905,37.758,42.737,36.981,42.737,35.873z M44.635,35.818c0-0.735-0.035-1.106-0.455-1.106c-0.42,0-0.455,0.371-0.455,1.106
		c0,1.079,0.091,1.31,0.455,1.31S44.635,36.897,44.635,35.818z"/>
	<path d="M47.309,34.508h0.014c0.099-0.161,0.218-0.267,0.351-0.329c0.14-0.07,0.301-0.099,0.483-0.099
		c0.469,0,0.882,0.28,0.882,0.771v2.837h-0.987V35.25c0-0.315-0.056-0.561-0.371-0.561s-0.371,0.245-0.371,0.561v2.438h-0.987
		v-3.537h0.987V34.508z"/>
	<path d="M52.525,34.151v3.685c0,0.245,0.014,1.211-1.345,1.211c-0.735,0-1.366-0.188-1.387-1.05h0.967
		c0,0.146,0.021,0.272,0.084,0.356c0.063,0.092,0.175,0.141,0.329,0.141c0.245,0,0.364-0.231,0.364-0.589v-0.679h-0.015
		c-0.146,0.272-0.427,0.413-0.749,0.413c-1.086,0-1.036-0.995-1.036-1.793c0-0.777,0.014-1.766,1.043-1.766
		c0.351,0,0.651,0.154,0.792,0.483h0.014v-0.413H52.525z M51.131,37.029c0.357,0,0.406-0.371,0.406-1.121
		c0-0.777-0.035-1.219-0.399-1.219c-0.371,0-0.435,0.26-0.435,1.338C50.704,36.357,50.655,37.029,51.131,37.029z"/>
	<path d="M54.931,37.688v-5.057h1.058v4.216h1.583v0.841H54.931z"/>
	<path d="M60.666,37.029c0,0.217,0.028,0.441,0.05,0.658h-0.918l-0.042-0.47h-0.014c-0.21,0.364-0.497,0.54-0.925,0.54
		c-0.687,0-0.938-0.512-0.938-1.128c0-1.17,0.903-1.219,1.821-1.205v-0.272c0-0.302-0.042-0.519-0.399-0.519
		c-0.343,0-0.371,0.259-0.371,0.539h-0.967c0-0.427,0.133-0.7,0.364-0.861c0.225-0.168,0.546-0.231,0.925-0.231
		c1.253,0,1.414,0.54,1.414,1.185V37.029z M58.845,36.588c0,0.252,0.042,0.561,0.364,0.561c0.581,0,0.49-0.784,0.49-1.17
		C59.21,36,58.845,35.958,58.845,36.588z"/>
	<path d="M62.471,34.508h0.014c0.099-0.161,0.218-0.267,0.351-0.329c0.14-0.07,0.301-0.099,0.483-0.099
		c0.469,0,0.882,0.28,0.882,0.771v2.837h-0.987V35.25c0-0.315-0.056-0.561-0.371-0.561s-0.371,0.245-0.371,0.561v2.438h-0.987
		v-3.537h0.987V34.508z"/>
	<path d="M67.687,34.151v3.685c0,0.245,0.014,1.211-1.345,1.211c-0.735,0-1.366-0.188-1.387-1.05h0.967
		c0,0.146,0.021,0.272,0.084,0.356c0.063,0.092,0.175,0.141,0.329,0.141c0.245,0,0.364-0.231,0.364-0.589v-0.679h-0.015
		c-0.146,0.272-0.427,0.413-0.749,0.413c-1.086,0-1.036-0.995-1.036-1.793c0-0.777,0.014-1.766,1.043-1.766
		c0.351,0,0.651,0.154,0.792,0.483h0.014v-0.413H67.687z M66.294,37.029c0.357,0,0.406-0.371,0.406-1.121
		c0-0.777-0.035-1.219-0.399-1.219c-0.371,0-0.435,0.26-0.435,1.338C65.866,36.357,65.817,37.029,66.294,37.029z"/>
	<path d="M70.214,37.33H70.2c-0.099,0.154-0.21,0.267-0.351,0.329c-0.14,0.07-0.294,0.099-0.483,0.099
		c-0.469,0-0.882-0.28-0.882-0.771v-2.837h0.987v2.451c0,0.315,0.056,0.547,0.371,0.547s0.371-0.231,0.371-0.547v-2.451h0.987v2.837
		c0,0.23,0.015,0.469,0.035,0.7h-1.022V37.33z"/>
	<path d="M74.666,37.029c0,0.217,0.028,0.441,0.05,0.658h-0.918l-0.042-0.47h-0.014c-0.21,0.364-0.497,0.54-0.925,0.54
		c-0.687,0-0.938-0.512-0.938-1.128c0-1.17,0.903-1.219,1.821-1.205v-0.272c0-0.302-0.042-0.519-0.399-0.519
		c-0.343,0-0.371,0.259-0.371,0.539h-0.967c0-0.427,0.133-0.7,0.364-0.861c0.225-0.168,0.546-0.231,0.925-0.231
		c1.253,0,1.414,0.54,1.414,1.185V37.029z M72.845,36.588c0,0.252,0.042,0.561,0.364,0.561c0.581,0,0.49-0.784,0.49-1.17
		C73.21,36,72.845,35.958,72.845,36.588z"/>
	<path d="M78.187,34.151v3.685c0,0.245,0.014,1.211-1.345,1.211c-0.735,0-1.366-0.188-1.387-1.05h0.967
		c0,0.146,0.021,0.272,0.084,0.356c0.063,0.092,0.175,0.141,0.329,0.141c0.245,0,0.364-0.231,0.364-0.589v-0.679h-0.015
		c-0.146,0.272-0.427,0.413-0.749,0.413c-1.086,0-1.036-0.995-1.036-1.793c0-0.777,0.014-1.766,1.043-1.766
		c0.351,0,0.651,0.154,0.792,0.483h0.014v-0.413H78.187z M76.794,37.029c0.357,0,0.406-0.371,0.406-1.121
		c0-0.777-0.035-1.219-0.399-1.219c-0.371,0-0.435,0.26-0.435,1.338C76.366,36.357,76.317,37.029,76.794,37.029z"/>
	<path d="M79.894,36.076c0,0.421,0.014,1.051,0.448,1.051c0.351,0,0.42-0.336,0.42-0.63h1.002c-0.014,0.385-0.141,0.7-0.378,0.917
		c-0.231,0.218-0.582,0.344-1.044,0.344c-1.274,0-1.442-0.777-1.442-1.885c0-0.966,0.14-1.793,1.442-1.793
		c1.331,0,1.478,0.862,1.442,1.996H79.894z M80.797,35.524c0-0.344,0.014-0.834-0.455-0.834c-0.455,0-0.448,0.533-0.448,0.834
		H80.797z"/>
	<path d="M38.119,39.631v3.586c0,0.756-0.427,1.555-1.716,1.555c-1.163,0-1.723-0.603-1.723-1.555v-3.586h1.058v3.516
		c0,0.623,0.266,0.869,0.651,0.869c0.462,0,0.673-0.309,0.673-0.869v-3.516H38.119z"/>
	<path d="M39.532,43.553c-0.007,0.161,0,0.315,0.049,0.428c0.056,0.111,0.161,0.168,0.357,0.168c0.196,0,0.364-0.126,0.364-0.364
		c0-0.75-1.737-0.581-1.737-1.709c0-0.764,0.756-0.995,1.394-0.995c0.672,0,1.282,0.322,1.226,1.086h-0.967
		c0-0.245-0.028-0.393-0.098-0.455c-0.063-0.063-0.147-0.077-0.252-0.077c-0.217,0-0.336,0.14-0.336,0.378
		c0,0.561,1.737,0.532,1.737,1.667c0,0.616-0.504,1.079-1.324,1.079c-0.862,0-1.436-0.218-1.38-1.205H39.532z"/>
	<path d="M42.598,43.076c0,0.421,0.014,1.051,0.448,1.051c0.35,0,0.42-0.336,0.42-0.63h1.001c-0.014,0.385-0.14,0.7-0.378,0.917
		c-0.231,0.218-0.581,0.344-1.043,0.344c-1.275,0-1.443-0.777-1.443-1.885c0-0.966,0.14-1.793,1.443-1.793
		c1.331,0,1.478,0.862,1.443,1.996H42.598z M43.501,42.524c0-0.344,0.014-0.834-0.455-0.834c-0.455,0-0.448,0.533-0.448,0.834
		H43.501z"/>
	<path d="M46.307,42.873c0-0.966,0.14-1.793,1.442-1.793s1.442,0.827,1.442,1.793c0,1.107-0.168,1.885-1.442,1.885
		S46.307,43.981,46.307,42.873z M48.205,42.818c0-0.735-0.035-1.106-0.455-1.106s-0.455,0.371-0.455,1.106
		c0,1.079,0.091,1.31,0.455,1.31S48.205,43.897,48.205,42.818z"/>
	<path d="M51.236,40.24c-0.399-0.028-0.483,0.126-0.483,0.483v0.427h0.462v0.609h-0.462v2.928h-0.987V41.76h-0.441v-0.609h0.448
		c-0.007-1.016-0.091-1.555,1.113-1.555c0.119,0,0.231,0.007,0.351,0.014V40.24z"/>
	<path d="M52.936,39.631h1.766c1.387,0,1.646,0.925,1.646,2.5c0,0.777,0.119,2.557-1.688,2.557h-1.724V39.631z M53.994,43.91h0.512
		c0.645,0,0.771-0.483,0.771-1.751c0-0.932,0-1.751-0.735-1.751h-0.547V43.91z"/>
	<path d="M57.907,41.151v0.455h0.014c0.182-0.406,0.519-0.525,0.918-0.525v0.883c-0.869-0.056-0.883,0.448-0.883,0.799v1.926h-0.987
		v-3.537H57.907z"/>
	<path d="M60.854,44.33H60.84c-0.099,0.154-0.21,0.267-0.351,0.329c-0.14,0.07-0.294,0.099-0.483,0.099
		c-0.469,0-0.882-0.28-0.882-0.771v-2.837h0.987v2.451c0,0.315,0.056,0.547,0.371,0.547s0.371-0.231,0.371-0.547v-2.451h0.987v2.837
		c0,0.23,0.015,0.469,0.035,0.7h-1.022V44.33z"/>
	<path d="M65.153,41.151v3.685c0,0.245,0.014,1.211-1.345,1.211c-0.735,0-1.366-0.188-1.387-1.05h0.967
		c0,0.146,0.021,0.272,0.084,0.356c0.063,0.092,0.175,0.141,0.329,0.141c0.245,0,0.364-0.231,0.364-0.589v-0.679h-0.015
		c-0.146,0.272-0.427,0.413-0.749,0.413c-1.086,0-1.036-0.995-1.036-1.793c0-0.777,0.014-1.766,1.043-1.766
		c0.351,0,0.651,0.154,0.792,0.483h0.014v-0.413H65.153z M63.759,44.029c0.357,0,0.406-0.371,0.406-1.121
		c0-0.777-0.035-1.219-0.399-1.219c-0.371,0-0.435,0.26-0.435,1.338C63.332,43.357,63.283,44.029,63.759,44.029z"/>
	<path d="M66.551,43.553c-0.007,0.161,0,0.315,0.049,0.428c0.056,0.111,0.161,0.168,0.357,0.168c0.195,0,0.364-0.126,0.364-0.364
		c0-0.75-1.737-0.581-1.737-1.709c0-0.764,0.757-0.995,1.394-0.995c0.673,0,1.282,0.322,1.226,1.086h-0.966
		c0-0.245-0.028-0.393-0.099-0.455c-0.063-0.063-0.146-0.077-0.252-0.077c-0.217,0-0.336,0.14-0.336,0.378
		c0,0.561,1.736,0.532,1.736,1.667c0,0.616-0.504,1.079-1.323,1.079c-0.861,0-1.436-0.218-1.38-1.205H66.551z"/>
	<path d="M72.768,44.029c0,0.217,0.028,0.441,0.05,0.658H71.9l-0.042-0.47h-0.014c-0.21,0.364-0.497,0.54-0.925,0.54
		c-0.687,0-0.938-0.512-0.938-1.128c0-1.17,0.903-1.219,1.821-1.205v-0.272c0-0.302-0.042-0.519-0.399-0.519
		c-0.343,0-0.371,0.259-0.371,0.539h-0.967c0-0.427,0.133-0.7,0.364-0.861c0.225-0.168,0.546-0.231,0.925-0.231
		c1.254,0,1.414,0.54,1.414,1.185V44.029z M70.948,43.588c0,0.252,0.042,0.561,0.364,0.561c0.581,0,0.49-0.784,0.49-1.17
		C71.312,43,70.948,42.958,70.948,43.588z"/>
	<path d="M74.399,41.508h0.014c0.099-0.161,0.218-0.267,0.351-0.329c0.14-0.07,0.301-0.099,0.483-0.099
		c0.469,0,0.882,0.28,0.882,0.771v2.837h-0.987V42.25c0-0.315-0.056-0.561-0.371-0.561s-0.371,0.245-0.371,0.561v2.438h-0.987
		v-3.537h0.987V41.508z"/>
	<path d="M78.501,44.688v-0.393h-0.014c-0.183,0.344-0.456,0.463-0.834,0.463c-1.022,0-0.987-1.135-0.987-1.863
		c0-0.715-0.028-1.814,0.967-1.814c0.356,0,0.602,0.105,0.805,0.406h0.015v-1.855h0.987v5.057H78.501z M78.452,42.888
		c0-0.708,0.007-1.198-0.399-1.198c-0.428,0-0.42,0.49-0.42,1.198c0,0.89,0.063,1.261,0.42,1.261
		C78.388,44.149,78.452,43.778,78.452,42.888z"/>
	<path d="M81.103,44.688l1.401-5.057h1.394l1.373,5.057h-1.114l-0.28-1.121h-1.442l-0.287,1.121H81.103z M83.141,40.605h-0.014
		l-0.483,2.185h1.009L83.141,40.605z"/>
	<path d="M86.613,39.631v5.057h-0.987v-5.057H86.613z"/>
	<path d="M89.113,42.411c0-0.525-0.133-0.7-0.441-0.7c-0.42,0-0.455,0.371-0.455,1.106c0,1.079,0.091,1.31,0.455,1.31
		c0.309,0,0.455-0.28,0.455-0.742h0.987c0,0.96-0.518,1.373-1.442,1.373c-1.274,0-1.442-0.777-1.442-1.885
		c0-0.966,0.14-1.793,1.442-1.793c0.91,0,1.429,0.406,1.429,1.331H89.113z"/>
	<path d="M90.554,42.873c0-0.966,0.14-1.793,1.442-1.793s1.442,0.827,1.442,1.793c0,1.107-0.168,1.885-1.442,1.885
		S90.554,43.981,90.554,42.873z M92.452,42.818c0-0.735-0.035-1.106-0.455-1.106s-0.455,0.371-0.455,1.106
		c0,1.079,0.091,1.31,0.455,1.31S92.452,43.897,92.452,42.818z"/>
	<path d="M95.693,44.688V42.25c0-0.315-0.056-0.561-0.371-0.561s-0.371,0.245-0.371,0.561v2.438h-0.987v-5.057h0.987v1.877h0.014
		c0.099-0.161,0.218-0.267,0.351-0.329c0.14-0.07,0.301-0.099,0.483-0.099c0.469,0,0.882,0.28,0.882,0.771v2.837H95.693z"/>
	<path d="M97.204,42.873c0-0.966,0.14-1.793,1.442-1.793s1.442,0.827,1.442,1.793c0,1.107-0.168,1.885-1.442,1.885
		S97.204,43.981,97.204,42.873z M99.101,42.818c0-0.735-0.035-1.106-0.455-1.106s-0.455,0.371-0.455,1.106
		c0,1.079,0.091,1.31,0.455,1.31S99.101,43.897,99.101,42.818z"/>
	<path d="M101.684,39.631v5.057h-0.987v-5.057H101.684z"/>
</g>
<g>
	<rect y="48.723" class="st0" width="106.554" height="7.412"/>
	<g>
		<path d="M6.229,54.916V49.86h1.03v5.057H6.229z"/>
		<path d="M8.945,51.737h0.014c0.095-0.161,0.211-0.267,0.341-0.329c0.137-0.07,0.293-0.099,0.471-0.099
			c0.457,0,0.859,0.28,0.859,0.771v2.837H9.668v-2.438c0-0.315-0.055-0.561-0.362-0.561c-0.307,0-0.361,0.245-0.361,0.561v2.438
			H7.983v-3.537h0.962V51.737z"/>
		<path d="M12.889,52.668v0.714h-1.671v-0.714H12.889z"/>
		<path d="M15.775,51.414c0.007-0.469-0.068-0.883-0.614-0.883c-0.642,0-0.642,0.89-0.642,1.87c0,1.583,0.15,1.863,0.737,1.863
			c0.17,0,0.354-0.042,0.512-0.098v-1.121h-0.56v-0.777h1.589v2.563C16.518,54.888,15.816,55,15.406,55
			c-1.732,0-1.93-0.735-1.93-2.654c0-1.274,0.062-2.57,1.746-2.57c1.01,0,1.637,0.581,1.576,1.639H15.775z"/>
		<path d="M20.162,54.258c0,0.217,0.027,0.441,0.048,0.658h-0.894l-0.041-0.47h-0.014c-0.205,0.364-0.484,0.54-0.9,0.54
			c-0.668,0-0.914-0.512-0.914-1.128c0-1.17,0.88-1.219,1.773-1.205v-0.272c0-0.302-0.041-0.519-0.389-0.519
			c-0.334,0-0.361,0.259-0.361,0.539h-0.941c0-0.427,0.13-0.7,0.355-0.861c0.218-0.168,0.532-0.231,0.9-0.231
			c1.221,0,1.377,0.54,1.377,1.185V54.258z M18.389,53.817c0,0.252,0.041,0.561,0.355,0.561c0.566,0,0.478-0.784,0.478-1.17
			C18.744,53.229,18.389,53.187,18.389,53.817z"/>
		<path d="M21.754,51.737h0.014c0.191-0.315,0.45-0.428,0.812-0.428c0.341,0,0.614,0.169,0.771,0.448
			c0.225-0.308,0.498-0.448,0.894-0.448c0.457,0,0.859,0.28,0.859,0.771v2.837h-0.962v-2.438c0-0.315-0.055-0.561-0.361-0.561
			c-0.307,0-0.361,0.245-0.361,0.561v2.438h-0.941v-2.438c0-0.315-0.055-0.561-0.361-0.561c-0.307,0-0.362,0.245-0.362,0.561v2.438
			h-0.961v-3.537h0.961V51.737z"/>
		<path d="M26.585,53.305c0,0.421,0.014,1.051,0.437,1.051c0.341,0,0.409-0.336,0.409-0.63h0.976
			c-0.014,0.385-0.137,0.7-0.368,0.917c-0.225,0.218-0.566,0.344-1.017,0.344c-1.241,0-1.405-0.777-1.405-1.885
			c0-0.966,0.136-1.793,1.405-1.793c1.296,0,1.439,0.862,1.405,1.996H26.585z M27.464,52.752c0-0.344,0.014-0.834-0.443-0.834
			c-0.443,0-0.437,0.532-0.437,0.834H27.464z"/>
		<path d="M30.488,49.86h1.855c0.941,0,1.31,0.588,1.31,1.513c0,0.574-0.164,1.484-1.371,1.484h-0.764v2.06h-1.03V49.86z
			 M31.518,52.079h0.573c0.307,0,0.518-0.343,0.518-0.679c0-0.413-0.109-0.764-0.573-0.764h-0.519V52.079z"/>
		<path d="M35.818,54.559h-0.014c-0.096,0.154-0.205,0.267-0.341,0.329c-0.136,0.07-0.287,0.099-0.471,0.099
			c-0.457,0-0.859-0.28-0.859-0.771v-2.837h0.962v2.451c0,0.315,0.055,0.547,0.361,0.547c0.307,0,0.362-0.231,0.362-0.547v-2.451
			h0.961v2.837c0,0.23,0.014,0.469,0.034,0.7h-0.996V54.559z"/>
		<path d="M38.363,51.379v0.455h0.014c0.177-0.406,0.505-0.525,0.894-0.525v0.883c-0.846-0.056-0.859,0.448-0.859,0.799v1.926
			h-0.962v-3.537H38.363z"/>
		<path d="M41.379,52.64c0-0.525-0.129-0.7-0.43-0.7c-0.409,0-0.443,0.371-0.443,1.106c0,1.079,0.089,1.31,0.443,1.31
			c0.3,0,0.443-0.28,0.443-0.742h0.962c0,0.96-0.505,1.373-1.405,1.373c-1.241,0-1.405-0.777-1.405-1.885
			c0-0.966,0.136-1.793,1.405-1.793c0.887,0,1.392,0.406,1.392,1.331H41.379z"/>
		<path d="M44.628,54.916v-2.438c0-0.315-0.055-0.561-0.362-0.561c-0.307,0-0.361,0.245-0.361,0.561v2.438h-0.962V49.86h0.962v1.877
			h0.014c0.095-0.161,0.211-0.267,0.341-0.329c0.137-0.07,0.293-0.099,0.471-0.099c0.457,0,0.859,0.28,0.859,0.771v2.837H44.628z"/>
		<path d="M48.871,54.258c0,0.217,0.027,0.441,0.048,0.658h-0.894l-0.041-0.47h-0.014c-0.205,0.364-0.484,0.54-0.9,0.54
			c-0.668,0-0.914-0.512-0.914-1.128c0-1.17,0.88-1.219,1.773-1.205v-0.272c0-0.302-0.041-0.519-0.389-0.519
			c-0.334,0-0.361,0.259-0.361,0.539h-0.941c0-0.427,0.13-0.7,0.355-0.861c0.218-0.168,0.532-0.231,0.9-0.231
			c1.221,0,1.377,0.54,1.377,1.185V54.258z M47.098,53.817c0,0.252,0.041,0.561,0.355,0.561c0.566,0,0.478-0.784,0.478-1.17
			C47.453,53.229,47.098,53.187,47.098,53.817z"/>
		<path d="M50.333,53.781c-0.007,0.161,0,0.315,0.048,0.428c0.054,0.111,0.157,0.168,0.348,0.168s0.354-0.126,0.354-0.364
			c0-0.75-1.691-0.581-1.691-1.709c0-0.764,0.737-0.995,1.357-0.995c0.655,0,1.248,0.322,1.193,1.086h-0.941
			c0-0.245-0.027-0.392-0.096-0.455c-0.062-0.063-0.143-0.077-0.246-0.077c-0.211,0-0.327,0.141-0.327,0.378
			c0,0.561,1.691,0.532,1.691,1.667c0,0.616-0.491,1.079-1.289,1.079c-0.839,0-1.398-0.218-1.344-1.205H50.333z"/>
		<path d="M53.396,53.305c0,0.421,0.014,1.051,0.437,1.051c0.341,0,0.409-0.336,0.409-0.63h0.976
			c-0.014,0.385-0.137,0.7-0.368,0.917c-0.225,0.218-0.566,0.344-1.017,0.344c-1.241,0-1.405-0.777-1.405-1.885
			c0-0.966,0.136-1.793,1.405-1.793c1.296,0,1.439,0.862,1.405,1.996H53.396z M54.276,52.752c0-0.344,0.014-0.834-0.443-0.834
			c-0.443,0-0.437,0.532-0.437,0.834H54.276z"/>
		<path d="M56.584,53.781c-0.007,0.161,0,0.315,0.048,0.428c0.055,0.111,0.157,0.168,0.348,0.168c0.191,0,0.355-0.126,0.355-0.364
			c0-0.75-1.692-0.581-1.692-1.709c0-0.764,0.737-0.995,1.357-0.995c0.655,0,1.249,0.322,1.194,1.086h-0.941
			c0-0.245-0.027-0.392-0.096-0.455c-0.062-0.063-0.144-0.077-0.245-0.077c-0.212,0-0.328,0.141-0.328,0.378
			c0,0.561,1.692,0.532,1.692,1.667c0,0.616-0.491,1.079-1.29,1.079c-0.839,0-1.398-0.218-1.344-1.205H56.584z"/>
		<path d="M59.58,55.589l1.631-5.729h0.695l-1.623,5.729H59.58z"/>
		<path d="M66.777,49.86v3.586c0,0.756-0.416,1.555-1.671,1.555c-1.132,0-1.678-0.603-1.678-1.555V49.86h1.03v3.516
			c0,0.623,0.259,0.868,0.634,0.868c0.45,0,0.655-0.308,0.655-0.868V49.86H66.777z"/>
		<path d="M68.232,53.781c-0.007,0.161,0,0.315,0.048,0.428c0.055,0.111,0.157,0.168,0.348,0.168c0.191,0,0.355-0.126,0.355-0.364
			c0-0.75-1.691-0.581-1.691-1.709c0-0.764,0.736-0.995,1.356-0.995c0.655,0,1.249,0.322,1.194,1.086h-0.941
			c0-0.245-0.027-0.392-0.096-0.455c-0.062-0.063-0.144-0.077-0.245-0.077c-0.212,0-0.328,0.141-0.328,0.378
			c0,0.561,1.692,0.532,1.692,1.667c0,0.616-0.491,1.079-1.29,1.079c-0.839,0-1.397-0.218-1.343-1.205H68.232z"/>
		<path d="M71.296,53.305c0,0.421,0.014,1.051,0.437,1.051c0.341,0,0.409-0.336,0.409-0.63h0.976
			c-0.014,0.385-0.137,0.7-0.368,0.917c-0.226,0.218-0.566,0.344-1.017,0.344c-1.241,0-1.405-0.777-1.405-1.885
			c0-0.966,0.137-1.793,1.405-1.793c1.296,0,1.439,0.862,1.405,1.996H71.296z M72.175,52.752c0-0.344,0.014-0.834-0.443-0.834
			c-0.443,0-0.437,0.532-0.437,0.834H72.175z"/>
		<path d="M74.639,51.379v0.455h0.014c0.178-0.406,0.505-0.525,0.894-0.525v0.883c-0.846-0.056-0.859,0.448-0.859,0.799v1.926
			h-0.962v-3.537H74.639z"/>
		<path d="M76.659,53.781c-0.007,0.161,0,0.315,0.048,0.428c0.055,0.111,0.157,0.168,0.348,0.168c0.191,0,0.355-0.126,0.355-0.364
			c0-0.75-1.691-0.581-1.691-1.709c0-0.764,0.736-0.995,1.356-0.995c0.655,0,1.249,0.322,1.194,1.086h-0.941
			c0-0.245-0.027-0.392-0.096-0.455c-0.062-0.063-0.144-0.077-0.245-0.077c-0.212,0-0.328,0.141-0.328,0.378
			c0,0.561,1.692,0.532,1.692,1.667c0,0.616-0.491,1.079-1.29,1.079c-0.839,0-1.397-0.218-1.343-1.205H76.659z"/>
		<path d="M80.304,54.916V49.86h1.03v5.057H80.304z"/>
		<path d="M83.019,51.737h0.014c0.096-0.161,0.211-0.267,0.341-0.329c0.137-0.07,0.293-0.099,0.471-0.099
			c0.457,0,0.859,0.28,0.859,0.771v2.837h-0.962v-2.438c0-0.315-0.055-0.561-0.361-0.561s-0.361,0.245-0.361,0.561v2.438h-0.962
			v-3.537h0.962V51.737z"/>
		<path d="M84.985,51.379h0.389v-0.561l0.962-0.44v1.001h0.498v0.609h-0.498v1.892c0,0.266-0.007,0.44,0.307,0.44
			c0.062,0,0.123,0,0.171-0.014v0.609c-0.13,0.014-0.267,0.035-0.498,0.035c-0.832,0-0.941-0.567-0.941-0.784v-2.179h-0.389V51.379z
			"/>
		<path d="M88.062,53.305c0,0.421,0.014,1.051,0.437,1.051c0.341,0,0.409-0.336,0.409-0.63h0.976
			c-0.014,0.385-0.137,0.7-0.368,0.917c-0.226,0.218-0.566,0.344-1.017,0.344c-1.241,0-1.405-0.777-1.405-1.885
			c0-0.966,0.137-1.793,1.405-1.793c1.296,0,1.439,0.862,1.405,1.996H88.062z M88.942,52.752c0-0.344,0.014-0.834-0.443-0.834
			c-0.443,0-0.437,0.532-0.437,0.834H88.942z"/>
		<path d="M91.406,51.379v0.455h0.014c0.178-0.406,0.505-0.525,0.894-0.525v0.883c-0.846-0.056-0.859,0.448-0.859,0.799v1.926
			h-0.962v-3.537H91.406z"/>
		<path d="M95.281,54.258c0,0.217,0.027,0.441,0.048,0.658h-0.894l-0.041-0.47H94.38c-0.204,0.364-0.484,0.54-0.9,0.54
			c-0.668,0-0.914-0.512-0.914-1.128c0-1.17,0.88-1.219,1.773-1.205v-0.272c0-0.302-0.041-0.519-0.389-0.519
			c-0.334,0-0.361,0.259-0.361,0.539h-0.941c0-0.427,0.13-0.7,0.354-0.861c0.219-0.168,0.532-0.231,0.9-0.231
			c1.222,0,1.378,0.54,1.378,1.185V54.258z M93.507,53.817c0,0.252,0.041,0.561,0.354,0.561c0.566,0,0.478-0.784,0.478-1.17
			C93.862,53.229,93.507,53.187,93.507,53.817z"/>
		<path d="M97.738,52.64c0-0.525-0.13-0.7-0.43-0.7c-0.409,0-0.443,0.371-0.443,1.106c0,1.079,0.089,1.31,0.443,1.31
			c0.3,0,0.443-0.28,0.443-0.742h0.962c0,0.96-0.505,1.373-1.405,1.373c-1.241,0-1.405-0.777-1.405-1.885
			c0-0.966,0.137-1.793,1.405-1.793c0.887,0,1.392,0.406,1.392,1.331H97.738z"/>
		<path d="M98.914,51.379h0.389v-0.561l0.962-0.44v1.001h0.498v0.609h-0.498v1.892c0,0.266-0.007,0.44,0.307,0.44
			c0.062,0,0.123,0,0.171-0.014v0.609c-0.13,0.014-0.267,0.035-0.498,0.035c-0.832,0-0.941-0.567-0.941-0.784v-2.179h-0.389V51.379z
			"/>
	</g>
</g>
<g>
	<path d="M105.395,48.896v6.996H1.094v-6.996H105.395 M105.895,48.396H0.594v7.996h105.3V48.396L105.895,48.396z"/>
</g>
</svg>
