<?xml version="1.0" encoding="utf-8"?>
<!-- Generator: Adobe Illustrator 22.0.1, SVG Export Plug-In . SVG Version: 6.00 Build 0)  -->
<svg version="1.1" id="Layer_1" xmlns="http://www.w3.org/2000/svg" xmlns:xlink="http://www.w3.org/1999/xlink" x="0px" y="0px"
	 viewBox="0 0 1800.7 202.9" style="enable-background:new 0 0 1800.7 202.9;" xml:space="preserve">
<style type="text/css">
	.st0{fill:#FFFFFF;}
</style>
<g>
	<path class="st0" d="M103.3,134.1c0.5,5.3,0.6,10.7,0.3,16.4c-0.2,5.6-0.3,11.5-0.3,17.5c0.5,2.6,0.8,5.1,0.9,7.6
		c0.1,2.5-0.2,4.6-0.9,6.2c-0.8,1.7-2.1,3.4-4,5.2c-1.9,1.8-3.3,3.5-4.2,5.2c-1.7,1.7-3,3.4-4,5.2c-1,1.8-2.3,3.3-4,4.5
		c-2.9-0.8-6-1-9.4-0.7c-3.4,0.3-6.7,0.6-10.1,0.9H54v-0.2c0-1.1-0.2-1.6-0.7-1.6v-0.9h-1.6l-0.9,0.9c0,0.8,0.2,1.2,0.6,1.2
		c0.4,0.1,0.7,0.3,1,0.6h0.9h-42H9.7l0.9-0.2h1.6h0.7V201c-0.3-0.3-0.7-0.6-1.1-1c-0.5-0.4-0.8-0.6-1.1-0.6v-1.6v-0.7v-0.9h1.6
		l0.7-0.7l-0.7-0.9h-1.6c-0.5,0-0.8,0-0.9,0.1c-0.2,0.1-0.5,0.3-0.9,0.8H8.1v0.7c-0.6,0-0.8,0.2-0.5,0.5l0.5,0.5
		c0,1.1-0.3,1.6-0.9,1.6l-0.7,0.7l1.6,0.9v0.7H7.2c0,0.8,0.3,1.1,0.9,1.1c-1.2,0-2.4,0.1-3.6,0.2c-1.2,0.1-2.4,0.1-3.6-0.2V172
		c2.4,0.5,4.7,0.5,7,0.2c2.3-0.3,4.2-0.1,5.9,0.7c0.8-7.1,1.2-14.8,1.4-23.3c0.1-8.4,0.2-17.1,0.2-26c0-8.9,0-17.7,0.1-26.6
		c0.1-8.8,0.3-17.1,0.8-25c-3.3-0.3-6.3-0.3-9,0.1c-2.7,0.4-5.1-0.2-7.2-1.7c1.2-4.4,1.7-9.3,1.4-14.7c-0.3-5.4-0.5-11-0.5-16.7
		c14.2,0.8,27.7,1.3,40.6,1.7c12.9,0.4,26.3,0.9,40.1,1.5c1.2,0,2.4,0,3.5-0.1c1.1-0.1,2.1,0.5,2.8,1.7v0.9c0-0.6-0.2-0.9-0.7-0.9
		l0.7,0.9l15.4,20.1c0,4.4,0,8.3-0.1,11.9c-0.1,3.5-0.1,6.9-0.1,10.2c0,3.2,0,6.4,0,9.6s0.1,6.6,0.2,10.2c-0.6,1.2-1.5,2.4-2.8,3.6
		c-1.3,1.2-2.5,2.4-3.7,3.6c-1.2,1.2-2.2,2.5-3.1,3.8c-0.8,1.4-1.1,2.8-0.8,4.3c0.1,1.2,0.6,2.3,1.5,3.4c0.8,1.1,1.8,2.1,2.8,3.1
		c1.1,1,2.1,1.9,3.3,2.8C101.6,132.2,102.5,133.2,103.3,134.1z M22.6,134.1c0.8,0,1.2-0.1,1.5-0.5c0.2-0.3,0.6-0.7,1-1.1
		c-1.1,0-1.6-0.2-1.6-0.7h-0.9c0.5,0,0.6,0.3,0.3,0.9C22.7,133.3,22.6,133.8,22.6,134.1z M29.2,115.7c0.3,0.3,0.8,0.4,1.4,0.2
		c0.6-0.1,0.9-0.8,0.9-2c-0.3,0-0.8,0.2-1.4,0.6C29.5,114.9,29.2,115.3,29.2,115.7z M33.9,125.2c-0.5,0.8-0.7,1.6-0.7,2.5
		c1.1,0,1.8-0.3,2.3-0.9h-1.6c0-0.3,0.1-0.6,0.3-1C34.5,125.4,34.4,125.2,33.9,125.2z M33.2,129.3c0,0.8,0.5,1.2,1.5,1.5
		c1,0.2,1.2-0.3,0.8-1.5c-0.3,0-0.6,0.1-0.8,0.3C34.5,129.9,34,129.8,33.2,129.3z M37.1,127.7c0.5-0.5,0.9-0.9,1.2-1.2
		c0.4-0.4,0.6-0.8,0.6-1.2c-0.9-0.8-1.6-0.9-2-0.5c-0.5,0.5-0.9,0.9-1.4,1.4c0.5,0,0.6,0.3,0.6,0.8C36,127.5,36.3,127.7,37.1,127.7z
		 M37.1,121.2v1.8c0.5,0.3,1,0.5,1.6,0.5c0.6,0,0.9-0.1,0.9-0.5c-0.3-0.5-0.6-0.9-0.8-1.2C38.5,121.4,38,121.2,37.1,121.2z
		 M40.5,127.7c0,0.8,0.1,1.2,0.5,1.4c0.3,0.2,0.7,0.2,1.1,0.2C42,128.3,41.5,127.7,40.5,127.7z M69.4,72.1
		c-3.9-0.5-7.8-0.6-11.5-0.3c-3.8,0.2-7.5,0.3-11.1,0.3c0.5,5.7,0.6,11.5,0.5,17.3c-0.2,5.8,0,11.9,0.5,18.2
		c3.2-0.8,6.6-1.4,10.2-1.9c3.6-0.5,7.2-0.9,10.8-1.2c0-5.7,0.1-11,0.3-15.7C69.3,84,69.4,78.5,69.4,72.1z M47.7,172.9
		c4.1-0.5,8.3-0.6,12.8-0.6c4.4,0.1,8.5-0.3,12.3-1c-0.5-2.1-0.6-4.3-0.6-6.7c0.1-2.3,0-4.7-0.3-7.1c-0.6-3.6-1-7.4-1.1-11.3
		c-0.2-3.9-0.8-7.2-2-9.7c-0.5,0.5-0.8,0.9-1,1.2c-0.2,0.4,0.1,0.8,1,1.2h-4.1l0.7-0.9l0.9-0.7l-0.9-0.9h-0.7h-1.6
		c-0.6,0-1.1,0.3-1.6,0.9v0.7h0.7v0.9v0.7c-2.4,0-4.8,0-7.2,0.1c-2.4,0.1-4.8,0.3-7.2,0.8c-0.3,2.9-0.5,5.5-0.5,8c0,2.5,0,5,0.1,7.6
		c0.1,2.6,0.1,5.2,0.2,7.9C47.6,166.8,47.7,169.8,47.7,172.9z"/>
	<path class="st0" d="M204.5,167.3h0.2c0.3,0,0.5,0.2,0.5,0.7l5.6,34.8h-22.6c-2.1-4.8-3.7-9.6-4.7-14.5c-1.1-4.8-2.4-9.4-4.1-13.8
		c-4.4,0-9.2-0.1-14.6-0.5c-5.4-0.3-10.4-0.5-15.3-0.5c-2.1,4.4-3.5,9-4.2,13.9c-0.7,4.9-1.5,9.8-2.4,14.6c-3.9,0-8,0.2-12.2,0.6
		c-4.2,0.4-8.7,0.2-13.6-0.6l5.6-38.9c0.8,0.8,1.8,0.8,3.2,0c-0.8-0.5-1.4-0.6-1.8-0.5c-0.5,0.2-0.9,0-1.4-0.5
		c1.7-9.6,3.1-19.5,4.2-29.6c1.1-10.1,2.4-20.3,4-30.7l2.5-17.9c0.3-1.7,0.9-3,1.8-4c0.9-1,1.4-2.3,1.4-4c0.8-2.6,1.3-5.2,1.6-7.8
		c0.3-2.6,0.8-5.2,1.6-7.6c1.2-3.6,2.2-7.2,2.9-10.8c0.8-3.6,1.1-7.2,1.1-10.8h6.6c-0.5,0.3-0.8,0.4-0.9,0.2
		c-0.2-0.1-0.5-0.2-0.9-0.2c0,0.8,0.5,1,1.5,0.8c1-0.2,1.8-0.5,2.6-0.8c0.5,0,0.6,0.2,0.5,0.5c-0.2,0.3,0,0.7,0.5,1.1
		c0.3-0.5,0.6-0.8,0.9-0.9c0.3-0.1,0.2-0.4-0.2-0.7h16.3c2.9-0.5,5-0.8,6.6-0.9c1.5-0.1,2.6,1.2,3.2,4.1l2.3,12
		c0.8,1.7,1.4,3.4,1.9,5.3c0.5,1.9,1,3.7,1.5,5.3c0,0.3-0.2,0.4-0.5,0.3c-0.3-0.1-0.5,0-0.5,0.3v0.9c0-0.6-0.3-0.9-0.9-0.9
		c-0.5,0-0.7,0.2-0.7,0.5v0.5l-0.9-0.9v0.9c-0.3,0-0.6,0.1-1,0.2c-0.4,0.2-0.6,0.6-0.6,1.4V69h0.9h0.7l-0.7,0.7l0.7-0.7v0.7
		c-0.5,0.8-0.7,1.3-0.7,1.6v0.9l1.6-0.9v0.5c0,0.3,0.2,0.5,0.7,0.5c0.9,0,1.4-0.3,1.6-0.9c0.1-0.6,0.2-1.1,0.2-1.6V69h-2.5h0.7
		c0.5-0.5,0.9-0.8,1.2-0.9c0.4-0.1,0.6-0.4,0.6-0.7l1.6,5.4c2.7,9.5,4.9,19.2,6.4,29.2c1.6,9.9,3.4,19.9,5.5,29.8
		c0,1.1-0.2,1.6-0.7,1.6c0.8,1.2,1.4,2.7,1.8,4.5s0.9,3.5,1.4,5.2c0.5,3.6,1,7.3,1.6,11.1c0.6,3.8,0.9,7.3,0.9,10.6
		C205.3,165.7,205.3,166.5,204.5,167.3z M151.2,45.5l-0.7,0.9h1.6h2.3v-0.9l0.9,0.9v-1.6h-0.9v-0.9l-0.7,0.9h-0.9h-0.5
		c-0.2,0-0.3,0.1-0.5,0.2C151.7,45.2,151.5,45.3,151.2,45.5z M156.2,143.1c2,0.3,4.8,0.4,8.5,0.2c3.7-0.1,6.7-0.2,9.2-0.2
		c-1.2-7.2-2.5-14.4-3.7-21.5c-1.3-7.1-3-13.6-5.1-19.7c-1.7,6.5-3.4,13.1-5.1,20C158.2,128.8,156.9,135.9,156.2,143.1z
		 M188.3,187.4h1.8h0.7l2.5,1.6l-0.9-2.5c-0.5-0.5-1.2-0.7-2.3-0.7h-0.9h-0.9l-1.6-0.9v0.9c0.5,0.8,0.8,1.2,0.9,1.4
		C187.7,187.3,188,187.4,188.3,187.4z"/>
	<path class="st0" d="M327.7,100.4c0,0.3-0.3,0.6-0.8,0.8c-0.5,0.2-0.8,0.7-0.8,1.5c0.8,1.2,1.2,3.4,1.4,6.4
		c0.1,3.1-0.1,6.1-0.7,8.9c-0.2,0-0.2,0.2-0.2,0.5c0,0.3,0,0.6-0.1,0.9c-0.1,0.3-0.1,0.6-0.1,0.9c-0.2,0.2-0.2,0.5-0.2,0.9
		c0.8,2.9,0.9,5.9,0.6,9.2c-0.4,3.2-0.6,6.7-0.6,10.3c0,5.3,0,10.7-0.1,16.2c-0.1,5.5-0.3,10.9-0.8,16.2h-0.7v0.7v0.9l-0.9-0.9
		c-0.3,0-0.8,0.2-1.5,0.6c-0.7,0.4-1,0.7-1,1v1.8l0.9-0.9h0.9c0.1,0.2,0.3,0.2,0.5,0c0.1,0,0.5-0.3,1.1-0.9v0.9l0.7-0.9v0.9
		c0.5,0,0.5,0.2,0.2,0.7c-0.3,0.5-0.6,0.5-0.9,0.2c-0.2,0-0.3-0.1-0.5-0.2c-0.3,0-0.5,0.1-0.5,0.2c0,0.8,0.2,1.1,0.6,1.1
		c0.4,0,0.7-0.4,1-1.1c0.5,1.7,0.3,3-0.5,4c-0.8,1-1.1,2.1-1.1,3.3c-0.8,2.4-0.8,5-0.1,7.8c0.7,2.8,1,5.8,1,8.9h-29.2
		c-2.9-5.6-5.6-11.3-8.1-17.1c-2.6-5.8-5.5-11.3-8.8-16.6c0-0.8,0.1-1.3,0.5-1.6c0.3-0.3,0.5-0.9,0.5-1.8
		c-4.1-5.3-7.3-11.1-9.8-17.5c-2.5-6.4-5.2-12.6-8-18.6c-1.7,11.8-2.4,23.6-2.1,35.6c0.2,12,0.1,24.3-0.3,37c-2.4,0.2-5,0.2-7.9,0.2
		c-2.9,0-5.8,0-8.7,0c-2.9,0-5.8,0-8.5-0.1c-2.7-0.1-5-0.1-7-0.1c-1.2-3.3-2.2-7.1-2.9-11.4c-0.8-4.3-0.3-8.2,1.4-11.9
		c-0.6-5.3-1.4-10-2.5-14.2c-1.1-4.2-1.4-9.2-0.9-14.9c0.3-4.4,0.6-8.6,1-12.8c0.4-4.1,0.6-8.2,0.6-12.1c0-2.9,0.1-5.7,0.5-8.5
		c0.3-2.8,0.5-5.6,0.5-8.5c0-0.1,0.1-0.4,0.5-0.7c0.1,0,0.3-0.1,0.5-0.2c-0.6,0-0.9-0.1-0.9-0.2c-0.2-0.1-0.2-0.3,0-0.5
		c0-9.5,0-18.9,0.1-28.2c0.1-9.3-0.5-19.3-1.7-29.8c3.2-0.8,6.6-0.9,10.2-0.5c3.6,0.5,7.2,0.3,10.8-0.5c0.3,0,0.8-0.1,1.5-0.3
		s1.2-0.3,1.7-0.3c0.8,0,1.5,0.1,2.4,0.3c0.8,0.2,1.6,0.3,2.4,0.3c0.8,0.5,1.5,0.5,2.4,0.2c0.8-0.3,1.4-0.1,1.7,0.7
		c0.5-1.2,1.1-1.7,1.8-1.5c0.8,0.2,1.5,0.2,2.3-0.1c0.8,1.7,1.2,3.1,1.5,4.3c0.2,1.2,0.6,2.4,1,3.6h-0.9v0.9c0,0.5-0.2,0.7-0.7,0.7
		c0-1.1-0.3-1.8-0.9-2.3c-0.5,0.8-0.5,1.3-0.1,1.7c0.4,0.4,0.1,0.6-0.8,0.6c0.9,0,1.1,0,0.5,0.1c-0.6,0.1-0.8,0.3-0.5,0.8
		c0.5,0.5,0.8,0.4,0.9-0.1c0.1-0.5,0.5-0.8,0.9-0.8c0,0.5,0.1,0.8,0.3,0.9c0.2,0.2,0.3,0.5,0.3,0.9h-1.6c0,0.3,0.1,0.5,0.5,0.7
		c0.3,0.2,0.5,0.5,0.5,0.9c0.3-0.8,0.6-1.4,1-1.9c0.4-0.5,0.6-1,0.6-1.5c0,1.1,0.1,2,0.2,2.9c0.1,0.9,0.6,1.8,1.4,2.7
		c0.3,1.2,0.9,2.1,1.9,2.8c1,0.7,1.7,1.6,2.1,2.8c2.1,2.9,3.8,6.1,5.2,9.7c1.4,3.6,2.9,6.9,4.5,9.7c1.2,4.8,3.1,9.8,5.7,14.9
		c2.6,5.1,4.7,10.1,6.3,14.9c1.2-3.3,1.4-6.6,0.5-9.7c-0.9-3.2-1.6-6.4-2-9.7c0-1.2,0.1-2.5,0.5-4c0.3-1.4,0.5-2.7,0.5-4
		c0.3-7.7,0.5-14.8,0.5-21.4s0.4-13.4,1.1-20.7h34.6c0.8,5.3,0.8,11,0.2,17.2c-0.6,6.2-0.9,12.3-0.9,18.3c-0.5,3.3-0.6,6.9-0.3,10.6
		C324.4,95.3,325.6,98.3,327.7,100.4z M241.4,102c0,0.3,0.4,0.5,1.2,0.5c0.8,0,1.2-0.1,1.2-0.5c-0.5,0-0.9-0.1-1.4-0.3
		S241.7,101.5,241.4,102z M253.3,108.3h1.8c-0.2-0.1-0.2-0.4-0.2-0.7c-0.2-0.6-0.4-0.9-0.7-0.9l-0.5,0.5
		C253.5,107.5,253.3,107.8,253.3,108.3z M254.2,106c0.5,0,1-0.2,1.6-0.7c0.6-0.5,0.9-1.1,0.9-1.8c-0.8,0-1.5,0.3-2.1,0.9
		C253.9,105.1,253.8,105.6,254.2,106z M269.6,101.1c0.8,0,1.1-0.3,1.1-1c0-0.7,0.5-0.9,1.4-0.6l-1.8-1.6c0,0.8-0.1,1.3-0.3,1.6
		C269.7,99.8,269.6,100.3,269.6,101.1z M272.1,96.3h-1.8v1.6C271.5,97.9,272.1,97.4,272.1,96.3z M276.8,110.1c0-0.5,0.1-0.8,0.5-0.9
		c0.3-0.1,0.5-0.5,0.5-0.9h-1.8c0,0.5,0,0.8,0.1,0.9C276.1,109.3,276.4,109.6,276.8,110.1z"/>
	<path class="st0" d="M340.3,202.1l2.5-30.7c1.7,0,3.6-0.1,5.8-0.3c2.2-0.2,4.6-0.1,7.1,0.3c1.2-5.7,1.9-11.3,2-16.7
		c0.1-5.4,0-10.4-0.5-14.9c0-0.5,0.5-0.7,1.6-0.7c0-0.5-0.3-0.6-0.8-0.6c-0.5,0.1-0.8-0.3-0.8-1c0.5-4.1,0.6-7.8,0.3-11.1
		c-0.2-3.3-0.3-6.6-0.3-9.9c0-2.6,0-5.5-0.1-8.8c-0.1-3.3-0.2-6.8-0.2-10.4c-0.1-3.6-0.1-7.2-0.1-10.8c0-3.6,0.1-7,0.5-10.2
		c0.5,0,0.5-0.3,0.1-0.8c-0.4-0.5-0.1-0.8,0.8-0.8c-0.5-0.5-0.7-1-0.8-1.7c-0.1-0.7-0.1-1.2-0.1-1.7c-2.9,0.5-5.7,0.8-8.6,0.9
		c-2.9,0.2-5.1-0.4-6.8-1.6c1.2-4.8,1.7-9.8,1.4-14.8c-0.3-5-0.5-10.6-0.5-16.6c11.8,0,23.4,0.2,35,0.6c11.6,0.4,23.3,0.9,35,1.7
		c0.5,0.9,1.1,1.3,1.9,1.1c0.8-0.1,1.8-0.2,3.1-0.2l1.6,1.6c0.3-0.3,0.2-0.6-0.2-0.8c-0.5-0.2-0.7-0.8-0.7-1.7
		c1.2,0.5,2.2,1.2,3.1,2.3c0.8,1.1,1.5,2,1.9,2.7l4.7,5.6c0.5,0.5,1.1,1.1,1.8,2c0.8,0.9,1.5,1.9,2.4,2.9c0.8,1.1,1.6,2.1,2.4,3.3
		c0.8,1.1,1.3,2.1,1.6,3.1c1.1,2.9,1.3,6.1,0.8,9.7c-0.5,3.6-0.8,7.1-0.8,10.4v64.4c-0.6,0-0.9-0.1-0.9-0.2c-0.2-0.1-0.2-0.3,0-0.5
		c-0.3,0.8-0.3,1.2-0.1,1.2c0.2,0.1,0.6-0.1,1-0.6v13.8l-0.9-0.9h-0.7v0.9c-0.2,0.2-0.2,0.3-0.2,0.5c-0.2,0.2-0.4,0.2-0.7,0.2
		c-0.2,0.2-0.2,0.4-0.2,0.7c0,0.3,0,0.6-0.1,0.9c-0.1,0.3,0,0.6,0.3,0.9c0.5,0,0.9-0.2,1.2-0.6c0.4-0.4,0.8-0.7,1.2-1
		c0,2.9,0.1,5.6,0.2,8.4c0.1,2.7,0.1,5.3-0.2,7.7c0,2.9-1,5.4-2.9,7.5c-2,2.1-3.9,4.2-5.9,6.3c-1.1,2-2.1,3.7-3.2,5.1
		c-1.1,1.4-2.2,2.8-3.4,4c-1.2-0.3-2.7-0.3-4.4-0.1c-1.7,0.2-3,0.2-3.7-0.1V201c-0.8,0-1.2,0.1-1.5,0.3c-0.2,0.2-0.5,0.5-0.8,0.8
		h-38.9h-10.4c-0.5-0.3-0.8-0.2-1.1,0.2c-0.3,0.5-0.5,0.3-0.5-0.5c-2.9,0.8-6.1,1-9.7,0.7C346.5,202.2,343.2,202.1,340.3,202.1z
		 M368.6,98.8H367v1.6c0.3-0.5,0.6-0.8,1-0.9C368.4,99.3,368.6,99.1,368.6,98.8z M368.6,69c0.3,0.3,0.3,0.5-0.1,0.7
		c-0.4,0.2-0.3,0.5,0.1,0.9c0.8,0,1.2,0.3,1.2,1c0.1,0.7,0.7,0.9,1.9,0.6c0.5,0,0.7-0.3,0.8-0.9c0.1-0.6,0.1-1.1,0.1-1.6
		c-0.8-0.3-1.4-0.4-2-0.3C370,69.4,369.4,69.3,368.6,69z M375.2,85.9c0.8-1.7,0.6-2.9-0.5-3.6c-1.1-0.8-1.7-1.7-2-2.9l-1.6,1.6
		c0.3,0.5,0.8,0.8,1.4,1c0.6,0.2,0.9,0.7,0.9,1.5c-0.8,0.8-1.4,1.1-2,1.1c-0.6,0-1.5,0.5-2.7,1.4c1.7,0.3,2.9,0.2,3.8-0.5
		C373.3,84.9,374.2,85,375.2,85.9z M373.3,53.6c-0.8,0-1.2,0.3-1.5,0.9c-0.2,0.6-0.5,1.1-0.8,1.6c0.3,0,0.8-0.2,1.4-0.7
		C373,55,373.3,54.4,373.3,53.6z M371.1,104.4c1.1,0,1.6-0.3,1.6-0.9c0-0.5-0.3-0.6-0.8-0.6C371.3,103.1,371.1,103.5,371.1,104.4z
		 M375.8,80.3c0.5-0.9,0.5-1.5,0-1.8c-0.5-0.3-0.7-0.3-0.7,0v0.7C375.2,79.4,375.4,79.8,375.8,80.3z M379,75.3
		c-0.3,0-0.9-0.2-1.8-0.6c-0.9-0.4-1.4-0.2-1.4,0.6c0.5,0.5,0.9,0.8,1.4,1c0.5,0.2,0.3,0.7-0.5,1.5c0.8-0.5,1.2-0.9,1.5-1.2
		C378.4,76.2,378.7,75.7,379,75.3z M378.3,115.7c-0.5-0.5-0.6-1-0.5-1.6c0.1-0.6,0-0.9-0.5-0.9c-0.3,0.3-0.4,0.8-0.3,1.5
		C377.1,115.4,377.6,115.7,378.3,115.7z M401.6,69.6c-2.1,0.5-4.5,0.6-7.1,0.5c-2.6-0.1-4.8,0-6.4,0.5c0,17.8,0,34.8,0.1,51.2
		c0.1,16.3,0.3,33.4,0.6,51.2c2.6,0,5.5-0.1,8.8-0.2c3.3-0.1,6-0.6,8.1-1.4l-1.6-23.5c-0.2-2.4-0.5-4.8-0.9-7.1
		c-0.5-2.3-0.7-4.6-0.7-6.7c0-0.1,0.1-0.3,0.2-0.5c0.3-0.3,0.5-0.7,0.5-1.1c0-0.3-0.2-0.5-0.6-0.7c-0.4-0.1-0.2-0.5,0.6-0.9
		c-1.1,0-1.6-0.2-1.6-0.7c0-1.2,0.3-2.6,0.8-4.1c0.5-1.5,0.8-2.9,0.8-4.1c-0.3-3.2-0.8-6.2-1.4-9c-0.6-2.9-0.9-5.7-0.9-8.6
		c0-5.7,0.3-11.3,0.9-16.8C402.4,82.1,402.3,76.1,401.6,69.6z"/>
	<path class="st0" d="M545.1,149.4c0,0.5-0.2,0.9-0.5,1.2c-0.3,0.4-0.5,0.8-0.5,1.2c-0.2,2.4-0.2,5.6-0.2,9.7s0.1,8.3,0.2,12.7
		c0.1,4.4,0.2,8.6,0.2,12.5c0,4-0.1,7.1-0.2,9.4c-0.2,1.7-0.9,2.7-2.1,3.2c-1.3,0.5-2.7,0.7-4.2,0.7c-1.5,0-3-0.1-4.4-0.2
		c-1.4-0.1-2.5,0-3.1,0.5h-33c-1.2,0.3-3.1,0.6-5.7,0.9c-2.6,0.3-4.7,0.2-6.3-0.2c-1.2,0-2.3-0.1-3.2-0.3c-0.9-0.2-1.7-0.3-2.5-0.3
		c-5.3,0.3-10.6,0.5-16,0.5c-5.4,0-10.3-0.1-14.7-0.5c0-5.7-0.1-10.8-0.3-15.3c-0.2-4.4-0.1-9.3,0.3-14.6c1.2,0,2.6-0.1,4.1-0.5
		c1.5-0.3,3.1-0.5,4.7-0.5c0.8,0,1.5,0.3,2.4,0.9c0.8,0.6,1.7,0.9,2.6,0.9c0.3,0.3,0.8,0.5,1.6,0.6c0.8,0.1,1.5,0.1,2.3,0.1h0.9v1.6
		v0.9h-0.9v0.7l-0.5,0.7c-0.2,0.2-0.2,0.5-0.2,1.1l0.7,0.7c1.1,0,1.9-0.5,2.5-1.6l0.9-0.9h-0.9c0-0.5,0.3-0.7,0.9-0.7v-3.2
		c0,0.5,0.5,0.7,1.6,0.7c3.6,0,7.3,0.2,11.2,0.5c3.8,0.3,7.3,0.5,10.5,0.5c0.8,0,1.6-0.1,2.5-0.5c0.9-0.3,1.7-0.5,2.5-0.5
		c1.2,0,2.3,0.2,3.2,0.5c0.9,0.3,2,0.5,3.2,0.5c1.7,0,3.4-0.1,5.3-0.3c1.9-0.2,3.7-0.1,5.3,0.3l-2.5-29.2c-0.5-0.3-0.4-0.5,0.1-0.6
		c0.5-0.1,1-0.1,1.5-0.1c-1.2-0.5-2.2-1.9-2.9-4.4c-0.8-2.5-1.1-4.8-1.1-6.9c0-0.8,0.1-1.4,0.5-2c0.3-0.6,0.5-1.3,0.5-2
		c-2.1-0.8-4.1-1.1-5.9-1c-1.8,0.1-3.9,0.1-6.5,0.1v-0.7v-0.9v-0.7c0-0.6-0.5-0.9-1.6-0.9v0.9c-0.5,0-0.7,0.5-0.7,1.6l0.7,0.7h-2.3
		c0-0.3,0.3-0.5,0.8-0.5c0.5,0,0.6-0.4,0.1-1.1c-0.8-0.3-1.4-0.1-1.9,0.6c-0.5,0.7-0.9,1-1.2,1c-4.8-0.3-10.5-0.2-17.1,0.3
		c-6.6,0.5-12.5,1-17.7,1.5c-1.7-1.7-3-3.4-4-5.3c-1-1.9-2.1-3.7-3.3-5.3c-1.2-1.7-2.8-3.3-4.7-4.9c-2-1.6-3.3-3.4-4.1-5.5
		c-0.5-2.9-0.5-5.7,0-8.5c0.5-2.8,0.7-5.6,0.7-8.5c0-3.8,0-7.4,0-11c0-3.5,0-7.2,0-10.8c0-3.7,0.1-7.6,0.2-11.6
		c0.1-4.1,0.4-8.5,0.7-13.3c6.3,0,11.8,0.2,16.5,0.5c4.7,0.3,10.2,0.5,16.5,0.5l-2.3,41.1c0,0.8-0.2,1-0.6,0.7
		c-0.4-0.3-0.8-0.3-1.2,0c0.9,0.5,1.4,1.1,1.6,1.8c0.1,0.8,0.2,1.6,0.1,2.5c-0.1,0.9-0.2,1.8-0.5,2.8c-0.2,1-0.3,1.8-0.3,2.6
		c5.3,1.7,11.3,2.5,18.2,2.5c6.9,0,13.1-0.6,18.9-1.8c1.2-6.8,1.8-13,1.7-18.5c-0.1-5.6-0.1-11.1-0.1-16.7c0-0.5,0-0.8,0.1-1.1
		c0.1-0.3,0.3-0.2,0.8,0.2c-0.5-0.5-0.6-0.8-0.5-1.1c0.1-0.3,0-0.5-0.5-0.5c0.5-2.9,0.6-5.6,0.3-8.1c-0.2-2.6-0.3-5.2-0.3-7.9
		c4.5-0.5,9.6-0.5,15.3,0s11.3,0.7,17.1,0.7l1.6,8.8c0.5,15.5,0.5,31.8,0.2,48.7C545.7,118.3,545.4,134.4,545.1,149.4z M520.9,118
		l-0.5,0.5c-0.5,0.5-0.3,0.8,0.5,1.1h0.7c0.5-0.3,0.5-0.6,0.2-1C521.5,118.2,521.2,118,520.9,118z M523.2,60.8
		c-1.1,0-1.6,0.5-1.6,1.6C522.7,62.4,523.2,61.9,523.2,60.8z M521.6,123c0,0.3,0.4,0.5,1.2,0.5c0.8,0,1.2-0.1,1.2-0.5
		c-0.5-0.5-0.9-0.6-1.2-0.3C522.5,122.9,522.1,123,521.6,123z M524.8,93.1c0.5,0,1.3-0.5,2.6-1.5c1.3-1,1.5-1.8,0.8-2.6
		c-0.8,0.8-1.5,1.3-2.3,1.7C525.1,91.2,524.8,91.9,524.8,93.1z M527.3,103.5c0.5-0.5,0.5-0.9,0.2-1.5c-0.3-0.5-0.6-0.6-0.9-0.1
		C526.6,103,526.8,103.5,527.3,103.5z"/>
	<path class="st0" d="M551.4,202.8c-0.6-0.2-1-1.3-1.1-3.5c-0.2-2.2-0.2-4.7-0.1-7.7c0.1-2.9,0.2-5.9,0.5-8.8
		c0.2-2.9,0.5-5.2,0.8-6.7c0.1-4.1,0.2-7.9,0.2-11.5c0-3.6,0-7.4,0-11.3c0-3.9,0-8.2-0.1-12.8c-0.1-4.6-0.1-9.9-0.1-15.9V81.8
		c0.1-1.4,0.2-3.8,0.2-7.3c0-3.5,0-7.3,0-11.2c0-3.9,0-7.6,0.1-11c0.1-3.4,0.2-5.7,0.3-6.9c0.1-1.1,1-1.6,2.5-1.6
		c1.5,0,3.2,0.2,5,0.5c1.8,0.3,3.6,0.5,5.3,0.6c1.7,0.1,2.9-0.3,3.5-1c5.3-0.3,10.4-0.5,15.3-0.6c4.9-0.1,10-0.7,15.3-1.9h1.8v0.9
		v0.9l0.2-0.5c0.3-0.3,0.5-0.8,0.5-1.4c6.3,0,13.3-0.6,20.8-1.8c7.5-1.2,15.1-1.7,22.8-1.4c0,5.3-0.4,10.6-1.1,16
		c-0.8,5.4-0.4,10.8,1.1,16.3c-2.3,0.6-4.7,0.9-7.5,1c-2.7,0.1-5.6,0-8.7-0.1c-3.1-0.1-6.3-0.3-9.6-0.3c-3.3-0.1-6.6,0-9.7,0.1
		c-4.4,0.3-8.7,0.6-13.1,1c-4.4,0.4-8.4,0.6-12,0.6c0,4.5,0.2,8.7,0.6,12.4c0.4,3.8,0.7,7.5,1,11.1h-0.7c-0.6,0-1.1,0.2-1.6,0.7v0.9
		c-0.6,0.6-0.8,1-0.5,1.1l0.5,0.5h0.7c0.5,0,0.8-0.1,0.9-0.5c0.1-0.3,0.4-0.7,0.7-1.1v9.7c0,2.9-0.3,5.8-1,8.7
		c-0.7,2.9-0.9,6.2-0.6,9.8c0,0.3,0.1,0.8,0.5,1.6c0.3,0.8,0.5,1.3,0.5,1.6c0.3,3.3,0.2,6.8-0.3,10.5c-0.5,3.7-0.9,7.2-1.2,10.5
		c-0.3,3.6-0.7,7.2-1.1,10.7c-0.5,3.5-0.7,7-0.7,10.3c0.9,1.2,2.7,1.7,5.3,1.5c2.6-0.2,4.9-0.2,6.9,0.1h-0.9l1.8,0.7
		c0,0.8,0.4,0.9,1.1,0.5c0.8-0.5,1.1-0.8,1.1-1.1c2.9,0,5.7-0.1,8.5-0.5c2.8-0.3,5.6-0.5,8.5-0.5c2.6,0,5.1,0,7.7-0.1
		c2.6-0.1,4.8-0.3,6.8-0.6c0.9,0,1.8-0.3,2.6-0.9c0.8-0.6,1.6-0.9,2.4-0.9c1.7,0,3.3,0.2,4.9,0.5c1.6,0.3,3.2,0.5,4.9,0.5
		c-0.5,2.4-0.5,5.1-0.2,8.1c0.3,3,0.1,5.1-0.7,6.3c0.5,2.9,0.6,5.9,0.3,9c-0.2,3.2-0.3,5.8-0.3,7.9c-6.5-0.5-13-0.6-19.7-0.3
		c-6.6,0.2-14,0.3-22.1,0.3c-2.9,0-5.8,0-8.9,0.1c-3.1,0.1-6.1,0.1-8.9,0.1c-1.2,0-3.3,0.1-6.3,0.2c-3,0.1-6.2,0.3-9.6,0.3
		c-3.4,0.1-6.6,0.1-9.5,0.2C554.5,202.9,552.5,202.9,551.4,202.8z M561.8,100.4c-1.1,0-1.6,0.2-1.6,0.7c0,0.6,0.3,0.9,0.9,0.9
		c0.3,0,0.5-0.1,0.6-0.2C561.8,101.6,561.8,101.1,561.8,100.4z M566.8,160c-0.5-0.5-0.9-0.4-1.5,0.1c-0.5,0.5-0.6,1-0.3,1.5
		c0.9,0,1.4-0.2,1.6-0.6C566.7,160.7,566.8,160.3,566.8,160z M566.8,85H565c0,0.5,0.3,0.8,0.9,0.9C566.5,86.1,566.8,85.8,566.8,85z
		 M565.9,158.2c0.8,0,1.3,0.1,1.7,0.2c0.4,0.2,0.3-0.1-0.1-0.9c-0.3,0-0.5,0.1-0.7,0.3C566.6,158.1,566.3,158.2,565.9,158.2z
		 M574,103.5c0-0.5-0.3-0.7-0.9-0.8c-0.6-0.1-1.1-0.1-1.6-0.1c0,1.2,0.5,2.1,1.4,2.8c0.9,0.7,1.5,1.4,1.8,2.1c0.5,0,0.6-0.3,0.5-0.8
		c-0.2-0.5,0-0.8,0.5-0.8c-0.8,0-1.2-0.2-1.4-0.7C574.1,104.9,574,104.3,574,103.5z M574,72.1c-0.5,0-0.8,0.1-0.9,0.3
		c-0.2,0.2-0.4,0.3-0.7,0.3c-0.5,0.9-0.3,1.2,0.5,0.9C573.7,73.4,574,72.9,574,72.1z"/>
	<path class="st0" d="M716.4,177l1.8,24.9c-11.3-0.9-22.1-1.1-32.4-0.5c-10.3,0.6-20.5,0.8-30.6,0.5c0-5.3,0.1-10.6,0.2-15.9
		c0.1-5.3,0.6-10.2,1.4-14.6c1.7-0.5,3.4-0.5,5.3-0.1c1.9,0.4,3.7,0.4,5.3,0.1c0.3-5.3,0.6-10.1,1-14.6c0.4-4.4,0.6-9.3,0.6-14.6
		c0.3-0.8,0.8-0.8,1.5-0.2c0.7,0.6,1.2,0.7,1.7,0.2c0-0.6-0.2-1-0.5-1.1c-0.3-0.1-0.7-0.3-1.1-0.3c-0.5-0.1-0.8-0.1-1.1-0.2
		c-0.3-0.1-0.5-0.3-0.5-0.8c0.3-6.8,0.5-13.8,0.6-21c0.1-7.2,0.1-14.7,0.1-22.4c0-0.6,0.5-0.9,1.6-0.9c0-0.8-0.3-1.1-0.8-1
		c-0.5,0.1-0.8-0.1-0.8-0.6c0-1.2,0-2.3,0.1-3.4c0.1-1.1,0.3-1.8,0.8-2.3c-0.8-2.1-0.9-4.5-0.6-7.2c0.4-2.7,0.6-5.6,0.6-8.8
		c-1.7-0.3-4-0.3-7,0c-3,0.3-5.5,0.3-7.5,0l1.6-29.8c6.5-0.5,13.8-0.5,21.9-0.1c8.1,0.4,15.9,0.1,23.3-0.8c2.9-0.3,5.5-0.6,7.8-1
		c2.3-0.4,5.1-0.6,8.2-0.6v32.3h-19.4c-0.3,15.5-0.6,31.5-1,47.8c-0.4,16.3-0.6,33.2-0.6,50.5c3.3,0.5,6.5,0.6,9.6,0.3
		c3.1-0.2,6.1-0.3,8.9-0.3v4.7h-1.6h-0.7v0.9c0,0.8,0.1,1.2,0.3,1.5c0.2,0.2,0.3,0.6,0.3,1h0.9v-0.9h0.2
		C716.3,177.7,716.4,177.4,716.4,177z M676.2,61.7c0.3,0.3,0.6,0.4,1,0.3c0.4-0.1,0.6-0.5,0.6-1.2c0,0.5-0.3,0.6-0.8,0.5
		C676.4,61.1,676.2,61.3,676.2,61.7z M685,48.6h-1.6c0,0.9,0.4,1.4,1.1,1.4C685.3,50,685.5,49.5,685,48.6z M685.9,80.3l-2.5-1.8
		c0,1.7,0.3,2.7,0.9,3.2c0.6,0.5,1.1,1.1,1.6,1.8c0.3,0,0.5-0.2,0.7-0.6c0.1-0.4,0.5-0.7,0.9-1c-0.8,0-1.2-0.2-1.4-0.6
		C686,80.9,685.9,80.6,685.9,80.3z M685.9,126.1c0.8,0.3,1.2,0.2,1.4-0.3c0.1-0.5,0.2-0.9,0.2-1.2c-0.8,0-1.2,0.2-1.4,0.5
		C686,125.3,685.9,125.7,685.9,126.1z M691.6,85.9c0.3,0.3,0.6,0.3,1,0.1c0.4-0.2,0.6-0.6,0.6-1c-0.8-0.5-1.2-0.5-1.4-0.2
		C691.6,85.1,691.6,85.5,691.6,85.9z M693.1,89.1v-1.6c-0.5,0-0.8,0.1-0.9,0.3c-0.2,0.2-0.4,0.3-0.7,0.3
		C691.6,88.8,692.1,89.1,693.1,89.1z M693.8,64c0.5,0.5,1,0.6,1.6,0.6c0.6-0.1,0.9-0.5,0.9-1.2c-0.3-0.5-0.8-0.5-1.5-0.2
		C694.2,63.4,693.8,63.7,693.8,64z M697.2,189.9c1.1,0,1.6-0.3,1.6-0.9l-0.9-0.9c0,0.5-0.1,0.8-0.3,0.9
		C697.3,189.1,697.2,189.4,697.2,189.9z M703.5,51.1h-1.6V52c0-0.5,0.3-0.6,0.8-0.5C703.3,51.7,703.5,51.6,703.5,51.1z M704.4,192.1
		c0.3-0.3,0.6-0.6,1-0.8c0.4-0.2,0.6-0.7,0.6-1.5c-0.8,0-1.3,0.3-1.7,0.9C703.9,191.4,704,191.8,704.4,192.1z"/>
	<path class="st0" d="M892.2,167.3h0.2c0.3,0,0.5,0.2,0.5,0.7l5.7,34.8H876c-2.1-4.8-3.7-9.6-4.7-14.5c-1.1-4.8-2.4-9.4-4.1-13.8
		c-4.4,0-9.2-0.1-14.6-0.5c-5.3-0.3-10.4-0.5-15.3-0.5c-2.1,4.4-3.5,9-4.2,13.9c-0.7,4.9-1.5,9.8-2.4,14.6c-3.9,0-8,0.2-12.2,0.6
		c-4.2,0.4-8.7,0.2-13.6-0.6l5.7-38.9c0.8,0.8,1.8,0.8,3.2,0c-0.8-0.5-1.4-0.6-1.8-0.5c-0.5,0.2-0.9,0-1.4-0.5
		c1.7-9.6,3.1-19.5,4.2-29.6c1.1-10.1,2.4-20.3,4-30.7l2.5-17.9c0.3-1.7,0.9-3,1.8-4c0.9-1,1.4-2.3,1.4-4c0.8-2.6,1.3-5.2,1.6-7.8
		c0.3-2.6,0.8-5.2,1.6-7.6c1.2-3.6,2.2-7.2,2.9-10.8c0.8-3.6,1.1-7.2,1.1-10.8h6.6c-0.5,0.3-0.8,0.4-0.9,0.2
		c-0.2-0.1-0.5-0.2-0.9-0.2c0,0.8,0.5,1,1.5,0.8c1-0.2,1.8-0.5,2.6-0.8c0.5,0,0.6,0.2,0.5,0.5c-0.2,0.3,0,0.7,0.5,1.1
		c0.3-0.5,0.6-0.8,0.9-0.9c0.3-0.1,0.2-0.4-0.2-0.7h16.3c2.9-0.5,5-0.8,6.6-0.9c1.5-0.1,2.6,1.2,3.2,4.1l2.3,12
		c0.8,1.7,1.4,3.4,1.9,5.3c0.5,1.9,1,3.7,1.5,5.3c0,0.3-0.2,0.4-0.5,0.3c-0.3-0.1-0.5,0-0.5,0.3v0.9c0-0.6-0.3-0.9-0.9-0.9
		c-0.5,0-0.7,0.2-0.7,0.5v0.5l-0.9-0.9v0.9c-0.3,0-0.6,0.1-1,0.2c-0.4,0.2-0.6,0.6-0.6,1.4V69h0.9h0.7l-0.7,0.7l0.7-0.7v0.7
		c-0.5,0.8-0.7,1.3-0.7,1.6v0.9l1.6-0.9v0.5c0,0.3,0.2,0.5,0.7,0.5c0.9,0,1.4-0.3,1.6-0.9c0.1-0.6,0.2-1.1,0.2-1.6V69h-2.5h0.7
		c0.5-0.5,0.9-0.8,1.2-0.9c0.4-0.1,0.6-0.4,0.6-0.7l1.6,5.4c2.7,9.5,4.9,19.2,6.4,29.2c1.6,9.9,3.4,19.9,5.5,29.8
		c0,1.1-0.2,1.6-0.7,1.6c0.8,1.2,1.4,2.7,1.8,4.5c0.5,1.8,0.9,3.5,1.4,5.2c0.5,3.6,1,7.3,1.6,11.1c0.6,3.8,0.9,7.3,0.9,10.6
		C893,165.7,893,166.5,892.2,167.3z M838.9,45.5l-0.7,0.9h1.6h2.3v-0.9l0.9,0.9v-1.6h-0.9v-0.9l-0.7,0.9h-0.9H840
		c-0.2,0-0.3,0.1-0.5,0.2C839.4,45.2,839.2,45.3,838.9,45.5z M843.9,143.1c2,0.3,4.8,0.4,8.5,0.2c3.7-0.1,6.7-0.2,9.2-0.2
		c-1.2-7.2-2.5-14.4-3.7-21.5c-1.3-7.1-3-13.6-5.1-19.7c-1.7,6.5-3.4,13.1-5.1,20C845.9,128.8,844.6,135.9,843.9,143.1z M876,187.4
		h1.8h0.7l2.5,1.6l-0.9-2.5c-0.5-0.5-1.2-0.7-2.3-0.7h-0.9H876l-1.6-0.9v0.9c0.5,0.8,0.8,1.2,0.9,1.4
		C875.4,187.3,875.7,187.4,876,187.4z"/>
	<path class="st0" d="M1004.6,53.6c0,2.7,0,4.6-0.1,5.8c-0.1,1.1-0.2,2-0.3,2.6c-0.2,0.6-0.3,1.2-0.3,1.7c-0.1,0.5-0.1,1.5-0.1,2.8
		c0,0.3,0.1,0.5,0.5,0.5c-2.3,4.2-4.6,8.3-6.9,12.2c-2.3,3.9-4.9,8.2-7.8,12.9c-0.8,1.2-1.4,2.6-1.9,4.1c-0.5,1.5-1.2,2.9-1.9,4.1
		c-1.1,2.1-2.5,4.7-4.2,7.8c-1.7,3.1-3.7,6.4-5.8,9.8l-8.1,12.9c-0.9,1.4-2.4,3.7-4.4,6.9c-2,3.2-4.4,6.9-7,10.8
		c-2.6,4-5.4,8.1-8.1,12.3c-2.8,4.2-5.3,8-7.6,11.3c1.5,0.5,3.4,0.8,5.8,1.1c2.3,0.3,4.5,0.5,6.4,0.5c0.1,0,0.9-0.1,2.4-0.2
		c1.4-0.1,3.2-0.3,5.2-0.5c2-0.1,4.2-0.3,6.4-0.5c2.3-0.1,4.2-0.2,5.9-0.2h14c0.1,0,0.9,0.1,2.4,0.2c1.4,0.2,3,0.3,4.6,0.6
		c1.7,0.2,3.2,0.4,4.6,0.6c1.4,0.2,2.2,0.2,2.4,0.2c1.1,0,1.7-0.1,1.8-0.2v28.2c-1.2-0.3-2.3-0.5-3.3-0.5c-1,0-1.8,0-2.6,0h-18.5
		c-3.6,0-6.2,0-7.7,0c-1.5,0-2.9,0-4.1-0.1c-1.2-0.1-2.9-0.1-5-0.2c-2.1-0.1-5.5-0.2-10.2-0.3c-1.2,0-2.3,0-3.4-0.1
		c-1.1-0.1-2.1,0-3.2,0.3l-0.2,0.5L944,201c-0.8-0.3-1.8-0.5-3.1-0.5c-1.3,0-2.5,0.1-3.5,0.2c-1.8,0-4,0-6.4,0.1
		c-2.5,0.1-4.9,0.2-7.1,0.5c-2.3,0.2-4.2,0.4-5.8,0.6c-1.6,0.2-2.5,0.2-2.6,0.2c-2.3,0-4-0.3-5.1-0.9c-1.1-0.6-1.6-2.6-1.5-6.1
		c0.1-5.7,0.1-9.6,0-11.8c-0.2-2.1-0.2-3.3-0.2-3.6c0-1.8,0.1-2.9,0.2-3.4c0.1-0.9,0.3-1.8,0.3-2.6c0.1-0.8,0.3-1.5,0.6-1.9
		c3.2-6.3,6.7-12.4,10.6-18.3c3.9-5.9,7.5-12,10.8-18.3l21.2-40.5c0.5-0.9,1.4-2.4,2.8-4.5c1.4-2.1,3-4.4,4.7-7
		c1.7-2.6,3.4-5.1,5.1-7.7c1.7-2.6,3-4.8,4.1-6.8c-1.7-0.5-3.4-0.6-5.3-0.6c-1.9,0.1-3.7,0.1-5.3,0.1h-19.4c-0.2,0-1.3,0.1-3.4,0.2
		c-2.1,0.2-4.4,0.3-6.9,0.6c-2.5,0.2-4.7,0.4-6.8,0.6c-2,0.2-3.1,0.2-3.3,0.2c-1.7,0-3.4-0.1-5.1-0.5c-1.7-0.3-3.4-0.9-5.1-1.8
		c0-1.7,0.4-3.1,1.2-4.2c0.8-1.1,1.2-2.3,1.2-3.5c0-0.3-0.2-0.6-0.5-1c-0.3-0.4-0.5-0.7-0.5-1V44.6c0-0.3,0.1-0.7,0.5-1.1
		c0.3-0.5,0.5-0.8,0.5-0.9c0-0.3-0.2-0.8-0.7-1.6c-0.5-0.8-0.7-1.3-0.7-1.6c0-0.6,0.3-1.1,0.9-1.4c0.6-0.3,1.3-0.5,2.1-0.6
		c0.8-0.1,1.6-0.1,2.3-0.1s1.1,0,1.2,0c0.1,0,0.7,0,1.6,0.1c0.9,0.1,1.9,0.2,3.1,0.2c1.1,0.1,2.3,0.2,3.6,0.2
		c1.3,0.1,2.4,0.1,3.3,0.1c-0.2,0.2-0.8,0.4-1.8,0.7c0.5,0.3,0.9,0.3,1.4,0c-0.2,0.5,0,0.9,0.5,1.5c0.5,0.5,0.7,1.2,0.7,1.9
		c0.6-0.3,0.9-0.6,0.8-1c-0.1-0.4,0.3-0.6,1-0.8c-0.3-0.3-0.7-0.6-1.1-1c-0.5-0.4-0.6-0.7-0.5-1c0.1-0.1,0.5-0.2,0.9-0.2
		c4.4,0,7.4,0.2,9,0.7c1.7,0.5,3,0.7,4.1,0.7c0.1,0,0.7,0,1.7-0.1c1-0.1,2.1-0.1,3.3-0.2c1.2-0.1,2.3-0.1,3.3-0.2
		c1-0.1,1.5-0.1,1.7-0.1c2.4,0,4.7,0,6.8,0c2.1,0,4.2,0.3,6.3,0.9c0.5,0.2,0.6,0.5,0.6,1.1c-0.1,0.6,0.3,1.3,1.2,2
		c0.5,0,0.7-0.2,0.7-0.7c0-0.3-0.1-0.6-0.2-0.8c-0.2-0.2-0.3-0.6-0.5-1c3.2-0.1,5.8-0.3,7.8-0.6s3.8-0.5,5.4-0.7s3.1-0.4,4.5-0.6
		c1.4-0.1,3.1-0.2,5.1-0.2c2.4,0,5,0.2,7.8,0.6c2.8,0.4,4.6,1.5,5.5,3.5c0.1,0.5,0.3,1.2,0.3,2.1c0.1,1,0.1,2.1,0.2,3.3
		c0.1,1.2,0.1,2.4,0.1,3.5S1004.6,53.1,1004.6,53.6z M925.9,180.2l0.2-0.2c-0.2-0.3-0.4-0.6-0.7-0.8c-0.3-0.2-0.5-0.3-0.5-0.1
		c-0.8,0.8-1,1.2-0.7,1.4h1.4C925.8,180.4,925.9,180.3,925.9,180.2z M928.2,184.2v-0.5c-0.3-0.3-0.6-0.5-0.9-0.5
		c-0.3,0-0.6,0.1-0.8,0.2c-0.2,0.2-0.5,0.3-0.8,0.5c0.1,0.3,0.4,0.5,0.7,0.6c0.3,0.1,0.5,0.1,0.7,0.1
		C927.5,184.7,927.9,184.5,928.2,184.2z M936.5,163.7v0.7l1.1-0.7l-0.2-0.9C936.8,162.8,936.5,163.1,936.5,163.7z M945.6,151.5
		l-0.2-0.7c-0.8,0.3-1.6,0.7-2.6,1.1c-1,0.5-1.8,1.1-2.4,2h0.9c0.3,0,1-0.3,2.1-1C944.6,152.2,945.3,151.8,945.6,151.5z M955.1,1.8
		h1.8l0.7-1.8h-0.7c2.4,0.5,4.9,0.7,7.3,0.8c2.5,0.1,4.6,0.1,6.2,0.1v27.3c-2.1,0.5-4.3,0.6-6.7,0.3c-2.3-0.2-4.9-0.3-7.8-0.3
		c0-1.1,0.3-1.8,0.9-2.3l0.7-1.8l-1.6,0.9c-0.8,0-1.2,0.3-1.4,1c-0.2,0.7-0.2,1.4-0.2,2.1c-4.2-0.6-8-0.6-11.3,0V12.9
		c0-1.4,0-2.8-0.1-4.4c-0.1-1.6-0.1-3.1,0-4.4c0.1-1.4,0.2-2.4,0.5-3.2c0.2-0.8,0.6-1.1,1.2-0.9h8.1C953.7,1.2,954.5,1.8,955.1,1.8z
		 M981.7,83.7l-0.5-0.5c-1.4,0.3-2.1,0.8-2.3,1.6h1.6c0.1,0,0.4-0.1,0.7-0.5C981.6,84,981.7,83.8,981.7,83.7z M987.4,74.8
		c-0.5,0.3-1,0.7-1.7,1.1s-1.2,0.7-1.5,0.7h-0.7c0.1,0.2,0.6,0.2,1.4,0.2C986.3,76.9,987.1,76.2,987.4,74.8z"/>
	<path class="st0" d="M1162.3,45.5h0.9v-3.2c3.6,0,7.3,0,11-0.1c3.7-0.1,7.6-0.3,11.6-0.8v32.3v42c-3.9,0.5-8.1,0.7-12.7,0.8
		c-4.5,0.1-9.1,0-13.7-0.1c-4.6-0.1-9.2-0.3-13.7-0.5c-4.5-0.1-8.7-0.2-12.4-0.2c-1.1,5.3-1.6,10.6-1.6,16c0,5.4,0.1,10.9,0.5,16.4
		c0.3,5.5,0.6,11.1,0.8,16.7c0.2,5.6,0,11.3-0.6,16.8c-0.3,3.2-0.6,6.3-0.9,9.3c-0.3,3-0.2,6.3,0.2,9.9c-2.4,0-5.1,0-8.1-0.1
		c-3-0.1-6.1-0.1-9.4-0.1c-3.2,0-6.5,0.1-9.7,0.2c-3.2,0.2-6.3,0.5-9.2,0.9V189c0-2.1-0.2-4.3-0.5-6.6c-0.3-2.3-0.5-4.7-0.5-7.2
		c0-0.8,0.1-1.8,0.5-3.3c0.3-1.4,0.5-2.7,0.5-4c0.5-1.7,0.7-3.3,0.8-4.9c0.1-1.6,0.1-3.2,0.1-4.9c0.5,0.6,1,0.9,1.6,0.9
		c0.8,0,1.3-0.1,1.7-0.2c0.4-0.1,0.6-0.6,0.6-1.4h-0.7c0-0.6-0.5-0.9-1.6-0.9h-1.6c0.3-9.5,0.1-19.2-0.7-29
		c-0.8-9.9-0.5-19.8,0.7-29.7c-1.2-4.1-1.5-8.6-0.8-13.7c0.7-5,1.2-10.4,1.5-16.2c0.3-4.5,0.3-8.9,0.1-13.2
		c-0.2-4.3-0.5-8.5-0.8-12.5c3.6,0,7.6,0,12-0.1c4.4-0.1,9-0.3,13.8-0.8c0.5,0,0.7,0.2,0.7,0.5v0.5c-0.3,0-0.5,0.2-0.7,0.6
		c-0.2,0.4-0.5,0.7-0.9,1c-0.2,0.2-0.2,0.3,0,0.5c0,0.6,0.3,1,0.9,1.1h0.7h0.5c0.3,0,0.5-0.2,0.5-0.7c0.3,0,0.4-0.2,0.2-0.6
		c-0.2-0.4-0.2-0.7-0.2-1v-0.9c1.7-0.5,3.3-0.7,4.9-0.8c1.6-0.1,3.4-0.1,5.5-0.1h9.7c0.8,0,1.4,0.2,2,0.6c0.6,0.4,1.3,0.8,2,1.2
		c1.7,0,3.4,0,5.2-0.1c1.8-0.1,3.5-0.3,5.2-0.8v0.9c-0.5,0.5-0.7,1-0.7,1.6l0.7,0.7l0.9-0.7h0.7h0.9
		C1161.8,44.8,1162.3,45,1162.3,45.5z M1101.7,180.8c1.2,0,1.8-0.2,1.8-0.7c-0.9,0-1.4,0-1.6,0.1
		C1101.8,180.3,1101.7,180.5,1101.7,180.8z M1104.2,93.1c0.8-0.5,1.4-0.8,1.8-1.1c0.5-0.3,0.7-1.1,0.7-2.3c-1.2,0-1.9,0.4-2.1,1.1
		C1104.3,91.6,1104.2,92.4,1104.2,93.1z M1115.5,123c1.2,0.3,2,0,2.5-0.9c0.5-0.9,0.7-1.7,0.7-2.5c-1.2,0-1.8,0.3-1.9,1
		C1116.7,121.3,1116.3,122.1,1115.5,123z M1115.5,147.8c0.8,0,1.2-0.2,1.4-0.6c0.1-0.4,0.2-1,0.2-1.9
		C1116,145.4,1115.5,146.2,1115.5,147.8z M1115.5,151c0.5,0,0.8-0.3,1-0.8c0.2-0.5,0.2-0.8-0.1-0.8c0,0.5-0.2,0.8-0.5,0.9
		C1115.7,150.5,1115.5,150.7,1115.5,151z M1117.1,147.8c0.8,0,1.2-0.1,1.4-0.5c0.1-0.3,0.2-0.7,0.2-1.1c-0.3,0-0.5,0.2-0.7,0.6
		C1117.9,147.2,1117.6,147.5,1117.1,147.8z M1118.7,113.9c0.5,0.5,0.8,0.5,1.1,0.2c0.3-0.3,0.2-0.6-0.2-0.9
		C1119,113.3,1118.7,113.5,1118.7,113.9z M1127.7,107.6c0.3,0,0.7-0.2,1.1-0.6c0.5-0.4,0.8-0.7,1.1-1c-0.3,0-0.7,0-1.2-0.1
		c-0.5-0.1-0.6-0.3-0.3-0.8c-0.3,0-0.5,0-0.7,0.1c-0.2,0.1-0.5,0.3-0.9,0.8C1127.4,106,1127.7,106.6,1127.7,107.6z M1152.6,83.4
		c0.5-2.1,0.7-4.3,0.8-6.6c0.1-2.3,0.1-4.7,0.1-7.2c-3.6-0.3-7.5-0.5-11.6-0.7c-4.1-0.1-8.1,0.4-11.9,1.6v10.4
		c3.8,0.8,7.7,1.4,11.8,2C1145.8,83.6,1149.4,83.7,1152.6,83.4z M1134.1,89.1c0.5,0.3,1,0.4,1.6,0.3c0.6-0.1,0.9-0.5,0.9-1.2
		C1134.9,88.2,1134.1,88.5,1134.1,89.1z M1138.1,101.1c0.5,0,0.9,0.1,1.2,0.3c0.4,0.2,0.8,0.1,1.2-0.3c0-0.3-0.3-0.4-0.8-0.3
		c-0.5,0.1-0.8,0-0.8-0.3v-0.9C1138.4,100.1,1138.1,100.6,1138.1,101.1z M1138.1,103.5c0,0.5,0.5,0.8,1.5,0.9c1,0.2,1.3-0.1,1-0.9
		c-0.5-0.5-0.8-0.6-1-0.3C1139.4,103.4,1138.9,103.5,1138.1,103.5z M1142.2,101.1c1.1,0,1.6-0.8,1.6-2.3c-0.8-0.9-1.5-1.1-2.3-0.6
		c-0.8,0.5-1.4,0.9-1.8,1.2c0.8,0,1.2,0.4,1.2,1.1C1141,101.4,1141.4,101.5,1142.2,101.1z M1142.2,95.4v0.9c0,0.3,0.4,0.5,1.2,0.5
		c0.8,0,1.2-0.1,1.2-0.5c-0.5,0-0.8-0.1-1-0.5C1143.4,95.6,1142.9,95.4,1142.2,95.4z M1145.4,102c-0.5,0.5-0.2,0.7,0.9,0.7
		C1146.3,102.2,1146,102,1145.4,102z M1158.2,111.7c0,0.3,0.4,0.3,1.1,0.1c0.8-0.2,0.9-0.6,0.5-1c-0.2-0.1-0.5-0.2-0.9-0.2
		S1158.2,110.9,1158.2,111.7z M1160.7,93.1c0,0.3,0.4,0.5,1.2,0.5c0.8,0,1.2-0.1,1.2-0.5c-0.5,0-0.8-0.1-0.9-0.2
		c-0.3,0-0.6,0-0.8-0.1C1161.3,92.7,1161,92.8,1160.7,93.1z"/>
	<path class="st0" d="M1282.1,106c-0.2,1.2,0,2.3,0.3,3.3c0.4,1,0.8,2.3,1.2,4c0,2.4-0.2,4.9-0.5,7.6c-0.3,2.6-0.5,5.2-0.5,7.8
		c0,4.4,0,8.8,0,13.3s-0.2,9.4-0.7,14.7c-0.3,3.3-0.5,6.3-0.7,8.8c-0.2,2.6,0.1,5.3,0.7,8.1c0,0.5,0.1,1,0.3,1.7
		c0.2,0.7,0.3,1.2,0.3,1.7c0,1.2-0.3,2.4-0.8,3.6c-0.5,1.2-0.8,2.4-0.8,3.6c-0.3,2.9-0.2,5.8,0.5,8.8c0.6,3,0.8,6,0.5,8.8
		c-1.2,0.3-2,0.2-2.4-0.2c-0.4-0.5-0.9-0.7-1.7-0.7c-4.1,0-7.8-0.4-11.1-1.1c-3.3-0.8-6.6-1.1-9.9-1.1c-2.9,0.3-5.8,0.7-8.8,1.1
		c-3,0.5-6,0.3-8.8-0.5c-0.3-0.1-0.5-0.5-0.5-1.1c0-0.6-0.1-1.2-0.2-1.9c-0.2-0.7-0.3-1.4-0.6-2c-0.2-0.7-0.6-1.1-1.2-1.2
		c0.8-0.5,1-1.3,0.8-2.6c-0.2-1.3-0.5-2.3-0.8-3.1c0.8-1.2,0.9-2.6,0.6-4.2c-0.4-1.6-0.6-3.4-0.6-5.5c0-1.2,0.1-2.2,0.3-3.1
		c0.2-0.8,0.3-1.4,0.3-1.7c-0.3-1.2-0.8-1.8-1.4-1.9c-0.6-0.1-0.9-0.6-0.9-1.5c3.2-0.8,6.2-1.1,9.3-0.9c3,0.2,5.6,0.2,7.7,0.2
		c0.8-1.2,1-2.4,0.8-3.7c-0.2-1.3,0-1.9,0.8-1.9c-0.8-4.8-1-10.4-0.8-16.8c0.2-6.4,0.2-12.6-0.1-18.6c-0.5-9.9-0.9-19.5-1.4-28.8
		c-0.5-9.3-0.5-18.2-0.2-26.8c-2.6-0.8-4.7-1.2-6.6-1.2c-1.8-0.1-3.6,0-5.3,0.1c-1.7,0.2-3.5,0.4-5.4,0.7c-1.9,0.3-4.2,0.5-6.9,0.5
		c-0.3,8.4-0.3,16.7,0.1,24.9c0.4,8.1,0.8,16.2,1.2,24.1c0.5,7.9,0.8,15.7,1,23.5c0.2,7.8,0,15.6-0.8,23.4c0.5,0.6,1.1,1,1.8,1.2
		c0.8,0.2,1.5,0.5,2.3,0.7c0.8,0.2,1.4,0.6,2,1c0.6,0.5,1,1.1,1.1,2c-0.3,0-0.8-0.1-1.4-0.3c-0.6-0.2-0.9-0.1-0.9,0.3
		c0.3,2.4,0.6,5,1,7.9c0.4,2.9,0.3,6.1-0.3,9.7c0,0.5-0.1,1.1-0.3,1.8c-0.2,0.8-0.3,1.5-0.3,2.3c0,0.8,0.4,1.5,1.1,2.4
		c0.8,0.8,1.1,1.6,1.1,2.4c-5.7,0.8-11.8,0.9-18.1,0.6c-6.3-0.4-12.1-0.6-17.4-0.6c-1.7-16-2.7-31.8-3.1-47.5
		c-0.4-15.7-0.7-31.3-1-46.8c-0.2-6.5,0.3-13.1,1.5-19.8c1.1-6.7,1.5-13.3,1-19.8c-0.3-4.4-0.8-8.5-1.6-12.3
		c-0.8-3.8-0.8-7.8,0-11.9c10.1,0,20.8,0,32.1-0.1c11.3-0.1,22.1-0.3,32.5-0.6c3.2-0.5,6.3-0.6,9.5-0.3s6.2,1.2,9,2.8
		c0.6,2.4,0.8,4.9,0.7,7.3c-0.2,2.5-0.4,5-0.7,7.5c-0.3,2.5-0.5,5-0.7,7.5c-0.2,2.5,0.1,4.9,0.7,7.3c0,0.9,0.3,1.8,0.9,2.6
		c0.6,0.8,1.1,1.8,1.4,3.1c0.5,2.1,0.2,4.3-0.7,6.7c-0.9,2.3-1.2,4.7-0.9,7.1c0,0.8,0.3,1.4,0.8,2c0.5,0.6,0.8,1.3,0.8,2
		c0,1.7-0.2,3.3-0.6,4.9C1281.8,102.8,1281.8,104.4,1282.1,106z M1205.5,150.3c0,0.3,0.3,0.3,1,0.1c0.7-0.2,0.9-0.6,0.6-1
		C1206,149.4,1205.5,149.7,1205.5,150.3z M1208.6,121.2c0.3-0.3,0.6-0.5,1-0.7c0.4-0.1,0.6-0.5,0.6-0.9c-0.8-0.3-1.3-0.2-1.7,0.3
		C1208.1,120.5,1208.2,120.9,1208.6,121.2z M1211.8,70.5c0-0.8-0.3-1.3-1-1.7c-0.7-0.4-1.4-0.3-2.1,0.1c0,0.8,0.3,1.2,1,1.4
		C1210.3,70.5,1211,70.5,1211.8,70.5z M1208.6,79.4v1.6h1.6C1210.2,79.9,1209.7,79.4,1208.6,79.4z M1210.2,84.1
		c-0.5,0.5-0.2,0.7,0.8,0.7c1,0,1.2-0.2,0.8-0.7c0-0.3-0.2-0.4-0.5-0.2C1211,84,1210.7,84.1,1210.2,84.1z M1215.9,50.4l-3.2,3.8
		c0.8,0,1.7-0.5,2.7-1.4C1216.5,52,1216.6,51.2,1215.9,50.4z M1214.3,63.3c0,0.3,0.1,0.6,0.2,1c0.1,0.4,0.6,0.6,1.4,0.6
		c0.5-0.5,0.5-0.9,0.1-1.5C1215.6,62.9,1215,62.9,1214.3,63.3z M1215.9,113.3c0.5,0.3,1,0.3,1.6,0.1c0.6-0.2,0.9-0.6,0.9-1
		c-0.8,0-1.3-0.4-1.6-1.1c-0.3-0.8-0.8-1.1-1.6-1.1c-0.5,0.8-0.3,1.4,0.3,1.8C1216.2,112.4,1216.3,112.8,1215.9,113.3z
		 M1257.9,182.4c0-0.8,0.1-1.3,0.3-1.6c0.2-0.3,0.3-0.8,0.3-1.6c-0.8-0.3-1.4-0.3-2,0.1c-0.6,0.4-1.5,0.3-2.7-0.1
		c0.3,0.8,0.4,1.2,0.2,1.5c-0.2,0.2-0.2,0.6-0.2,1c0.8,0,1.4,0,2,0.1C1256.5,181.9,1257.1,182.1,1257.9,182.4z M1262,170.4
		c0.3-0.5,0.4-0.9,0.2-1.2c-0.2-0.4-0.2-0.8-0.2-1.2c-1.2,0-1.8,0.5-1.8,1.6c0.5,0,0.8,0.2,0.9,0.5
		C1261.2,170.3,1261.5,170.4,1262,170.4z M1268.3,186.5h-1.6c0,0.5,0.3,0.8,0.8,0.9C1268,187.5,1268.3,187.2,1268.3,186.5z"/>
	<path class="st0" d="M1485.7,77.3c-5.7,7.8-11.9,15.2-18.4,22.1c-6.6,6.9-13.3,13.8-20.2,20.6c7.2,11.3,14.5,22.3,21.8,33.1
		c7.3,10.8,14.6,21.7,21.8,32.7c-5.1,2.1-10,4.5-14.7,7.2c-4.7,2.7-9.4,5.2-14.2,7.5c-1.2-1.7-2.5-3.1-3.8-4.4
		c-1.4-1.3-2.6-2.7-3.6-4.4c-0.8-1.2-1.4-2.4-2-3.6c-0.6-1.2-1.3-2.6-2-4.1c-2.1-4.4-4.8-8.4-8.1-12.1c-3.3-3.7-6.5-7.5-9.5-11.4
		c-0.3-0.3-0.4-0.7-0.4-1.1c0,0.5,0.3,0.7,0.9,0.7h0.4v0.2v1.1l0.7-0.5c0.1-0.1,0.5-0.2,0.9-0.2c0.8-0.1,1.4-0.5,1.8-0.9v-0.7
		l-0.7-0.2c-1.2-0.9-2.4-1.3-3.7-1.1l-0.2,0.2v0.2c-0.1,0.2-0.2,0.3-0.2,0.6c0,0.2,0.1,0.3,0.2,0.3c-0.3-0.3-0.4-0.7-0.4-1.1
		c-3-3-5.7-6.3-8-9.8c-2.3-3.5-4.6-7.1-6.9-10.7c-2.6,0-5.2,0-7.8,0c-2.6,0-4.9-0.1-6.7-0.2c-0.2,3.9-0.3,8.3-0.3,13.1
		c-0.1,4.8-0.2,9.8-0.3,15c-0.2,5.2-0.4,10.4-0.7,15.5c-0.3,5.1-0.8,9.9-1.4,14.5c-6.3-0.3-12.1-0.4-17.2-0.2
		c-5.1,0.2-10.2,0.1-15.1-0.2c0.8-10.5,1.2-22,1.4-34.2c0.1-12.3,0.5-25,1.1-38.3c0.3-6.8,0.3-13.4,0.1-19.8
		c-0.2-6.4,0-12.8,0.6-19.1c0.8,0,1.4-0.1,1.9-0.2c0.5-0.1,0.9-0.1,1,0.2c0.3-0.3,0.1-0.6-0.5-1c-0.6-0.4-1.3-0.6-2-0.6
		c-0.5-2.3-0.4-4.3,0.1-6.2c0.5-1.9,0.5-3.8-0.1-5.8c-0.2-0.6-0.5-1.2-0.9-1.7c-0.5-0.5-0.8-1.2-0.9-1.9c-0.6-2.6-0.6-5.5,0-8.8
		c0.6-3.3,1.1-6.5,1.4-9.5c0-1.2-0.1-2.4-0.2-3.7c-0.2-1.3-0.1-2.6,0.2-4c0.5-0.5,1-0.5,1.7,0s1.3,0.7,1.9,0.7
		c0.5,0,0.9-0.2,1.5-0.7c0.5-0.5,1.2-0.8,1.9-0.9c0.6-0.1,1.2-0.1,1.9,0.1c0.7,0.2,1.4,0.3,2.1,0.3c3,0,6.2-0.2,9.7-0.7
		c3.5-0.5,6.9-0.4,10.2,0.2c0.3,1.4,0.5,2.8,0.6,4.2c0.1,1.4-0.3,2.6-1,3.5c-0.2,0.8,0.1,1.1,0.9,1c0.8-0.1,1.1,0.2,1.1,0.8
		c0.1,3.9,0.1,8.1,0,12.5c-0.2,4.4-0.3,9-0.6,13.8c-0.2,4.7-0.4,9.5-0.5,14.2c-0.1,4.7,0,9.3,0.3,13.7c1.2,0.5,2.5,0.7,3.8,0.7
		c1.3,0,2.9,0.1,4.7,0.2c1.6,0,3.4,0.1,5.3,0.2c1.9,0.2,3.5,0.1,4.8-0.2c0.6-0.3,1.3-0.9,2.2-1.9c0.9-1,1.8-2.1,2.8-3.3
		c1-1.2,1.9-2.4,2.8-3.5c0.9-1.1,1.6-2,2-2.6c4.8-5.9,9.9-11.6,15.2-17.3c5.3-5.7,10.3-11.1,14.8-16.4c4.4,2.9,8.5,5.9,12.3,9.2
		C1477.2,71.4,1481.3,74.5,1485.7,77.3z M1393,126.8c-0.2-0.8-0.2-1.4-0.1-1.9c0.1-0.5,0.2-1,0.3-1.5h-0.9c0.1,0.6,0.1,1-0.2,1.2
		c-0.3,0.2-0.7,0.4-1.1,0.6c-0.5,0.2-0.9,0.3-1.4,0.6s-0.7,0.6-0.7,1c0.9,0.2,1.6,0.2,2,0.1C1391.5,126.9,1392.1,126.8,1393,126.8z
		 M1406.6,119.1c0.3,0.5,0.8,0.9,1.5,1.2c0.7,0.4,1.2,0.2,1.5-0.6c-0.3-0.3-0.8-0.7-1.5-1.1S1406.9,118.4,1406.6,119.1z
		 M1409.3,123.4c0.3,0.2,0.7,0.2,1.2,0c0.5-0.1,0.9-0.4,1-0.7c-0.2,0-0.5,0-1.1,0.1C1409.8,122.9,1409.5,123.1,1409.3,123.4z
		 M1415.1,125.7h2.1c0-0.8,0.6-1.2,1.8-1.5c1.2-0.2,1.7-0.7,1.4-1.5c-0.3,0.5-0.7,0.7-1.1,0.7c0.1-0.9,0-1.5-0.5-1.8
		c-0.5-0.3-0.9-0.6-1.4-0.9c-0.6,0.8-1,1.5-1.3,2.1c-0.3,0.7-1,1-2.1,1c0.4,0.5,0.5,0.9,0.2,1.5c-0.3,0.5-0.5,1.1-0.7,1.7
		c0,0.3,0.4,0.5,1.3,0.5c0.1-0.3,0.1-0.7,0-1.1S1414.8,125.7,1415.1,125.7z M1417.2,115.5v0.9c-0.8,0-1.6,0.2-2.2,0.6
		c-0.6,0.4-0.9,1.2-0.9,2.4c0.6-0.1,1-0.1,1.2,0.2c0.2,0.3,0.5,0.5,0.8,0.7c-0.1-0.8,0.2-1,1-0.8c0.8,0.2,1.2,0,1.2-0.8
		c-0.9-0.6-1.1-1.2-0.6-1.7c0.5-0.5,0.9-1,1-1.5c-0.2,0.2-0.3,0.2-0.5,0.2c-0.2,0-0.2,0.1-0.2,0.2l-0.2-0.2
		C1417.5,115.7,1417.4,115.7,1417.2,115.5z M1431,135.2c0.3,0.3,0.7,0.4,1.1,0.2c0.5-0.1,0.7-0.5,0.7-0.9c0-0.3-0.5-0.5-1.6-0.5
		c0.1,0.3,0.1,0.5,0,0.6C1431.1,134.7,1431,134.9,1431,135.2z M1433.5,111.2c0.5-0.3,0.9-0.5,1.2-0.7c0.4-0.1,0.7-0.5,1-0.9
		c0-0.3-0.1-0.5-0.2-0.5c-0.2,0-0.2-0.1-0.2-0.5c-1.4-0.3-2.3,0.1-2.9,1.1c-0.3,0.8-0.3,1.4-0.1,2c0.2,0.6,0.3,1.3,0.1,2
		c0.3,0.2,0.5,0.1,0.6-0.1c0.1-0.2,0.3-0.3,0.8-0.3C1433.9,113.3,1433.8,112.6,1433.5,111.2z M1437.3,107.2c0.1-0.3,0.3-0.5,0.5-0.7
		c0.1-0.1,0.2-0.4,0.2-0.7c-0.6,0.3-1.5,0.4-2.6,0.2c-1.1-0.1-1.5,0.4-1.2,1.6c0.8,0,1.4-0.1,1.8-0.5
		C1436.4,106.9,1436.9,106.9,1437.3,107.2z"/>
	<path class="st0" d="M1581.8,103.5c-1.7-0.5-3.1-0.5-4.4,0c-1.3,0.5-2.8,0.5-4.4,0c1.2,8.1,2.7,16.3,4.5,24.5
		c1.8,8.2,3.7,16.5,5.5,24.7c1.9,8.3,3.7,16.5,5.5,24.7c1.8,8.2,3.3,16.4,4.5,24.5h-29.2l-7.2-23.5c-1.4-4.4-2.7-8.5-4.1-12.4
		c-1.4-3.9-2.4-7.8-3.2-11.8c0-1.2-0.1-2.1-0.2-2.7c-0.2-0.6-0.1-1.1,0.2-1.4c0-0.5-0.3-0.8-0.8-1c-0.5-0.2-0.8-0.7-0.8-1.5
		c-1.2-6.9-2.5-14-3.7-21.4c-1.3-7.3-3-14.4-5.1-21.4h-7.2c0,8.4,0.3,16.2,0.9,23.2c0.6,7,1.1,14.4,1.4,22c0.5,9,0.5,17.7,0.1,26
		c-0.4,8.3-1.2,16.5-2.4,24.6h-9.7h0.7v-1.6h-0.7h-0.9h-0.7c-0.6,0-0.9,0.2-0.9,0.5c-0.2,0.2-0.2,0.3,0,0.5v0.7h0.9h-5.7
		c-1.7,0-3.4,0.1-5.2,0.3c-1.8,0.2-3.3,0.1-4.5-0.3c-1.4-0.8-2.2-2-2.6-3.6c-0.4-1.7-0.5-3.5-0.5-5.6c0.1-2.1,0.2-4.3,0.5-6.4
		c0.2-2.2,0.3-4.2,0.1-6c0-1.7-0.5-3.2-1.4-4.7c-0.9-1.5-1.5-2.9-1.8-4.1c-0.6-2.4-0.5-5.3,0.3-8.6c0.8-3.3,1.2-6.3,1.2-9
		c0-6.3-0.2-12-0.5-17.1c-0.3-5-0.5-10.4-0.5-16.2c0-3.2-0.1-6.3-0.2-9.5c-0.2-3.2-0.1-6.2,0.2-9c0-0.8,0-1.3-0.1-1.6
		c-0.1-0.3,0.3-0.8,1-1.6c0-0.5-0.2-0.6-0.7-0.6c-0.5,0.1-0.5-0.3-0.2-1c0-7.2,0-15.8,0.1-25.7c0.1-9.9,0.3-19.8,0.8-29.9
		c7.2,0.2,14.7,0.2,22.4,0c7.7-0.1,15.3-0.3,22.9-0.5c7.6-0.1,15-0.3,22.3-0.5c7.2-0.1,14-0.1,20.3,0c-0.8,3.3-0.6,6.3,0.3,8.9
		c1,2.6,1.7,5.6,2.1,8.9c0.3,3.2,0.3,6.6,0,10.4c-0.3,3.8-0.3,7.2,0,10.4c0.1,2.4,0.6,5,1.4,7.8c0.8,2.8,1.2,5.4,1.5,7.9
		c0.2,2.5,0,4.7-0.7,6.6c-0.7,1.9-2.2,3.1-4.6,3.7c-1.2,0.3-2.4,0.2-3.6-0.2C1584.2,103.8,1583,103.5,1581.8,103.5z M1509.2,56.8
		c1.2,0.5,2.1,0.5,2.6,0c0.5-0.5,0.8-0.9,0.8-1.5c0-0.5-0.3-0.8-0.8-0.9c-0.5-0.1-1.2,0.5-1.9,1.7c-0.3,0-0.6-0.1-0.9-0.2
		C1508.7,55.7,1508.8,56,1509.2,56.8z M1509.2,63.3V64c0.3,0,0.6,0.1,1,0.2c0.4,0.2,0.6-0.1,0.6-0.9c0-0.5-0.2-0.6-0.6-0.3
		C1509.8,63.2,1509.5,63.3,1509.2,63.3z M1560.7,76.2c0.5-2.1,0.7-4,0.8-5.7c0.1-1.7,0.1-3.5,0.1-5.6c-3.3-0.5-6.7-0.6-10.3-0.3
		c-3.5,0.2-7.1,0.3-10.7,0.3c-0.5-0.5-0.6-1-0.6-1.6c0.1-0.6-0.3-0.9-1-0.9c-0.5,0.8-0.5,1,0,0.7c0.5-0.3,0.7-0.2,0.7,0.2V64
		c-1.7,0.8-3.1,1.1-4.4,1.1c-1.3,0-2.8,0.2-4.4,0.5c0,1.7,0.1,3.4,0.5,5.3c0.3,1.9,0.5,3.7,0.5,5.3
		C1541.9,76.8,1551.5,76.8,1560.7,76.2z"/>
	<path class="st0" d="M1689.8,194.6c0,1.7,0.2,3.1,0.6,4.3c0.4,1.2,0.2,2.2-0.6,2.9c-4.1,0-8.2,0-12.3,0.1c-4.1,0.1-7.8-0.3-11-1
		c0-0.5-0.3-0.7-0.9-0.7h-0.9h-0.7v0.7c-0.6,0.6-1.7,0.9-3.2,0.9c-0.5-0.5-1.1-0.5-2-0.2c-0.9,0.3-1.4,0.1-1.4-0.7
		c-1.7,0.5-3.4,0.9-5.2,1.4c-1.8,0.5-3.3,0.3-4.5-0.5c-0.3,0-0.7,0-1.1,0.1c-0.5,0.1-0.8,0.1-1.1,0.1c-6.9,0.3-13.3,0.4-19.1,0.2
		c-5.8-0.2-11.6-0.2-17.3-0.2c-0.8-8.1-1.3-15.9-1.7-23.2c-0.4-7.3-0.3-14.4,0.1-21.4c0.5-5.7,0.5-11.5,0.1-17.3
		c-0.4-5.8-0.4-11.3-0.1-16.6c0.1-1.7,0.4-3.2,0.7-4.7c0.3-1.5,0.6-2.9,0.9-4.1c-0.6-1.8-0.9-3.5-1-5.2c-0.1-1.7,0-3.3,0.1-5
		c0.1-1.7,0.2-3.4,0.2-5.1c0-1.7-0.3-3.7-0.9-5.8c0.8-3.8,1.1-8.1,1.1-12.9c0-4.8-0.1-9.7-0.2-14.6c-0.2-4.9-0.1-9.6,0.1-14.1
		s0.9-8.4,2.1-11.5c2.9,0,5.7,0,8.5-0.1c2.8-0.1,5.6-0.3,8.5-0.8c5-0.1,10.2-0.3,15.7-0.5c5.5-0.1,11-0.2,16.4-0.1
		c5.4,0.1,10.8,0.3,16,0.8c5.3,0.5,10.2,1.2,14.9,2.3c0,4.8-0.2,10-0.5,15.6c-0.3,5.6-0.5,10.5-0.5,14.9c-3.6-1.8-7.5-2.9-11.8-3.3
		c-4.2-0.4-8.6-0.5-13.1-0.2c-4.5,0.2-9,0.5-13.6,0.9c-4.5,0.4-8.9,0.5-13.1,0.3c-0.9,5.3-1.2,10.8-1,16.7c0.2,5.9,0.6,11,1,15.4
		c2,0.5,4.2,0.4,6.7-0.1c2.5-0.5,4.8-0.2,6.9,1c0.5-0.5,0.5-0.7,0.1-0.8c-0.4-0.1-0.9-0.1-1.7-0.1c0.5-0.3,1.1-0.4,1.8-0.3
		c0.8,0.1,1,0.5,0.7,1.2c2.9-1.7,6.3-2.5,10.2-2.6c3.9-0.1,7.5-0.3,10.8-0.6c0.5,2.9,0.6,5.6,0.6,8.1c-0.1,2.6-0.2,5.1-0.2,7.7
		c-0.1,2.6-0.2,5.2-0.2,7.8c-0.1,2.6,0.1,5.5,0.6,8.5c-6.5,0.5-12.4,0.8-17.9,1.1c-5.4,0.3-11.5,0.5-18.3,0.5
		c0.8,6.3,0.8,12.5,0.2,18.6c-0.6,6.1-0.7,12.3-0.2,18.6c9.6,0,18.9,0.1,27.9,0.2c9,0.2,17.1,0.1,24.5-0.2c0.3,3.2,0.1,6.9-0.6,11.3
		C1689.4,187,1689.3,191,1689.8,194.6z M1619.5,146.3c-0.5,0.8-0.7,1.3-0.7,1.6h1.6C1620.4,146.8,1620.1,146.3,1619.5,146.3z
		 M1620.4,151c0,0.5,0.4,0.7,1.2,0.7c0.8,0,1.2-0.2,1.2-0.7c-0.5-0.3-0.9-0.4-1.2-0.2C1621.3,150.9,1620.8,151,1620.4,151z
		 M1622.9,121.2c0.5,0,1-0.1,1.6-0.3c0.6-0.2,1.2-0.5,1.7-0.9c0.5-0.4,0.9-0.8,1.1-1.2c0.2-0.5,0.1-0.9-0.3-1.4
		c-0.9,0.8-1.7,1.4-2.5,1.9C1623.7,119.8,1623.2,120.4,1622.9,121.2z M1624.5,130.2c0,1.1,0.5,1.6,1.6,1.6c0.5-0.5,0.5-0.9,0.1-1.5
		C1625.8,129.8,1625.2,129.8,1624.5,130.2z M1626,180.2c0.5,0.3,1,0.3,1.6,0c0.6-0.3,0.9-0.8,0.9-1.6c-0.8,0.3-1.2,0.1-1.5-0.6
		c-0.2-0.7-0.6-1-1-1c-0.5,0.8-0.4,1.4,0.2,1.8C1626.9,179.3,1626.8,179.7,1626,180.2z M1643.9,60.8c-0.6,0-0.9,0.2-0.9,0.5
		c-0.2,0.2-0.2,0.3,0,0.5c0.6,0,0.9,0.5,0.9,1.6c0.5,0,1-0.3,1.6-0.9c-0.5-0.3-0.8-0.5-1.1-0.5C1644,62,1643.9,61.6,1643.9,60.8z
		 M1651.8,43.9c-0.3,0-0.6,0.1-1,0.2c-0.4,0.2-0.6,0.6-0.6,1.4c0.5,0.5,0.9,0.5,1.5,0.1C1652.2,45.2,1652.3,44.6,1651.8,43.9z
		 M1654.3,55.2c0,0.5-0.2,0.9-0.5,1.2c-0.3,0.4-0.5,0.8-0.5,1.2c0.9-0.5,1.5-0.6,1.7-0.5c0.2,0.2,0.5,0,0.8-0.5h-0.5
		c-0.2,0-0.2-0.2-0.2-0.7c-0.2-0.1-0.2-0.3-0.2-0.5C1654.7,55.3,1654.4,55.2,1654.3,55.2z M1655.9,59.2h-2.5c0,0.8,0.5,1.2,1.6,1.5
		C1656,60.9,1656.3,60.5,1655.9,59.2z M1659,54.3c-0.8-0.3-1.4-0.2-1.8,0.3c-0.5,0.5-0.9,1-1.4,1.5c0.5,0,0.6,0.3,0.6,0.8
		c-0.1,0.5,0.3,0.8,1,0.8c0.5-0.5,0.8-0.9,1.1-1.4C1658.9,55.9,1659,55.2,1659,54.3z M1657.5,51.1v1.6c0.5,0,1,0,1.6-0.1
		c0.6-0.1,0.9-0.3,0.9-0.6c-0.5,0-0.8-0.1-1-0.5C1658.7,51.3,1658.2,51.1,1657.5,51.1z M1660.6,57.7c0,0.8,0.1,1.1,0.5,0.9
		c0.3-0.1,0.7-0.2,1.1-0.2C1662.2,57.9,1661.7,57.7,1660.6,57.7z"/>
	<path class="st0" d="M1723.5,38.2c13.3-0.8,26.4-1.5,39.4-2.3c13-0.8,25.7-1.4,37.9-1.8c-0.2,2.4-0.4,5-0.8,7.8
		c-0.4,2.8-0.7,5.6-0.9,8.4c-0.2,2.8-0.3,5.6-0.2,8.4c0.1,2.8,0.5,5.4,1.2,7.8c-2.1,0.6-4.5,1-7.2,1.1c-2.7,0.2-5.6,0.2-8.6,0.1
		c-3-0.1-6.1-0.2-9.2-0.5c-3.1-0.2-6.1-0.5-8.9-0.8h-26.7c-0.3,5.3-0.2,10.4,0.2,15.4s0.7,10.6,0.7,16.9l54.7,2.3l4.1,32.3
		c0.5,0.8,0.3,1.1-0.6,1.1c-0.8,0-1.2,0.5-1,1.4c0.3,6,0.3,11.7-0.1,17.1c-0.4,5.3-0.6,10.7-0.6,15.9c0,1.4,0.1,3.6,0.2,6.7
		c0.1,3.1,0.2,6.3,0.2,9.6c0,3.3-0.2,6.4-0.5,9.3c-0.3,2.9-0.9,4.8-1.8,5.9c-0.5,0.5-2,0.8-4.6,1.1c-2.6,0.3-5.6,0.5-8.9,0.7
		c-3.3,0.1-6.5,0.2-9.6,0.2c-3.1,0-5.3-0.1-6.7-0.2c0-0.8-0.3-1.1-0.9-1.1c-0.6,0-1.1,0-1.4,0h-0.9h-0.9v0.9l0.9,0.2
		c-2.1-0.3-4-0.4-5.5-0.3c-1.6,0.1-3.2,0.1-4.9,0.1h3.2V201c0-0.8-0.2-1.5-0.7-2.1c-0.5-0.7-1.1-1-1.8-1h-0.7l-0.9,0.9l-0.9,0.7v0.9
		v0.7h0.9h0.9v0.9c-4.2-0.1-8.2-0.2-12-0.2c-3.8,0-7.5,0-11.2,0c-3.7,0-7.5,0-11.3,0.1c-3.8,0.1-7.9,0.1-12.3,0.1
		c0-5.3,0-10.8,0.1-16.6c0.1-5.8,0.3-10.7,0.6-14.8c1.2,0.5,2.6,0.5,4.1,0c1.5-0.5,3.1-0.5,4.7,0c1.2,0,2.1,0.3,2.8,0.8
		c0.7,0.5,1.6,0.8,2.8,0.8c1.7,0.5,3.3,0.5,5,0.2c1.7-0.3,3.5-0.4,5.6-0.2c5.7,0.3,11.8,0.7,18.1,1.1c6.3,0.5,12.4,0.1,18.1-1.1
		c0-6.5-0.3-12.7-0.9-18.8c-0.6-6-1.1-12.7-1.4-19.9c-9.5,0.3-19.2,0-29-0.8c-9.9-0.8-19.5-1.6-29-2.4c0-5.3-0.5-10.6-1.4-16
		c-0.9-5.4-1-10.5-0.2-15.4c0-0.9,0.1-1.7,0.3-2.5c0.2-0.8,0.3-1.3,0.3-1.6c0.1-0.9,0.3-2.7,0.3-5.5c0.1-2.8,0.1-6,0.1-9.6
		c0-3.6,0-7.5-0.1-11.5c-0.1-4.1-0.1-7.9-0.1-11.5c0-3.6,0-6.8-0.1-9.5c-0.1-2.7-0.1-4.6-0.1-5.6c0.1-1.4,0.6-2.2,1.4-2.5
		c0.8-0.3,1.8-0.4,3.2-0.2c1.4,0.2,3.1,0.3,5.3,0.3C1717.6,39.1,1720.3,38.8,1723.5,38.2z M1715.3,96.3c0.5,0.3,0.9,0.4,1.5,0.3
		c0.5-0.1,0.6-0.5,0.1-1.2C1715.8,95.4,1715.3,95.7,1715.3,96.3z M1719.4,106.7c0,0.5-0.2,0.8-0.5,1c-0.3,0.2-0.5,0.7-0.5,1.5
		c0.8-0.5,1.2-0.6,1.5-0.5c0.2,0.2,0.6,0,1-0.5c0-0.3-0.2-0.4-0.5-0.3c-0.3,0.1-0.5,0-0.5-0.3v-0.5
		C1720.1,106.9,1719.8,106.7,1719.4,106.7z M1719.4,110.8c-0.5,0.8-0.2,1.1,0.9,1.1c1.1,0,1.6-0.4,1.6-1.1c-0.9-0.3-1.5-0.4-1.7-0.2
		C1719.9,110.7,1719.7,110.8,1719.4,110.8z M1722.5,109.2c0.5-0.5,0.8-0.9,1.1-1.4c0.3-0.5,0.5-1.1,0.5-1.8
		c-0.3-0.8-0.8-0.8-1.5-0.2c-0.7,0.6-1.2,0.9-1.7,0.9c0.5,0.5,0.6,1,0.6,1.6C1721.5,108.9,1721.8,109.2,1722.5,109.2z M1722.5,102.6
		v1.8c0.5,0,1,0,1.7-0.1c0.7-0.1,1.2-0.3,1.5-0.8c-0.8,0-1.3-0.1-1.6-0.5C1723.8,102.8,1723.3,102.6,1722.5,102.6z M1725.7,109.2
		c0,0.6,0.6,0.9,1.8,0.9C1727.5,109.5,1726.9,109.2,1725.7,109.2z M1741.1,118c-0.3,0-0.8,0-1.4,0.1c-0.6,0.1-0.9,0.3-0.9,0.8
		c0.3,0.3,0.8,0.4,1.4,0.3C1740.8,119.2,1741.1,118.8,1741.1,118z M1744.2,100.4c-0.3,0-0.7-0.1-1.1-0.3c-0.5-0.2-0.8-0.1-1.1,0.3
		c-0.5,0.8-0.2,1.1,0.8,1.1C1743.8,101.5,1744.2,101.1,1744.2,100.4z M1744.2,49.5c0.6,0,0.9-0.3,0.9-0.9
		C1744.5,48.2,1744.2,48.5,1744.2,49.5z"/>
</g>
</svg>
