<?xml version="1.0" encoding="utf-8"?>
<!-- Generator: Adobe Illustrator 22.0.1, SVG Export Plug-In . SVG Version: 6.00 Build 0)  -->
<svg version="1.1" id="Layer_1" xmlns="http://www.w3.org/2000/svg" xmlns:xlink="http://www.w3.org/1999/xlink" x="0px" y="0px"
	 viewBox="0 0 2503.9 168.7" style="enable-background:new 0 0 2503.9 168.7;" xml:space="preserve">
<style type="text/css">
	.st0{fill:#FFFFFF;}
</style>
<g>
	<path class="st0" d="M104.1,166.1H75.8c0.5-10.1,0.6-20.9,0.6-32.5c-0.1-11.6,0.3-23.1,1-34.4c-3.8-0.1-7.4-0.2-11-0.2
		c-3.5,0-7.2,0-10.8,0.1c-3.7,0.1-7.6,0.2-11.6,0.3c-4.1,0.2-8.5,0.3-13.3,0.5c1.2,10.4,1.5,21.4,1,32.9
		c-0.5,11.5-0.6,23.2-0.1,34.9c-5.3,0.3-10.4,0.5-15.5,0.6c-5,0.1-9.6,0-13.7-0.3c-1.2-8.6-1.8-17.5-1.7-26.7
		c0.1-9.2,0.1-18.6,0.1-28.2v-5c0-0.8-0.1-1.7-0.3-2.8c-0.2-1.1-0.3-2.1-0.3-2.8c0-3.2,0-6.9-0.1-11.1c-0.1-4.2,0.5-7.8,1.7-10.6
		C1.3,79,1,76.9,0.9,74.4c-0.1-2.6-0.1-5.3-0.1-8.1c0.1,0,0.3-0.1,0.5-0.2c0.3-0.3,0.5-0.8,0.5-1.4H0.8v-4.1
		c-0.3-3.3-0.4-6.4-0.2-9.3c0.1-2.9,0.2-5.7,0.2-8.6c0-3.2-0.1-6.3-0.2-9.5c-0.2-3.2-0.1-6.2,0.2-9c0-1.1,0.3-1.8,0.9-2.3
		c-0.5-1.2-0.6-2-0.5-2.4c0.1-0.4,0-0.9-0.5-1.7c1.1-0.5,1.7-1,1.8-1.7c0.1-0.7,0.1-1.4,0-2.1c-0.2-0.8-0.2-1.5-0.2-2.3
		c0-0.8,0.3-1.4,0.9-2C4.9,9,6.7,8.5,8.5,8.4c1.8-0.1,3.5-0.2,5.2-0.2c2.1,0,4-0.3,5.7-0.8c1.7-0.5,3.3-0.8,5-0.8
		c1.2,0,2.4,0.2,3.5,0.6c1.1,0.4,2.1,0.2,2.8-0.6c-0.3,4.8,0,9.5,0.8,13.9c0.8,4.4,0.9,8.7,0.1,12.8c0,0.8-0.3,1.5-0.8,2.4
		C30.2,36.4,30,37.2,30,38c-0.5,2.1-0.6,4.4-0.3,7c0.2,2.6,0.3,5,0.3,7.5c0.3,2.6,0.5,5,0.6,7.5c0.1,2.4,0.1,5,0.1,7.9
		c7.7,0.8,15.6,1.1,23.8,1.1c8.2,0,16.2-0.4,23.8-1.1c0.5-2.6,0.7-5,0.8-7.3c0.1-2.3,0.1-4.7,0.1-7.1c0-2.9,0.1-5.6,0.2-8.4
		c0.1-2.7,0.1-5.3-0.2-7.9c0-0.8-0.3-1.4-0.9-1.9c-0.6-0.5-0.9-1.2-0.9-1.9c-0.3-2.1-0.2-4.3,0.2-6.7c0.5-2.3,0.7-4.7,0.7-7.1
		c0.5-2.6,0.6-5,0.5-7.2c-0.2-2.3,0-4.4,0.5-6.6c5.7,0,10.8-0.1,15.4-0.2c4.5-0.1,8.8-0.1,12.9,0.2c0.6,1.8,0.3,4.2-0.9,7.2
		c0,0.8,0.4,1.2,1.1,1.2c0.8,0.1,0.9,0.5,0.5,1.2c0,5.7,0.1,11.9,0.3,18.5c0.2,6.6,0.1,13.3-0.3,20.1c0,0.5,0.1,1.1,0.3,1.9
		c0.2,0.8,0.1,1-0.3,0.6c-0.3,0.5-0.2,0.6,0.2,0.5c0.5-0.1,0.7,0,0.7,0.5c-0.5,2-0.7,4.3-0.8,6.9c-0.1,2.6-0.1,5.4-0.1,8.2
		c0,0.8-0.1,1.6-0.3,2.5c-0.2,0.9-0.3,2-0.3,3.2c0,0.5,0.1,0.9,0.3,1.4c0.2,0.5,0.3,1.1,0.3,2c0.5,2.4,0.6,4.9,0.5,7.6
		c-0.2,2.6-0.3,5.2-0.5,7.6c-0.2,5.7-0.3,11.6-0.3,17.7c-0.1,6.1-0.2,12.2-0.3,18.3c-0.2,6.1-0.5,12-1,17.6
		C105.9,156.1,105.1,161.3,104.1,166.1z M10.5,60.6c0.8,0.8,1.3,0.8,1.7,0.1c0.4-0.7,1.2-1,2.4-1c-0.5-0.8-1.2-0.9-2.4-0.5
		S10.5,60.1,10.5,60.6z M13,64.6v0.7h1.6c0-0.3-0.2-0.6-0.6-0.9C13.6,64.1,13.3,64.2,13,64.6z M16.2,71.9h0.9V71
		c-0.6,0-0.9,0.2-0.9,0.5C16,71.6,16,71.7,16.2,71.9z M16.2,61.2c1.1,0,1.6-0.5,1.6-1.6c-0.3,0-0.6,0.1-1,0.2
		C16.4,60,16.2,60.5,16.2,61.2z M19.3,64.6c0,0.8,0.4,1,1.2,0.8c0.8-0.2,1.2-0.5,1.2-0.8c-0.3-0.5-0.6-0.5-0.8-0.1
		C20.8,64.9,20.2,64.9,19.3,64.6z M21.1,72.5v0.9c0.3,0,0.5-0.1,0.7-0.5c0.1-0.3,0.5-0.5,0.9-0.5c0-0.3-0.3-0.5-0.8-0.5
		C21.4,72.1,21.1,72.2,21.1,72.5z M22.7,120.2c0-0.5,0.2-0.8,0.7-0.9c0.5-0.1,0.5-0.4,0-0.7c0-0.5-0.2-0.4-0.7,0.1
		C22.3,119.3,22.3,119.8,22.7,120.2z"/>
	<path class="st0" d="M207.4,71.9c-0.2,1.2,0,2.3,0.3,3.3c0.4,1,0.8,2.3,1.2,4c0,2.4-0.2,4.9-0.5,7.6c-0.3,2.6-0.5,5.2-0.5,7.8
		c0,4.4,0,8.8,0,13.3s-0.2,9.4-0.7,14.7c-0.3,3.3-0.5,6.3-0.7,8.8c-0.2,2.6,0.1,5.3,0.7,8.1c0,0.5,0.1,1,0.3,1.7
		c0.2,0.7,0.3,1.2,0.3,1.7c0,1.2-0.3,2.4-0.8,3.6c-0.5,1.2-0.8,2.4-0.8,3.6c-0.3,2.9-0.2,5.8,0.5,8.8c0.6,3,0.8,6,0.5,8.8
		c-1.2,0.3-2,0.2-2.4-0.2c-0.4-0.5-0.9-0.7-1.7-0.7c-4.1,0-7.8-0.4-11.1-1.1c-3.3-0.8-6.6-1.1-9.9-1.1c-2.9,0.3-5.8,0.7-8.8,1.1
		c-3,0.5-6,0.3-8.8-0.5c-0.3-0.1-0.5-0.5-0.5-1.1c0-0.6-0.1-1.2-0.2-1.9c-0.2-0.7-0.3-1.4-0.6-2c-0.2-0.7-0.6-1.1-1.2-1.2
		c0.8-0.5,1-1.3,0.8-2.6c-0.2-1.3-0.5-2.3-0.8-3.1c0.8-1.2,0.9-2.6,0.6-4.2c-0.4-1.6-0.6-3.4-0.6-5.5c0-1.2,0.1-2.2,0.3-3.1
		c0.2-0.8,0.3-1.4,0.3-1.7c-0.3-1.2-0.8-1.8-1.4-1.9c-0.6-0.1-0.9-0.6-0.9-1.5c3.2-0.8,6.2-1.1,9.3-0.9c3,0.2,5.6,0.2,7.7,0.2
		c0.8-1.2,1-2.4,0.8-3.7c-0.2-1.3,0-1.9,0.8-1.9c-0.8-4.8-1-10.4-0.8-16.8c0.2-6.4,0.2-12.6-0.1-18.6c-0.5-9.9-0.9-19.5-1.4-28.8
		c-0.5-9.3-0.5-18.2-0.2-26.8c-2.6-0.8-4.7-1.2-6.6-1.2c-1.8-0.1-3.6,0-5.3,0.1c-1.7,0.2-3.5,0.4-5.4,0.7c-1.9,0.3-4.2,0.5-6.9,0.5
		c-0.3,8.4-0.3,16.7,0.1,24.9c0.4,8.1,0.8,16.2,1.2,24.1s0.8,15.7,1,23.5c0.2,7.8,0,15.6-0.8,23.4c0.5,0.6,1.1,1,1.8,1.2
		c0.8,0.2,1.5,0.5,2.3,0.7c0.8,0.2,1.4,0.6,2,1c0.6,0.5,1,1.1,1.1,2c-0.3,0-0.8-0.1-1.4-0.3c-0.6-0.2-0.9-0.1-0.9,0.3
		c0.3,2.4,0.6,5,1,7.9c0.4,2.9,0.3,6.1-0.3,9.7c0,0.5-0.1,1.1-0.3,1.8c-0.2,0.8-0.3,1.5-0.3,2.3c0,0.8,0.4,1.5,1.1,2.4
		c0.8,0.8,1.1,1.6,1.1,2.4c-5.7,0.8-11.8,0.9-18.1,0.6c-6.3-0.4-12.1-0.6-17.4-0.6c-1.7-16-2.7-31.8-3.1-47.5
		c-0.4-15.7-0.7-31.3-1-46.8c-0.2-6.5,0.3-13.1,1.5-19.8c1.1-6.7,1.5-13.3,1-19.8c-0.3-4.4-0.8-8.5-1.6-12.3
		c-0.8-3.8-0.8-7.8,0-11.9c10.1,0,20.8,0,32.1-0.1C166,7,176.8,6.9,187.2,6.6c3.2-0.5,6.3-0.6,9.5-0.3s6.2,1.2,9,2.8
		c0.6,2.4,0.8,4.9,0.7,7.3c-0.2,2.5-0.4,5-0.7,7.5c-0.3,2.5-0.5,5-0.7,7.5c-0.2,2.5,0.1,4.9,0.7,7.3c0,0.9,0.3,1.8,0.9,2.6
		c0.6,0.8,1.1,1.8,1.4,3.1c0.5,2.1,0.2,4.3-0.7,6.7c-0.9,2.3-1.2,4.7-0.9,7.1c0,0.8,0.3,1.4,0.8,2c0.5,0.6,0.8,1.3,0.8,2
		c0,1.7-0.2,3.3-0.6,4.9C207.1,68.6,207.1,70.2,207.4,71.9z M130.7,116.2c0,0.3,0.3,0.3,1,0.1c0.7-0.2,0.9-0.6,0.6-1
		C131.3,115.3,130.7,115.6,130.7,116.2z M133.9,87c0.3-0.3,0.6-0.5,1-0.7c0.4-0.1,0.6-0.5,0.6-0.9c-0.8-0.3-1.3-0.2-1.7,0.3
		C133.4,86.3,133.5,86.7,133.9,87z M137.1,36.4c0-0.8-0.3-1.3-1-1.7c-0.7-0.4-1.4-0.3-2.1,0.1c0,0.8,0.3,1.2,1,1.4
		C135.6,36.3,136.3,36.4,137.1,36.4z M133.9,45.2v1.6h1.6C135.5,45.7,135,45.2,133.9,45.2z M135.5,49.9c-0.5,0.5-0.2,0.7,0.8,0.7
		c1,0,1.2-0.2,0.8-0.7c0-0.3-0.2-0.4-0.5-0.2C136.3,49.9,135.9,49.9,135.5,49.9z M141.1,16.3l-3.2,3.8c0.8,0,1.7-0.5,2.7-1.4
		C141.7,17.9,141.9,17,141.1,16.3z M139.6,29.2c0,0.3,0.1,0.6,0.2,1c0.1,0.4,0.6,0.6,1.4,0.6c0.5-0.5,0.5-0.9,0.1-1.5
		C140.9,28.7,140.3,28.7,139.6,29.2z M141.1,79.1c0.5,0.3,1,0.3,1.6,0.1c0.6-0.2,0.9-0.6,0.9-1c-0.8,0-1.3-0.4-1.6-1.1
		c-0.3-0.8-0.8-1.1-1.6-1.1c-0.5,0.8-0.3,1.4,0.3,1.8C141.5,78.2,141.6,78.6,141.1,79.1z M183.2,148.3c0-0.8,0.1-1.3,0.3-1.6
		c0.2-0.3,0.3-0.8,0.3-1.6c-0.8-0.3-1.4-0.3-2,0.1c-0.6,0.4-1.5,0.3-2.7-0.1c0.3,0.8,0.4,1.2,0.2,1.5c-0.2,0.2-0.2,0.6-0.2,1
		c0.8,0,1.4,0,2,0.1C181.7,147.8,182.4,148,183.2,148.3z M187.2,136.3c0.3-0.5,0.4-0.9,0.2-1.2c-0.2-0.4-0.2-0.8-0.2-1.2
		c-1.2,0-1.8,0.5-1.8,1.6c0.5,0,0.8,0.2,0.9,0.5C186.5,136.1,186.8,136.3,187.2,136.3z M193.6,152.3H192c0,0.5,0.3,0.8,0.8,0.9
		C193.3,153.4,193.6,153.1,193.6,152.3z"/>
	<path class="st0" d="M306.1,69.4c-1.7-0.5-3.1-0.5-4.4,0c-1.3,0.5-2.8,0.5-4.4,0c1.2,8.1,2.7,16.3,4.5,24.5
		c1.8,8.2,3.7,16.5,5.5,24.7c1.9,8.3,3.7,16.5,5.5,24.7c1.8,8.2,3.3,16.4,4.5,24.5h-29.2l-7.2-23.5c-1.4-4.4-2.7-8.5-4.1-12.4
		c-1.4-3.9-2.4-7.8-3.2-11.8c0-1.2-0.1-2.1-0.2-2.7c-0.2-0.6-0.1-1.1,0.2-1.4c0-0.5-0.3-0.8-0.8-1c-0.5-0.2-0.8-0.7-0.8-1.5
		c-1.2-6.9-2.5-14-3.7-21.4c-1.3-7.3-3-14.4-5.1-21.4h-7.2c0,8.4,0.3,16.2,0.9,23.2c0.6,7,1.1,14.4,1.4,22c0.5,9,0.5,17.7,0.1,26
		c-0.4,8.3-1.2,16.5-2.4,24.6h-9.7h0.7v-1.6h-0.7h-0.9h-0.7c-0.6,0-0.9,0.2-0.9,0.5c-0.2,0.2-0.2,0.3,0,0.5v0.7h0.9h-5.7
		c-1.7,0-3.4,0.1-5.2,0.3c-1.8,0.2-3.3,0.1-4.5-0.3c-1.4-0.8-2.2-2-2.6-3.6c-0.4-1.7-0.5-3.5-0.5-5.6c0.1-2.1,0.2-4.3,0.5-6.4
		c0.2-2.2,0.3-4.2,0.1-6c0-1.7-0.5-3.2-1.4-4.7c-0.9-1.5-1.5-2.9-1.8-4.1c-0.6-2.4-0.5-5.3,0.3-8.6c0.8-3.3,1.2-6.3,1.2-9
		c0-6.3-0.2-12-0.5-17.1c-0.3-5-0.5-10.4-0.5-16.2c0-3.2-0.1-6.3-0.2-9.5c-0.2-3.2-0.1-6.2,0.2-9c0-0.8,0-1.3-0.1-1.6
		c-0.1-0.3,0.3-0.8,1-1.6c0-0.5-0.2-0.6-0.7-0.6c-0.5,0.1-0.5-0.3-0.2-1c0-7.2,0-15.8,0.1-25.7c0.1-9.9,0.3-19.8,0.8-29.9
		c7.2,0.2,14.7,0.2,22.4,0c7.7-0.1,15.3-0.3,22.9-0.5c7.6-0.1,15-0.3,22.3-0.5c7.2-0.1,14-0.1,20.3,0c-0.8,3.3-0.6,6.3,0.3,8.9
		c1,2.6,1.7,5.6,2.1,8.9c0.3,3.2,0.3,6.6,0,10.4c-0.3,3.8-0.3,7.2,0,10.4c0.1,2.4,0.6,5,1.4,7.8c0.8,2.8,1.2,5.4,1.5,7.9
		c0.2,2.5,0,4.7-0.7,6.6c-0.7,1.9-2.2,3.1-4.6,3.7c-1.2,0.3-2.4,0.2-3.6-0.2C308.5,69.6,307.3,69.4,306.1,69.4z M233.6,22.6
		c1.2,0.5,2.1,0.5,2.6,0c0.5-0.5,0.8-0.9,0.8-1.5c0-0.5-0.3-0.8-0.8-0.9c-0.5-0.1-1.2,0.5-1.9,1.7c-0.3,0-0.6-0.1-0.9-0.2
		C233,21.5,233.1,21.8,233.6,22.6z M233.6,29.2v0.7c0.3,0,0.6,0.1,1,0.2c0.4,0.2,0.6-0.1,0.6-0.9c0-0.5-0.2-0.6-0.6-0.3
		C234.2,29,233.9,29.2,233.6,29.2z M285.1,42c0.5-2.1,0.7-4,0.8-5.7c0.1-1.7,0.1-3.5,0.1-5.6c-3.3-0.5-6.7-0.6-10.3-0.3
		c-3.5,0.2-7.1,0.3-10.7,0.3c-0.5-0.5-0.6-1-0.6-1.6c0.1-0.6-0.3-0.9-1-0.9c-0.5,0.8-0.5,1,0,0.7c0.5-0.3,0.7-0.2,0.7,0.2v0.7
		c-1.7,0.8-3.1,1.1-4.4,1.1c-1.3,0-2.8,0.2-4.4,0.5c0,1.7,0.1,3.4,0.5,5.3c0.3,1.9,0.5,3.7,0.5,5.3C266.3,42.6,275.9,42.6,285.1,42z
		"/>
	<path class="st0" d="M350.6,4.1c13.3-0.8,26.4-1.5,39.4-2.3c13-0.8,25.7-1.4,37.9-1.8c-0.2,2.4-0.4,5-0.8,7.8
		c-0.4,2.8-0.7,5.6-0.9,8.4c-0.2,2.8-0.3,5.6-0.2,8.4c0.1,2.8,0.5,5.4,1.2,7.8c-2.1,0.6-4.5,1-7.2,1.1c-2.7,0.2-5.6,0.2-8.6,0.1
		c-3-0.1-6.1-0.2-9.2-0.5c-3.1-0.2-6.1-0.5-8.9-0.8h-26.7c-0.3,5.3-0.2,10.4,0.2,15.4c0.5,5,0.7,10.6,0.7,16.9l54.7,2.3l4.1,32.3
		c0.5,0.8,0.3,1.1-0.6,1.1c-0.8,0-1.2,0.5-1,1.4c0.3,6,0.3,11.7-0.1,17.1c-0.4,5.3-0.6,10.7-0.6,15.9c0,1.4,0.1,3.6,0.2,6.7
		c0.1,3.1,0.2,6.3,0.2,9.6c0,3.3-0.2,6.4-0.5,9.3c-0.3,2.9-0.9,4.8-1.8,5.9c-0.5,0.5-2,0.8-4.6,1.1c-2.6,0.3-5.6,0.5-8.9,0.7
		c-3.3,0.1-6.5,0.2-9.6,0.2c-3.1,0-5.3-0.1-6.7-0.2c0-0.8-0.3-1.1-0.9-1.1c-0.6,0-1.1,0-1.4,0h-0.9h-0.9v0.9l0.9,0.2
		c-2.1-0.3-4-0.4-5.5-0.3c-1.6,0.1-3.2,0.1-4.9,0.1h3.2v-0.9c0-0.8-0.2-1.5-0.7-2.1c-0.5-0.7-1.1-1-1.8-1h-0.7l-0.9,0.9l-0.9,0.7
		v0.9v0.7h0.9h0.9v0.9c-4.2-0.1-8.2-0.2-12-0.2c-3.8,0-7.5,0-11.2,0c-3.7,0-7.5,0-11.3,0.1c-3.8,0.1-7.9,0.1-12.3,0.1
		c0-5.3,0-10.8,0.1-16.6c0.1-5.8,0.3-10.7,0.6-14.8c1.2,0.5,2.6,0.5,4.1,0c1.5-0.5,3.1-0.5,4.7,0c1.2,0,2.1,0.3,2.8,0.8
		c0.7,0.5,1.6,0.8,2.8,0.8c1.7,0.5,3.3,0.5,5,0.2c1.7-0.3,3.5-0.4,5.7-0.2c5.7,0.3,11.8,0.7,18.1,1.1c6.3,0.5,12.4,0.1,18.1-1.1
		c0-6.5-0.3-12.7-0.9-18.8c-0.6-6-1.1-12.7-1.4-19.9c-9.5,0.3-19.2,0-29-0.8c-9.9-0.8-19.5-1.6-29-2.4c0-5.3-0.5-10.6-1.4-16
		c-0.9-5.4-1-10.5-0.2-15.4c0-0.9,0.1-1.7,0.3-2.5c0.2-0.8,0.3-1.3,0.3-1.6c0.1-0.9,0.3-2.7,0.3-5.5c0.1-2.8,0.1-6,0.1-9.6
		c0-3.6,0-7.5-0.1-11.5C333,29.8,333,26,333,22.4c0-3.6,0-6.8-0.1-9.5c-0.1-2.7-0.1-4.6-0.1-5.6c0.1-1.4,0.6-2.2,1.4-2.5
		c0.8-0.3,1.8-0.4,3.2-0.2c1.4,0.2,3.1,0.3,5.3,0.3C344.8,4.9,347.5,4.7,350.6,4.1z M342.5,62.1c0.5,0.3,0.9,0.4,1.5,0.3
		c0.5-0.1,0.6-0.5,0.1-1.2C343,61.2,342.5,61.5,342.5,62.1z M346.6,72.5c0,0.5-0.2,0.8-0.5,1c-0.3,0.2-0.5,0.7-0.5,1.5
		c0.8-0.5,1.2-0.6,1.5-0.5c0.2,0.2,0.6,0,1-0.5c0-0.3-0.2-0.4-0.5-0.3c-0.3,0.1-0.5,0-0.5-0.3V73C347.3,72.7,347,72.5,346.6,72.5z
		 M346.6,76.6c-0.5,0.8-0.2,1.1,0.9,1.1c1.1,0,1.6-0.4,1.6-1.1c-0.9-0.3-1.5-0.4-1.7-0.2C347.1,76.5,346.9,76.6,346.6,76.6z
		 M349.7,75c0.5-0.5,0.8-0.9,1.1-1.4c0.3-0.5,0.5-1.1,0.5-1.8c-0.3-0.8-0.8-0.8-1.5-0.2c-0.7,0.6-1.2,0.9-1.7,0.9
		c0.5,0.5,0.6,1,0.6,1.6C348.6,74.7,349,75,349.7,75z M349.7,68.5v1.8c0.5,0,1,0,1.7-0.1c0.7-0.1,1.2-0.3,1.5-0.8
		c-0.8,0-1.3-0.1-1.6-0.5C351,68.6,350.5,68.5,349.7,68.5z M352.9,75c0,0.6,0.6,0.9,1.8,0.9C354.7,75.3,354.1,75,352.9,75z
		 M368.3,83.8c-0.3,0-0.8,0-1.4,0.1c-0.6,0.1-0.9,0.3-0.9,0.8c0.3,0.3,0.8,0.4,1.4,0.3C368,85,368.3,84.6,368.3,83.8z M371.4,66.2
		c-0.3,0-0.7-0.1-1.1-0.3s-0.8-0.1-1.1,0.3c-0.5,0.8-0.2,1.1,0.8,1.1C370.9,67.3,371.4,67,371.4,66.2z M371.4,15.4
		c0.6,0,0.9-0.3,0.9-0.9C371.7,14,371.4,14.3,371.4,15.4z"/>
	<path class="st0" d="M480.8,96.7l-4.3,0.7c-4.2-0.1-7.6-0.2-10.1-0.2c-2.5,0-4.8,0-7,0.1c-2.2,0.1-4.6,0.2-7.1,0.2
		c-2.6,0.1-6,0.1-10.4,0.1c0-5.3,0-10.8,0.1-16.6c0.1-5.8,0.3-10.7,0.6-14.8c1.2,0.5,2.6,0.5,4.1,0c1.5-0.5,3.1-0.5,4.7,0
		c1.2,0,2.1,0.3,2.8,0.8c0.7,0.5,1.6,0.8,2.8,0.8c1.7,0.5,3.3,0.5,5,0.2c1.7-0.3,3.5-0.4,5.6-0.2c2.9,0.2,6.3,0.2,10.4,0.1
		c4.1-0.1,8.3-0.2,12.7-0.5c4.4-0.2,8.7-0.5,13-0.7c4.3-0.2,8.1-0.3,11.4-0.3c0,1.5,0.1,3.7,0.3,6.6c0.2,2.9,0.4,5.8,0.6,8.9
		c0.1,3.1,0.1,6-0.2,8.6c-0.3,2.6-0.9,4.5-1.8,5.5c-0.8,0.9-2,1.5-3.6,1.9c-1.7,0.4-3.5,0.6-5.4,0.8c-2,0.2-3.9,0.2-5.9,0.1
		c-2-0.1-3.5-0.2-4.7-0.3c0.1-0.9,0.1-1.4,0-1.6c-0.2-0.1-0.4-0.1-0.8,0c-0.4,0.2-0.9,0.3-1.5,0.6c-0.6,0.2-1.2,0.3-1.8,0.1
		l-0.7,0.5c-1.7-0.3-2.7-0.4-3.2-0.2c-0.5,0.2-1.1,0.2-1.8,0l-0.7-0.2c0.3,0,0.5-0.1,0.7-0.2c0.3-0.3-0.2-0.8-1.6-1.4
		c-0.3-0.8-0.5-0.8-0.7,0C482.2,96.8,481.7,97,480.8,96.7z"/>
	<path class="st0" d="M609,132.2c1.2-1.2,3-1.5,5.4-1c2.4,0.5,4.6,0.6,6.6,0.3v31.4c-5.4,0.2-11.5,0.2-18.1,0
		c-6.6-0.1-13.4-0.3-20.2-0.3c-6.9-0.1-13.7-0.1-20.5,0c-6.8,0.1-13,0.4-18.5,1c-1.4-1.4-2.6-2.9-3.7-4.5c-1.1-1.7-2.2-3.3-3.3-5
		c-1.1-1.7-2.2-3.2-3.4-4.7c-1.2-1.5-2.6-2.9-4.3-4.3c0-0.3,0.3-0.5,1-0.7c0.7-0.1,1.2-0.5,1.5-0.9c-0.3-0.3-0.7-0.3-1.1,0.1
		c-0.5,0.4-0.9,0.3-1.4-0.1c0.9-13.7,1.1-27.6,0.7-41.6c-0.5-14-0.7-29.2-0.7-45.4c0-5.7-0.1-11.4-0.2-17
		c-0.2-5.6-0.1-11.2,0.2-16.9c0.5-2.9,0.7-5.8,0.7-8.7s0.6-5.7,1.8-8.2l33.2-1.6c0.8,0,0.9,0.2,0.6,0.7c-0.4,0.5-0.6,1.1-0.6,1.8
		c-0.5,2.4-0.6,5-0.3,7.8c0.2,2.8,0.5,5.5,0.7,8.1c0.2,2.6,0.2,5.1,0,7.5c-0.2,2.3-0.9,4.2-2.1,5.5c0.5,4.4,1,9.5,1.6,15.3
		c0.6,5.8,0.9,11.7,0.9,17.7c-0.2,1.8-0.5,3.7-0.9,5.8c-0.5,2-0.8,4-1.1,5.9c-0.3,1.9-0.4,3.7-0.3,5.5c0.1,1.8,0.6,3.4,1.7,4.7
		c-1.7,6.8-2.6,13.8-2.8,21.1c-0.2,7.3-0.9,14.2-2.1,20.7c7.5,1.5,15.2,2,23.1,1.6C590.6,133.3,599.3,132.8,609,132.2z M539.6,11.3
		c0-0.3,0-0.6-0.1-0.9c-0.1-0.3-0.3-0.2-0.8,0.2c-0.3,0-0.3,0.1-0.1,0.3C538.8,11.2,539.1,11.3,539.6,11.3z M550,86.3h-1.6v1.6
		C549.4,87.9,550,87.4,550,86.3z M550,56.5c0.5,0.8,0.5,1.2,0,1.2c-0.5,0.1-0.7,0.5-0.7,1.2c1.1-0.5,1.7-0.3,1.9,0.5
		c0.2,0.8,0.9,1.1,2.1,1.1c0.3-0.5,0.5-1,0.6-1.7c0.1-0.7,0.1-1.2,0.1-1.5c-0.8-0.5-1.4-0.6-2-0.5C551.4,57.1,550.7,57,550,56.5z
		 M556.5,74.1c0.8-2,0.6-3.3-0.5-4.1c-1.1-0.8-2-1.5-2.7-2.3h-0.5c-0.3,0-0.5,0.2-0.5,0.7l2.5,2.5c-0.8,0.8-1.6,1.2-2.5,1.2
		c-0.9,0.1-1.7,0.7-2.5,1.9c1.7,0,3-0.3,4-0.9C554.9,72.6,555.8,72.9,556.5,74.1z M554.9,41.1c-0.8,0-1.3,0.3-1.6,0.9
		c-0.3,0.6-0.9,1.1-1.8,1.6c0.9,0.3,1.7,0.3,2.4-0.1C554.6,43.1,554.9,42.3,554.9,41.1z M552.5,92c1.1,0,1.6-0.3,1.6-0.9
		C553,91.1,552.5,91.4,552.5,92z M556.5,67.8c0.8-0.5,0.9-0.8,0.5-1.1c-0.5-0.3-0.9-0.5-1.4-0.5c0.3,0.3,0.5,0.5,0.5,0.7
		c0,0.2,0.1,0.3,0.2,0.5C556.3,67.5,556.4,67.7,556.5,67.8z M556.5,63.7c0.8,0,1.3,0.1,1.7,0.2c0.4,0.2,0.3,0.6-0.1,1.4
		c0.8,0,1.2-0.1,1.5-0.5c0.2-0.3,0.6-0.7,1-1.1c-0.8-0.5-1.5-0.9-2.4-1.2C557.4,62.1,556.8,62.5,556.5,63.7z M559.7,103.3
		c-0.3-0.5-0.4-1-0.3-1.6c0.1-0.6,0-0.9-0.3-0.9c-0.5,0.5-0.6,1-0.6,1.6C558.5,103,558.9,103.3,559.7,103.3z"/>
	<path class="st0" d="M720.4,133.1h0.2c0.3,0,0.5,0.2,0.5,0.7l5.7,34.8h-22.6c-2.1-4.8-3.7-9.6-4.7-14.5c-1.1-4.8-2.4-9.4-4.1-13.8
		c-4.4,0-9.2-0.1-14.6-0.5c-5.4-0.3-10.4-0.5-15.3-0.5c-2.1,4.4-3.5,9-4.2,13.9c-0.7,4.9-1.5,9.8-2.4,14.6c-3.9,0-8,0.2-12.2,0.6
		c-4.2,0.4-8.7,0.2-13.6-0.6l5.6-38.9c0.8,0.8,1.8,0.8,3.2,0c-0.8-0.5-1.4-0.6-1.8-0.5c-0.5,0.2-0.9,0-1.4-0.5
		c1.7-9.6,3.1-19.5,4.2-29.6c1.1-10.1,2.4-20.3,4-30.7l2.5-17.9c0.3-1.7,0.9-3,1.8-4c0.9-1,1.4-2.3,1.4-4c0.8-2.6,1.3-5.2,1.6-7.8
		c0.3-2.6,0.8-5.2,1.6-7.6c1.2-3.6,2.2-7.2,2.9-10.8c0.8-3.6,1.1-7.2,1.1-10.8h6.6c-0.5,0.3-0.8,0.4-0.9,0.2C665.3,5,665,5,664.5,5
		c0,0.8,0.5,1,1.5,0.8c1-0.2,1.8-0.5,2.6-0.8c0.5,0,0.6,0.2,0.5,0.5c-0.2,0.3,0,0.7,0.5,1.1c0.3-0.5,0.6-0.8,0.9-0.9
		c0.3-0.1,0.2-0.4-0.2-0.7h16.3c2.9-0.5,5-0.8,6.6-0.9c1.5-0.1,2.6,1.2,3.2,4.1l2.3,12c0.8,1.7,1.4,3.4,1.9,5.3
		c0.5,1.9,1,3.7,1.5,5.3c0,0.3-0.2,0.4-0.5,0.3c-0.3-0.1-0.5,0-0.5,0.3v0.9c0-0.6-0.3-0.9-0.9-0.9c-0.5,0-0.7,0.2-0.7,0.5v0.5
		l-0.9-0.9v0.9c-0.3,0-0.6,0.1-1,0.2c-0.4,0.2-0.6,0.6-0.6,1.4v0.9h0.9h0.7l-0.7,0.7l0.7-0.7v0.7c-0.5,0.8-0.7,1.3-0.7,1.6V38
		l1.6-0.9v0.5c0,0.3,0.2,0.5,0.7,0.5c0.9,0,1.4-0.3,1.6-0.9c0.1-0.6,0.2-1.1,0.2-1.6v-0.7h-2.5h0.7c0.5-0.5,0.9-0.8,1.2-0.9
		c0.4-0.1,0.6-0.4,0.6-0.7l1.6,5.4c2.7,9.5,4.9,19.2,6.4,29.2c1.6,9.9,3.4,19.9,5.5,29.8c0,1.1-0.2,1.6-0.7,1.6
		c0.8,1.2,1.4,2.7,1.8,4.5s0.9,3.5,1.4,5.2c0.5,3.6,1,7.3,1.6,11.1c0.6,3.8,0.9,7.3,0.9,10.6C721.1,131.5,721.1,132.4,720.4,133.1z
		 M667,11.3l-0.7,0.9h1.6h2.3v-0.9l0.9,0.9v-1.6h-0.9V9.7l-0.7,0.9h-0.9h-0.5c-0.2,0-0.3,0.1-0.5,0.2C667.6,11,667.3,11.2,667,11.3z
		 M672,108.9c2,0.3,4.8,0.4,8.5,0.2c3.7-0.1,6.7-0.2,9.2-0.2c-1.2-7.2-2.5-14.4-3.7-21.5c-1.3-7.1-3-13.6-5.1-19.7
		c-1.7,6.5-3.4,13.1-5.1,20C674,94.7,672.8,101.7,672,108.9z M704.1,153.2h1.8h0.7l2.5,1.6l-0.9-2.5c-0.5-0.5-1.2-0.7-2.3-0.7H705
		h-0.9l-1.6-0.9v0.9c0.5,0.8,0.8,1.2,0.9,1.4C703.6,153.2,703.8,153.2,704.1,153.2z"/>
	<path class="st0" d="M777.5,96.7l-4.3,0.7c-4.2-0.1-7.6-0.2-10.1-0.2c-2.5,0-4.8,0-7,0.1c-2.2,0.1-4.6,0.2-7.1,0.2
		c-2.6,0.1-6,0.1-10.4,0.1c0-5.3,0-10.8,0.1-16.6c0.1-5.8,0.3-10.7,0.6-14.8c1.2,0.5,2.6,0.5,4.1,0c1.5-0.5,3.1-0.5,4.7,0
		c1.2,0,2.1,0.3,2.8,0.8c0.7,0.5,1.6,0.8,2.8,0.8c1.7,0.5,3.3,0.5,5,0.2c1.7-0.3,3.5-0.4,5.7-0.2c2.9,0.2,6.3,0.2,10.4,0.1
		c4.1-0.1,8.3-0.2,12.7-0.5c4.4-0.2,8.7-0.5,13-0.7c4.3-0.2,8.1-0.3,11.4-0.3c0,1.5,0.1,3.7,0.3,6.6c0.2,2.9,0.4,5.8,0.6,8.9
		c0.1,3.1,0.1,6-0.2,8.6c-0.3,2.6-0.9,4.5-1.8,5.5c-0.8,0.9-2,1.5-3.6,1.9c-1.7,0.4-3.5,0.6-5.4,0.8c-2,0.2-3.9,0.2-5.9,0.1
		c-2-0.1-3.5-0.2-4.7-0.3c0.1-0.9,0.1-1.4,0-1.6c-0.2-0.1-0.4-0.1-0.8,0c-0.4,0.2-0.9,0.3-1.5,0.6c-0.6,0.2-1.2,0.3-1.8,0.1
		l-0.7,0.5c-1.7-0.3-2.7-0.4-3.2-0.2c-0.5,0.2-1.1,0.2-1.8,0l-0.7-0.2c0.3,0,0.5-0.1,0.7-0.2c0.3-0.3-0.2-0.8-1.6-1.4
		c-0.3-0.8-0.5-0.8-0.7,0C779,96.8,778.5,97,777.5,96.7z"/>
	<path class="st0" d="M905.7,132.2c1.2-1.2,3-1.5,5.4-1c2.4,0.5,4.6,0.6,6.6,0.3v31.4c-5.4,0.2-11.5,0.2-18.1,0
		c-6.6-0.1-13.4-0.3-20.2-0.3c-6.9-0.1-13.7-0.1-20.5,0c-6.8,0.1-13,0.4-18.5,1c-1.4-1.4-2.6-2.9-3.7-4.5c-1.1-1.7-2.2-3.3-3.3-5
		c-1.1-1.7-2.2-3.2-3.4-4.7c-1.2-1.5-2.6-2.9-4.3-4.3c0-0.3,0.3-0.5,1-0.7c0.7-0.1,1.2-0.5,1.5-0.9c-0.3-0.3-0.7-0.3-1.1,0.1
		c-0.5,0.4-0.9,0.3-1.4-0.1c0.9-13.7,1.1-27.6,0.7-41.6c-0.5-14-0.7-29.2-0.7-45.4c0-5.7-0.1-11.4-0.2-17
		c-0.2-5.6-0.1-11.2,0.2-16.9c0.5-2.9,0.7-5.8,0.7-8.7s0.6-5.7,1.8-8.2l33.2-1.6c0.8,0,0.9,0.2,0.6,0.7c-0.4,0.5-0.6,1.1-0.6,1.8
		c-0.5,2.4-0.6,5-0.3,7.8c0.2,2.8,0.5,5.5,0.7,8.1c0.2,2.6,0.2,5.1,0,7.5c-0.2,2.3-0.9,4.2-2.1,5.5c0.5,4.4,1,9.5,1.6,15.3
		c0.6,5.8,0.9,11.7,0.9,17.7c-0.2,1.8-0.5,3.7-0.9,5.8c-0.5,2-0.8,4-1.1,5.9c-0.3,1.9-0.4,3.7-0.3,5.5c0.1,1.8,0.6,3.4,1.7,4.7
		c-1.7,6.8-2.6,13.8-2.8,21.1c-0.2,7.3-0.9,14.2-2.1,20.7c7.5,1.5,15.2,2,23.1,1.6C887.3,133.3,896,132.8,905.7,132.2z M836.3,11.3
		c0-0.3,0-0.6-0.1-0.9c-0.1-0.3-0.3-0.2-0.8,0.2c-0.3,0-0.3,0.1-0.1,0.3C835.5,11.2,835.9,11.3,836.3,11.3z M846.7,86.3h-1.6v1.6
		C846.2,87.9,846.7,87.4,846.7,86.3z M846.7,56.5c0.5,0.8,0.5,1.2,0,1.2c-0.5,0.1-0.7,0.5-0.7,1.2c1.1-0.5,1.7-0.3,1.9,0.5
		c0.2,0.8,0.9,1.1,2.1,1.1c0.3-0.5,0.5-1,0.6-1.7c0.1-0.7,0.1-1.2,0.1-1.5c-0.8-0.5-1.4-0.6-2-0.5C848.1,57.1,847.5,57,846.7,56.5z
		 M853.3,74.1c0.8-2,0.6-3.3-0.5-4.1c-1.1-0.8-2-1.5-2.7-2.3h-0.5c-0.3,0-0.5,0.2-0.5,0.7l2.5,2.5c-0.8,0.8-1.6,1.2-2.5,1.2
		c-0.9,0.1-1.7,0.7-2.5,1.9c1.7,0,3-0.3,4-0.9C851.6,72.6,852.5,72.9,853.3,74.1z M851.7,41.1c-0.8,0-1.3,0.3-1.6,0.9
		c-0.3,0.6-0.9,1.1-1.8,1.6c0.9,0.3,1.7,0.3,2.4-0.1C851.3,43.1,851.7,42.3,851.7,41.1z M849.2,92c1.1,0,1.6-0.3,1.6-0.9
		C849.7,91.1,849.2,91.4,849.2,92z M853.3,67.8c0.8-0.5,0.9-0.8,0.5-1.1c-0.5-0.3-0.9-0.5-1.4-0.5c0.3,0.3,0.5,0.5,0.5,0.7
		c0,0.2,0.1,0.3,0.2,0.5C853,67.5,853.1,67.7,853.3,67.8z M853.3,63.7c0.8,0,1.3,0.1,1.7,0.2c0.4,0.2,0.3,0.6-0.1,1.4
		c0.8,0,1.2-0.1,1.5-0.5c0.2-0.3,0.6-0.7,1-1.1c-0.8-0.5-1.5-0.9-2.4-1.2C854.1,62.1,853.6,62.5,853.3,63.7z M856.4,103.3
		c-0.3-0.5-0.4-1-0.3-1.6c0.1-0.6,0-0.9-0.3-0.9c-0.5,0.5-0.6,1-0.6,1.6C855.3,103,855.7,103.3,856.4,103.3z"/>
	<path class="st0" d="M1005.6,71.9c-0.2,1.2,0,2.3,0.3,3.3c0.4,1,0.8,2.3,1.2,4c0,2.4-0.2,4.9-0.5,7.6c-0.3,2.6-0.5,5.2-0.5,7.8
		c0,4.4,0,8.8,0,13.3s-0.2,9.4-0.7,14.7c-0.3,3.3-0.5,6.3-0.7,8.8c-0.2,2.6,0.1,5.3,0.7,8.1c0,0.5,0.1,1,0.3,1.7
		c0.2,0.7,0.3,1.2,0.3,1.7c0,1.2-0.3,2.4-0.8,3.6c-0.5,1.2-0.8,2.4-0.8,3.6c-0.3,2.9-0.2,5.8,0.5,8.8c0.6,3,0.8,6,0.5,8.8
		c-1.2,0.3-2,0.2-2.4-0.2c-0.4-0.5-0.9-0.7-1.7-0.7c-4.1,0-7.8-0.4-11.1-1.1c-3.3-0.8-6.6-1.1-9.9-1.1c-2.9,0.3-5.8,0.7-8.8,1.1
		c-3,0.5-6,0.3-8.8-0.5c-0.3-0.1-0.5-0.5-0.5-1.1c0-0.6-0.1-1.2-0.2-1.9c-0.2-0.7-0.3-1.4-0.6-2c-0.2-0.7-0.6-1.1-1.2-1.2
		c0.8-0.5,1-1.3,0.8-2.6c-0.2-1.3-0.5-2.3-0.8-3.1c0.8-1.2,0.9-2.6,0.6-4.2c-0.4-1.6-0.6-3.4-0.6-5.5c0-1.2,0.1-2.2,0.3-3.1
		c0.2-0.8,0.3-1.4,0.3-1.7c-0.3-1.2-0.8-1.8-1.4-1.9c-0.6-0.1-0.9-0.6-0.9-1.5c3.2-0.8,6.2-1.1,9.3-0.9c3,0.2,5.6,0.2,7.7,0.2
		c0.8-1.2,1-2.4,0.8-3.7c-0.2-1.3,0-1.9,0.8-1.9c-0.8-4.8-1-10.4-0.8-16.8c0.2-6.4,0.2-12.6-0.1-18.6c-0.5-9.9-0.9-19.5-1.4-28.8
		c-0.5-9.3-0.5-18.2-0.2-26.8c-2.6-0.8-4.7-1.2-6.6-1.2c-1.8-0.1-3.6,0-5.3,0.1c-1.7,0.2-3.5,0.4-5.4,0.7c-1.9,0.3-4.2,0.5-6.9,0.5
		c-0.3,8.4-0.3,16.7,0.1,24.9c0.4,8.1,0.8,16.2,1.2,24.1c0.5,7.9,0.8,15.7,1,23.5c0.2,7.8,0,15.6-0.8,23.4c0.5,0.6,1.1,1,1.8,1.2
		c0.8,0.2,1.5,0.5,2.3,0.7c0.8,0.2,1.4,0.6,2,1c0.6,0.5,1,1.1,1.1,2c-0.3,0-0.8-0.1-1.4-0.3c-0.6-0.2-0.9-0.1-0.9,0.3
		c0.3,2.4,0.6,5,1,7.9c0.4,2.9,0.3,6.1-0.3,9.7c0,0.5-0.1,1.1-0.3,1.8c-0.2,0.8-0.3,1.5-0.3,2.3c0,0.8,0.4,1.5,1.1,2.4
		c0.8,0.8,1.1,1.6,1.1,2.4c-5.7,0.8-11.8,0.9-18.1,0.6c-6.3-0.4-12.1-0.6-17.4-0.6c-1.7-16-2.7-31.8-3.1-47.5
		c-0.4-15.7-0.7-31.3-1-46.8c-0.2-6.5,0.3-13.1,1.5-19.8c1.1-6.7,1.5-13.3,1-19.8c-0.3-4.4-0.8-8.5-1.6-12.3
		c-0.8-3.8-0.8-7.8,0-11.9c10.1,0,20.8,0,32.1-0.1c11.3-0.1,22.1-0.3,32.5-0.6c3.2-0.5,6.3-0.6,9.5-0.3s6.2,1.2,9,2.8
		c0.6,2.4,0.8,4.9,0.7,7.3c-0.2,2.5-0.4,5-0.7,7.5c-0.3,2.5-0.5,5-0.7,7.5c-0.2,2.5,0.1,4.9,0.7,7.3c0,0.9,0.3,1.8,0.9,2.6
		c0.6,0.8,1.1,1.8,1.4,3.1c0.5,2.1,0.2,4.3-0.7,6.7c-0.9,2.3-1.2,4.7-0.9,7.1c0,0.8,0.3,1.4,0.8,2c0.5,0.6,0.8,1.3,0.8,2
		c0,1.7-0.2,3.3-0.6,4.9C1005.3,68.6,1005.3,70.2,1005.6,71.9z M929,116.2c0,0.3,0.3,0.3,1,0.1c0.7-0.2,0.9-0.6,0.6-1
		C929.5,115.3,929,115.6,929,116.2z M932.1,87c0.3-0.3,0.6-0.5,1-0.7c0.4-0.1,0.6-0.5,0.6-0.9c-0.8-0.3-1.3-0.2-1.7,0.3
		C931.6,86.3,931.7,86.7,932.1,87z M935.3,36.4c0-0.8-0.3-1.3-1-1.7c-0.7-0.4-1.4-0.3-2.1,0.1c0,0.8,0.3,1.2,1,1.4
		C933.8,36.3,934.5,36.4,935.3,36.4z M932.1,45.2v1.6h1.6C933.7,45.7,933.2,45.2,932.1,45.2z M933.7,49.9c-0.5,0.5-0.2,0.7,0.8,0.7
		c1,0,1.2-0.2,0.8-0.7c0-0.3-0.2-0.4-0.5-0.2C934.5,49.9,934.2,49.9,933.7,49.9z M939.4,16.3l-3.2,3.8c0.8,0,1.7-0.5,2.7-1.4
		C940,17.9,940.1,17,939.4,16.3z M937.8,29.2c0,0.3,0.1,0.6,0.2,1c0.1,0.4,0.6,0.6,1.4,0.6c0.5-0.5,0.5-0.9,0.1-1.5
		C939.1,28.7,938.5,28.7,937.8,29.2z M939.4,79.1c0.5,0.3,1,0.3,1.6,0.1c0.6-0.2,0.9-0.6,0.9-1c-0.8,0-1.3-0.4-1.6-1.1
		c-0.3-0.8-0.8-1.1-1.6-1.1c-0.5,0.8-0.3,1.4,0.3,1.8C939.7,78.2,939.8,78.6,939.4,79.1z M981.4,148.3c0-0.8,0.1-1.3,0.3-1.6
		c0.2-0.3,0.3-0.8,0.3-1.6c-0.8-0.3-1.4-0.3-2,0.1c-0.6,0.4-1.5,0.3-2.7-0.1c0.3,0.8,0.4,1.2,0.2,1.5c-0.2,0.2-0.2,0.6-0.2,1
		c0.8,0,1.4,0,2,0.1C980,147.8,980.6,148,981.4,148.3z M985.5,136.3c0.3-0.5,0.4-0.9,0.2-1.2c-0.2-0.4-0.2-0.8-0.2-1.2
		c-1.2,0-1.8,0.5-1.8,1.6c0.5,0,0.8,0.2,0.9,0.5C984.7,136.1,985,136.3,985.5,136.3z M991.8,152.3h-1.6c0,0.5,0.3,0.8,0.8,0.9
		C991.5,153.4,991.8,153.1,991.8,152.3z"/>
	<path class="st0" d="M1081.7,142.8l1.8,24.9c-11.3-0.9-22.1-1.1-32.4-0.5c-10.3,0.6-20.5,0.8-30.6,0.5c0-5.3,0.1-10.6,0.2-15.9
		c0.1-5.3,0.6-10.2,1.4-14.6c1.7-0.5,3.4-0.5,5.3-0.1c1.9,0.4,3.7,0.4,5.3,0.1c0.3-5.3,0.6-10.1,1-14.6c0.4-4.4,0.6-9.3,0.6-14.6
		c0.3-0.8,0.8-0.8,1.5-0.2c0.7,0.6,1.2,0.7,1.7,0.2c0-0.6-0.2-1-0.5-1.1c-0.3-0.1-0.7-0.3-1.1-0.3c-0.5-0.1-0.8-0.1-1.1-0.2
		c-0.3-0.1-0.5-0.3-0.5-0.8c0.3-6.8,0.5-13.8,0.6-21c0.1-7.2,0.1-14.7,0.1-22.4c0-0.6,0.5-0.9,1.6-0.9c0-0.8-0.3-1.1-0.8-1
		c-0.5,0.1-0.8-0.1-0.8-0.6c0-1.2,0-2.3,0.1-3.4c0.1-1.1,0.3-1.8,0.8-2.3c-0.8-2.1-0.9-4.5-0.6-7.2c0.4-2.7,0.6-5.6,0.6-8.8
		c-1.7-0.3-4-0.3-7,0c-3,0.3-5.5,0.3-7.5,0l1.6-29.8c6.5-0.5,13.8-0.5,21.9-0.1c8.1,0.4,15.9,0.1,23.3-0.8c2.9-0.3,5.5-0.6,7.8-1
		c2.3-0.4,5.1-0.6,8.2-0.6V38h-19.4c-0.3,15.5-0.6,31.5-1,47.8c-0.4,16.3-0.6,33.2-0.6,50.5c3.3,0.5,6.5,0.6,9.6,0.3
		c3.1-0.2,6.1-0.3,8.9-0.3v4.7h-1.6h-0.7v0.9c0,0.8,0.1,1.2,0.3,1.5c0.2,0.2,0.3,0.6,0.3,1h0.9v-0.9h0.2
		C1081.6,143.5,1081.7,143.3,1081.7,142.8z M1041.5,27.6c0.3,0.3,0.6,0.4,1,0.3c0.4-0.1,0.6-0.5,0.6-1.2c0,0.5-0.3,0.6-0.8,0.5
		C1041.8,27,1041.5,27.1,1041.5,27.6z M1050.3,14.5h-1.6c0,0.9,0.4,1.4,1.1,1.4C1050.6,15.8,1050.8,15.4,1050.3,14.5z M1051.2,46.1
		l-2.5-1.8c0,1.7,0.3,2.7,0.9,3.2c0.6,0.5,1.1,1.1,1.6,1.8c0.3,0,0.5-0.2,0.7-0.6c0.1-0.4,0.5-0.7,0.9-1c-0.8,0-1.2-0.2-1.4-0.6
		C1051.3,46.7,1051.2,46.4,1051.2,46.1z M1051.2,92c0.8,0.3,1.2,0.2,1.4-0.3c0.1-0.5,0.2-0.9,0.2-1.2c-0.8,0-1.2,0.2-1.4,0.5
		C1051.3,91.2,1051.2,91.5,1051.2,92z M1056.9,51.8c0.3,0.3,0.6,0.3,1,0.1c0.4-0.2,0.6-0.6,0.6-1c-0.8-0.5-1.2-0.5-1.4-0.2
		C1057,50.9,1056.9,51.3,1056.9,51.8z M1058.5,54.9v-1.6c-0.5,0-0.8,0.1-0.9,0.3c-0.2,0.2-0.4,0.3-0.7,0.3
		C1056.9,54.6,1057.4,54.9,1058.5,54.9z M1059.1,29.8c0.5,0.5,1,0.6,1.6,0.6c0.6-0.1,0.9-0.5,0.9-1.2c-0.3-0.5-0.8-0.5-1.5-0.2
		C1059.5,29.2,1059.1,29.5,1059.1,29.8z M1062.5,155.7c1.1,0,1.6-0.3,1.6-0.9l-0.9-0.9c0,0.5-0.1,0.8-0.3,0.9
		C1062.6,155,1062.5,155.3,1062.5,155.7z M1068.9,17h-1.6v0.9c0-0.5,0.3-0.6,0.8-0.5C1068.6,17.6,1068.9,17.4,1068.9,17z
		 M1069.8,158c0.3-0.3,0.6-0.6,1-0.8c0.4-0.2,0.6-0.7,0.6-1.5c-0.8,0-1.3,0.3-1.7,0.9C1069.3,157.2,1069.3,157.7,1069.8,158z"/>
	<path class="st0" d="M1240.4,11.3h0.9V8.1c3.6,0,7.3,0,11-0.1c3.7-0.1,7.6-0.3,11.6-0.8v32.3v42c-3.9,0.5-8.1,0.7-12.7,0.8
		c-4.5,0.1-9.1,0-13.7-0.1c-4.6-0.1-9.2-0.3-13.7-0.5c-4.5-0.1-8.7-0.2-12.4-0.2c-1.1,5.3-1.6,10.6-1.6,16c0,5.4,0.1,10.9,0.5,16.4
		c0.3,5.5,0.6,11.1,0.8,16.7c0.2,5.6,0,11.3-0.6,16.8c-0.3,3.2-0.6,6.3-0.9,9.3c-0.3,3-0.2,6.3,0.2,9.9c-2.4,0-5.1,0-8.1-0.1
		c-3-0.1-6.1-0.1-9.4-0.1c-3.2,0-6.5,0.1-9.7,0.2c-3.2,0.2-6.3,0.5-9.2,0.9v-12.9c0-2.1-0.2-4.3-0.5-6.6c-0.3-2.3-0.5-4.7-0.5-7.2
		c0-0.8,0.1-1.8,0.5-3.3c0.3-1.4,0.5-2.7,0.5-4c0.5-1.7,0.7-3.3,0.8-4.9c0.1-1.6,0.1-3.2,0.1-4.9c0.5,0.6,1,0.9,1.6,0.9
		c0.8,0,1.3-0.1,1.7-0.2c0.4-0.1,0.6-0.6,0.6-1.4h-0.7c0-0.6-0.5-0.9-1.6-0.9h-1.6c0.3-9.5,0.1-19.2-0.7-29
		c-0.8-9.9-0.5-19.8,0.7-29.7c-1.2-4.1-1.5-8.6-0.8-13.7c0.7-5,1.2-10.4,1.5-16.2c0.3-4.5,0.3-8.9,0.1-13.2
		c-0.2-4.3-0.5-8.5-0.8-12.5c3.6,0,7.6,0,12-0.1c4.4-0.1,9-0.3,13.8-0.8c0.5,0,0.7,0.2,0.7,0.5v0.5c-0.3,0-0.5,0.2-0.7,0.6
		c-0.2,0.4-0.5,0.7-0.9,1c-0.2,0.2-0.2,0.3,0,0.5c0,0.6,0.3,1,0.9,1.1h0.7h0.5c0.3,0,0.5-0.2,0.5-0.7c0.3,0,0.4-0.2,0.2-0.6
		c-0.2-0.4-0.2-0.7-0.2-1V8.1c1.7-0.5,3.3-0.7,4.9-0.8c1.6-0.1,3.4-0.1,5.5-0.1h9.7c0.8,0,1.4,0.2,2,0.6c0.6,0.4,1.3,0.8,2,1.2
		c1.7,0,3.4,0,5.2-0.1c1.8-0.1,3.5-0.3,5.2-0.8V9c-0.5,0.5-0.7,1-0.7,1.6l0.7,0.7l0.9-0.7h0.7h0.9
		C1239.9,10.6,1240.4,10.8,1240.4,11.3z M1179.8,146.7c1.2,0,1.8-0.2,1.8-0.7c-0.9,0-1.4,0-1.6,0.1
		C1179.9,146.2,1179.8,146.4,1179.8,146.7z M1182.3,59c0.8-0.5,1.4-0.8,1.8-1.1c0.5-0.3,0.7-1.1,0.7-2.3c-1.2,0-1.9,0.4-2.1,1.1
		C1182.4,57.5,1182.3,58.2,1182.3,59z M1193.6,88.8c1.2,0.3,2,0,2.5-0.9c0.5-0.9,0.7-1.7,0.7-2.5c-1.2,0-1.8,0.3-1.9,1
		C1194.8,87.1,1194.4,87.9,1193.6,88.8z M1193.6,113.7c0.8,0,1.2-0.2,1.4-0.6c0.1-0.4,0.2-1,0.2-1.9
		C1194.1,111.2,1193.6,112,1193.6,113.7z M1193.6,116.8c0.5,0,0.8-0.3,1-0.8c0.2-0.5,0.2-0.8-0.1-0.8c0,0.5-0.2,0.8-0.5,0.9
		C1193.8,116.3,1193.6,116.5,1193.6,116.8z M1195.2,113.7c0.8,0,1.2-0.1,1.4-0.5c0.1-0.3,0.2-0.7,0.2-1.1c-0.3,0-0.5,0.2-0.7,0.6
		C1195.9,113,1195.6,113.4,1195.2,113.7z M1196.8,79.8c0.5,0.5,0.8,0.5,1.1,0.2c0.3-0.3,0.2-0.6-0.2-0.9
		C1197.1,79.1,1196.8,79.3,1196.8,79.8z M1205.8,73.5c0.3,0,0.7-0.2,1.1-0.6c0.5-0.4,0.8-0.7,1.1-1c-0.3,0-0.7,0-1.2-0.1
		c-0.5-0.1-0.6-0.3-0.3-0.8c-0.3,0-0.5,0-0.7,0.1c-0.2,0.1-0.5,0.3-0.9,0.8C1205.5,71.9,1205.8,72.4,1205.8,73.5z M1230.7,49.3
		c0.5-2.1,0.7-4.3,0.8-6.6c0.1-2.3,0.1-4.7,0.1-7.2c-3.6-0.3-7.5-0.5-11.6-0.7c-4.1-0.1-8.1,0.4-11.9,1.6v10.4
		c3.8,0.8,7.7,1.4,11.8,2C1223.9,49.4,1227.5,49.6,1230.7,49.3z M1212.1,54.9c0.5,0.3,1,0.4,1.6,0.3c0.6-0.1,0.9-0.5,0.9-1.2
		C1213,54,1212.1,54.3,1212.1,54.9z M1216.2,66.9c0.5,0,0.9,0.1,1.2,0.3c0.4,0.2,0.8,0.1,1.2-0.3c0-0.3-0.3-0.4-0.8-0.3
		c-0.5,0.1-0.8,0-0.8-0.3v-0.9C1216.5,65.9,1216.2,66.4,1216.2,66.9z M1216.2,69.4c0,0.5,0.5,0.8,1.5,0.9c1,0.2,1.3-0.1,1-0.9
		c-0.5-0.5-0.8-0.6-1-0.3C1217.4,69.3,1217,69.4,1216.2,69.4z M1220.3,66.9c1.1,0,1.6-0.8,1.6-2.3c-0.8-0.9-1.5-1.1-2.3-0.6
		c-0.8,0.5-1.4,0.9-1.8,1.2c0.8,0,1.2,0.4,1.2,1.1C1219.1,67.2,1219.5,67.3,1220.3,66.9z M1220.3,61.2v0.9c0,0.3,0.4,0.5,1.2,0.5
		c0.8,0,1.2-0.1,1.2-0.5c-0.5,0-0.8-0.1-1-0.5C1221.5,61.4,1221,61.2,1220.3,61.2z M1223.4,67.8c-0.5,0.5-0.2,0.7,0.9,0.7
		C1224.3,68,1224,67.8,1223.4,67.8z M1236.3,77.5c0,0.3,0.4,0.3,1.1,0.1c0.8-0.2,0.9-0.6,0.5-1c-0.2-0.1-0.5-0.2-0.9-0.2
		S1236.3,76.8,1236.3,77.5z M1238.8,59c0,0.3,0.4,0.5,1.2,0.5c0.8,0,1.2-0.1,1.2-0.5c-0.5,0-0.8-0.1-0.9-0.2c-0.3,0-0.6,0-0.8-0.1
		C1239.4,58.6,1239.1,58.7,1238.8,59z"/>
	<path class="st0" d="M1360.2,71.9c-0.2,1.2,0,2.3,0.3,3.3c0.4,1,0.8,2.3,1.2,4c0,2.4-0.2,4.9-0.5,7.6c-0.3,2.6-0.5,5.2-0.5,7.8
		c0,4.4,0,8.8,0,13.3s-0.2,9.4-0.7,14.7c-0.3,3.3-0.5,6.3-0.7,8.8c-0.2,2.6,0.1,5.3,0.7,8.1c0,0.5,0.1,1,0.3,1.7
		c0.2,0.7,0.3,1.2,0.3,1.7c0,1.2-0.3,2.4-0.8,3.6c-0.5,1.2-0.8,2.4-0.8,3.6c-0.3,2.9-0.2,5.8,0.5,8.8c0.6,3,0.8,6,0.5,8.8
		c-1.2,0.3-2,0.2-2.4-0.2c-0.4-0.5-0.9-0.7-1.7-0.7c-4.1,0-7.8-0.4-11.1-1.1c-3.3-0.8-6.6-1.1-9.9-1.1c-2.9,0.3-5.8,0.7-8.8,1.1
		c-3,0.5-6,0.3-8.8-0.5c-0.3-0.1-0.5-0.5-0.5-1.1c0-0.6-0.1-1.2-0.2-1.9c-0.2-0.7-0.3-1.4-0.6-2c-0.2-0.7-0.6-1.1-1.2-1.2
		c0.8-0.5,1-1.3,0.8-2.6c-0.2-1.3-0.5-2.3-0.8-3.1c0.8-1.2,0.9-2.6,0.6-4.2c-0.4-1.6-0.6-3.4-0.6-5.5c0-1.2,0.1-2.2,0.3-3.1
		c0.2-0.8,0.3-1.4,0.3-1.7c-0.3-1.2-0.8-1.8-1.4-1.9c-0.6-0.1-0.9-0.6-0.9-1.5c3.2-0.8,6.2-1.1,9.3-0.9c3,0.2,5.6,0.2,7.7,0.2
		c0.8-1.2,1-2.4,0.8-3.7c-0.2-1.3,0-1.9,0.8-1.9c-0.8-4.8-1-10.4-0.8-16.8c0.2-6.4,0.2-12.6-0.1-18.6c-0.5-9.9-0.9-19.5-1.4-28.8
		c-0.5-9.3-0.5-18.2-0.2-26.8c-2.6-0.8-4.7-1.2-6.6-1.2c-1.8-0.1-3.6,0-5.3,0.1c-1.7,0.2-3.5,0.4-5.4,0.7c-1.9,0.3-4.2,0.5-6.9,0.5
		c-0.3,8.4-0.3,16.7,0.1,24.9c0.4,8.1,0.8,16.2,1.2,24.1c0.5,7.9,0.8,15.7,1,23.5c0.2,7.8,0,15.6-0.8,23.4c0.5,0.6,1.1,1,1.8,1.2
		c0.8,0.2,1.5,0.5,2.3,0.7c0.8,0.2,1.4,0.6,2,1c0.6,0.5,1,1.1,1.1,2c-0.3,0-0.8-0.1-1.4-0.3c-0.6-0.2-0.9-0.1-0.9,0.3
		c0.3,2.4,0.6,5,1,7.9c0.4,2.9,0.3,6.1-0.3,9.7c0,0.5-0.1,1.1-0.3,1.8c-0.2,0.8-0.3,1.5-0.3,2.3c0,0.8,0.4,1.5,1.1,2.4
		c0.8,0.8,1.1,1.6,1.1,2.4c-5.7,0.8-11.8,0.9-18.1,0.6c-6.3-0.4-12.1-0.6-17.4-0.6c-1.7-16-2.7-31.8-3.1-47.5
		c-0.4-15.7-0.7-31.3-1-46.8c-0.2-6.5,0.3-13.1,1.5-19.8c1.1-6.7,1.5-13.3,1-19.8c-0.3-4.4-0.8-8.5-1.6-12.3
		c-0.8-3.8-0.8-7.8,0-11.9c10.1,0,20.8,0,32.1-0.1c11.3-0.1,22.1-0.3,32.5-0.6c3.2-0.5,6.3-0.6,9.5-0.3s6.2,1.2,9,2.8
		c0.6,2.4,0.8,4.9,0.7,7.3c-0.2,2.5-0.4,5-0.7,7.5c-0.3,2.5-0.5,5-0.7,7.5c-0.2,2.5,0.1,4.9,0.7,7.3c0,0.9,0.3,1.8,0.9,2.6
		c0.6,0.8,1.1,1.8,1.4,3.1c0.5,2.1,0.2,4.3-0.7,6.7c-0.9,2.3-1.2,4.7-0.9,7.1c0,0.8,0.3,1.4,0.8,2c0.5,0.6,0.8,1.3,0.8,2
		c0,1.7-0.2,3.3-0.6,4.9C1359.9,68.6,1359.9,70.2,1360.2,71.9z M1283.6,116.2c0,0.3,0.3,0.3,1,0.1c0.7-0.2,0.9-0.6,0.6-1
		C1284.1,115.3,1283.6,115.6,1283.6,116.2z M1286.7,87c0.3-0.3,0.6-0.5,1-0.7c0.4-0.1,0.6-0.5,0.6-0.9c-0.8-0.3-1.3-0.2-1.7,0.3
		C1286.2,86.3,1286.3,86.7,1286.7,87z M1289.9,36.4c0-0.8-0.3-1.3-1-1.7c-0.7-0.4-1.4-0.3-2.1,0.1c0,0.8,0.3,1.2,1,1.4
		C1288.4,36.3,1289.1,36.4,1289.9,36.4z M1286.7,45.2v1.6h1.6C1288.3,45.7,1287.8,45.2,1286.7,45.2z M1288.3,49.9
		c-0.5,0.5-0.2,0.7,0.8,0.7c1,0,1.2-0.2,0.8-0.7c0-0.3-0.2-0.4-0.5-0.2C1289.1,49.9,1288.8,49.9,1288.3,49.9z M1293.9,16.3l-3.2,3.8
		c0.8,0,1.7-0.5,2.7-1.4C1294.5,17.9,1294.7,17,1293.9,16.3z M1292.4,29.2c0,0.3,0.1,0.6,0.2,1c0.1,0.4,0.6,0.6,1.4,0.6
		c0.5-0.5,0.5-0.9,0.1-1.5C1293.7,28.7,1293.1,28.7,1292.4,29.2z M1293.9,79.1c0.5,0.3,1,0.3,1.6,0.1c0.6-0.2,0.9-0.6,0.9-1
		c-0.8,0-1.3-0.4-1.6-1.1c-0.3-0.8-0.8-1.1-1.6-1.1c-0.5,0.8-0.3,1.4,0.3,1.8C1294.3,78.2,1294.4,78.6,1293.9,79.1z M1336,148.3
		c0-0.8,0.1-1.3,0.3-1.6c0.2-0.3,0.3-0.8,0.3-1.6c-0.8-0.3-1.4-0.3-2,0.1c-0.6,0.4-1.5,0.3-2.7-0.1c0.3,0.8,0.4,1.2,0.2,1.5
		c-0.2,0.2-0.2,0.6-0.2,1c0.8,0,1.4,0,2,0.1C1334.6,147.8,1335.2,148,1336,148.3z M1340.1,136.3c0.3-0.5,0.4-0.9,0.2-1.2
		c-0.2-0.4-0.2-0.8-0.2-1.2c-1.2,0-1.8,0.5-1.8,1.6c0.5,0,0.8,0.2,0.9,0.5C1339.3,136.1,1339.6,136.3,1340.1,136.3z M1346.4,152.3
		h-1.6c0,0.5,0.3,0.8,0.8,0.9C1346.1,153.4,1346.4,153.1,1346.4,152.3z"/>
	<path class="st0" d="M1468.4,78.2c0,8.6,0.1,16.9,0.3,24.9c0.2,8,0.3,16.6,0.3,26c0,3.2,0.1,6.1,0.3,8.8c0.2,2.7,0.1,5.1-0.3,7.2
		c-0.8,2.1-2,3.9-3.7,5.3c-1.7,1.4-3.4,3.2-5.1,5.3c-0.6,0.8-1.2,1.7-1.8,2.9c-0.6,1.2-1.2,2.4-1.9,3.5c-0.7,1.1-1.4,2.1-2,3.1
		c-0.7,0.9-1.5,1.4-2.4,1.6c-1.2,0.5-3,0.3-5.3-0.5c-2.3-0.8-4.6-1.1-6.7-1.1h-28.2c-2,0-4.2,0.1-6.7,0.3c-2.5,0.2-4.6,0.1-6.2-0.3
		c-0.8,0-1.2-0.1-1.5-0.2c-0.2-0.1-0.5-0.6-0.8-1.4v0.9c0-1.2-0.4-2.1-1.1-2.6c-0.8-0.5-1.5-1-2.3-1.5h-0.7v1.6v0.9
		c0,0.5,0.1,0.7,0.2,0.7h0.5v0.9c0.5,0,0.8,0.2,1.1,0.5c0.1,0.2,0.3,0.2,0.5,0.2h0.9l0.9-0.7c-0.5,0.3-0.9,0.6-1.5,1
		c-0.5,0.4-1.2,0.6-1.9,0.6c-0.8,0-1.4-0.3-2-1c-0.6-0.7-1.2-1.5-1.8-2.5c-0.6-1-1.2-2-1.7-2.9c-0.5-1-1.1-1.8-1.7-2.4
		c-0.6-1.2-1.4-2.3-2.3-3.3c-0.9-1-1.8-1.9-2.7-2.8c-0.9-0.9-1.7-1.8-2.5-2.8c-0.8-1-1.2-2.1-1.4-3.3c-0.8-1.2-1-2.7-0.7-4.5
		c0.3-1.8,0.5-3.8,0.7-5.9c0.3-9.5,0.1-19.6-0.5-30.4c-0.6-10.8-0.8-21.6-0.5-32.4c0.3-9.9,0.4-19.8,0.3-29.6
		c-0.1-9.8,0.1-20.3,0.6-31.6l33.9,2.3c0.1,6.5,0.1,12.9-0.2,19.3c-0.3,6.4-0.6,12.8-0.9,19.2c-0.3,6.4-0.5,12.7-0.6,19
		c-0.1,6.3,0.2,12.4,0.8,18.4c1.1,1.5,1.6,3.4,1.6,5.6c0,1.7-0.2,3.2-0.5,4.7c-0.3,1.5-0.7,3.1-1.1,4.7c-0.3,4.8-0.6,9.8-1,15
		c-0.4,5.2-0.6,10.4-0.6,15.7c1.8,0.5,4,0.7,6.4,0.8c2.5,0.1,5,0,7.7-0.1c2.6-0.1,5.2-0.3,7.8-0.5c2.6-0.1,4.9-0.2,7-0.2
		c-0.6-9.6-1.2-19.7-1.7-30.1c-0.5-10.4-0.9-20.8-1.1-31.3c-0.2-10.5-0.3-20.8-0.3-31.1c0-10.2,0.2-20,0.7-29.4
		c5.3-1.2,10.5-1.9,15.8-2.1c5.3-0.2,10.8-0.6,16.5-1c0.8,10.1,1.1,21,1,32.7C1468.5,54.1,1468.4,66,1468.4,78.2z M1380.5,99.2
		c0.5,0,0.6-0.3,0.6-0.8c-0.1-0.5,0.3-0.8,1-0.8c0-0.6-0.5-0.9-1.6-0.9c0.5,0.5,0.6,0.9,0.3,1.2
		C1380.6,98.3,1380.5,98.8,1380.5,99.2z M1382.1,117.7v-0.9c0-0.3-0.2-0.6-0.5-0.8c-0.3-0.2-0.7,0-1.1,0.8c0.5,0,0.8,0.2,0.9,0.5
		C1381.6,117.6,1381.8,117.7,1382.1,117.7z M1382.1,94.5h-0.7V96c0.3,0,0.5-0.1,0.6-0.2C1382,95.7,1382.1,95.2,1382.1,94.5z
		 M1399.9,78.2c-0.5,0-0.8,0.1-0.9,0.3c-0.2,0.2-0.4,0.1-0.7-0.3c0,0.8,0.3,1.1,1,1.1C1400.1,79.3,1400.2,79,1399.9,78.2z
		 M1400.6,113c0.5,0,0.8-0.2,0.9-0.6c0.1-0.4,0.5-0.8,0.9-1.2c-0.9,0-1.4-0.1-1.6-0.5c-0.2-0.3-0.2-0.7-0.2-1.1l-2.3-1.6
		c0,1.7,0.3,2.7,0.9,3.1C1399.9,111.5,1400.3,112.1,1400.6,113z"/>
	<path class="st0" d="M1567.4,69.4c-1.7-0.5-3.1-0.5-4.4,0c-1.3,0.5-2.8,0.5-4.4,0c1.2,8.1,2.7,16.3,4.5,24.5
		c1.8,8.2,3.7,16.5,5.5,24.7c1.9,8.3,3.7,16.5,5.5,24.7c1.8,8.2,3.3,16.4,4.5,24.5h-29.2l-7.2-23.5c-1.4-4.4-2.7-8.5-4.1-12.4
		c-1.4-3.9-2.4-7.8-3.2-11.8c0-1.2-0.1-2.1-0.2-2.7c-0.2-0.6-0.1-1.1,0.2-1.4c0-0.5-0.3-0.8-0.8-1c-0.5-0.2-0.8-0.7-0.8-1.5
		c-1.2-6.9-2.5-14-3.7-21.4c-1.3-7.3-3-14.4-5.1-21.4h-7.2c0,8.4,0.3,16.2,0.9,23.2c0.6,7,1.1,14.4,1.4,22c0.5,9,0.5,17.7,0.1,26
		c-0.4,8.3-1.2,16.5-2.4,24.6h-9.7h0.7v-1.6h-0.7h-0.9h-0.7c-0.6,0-0.9,0.2-0.9,0.5c-0.2,0.2-0.2,0.3,0,0.5v0.7h0.9h-5.7
		c-1.7,0-3.4,0.1-5.2,0.3c-1.8,0.2-3.3,0.1-4.5-0.3c-1.4-0.8-2.2-2-2.6-3.6c-0.4-1.7-0.5-3.5-0.5-5.6c0.1-2.1,0.2-4.3,0.5-6.4
		c0.2-2.2,0.3-4.2,0.1-6c0-1.7-0.5-3.2-1.4-4.7c-0.9-1.5-1.5-2.9-1.8-4.1c-0.6-2.4-0.5-5.3,0.3-8.6c0.8-3.3,1.2-6.3,1.2-9
		c0-6.3-0.2-12-0.5-17.1c-0.3-5-0.5-10.4-0.5-16.2c0-3.2-0.1-6.3-0.2-9.5c-0.2-3.2-0.1-6.2,0.2-9c0-0.8,0-1.3-0.1-1.6
		c-0.1-0.3,0.3-0.8,1-1.6c0-0.5-0.2-0.6-0.7-0.6c-0.5,0.1-0.5-0.3-0.2-1c0-7.2,0-15.8,0.1-25.7c0.1-9.9,0.3-19.8,0.8-29.9
		c7.2,0.2,14.7,0.2,22.4,0c7.7-0.1,15.3-0.3,22.9-0.5c7.6-0.1,15-0.3,22.3-0.5c7.2-0.1,14-0.1,20.3,0c-0.8,3.3-0.6,6.3,0.3,8.9
		c1,2.6,1.7,5.6,2.1,8.9c0.3,3.2,0.3,6.6,0,10.4c-0.3,3.8-0.3,7.2,0,10.4c0.1,2.4,0.6,5,1.4,7.8c0.8,2.8,1.2,5.4,1.5,7.9
		c0.2,2.5,0,4.7-0.7,6.6c-0.7,1.9-2.2,3.1-4.6,3.7c-1.2,0.3-2.4,0.2-3.6-0.2C1569.8,69.6,1568.6,69.4,1567.4,69.4z M1494.9,22.6
		c1.2,0.5,2.1,0.5,2.6,0c0.5-0.5,0.8-0.9,0.8-1.5c0-0.5-0.3-0.8-0.8-0.9c-0.5-0.1-1.2,0.5-1.9,1.7c-0.3,0-0.6-0.1-0.9-0.2
		C1494.3,21.5,1494.4,21.8,1494.9,22.6z M1494.9,29.2v0.7c0.3,0,0.6,0.1,1,0.2c0.4,0.2,0.6-0.1,0.6-0.9c0-0.5-0.2-0.6-0.6-0.3
		C1495.5,29,1495.2,29.2,1494.9,29.2z M1546.4,42c0.5-2.1,0.7-4,0.8-5.7c0.1-1.7,0.1-3.5,0.1-5.6c-3.3-0.5-6.7-0.6-10.3-0.3
		c-3.5,0.2-7.1,0.3-10.7,0.3c-0.5-0.5-0.6-1-0.6-1.6c0.1-0.6-0.3-0.9-1-0.9c-0.5,0.8-0.5,1,0,0.7c0.5-0.3,0.7-0.2,0.7,0.2v0.7
		c-1.7,0.8-3.1,1.1-4.4,1.1c-1.3,0-2.8,0.2-4.4,0.5c0,1.7,0.1,3.4,0.5,5.3c0.3,1.9,0.5,3.7,0.5,5.3
		C1527.6,42.6,1537.2,42.6,1546.4,42z"/>
	<path class="st0" d="M1770.4,5.6c0.5,1.8,0.7,4.1,0.8,6.9c0.1,2.8,0.1,5.6,0,8.6c-0.1,2.9-0.2,5.8-0.2,8.7c-0.1,2.9,0,5.3,0.1,7.2
		c-5.7-0.3-11.5-0.6-17.3-0.8c-5.8-0.2-11.6,0-17.3,0.8c-0.5,4.5-0.8,9.5-0.9,14.9c-0.2,5.4-0.3,11-0.3,16.6
		c-0.1,5.7-0.1,11.2-0.1,16.6c0,5.4-0.1,10.3-0.2,14.7c-0.3,11.3-0.8,22.4-1.5,33.3c-0.7,10.9-1,22.5-1,34.7c-2.4-0.1-5-0.2-7.8-0.2
		c-2.8,0-5.5,0-8.2,0.1c-2.7,0.1-5.4,0.1-8,0.2c-2.6,0.1-5.1,0-7.3-0.1c-0.5-9.5-0.7-19.3-0.7-29.5s-0.4-21.7-1.1-34.5
		c-0.2-1.2-0.3-2.5-0.5-4c-0.2-1.4-0.2-2.7-0.2-4c0-1.2,0.3-2.3,0.8-3.2c0.5-0.9,0.8-1.7,0.8-2.5c0.5-2.1,0.4-4.3-0.2-6.6
		c-0.6-2.3-1.1-4.7-1.4-7.2c-0.8-5.7-0.7-11.9,0.2-18.5c0.9-6.6,1.4-13.6,1.4-21c-3.5-0.1-6.6-0.2-9.4-0.2c-2.8,0-5.5,0-8.1,0
		c-2.6,0-5.3,0-7.9,0.1c-2.6,0.1-5.5,0.1-8.5,0.1c0.5-5.7,0.7-11,0.8-15.9c0.1-4.9,0.1-9.8,0.1-14.6c14.2,0,27.3,0.1,39.3,0.2
		c12.1,0.2,24,0.1,35.7-0.2c4.8-0.1,9.6-0.3,14.4-0.6C1761.2,5.8,1765.8,5.6,1770.4,5.6z M1702.6,150.1l2.3-1.8
		C1703.3,148.3,1702.6,148.9,1702.6,150.1z M1704.1,129c0.3,0.3,0.8,0.4,1.5,0.3c0.7-0.1,1-0.5,1-1.2
		C1705,128.1,1704.1,128.4,1704.1,129z M1712.3,29.8h-1.8c0,1.1,0.3,1.6,0.9,1.6C1712,31,1712.3,30.4,1712.3,29.8z M1712.9,72.5
		v-0.7c-1.1,0-1.6,0.5-1.6,1.6c0.5,0,0.8-0.1,0.9-0.5C1712.4,72.7,1712.6,72.5,1712.9,72.5z M1715.4,14.5c0,0.5,0.3,0.7,0.8,0.7
		c0.5,0,0.8-0.2,0.8-0.7c-0.5,0-0.8-0.1-1.1-0.2C1715.6,14.1,1715.4,14.2,1715.4,14.5z M1720.2,83.8c1.1,0,1.6-0.2,1.6-0.7
		c-0.3-0.5-0.6-0.6-1-0.6C1720.4,82.7,1720.2,83.1,1720.2,83.8z M1725.8,92.7v-1.6c-0.3,0-0.7-0.2-1.1-0.7s-0.8-0.5-1.1,0
		c0.3,0.8,0.6,1.3,0.8,1.7C1724.6,92.5,1725.1,92.7,1725.8,92.7z"/>
	<path class="st0" d="M1860.3,71.9c-0.2,1.2,0,2.3,0.3,3.3c0.4,1,0.8,2.3,1.2,4c0,2.4-0.2,4.9-0.5,7.6c-0.3,2.6-0.5,5.2-0.5,7.8
		c0,4.4,0,8.8,0,13.3s-0.2,9.4-0.7,14.7c-0.3,3.3-0.5,6.3-0.7,8.8c-0.2,2.6,0.1,5.3,0.7,8.1c0,0.5,0.1,1,0.3,1.7
		c0.2,0.7,0.3,1.2,0.3,1.7c0,1.2-0.3,2.4-0.8,3.6c-0.5,1.2-0.8,2.4-0.8,3.6c-0.3,2.9-0.2,5.8,0.5,8.8c0.6,3,0.8,6,0.5,8.8
		c-1.2,0.3-2,0.2-2.4-0.2c-0.4-0.5-0.9-0.7-1.7-0.7c-4.1,0-7.8-0.4-11.1-1.1c-3.3-0.8-6.6-1.1-9.9-1.1c-2.9,0.3-5.8,0.7-8.8,1.1
		c-3,0.5-6,0.3-8.8-0.5c-0.3-0.1-0.5-0.5-0.5-1.1c0-0.6-0.1-1.2-0.2-1.9c-0.2-0.7-0.3-1.4-0.6-2c-0.2-0.7-0.6-1.1-1.2-1.2
		c0.8-0.5,1-1.3,0.8-2.6c-0.2-1.3-0.5-2.3-0.8-3.1c0.8-1.2,0.9-2.6,0.6-4.2c-0.4-1.6-0.6-3.4-0.6-5.5c0-1.2,0.1-2.2,0.3-3.1
		c0.2-0.8,0.3-1.4,0.3-1.7c-0.3-1.2-0.8-1.8-1.4-1.9c-0.6-0.1-0.9-0.6-0.9-1.5c3.2-0.8,6.2-1.1,9.3-0.9c3,0.2,5.6,0.2,7.7,0.2
		c0.8-1.2,1-2.4,0.8-3.7c-0.2-1.3,0-1.9,0.8-1.9c-0.8-4.8-1-10.4-0.8-16.8c0.2-6.4,0.2-12.6-0.1-18.6c-0.5-9.9-0.9-19.5-1.4-28.8
		c-0.5-9.3-0.5-18.2-0.2-26.8c-2.6-0.8-4.7-1.2-6.6-1.2c-1.8-0.1-3.6,0-5.3,0.1c-1.7,0.2-3.5,0.4-5.4,0.7c-1.9,0.3-4.2,0.5-6.9,0.5
		c-0.3,8.4-0.3,16.7,0.1,24.9c0.4,8.1,0.8,16.2,1.2,24.1c0.5,7.9,0.8,15.7,1,23.5c0.2,7.8,0,15.6-0.8,23.4c0.5,0.6,1.1,1,1.8,1.2
		c0.8,0.2,1.5,0.5,2.3,0.7c0.8,0.2,1.4,0.6,2,1c0.6,0.5,1,1.1,1.1,2c-0.3,0-0.8-0.1-1.4-0.3c-0.6-0.2-0.9-0.1-0.9,0.3
		c0.3,2.4,0.6,5,1,7.9c0.4,2.9,0.3,6.1-0.3,9.7c0,0.5-0.1,1.1-0.3,1.8c-0.2,0.8-0.3,1.5-0.3,2.3c0,0.8,0.4,1.5,1.1,2.4
		c0.8,0.8,1.1,1.6,1.1,2.4c-5.7,0.8-11.8,0.9-18.1,0.6c-6.3-0.4-12.1-0.6-17.4-0.6c-1.7-16-2.7-31.8-3.1-47.5
		c-0.4-15.7-0.7-31.3-1-46.8c-0.2-6.5,0.3-13.1,1.5-19.8c1.1-6.7,1.5-13.3,1-19.8c-0.3-4.4-0.8-8.5-1.6-12.3
		c-0.8-3.8-0.8-7.8,0-11.9c10.1,0,20.8,0,32.1-0.1c11.3-0.1,22.1-0.3,32.5-0.6c3.2-0.5,6.3-0.6,9.5-0.3s6.2,1.2,9,2.8
		c0.6,2.4,0.8,4.9,0.7,7.3c-0.2,2.5-0.4,5-0.7,7.5c-0.3,2.5-0.5,5-0.7,7.5c-0.2,2.5,0.1,4.9,0.7,7.3c0,0.9,0.3,1.8,0.9,2.6
		c0.6,0.8,1.1,1.8,1.4,3.1c0.5,2.1,0.2,4.3-0.7,6.7c-0.9,2.3-1.2,4.7-0.9,7.1c0,0.8,0.3,1.4,0.8,2c0.5,0.6,0.8,1.3,0.8,2
		c0,1.7-0.2,3.3-0.6,4.9C1860,68.6,1860,70.2,1860.3,71.9z M1783.7,116.2c0,0.3,0.3,0.3,1,0.1c0.7-0.2,0.9-0.6,0.6-1
		C1784.2,115.3,1783.7,115.6,1783.7,116.2z M1786.8,87c0.3-0.3,0.6-0.5,1-0.7c0.4-0.1,0.6-0.5,0.6-0.9c-0.8-0.3-1.3-0.2-1.7,0.3
		C1786.4,86.3,1786.4,86.7,1786.8,87z M1790,36.4c0-0.8-0.3-1.3-1-1.7c-0.7-0.4-1.4-0.3-2.1,0.1c0,0.8,0.3,1.2,1,1.4
		C1788.5,36.3,1789.3,36.4,1790,36.4z M1786.8,45.2v1.6h1.6C1788.4,45.7,1787.9,45.2,1786.8,45.2z M1788.4,49.9
		c-0.5,0.5-0.2,0.7,0.8,0.7c1,0,1.2-0.2,0.8-0.7c0-0.3-0.2-0.4-0.5-0.2C1789.3,49.9,1788.9,49.9,1788.4,49.9z M1794.1,16.3l-3.2,3.8
		c0.8,0,1.7-0.5,2.7-1.4C1794.7,17.9,1794.8,17,1794.1,16.3z M1792.5,29.2c0,0.3,0.1,0.6,0.2,1c0.1,0.4,0.6,0.6,1.4,0.6
		c0.5-0.5,0.5-0.9,0.1-1.5C1793.8,28.7,1793.3,28.7,1792.5,29.2z M1794.1,79.1c0.5,0.3,1,0.3,1.6,0.1c0.6-0.2,0.9-0.6,0.9-1
		c-0.8,0-1.3-0.4-1.6-1.1c-0.3-0.8-0.8-1.1-1.6-1.1c-0.5,0.8-0.3,1.4,0.3,1.8C1794.4,78.2,1794.5,78.6,1794.1,79.1z M1836.1,148.3
		c0-0.8,0.1-1.3,0.3-1.6c0.2-0.3,0.3-0.8,0.3-1.6c-0.8-0.3-1.4-0.3-2,0.1c-0.6,0.4-1.5,0.3-2.7-0.1c0.3,0.8,0.4,1.2,0.2,1.5
		c-0.2,0.2-0.2,0.6-0.2,1c0.8,0,1.4,0,2,0.1C1834.7,147.8,1835.4,148,1836.1,148.3z M1840.2,136.3c0.3-0.5,0.4-0.9,0.2-1.2
		c-0.2-0.4-0.2-0.8-0.2-1.2c-1.2,0-1.8,0.5-1.8,1.6c0.5,0,0.8,0.2,0.9,0.5C1839.4,136.1,1839.7,136.3,1840.2,136.3z M1846.5,152.3
		h-1.6c0,0.5,0.3,0.8,0.8,0.9C1846.2,153.4,1846.5,153.1,1846.5,152.3z"/>
	<path class="st0" d="M1968.6,78.2c0,8.6,0.1,16.9,0.3,24.9c0.2,8,0.3,16.6,0.3,26c0,3.2,0.1,6.1,0.3,8.8c0.2,2.7,0.1,5.1-0.3,7.2
		c-0.8,2.1-2,3.9-3.7,5.3c-1.7,1.4-3.4,3.2-5.1,5.3c-0.6,0.8-1.2,1.7-1.8,2.9c-0.6,1.2-1.2,2.4-1.9,3.5c-0.7,1.1-1.4,2.1-2,3.1
		c-0.7,0.9-1.5,1.4-2.4,1.6c-1.2,0.5-3,0.3-5.3-0.5c-2.3-0.8-4.6-1.1-6.7-1.1h-28.2c-2,0-4.2,0.1-6.7,0.3c-2.5,0.2-4.6,0.1-6.2-0.3
		c-0.8,0-1.2-0.1-1.5-0.2c-0.2-0.1-0.5-0.6-0.8-1.4v0.9c0-1.2-0.4-2.1-1.1-2.6c-0.8-0.5-1.5-1-2.3-1.5h-0.7v1.6v0.9
		c0,0.5,0.1,0.7,0.2,0.7h0.5v0.9c0.5,0,0.8,0.2,1.1,0.5c0.1,0.2,0.3,0.2,0.5,0.2h0.9l0.9-0.7c-0.5,0.3-0.9,0.6-1.5,1
		c-0.5,0.4-1.2,0.6-1.9,0.6c-0.8,0-1.4-0.3-2-1c-0.6-0.7-1.2-1.5-1.8-2.5c-0.6-1-1.2-2-1.7-2.9c-0.5-1-1.1-1.8-1.7-2.4
		c-0.6-1.2-1.4-2.3-2.3-3.3c-0.9-1-1.8-1.9-2.7-2.8c-0.9-0.9-1.7-1.8-2.5-2.8c-0.8-1-1.2-2.1-1.4-3.3c-0.8-1.2-1-2.7-0.7-4.5
		c0.3-1.8,0.5-3.8,0.7-5.9c0.3-9.5,0.1-19.6-0.5-30.4c-0.6-10.8-0.8-21.6-0.5-32.4c0.3-9.9,0.4-19.8,0.3-29.6
		c-0.1-9.8,0.1-20.3,0.6-31.6l33.9,2.3c0.1,6.5,0.1,12.9-0.2,19.3c-0.3,6.4-0.6,12.8-0.9,19.2c-0.3,6.4-0.5,12.7-0.6,19
		c-0.1,6.3,0.2,12.4,0.8,18.4c1.1,1.5,1.6,3.4,1.6,5.6c0,1.7-0.2,3.2-0.5,4.7c-0.3,1.5-0.7,3.1-1.1,4.7c-0.3,4.8-0.6,9.8-1,15
		c-0.4,5.2-0.6,10.4-0.6,15.7c1.8,0.5,4,0.7,6.4,0.8c2.5,0.1,5,0,7.7-0.1c2.6-0.1,5.2-0.3,7.8-0.5c2.6-0.1,4.9-0.2,7-0.2
		c-0.6-9.6-1.2-19.7-1.7-30.1c-0.5-10.4-0.9-20.8-1.1-31.3c-0.2-10.5-0.3-20.8-0.3-31.1c0-10.2,0.2-20,0.7-29.4
		c5.3-1.2,10.5-1.9,15.8-2.1c5.3-0.2,10.8-0.6,16.5-1c0.8,10.1,1.1,21,1,32.7C1968.6,54.1,1968.6,66,1968.6,78.2z M1880.6,99.2
		c0.5,0,0.6-0.3,0.6-0.8c-0.1-0.5,0.3-0.8,1-0.8c0-0.6-0.5-0.9-1.6-0.9c0.5,0.5,0.6,0.9,0.3,1.2
		C1880.8,98.3,1880.6,98.8,1880.6,99.2z M1882.2,117.7v-0.9c0-0.3-0.2-0.6-0.5-0.8c-0.3-0.2-0.7,0-1.1,0.8c0.5,0,0.8,0.2,0.9,0.5
		C1881.7,117.6,1881.9,117.7,1882.2,117.7z M1882.2,94.5h-0.7V96c0.3,0,0.5-0.1,0.6-0.2C1882.2,95.7,1882.2,95.2,1882.2,94.5z
		 M1900.1,78.2c-0.5,0-0.8,0.1-0.9,0.3c-0.2,0.2-0.4,0.1-0.7-0.3c0,0.8,0.3,1.1,1,1.1C1900.2,79.3,1900.4,79,1900.1,78.2z
		 M1900.8,113c0.5,0,0.8-0.2,0.9-0.6c0.1-0.4,0.5-0.8,0.9-1.2c-0.9,0-1.4-0.1-1.6-0.5c-0.2-0.3-0.2-0.7-0.2-1.1l-2.3-1.6
		c0,1.7,0.3,2.7,0.9,3.1C1900,111.5,1900.4,112.1,1900.8,113z"/>
	<path class="st0" d="M2075.2,57.4v-0.9c-0.6,0-1.1,0.2-1.4,0.5l-0.5,0.5c-0.5,0.5-0.7,1-0.7,1.6v0.7h0.7h1.8v-1.6v17.9v33v33
		c0,2.1-0.2,3.8-0.7,5c-0.5,1.2-1.1,2.3-1.8,3.2c-0.8,0.9-1.6,1.8-2.6,2.6c-1,0.8-2,1.8-3.1,3.1c-1.7,2-2.9,4-3.6,6.1
		c-0.8,2.1-2,3.8-3.6,5c-11-0.3-22.5-0.2-34.6,0.2c-12.1,0.5-24.2,0.7-36.4,0.7c-0.6,0-0.9-0.5-0.9-1.6c1.1,0,1.9-0.3,2.5-0.9v-0.7
		c0.5,0,0.8-0.1,1.1-0.5l0.5-0.5c0-0.3,0-0.5-0.1-0.7c-0.1-0.1-0.3-0.5-0.8-0.9l-0.7-0.7v0.7h-0.9h-0.7v0.9v0.7h-0.9v0.9l-0.7,0.7
		v0.9h0.7c-0.3,0.3-0.9,0.6-1.7,1c-0.8,0.4-1.6,0.6-2.4,0.6c-0.3-4.8-0.4-9.8-0.3-14.9c0.1-5.1,0-10.3-0.3-15.6
		c1.7-0.9,3.1-1.1,4.3-0.7c1.2,0.5,2.2,0.1,2.9-1.1c0.3,0,0.5,0.2,0.5,0.5c0,0.3-0.2,0.5-0.5,0.5c0,0.5,0.3,0.4,1-0.1
		c0.7-0.5,1.4-0.8,2.1-0.8c0.5,0.5,1,0.9,1.7,1.2c0.7,0.4,1.2,0.6,1.5,0.6c4.5,0.8,9.1,1,13.8,0.7c4.7-0.3,9.3-0.3,13.8,0
		c3.6,0.3,7.2,0.3,10.6,0c3.5-0.3,6.6-0.8,9.5-1.6c0-4.1-0.3-8.5-0.8-13.3c-0.5-4.8-0.8-9.3-0.8-13.3c0.3,0.5,0.6,0.8,0.9,1
		c0.3,0.2,1.1,0.2,2.3-0.1c0-0.8-0.6-1.2-1.7-1.2c-1.1-0.1-1.9-0.5-2.4-1.2c0.5-2.1,0.3-4.2-0.5-6.2c-0.8-2-1.1-4.3-1.1-6.7
		c0-0.8,0.1-1.4,0.5-2c0.3-0.6,0.5-1.3,0.5-2c0.3-3.2,0-6.3-0.8-9.5c-0.8-3.2-0.9-6.2-0.1-9c0-0.8-0.1-1-0.3-0.8
		c-0.2,0.2-0.3,0-0.3-0.8c0.3-5.3,0.6-10.6,1-15.9c0.4-5.3,0.6-11,0.6-17.1c-10.7-0.9-21.8-0.9-33.2,0c-0.8-5.3-0.9-10.6-0.6-16
		c0.4-5.4,0.6-10.5,0.6-15.4c1.2,0,2.6,0.1,4.2,0.2c1.6,0.2,3.2,0.1,4.9-0.2c0.3,0.3,0.5,0.6,0.5,1c0,0.4,0.4,0.6,1.1,0.6
		c0.8,0,0.8-0.2,0.2-0.6c-0.6-0.4-0.7-0.7-0.2-1c8.1,0,17,0.1,26.7,0.2c9.6,0.2,19,0.1,28-0.2c2,8.9,2.8,17.4,2.6,25.4
		C2075.8,40,2075.5,48.5,2075.2,57.4z M1999.3,157.3c0,0.5,0.2,0.7,0.7,0.7h0.9C2000.9,157.5,2000.3,157.3,1999.3,157.3z
		 M2004.9,162c0-1.1-0.5-1.6-1.6-1.6c0,0.5,0.1,0.8,0.2,1.1C2003.7,161.9,2004.2,162,2004.9,162z M2007.4,146.7
		c0.8,0,1.2-0.3,1.4-0.9c0.1-0.6,0.2-1.1,0.2-1.4c-0.5-0.5-1-0.7-1.7-0.7s-1.2,0.2-1.5,0.7C2007.5,144.4,2008,145.2,2007.4,146.7z
		 M2005.8,161.4c1.8,0,2.3-0.8,1.6-2.5c-0.8,0-1.2,0.2-1.4,0.6C2005.9,159.8,2005.8,160.5,2005.8,161.4z M2009.7,144.4
		c1.2,0,1.8-0.3,1.8-0.9c-0.5-0.3-0.9-0.3-1.2-0.1C2009.9,143.6,2009.7,144,2009.7,144.4z M2010.6,146c0.5,0.3,1.1,0.3,1.9,0
		c0.8-0.3,1.2-0.8,1.2-1.6l-0.5-0.5l-1.1-1.1v0.7c0.5,0.8,0.4,1.2-0.1,1.5C2011.5,145.2,2011,145.5,2010.6,146z M2016.2,153.2
		c0-0.8,0.1-1.2,0.5-1.5c0.3-0.2,0.5-0.6,0.5-1c-1.2,0-2,0.5-2.4,1.4c-0.4,0.9-0.9,1.5-1.7,1.8c0.3,0.5,0.8,0.5,1.5,0
		C2015.2,153.5,2015.8,153.2,2016.2,153.2z"/>
	<path class="st0" d="M2174.9,71.9c-0.2,1.2,0,2.3,0.3,3.3c0.4,1,0.8,2.3,1.2,4c0,2.4-0.2,4.9-0.5,7.6c-0.3,2.6-0.5,5.2-0.5,7.8
		c0,4.4,0,8.8,0,13.3s-0.2,9.4-0.7,14.7c-0.3,3.3-0.5,6.3-0.7,8.8c-0.2,2.6,0.1,5.3,0.7,8.1c0,0.5,0.1,1,0.3,1.7
		c0.2,0.7,0.3,1.2,0.3,1.7c0,1.2-0.3,2.4-0.8,3.6c-0.5,1.2-0.8,2.4-0.8,3.6c-0.3,2.9-0.2,5.8,0.5,8.8c0.6,3,0.8,6,0.5,8.8
		c-1.2,0.3-2,0.2-2.4-0.2c-0.4-0.5-0.9-0.7-1.7-0.7c-4.1,0-7.8-0.4-11.1-1.1c-3.3-0.8-6.6-1.1-9.9-1.1c-2.9,0.3-5.8,0.7-8.8,1.1
		c-3,0.5-6,0.3-8.8-0.5c-0.3-0.1-0.5-0.5-0.5-1.1c0-0.6-0.1-1.2-0.2-1.9c-0.2-0.7-0.3-1.4-0.6-2c-0.2-0.7-0.6-1.1-1.2-1.2
		c0.8-0.5,1-1.3,0.8-2.6c-0.2-1.3-0.5-2.3-0.8-3.1c0.8-1.2,0.9-2.6,0.6-4.2c-0.4-1.6-0.6-3.4-0.6-5.5c0-1.2,0.1-2.2,0.3-3.1
		c0.2-0.8,0.3-1.4,0.3-1.7c-0.3-1.2-0.8-1.8-1.4-1.9c-0.6-0.1-0.9-0.6-0.9-1.5c3.2-0.8,6.2-1.1,9.3-0.9c3,0.2,5.6,0.2,7.7,0.2
		c0.8-1.2,1-2.4,0.8-3.7c-0.2-1.3,0-1.9,0.8-1.9c-0.8-4.8-1-10.4-0.8-16.8c0.2-6.4,0.2-12.6-0.1-18.6c-0.5-9.9-0.9-19.5-1.4-28.8
		c-0.5-9.3-0.5-18.2-0.2-26.8c-2.6-0.8-4.7-1.2-6.6-1.2c-1.8-0.1-3.6,0-5.3,0.1c-1.7,0.2-3.5,0.4-5.4,0.7c-1.9,0.3-4.2,0.5-6.9,0.5
		c-0.3,8.4-0.3,16.7,0.1,24.9c0.4,8.1,0.8,16.2,1.2,24.1c0.5,7.9,0.8,15.7,1,23.5c0.2,7.8,0,15.6-0.8,23.4c0.5,0.6,1.1,1,1.8,1.2
		c0.8,0.2,1.5,0.5,2.3,0.7c0.8,0.2,1.4,0.6,2,1c0.6,0.5,1,1.1,1.1,2c-0.3,0-0.8-0.1-1.4-0.3c-0.6-0.2-0.9-0.1-0.9,0.3
		c0.3,2.4,0.6,5,1,7.9c0.4,2.9,0.3,6.1-0.3,9.7c0,0.5-0.1,1.1-0.3,1.8c-0.2,0.8-0.3,1.5-0.3,2.3c0,0.8,0.4,1.5,1.1,2.4
		c0.8,0.8,1.1,1.6,1.1,2.4c-5.7,0.8-11.8,0.9-18.1,0.6c-6.3-0.4-12.1-0.6-17.4-0.6c-1.7-16-2.7-31.8-3.1-47.5
		c-0.4-15.7-0.7-31.3-1-46.8c-0.2-6.5,0.3-13.1,1.5-19.8c1.1-6.7,1.5-13.3,1-19.8c-0.3-4.4-0.8-8.5-1.6-12.3
		c-0.8-3.8-0.8-7.8,0-11.9c10.1,0,20.8,0,32.1-0.1c11.3-0.1,22.1-0.3,32.5-0.6c3.2-0.5,6.3-0.6,9.5-0.3s6.2,1.2,9,2.8
		c0.6,2.4,0.8,4.9,0.7,7.3c-0.2,2.5-0.4,5-0.7,7.5c-0.3,2.5-0.5,5-0.7,7.5c-0.2,2.5,0.1,4.9,0.7,7.3c0,0.9,0.3,1.8,0.9,2.6
		c0.6,0.8,1.1,1.8,1.4,3.1c0.5,2.1,0.2,4.3-0.7,6.7c-0.9,2.3-1.2,4.7-0.9,7.1c0,0.8,0.3,1.4,0.8,2c0.5,0.6,0.8,1.3,0.8,2
		c0,1.7-0.2,3.3-0.6,4.9C2174.6,68.6,2174.6,70.2,2174.9,71.9z M2098.3,116.2c0,0.3,0.3,0.3,1,0.1c0.7-0.2,0.9-0.6,0.6-1
		C2098.8,115.3,2098.3,115.6,2098.3,116.2z M2101.4,87c0.3-0.3,0.6-0.5,1-0.7c0.4-0.1,0.6-0.5,0.6-0.9c-0.8-0.3-1.3-0.2-1.7,0.3
		C2100.9,86.3,2101,86.7,2101.4,87z M2104.6,36.4c0-0.8-0.3-1.3-1-1.7c-0.7-0.4-1.4-0.3-2.1,0.1c0,0.8,0.3,1.2,1,1.4
		C2103.1,36.3,2103.8,36.4,2104.6,36.4z M2101.4,45.2v1.6h1.6C2103,45.7,2102.5,45.2,2101.4,45.2z M2103,49.9
		c-0.5,0.5-0.2,0.7,0.8,0.7c1,0,1.2-0.2,0.8-0.7c0-0.3-0.2-0.4-0.5-0.2C2103.8,49.9,2103.5,49.9,2103,49.9z M2108.7,16.3l-3.2,3.8
		c0.8,0,1.7-0.5,2.7-1.4C2109.3,17.9,2109.4,17,2108.7,16.3z M2107.1,29.2c0,0.3,0.1,0.6,0.2,1c0.1,0.4,0.6,0.6,1.4,0.6
		c0.5-0.5,0.5-0.9,0.1-1.5C2108.4,28.7,2107.8,28.7,2107.1,29.2z M2108.7,79.1c0.5,0.3,1,0.3,1.6,0.1c0.6-0.2,0.9-0.6,0.9-1
		c-0.8,0-1.3-0.4-1.6-1.1c-0.3-0.8-0.8-1.1-1.6-1.1c-0.5,0.8-0.3,1.4,0.3,1.8C2109,78.2,2109.1,78.6,2108.7,79.1z M2150.7,148.3
		c0-0.8,0.1-1.3,0.3-1.6c0.2-0.3,0.3-0.8,0.3-1.6c-0.8-0.3-1.4-0.3-2,0.1c-0.6,0.4-1.5,0.3-2.7-0.1c0.3,0.8,0.4,1.2,0.2,1.5
		c-0.2,0.2-0.2,0.6-0.2,1c0.8,0,1.4,0,2,0.1C2149.3,147.8,2150,148,2150.7,148.3z M2154.8,136.3c0.3-0.5,0.4-0.9,0.2-1.2
		c-0.2-0.4-0.2-0.8-0.2-1.2c-1.2,0-1.8,0.5-1.8,1.6c0.5,0,0.8,0.2,0.9,0.5C2154,136.1,2154.3,136.3,2154.8,136.3z M2161.1,152.3
		h-1.6c0,0.5,0.3,0.8,0.8,0.9C2160.8,153.4,2161.1,153.1,2161.1,152.3z"/>
	<path class="st0" d="M2283.1,78.2c0,8.6,0.1,16.9,0.3,24.9c0.2,8,0.3,16.6,0.3,26c0,3.2,0.1,6.1,0.3,8.8c0.2,2.7,0.1,5.1-0.3,7.2
		c-0.8,2.1-2,3.9-3.7,5.3c-1.7,1.4-3.4,3.2-5.1,5.3c-0.6,0.8-1.2,1.7-1.8,2.9c-0.6,1.2-1.2,2.4-1.9,3.5c-0.7,1.1-1.4,2.1-2,3.1
		c-0.7,0.9-1.5,1.4-2.4,1.6c-1.2,0.5-3,0.3-5.3-0.5c-2.3-0.8-4.6-1.1-6.7-1.1h-28.2c-2,0-4.2,0.1-6.7,0.3c-2.5,0.2-4.6,0.1-6.2-0.3
		c-0.8,0-1.2-0.1-1.5-0.2c-0.2-0.1-0.5-0.6-0.8-1.4v0.9c0-1.2-0.4-2.1-1.1-2.6c-0.8-0.5-1.5-1-2.3-1.5h-0.7v1.6v0.9
		c0,0.5,0.1,0.7,0.2,0.7h0.5v0.9c0.5,0,0.8,0.2,1.1,0.5c0.1,0.2,0.3,0.2,0.5,0.2h0.9l0.9-0.7c-0.5,0.3-0.9,0.6-1.5,1
		c-0.5,0.4-1.2,0.6-1.9,0.6c-0.8,0-1.4-0.3-2-1c-0.6-0.7-1.2-1.5-1.8-2.5c-0.6-1-1.2-2-1.7-2.9c-0.5-1-1.1-1.8-1.7-2.4
		c-0.6-1.2-1.4-2.3-2.3-3.3c-0.9-1-1.8-1.9-2.7-2.8c-0.9-0.9-1.7-1.8-2.5-2.8c-0.8-1-1.2-2.1-1.4-3.3c-0.8-1.2-1-2.7-0.7-4.5
		c0.3-1.8,0.5-3.8,0.7-5.9c0.3-9.5,0.1-19.6-0.5-30.4c-0.6-10.8-0.8-21.6-0.5-32.4c0.3-9.9,0.4-19.8,0.3-29.6
		c-0.1-9.8,0.1-20.3,0.6-31.6l33.9,2.3c0.1,6.5,0.1,12.9-0.2,19.3c-0.3,6.4-0.6,12.8-0.9,19.2c-0.3,6.4-0.5,12.7-0.6,19
		c-0.1,6.3,0.2,12.4,0.8,18.4c1.1,1.5,1.6,3.4,1.6,5.6c0,1.7-0.2,3.2-0.5,4.7c-0.3,1.5-0.7,3.1-1.1,4.7c-0.3,4.8-0.6,9.8-1,15
		c-0.4,5.2-0.6,10.4-0.6,15.7c1.8,0.5,4,0.7,6.4,0.8c2.5,0.1,5,0,7.7-0.1c2.6-0.1,5.2-0.3,7.8-0.5c2.6-0.1,4.9-0.2,7-0.2
		c-0.6-9.6-1.2-19.7-1.7-30.1c-0.5-10.4-0.9-20.8-1.1-31.3c-0.2-10.5-0.3-20.8-0.3-31.1c0-10.2,0.2-20,0.7-29.4
		c5.3-1.2,10.5-1.9,15.8-2.1c5.3-0.2,10.8-0.6,16.5-1c0.8,10.1,1.1,21,1,32.7C2283.2,54.1,2283.1,66,2283.1,78.2z M2195.2,99.2
		c0.5,0,0.6-0.3,0.6-0.8c-0.1-0.5,0.3-0.8,1-0.8c0-0.6-0.5-0.9-1.6-0.9c0.5,0.5,0.6,0.9,0.3,1.2
		C2195.3,98.3,2195.2,98.8,2195.2,99.2z M2196.8,117.7v-0.9c0-0.3-0.2-0.6-0.5-0.8c-0.3-0.2-0.7,0-1.1,0.8c0.5,0,0.8,0.2,0.9,0.5
		C2196.3,117.6,2196.5,117.7,2196.8,117.7z M2196.8,94.5h-0.7V96c0.3,0,0.5-0.1,0.6-0.2C2196.8,95.7,2196.8,95.2,2196.8,94.5z
		 M2214.7,78.2c-0.5,0-0.8,0.1-0.9,0.3c-0.2,0.2-0.4,0.1-0.7-0.3c0,0.8,0.3,1.1,1,1.1C2214.8,79.3,2215,79,2214.7,78.2z M2215.3,113
		c0.5,0,0.8-0.2,0.9-0.6c0.1-0.4,0.5-0.8,0.9-1.2c-0.9,0-1.4-0.1-1.6-0.5c-0.2-0.3-0.2-0.7-0.2-1.1l-2.3-1.6c0,1.7,0.3,2.7,0.9,3.1
		C2214.6,111.5,2215,112.1,2215.3,113z"/>
	<path class="st0" d="M2382.1,69.4c-1.7-0.5-3.1-0.5-4.4,0c-1.3,0.5-2.8,0.5-4.4,0c1.2,8.1,2.7,16.3,4.5,24.5
		c1.8,8.2,3.7,16.5,5.5,24.7c1.9,8.3,3.7,16.5,5.5,24.7c1.8,8.2,3.3,16.4,4.5,24.5h-29.2l-7.2-23.5c-1.4-4.4-2.7-8.5-4.1-12.4
		c-1.4-3.9-2.4-7.8-3.2-11.8c0-1.2-0.1-2.1-0.2-2.7c-0.2-0.6-0.1-1.1,0.2-1.4c0-0.5-0.3-0.8-0.8-1c-0.5-0.2-0.8-0.7-0.8-1.5
		c-1.2-6.9-2.5-14-3.7-21.4c-1.3-7.3-3-14.4-5.1-21.4h-7.2c0,8.4,0.3,16.2,0.9,23.2c0.6,7,1.1,14.4,1.4,22c0.5,9,0.5,17.7,0.1,26
		c-0.4,8.3-1.2,16.5-2.4,24.6h-9.7h0.7v-1.6h-0.7h-0.9h-0.7c-0.6,0-0.9,0.2-0.9,0.5c-0.2,0.2-0.2,0.3,0,0.5v0.7h0.9h-5.7
		c-1.7,0-3.4,0.1-5.2,0.3c-1.8,0.2-3.3,0.1-4.5-0.3c-1.4-0.8-2.2-2-2.6-3.6c-0.4-1.7-0.5-3.5-0.5-5.6c0.1-2.1,0.2-4.3,0.5-6.4
		c0.2-2.2,0.3-4.2,0.1-6c0-1.7-0.5-3.2-1.4-4.7c-0.9-1.5-1.5-2.9-1.8-4.1c-0.6-2.4-0.5-5.3,0.3-8.6c0.8-3.3,1.2-6.3,1.2-9
		c0-6.3-0.2-12-0.5-17.1c-0.3-5-0.5-10.4-0.5-16.2c0-3.2-0.1-6.3-0.2-9.5c-0.2-3.2-0.1-6.2,0.2-9c0-0.8,0-1.3-0.1-1.6
		c-0.1-0.3,0.3-0.8,1-1.6c0-0.5-0.2-0.6-0.7-0.6c-0.5,0.1-0.5-0.3-0.2-1c0-7.2,0-15.8,0.1-25.7c0.1-9.9,0.3-19.8,0.8-29.9
		c7.2,0.2,14.7,0.2,22.4,0c7.7-0.1,15.3-0.3,22.9-0.5c7.6-0.1,15-0.3,22.3-0.5c7.2-0.1,14-0.1,20.3,0c-0.8,3.3-0.6,6.3,0.3,8.9
		c1,2.6,1.7,5.6,2.1,8.9c0.3,3.2,0.3,6.6,0,10.4c-0.3,3.8-0.3,7.2,0,10.4c0.1,2.4,0.6,5,1.4,7.8c0.8,2.8,1.2,5.4,1.5,7.9
		c0.2,2.5,0,4.7-0.7,6.6c-0.7,1.9-2.2,3.1-4.6,3.7c-1.2,0.3-2.4,0.2-3.6-0.2C2384.5,69.6,2383.3,69.4,2382.1,69.4z M2309.6,22.6
		c1.2,0.5,2.1,0.5,2.6,0c0.5-0.5,0.8-0.9,0.8-1.5c0-0.5-0.3-0.8-0.8-0.9c-0.5-0.1-1.2,0.5-1.9,1.7c-0.3,0-0.6-0.1-0.9-0.2
		C2309.1,21.5,2309.1,21.8,2309.6,22.6z M2309.6,29.2v0.7c0.3,0,0.6,0.1,1,0.2c0.4,0.2,0.6-0.1,0.6-0.9c0-0.5-0.2-0.6-0.6-0.3
		C2310.2,29,2309.9,29.2,2309.6,29.2z M2361.1,42c0.5-2.1,0.7-4,0.8-5.7c0.1-1.7,0.1-3.5,0.1-5.6c-3.3-0.5-6.7-0.6-10.3-0.3
		c-3.5,0.2-7.1,0.3-10.7,0.3c-0.5-0.5-0.6-1-0.6-1.6c0.1-0.6-0.3-0.9-1-0.9c-0.5,0.8-0.5,1,0,0.7c0.5-0.3,0.7-0.2,0.7,0.2v0.7
		c-1.7,0.8-3.1,1.1-4.4,1.1c-1.3,0-2.8,0.2-4.4,0.5c0,1.7,0.1,3.4,0.5,5.3c0.3,1.9,0.5,3.7,0.5,5.3
		C2342.3,42.6,2351.9,42.6,2361.1,42z"/>
	<path class="st0" d="M2426.6,4.1c13.3-0.8,26.4-1.5,39.4-2.3c13-0.8,25.7-1.4,37.9-1.8c-0.2,2.4-0.4,5-0.8,7.8
		c-0.4,2.8-0.7,5.6-0.9,8.4c-0.2,2.8-0.3,5.6-0.2,8.4c0.1,2.8,0.5,5.4,1.2,7.8c-2.1,0.6-4.5,1-7.2,1.1c-2.7,0.2-5.6,0.2-8.6,0.1
		c-3-0.1-6.1-0.2-9.2-0.5c-3.1-0.2-6.1-0.5-8.9-0.8h-26.7c-0.3,5.3-0.2,10.4,0.2,15.4s0.7,10.6,0.7,16.9l54.7,2.3l4.1,32.3
		c0.5,0.8,0.3,1.1-0.6,1.1c-0.8,0-1.2,0.5-1,1.4c0.3,6,0.3,11.7-0.1,17.1c-0.4,5.3-0.6,10.7-0.6,15.9c0,1.4,0.1,3.6,0.2,6.7
		c0.1,3.1,0.2,6.3,0.2,9.6c0,3.3-0.2,6.4-0.5,9.3c-0.3,2.9-0.9,4.8-1.8,5.9c-0.5,0.5-2,0.8-4.6,1.1c-2.6,0.3-5.6,0.5-8.9,0.7
		c-3.3,0.1-6.5,0.2-9.6,0.2c-3.1,0-5.3-0.1-6.7-0.2c0-0.8-0.3-1.1-0.9-1.1c-0.6,0-1.1,0-1.4,0h-0.9h-0.9v0.9l0.9,0.2
		c-2.1-0.3-4-0.4-5.5-0.3c-1.6,0.1-3.2,0.1-4.9,0.1h3.2v-0.9c0-0.8-0.2-1.5-0.7-2.1c-0.5-0.7-1.1-1-1.8-1h-0.7l-0.9,0.9l-0.9,0.7
		v0.9v0.7h0.9h0.9v0.9c-4.2-0.1-8.2-0.2-12-0.2c-3.8,0-7.5,0-11.2,0c-3.7,0-7.5,0-11.3,0.1c-3.8,0.1-7.9,0.1-12.3,0.1
		c0-5.3,0-10.8,0.1-16.6c0.1-5.8,0.3-10.7,0.6-14.8c1.2,0.5,2.6,0.5,4.1,0c1.5-0.5,3.1-0.5,4.7,0c1.2,0,2.1,0.3,2.8,0.8
		c0.7,0.5,1.6,0.8,2.8,0.8c1.7,0.5,3.3,0.5,5,0.2c1.7-0.3,3.5-0.4,5.6-0.2c5.7,0.3,11.8,0.7,18.1,1.1c6.3,0.5,12.4,0.1,18.1-1.1
		c0-6.5-0.3-12.7-0.9-18.8c-0.6-6-1.1-12.7-1.4-19.9c-9.5,0.3-19.2,0-29-0.8c-9.9-0.8-19.5-1.6-29-2.4c0-5.3-0.5-10.6-1.4-16
		c-0.9-5.4-1-10.5-0.2-15.4c0-0.9,0.1-1.7,0.3-2.5c0.2-0.8,0.3-1.3,0.3-1.6c0.1-0.9,0.3-2.7,0.3-5.5c0.1-2.8,0.1-6,0.1-9.6
		c0-3.6,0-7.5-0.1-11.5c-0.1-4.1-0.1-7.9-0.1-11.5c0-3.6,0-6.8-0.1-9.5c-0.1-2.7-0.1-4.6-0.1-5.6c0.1-1.4,0.6-2.2,1.4-2.5
		c0.8-0.3,1.8-0.4,3.2-0.2c1.4,0.2,3.1,0.3,5.3,0.3C2420.8,4.9,2423.5,4.7,2426.6,4.1z M2418.5,62.1c0.5,0.3,0.9,0.4,1.5,0.3
		c0.5-0.1,0.6-0.5,0.1-1.2C2419,61.2,2418.5,61.5,2418.5,62.1z M2422.6,72.5c0,0.5-0.2,0.8-0.5,1c-0.3,0.2-0.5,0.7-0.5,1.5
		c0.8-0.5,1.2-0.6,1.5-0.5c0.2,0.2,0.6,0,1-0.5c0-0.3-0.2-0.4-0.5-0.3c-0.3,0.1-0.5,0-0.5-0.3V73C2423.3,72.7,2423,72.5,2422.6,72.5
		z M2422.6,76.6c-0.5,0.8-0.2,1.1,0.9,1.1c1.1,0,1.6-0.4,1.6-1.1c-0.9-0.3-1.5-0.4-1.7-0.2C2423.1,76.5,2422.9,76.6,2422.6,76.6z
		 M2425.7,75c0.5-0.5,0.8-0.9,1.1-1.4c0.3-0.5,0.5-1.1,0.5-1.8c-0.3-0.8-0.8-0.8-1.5-0.2c-0.7,0.6-1.2,0.9-1.7,0.9
		c0.5,0.5,0.6,1,0.6,1.6C2424.6,74.7,2425,75,2425.7,75z M2425.7,68.5v1.8c0.5,0,1,0,1.7-0.1c0.7-0.1,1.2-0.3,1.5-0.8
		c-0.8,0-1.3-0.1-1.6-0.5C2427,68.6,2426.5,68.5,2425.7,68.5z M2428.9,75c0,0.6,0.6,0.9,1.8,0.9C2430.7,75.3,2430.1,75,2428.9,75z
		 M2444.3,83.8c-0.3,0-0.8,0-1.4,0.1c-0.6,0.1-0.9,0.3-0.9,0.8c0.3,0.3,0.8,0.4,1.4,0.3C2444,85,2444.3,84.6,2444.3,83.8z
		 M2447.4,66.2c-0.3,0-0.7-0.1-1.1-0.3c-0.5-0.2-0.8-0.1-1.1,0.3c-0.5,0.8-0.2,1.1,0.8,1.1C2446.9,67.3,2447.4,67,2447.4,66.2z
		 M2447.4,15.4c0.6,0,0.9-0.3,0.9-0.9C2447.7,14,2447.4,14.3,2447.4,15.4z"/>
</g>
</svg>
