<?xml version="1.0" encoding="utf-8"?>
<!-- Generator: Adobe Illustrator 22.0.1, SVG Export Plug-In . SVG Version: 6.00 Build 0)  -->
<svg version="1.1" id="Layer_1" xmlns="http://www.w3.org/2000/svg" xmlns:xlink="http://www.w3.org/1999/xlink" x="0px" y="0px"
	 viewBox="0 0 2084.1 168.7" style="enable-background:new 0 0 2084.1 168.7;" xml:space="preserve">
<style type="text/css">
	.st0{fill:#FFFFFF;}
</style>
<g>
	<path class="st0" d="M84.1,9c0,5.3-0.1,10.5-0.2,15.6c-0.2,5.1-0.1,10.1,0.2,14.9c-3.8-1.5-7.9-2.5-12.3-3.1
		c-4.4-0.5-9-0.8-13.8-0.8c-4.7,0-9.5,0.1-14.4,0.3c-4.8,0.2-9.6,0.3-14.2,0.3C29,41.7,28.9,46.9,29.2,52c0.3,5.1,0.6,10.1,0.9,14.9
		c5.7,1.7,11.7,2.2,18,1.6c6.2-0.6,12.6-1.1,19.1-1.6c0.1,2.1,0.2,4.6,0.1,7.3c-0.1,2.8-0.1,5.6-0.1,8.6s0,5.8,0.1,8.7
		c0.1,2.9,0.3,5.4,0.8,7.7c-6.5,0.8-12.8,1-19.1,0.7c-6.3-0.3-12.5-0.3-18.9,0c0.8,11.3,1,22.9,0.7,34.7
		c-0.3,11.8-0.2,22.9,0.2,33.3c-5.7,0-10.8,0.1-15.3,0.2c-4.4,0.1-9.1,0.1-13.9-0.2c-0.9-11.6-1.4-22.7-1.5-33.3
		C0.3,124,0.3,112.2,0.3,99.2c0-2.1-0.1-4.1-0.2-6.1c-0.2-2-0.1-4,0.2-6.1c0-1.7,0.3-3.1,0.8-4.4c0.5-1.3,0.8-2.7,0.8-4.4
		c0-0.8-0.2-1.4-0.5-1.9c-0.3-0.5-0.7-1.2-1.1-2.1c0-2.4,0.2-4.9,0.6-7.6c0.4-2.6,0.2-5.2-0.6-7.6c0.5-4.1,0.8-7.8,0.9-11.3
		c0.1-3.5,0.3-6.9,0.3-10.2c0.1-3.3,0.1-6.7,0.1-10.1s0.1-7.1,0.2-11.2C1.6,15.4,1.8,15,2.4,15c0.7,0.1,1-0.1,1-0.6
		c-0.8-2.3-0.8-4.7,0-7.2C9.2,6,15.3,5.4,21.9,5.3c6.6-0.1,13.1,0,19.5,0.3C48.7,6.1,56,6.3,63.4,6.2C70.7,6.1,77.7,7.1,84.1,9z
		 M6,166.8c0,0.5,0.2,0.6,0.6,0.3c0.4-0.2,0.7-0.3,1-0.3c-0.3,0-0.6-0.1-1-0.2C6.1,166.4,6,166.5,6,166.8z M7.5,6.6v0.7h0.9
		c0,0.5,0.1,0.5,0.3,0.2C9,7.2,9.1,6.9,9.1,6.6c-0.3-0.5-0.6-0.5-1-0.1C7.7,6.8,7.5,6.9,7.5,6.6z M17.3,159.6
		c0.5,0.5,0.8,0.6,0.9,0.3c0.1-0.2,0.4-0.3,0.7-0.3c0-1.2-0.3-1.9-1-2c-0.7-0.1-1.4-0.2-2.1-0.2c0.3,0.8,0.4,1.4,0.3,1.8
		c-0.1,0.5,0,0.9,0.3,1.4c-0.2,0-0.3,0.1-0.5,0.2c-0.2,0.2-0.2,0.6-0.2,1.4c0.8,0,1.2-0.2,1.4-0.6C17.2,161.1,17.3,160.5,17.3,159.6
		z"/>
	<path class="st0" d="M180.4,71.9c-0.2,1.2,0,2.3,0.3,3.3c0.4,1,0.8,2.3,1.2,4c0,2.4-0.2,4.9-0.5,7.6c-0.3,2.6-0.5,5.2-0.5,7.8
		c0,4.4,0,8.8,0,13.3s-0.2,9.4-0.7,14.7c-0.3,3.3-0.5,6.3-0.7,8.8c-0.2,2.6,0.1,5.3,0.7,8.1c0,0.5,0.1,1,0.3,1.7
		c0.2,0.7,0.3,1.2,0.3,1.7c0,1.2-0.3,2.4-0.8,3.6c-0.5,1.2-0.8,2.4-0.8,3.6c-0.3,2.9-0.2,5.8,0.5,8.8c0.6,3,0.8,6,0.5,8.8
		c-1.2,0.3-2,0.2-2.4-0.2c-0.4-0.5-0.9-0.7-1.7-0.7c-4.1,0-7.8-0.4-11.1-1.1c-3.3-0.8-6.6-1.1-9.9-1.1c-2.9,0.3-5.8,0.7-8.8,1.1
		c-3,0.5-6,0.3-8.8-0.5c-0.3-0.1-0.5-0.5-0.5-1.1c0-0.6-0.1-1.2-0.2-1.9c-0.2-0.7-0.3-1.4-0.6-2c-0.2-0.7-0.6-1.1-1.2-1.2
		c0.8-0.5,1-1.3,0.8-2.6c-0.2-1.3-0.5-2.3-0.8-3.1c0.8-1.2,0.9-2.6,0.6-4.2c-0.4-1.6-0.6-3.4-0.6-5.5c0-1.2,0.1-2.2,0.3-3.1
		c0.2-0.8,0.3-1.4,0.3-1.7c-0.3-1.2-0.8-1.8-1.4-1.9c-0.6-0.1-0.9-0.6-0.9-1.5c3.2-0.8,6.3-1.1,9.3-0.9c3,0.2,5.6,0.2,7.7,0.2
		c0.8-1.2,1-2.4,0.8-3.7c-0.2-1.3,0-1.9,0.8-1.9c-0.8-4.8-1-10.4-0.8-16.8c0.2-6.4,0.2-12.6-0.1-18.6c-0.5-9.9-0.9-19.5-1.4-28.8
		s-0.5-18.2-0.2-26.8c-2.6-0.8-4.7-1.2-6.6-1.2c-1.8-0.1-3.6,0-5.3,0.1c-1.7,0.2-3.5,0.4-5.4,0.7c-1.9,0.3-4.2,0.5-6.9,0.5
		c-0.3,8.4-0.3,16.7,0.1,24.9c0.4,8.1,0.8,16.2,1.2,24.1c0.5,7.9,0.8,15.7,1,23.5c0.2,7.8,0,15.6-0.8,23.4c0.5,0.6,1.1,1,1.8,1.2
		c0.8,0.2,1.5,0.5,2.3,0.7c0.8,0.2,1.4,0.6,2,1c0.6,0.5,1,1.1,1.1,2c-0.3,0-0.8-0.1-1.4-0.3c-0.6-0.2-0.9-0.1-0.9,0.3
		c0.3,2.4,0.6,5,1,7.9c0.4,2.9,0.3,6.1-0.3,9.7c0,0.5-0.1,1.1-0.3,1.8c-0.2,0.8-0.3,1.5-0.3,2.3c0,0.8,0.4,1.5,1.1,2.4
		c0.8,0.8,1.1,1.6,1.1,2.4c-5.7,0.8-11.8,0.9-18.1,0.6c-6.3-0.4-12.1-0.6-17.4-0.6c-1.7-16-2.7-31.8-3.1-47.5
		c-0.4-15.7-0.7-31.3-1-46.8c-0.2-6.5,0.3-13.1,1.5-19.8c1.1-6.7,1.5-13.3,1-19.8c-0.3-4.4-0.8-8.5-1.6-12.3
		c-0.8-3.8-0.8-7.8,0-11.9c10.1,0,20.8,0,32.1-0.1c11.3-0.1,22.1-0.3,32.5-0.6c3.2-0.5,6.3-0.6,9.5-0.3s6.2,1.2,9,2.8
		c0.6,2.4,0.8,4.9,0.7,7.3c-0.2,2.5-0.4,5-0.7,7.5c-0.3,2.5-0.5,5-0.7,7.5c-0.2,2.5,0.1,4.9,0.7,7.3c0,0.9,0.3,1.8,0.9,2.6
		c0.6,0.8,1.1,1.8,1.4,3.1c0.5,2.1,0.2,4.3-0.7,6.7c-0.9,2.3-1.2,4.7-0.9,7.1c0,0.8,0.3,1.4,0.8,2c0.5,0.6,0.8,1.3,0.8,2
		c0,1.7-0.2,3.3-0.6,4.9C180.2,68.6,180.1,70.2,180.4,71.9z M103.8,116.2c0,0.3,0.3,0.3,1,0.1c0.7-0.2,0.9-0.6,0.6-1
		C104.3,115.3,103.8,115.6,103.8,116.2z M107,87c0.3-0.3,0.6-0.5,1-0.7c0.4-0.1,0.6-0.5,0.6-0.9c-0.8-0.3-1.3-0.2-1.7,0.3
		C106.5,86.3,106.5,86.7,107,87z M110.1,36.4c0-0.8-0.3-1.3-1-1.7c-0.7-0.4-1.4-0.3-2.1,0.1c0,0.8,0.3,1.2,1,1.4
		C108.7,36.3,109.4,36.4,110.1,36.4z M107,45.2v1.6h1.6C108.6,45.7,108,45.2,107,45.2z M108.6,49.9c-0.5,0.5-0.2,0.7,0.8,0.7
		c1,0,1.2-0.2,0.8-0.7c0-0.3-0.2-0.4-0.5-0.2C109.4,49.9,109,49.9,108.6,49.9z M114.2,16.3l-3.2,3.8c0.8,0,1.7-0.5,2.7-1.4
		C114.8,17.9,115,17,114.2,16.3z M112.6,29.2c0,0.3,0.1,0.6,0.2,1c0.1,0.4,0.6,0.6,1.4,0.6c0.5-0.5,0.5-0.9,0.1-1.5
		C113.9,28.7,113.4,28.7,112.6,29.2z M114.2,79.1c0.5,0.3,1,0.3,1.6,0.1c0.6-0.2,0.9-0.6,0.9-1c-0.8,0-1.3-0.4-1.6-1.1
		c-0.3-0.8-0.8-1.1-1.6-1.1c-0.5,0.8-0.3,1.4,0.3,1.8C114.5,78.2,114.7,78.6,114.2,79.1z M156.2,148.3c0-0.8,0.1-1.3,0.3-1.6
		c0.2-0.3,0.3-0.8,0.3-1.6c-0.8-0.3-1.4-0.3-2,0.1c-0.6,0.4-1.5,0.3-2.7-0.1c0.3,0.8,0.4,1.2,0.2,1.5c-0.2,0.2-0.2,0.6-0.2,1
		c0.8,0,1.4,0,2,0.1C154.8,147.8,155.5,148,156.2,148.3z M160.3,136.3c0.3-0.5,0.4-0.9,0.2-1.2c-0.2-0.4-0.2-0.8-0.2-1.2
		c-1.2,0-1.8,0.5-1.8,1.6c0.5,0,0.8,0.2,0.9,0.5C159.6,136.1,159.9,136.3,160.3,136.3z M166.6,152.3h-1.6c0,0.5,0.3,0.8,0.8,0.9
		C166.4,153.4,166.6,153.1,166.6,152.3z"/>
	<path class="st0" d="M279.2,69.4c-1.7-0.5-3.1-0.5-4.4,0c-1.3,0.5-2.8,0.5-4.4,0c1.2,8.1,2.7,16.3,4.5,24.5
		c1.8,8.2,3.7,16.5,5.5,24.7c1.9,8.3,3.7,16.5,5.5,24.7c1.8,8.2,3.3,16.4,4.5,24.5h-29.2l-7.2-23.5c-1.4-4.4-2.7-8.5-4.1-12.4
		c-1.4-3.9-2.4-7.8-3.2-11.8c0-1.2-0.1-2.1-0.2-2.7c-0.2-0.6-0.1-1.1,0.2-1.4c0-0.5-0.3-0.8-0.8-1c-0.5-0.2-0.8-0.7-0.8-1.5
		c-1.2-6.9-2.5-14-3.7-21.4c-1.3-7.3-3-14.4-5.1-21.4h-7.2c0,8.4,0.3,16.2,0.9,23.2c0.6,7,1.1,14.4,1.4,22c0.5,9,0.5,17.7,0.1,26
		c-0.4,8.3-1.2,16.5-2.4,24.6h-9.7h0.7v-1.6h-0.7h-0.9h-0.7c-0.6,0-0.9,0.2-0.9,0.5c-0.2,0.2-0.2,0.3,0,0.5v0.7h0.9h-5.6
		c-1.7,0-3.4,0.1-5.2,0.3s-3.3,0.1-4.5-0.3c-1.4-0.8-2.2-2-2.6-3.6c-0.4-1.7-0.5-3.5-0.5-5.6c0.1-2.1,0.2-4.3,0.5-6.4
		c0.2-2.2,0.3-4.2,0.1-6c0-1.7-0.5-3.2-1.4-4.7c-0.9-1.5-1.5-2.9-1.8-4.1c-0.6-2.4-0.5-5.3,0.3-8.6c0.8-3.3,1.2-6.3,1.2-9
		c0-6.3-0.2-12-0.5-17.1c-0.3-5-0.5-10.4-0.5-16.2c0-3.2-0.1-6.3-0.2-9.5c-0.2-3.2-0.1-6.2,0.2-9c0-0.8,0-1.3-0.1-1.6
		c-0.1-0.3,0.3-0.8,1-1.6c0-0.5-0.2-0.6-0.7-0.6c-0.5,0.1-0.5-0.3-0.2-1c0-7.2,0-15.8,0.1-25.7c0.1-9.9,0.3-19.8,0.8-29.9
		c7.2,0.2,14.7,0.2,22.4,0c7.7-0.1,15.3-0.3,22.9-0.5c7.6-0.1,15-0.3,22.3-0.5c7.2-0.1,14-0.1,20.3,0c-0.8,3.3-0.6,6.3,0.3,8.9
		c1,2.6,1.7,5.6,2.1,8.9c0.3,3.2,0.3,6.6,0,10.4c-0.3,3.8-0.3,7.2,0,10.4c0.1,2.4,0.6,5,1.4,7.8c0.8,2.8,1.2,5.4,1.5,7.9
		c0.2,2.5,0,4.7-0.7,6.6c-0.7,1.9-2.2,3.1-4.6,3.7c-1.2,0.3-2.4,0.2-3.6-0.2C281.6,69.6,280.4,69.4,279.2,69.4z M206.6,22.6
		c1.2,0.5,2.1,0.5,2.6,0c0.5-0.5,0.8-0.9,0.8-1.5c0-0.5-0.3-0.8-0.8-0.9c-0.5-0.1-1.2,0.5-1.9,1.7c-0.3,0-0.6-0.1-0.9-0.2
		C206.1,21.5,206.2,21.8,206.6,22.6z M206.6,29.2v0.7c0.3,0,0.6,0.1,1,0.2c0.4,0.2,0.6-0.1,0.6-0.9c0-0.5-0.2-0.6-0.6-0.3
		C207.3,29,206.9,29.2,206.6,29.2z M258.2,42c0.5-2.1,0.7-4,0.8-5.7c0.1-1.7,0.1-3.5,0.1-5.6c-3.3-0.5-6.7-0.6-10.3-0.3
		c-3.5,0.2-7.1,0.3-10.7,0.3c-0.5-0.5-0.6-1-0.6-1.6c0.1-0.6-0.3-0.9-1-0.9c-0.5,0.8-0.5,1,0,0.7c0.5-0.3,0.7-0.2,0.7,0.2v0.7
		c-1.7,0.8-3.1,1.1-4.4,1.1c-1.3,0-2.8,0.2-4.4,0.5c0,1.7,0.1,3.4,0.5,5.3c0.3,1.9,0.5,3.7,0.5,5.3C239.3,42.6,249,42.6,258.2,42z"
		/>
	<path class="st0" d="M390.8,133.1h0.2c0.3,0,0.5,0.2,0.5,0.7l5.6,34.8h-22.6c-2.1-4.8-3.7-9.6-4.7-14.5c-1.1-4.8-2.4-9.4-4.1-13.8
		c-4.4,0-9.2-0.1-14.6-0.5c-5.4-0.3-10.4-0.5-15.3-0.5c-2.1,4.4-3.5,9-4.2,13.9c-0.7,4.9-1.5,9.8-2.4,14.6c-3.9,0-8,0.2-12.2,0.6
		c-4.2,0.4-8.7,0.2-13.6-0.6l5.6-38.9c0.8,0.8,1.8,0.8,3.2,0c-0.8-0.5-1.4-0.6-1.8-0.5c-0.5,0.2-0.9,0-1.4-0.5
		c1.7-9.6,3.1-19.5,4.2-29.6c1.1-10.1,2.4-20.3,4-30.7l2.5-17.9c0.3-1.7,0.9-3,1.8-4c0.9-1,1.4-2.3,1.4-4c0.8-2.6,1.3-5.2,1.6-7.8
		c0.3-2.6,0.8-5.2,1.6-7.6c1.2-3.6,2.2-7.2,2.9-10.8c0.8-3.6,1.1-7.2,1.1-10.8h6.6c-0.5,0.3-0.8,0.4-0.9,0.2C335.8,5,335.5,5,335,5
		c0,0.8,0.5,1,1.5,0.8c1-0.2,1.8-0.5,2.6-0.8c0.5,0,0.6,0.2,0.5,0.5c-0.2,0.3,0,0.7,0.5,1.1c0.3-0.5,0.6-0.8,0.9-0.9
		c0.3-0.1,0.2-0.4-0.2-0.7h16.3c2.9-0.5,5-0.8,6.6-0.9c1.5-0.1,2.6,1.2,3.2,4.1l2.3,12c0.8,1.7,1.4,3.4,1.9,5.3
		c0.5,1.9,1,3.7,1.5,5.3c0,0.3-0.2,0.4-0.5,0.3c-0.3-0.1-0.5,0-0.5,0.3v0.9c0-0.6-0.3-0.9-0.9-0.9c-0.5,0-0.7,0.2-0.7,0.5v0.5
		l-0.9-0.9v0.9c-0.3,0-0.6,0.1-1,0.2c-0.4,0.2-0.6,0.6-0.6,1.4v0.9h0.9h0.7l-0.7,0.7l0.7-0.7v0.7c-0.5,0.8-0.7,1.3-0.7,1.6V38
		l1.6-0.9v0.5c0,0.3,0.2,0.5,0.7,0.5c0.9,0,1.4-0.3,1.6-0.9c0.1-0.6,0.2-1.1,0.2-1.6v-0.7h-2.5h0.7c0.5-0.5,0.9-0.8,1.2-0.9
		c0.4-0.1,0.6-0.4,0.6-0.7l1.6,5.4c2.7,9.5,4.9,19.2,6.4,29.2c1.6,9.9,3.4,19.9,5.5,29.8c0,1.1-0.2,1.6-0.7,1.6
		c0.8,1.2,1.4,2.7,1.8,4.5s0.9,3.5,1.4,5.2c0.5,3.6,1,7.3,1.6,11.1c0.6,3.8,0.9,7.3,0.9,10.6C391.6,131.5,391.6,132.4,390.8,133.1z
		 M337.5,11.3l-0.7,0.9h1.6h2.3v-0.9l0.9,0.9v-1.6h-0.9V9.7l-0.7,0.9h-0.9h-0.5c-0.2,0-0.3,0.1-0.5,0.2
		C338,11,337.8,11.2,337.5,11.3z M342.5,108.9c2,0.3,4.8,0.4,8.5,0.2c3.7-0.1,6.7-0.2,9.2-0.2c-1.2-7.2-2.5-14.4-3.7-21.5
		c-1.3-7.1-3-13.6-5.1-19.7c-1.7,6.5-3.4,13.1-5.1,20C344.5,94.7,343.2,101.7,342.5,108.9z M374.6,153.2h1.8h0.7l2.5,1.6l-0.9-2.5
		c-0.5-0.5-1.2-0.7-2.3-0.7h-0.9h-0.9l-1.6-0.9v0.9c0.5,0.8,0.8,1.2,0.9,1.4C374,153.2,374.2,153.2,374.6,153.2z"/>
	<path class="st0" d="M498.9,57.4v-0.9c-0.6,0-1.1,0.2-1.4,0.5l-0.5,0.5c-0.5,0.5-0.7,1-0.7,1.6v0.7h0.7h1.8v-1.6v17.9v33v33
		c0,2.1-0.2,3.8-0.7,5c-0.5,1.2-1.1,2.3-1.8,3.2c-0.8,0.9-1.6,1.8-2.6,2.6c-1,0.8-2,1.8-3.1,3.1c-1.7,2-2.9,4-3.6,6.1
		c-0.8,2.1-2,3.8-3.6,5c-11-0.3-22.5-0.2-34.6,0.2c-12.1,0.5-24.2,0.7-36.4,0.7c-0.6,0-0.9-0.5-0.9-1.6c1.1,0,1.9-0.3,2.5-0.9v-0.7
		c0.5,0,0.8-0.1,1.1-0.5l0.5-0.5c0-0.3,0-0.5-0.1-0.7c-0.1-0.1-0.3-0.5-0.8-0.9l-0.7-0.7v0.7h-0.9h-0.7v0.9v0.7h-0.9v0.9l-0.7,0.7
		v0.9h0.7c-0.3,0.3-0.9,0.6-1.7,1c-0.8,0.4-1.6,0.6-2.4,0.6c-0.3-4.8-0.4-9.8-0.3-14.9c0.1-5.1,0-10.3-0.3-15.6
		c1.7-0.9,3.1-1.1,4.3-0.7c1.2,0.5,2.2,0.1,2.9-1.1c0.3,0,0.5,0.2,0.5,0.5c0,0.3-0.2,0.5-0.5,0.5c0,0.5,0.3,0.4,1-0.1
		c0.7-0.5,1.4-0.8,2.1-0.8c0.5,0.5,1,0.9,1.7,1.2c0.7,0.4,1.2,0.6,1.5,0.6c4.5,0.8,9.1,1,13.8,0.7c4.7-0.3,9.3-0.3,13.8,0
		c3.6,0.3,7.2,0.3,10.6,0c3.5-0.3,6.6-0.8,9.5-1.6c0-4.1-0.3-8.5-0.8-13.3c-0.5-4.8-0.8-9.3-0.8-13.3c0.3,0.5,0.6,0.8,0.9,1
		c0.3,0.2,1.1,0.2,2.3-0.1c0-0.8-0.6-1.2-1.7-1.2c-1.1-0.1-1.9-0.5-2.4-1.2c0.5-2.1,0.3-4.2-0.5-6.2c-0.8-2-1.1-4.3-1.1-6.7
		c0-0.8,0.1-1.4,0.5-2c0.3-0.6,0.5-1.3,0.5-2c0.3-3.2,0-6.3-0.8-9.5c-0.8-3.2-0.9-6.2-0.1-9c0-0.8-0.1-1-0.3-0.8
		c-0.2,0.2-0.3,0-0.3-0.8c0.3-5.3,0.6-10.6,1-15.9c0.4-5.3,0.6-11,0.6-17.1c-10.7-0.9-21.8-0.9-33.2,0c-0.8-5.3-0.9-10.6-0.6-16
		c0.4-5.4,0.6-10.5,0.6-15.4c1.2,0,2.6,0.1,4.2,0.2c1.6,0.2,3.2,0.1,4.9-0.2c0.3,0.3,0.5,0.6,0.5,1c0,0.4,0.4,0.6,1.1,0.6
		c0.8,0,0.8-0.2,0.2-0.6c-0.6-0.4-0.7-0.7-0.2-1c8.1,0,17,0.1,26.7,0.2c9.6,0.2,19,0.1,28-0.2c2,8.9,2.8,17.4,2.6,25.4
		C499.4,40,499.2,48.5,498.9,57.4z M422.9,157.3c0,0.5,0.2,0.7,0.7,0.7h0.9C424.5,157.5,424,157.3,422.9,157.3z M428.6,162
		c0-1.1-0.5-1.6-1.6-1.6c0,0.5,0.1,0.8,0.2,1.1C427.4,161.9,427.8,162,428.6,162z M431.1,146.7c0.8,0,1.2-0.3,1.4-0.9
		c0.1-0.6,0.2-1.1,0.2-1.4c-0.5-0.5-1-0.7-1.7-0.7s-1.2,0.2-1.5,0.7C431.1,144.4,431.7,145.2,431.1,146.7z M429.5,161.4
		c1.8,0,2.3-0.8,1.6-2.5c-0.8,0-1.2,0.2-1.4,0.6C429.5,159.8,429.5,160.5,429.5,161.4z M433.3,144.4c1.2,0,1.8-0.3,1.8-0.9
		c-0.5-0.3-0.9-0.3-1.2-0.1C433.5,143.6,433.3,144,433.3,144.4z M434.2,146c0.5,0.3,1.1,0.3,1.9,0c0.8-0.3,1.2-0.8,1.2-1.6l-0.5-0.5
		l-1.1-1.1v0.7c0.5,0.8,0.4,1.2-0.1,1.5C435.2,145.2,434.7,145.5,434.2,146z M439.9,153.2c0-0.8,0.1-1.2,0.5-1.5
		c0.3-0.2,0.5-0.6,0.5-1c-1.2,0-2,0.5-2.4,1.4c-0.4,0.9-0.9,1.5-1.7,1.8c0.3,0.5,0.8,0.5,1.5,0C438.8,153.5,439.4,153.2,439.9,153.2
		z"/>
	<path class="st0" d="M573.7,142.8l1.8,24.9c-11.3-0.9-22.1-1.1-32.4-0.5c-10.3,0.6-20.5,0.8-30.6,0.5c0-5.3,0.1-10.6,0.2-15.9
		c0.1-5.3,0.6-10.2,1.4-14.6c1.7-0.5,3.4-0.5,5.3-0.1c1.9,0.4,3.7,0.4,5.3,0.1c0.3-5.3,0.6-10.1,1-14.6c0.4-4.4,0.6-9.3,0.6-14.6
		c0.3-0.8,0.8-0.8,1.5-0.2c0.7,0.6,1.2,0.7,1.7,0.2c0-0.6-0.2-1-0.5-1.1c-0.3-0.1-0.7-0.3-1.1-0.3c-0.5-0.1-0.8-0.1-1.1-0.2
		c-0.3-0.1-0.5-0.3-0.5-0.8c0.3-6.8,0.5-13.8,0.6-21c0.1-7.2,0.1-14.7,0.1-22.4c0-0.6,0.5-0.9,1.6-0.9c0-0.8-0.3-1.1-0.8-1
		c-0.5,0.1-0.8-0.1-0.8-0.6c0-1.2,0-2.3,0.1-3.4c0.1-1.1,0.3-1.8,0.8-2.3c-0.8-2.1-0.9-4.5-0.6-7.2c0.4-2.7,0.6-5.6,0.6-8.8
		c-1.7-0.3-4-0.3-7,0c-3,0.3-5.5,0.3-7.5,0l1.6-29.8c6.5-0.5,13.8-0.5,21.9-0.1c8.1,0.4,15.9,0.1,23.3-0.8c2.9-0.3,5.5-0.6,7.8-1
		c2.3-0.4,5.1-0.6,8.2-0.6V38h-19.4c-0.3,15.5-0.6,31.5-1,47.8c-0.4,16.3-0.6,33.2-0.6,50.5c3.3,0.5,6.5,0.6,9.6,0.3
		c3.1-0.2,6.1-0.3,8.9-0.3v4.7h-1.6h-0.7v0.9c0,0.8,0.1,1.2,0.3,1.5c0.2,0.2,0.3,0.6,0.3,1h0.9v-0.9h0.2
		C573.5,143.5,573.7,143.3,573.7,142.8z M533.4,27.6c0.3,0.3,0.6,0.4,1,0.3c0.4-0.1,0.6-0.5,0.6-1.2c0,0.5-0.3,0.6-0.8,0.5
		C533.7,27,533.4,27.1,533.4,27.6z M542.2,14.5h-1.6c0,0.9,0.4,1.4,1.1,1.4C542.5,15.8,542.7,15.4,542.2,14.5z M543.1,46.1l-2.5-1.8
		c0,1.7,0.3,2.7,0.9,3.2c0.6,0.5,1.1,1.1,1.6,1.8c0.3,0,0.5-0.2,0.7-0.6c0.1-0.4,0.5-0.7,0.9-1c-0.8,0-1.2-0.2-1.4-0.6
		C543.2,46.7,543.1,46.4,543.1,46.1z M543.1,92c0.8,0.3,1.2,0.2,1.4-0.3c0.1-0.5,0.2-0.9,0.2-1.2c-0.8,0-1.2,0.2-1.4,0.5
		C543.2,91.2,543.1,91.5,543.1,92z M548.8,51.8c0.3,0.3,0.6,0.3,1,0.1c0.4-0.2,0.6-0.6,0.6-1c-0.8-0.5-1.2-0.5-1.4-0.2
		C548.9,50.9,548.8,51.3,548.8,51.8z M550.4,54.9v-1.6c-0.5,0-0.8,0.1-0.9,0.3c-0.2,0.2-0.4,0.3-0.7,0.3
		C548.8,54.6,549.3,54.9,550.4,54.9z M551.1,29.8c0.5,0.5,1,0.6,1.6,0.6c0.6-0.1,0.9-0.5,0.9-1.2c-0.3-0.5-0.8-0.5-1.5-0.2
		C551.4,29.2,551.1,29.5,551.1,29.8z M554.4,155.7c1.1,0,1.6-0.3,1.6-0.9l-0.9-0.9c0,0.5-0.1,0.8-0.3,0.9
		C554.6,155,554.4,155.3,554.4,155.7z M560.8,17h-1.6v0.9c0-0.5,0.3-0.6,0.8-0.5C560.5,17.6,560.8,17.4,560.8,17z M561.7,158
		c0.3-0.3,0.6-0.6,1-0.8c0.4-0.2,0.6-0.7,0.6-1.5c-0.8,0-1.3,0.3-1.7,0.9C561.2,157.2,561.2,157.7,561.7,158z"/>
	<path class="st0" d="M588.1,167.9l2.5-30.7c1.7,0,3.6-0.1,5.8-0.3c2.2-0.2,4.6-0.1,7.1,0.3c1.2-5.7,1.9-11.3,2-16.7
		c0.1-5.4,0-10.4-0.5-14.9c0-0.5,0.5-0.7,1.6-0.7c0-0.5-0.3-0.6-0.8-0.6c-0.5,0.1-0.8-0.3-0.8-1c0.5-4.1,0.6-7.8,0.3-11.1
		c-0.2-3.3-0.3-6.6-0.3-9.9c0-2.6,0-5.5-0.1-8.8c-0.1-3.3-0.2-6.8-0.2-10.4c-0.1-3.6-0.1-7.2-0.1-10.8c0-3.6,0.1-7,0.5-10.2
		c0.5,0,0.5-0.3,0.1-0.8c-0.4-0.5-0.1-0.8,0.8-0.8c-0.5-0.5-0.7-1-0.8-1.7c-0.1-0.7-0.1-1.2-0.1-1.7c-2.9,0.5-5.7,0.8-8.6,0.9
		c-2.9,0.2-5.1-0.4-6.8-1.6c1.2-4.8,1.7-9.8,1.4-14.8c-0.3-5-0.5-10.6-0.5-16.6c11.8,0,23.4,0.2,35,0.6c11.6,0.4,23.3,0.9,35,1.7
		c0.5,0.9,1.1,1.3,1.9,1.1c0.8-0.1,1.8-0.2,3.1-0.2l1.6,1.6c0.3-0.3,0.2-0.6-0.2-0.8c-0.5-0.2-0.7-0.8-0.7-1.7
		c1.2,0.5,2.2,1.2,3.1,2.3c0.8,1.1,1.5,2,1.9,2.7l4.7,5.6c0.5,0.5,1.1,1.1,1.8,2c0.8,0.9,1.5,1.9,2.4,2.9c0.8,1.1,1.6,2.1,2.4,3.3
		c0.8,1.1,1.3,2.1,1.6,3.1c1.1,2.9,1.3,6.1,0.8,9.7c-0.5,3.6-0.8,7.1-0.8,10.4v64.4c-0.6,0-0.9-0.1-0.9-0.2c-0.2-0.1-0.2-0.3,0-0.5
		c-0.3,0.8-0.3,1.2-0.1,1.2c0.2,0.1,0.6-0.1,1-0.6v13.8l-0.9-0.9h-0.7v0.9c-0.2,0.2-0.2,0.3-0.2,0.5c-0.2,0.2-0.4,0.2-0.7,0.2
		c-0.2,0.2-0.2,0.4-0.2,0.7c0,0.3,0,0.6-0.1,0.9c-0.1,0.3,0,0.6,0.3,0.9c0.5,0,0.9-0.2,1.2-0.6c0.4-0.4,0.8-0.7,1.2-1
		c0,2.9,0.1,5.6,0.2,8.4c0.1,2.7,0.1,5.3-0.2,7.7c0,2.9-1,5.4-2.9,7.5c-2,2.1-3.9,4.2-5.9,6.3c-1.1,2-2.1,3.7-3.2,5.1
		c-1.1,1.4-2.2,2.8-3.4,4c-1.2-0.3-2.7-0.3-4.4-0.1c-1.7,0.2-3,0.2-3.7-0.1v-0.9c-0.8,0-1.2,0.1-1.5,0.3c-0.2,0.2-0.5,0.5-0.8,0.8
		h-38.9h-10.4c-0.5-0.3-0.8-0.2-1.1,0.2c-0.3,0.5-0.5,0.3-0.5-0.5c-2.9,0.8-6.1,1-9.7,0.7C594.2,168.1,591,167.9,588.1,167.9z
		 M616.4,64.6h-1.6v1.6c0.3-0.5,0.6-0.8,1-0.9C616.2,65.2,616.4,64.9,616.4,64.6z M616.4,34.8c0.3,0.3,0.3,0.5-0.1,0.7
		c-0.4,0.2-0.3,0.5,0.1,0.9c0.8,0,1.2,0.3,1.2,1c0.1,0.7,0.7,0.9,1.9,0.6c0.5,0,0.7-0.3,0.8-0.9c0.1-0.6,0.1-1.1,0.1-1.6
		c-0.8-0.3-1.4-0.4-2-0.3C617.8,35.2,617.1,35.1,616.4,34.8z M622.9,51.8c0.8-1.7,0.6-2.9-0.5-3.6c-1.1-0.8-1.7-1.7-2-2.9l-1.6,1.6
		c0.3,0.5,0.8,0.8,1.4,1c0.6,0.2,0.9,0.7,0.9,1.5c-0.8,0.8-1.4,1.1-2,1.1c-0.6,0-1.5,0.5-2.7,1.4c1.7,0.3,2.9,0.2,3.8-0.5
		C621.1,50.7,622,50.9,622.9,51.8z M621.1,19.4c-0.8,0-1.2,0.3-1.5,0.9c-0.2,0.6-0.5,1.1-0.8,1.6c0.3,0,0.8-0.2,1.4-0.7
		C620.8,20.8,621.1,20.2,621.1,19.4z M618.9,70.3c1.1,0,1.6-0.3,1.6-0.9c0-0.5-0.3-0.6-0.8-0.6C619.1,68.9,618.9,69.4,618.9,70.3z
		 M623.6,46.1c0.5-0.9,0.5-1.5,0-1.8c-0.5-0.3-0.7-0.3-0.7,0V45C622.9,45.3,623.1,45.7,623.6,46.1z M626.8,41.1
		c-0.3,0-0.9-0.2-1.8-0.6c-0.9-0.4-1.4-0.2-1.4,0.6c0.5,0.5,0.9,0.8,1.4,1s0.3,0.7-0.5,1.5c0.8-0.5,1.2-0.9,1.5-1.2
		C626.2,42,626.5,41.6,626.8,41.1z M626.1,81.6c-0.5-0.5-0.6-1-0.5-1.6c0.1-0.6,0-0.9-0.5-0.9c-0.3,0.3-0.4,0.8-0.3,1.5
		C624.9,81.2,625.3,81.6,626.1,81.6z M649.4,35.5c-2.1,0.5-4.5,0.6-7.1,0.5c-2.6-0.1-4.8,0-6.4,0.5c0,17.8,0,34.8,0.1,51.2
		c0.1,16.3,0.3,33.4,0.6,51.2c2.6,0,5.5-0.1,8.8-0.2c3.3-0.1,6-0.6,8.1-1.4l-1.6-23.5c-0.2-2.4-0.5-4.8-0.9-7.1
		c-0.5-2.3-0.7-4.6-0.7-6.7c0-0.1,0.1-0.3,0.2-0.5c0.3-0.3,0.5-0.7,0.5-1.1c0-0.3-0.2-0.5-0.6-0.7c-0.4-0.1-0.2-0.5,0.6-0.9
		c-1.1,0-1.6-0.2-1.6-0.7c0-1.2,0.3-2.6,0.8-4.1c0.5-1.5,0.8-2.9,0.8-4.1c-0.3-3.2-0.8-6.2-1.4-9c-0.6-2.9-0.9-5.7-0.9-8.6
		c0-5.7,0.3-11.3,0.9-16.8C650.2,48,650.1,42,649.4,35.5z"/>
	<path class="st0" d="M782.7,71.9c-0.2,1.2,0,2.3,0.3,3.3c0.4,1,0.8,2.3,1.2,4c0,2.4-0.2,4.9-0.5,7.6c-0.3,2.6-0.5,5.2-0.5,7.8
		c0,4.4,0,8.8,0,13.3s-0.2,9.4-0.7,14.7c-0.3,3.3-0.5,6.3-0.7,8.8c-0.2,2.6,0.1,5.3,0.7,8.1c0,0.5,0.1,1,0.3,1.7
		c0.2,0.7,0.3,1.2,0.3,1.7c0,1.2-0.3,2.4-0.8,3.6c-0.5,1.2-0.8,2.4-0.8,3.6c-0.3,2.9-0.2,5.8,0.5,8.8c0.6,3,0.8,6,0.5,8.8
		c-1.2,0.3-2,0.2-2.4-0.2c-0.4-0.5-0.9-0.7-1.7-0.7c-4.1,0-7.8-0.4-11.1-1.1c-3.3-0.8-6.6-1.1-9.9-1.1c-2.9,0.3-5.8,0.7-8.8,1.1
		c-3,0.5-6,0.3-8.8-0.5c-0.3-0.1-0.5-0.5-0.5-1.1c0-0.6-0.1-1.2-0.2-1.9c-0.2-0.7-0.3-1.4-0.6-2c-0.2-0.7-0.6-1.1-1.2-1.2
		c0.8-0.5,1-1.3,0.8-2.6c-0.2-1.3-0.5-2.3-0.8-3.1c0.8-1.2,0.9-2.6,0.6-4.2c-0.4-1.6-0.6-3.4-0.6-5.5c0-1.2,0.1-2.2,0.3-3.1
		c0.2-0.8,0.3-1.4,0.3-1.7c-0.3-1.2-0.8-1.8-1.4-1.9c-0.6-0.1-0.9-0.6-0.9-1.5c3.2-0.8,6.2-1.1,9.3-0.9c3,0.2,5.6,0.2,7.7,0.2
		c0.8-1.2,1-2.4,0.8-3.7c-0.2-1.3,0-1.9,0.8-1.9c-0.8-4.8-1-10.4-0.8-16.8c0.2-6.4,0.2-12.6-0.1-18.6c-0.5-9.9-0.9-19.5-1.4-28.8
		c-0.5-9.3-0.5-18.2-0.2-26.8c-2.6-0.8-4.7-1.2-6.6-1.2c-1.8-0.1-3.6,0-5.3,0.1c-1.7,0.2-3.5,0.4-5.4,0.7c-1.9,0.3-4.2,0.5-6.9,0.5
		c-0.3,8.4-0.3,16.7,0.1,24.9c0.4,8.1,0.8,16.2,1.2,24.1c0.5,7.9,0.8,15.7,1,23.5c0.2,7.8,0,15.6-0.8,23.4c0.5,0.6,1.1,1,1.8,1.2
		c0.8,0.2,1.5,0.5,2.3,0.7c0.8,0.2,1.4,0.6,2,1c0.6,0.5,1,1.1,1.1,2c-0.3,0-0.8-0.1-1.4-0.3c-0.6-0.2-0.9-0.1-0.9,0.3
		c0.3,2.4,0.6,5,1,7.9c0.4,2.9,0.3,6.1-0.3,9.7c0,0.5-0.1,1.1-0.3,1.8c-0.2,0.8-0.3,1.5-0.3,2.3c0,0.8,0.4,1.5,1.1,2.4
		c0.8,0.8,1.1,1.6,1.1,2.4c-5.7,0.8-11.8,0.9-18.1,0.6c-6.3-0.4-12.1-0.6-17.4-0.6c-1.7-16-2.7-31.8-3.1-47.5
		c-0.4-15.7-0.7-31.3-1-46.8c-0.2-6.5,0.3-13.1,1.5-19.8c1.1-6.7,1.5-13.3,1-19.8c-0.3-4.4-0.8-8.5-1.6-12.3
		c-0.8-3.8-0.8-7.8,0-11.9c10.1,0,20.8,0,32.1-0.1c11.3-0.1,22.1-0.3,32.5-0.6c3.2-0.5,6.3-0.6,9.5-0.3s6.2,1.2,9,2.8
		c0.6,2.4,0.8,4.9,0.7,7.3c-0.2,2.5-0.4,5-0.7,7.5c-0.3,2.5-0.5,5-0.7,7.5c-0.2,2.5,0.1,4.9,0.7,7.3c0,0.9,0.3,1.8,0.9,2.6
		c0.6,0.8,1.1,1.8,1.4,3.1c0.5,2.1,0.2,4.3-0.7,6.7c-0.9,2.3-1.2,4.7-0.9,7.1c0,0.8,0.3,1.4,0.8,2c0.5,0.6,0.8,1.3,0.8,2
		c0,1.7-0.2,3.3-0.6,4.9C782.4,68.6,782.4,70.2,782.7,71.9z M706.1,116.2c0,0.3,0.3,0.3,1,0.1c0.7-0.2,0.9-0.6,0.6-1
		C706.6,115.3,706.1,115.6,706.1,116.2z M709.3,87c0.3-0.3,0.6-0.5,1-0.7c0.4-0.1,0.6-0.5,0.6-0.9c-0.8-0.3-1.3-0.2-1.7,0.3
		C708.8,86.3,708.8,86.7,709.3,87z M712.4,36.4c0-0.8-0.3-1.3-1-1.7c-0.7-0.4-1.4-0.3-2.1,0.1c0,0.8,0.3,1.2,1,1.4
		C710.9,36.3,711.7,36.4,712.4,36.4z M709.3,45.2v1.6h1.6C710.8,45.7,710.3,45.2,709.3,45.2z M710.8,49.9c-0.5,0.5-0.2,0.7,0.8,0.7
		c1,0,1.2-0.2,0.8-0.7c0-0.3-0.2-0.4-0.5-0.2C711.7,49.9,711.3,49.9,710.8,49.9z M716.5,16.3l-3.2,3.8c0.8,0,1.7-0.5,2.7-1.4
		C717.1,17.9,717.2,17,716.5,16.3z M714.9,29.2c0,0.3,0.1,0.6,0.2,1c0.1,0.4,0.6,0.6,1.4,0.6c0.5-0.5,0.5-0.9,0.1-1.5
		C716.2,28.7,715.7,28.7,714.9,29.2z M716.5,79.1c0.5,0.3,1,0.3,1.6,0.1c0.6-0.2,0.9-0.6,0.9-1c-0.8,0-1.3-0.4-1.6-1.1
		c-0.3-0.8-0.8-1.1-1.6-1.1c-0.5,0.8-0.3,1.4,0.3,1.8C716.8,78.2,716.9,78.6,716.5,79.1z M758.5,148.3c0-0.8,0.1-1.3,0.3-1.6
		c0.2-0.3,0.3-0.8,0.3-1.6c-0.8-0.3-1.4-0.3-2,0.1c-0.6,0.4-1.5,0.3-2.7-0.1c0.3,0.8,0.4,1.2,0.2,1.5c-0.2,0.2-0.2,0.6-0.2,1
		c0.8,0,1.4,0,2,0.1C757.1,147.8,757.8,148,758.5,148.3z M762.6,136.3c0.3-0.5,0.4-0.9,0.2-1.2c-0.2-0.4-0.2-0.8-0.2-1.2
		c-1.2,0-1.8,0.5-1.8,1.6c0.5,0,0.8,0.2,0.9,0.5C761.8,136.1,762.1,136.3,762.6,136.3z M768.9,152.3h-1.6c0,0.5,0.3,0.8,0.8,0.9
		C768.7,153.4,768.9,153.1,768.9,152.3z"/>
	<path class="st0" d="M817.1,4.1c13.3-0.8,26.4-1.5,39.4-2.3c13-0.8,25.7-1.4,37.9-1.8c-0.2,2.4-0.4,5-0.8,7.8
		c-0.4,2.8-0.7,5.6-0.9,8.4c-0.2,2.8-0.3,5.6-0.2,8.4c0.1,2.8,0.5,5.4,1.2,7.8c-2.1,0.6-4.5,1-7.2,1.1c-2.7,0.2-5.6,0.2-8.6,0.1
		c-3-0.1-6.1-0.2-9.2-0.5c-3.1-0.2-6.1-0.5-8.9-0.8h-26.7c-0.3,5.3-0.2,10.4,0.2,15.4s0.7,10.6,0.7,16.9l54.7,2.3l4.1,32.3
		c0.5,0.8,0.3,1.1-0.6,1.1c-0.8,0-1.2,0.5-1,1.4c0.3,6,0.3,11.7-0.1,17.1c-0.4,5.3-0.6,10.7-0.6,15.9c0,1.4,0.1,3.6,0.2,6.7
		c0.1,3.1,0.2,6.3,0.2,9.6c0,3.3-0.2,6.4-0.5,9.3c-0.3,2.9-0.9,4.8-1.8,5.9c-0.5,0.5-2,0.8-4.6,1.1c-2.6,0.3-5.6,0.5-8.9,0.7
		c-3.3,0.1-6.5,0.2-9.6,0.2c-3.1,0-5.3-0.1-6.7-0.2c0-0.8-0.3-1.1-0.9-1.1c-0.6,0-1.1,0-1.4,0h-0.9h-0.9v0.9l0.9,0.2
		c-2.1-0.3-4-0.4-5.5-0.3c-1.6,0.1-3.2,0.1-4.9,0.1h3.2v-0.9c0-0.8-0.2-1.5-0.7-2.1c-0.5-0.7-1.1-1-1.8-1h-0.7l-0.9,0.9l-0.9,0.7
		v0.9v0.7h0.9h0.9v0.9c-4.2-0.1-8.2-0.2-12-0.2c-3.8,0-7.5,0-11.2,0c-3.7,0-7.5,0-11.3,0.1c-3.8,0.1-7.9,0.1-12.3,0.1
		c0-5.3,0-10.8,0.1-16.6c0.1-5.8,0.3-10.7,0.6-14.8c1.2,0.5,2.6,0.5,4.1,0c1.5-0.5,3.1-0.5,4.7,0c1.2,0,2.1,0.3,2.8,0.8
		c0.7,0.5,1.6,0.8,2.8,0.8c1.7,0.5,3.3,0.5,5,0.2c1.7-0.3,3.5-0.4,5.6-0.2c5.7,0.3,11.8,0.7,18.1,1.1c6.3,0.5,12.4,0.1,18.1-1.1
		c0-6.5-0.3-12.7-0.9-18.8c-0.6-6-1.1-12.7-1.4-19.9c-9.5,0.3-19.2,0-29-0.8c-9.9-0.8-19.5-1.6-29-2.4c0-5.3-0.5-10.6-1.4-16
		c-0.9-5.4-1-10.5-0.2-15.4c0-0.9,0.1-1.7,0.3-2.5c0.2-0.8,0.3-1.3,0.3-1.6c0.1-0.9,0.3-2.7,0.3-5.5c0.1-2.8,0.1-6,0.1-9.6
		c0-3.6,0-7.5-0.1-11.5c-0.1-4.1-0.1-7.9-0.1-11.5c0-3.6,0-6.8-0.1-9.5c-0.1-2.7-0.1-4.6-0.1-5.6c0.1-1.4,0.6-2.2,1.4-2.5
		c0.8-0.3,1.8-0.4,3.2-0.2c1.4,0.2,3.1,0.3,5.3,0.3C811.2,4.9,813.9,4.7,817.1,4.1z M808.9,62.1c0.5,0.3,0.9,0.4,1.5,0.3
		c0.5-0.1,0.6-0.5,0.1-1.2C809.4,61.2,808.9,61.5,808.9,62.1z M813,72.5c0,0.5-0.2,0.8-0.5,1c-0.3,0.2-0.5,0.7-0.5,1.5
		c0.8-0.5,1.2-0.6,1.5-0.5c0.2,0.2,0.6,0,1-0.5c0-0.3-0.2-0.4-0.5-0.3c-0.3,0.1-0.5,0-0.5-0.3V73C813.7,72.7,813.4,72.5,813,72.5z
		 M813,76.6c-0.5,0.8-0.2,1.1,0.9,1.1c1.1,0,1.6-0.4,1.6-1.1c-0.9-0.3-1.5-0.4-1.7-0.2C813.6,76.5,813.3,76.6,813,76.6z M816.1,75
		c0.5-0.5,0.8-0.9,1.1-1.4c0.3-0.5,0.5-1.1,0.5-1.8c-0.3-0.8-0.8-0.8-1.5-0.2c-0.7,0.6-1.2,0.9-1.7,0.9c0.5,0.5,0.6,1,0.6,1.6
		C815.1,74.7,815.4,75,816.1,75z M816.1,68.5v1.8c0.5,0,1,0,1.7-0.1c0.7-0.1,1.2-0.3,1.5-0.8c-0.8,0-1.3-0.1-1.6-0.5
		C817.4,68.6,816.9,68.5,816.1,68.5z M819.3,75c0,0.6,0.6,0.9,1.8,0.9C821.1,75.3,820.5,75,819.3,75z M834.7,83.8
		c-0.3,0-0.8,0-1.4,0.1c-0.6,0.1-0.9,0.3-0.9,0.8c0.3,0.3,0.8,0.4,1.4,0.3C834.4,85,834.7,84.6,834.7,83.8z M837.8,66.2
		c-0.3,0-0.7-0.1-1.1-0.3c-0.5-0.2-0.8-0.1-1.1,0.3c-0.5,0.8-0.2,1.1,0.8,1.1C837.4,67.3,837.8,67,837.8,66.2z M837.8,15.4
		c0.6,0,0.9-0.3,0.9-0.9C838.1,14,837.8,14.3,837.8,15.4z"/>
	<path class="st0" d="M1051.2,11.3h0.9V8.1c3.6,0,7.3,0,11-0.1c3.7-0.1,7.6-0.3,11.6-0.8v32.3v42c-3.9,0.5-8.1,0.7-12.7,0.8
		c-4.5,0.1-9.1,0-13.7-0.1c-4.6-0.1-9.2-0.3-13.7-0.5c-4.5-0.1-8.7-0.2-12.4-0.2c-1.1,5.3-1.6,10.6-1.6,16c0,5.4,0.1,10.9,0.5,16.4
		c0.3,5.5,0.6,11.1,0.8,16.7c0.2,5.6,0,11.3-0.6,16.8c-0.3,3.2-0.6,6.3-0.9,9.3c-0.3,3-0.2,6.3,0.2,9.9c-2.4,0-5.1,0-8.1-0.1
		c-3-0.1-6.1-0.1-9.4-0.1c-3.2,0-6.5,0.1-9.7,0.2c-3.2,0.2-6.3,0.5-9.2,0.9v-12.9c0-2.1-0.2-4.3-0.5-6.6c-0.3-2.3-0.5-4.7-0.5-7.2
		c0-0.8,0.1-1.8,0.5-3.3c0.3-1.4,0.5-2.7,0.5-4c0.5-1.7,0.7-3.3,0.8-4.9c0.1-1.6,0.1-3.2,0.1-4.9c0.5,0.6,1,0.9,1.6,0.9
		c0.8,0,1.3-0.1,1.7-0.2c0.4-0.1,0.6-0.6,0.6-1.4h-0.7c0-0.6-0.5-0.9-1.6-0.9h-1.6c0.3-9.5,0.1-19.2-0.7-29
		c-0.8-9.9-0.5-19.8,0.7-29.7c-1.2-4.1-1.5-8.6-0.8-13.7c0.7-5,1.2-10.4,1.5-16.2c0.3-4.5,0.3-8.9,0.1-13.2
		c-0.2-4.3-0.5-8.5-0.8-12.5c3.6,0,7.6,0,12-0.1c4.4-0.1,9-0.3,13.8-0.8c0.5,0,0.7,0.2,0.7,0.5v0.5c-0.3,0-0.5,0.2-0.7,0.6
		c-0.2,0.4-0.5,0.7-0.9,1c-0.2,0.2-0.2,0.3,0,0.5c0,0.6,0.3,1,0.9,1.1h0.7h0.5c0.3,0,0.5-0.2,0.5-0.7c0.3,0,0.4-0.2,0.2-0.6
		c-0.2-0.4-0.2-0.7-0.2-1V8.1c1.7-0.5,3.3-0.7,4.9-0.8c1.6-0.1,3.4-0.1,5.5-0.1h9.7c0.8,0,1.4,0.2,2,0.6c0.6,0.4,1.3,0.8,2,1.2
		c1.7,0,3.4,0,5.2-0.1c1.8-0.1,3.5-0.3,5.2-0.8V9c-0.5,0.5-0.7,1-0.7,1.6l0.7,0.7l0.9-0.7h0.7h0.9
		C1050.7,10.6,1051.2,10.8,1051.2,11.3z M990.6,146.7c1.2,0,1.8-0.2,1.8-0.7c-0.9,0-1.4,0-1.6,0.1
		C990.7,146.2,990.6,146.4,990.6,146.7z M993.1,59c0.8-0.5,1.4-0.8,1.8-1.1c0.5-0.3,0.7-1.1,0.7-2.3c-1.2,0-1.9,0.4-2.1,1.1
		C993.2,57.5,993.1,58.2,993.1,59z M1004.4,88.8c1.2,0.3,2,0,2.5-0.9c0.5-0.9,0.7-1.7,0.7-2.5c-1.2,0-1.8,0.3-1.9,1
		C1005.6,87.1,1005.2,87.9,1004.4,88.8z M1004.4,113.7c0.8,0,1.2-0.2,1.4-0.6c0.1-0.4,0.2-1,0.2-1.9
		C1004.9,111.2,1004.4,112,1004.4,113.7z M1004.4,116.8c0.5,0,0.8-0.3,1-0.8c0.2-0.5,0.2-0.8-0.1-0.8c0,0.5-0.2,0.8-0.5,0.9
		C1004.6,116.3,1004.4,116.5,1004.4,116.8z M1006,113.7c0.8,0,1.2-0.1,1.4-0.5c0.1-0.3,0.2-0.7,0.2-1.1c-0.3,0-0.5,0.2-0.7,0.6
		C1006.7,113,1006.4,113.4,1006,113.7z M1007.6,79.8c0.5,0.5,0.8,0.5,1.1,0.2c0.3-0.3,0.2-0.6-0.2-0.9
		C1007.9,79.1,1007.6,79.3,1007.6,79.8z M1016.6,73.5c0.3,0,0.7-0.2,1.1-0.6c0.5-0.4,0.8-0.7,1.1-1c-0.3,0-0.7,0-1.2-0.1
		c-0.5-0.1-0.6-0.3-0.3-0.8c-0.3,0-0.5,0-0.7,0.1c-0.2,0.1-0.5,0.3-0.9,0.8C1016.3,71.9,1016.6,72.4,1016.6,73.5z M1041.5,49.3
		c0.5-2.1,0.7-4.3,0.8-6.6c0.1-2.3,0.1-4.7,0.1-7.2c-3.6-0.3-7.5-0.5-11.6-0.7c-4.1-0.1-8.1,0.4-11.9,1.6v10.4
		c3.8,0.8,7.7,1.4,11.8,2C1034.7,49.4,1038.3,49.6,1041.5,49.3z M1022.9,54.9c0.5,0.3,1,0.4,1.6,0.3c0.6-0.1,0.9-0.5,0.9-1.2
		C1023.8,54,1022.9,54.3,1022.9,54.9z M1027,66.9c0.5,0,0.9,0.1,1.2,0.3c0.4,0.2,0.8,0.1,1.2-0.3c0-0.3-0.3-0.4-0.8-0.3
		c-0.5,0.1-0.8,0-0.8-0.3v-0.9C1027.3,65.9,1027,66.4,1027,66.9z M1027,69.4c0,0.5,0.5,0.8,1.5,0.9c1,0.2,1.3-0.1,1-0.9
		c-0.5-0.5-0.8-0.6-1-0.3C1028.2,69.3,1027.8,69.4,1027,69.4z M1031.1,66.9c1.1,0,1.6-0.8,1.6-2.3c-0.8-0.9-1.5-1.1-2.3-0.6
		c-0.8,0.5-1.4,0.9-1.8,1.2c0.8,0,1.2,0.4,1.2,1.1C1029.9,67.2,1030.3,67.3,1031.1,66.9z M1031.1,61.2v0.9c0,0.3,0.4,0.5,1.2,0.5
		c0.8,0,1.2-0.1,1.2-0.5c-0.5,0-0.8-0.1-1-0.5C1032.3,61.4,1031.8,61.2,1031.1,61.2z M1034.2,67.8c-0.5,0.5-0.2,0.7,0.9,0.7
		C1035.1,68,1034.8,67.8,1034.2,67.8z M1047.1,77.5c0,0.3,0.4,0.3,1.1,0.1c0.8-0.2,0.9-0.6,0.5-1c-0.2-0.1-0.5-0.2-0.9-0.2
		S1047.1,76.8,1047.1,77.5z M1049.6,59c0,0.3,0.4,0.5,1.2,0.5c0.8,0,1.2-0.1,1.2-0.5c-0.5,0-0.8-0.1-0.9-0.2c-0.3,0-0.6,0-0.8-0.1
		C1050.2,58.6,1049.9,58.7,1049.6,59z"/>
	<path class="st0" d="M1171,71.9c-0.2,1.2,0,2.3,0.3,3.3c0.4,1,0.8,2.3,1.2,4c0,2.4-0.2,4.9-0.5,7.6c-0.3,2.6-0.5,5.2-0.5,7.8
		c0,4.4,0,8.8,0,13.3s-0.2,9.4-0.7,14.7c-0.3,3.3-0.5,6.3-0.7,8.8c-0.2,2.6,0.1,5.3,0.7,8.1c0,0.5,0.1,1,0.3,1.7
		c0.2,0.7,0.3,1.2,0.3,1.7c0,1.2-0.3,2.4-0.8,3.6c-0.5,1.2-0.8,2.4-0.8,3.6c-0.3,2.9-0.2,5.8,0.5,8.8c0.6,3,0.8,6,0.5,8.8
		c-1.2,0.3-2,0.2-2.4-0.2c-0.4-0.5-0.9-0.7-1.7-0.7c-4.1,0-7.8-0.4-11.1-1.1c-3.3-0.8-6.6-1.1-9.9-1.1c-2.9,0.3-5.8,0.7-8.8,1.1
		c-3,0.5-6,0.3-8.8-0.5c-0.3-0.1-0.5-0.5-0.5-1.1c0-0.6-0.1-1.2-0.2-1.9c-0.2-0.7-0.3-1.4-0.6-2c-0.2-0.7-0.6-1.1-1.2-1.2
		c0.8-0.5,1-1.3,0.8-2.6c-0.2-1.3-0.5-2.3-0.8-3.1c0.8-1.2,0.9-2.6,0.6-4.2c-0.4-1.6-0.6-3.4-0.6-5.5c0-1.2,0.1-2.2,0.3-3.1
		c0.2-0.8,0.3-1.4,0.3-1.7c-0.3-1.2-0.8-1.8-1.4-1.9c-0.6-0.1-0.9-0.6-0.9-1.5c3.2-0.8,6.2-1.1,9.3-0.9c3,0.2,5.6,0.2,7.7,0.2
		c0.8-1.2,1-2.4,0.8-3.7c-0.2-1.3,0-1.9,0.8-1.9c-0.8-4.8-1-10.4-0.8-16.8c0.2-6.4,0.2-12.6-0.1-18.6c-0.5-9.9-0.9-19.5-1.4-28.8
		c-0.5-9.3-0.5-18.2-0.2-26.8c-2.6-0.8-4.7-1.2-6.6-1.2c-1.8-0.1-3.6,0-5.3,0.1c-1.7,0.2-3.5,0.4-5.4,0.7c-1.9,0.3-4.2,0.5-6.9,0.5
		c-0.3,8.4-0.3,16.7,0.1,24.9c0.4,8.1,0.8,16.2,1.2,24.1c0.5,7.9,0.8,15.7,1,23.5c0.2,7.8,0,15.6-0.8,23.4c0.5,0.6,1.1,1,1.8,1.2
		c0.8,0.2,1.5,0.5,2.3,0.7c0.8,0.2,1.4,0.6,2,1c0.6,0.5,1,1.1,1.1,2c-0.3,0-0.8-0.1-1.4-0.3c-0.6-0.2-0.9-0.1-0.9,0.3
		c0.3,2.4,0.6,5,1,7.9c0.4,2.9,0.3,6.1-0.3,9.7c0,0.5-0.1,1.1-0.3,1.8c-0.2,0.8-0.3,1.5-0.3,2.3c0,0.8,0.4,1.5,1.1,2.4
		c0.8,0.8,1.1,1.6,1.1,2.4c-5.7,0.8-11.8,0.9-18.1,0.6c-6.3-0.4-12.1-0.6-17.4-0.6c-1.7-16-2.7-31.8-3.1-47.5
		c-0.4-15.7-0.7-31.3-1-46.8c-0.2-6.5,0.3-13.1,1.5-19.8c1.1-6.7,1.5-13.3,1-19.8c-0.3-4.4-0.8-8.5-1.6-12.3
		c-0.8-3.8-0.8-7.8,0-11.9c10.1,0,20.8,0,32.1-0.1c11.3-0.1,22.1-0.3,32.5-0.6c3.2-0.5,6.3-0.6,9.5-0.3s6.2,1.2,9,2.8
		c0.6,2.4,0.8,4.9,0.7,7.3c-0.2,2.5-0.4,5-0.7,7.5c-0.3,2.5-0.5,5-0.7,7.5c-0.2,2.5,0.1,4.9,0.7,7.3c0,0.9,0.3,1.8,0.9,2.6
		c0.6,0.8,1.1,1.8,1.4,3.1c0.5,2.1,0.2,4.3-0.7,6.7c-0.9,2.3-1.2,4.7-0.9,7.1c0,0.8,0.3,1.4,0.8,2c0.5,0.6,0.8,1.3,0.8,2
		c0,1.7-0.2,3.3-0.6,4.9C1170.7,68.6,1170.7,70.2,1171,71.9z M1094.4,116.2c0,0.3,0.3,0.3,1,0.1c0.7-0.2,0.9-0.6,0.6-1
		C1094.9,115.3,1094.4,115.6,1094.4,116.2z M1097.5,87c0.3-0.3,0.6-0.5,1-0.7c0.4-0.1,0.6-0.5,0.6-0.9c-0.8-0.3-1.3-0.2-1.7,0.3
		C1097,86.3,1097.1,86.7,1097.5,87z M1100.7,36.4c0-0.8-0.3-1.3-1-1.7c-0.7-0.4-1.4-0.3-2.1,0.1c0,0.8,0.3,1.2,1,1.4
		C1099.2,36.3,1099.9,36.4,1100.7,36.4z M1097.5,45.2v1.6h1.6C1099.1,45.7,1098.6,45.2,1097.5,45.2z M1099.1,49.9
		c-0.5,0.5-0.2,0.7,0.8,0.7c1,0,1.2-0.2,0.8-0.7c0-0.3-0.2-0.4-0.5-0.2C1099.9,49.9,1099.5,49.9,1099.1,49.9z M1104.7,16.3l-3.2,3.8
		c0.8,0,1.7-0.5,2.7-1.4C1105.3,17.9,1105.5,17,1104.7,16.3z M1103.2,29.2c0,0.3,0.1,0.6,0.2,1c0.1,0.4,0.6,0.6,1.4,0.6
		c0.5-0.5,0.5-0.9,0.1-1.5C1104.5,28.7,1103.9,28.7,1103.2,29.2z M1104.7,79.1c0.5,0.3,1,0.3,1.6,0.1c0.6-0.2,0.9-0.6,0.9-1
		c-0.8,0-1.3-0.4-1.6-1.1c-0.3-0.8-0.8-1.1-1.6-1.1c-0.5,0.8-0.3,1.4,0.3,1.8C1105.1,78.2,1105.2,78.6,1104.7,79.1z M1146.8,148.3
		c0-0.8,0.1-1.3,0.3-1.6c0.2-0.3,0.3-0.8,0.3-1.6c-0.8-0.3-1.4-0.3-2,0.1c-0.6,0.4-1.5,0.3-2.7-0.1c0.3,0.8,0.4,1.2,0.2,1.5
		c-0.2,0.2-0.2,0.6-0.2,1c0.8,0,1.4,0,2,0.1C1145.3,147.8,1146,148,1146.8,148.3z M1150.9,136.3c0.3-0.5,0.4-0.9,0.2-1.2
		c-0.2-0.4-0.2-0.8-0.2-1.2c-1.2,0-1.8,0.5-1.8,1.6c0.5,0,0.8,0.2,0.9,0.5C1150.1,136.1,1150.4,136.3,1150.9,136.3z M1157.2,152.3
		h-1.6c0,0.5,0.3,0.8,0.8,0.9C1156.9,153.4,1157.2,153.1,1157.2,152.3z"/>
	<path class="st0" d="M1269.7,69.4c-1.7-0.5-3.1-0.5-4.4,0c-1.3,0.5-2.8,0.5-4.4,0c1.2,8.1,2.7,16.3,4.5,24.5
		c1.8,8.2,3.7,16.5,5.5,24.7c1.9,8.3,3.7,16.5,5.5,24.7c1.8,8.2,3.3,16.4,4.5,24.5h-29.2l-7.2-23.5c-1.4-4.4-2.7-8.5-4.1-12.4
		c-1.4-3.9-2.4-7.8-3.2-11.8c0-1.2-0.1-2.1-0.2-2.7c-0.2-0.6-0.1-1.1,0.2-1.4c0-0.5-0.3-0.8-0.8-1c-0.5-0.2-0.8-0.7-0.8-1.5
		c-1.2-6.9-2.5-14-3.7-21.4c-1.3-7.3-3-14.4-5.1-21.4h-7.2c0,8.4,0.3,16.2,0.9,23.2c0.6,7,1.1,14.4,1.4,22c0.5,9,0.5,17.7,0.1,26
		c-0.4,8.3-1.2,16.5-2.4,24.6h-9.7h0.7v-1.6h-0.7h-0.9h-0.7c-0.6,0-0.9,0.2-0.9,0.5c-0.2,0.2-0.2,0.3,0,0.5v0.7h0.9h-5.7
		c-1.7,0-3.4,0.1-5.2,0.3c-1.8,0.2-3.3,0.1-4.5-0.3c-1.4-0.8-2.2-2-2.6-3.6c-0.4-1.7-0.5-3.5-0.5-5.6c0.1-2.1,0.2-4.3,0.5-6.4
		c0.2-2.2,0.3-4.2,0.1-6c0-1.7-0.5-3.2-1.4-4.7c-0.9-1.5-1.5-2.9-1.8-4.1c-0.6-2.4-0.5-5.3,0.3-8.6c0.8-3.3,1.2-6.3,1.2-9
		c0-6.3-0.2-12-0.5-17.1c-0.3-5-0.5-10.4-0.5-16.2c0-3.2-0.1-6.3-0.2-9.5c-0.2-3.2-0.1-6.2,0.2-9c0-0.8,0-1.3-0.1-1.6
		c-0.1-0.3,0.3-0.8,1-1.6c0-0.5-0.2-0.6-0.7-0.6c-0.5,0.1-0.5-0.3-0.2-1c0-7.2,0-15.8,0.1-25.7c0.1-9.9,0.3-19.8,0.8-29.9
		c7.2,0.2,14.7,0.2,22.4,0c7.7-0.1,15.3-0.3,22.9-0.5c7.6-0.1,15-0.3,22.3-0.5c7.2-0.1,14-0.1,20.3,0c-0.8,3.3-0.6,6.3,0.3,8.9
		c1,2.6,1.7,5.6,2.1,8.9c0.3,3.2,0.3,6.6,0,10.4c-0.3,3.8-0.3,7.2,0,10.4c0.1,2.4,0.6,5,1.4,7.8c0.8,2.8,1.2,5.4,1.5,7.9
		c0.2,2.5,0,4.7-0.7,6.6c-0.7,1.9-2.2,3.1-4.6,3.7c-1.2,0.3-2.4,0.2-3.6-0.2C1272.1,69.6,1270.9,69.4,1269.7,69.4z M1197.2,22.6
		c1.2,0.5,2.1,0.5,2.6,0c0.5-0.5,0.8-0.9,0.8-1.5c0-0.5-0.3-0.8-0.8-0.9c-0.5-0.1-1.2,0.5-1.9,1.7c-0.3,0-0.6-0.1-0.9-0.2
		C1196.6,21.5,1196.7,21.8,1197.2,22.6z M1197.2,29.2v0.7c0.3,0,0.6,0.1,1,0.2c0.4,0.2,0.6-0.1,0.6-0.9c0-0.5-0.2-0.6-0.6-0.3
		C1197.8,29,1197.5,29.2,1197.2,29.2z M1248.7,42c0.5-2.1,0.7-4,0.8-5.7c0.1-1.7,0.1-3.5,0.1-5.6c-3.3-0.5-6.7-0.6-10.3-0.3
		c-3.5,0.2-7.1,0.3-10.7,0.3c-0.5-0.5-0.6-1-0.6-1.6c0.1-0.6-0.3-0.9-1-0.9c-0.5,0.8-0.5,1,0,0.7c0.5-0.3,0.7-0.2,0.7,0.2v0.7
		c-1.7,0.8-3.1,1.1-4.4,1.1c-1.3,0-2.8,0.2-4.4,0.5c0,1.7,0.1,3.4,0.5,5.3c0.3,1.9,0.5,3.7,0.5,5.3
		C1229.9,42.6,1239.5,42.6,1248.7,42z"/>
	<path class="st0" d="M1389.5,4.1c13.3-0.8,26.4-1.5,39.4-2.3c13-0.8,25.7-1.4,37.9-1.8c-0.2,2.4-0.4,5-0.8,7.8
		c-0.4,2.8-0.7,5.6-0.9,8.4c-0.2,2.8-0.3,5.6-0.2,8.4c0.1,2.8,0.5,5.4,1.2,7.8c-2.1,0.6-4.5,1-7.2,1.1c-2.7,0.2-5.6,0.2-8.6,0.1
		c-3-0.1-6.1-0.2-9.2-0.5c-3.1-0.2-6.1-0.5-8.9-0.8h-26.7c-0.3,5.3-0.2,10.4,0.2,15.4s0.7,10.6,0.7,16.9l54.7,2.3l4.1,32.3
		c0.5,0.8,0.3,1.1-0.6,1.1c-0.8,0-1.2,0.5-1,1.4c0.3,6,0.3,11.7-0.1,17.1c-0.4,5.3-0.6,10.7-0.6,15.9c0,1.4,0.1,3.6,0.2,6.7
		c0.1,3.1,0.2,6.3,0.2,9.6c0,3.3-0.2,6.4-0.5,9.3c-0.3,2.9-0.9,4.8-1.8,5.9c-0.5,0.5-2,0.8-4.6,1.1c-2.6,0.3-5.6,0.5-8.9,0.7
		c-3.3,0.1-6.5,0.2-9.6,0.2c-3.1,0-5.3-0.1-6.7-0.2c0-0.8-0.3-1.1-0.9-1.1c-0.6,0-1.1,0-1.4,0h-0.9h-0.9v0.9l0.9,0.2
		c-2.1-0.3-4-0.4-5.5-0.3c-1.6,0.1-3.2,0.1-4.9,0.1h3.2v-0.9c0-0.8-0.2-1.5-0.7-2.1c-0.5-0.7-1.1-1-1.8-1h-0.7l-0.9,0.9l-0.9,0.7
		v0.9v0.7h0.9h0.9v0.9c-4.2-0.1-8.2-0.2-12-0.2c-3.8,0-7.5,0-11.2,0c-3.7,0-7.5,0-11.3,0.1c-3.8,0.1-7.9,0.1-12.3,0.1
		c0-5.3,0-10.8,0.1-16.6c0.1-5.8,0.3-10.7,0.6-14.8c1.2,0.5,2.6,0.5,4.1,0c1.5-0.5,3.1-0.5,4.7,0c1.2,0,2.1,0.3,2.8,0.8
		c0.7,0.5,1.6,0.8,2.8,0.8c1.7,0.5,3.3,0.5,5,0.2c1.7-0.3,3.5-0.4,5.6-0.2c5.7,0.3,11.8,0.7,18.1,1.1c6.3,0.5,12.4,0.1,18.1-1.1
		c0-6.5-0.3-12.7-0.9-18.8c-0.6-6-1.1-12.7-1.4-19.9c-9.5,0.3-19.2,0-29-0.8c-9.9-0.8-19.5-1.6-29-2.4c0-5.3-0.5-10.6-1.4-16
		c-0.9-5.4-1-10.5-0.2-15.4c0-0.9,0.1-1.7,0.3-2.5c0.2-0.8,0.3-1.3,0.3-1.6c0.1-0.9,0.3-2.7,0.3-5.5c0.1-2.8,0.1-6,0.1-9.6
		c0-3.6,0-7.5-0.1-11.5c-0.1-4.1-0.1-7.9-0.1-11.5c0-3.6,0-6.8-0.1-9.5c-0.1-2.7-0.1-4.6-0.1-5.6c0.1-1.4,0.6-2.2,1.4-2.5
		c0.8-0.3,1.8-0.4,3.2-0.2c1.4,0.2,3.1,0.3,5.3,0.3C1383.7,4.9,1386.3,4.7,1389.5,4.1z M1381.4,62.1c0.5,0.3,0.9,0.4,1.5,0.3
		c0.5-0.1,0.6-0.5,0.1-1.2C1381.9,61.2,1381.4,61.5,1381.4,62.1z M1385.4,72.5c0,0.5-0.2,0.8-0.5,1c-0.3,0.2-0.5,0.7-0.5,1.5
		c0.8-0.5,1.2-0.6,1.5-0.5c0.2,0.2,0.6,0,1-0.5c0-0.3-0.2-0.4-0.5-0.3c-0.3,0.1-0.5,0-0.5-0.3V73
		C1386.1,72.7,1385.9,72.5,1385.4,72.5z M1385.4,76.6c-0.5,0.8-0.2,1.1,0.9,1.1c1.1,0,1.6-0.4,1.6-1.1c-0.9-0.3-1.5-0.4-1.7-0.2
		C1386,76.5,1385.7,76.6,1385.4,76.6z M1388.6,75c0.5-0.5,0.8-0.9,1.1-1.4c0.3-0.5,0.5-1.1,0.5-1.8c-0.3-0.8-0.8-0.8-1.5-0.2
		c-0.7,0.6-1.2,0.9-1.7,0.9c0.5,0.5,0.6,1,0.6,1.6C1387.5,74.7,1387.8,75,1388.6,75z M1388.6,68.5v1.8c0.5,0,1,0,1.7-0.1
		c0.7-0.1,1.2-0.3,1.5-0.8c-0.8,0-1.3-0.1-1.6-0.5C1389.9,68.6,1389.3,68.5,1388.6,68.5z M1391.8,75c0,0.6,0.6,0.9,1.8,0.9
		C1393.6,75.3,1393,75,1391.8,75z M1407.1,83.8c-0.3,0-0.8,0-1.4,0.1c-0.6,0.1-0.9,0.3-0.9,0.8c0.3,0.3,0.8,0.4,1.4,0.3
		C1406.8,85,1407.1,84.6,1407.1,83.8z M1410.3,66.2c-0.3,0-0.7-0.1-1.1-0.3c-0.5-0.2-0.8-0.1-1.1,0.3c-0.5,0.8-0.2,1.1,0.8,1.1
		C1409.8,67.3,1410.3,67,1410.3,66.2z M1410.3,15.4c0.6,0,0.9-0.3,0.9-0.9C1410.6,14,1410.3,14.3,1410.3,15.4z"/>
	<path class="st0" d="M1540.2,142.8l1.8,24.9c-11.3-0.9-22.1-1.1-32.4-0.5c-10.3,0.6-20.5,0.8-30.6,0.5c0-5.3,0.1-10.6,0.2-15.9
		c0.1-5.3,0.6-10.2,1.4-14.6c1.7-0.5,3.4-0.5,5.3-0.1c1.9,0.4,3.7,0.4,5.3,0.1c0.3-5.3,0.6-10.1,1-14.6c0.4-4.4,0.6-9.3,0.6-14.6
		c0.3-0.8,0.8-0.8,1.5-0.2c0.7,0.6,1.2,0.7,1.7,0.2c0-0.6-0.2-1-0.5-1.1c-0.3-0.1-0.7-0.3-1.1-0.3c-0.5-0.1-0.8-0.1-1.1-0.2
		c-0.3-0.1-0.5-0.3-0.5-0.8c0.3-6.8,0.5-13.8,0.6-21c0.1-7.2,0.1-14.7,0.1-22.4c0-0.6,0.5-0.9,1.6-0.9c0-0.8-0.3-1.1-0.8-1
		c-0.5,0.1-0.8-0.1-0.8-0.6c0-1.2,0-2.3,0.1-3.4c0.1-1.1,0.3-1.8,0.8-2.3c-0.8-2.1-0.9-4.5-0.6-7.2c0.4-2.7,0.6-5.6,0.6-8.8
		c-1.7-0.3-4-0.3-7,0c-3,0.3-5.5,0.3-7.5,0l1.6-29.8c6.5-0.5,13.8-0.5,21.9-0.1c8.1,0.4,15.9,0.1,23.3-0.8c2.9-0.3,5.5-0.6,7.8-1
		c2.3-0.4,5.1-0.6,8.2-0.6V38h-19.4c-0.3,15.5-0.6,31.5-1,47.8c-0.4,16.3-0.6,33.2-0.6,50.5c3.3,0.5,6.5,0.6,9.6,0.3
		c3.1-0.2,6.1-0.3,8.9-0.3v4.7h-1.6h-0.7v0.9c0,0.8,0.1,1.2,0.3,1.5c0.2,0.2,0.3,0.6,0.3,1h0.9v-0.9h0.2
		C1540.1,143.5,1540.2,143.3,1540.2,142.8z M1500,27.6c0.3,0.3,0.6,0.4,1,0.3c0.4-0.1,0.6-0.5,0.6-1.2c0,0.5-0.3,0.6-0.8,0.5
		C1500.3,27,1500,27.1,1500,27.6z M1508.8,14.5h-1.6c0,0.9,0.4,1.4,1.1,1.4C1509.1,15.8,1509.3,15.4,1508.8,14.5z M1509.7,46.1
		l-2.5-1.8c0,1.7,0.3,2.7,0.9,3.2c0.6,0.5,1.1,1.1,1.6,1.8c0.3,0,0.5-0.2,0.7-0.6c0.1-0.4,0.5-0.7,0.9-1c-0.8,0-1.2-0.2-1.4-0.6
		C1509.8,46.7,1509.7,46.4,1509.7,46.1z M1509.7,92c0.8,0.3,1.2,0.2,1.4-0.3c0.1-0.5,0.2-0.9,0.2-1.2c-0.8,0-1.2,0.2-1.4,0.5
		C1509.8,91.2,1509.7,91.5,1509.7,92z M1515.4,51.8c0.3,0.3,0.6,0.3,1,0.1c0.4-0.2,0.6-0.6,0.6-1c-0.8-0.5-1.2-0.5-1.4-0.2
		C1515.5,50.9,1515.4,51.3,1515.4,51.8z M1517,54.9v-1.6c-0.5,0-0.8,0.1-0.9,0.3c-0.2,0.2-0.4,0.3-0.7,0.3
		C1515.4,54.6,1515.9,54.9,1517,54.9z M1517.6,29.8c0.5,0.5,1,0.6,1.6,0.6c0.6-0.1,0.9-0.5,0.9-1.2c-0.3-0.5-0.8-0.5-1.5-0.2
		C1518,29.2,1517.6,29.5,1517.6,29.8z M1521,155.7c1.1,0,1.6-0.3,1.6-0.9l-0.9-0.9c0,0.5-0.1,0.8-0.3,0.9
		C1521.1,155,1521,155.3,1521,155.7z M1527.4,17h-1.6v0.9c0-0.5,0.3-0.6,0.8-0.5C1527.1,17.6,1527.4,17.4,1527.4,17z M1528.3,158
		c0.3-0.3,0.6-0.6,1-0.8c0.4-0.2,0.6-0.7,0.6-1.5c-0.8,0-1.3,0.3-1.7,0.9C1527.8,157.2,1527.8,157.7,1528.3,158z"/>
	<path class="st0" d="M1637.2,160.5c0,1.7,0.2,3.1,0.6,4.3c0.4,1.2,0.2,2.2-0.6,2.9c-4.1,0-8.2,0-12.3,0.1c-4.1,0.1-7.8-0.3-11-1
		c0-0.5-0.3-0.7-0.9-0.7h-0.9h-0.7v0.7c-0.6,0.6-1.7,0.9-3.2,0.9c-0.5-0.5-1.1-0.5-2-0.2c-0.9,0.3-1.4,0.1-1.4-0.7
		c-1.7,0.5-3.4,0.9-5.2,1.4c-1.8,0.5-3.3,0.3-4.5-0.5c-0.3,0-0.7,0-1.1,0.1c-0.5,0.1-0.8,0.1-1.1,0.1c-6.9,0.3-13.3,0.4-19.1,0.2
		c-5.8-0.2-11.6-0.2-17.3-0.2c-0.8-8.1-1.3-15.9-1.7-23.2c-0.4-7.3-0.3-14.4,0.1-21.4c0.5-5.7,0.5-11.5,0.1-17.3
		c-0.4-5.8-0.4-11.3-0.1-16.6c0.1-1.7,0.4-3.2,0.7-4.7c0.3-1.5,0.6-2.9,0.9-4.1c-0.6-1.8-0.9-3.5-1-5.2c-0.1-1.7,0-3.3,0.1-5
		c0.1-1.7,0.2-3.4,0.2-5.1c0-1.7-0.3-3.7-0.9-5.8c0.8-3.8,1.1-8.1,1.1-12.9c0-4.8-0.1-9.7-0.2-14.6c-0.2-4.9-0.1-9.6,0.1-14.1
		s0.9-8.4,2.1-11.5c2.9,0,5.7,0,8.5-0.1c2.8-0.1,5.6-0.3,8.5-0.8c5-0.1,10.2-0.3,15.7-0.5c5.5-0.1,11-0.2,16.4-0.1
		c5.4,0.1,10.8,0.3,16,0.8c5.3,0.5,10.2,1.2,14.9,2.3c0,4.8-0.2,10-0.5,15.6c-0.3,5.6-0.5,10.5-0.5,14.9c-3.6-1.8-7.5-2.9-11.8-3.3
		c-4.2-0.4-8.6-0.5-13.1-0.2c-4.5,0.2-9,0.5-13.6,0.9c-4.5,0.4-8.9,0.5-13.1,0.3c-0.9,5.3-1.2,10.8-1,16.7c0.2,5.9,0.6,11,1,15.4
		c2,0.5,4.2,0.4,6.7-0.1c2.5-0.5,4.8-0.2,6.9,1c0.5-0.5,0.5-0.7,0.1-0.8c-0.4-0.1-0.9-0.1-1.7-0.1c0.5-0.3,1.1-0.4,1.8-0.3
		c0.8,0.1,1,0.5,0.7,1.2c2.9-1.7,6.3-2.5,10.2-2.6c3.9-0.1,7.5-0.3,10.8-0.6c0.5,2.9,0.6,5.6,0.6,8.1c-0.1,2.6-0.2,5.1-0.2,7.7
		c-0.1,2.6-0.2,5.2-0.2,7.8c-0.1,2.6,0.1,5.5,0.6,8.5c-6.5,0.5-12.4,0.8-17.9,1.1c-5.4,0.3-11.5,0.5-18.3,0.5
		c0.8,6.3,0.8,12.5,0.2,18.6c-0.6,6.1-0.7,12.3-0.2,18.6c9.6,0,18.9,0.1,27.9,0.2c9,0.2,17.1,0.1,24.5-0.2c0.3,3.2,0.1,6.9-0.6,11.3
		C1636.9,152.9,1636.7,156.8,1637.2,160.5z M1566.9,112.1c-0.5,0.8-0.7,1.3-0.7,1.6h1.6C1567.8,112.6,1567.5,112.1,1566.9,112.1z
		 M1567.8,116.8c0,0.5,0.4,0.7,1.2,0.7c0.8,0,1.2-0.2,1.2-0.7c-0.5-0.3-0.9-0.4-1.2-0.2C1568.7,116.8,1568.3,116.8,1567.8,116.8z
		 M1570.3,87c0.5,0,1-0.1,1.6-0.3c0.6-0.2,1.2-0.5,1.7-0.9c0.5-0.4,0.9-0.8,1.1-1.2c0.2-0.5,0.1-0.9-0.3-1.4
		c-0.9,0.8-1.7,1.4-2.5,1.9C1571.1,85.6,1570.6,86.3,1570.3,87z M1571.9,96c0,1.1,0.5,1.6,1.6,1.6c0.5-0.5,0.5-0.9,0.1-1.5
		C1573.2,95.6,1572.6,95.6,1571.9,96z M1573.5,146c0.5,0.3,1,0.3,1.6,0c0.6-0.3,0.9-0.8,0.9-1.6c-0.8,0.3-1.2,0.1-1.5-0.6
		c-0.2-0.7-0.6-1-1-1c-0.5,0.8-0.4,1.4,0.2,1.8C1574.3,145.1,1574.2,145.5,1573.5,146z M1591.3,26.7c-0.6,0-0.9,0.2-0.9,0.5
		c-0.2,0.2-0.2,0.3,0,0.5c0.6,0,0.9,0.5,0.9,1.6c0.5,0,1-0.3,1.6-0.9c-0.5-0.3-0.8-0.5-1.1-0.5C1591.5,27.8,1591.3,27.4,1591.3,26.7
		z M1599.2,9.7c-0.3,0-0.6,0.1-1,0.2c-0.4,0.2-0.6,0.6-0.6,1.4c0.5,0.5,0.9,0.5,1.5,0.1C1599.6,11,1599.7,10.5,1599.2,9.7z
		 M1601.7,21c0,0.5-0.2,0.9-0.5,1.2c-0.3,0.4-0.5,0.8-0.5,1.2c0.9-0.5,1.5-0.6,1.7-0.5c0.2,0.2,0.5,0,0.8-0.5h-0.5
		c-0.2,0-0.2-0.2-0.2-0.7c-0.2-0.1-0.2-0.3-0.2-0.5C1602.1,21.2,1601.9,21,1601.7,21z M1603.3,25.1h-2.5c0,0.8,0.5,1.2,1.6,1.5
		C1603.4,26.8,1603.7,26.3,1603.3,25.1z M1606.5,20.1c-0.8-0.3-1.4-0.2-1.8,0.3c-0.5,0.5-0.9,1-1.4,1.5c0.5,0,0.6,0.3,0.6,0.8
		c-0.1,0.5,0.3,0.8,1,0.8c0.5-0.5,0.8-0.9,1.1-1.4C1606.3,21.7,1606.5,21,1606.5,20.1z M1604.9,17v1.6c0.5,0,1,0,1.6-0.1
		c0.6-0.1,0.9-0.3,0.9-0.6c-0.5,0-0.8-0.1-1-0.5C1606.1,17.1,1605.6,17,1604.9,17z M1608,23.5c0,0.8,0.1,1.1,0.5,0.9
		c0.3-0.1,0.7-0.2,1.1-0.2C1609.6,23.7,1609.1,23.5,1608,23.5z"/>
	<path class="st0" d="M1715.4,50.9l25.1-43.6c5.7-0.3,11.5-0.5,17.3-0.6c5.8-0.1,11.6-0.1,17.3-0.1c-1.2,7.2-1.8,14.8-1.7,22.6
		c0.1,7.8-0.1,15.6-0.6,23.3c-0.3,4.8-0.5,10-0.7,15.6c-0.2,5.6-0.5,11.4-1.1,17.4c-0.3,3.3-0.8,6.4-1.4,9.3
		c-0.6,2.9-0.9,5.7-0.9,8.6c-0.5,3.6-0.3,7.3,0.6,11c0.8,3.7,1.4,7.6,1.7,11.6c0.3,4.4,0,9.1-0.9,14.1c-0.9,5-1.1,10-0.7,14.8
		c0.3,3.3,0.2,6-0.3,7.9c-0.5,2-2,3.3-4.4,4.1c-2.3,0.6-4.6,0.8-7,0.7c-2.4-0.1-4.9-0.3-7.5-0.6c-2.6-0.2-5.1-0.4-7.6-0.6
		c-2.5-0.1-4.9,0-7.1,0.5c-1.2-2-1.5-4.1-0.9-6.4c0.6-2.3,0.9-4.7,0.9-7.1c0.5-3.6,0.7-7.5,0.7-11.5c0-4.1,0.6-7.8,1.8-11.1
		c-0.2-0.5-0.3-1.7-0.3-3.7c-0.1-2-0.1-4.3-0.1-6.8c0-2.5,0-4.7,0.1-6.8c0.1-2,0.2-3.3,0.3-3.7c-0.8-3.6-0.7-7.2,0.2-10.6
		c0.9-3.5,1.4-7.5,1.4-12c-1.1,1.8-2.6,4.4-4.5,7.7c-2,3.3-4,6.8-6.2,10.5c-2.2,3.7-4.2,7.2-6.1,10.5c-1.9,3.3-3.3,5.9-4.2,7.7h-9.5
		c-0.5-2-1.5-4.6-3.1-7.8c-1.6-3.2-3.3-6.5-5.1-9.8c-1.8-3.3-3.5-6.5-5.1-9.6c-1.6-3.1-2.6-5.5-3.1-7.3c-0.2,5-0.4,10.8-0.7,17.4
		c-0.3,6.6-0.6,13.4-0.8,20.5c-0.2,7-0.5,13.9-0.7,20.7c-0.2,6.8-0.3,12.7-0.3,17.9c0-0.3-0.1-0.5-0.3-0.5c-0.2,0-0.3,0.2-0.3,0.5
		c-3.5,0-6.5,0-9.2-0.1c-2.6-0.1-5.2-0.1-7.7-0.2c-2.5-0.1-5-0.1-7.6-0.2c-2.6-0.1-5.5-0.1-8.8-0.1c-1.4-3.8-2.3-7.8-2.7-12
		c-0.5-4.2-0.7-8.5-0.7-12.9c0-4.4,0.1-8.7,0.2-13.1c0.1-4.4,0.1-8.7,0-12.9c-0.2-5.4-0.1-10.6,0.2-15.6c0.3-5,0.6-9.8,1-14.6
		c0.4-4.7,0.6-9.4,0.8-14c0.1-4.6,0-9.2-0.5-13.9c0-0.5,0.5-0.7,1.6-0.7c-0.5-1.8-0.8-4-0.9-6.7c-0.2-2.6-0.3-5.5-0.3-8.6
		c-0.1-3.1-0.1-6.2-0.1-9.3c0-3.1-0.1-5.9-0.2-8.5c-0.2-2.1-0.4-4-0.7-5.5c-0.3-1.6-0.1-3,0.7-4.2c0.9-2.4,2.7-3.9,5.3-4.4
		c2.6-0.5,5.5-0.9,8.5-1.2c2.4,0,4.9,0.1,7.5,0.2c2.6,0.2,4.9,0.6,7,1.4c0.8-0.5,1.7-0.6,2.9-0.3c1.2,0.2,2.4,0.3,3.6,0.3
		c0,0.5,0.2,1,0.6,1.6c0.4,0.6,0.2,0.9-0.6,0.9c-0.8-0.5-1-0.8-0.7-1c0.3-0.2,0.2-0.7-0.2-1.5c-0.3,0-0.5,0.1-0.7,0.3
		c-0.2,0.2-0.5,0.1-0.9-0.3V9h-0.7c0-0.6-0.3-0.9-0.9-0.9h-0.9v1.6v1.6l0.9-0.7h0.9c0.1,0.2,0.3,0.2,0.5,0c0.1,0,0.5-0.3,1.1-0.9V9
		v1.6c0,0.3,0.3,0.5,0.9,0.6c0.6,0.1,1.1,0.1,1.4,0.1c0.9,1.8,2.4,4.5,4.5,8.1c2.1,3.6,4.3,7.4,6.7,11.4c2.3,4,4.5,7.9,6.6,11.8
		c2,3.8,3.4,6.9,4.2,9.2c-0.8,0-1.1,0.1-0.9,0.3c0.1,0.2,0.5,0.3,0.9,0.3c0,0.6-0.2,0.8-0.5,0.5l-0.5-0.5c0,0.8,0.2,1.1,0.6,1.1
		c0.4,0,0.7,0.2,1,0.5c-0.3,0.5-0.6,0.6-0.8,0.5c-0.2-0.1,0,0,0.8,0.5c0.9-0.5,1.5-1.1,1.7-1.8C1714.8,52.4,1715.1,51.6,1715.4,50.9
		z M1685.6,57.4c-0.8-0.9-0.9-1.4-0.6-1.4c0.4,0,0.6-0.4,0.6-1.1h-0.9c0,1.2-0.6,1.9-1.7,2.1s-1.8,0.3-2.1,0.3
		c0,0.3-0.3,0.5-0.8,0.7c-0.5,0.2-0.6,0.5-0.1,0.9c1.2,0,2-0.3,2.5-1C1682.8,57.3,1683.9,57.1,1685.6,57.4z M1685.6,80.7
		c0,0.5,0.3,0.6,0.8,0.6c0.5-0.1,0.8-0.6,0.8-1.5c-0.2,0.2-0.5,0.2-0.9,0.2C1685.8,80.3,1685.6,80.5,1685.6,80.7z M1697.8,67.8
		c-0.5,0.8-0.3,1,0.5,0.8c0.8-0.2,1.1-0.5,1.1-0.8c-0.8-0.5-1.1-0.6-1.1-0.3S1698.1,67.8,1697.8,67.8z M1707.3,83.2
		c0.5,0.3,1,0.4,1.6,0.3c0.6-0.1,0.9-0.5,0.9-1.2c-0.3-0.3-0.8-0.3-1.5-0.1C1707.6,82.4,1707.3,82.7,1707.3,83.2z M1717,70.3h-1.6
		c0.5,0,0.8,0.1,1.1,0.2C1716.8,70.7,1717,70.6,1717,70.3z M1739.6,46.1h1.6c0-0.5-0.1-0.8-0.3-0.9c-0.2-0.1-0.3-0.5-0.3-0.9
		C1739.9,44.3,1739.6,44.9,1739.6,46.1z M1742.7,44.3c0,0.5,0.2,0.6,0.6,0.6c0.4-0.1,0.8-0.5,1.2-1.2
		C1743.3,43.6,1742.7,43.8,1742.7,44.3z M1756.5,91.1c1.1,0,1.6-0.2,1.6-0.7c-0.5,0-0.7-0.1-0.7-0.5v-0.5
		C1756.8,90.1,1756.5,90.6,1756.5,91.1z M1763.8,93.6c0-0.5,0.3-0.8,0.8-1c0.5-0.2,0.8-0.7,0.8-1.5c-0.8,0-1.3,0.3-1.6,0.9
		C1763.4,92.6,1763.4,93.1,1763.8,93.6z"/>
	<path class="st0" d="M1857.5,11.3h0.9V8.1c3.6,0,7.3,0,11-0.1c3.7-0.1,7.6-0.3,11.6-0.8v32.3v42c-3.9,0.5-8.1,0.7-12.7,0.8
		c-4.5,0.1-9.1,0-13.7-0.1c-4.6-0.1-9.2-0.3-13.7-0.5c-4.5-0.1-8.7-0.2-12.4-0.2c-1.1,5.3-1.6,10.6-1.6,16c0,5.4,0.1,10.9,0.5,16.4
		c0.3,5.5,0.6,11.1,0.8,16.7c0.2,5.6,0,11.3-0.6,16.8c-0.3,3.2-0.6,6.3-0.9,9.3c-0.3,3-0.2,6.3,0.2,9.9c-2.4,0-5.1,0-8.1-0.1
		c-3-0.1-6.1-0.1-9.4-0.1c-3.2,0-6.5,0.1-9.7,0.2c-3.2,0.2-6.3,0.5-9.2,0.9v-12.9c0-2.1-0.2-4.3-0.5-6.6c-0.3-2.3-0.5-4.7-0.5-7.2
		c0-0.8,0.1-1.8,0.5-3.3c0.3-1.4,0.5-2.7,0.5-4c0.5-1.7,0.7-3.3,0.8-4.9c0.1-1.6,0.1-3.2,0.1-4.9c0.5,0.6,1,0.9,1.6,0.9
		c0.8,0,1.3-0.1,1.7-0.2c0.4-0.1,0.6-0.6,0.6-1.4h-0.7c0-0.6-0.5-0.9-1.6-0.9h-1.6c0.3-9.5,0.1-19.2-0.7-29
		c-0.8-9.9-0.5-19.8,0.7-29.7c-1.2-4.1-1.5-8.6-0.8-13.7c0.7-5,1.2-10.4,1.5-16.2c0.3-4.5,0.3-8.9,0.1-13.2
		c-0.2-4.3-0.5-8.5-0.8-12.5c3.6,0,7.6,0,12-0.1c4.4-0.1,9-0.3,13.8-0.8c0.5,0,0.7,0.2,0.7,0.5v0.5c-0.3,0-0.5,0.2-0.7,0.6
		c-0.2,0.4-0.5,0.7-0.9,1c-0.2,0.2-0.2,0.3,0,0.5c0,0.6,0.3,1,0.9,1.1h0.7h0.5c0.3,0,0.5-0.2,0.5-0.7c0.3,0,0.4-0.2,0.2-0.6
		c-0.2-0.4-0.2-0.7-0.2-1V8.1c1.7-0.5,3.3-0.7,4.9-0.8c1.6-0.1,3.4-0.1,5.5-0.1h9.7c0.8,0,1.4,0.2,2,0.6c0.6,0.4,1.3,0.8,2,1.2
		c1.7,0,3.4,0,5.2-0.1c1.8-0.1,3.5-0.3,5.2-0.8V9c-0.5,0.5-0.7,1-0.7,1.6l0.7,0.7l0.9-0.7h0.7h0.9
		C1857,10.6,1857.5,10.8,1857.5,11.3z M1797,146.7c1.2,0,1.8-0.2,1.8-0.7c-0.9,0-1.4,0-1.6,0.1C1797,146.2,1797,146.4,1797,146.7z
		 M1799.5,59c0.8-0.5,1.4-0.8,1.8-1.1c0.5-0.3,0.7-1.1,0.7-2.3c-1.2,0-1.9,0.4-2.1,1.1C1799.6,57.5,1799.5,58.2,1799.5,59z
		 M1810.8,88.8c1.2,0.3,2,0,2.5-0.9c0.5-0.9,0.7-1.7,0.7-2.5c-1.2,0-1.8,0.3-1.9,1C1811.9,87.1,1811.5,87.9,1810.8,88.8z
		 M1810.8,113.7c0.8,0,1.2-0.2,1.4-0.6c0.1-0.4,0.2-1,0.2-1.9C1811.3,111.2,1810.8,112,1810.8,113.7z M1810.8,116.8
		c0.5,0,0.8-0.3,1-0.8c0.2-0.5,0.2-0.8-0.1-0.8c0,0.5-0.2,0.8-0.5,0.9C1810.9,116.3,1810.8,116.5,1810.8,116.8z M1812.3,113.7
		c0.8,0,1.2-0.1,1.4-0.5c0.1-0.3,0.2-0.7,0.2-1.1c-0.3,0-0.5,0.2-0.7,0.6C1813.1,113,1812.8,113.4,1812.3,113.7z M1813.9,79.8
		c0.5,0.5,0.8,0.5,1.1,0.2c0.3-0.3,0.2-0.6-0.2-0.9C1814.2,79.1,1813.9,79.3,1813.9,79.8z M1823,73.5c0.3,0,0.7-0.2,1.1-0.6
		c0.5-0.4,0.8-0.7,1.1-1c-0.3,0-0.7,0-1.2-0.1c-0.5-0.1-0.6-0.3-0.3-0.8c-0.3,0-0.5,0-0.7,0.1c-0.2,0.1-0.5,0.3-0.9,0.8
		C1822.7,71.9,1823,72.4,1823,73.5z M1847.8,49.3c0.5-2.1,0.7-4.3,0.8-6.6c0.1-2.3,0.1-4.7,0.1-7.2c-3.6-0.3-7.5-0.5-11.6-0.7
		c-4.1-0.1-8.1,0.4-11.9,1.6v10.4c3.8,0.8,7.7,1.4,11.8,2C1841,49.4,1844.7,49.6,1847.8,49.3z M1829.3,54.9c0.5,0.3,1,0.4,1.6,0.3
		c0.6-0.1,0.9-0.5,0.9-1.2C1830.1,54,1829.3,54.3,1829.3,54.9z M1833.4,66.9c0.5,0,0.9,0.1,1.2,0.3c0.4,0.2,0.8,0.1,1.2-0.3
		c0-0.3-0.3-0.4-0.8-0.3c-0.5,0.1-0.8,0-0.8-0.3v-0.9C1833.7,65.9,1833.4,66.4,1833.4,66.9z M1833.4,69.4c0,0.5,0.5,0.8,1.5,0.9
		c1,0.2,1.3-0.1,1-0.9c-0.5-0.5-0.8-0.6-1-0.3C1834.6,69.3,1834.1,69.4,1833.4,69.4z M1837.4,66.9c1.1,0,1.6-0.8,1.6-2.3
		c-0.8-0.9-1.5-1.1-2.3-0.6c-0.8,0.5-1.4,0.9-1.8,1.2c0.8,0,1.2,0.4,1.2,1.1C1836.3,67.2,1836.7,67.3,1837.4,66.9z M1837.4,61.2v0.9
		c0,0.3,0.4,0.5,1.2,0.5c0.8,0,1.2-0.1,1.2-0.5c-0.5,0-0.8-0.1-1-0.5C1838.7,61.4,1838.2,61.2,1837.4,61.2z M1840.6,67.8
		c-0.5,0.5-0.2,0.7,0.9,0.7C1841.5,68,1841.2,67.8,1840.6,67.8z M1853.5,77.5c0,0.3,0.4,0.3,1.1,0.1c0.8-0.2,0.9-0.6,0.5-1
		c-0.2-0.1-0.5-0.2-0.9-0.2S1853.5,76.8,1853.5,77.5z M1856,59c0,0.3,0.4,0.5,1.2,0.5c0.8,0,1.2-0.1,1.2-0.5c-0.5,0-0.8-0.1-0.9-0.2
		c-0.3,0-0.6,0-0.8-0.1C1856.5,58.6,1856.3,58.7,1856,59z"/>
	<path class="st0" d="M1975.1,69.4c-1.7-0.5-3.1-0.5-4.4,0c-1.3,0.5-2.8,0.5-4.4,0c1.2,8.1,2.7,16.3,4.5,24.5
		c1.8,8.2,3.7,16.5,5.5,24.7c1.9,8.3,3.7,16.5,5.5,24.7c1.8,8.2,3.3,16.4,4.5,24.5h-29.2l-7.2-23.5c-1.4-4.4-2.7-8.5-4.1-12.4
		c-1.4-3.9-2.4-7.8-3.2-11.8c0-1.2-0.1-2.1-0.2-2.7c-0.2-0.6-0.1-1.1,0.2-1.4c0-0.5-0.3-0.8-0.8-1c-0.5-0.2-0.8-0.7-0.8-1.5
		c-1.2-6.9-2.5-14-3.7-21.4c-1.3-7.3-3-14.4-5.1-21.4h-7.2c0,8.4,0.3,16.2,0.9,23.2c0.6,7,1.1,14.4,1.4,22c0.5,9,0.5,17.7,0.1,26
		c-0.4,8.3-1.2,16.5-2.4,24.6h-9.7h0.7v-1.6h-0.7h-0.9h-0.7c-0.6,0-0.9,0.2-0.9,0.5c-0.2,0.2-0.2,0.3,0,0.5v0.7h0.9h-5.7
		c-1.7,0-3.4,0.1-5.2,0.3c-1.8,0.2-3.3,0.1-4.5-0.3c-1.4-0.8-2.2-2-2.6-3.6c-0.4-1.7-0.5-3.5-0.5-5.6c0.1-2.1,0.2-4.3,0.5-6.4
		c0.2-2.2,0.3-4.2,0.1-6c0-1.7-0.5-3.2-1.4-4.7c-0.9-1.5-1.5-2.9-1.8-4.1c-0.6-2.4-0.5-5.3,0.3-8.6c0.8-3.3,1.2-6.3,1.2-9
		c0-6.3-0.2-12-0.5-17.1c-0.3-5-0.5-10.4-0.5-16.2c0-3.2-0.1-6.3-0.2-9.5c-0.2-3.2-0.1-6.2,0.2-9c0-0.8,0-1.3-0.1-1.6
		c-0.1-0.3,0.3-0.8,1-1.6c0-0.5-0.2-0.6-0.7-0.6c-0.5,0.1-0.5-0.3-0.2-1c0-7.2,0-15.8,0.1-25.7c0.1-9.9,0.3-19.8,0.8-29.9
		c7.2,0.2,14.7,0.2,22.4,0c7.7-0.1,15.3-0.3,22.9-0.5c7.6-0.1,15-0.3,22.3-0.5c7.2-0.1,14-0.1,20.3,0c-0.8,3.3-0.6,6.3,0.3,8.9
		c1,2.6,1.7,5.6,2.1,8.9c0.3,3.2,0.3,6.6,0,10.4c-0.3,3.8-0.3,7.2,0,10.4c0.1,2.4,0.6,5,1.4,7.8c0.8,2.8,1.2,5.4,1.5,7.9
		c0.2,2.5,0,4.7-0.7,6.6c-0.7,1.9-2.2,3.1-4.6,3.7c-1.2,0.3-2.4,0.2-3.6-0.2C1977.5,69.6,1976.3,69.4,1975.1,69.4z M1902.5,22.6
		c1.2,0.5,2.1,0.5,2.6,0c0.5-0.5,0.8-0.9,0.8-1.5c0-0.5-0.3-0.8-0.8-0.9c-0.5-0.1-1.2,0.5-1.9,1.7c-0.3,0-0.6-0.1-0.9-0.2
		C1902,21.5,1902.1,21.8,1902.5,22.6z M1902.5,29.2v0.7c0.3,0,0.6,0.1,1,0.2c0.4,0.2,0.6-0.1,0.6-0.9c0-0.5-0.2-0.6-0.6-0.3
		C1903.2,29,1902.8,29.2,1902.5,29.2z M1954,42c0.5-2.1,0.7-4,0.8-5.7c0.1-1.7,0.1-3.5,0.1-5.6c-3.3-0.5-6.7-0.6-10.3-0.3
		c-3.5,0.2-7.1,0.3-10.7,0.3c-0.5-0.5-0.6-1-0.6-1.6c0.1-0.6-0.3-0.9-1-0.9c-0.5,0.8-0.5,1,0,0.7c0.5-0.3,0.7-0.2,0.7,0.2v0.7
		c-1.7,0.8-3.1,1.1-4.4,1.1c-1.3,0-2.8,0.2-4.4,0.5c0,1.7,0.1,3.4,0.5,5.3c0.3,1.9,0.5,3.7,0.5,5.3C1935.2,42.6,1944.9,42.6,1954,42
		z"/>
	<path class="st0" d="M2083.1,160.5c0,1.7,0.2,3.1,0.6,4.3c0.4,1.2,0.2,2.2-0.6,2.9c-4.1,0-8.2,0-12.3,0.1c-4.1,0.1-7.8-0.3-11-1
		c0-0.5-0.3-0.7-0.9-0.7h-0.9h-0.7v0.7c-0.6,0.6-1.7,0.9-3.2,0.9c-0.5-0.5-1.1-0.5-2-0.2c-0.9,0.3-1.4,0.1-1.4-0.7
		c-1.7,0.5-3.4,0.9-5.2,1.4c-1.8,0.5-3.3,0.3-4.5-0.5c-0.3,0-0.7,0-1.1,0.1c-0.5,0.1-0.8,0.1-1.1,0.1c-6.9,0.3-13.3,0.4-19.1,0.2
		c-5.8-0.2-11.6-0.2-17.3-0.2c-0.8-8.1-1.3-15.9-1.7-23.2c-0.4-7.3-0.3-14.4,0.1-21.4c0.5-5.7,0.5-11.5,0.1-17.3
		c-0.4-5.8-0.4-11.3-0.1-16.6c0.1-1.7,0.4-3.2,0.7-4.7c0.3-1.5,0.6-2.9,0.9-4.1c-0.6-1.8-0.9-3.5-1-5.2c-0.1-1.7,0-3.3,0.1-5
		c0.1-1.7,0.2-3.4,0.2-5.1c0-1.7-0.3-3.7-0.9-5.8c0.8-3.8,1.1-8.1,1.1-12.9c0-4.8-0.1-9.7-0.2-14.6c-0.2-4.9-0.1-9.6,0.1-14.1
		s0.9-8.4,2.1-11.5c2.9,0,5.7,0,8.5-0.1c2.8-0.1,5.6-0.3,8.5-0.8c5-0.1,10.2-0.3,15.7-0.5c5.5-0.1,11-0.2,16.4-0.1
		c5.4,0.1,10.8,0.3,16,0.8c5.3,0.5,10.2,1.2,14.9,2.3c0,4.8-0.2,10-0.5,15.6c-0.3,5.6-0.5,10.5-0.5,14.9c-3.6-1.8-7.5-2.9-11.8-3.3
		c-4.2-0.4-8.6-0.5-13.1-0.2c-4.5,0.2-9,0.5-13.6,0.9c-4.5,0.4-8.9,0.5-13.1,0.3c-0.9,5.3-1.2,10.8-1,16.7c0.2,5.9,0.6,11,1,15.4
		c2,0.5,4.2,0.4,6.7-0.1c2.5-0.5,4.8-0.2,6.9,1c0.5-0.5,0.5-0.7,0.1-0.8c-0.4-0.1-0.9-0.1-1.7-0.1c0.5-0.3,1.1-0.4,1.8-0.3
		c0.8,0.1,1,0.5,0.7,1.2c2.9-1.7,6.3-2.5,10.2-2.6c3.9-0.1,7.5-0.3,10.8-0.6c0.5,2.9,0.6,5.6,0.6,8.1c-0.1,2.6-0.2,5.1-0.2,7.7
		c-0.1,2.6-0.2,5.2-0.2,7.8c-0.1,2.6,0.1,5.5,0.6,8.5c-6.5,0.5-12.4,0.8-17.9,1.1c-5.4,0.3-11.5,0.5-18.3,0.5
		c0.8,6.3,0.8,12.5,0.2,18.6c-0.6,6.1-0.7,12.3-0.2,18.6c9.6,0,18.9,0.1,27.9,0.2c9,0.2,17.1,0.1,24.5-0.2c0.3,3.2,0.1,6.9-0.6,11.3
		C2082.7,152.9,2082.6,156.8,2083.1,160.5z M2012.8,112.1c-0.5,0.8-0.7,1.3-0.7,1.6h1.6C2013.7,112.6,2013.4,112.1,2012.8,112.1z
		 M2013.7,116.8c0,0.5,0.4,0.7,1.2,0.7c0.8,0,1.2-0.2,1.2-0.7c-0.5-0.3-0.9-0.4-1.2-0.2C2014.6,116.8,2014.2,116.8,2013.7,116.8z
		 M2016.2,87c0.5,0,1-0.1,1.6-0.3c0.6-0.2,1.2-0.5,1.7-0.9c0.5-0.4,0.9-0.8,1.1-1.2c0.2-0.5,0.1-0.9-0.3-1.4
		c-0.9,0.8-1.7,1.4-2.5,1.9C2017,85.6,2016.5,86.3,2016.2,87z M2017.8,96c0,1.1,0.5,1.6,1.6,1.6c0.5-0.5,0.5-0.9,0.1-1.5
		C2019.1,95.6,2018.5,95.6,2017.8,96z M2019.4,146c0.5,0.3,1,0.3,1.6,0c0.6-0.3,0.9-0.8,0.9-1.6c-0.8,0.3-1.2,0.1-1.5-0.6
		c-0.2-0.7-0.6-1-1-1c-0.5,0.8-0.4,1.4,0.2,1.8C2020.2,145.1,2020.1,145.5,2019.4,146z M2037.2,26.7c-0.6,0-0.9,0.2-0.9,0.5
		c-0.2,0.2-0.2,0.3,0,0.5c0.6,0,0.9,0.5,0.9,1.6c0.5,0,1-0.3,1.6-0.9c-0.5-0.3-0.8-0.5-1.1-0.5C2037.4,27.8,2037.2,27.4,2037.2,26.7
		z M2045.1,9.7c-0.3,0-0.6,0.1-1,0.2c-0.4,0.2-0.6,0.6-0.6,1.4c0.5,0.5,0.9,0.5,1.5,0.1C2045.5,11,2045.6,10.5,2045.1,9.7z
		 M2047.6,21c0,0.5-0.2,0.9-0.5,1.2c-0.3,0.4-0.5,0.8-0.5,1.2c0.9-0.5,1.5-0.6,1.7-0.5c0.2,0.2,0.5,0,0.8-0.5h-0.5
		c-0.2,0-0.2-0.2-0.2-0.7c-0.2-0.1-0.2-0.3-0.2-0.5C2048,21.2,2047.8,21,2047.6,21z M2049.2,25.1h-2.5c0,0.8,0.5,1.2,1.6,1.5
		C2049.3,26.8,2049.6,26.3,2049.2,25.1z M2052.4,20.1c-0.8-0.3-1.4-0.2-1.8,0.3c-0.5,0.5-0.9,1-1.4,1.5c0.5,0,0.6,0.3,0.6,0.8
		c-0.1,0.5,0.3,0.8,1,0.8c0.5-0.5,0.8-0.9,1.1-1.4C2052.2,21.7,2052.4,21,2052.4,20.1z M2050.8,17v1.6c0.5,0,1,0,1.6-0.1
		c0.6-0.1,0.9-0.3,0.9-0.6c-0.5,0-0.8-0.1-1-0.5C2052,17.1,2051.5,17,2050.8,17z M2053.9,23.5c0,0.8,0.1,1.1,0.5,0.9
		c0.3-0.1,0.7-0.2,1.1-0.2C2055.5,23.7,2055,23.5,2053.9,23.5z"/>
</g>
</svg>
