<?xml version="1.0" encoding="utf-8"?>
<!-- Generator: Adobe Illustrator 22.0.1, SVG Export Plug-In . SVG Version: 6.00 Build 0)  -->
<svg version="1.1" id="Layer_1" xmlns="http://www.w3.org/2000/svg" xmlns:xlink="http://www.w3.org/1999/xlink" x="0px" y="0px"
	 viewBox="0 0 65.179 65.179" style="enable-background:new 0 0 65.179 65.179;" xml:space="preserve">
<style type="text/css">
	.st0{fill:#ED1C24;}
	.st1{fill:#FFFFFF;}
	.st2{fill:none;stroke:#000000;stroke-width:0.3789;}
</style>
<g>
	<g>
		<rect x="0.189" y="0.189" class="st0" width="64.8" height="64.8"/>
	</g>
	<g>
		<rect x="0.189" y="47.789" class="st1" width="64.8" height="17.2"/>
	</g>
	<g>
		<g>
			<g>
				<polygon class="st1" points="62.689,6.689 59.089,6.689 59.089,3.089 53.389,3.089 53.389,6.689 49.789,6.689 49.789,12.389 
					53.389,12.389 53.389,15.989 59.089,15.989 59.089,12.389 62.689,12.389 				"/>
			</g>
		</g>
		<g>
			<g>
				<path class="st1" d="M12.789,4.889c-0.1,1.8-1.1,6-8.6,6h-1.6v6.3h8.9v25.8h8.5v-38.6h-7.1L12.789,4.889z"/>
				<path class="st1" d="M44.989,22.189c2.5-1.6,3.8-4.2,3.8-7.5c0-5-3.9-10.3-12.4-10.3c-7.2,0-12.2,4.4-12.2,10.8
					c0,3.2,1.3,5.7,3.9,7.3c-5.1,2.9-5.1,7.7-5.1,9.5c0,5.5,3.5,11.9,13.5,11.9c10.7,0,13.5-8.3,13.5-12.7
					C49.989,26.989,48.489,24.289,44.989,22.189z M36.489,19.589c-2.8,0-4.3-2.1-4.3-4.1c0-2.6,1.6-4.1,4.5-4.1
					c2.2,0,3.8,1.7,3.8,4.1C40.589,17.989,38.989,19.589,36.489,19.589z M36.389,26.289c4.7,0,4.9,4.4,4.9,5.3c0,1.9-1,5.4-4.8,5.4
					c-3,0-4.9-2.1-4.9-5.4C31.589,27.689,34.089,26.289,36.389,26.289z"/>
			</g>
		</g>
	</g>
	<g>
		<rect x="0.189" y="0.189" class="st2" width="64.8" height="64.8"/>
	</g>
	<g>
		<path d="M15.689,57.989c0,0.7-0.3,1.2-0.7,1.6c-0.4,0.4-1,0.6-1.6,0.6l-1-0.1v2.7h-1.4v-12c0-0.1,0-0.2,0-0.2s0.1,0,0.2,0h3.3
			l1.1,0.7l-1.1,3.1l-0.1,0.5c0,0.1,0,0.1,0,0.2s0,0.1,0.1,0.2c0.3,0.4,0.6,0.8,0.8,1.2C15.489,56.989,15.589,57.489,15.689,57.989z
			 M14.089,57.789c-0.1-0.6-0.3-1.1-0.7-1.6c-0.4-0.5-0.6-0.9-0.7-1.1v-0.4l1-2.8h-1.3c-0.1,0-0.1,0-0.1,0.1v6.6
			c0.1,0,0.3,0.1,0.4,0.1s0.3,0.1,0.4,0.1c0.3,0,0.5-0.1,0.7-0.3C14.089,58.289,14.089,58.089,14.089,57.789z M23.589,61.989
			l-1.1,1.1c-1.3-0.9-2.3-1.8-3-2.7c-0.7-1-1.2-2.2-1.6-3.7h-0.8v4.5c0.3-0.1,0.7-0.2,1-0.3c0.3-0.1,0.7-0.2,1-0.3l0.3,1.4
			c-0.8,0.3-1.7,0.5-2.5,0.7c-0.8,0.1-1.7,0.3-2.5,0.3l-0.2-1.4l1.5-0.2v-10.5c0-0.1,0-0.3,0.1-0.3c0.1-0.1,0.2-0.1,0.4-0.1h6
			c0.1,0,0.3,0,0.3,0.1c0.1,0.1,0.1,0.2,0.1,0.3v5.4c0,0.1,0,0.3-0.1,0.3c-0.1,0.1-0.2,0.1-0.3,0.1h-2.7c0,0.3,0.1,0.7,0.2,1
			c0.1,0.4,0.3,0.7,0.4,1c0.4-0.3,0.7-0.6,1.1-0.8c0.4-0.3,0.7-0.6,1.1-0.8l0.9,1.2c-0.4,0.3-0.7,0.6-1.1,0.9s-0.8,0.5-1.1,0.8
			c0.4,0.5,0.8,0.9,1.2,1.2C22.589,61.389,23.089,61.689,23.589,61.989z M21.189,52.889v-0.8c0-0.1,0-0.2-0.1-0.2c0,0-0.1,0-0.2,0
			h-3.3c-0.1,0-0.3,0-0.3,0c-0.1,0-0.1,0.1-0.1,0.2v0.8H21.189z M21.189,54.889v-0.7h-4v1.1h3.7c0.1,0,0.2,0,0.2-0.1
			C21.189,55.089,21.189,54.989,21.189,54.889z"/>
		<path d="M33.889,61.289c0,0.4-0.2,0.7-0.5,0.9c-0.3,0.2-0.7,0.3-1,0.3h-1.1l-0.1-1.6l0.8,0.2c0.1,0,0.2-0.1,0.3-0.2
			c0.1-0.1,0.2-0.2,0.2-0.3v-2.6l-0.1-0.1h-1.4v4.9h-1.5v-4.9h-1.5c-0.1,0-0.1,0-0.1,0.1v4h-1.4v-5.2c0-0.1,0-0.2,0.1-0.3
			c0.1,0,0.2-0.1,0.3-0.1h2.7v-1h-3.4v-1.4h3.4v-1.1h-2c-0.1,0.1-0.2,0.3-0.4,0.5c-0.1,0.2-0.2,0.3-0.4,0.5l-1.3-0.7
			c0.4-0.5,0.8-1,1-1.5c0.3-0.5,0.5-1,0.6-1.6l1.4,0.4c-0.1,0.1-0.1,0.3-0.2,0.4s-0.1,0.3-0.2,0.4h1.2v-1.3h1.5v1.3h2.7v1.4h-2.7
			v1.2h2.9v1.4h-2.9v1h2.6c0.1,0,0.2,0,0.2,0.1c0.1,0.1,0.1,0.2,0.1,0.3v4.6H33.889z M35.889,59.889h-1.4v-8.5h1.4V59.889z
			 M38.389,61.789c0,0.3-0.2,0.6-0.5,0.8c-0.3,0.2-0.6,0.3-0.9,0.4c-0.3,0-0.6-0.1-0.9-0.1s-0.6-0.1-0.9-0.1v-1.5
			c0.1,0,0.3,0.1,0.6,0.2c0.2,0.1,0.4,0.1,0.6,0.2l0.4-0.1l0.2-0.3v-10.7h1.4L38.389,61.789L38.389,61.789z"/>
		<path d="M46.889,56.989l-1.3,0.3l-0.1-0.7l-1,0.1v6.1h-1.3v-5.9l-1.8,0.3c-0.1-0.3-0.1-0.5-0.2-0.7c-0.1-0.3-0.1-0.5-0.2-0.7
			l1-0.1c0.1-0.2,0.3-0.4,0.5-0.5c0.1-0.2,0.3-0.4,0.5-0.5c-0.4-0.4-0.7-0.7-1.1-0.9c-0.4-0.3-0.7-0.5-1.1-0.6l0.7-1.3
			c0.1,0,0.2,0.1,0.3,0.2c0.1,0.1,0.3,0.1,0.3,0.2c0.2-0.4,0.4-0.9,0.7-1.2c0.2-0.4,0.4-0.8,0.7-1.2l1.2,0.7
			c-0.3,0.4-0.5,0.9-0.8,1.3s-0.5,0.9-0.8,1.3c0.1,0,0.2,0.1,0.3,0.2c0.1,0.1,0.2,0.1,0.3,0.2c0.1-0.3,0.3-0.6,0.4-0.9
			s0.3-0.6,0.4-0.9l1.3,0.4c-0.1,0.5-0.4,1.1-0.9,1.7c-0.5,0.7-0.9,1.2-1.2,1.6l1.1-0.1c-0.1-0.1-0.1-0.2-0.1-0.3
			c0-0.1-0.1-0.2-0.1-0.3l1.2-0.4c0.2,0.4,0.3,0.9,0.5,1.4C46.489,56.089,46.689,56.589,46.889,56.989z M42.889,57.989
			c-0.1,0.7-0.2,1.4-0.4,2.1c-0.1,0.7-0.2,1.4-0.4,2.1l-1.2-0.3c0.1-0.6,0.2-1.3,0.4-2.1c0.1-0.8,0.2-1.5,0.3-2.1L42.889,57.989z
			 M54.189,61.989l-1.1,1c-0.4-0.3-0.8-0.6-1.2-0.9c-0.4-0.3-0.8-0.7-1.1-1c-0.4,0.4-0.9,0.8-1.4,1.1c-0.5,0.3-1,0.6-1.6,0.9l-1-1
			c-0.1,0.1-0.1,0.2-0.2,0.3c-0.1,0.1-0.1,0.2-0.2,0.3l-1.4-0.3c0.1-0.3,0.3-0.6,0.4-0.9s0.3-0.6,0.4-0.9l-0.8,0.1l-0.4-2.8l1.3-0.3
			l0.3,2.2c0.4-1.1,0.6-2.2,0.8-3.3c0.2-1.1,0.3-2.2,0.3-3.3v-1.3h-1.4v-1.4h6.5c0.1,0,0.2,0.1,0.3,0.2c0.1,0.1,0.2,0.2,0.2,0.4
			c0,0.2-0.1,0.7-0.3,1.4c-0.1,0.7-0.3,1.2-0.3,1.5h0.8l0.9,0.7c-0.1,1.1-0.3,2.1-0.7,2.9c-0.4,0.8-0.9,1.7-1.5,2.6
			c0.4,0.3,0.7,0.6,1.1,0.9C53.289,61.389,53.689,61.689,54.189,61.989z M49.889,59.989c-0.4-0.5-0.7-1.1-0.9-1.7
			c-0.3-0.6-0.5-1.2-0.6-1.8c0,0.7-0.2,1.6-0.5,2.8c-0.3,1.2-0.6,2.1-0.9,2.8c0.5-0.3,1-0.6,1.5-0.9
			C48.989,60.689,49.489,60.289,49.889,59.989z M51.289,51.989c0-0.1-0.1-0.1-0.1-0.1h-0.1h-2.4l-0.1,2.1h2.3L51.289,51.989z
			 M52.389,55.389h-2.8c0.1,0.6,0.3,1.2,0.5,1.8c0.2,0.6,0.5,1.2,0.8,1.8c0.4-0.5,0.7-1.1,0.9-1.7
			C52.089,56.589,52.289,55.989,52.389,55.389z"/>
	</g>
</g>
</svg>
