<?xml version="1.0" encoding="utf-8"?>
<!-- Generator: Adobe Illustrator 22.0.1, SVG Export Plug-In . SVG Version: 6.00 Build 0)  -->
<svg version="1.1" id="Layer_1" xmlns="http://www.w3.org/2000/svg" xmlns:xlink="http://www.w3.org/1999/xlink" x="0px" y="0px"
	 viewBox="0 0 1118.5 363.7" style="enable-background:new 0 0 1118.5 363.7;" xml:space="preserve">
<style type="text/css">
	.st0{fill:#FFFFFF;}
</style>
<g>
	<path class="st0" d="M181.5,8.6c0,5.3-0.1,10.5-0.2,15.6c-0.2,5.1-0.1,10.1,0.2,14.9c-3.8-1.5-7.9-2.5-12.3-3.1
		c-4.4-0.5-9-0.8-13.8-0.8c-4.7,0-9.5,0.1-14.4,0.3c-4.8,0.2-9.6,0.3-14.2,0.3c-0.5,5.3-0.5,10.5-0.2,15.6
		c0.3,5.1,0.6,10.1,0.9,14.9c5.7,1.7,11.7,2.2,18,1.6c6.3-0.6,12.6-1.1,19.1-1.6c0.1,2.1,0.2,4.6,0.1,7.3c-0.1,2.8-0.1,5.6-0.1,8.6
		s0,5.8,0.1,8.7c0.1,2.9,0.3,5.4,0.8,7.7c-6.5,0.8-12.8,1-19.1,0.7c-6.3-0.3-12.5-0.3-18.9,0c0.8,11.3,1,22.9,0.7,34.7
		c-0.3,11.8-0.2,22.9,0.2,33.3c-5.7,0-10.8,0.1-15.3,0.2c-4.4,0.1-9.1,0.1-13.9-0.2c-0.9-11.6-1.4-22.7-1.5-33.3
		c-0.1-10.6-0.1-22.4-0.1-35.4c0-2.1-0.1-4.1-0.2-6.1c-0.2-2-0.1-4,0.2-6.1c0-1.7,0.3-3.1,0.8-4.4c0.5-1.3,0.8-2.7,0.8-4.4
		c0-0.8-0.2-1.4-0.5-1.9c-0.3-0.5-0.7-1.2-1.1-2.1c0-2.4,0.2-4.9,0.6-7.6c0.4-2.6,0.2-5.2-0.6-7.6c0.5-4.1,0.8-7.8,0.9-11.3
		c0.1-3.5,0.3-6.9,0.3-10.2C99,33.8,99,30.4,99,27.1s0.1-7.1,0.2-11.2c-0.3-0.9-0.1-1.3,0.6-1.2c0.7,0.1,1-0.1,1-0.6
		c-0.8-2.3-0.8-4.7,0-7.2c5.7-1.2,11.9-1.8,18.4-1.9c6.6-0.1,13.1,0,19.5,0.3c7.2,0.5,14.5,0.6,21.9,0.6
		C168.1,5.7,175,6.7,181.5,8.6z M103.3,166.4c0,0.5,0.2,0.6,0.6,0.3c0.4-0.2,0.7-0.3,1-0.3c-0.3,0-0.6-0.1-1-0.2
		C103.5,166,103.3,166.1,103.3,166.4z M104.7,6.6v0.7h0.9c0,0.5,0.1,0.5,0.3,0.2c0.2-0.3,0.3-0.6,0.3-0.9c-0.3-0.5-0.6-0.5-1-0.1
		C104.9,6.9,104.7,6.9,104.7,6.6z M114.6,159.1c0.5,0.5,0.8,0.6,0.9,0.3c0.1-0.2,0.4-0.3,0.7-0.3c0-1.2-0.3-1.9-1-2
		c-0.7-0.1-1.4-0.2-2.1-0.2c0.3,0.8,0.4,1.4,0.3,1.8c-0.1,0.5,0,0.9,0.3,1.4c-0.2,0-0.3,0.1-0.5,0.2c-0.2,0.2-0.2,0.6-0.2,1.4
		c0.8,0,1.2-0.2,1.4-0.6C114.5,160.7,114.6,160.1,114.6,159.1z"/>
	<path class="st0" d="M278.1,71.5c-0.2,1.2,0,2.3,0.3,3.3c0.4,1,0.8,2.3,1.2,4c0,2.4-0.2,4.9-0.5,7.6c-0.3,2.6-0.5,5.2-0.5,7.8
		c0,4.4,0,8.8,0,13.3s-0.2,9.4-0.7,14.7c-0.3,3.3-0.5,6.3-0.7,8.8c-0.2,2.6,0.1,5.3,0.7,8.1c0,0.5,0.1,1,0.3,1.7s0.3,1.2,0.3,1.7
		c0,1.2-0.3,2.4-0.8,3.6c-0.5,1.2-0.8,2.4-0.8,3.6c-0.3,2.9-0.2,5.8,0.5,8.8c0.6,3,0.8,6,0.5,8.8c-1.2,0.3-2,0.2-2.4-0.2
		c-0.4-0.5-0.9-0.7-1.7-0.7c-4.1,0-7.8-0.4-11.1-1.1c-3.3-0.8-6.6-1.1-9.9-1.1c-2.9,0.3-5.8,0.7-8.8,1.1c-3,0.5-6,0.3-8.8-0.5
		c-0.3-0.1-0.5-0.5-0.5-1.1c0-0.6-0.1-1.2-0.2-1.9c-0.2-0.7-0.3-1.4-0.6-2c-0.2-0.7-0.6-1.1-1.2-1.2c0.8-0.5,1-1.3,0.8-2.6
		c-0.2-1.3-0.5-2.3-0.8-3.1c0.8-1.2,0.9-2.6,0.6-4.2c-0.4-1.6-0.6-3.4-0.6-5.5c0-1.2,0.1-2.2,0.3-3.1c0.2-0.8,0.3-1.4,0.3-1.7
		c-0.3-1.2-0.8-1.8-1.4-1.9c-0.6-0.1-0.9-0.6-0.9-1.5c3.2-0.8,6.2-1.1,9.3-0.9c3,0.2,5.6,0.2,7.7,0.2c0.8-1.2,1-2.4,0.8-3.7
		c-0.2-1.3,0-1.9,0.8-1.9c-0.8-4.8-1-10.4-0.8-16.8c0.2-6.4,0.2-12.6-0.1-18.6c-0.5-9.9-0.9-19.5-1.4-28.8
		c-0.5-9.3-0.5-18.2-0.2-26.8c-2.6-0.8-4.7-1.2-6.6-1.2c-1.8-0.1-3.6,0-5.3,0.1c-1.7,0.2-3.5,0.4-5.4,0.7c-1.9,0.3-4.2,0.5-6.9,0.5
		c-0.3,8.4-0.3,16.7,0.1,24.9c0.4,8.1,0.8,16.2,1.2,24.1c0.5,7.9,0.8,15.7,1,23.5c0.2,7.8,0,15.6-0.8,23.4c0.5,0.6,1.1,1,1.8,1.2
		c0.8,0.2,1.5,0.5,2.3,0.7c0.8,0.2,1.4,0.6,2,1c0.6,0.5,1,1.1,1.1,2c-0.3,0-0.8-0.1-1.4-0.3c-0.6-0.2-0.9-0.1-0.9,0.3
		c0.3,2.4,0.6,5,1,7.9c0.4,2.9,0.3,6.1-0.3,9.7c0,0.5-0.1,1.1-0.3,1.8c-0.2,0.8-0.3,1.5-0.3,2.3c0,0.8,0.4,1.5,1.1,2.4
		c0.8,0.8,1.1,1.6,1.1,2.4c-5.7,0.8-11.8,0.9-18.1,0.6c-6.3-0.4-12.1-0.6-17.4-0.6c-1.7-16-2.7-31.8-3.1-47.5
		c-0.4-15.7-0.7-31.3-1-46.8c-0.2-6.5,0.3-13.1,1.5-19.8c1.1-6.7,1.5-13.3,1-19.8c-0.3-4.4-0.8-8.5-1.6-12.3
		c-0.8-3.8-0.8-7.8,0-11.9c10.1,0,20.8,0,32.1-0.1c11.3-0.1,22.1-0.3,32.5-0.6c3.2-0.5,6.3-0.6,9.5-0.3s6.2,1.2,9,2.8
		c0.6,2.4,0.8,4.9,0.7,7.3c-0.2,2.5-0.4,5-0.7,7.5c-0.3,2.5-0.5,5-0.7,7.5c-0.2,2.5,0.1,4.9,0.7,7.3c0,0.9,0.3,1.8,0.9,2.6
		c0.6,0.8,1.1,1.8,1.4,3.1c0.5,2.1,0.2,4.3-0.7,6.7c-0.9,2.3-1.2,4.7-0.9,7.1c0,0.8,0.3,1.4,0.8,2c0.5,0.6,0.8,1.3,0.8,2
		c0,1.7-0.2,3.3-0.6,4.9C277.8,68.2,277.8,69.8,278.1,71.5z M201.1,115.8c0,0.3,0.3,0.3,1,0.1c0.7-0.2,0.9-0.6,0.6-1
		C201.7,114.9,201.1,115.2,201.1,115.8z M204.3,86.6c0.3-0.3,0.6-0.5,1-0.7c0.4-0.1,0.6-0.5,0.6-0.9c-0.8-0.3-1.3-0.2-1.7,0.3
		C203.8,85.9,203.9,86.3,204.3,86.6z M207.5,36c0-0.8-0.3-1.3-1-1.7c-0.7-0.4-1.4-0.3-2.1,0.1c0,0.8,0.3,1.2,1,1.4
		C206,35.9,206.7,36,207.5,36z M204.7,44.7v1.6h1.6C206.3,45.2,205.8,44.7,204.7,44.7z M205.9,49.5c-0.5,0.5-0.2,0.7,0.8,0.7
		c1,0,1.2-0.2,0.8-0.7c0-0.3-0.2-0.4-0.5-0.2C206.7,49.5,206.3,49.5,205.9,49.5z M211.5,15.9l-3.2,3.8c0.8,0,1.7-0.5,2.7-1.4
		C212.1,17.4,212.3,16.6,211.5,15.9z M210,28.7c0,0.3,0.1,0.6,0.2,1c0.1,0.4,0.6,0.6,1.4,0.6c0.5-0.5,0.5-0.9,0.1-1.5
		C211.3,28.3,210.7,28.3,210,28.7z M211.5,78.7c0.5,0.3,1,0.3,1.6,0.1c0.6-0.2,0.9-0.6,0.9-1c-0.8,0-1.3-0.4-1.6-1.1
		c-0.3-0.8-0.8-1.1-1.6-1.1c-0.5,0.8-0.3,1.4,0.3,1.8C211.9,77.8,212,78.2,211.5,78.7z M253.6,147.8c0-0.8,0.1-1.3,0.3-1.6
		c0.2-0.3,0.3-0.8,0.3-1.6c-0.8-0.3-1.4-0.3-2,0.1c-0.6,0.4-1.5,0.3-2.7-0.1c0.3,0.8,0.4,1.2,0.2,1.5c-0.2,0.2-0.2,0.6-0.2,1
		c0.8,0,1.4,0,2,0.1C252.1,147.4,252.8,147.5,253.6,147.8z M257.6,135.9c0.3-0.5,0.4-0.9,0.2-1.2c-0.2-0.4-0.2-0.8-0.2-1.2
		c-1.2,0-1.8,0.5-1.8,1.6c0.5,0,0.8,0.2,0.9,0.5C256.9,135.7,257.2,135.9,257.6,135.9z M264,152.3h-1.6c0,0.5,0.3,0.8,0.8,0.9
		C263.7,153.3,264,153,264,152.3z"/>
	<path class="st0" d="M376.5,69c-1.7-0.5-3.1-0.5-4.4,0c-1.3,0.5-2.8,0.5-4.4,0c1.2,8.1,2.7,16.3,4.5,24.5
		c1.8,8.2,3.7,16.5,5.5,24.7c1.9,8.3,3.7,16.5,5.5,24.7c1.8,8.2,4.5,24.3,4.5,24.3h-29.1l-7.2-23.5c-1.4-4.4-2.7-8.5-4.1-12.4
		c-1.4-3.9-2.4-7.8-3.2-11.8c0-1.2-0.1-2.1-0.2-2.7c-0.2-0.6-0.1-1.1,0.2-1.4c0-0.5-0.3-0.8-0.8-1c-0.5-0.2-0.8-0.7-0.8-1.5
		c-1.2-6.9-2.5-14.1-3.7-21.4c-1.3-7.3-3-14.4-5.1-21.4h-7.2c0,8.5,0.3,16.2,0.9,23.2c0.6,7,1.1,14.4,1.4,22.1
		c0.5,9.1,0.5,17.7,0.1,26c-0.4,8.3-1.2,16.5-2.4,24.7h-9.7h0.9v-2h-0.9h-0.9h-0.7c-0.6,0.5-0.9,0.7-0.9,1c-0.2,0.2,0.4,0.5,0.4,0.5
		v0.6h0.5h-5.7c-1.7,0.1-3.4,0.2-5.2,0.4c-1.8,0.2-3.3,0.1-4.5-0.3c-1.4-0.8-2.2-2-2.6-3.6c-0.4-1.7-0.5-3.5-0.5-5.7
		c0.1-2.1,0.2-4.3,0.5-6.4c0.2-2.2,0.3-4.2,0.1-6c0-1.7-0.5-3.2-1.4-4.7c-0.9-1.5-1.5-2.9-1.8-4.1c-0.6-2.4-0.5-5.3,0.3-8.6
		c0.8-3.3,1.2-6.3,1.2-9c0-6.3-0.2-12-0.5-17.1c-0.3-5-0.5-10.4-0.5-16.2c0-3.2-0.1-6.3-0.2-9.5c-0.2-3.2-0.1-6.2,0.2-9
		c0-0.8,0-1.3-0.1-1.6c-0.1-0.3,0.3-0.8,1-1.6c0-0.5-0.2-0.6-0.7-0.6c-0.5,0.1-0.5-0.3-0.2-1c0-7.2,0-15.8,0.1-25.7
		c0.1-9.9,0.3-19.8,0.8-29.9c7.2,0.2,14.7,0.2,22.4,0c7.7-0.1,15.3-0.3,22.9-0.5c7.6-0.1,15-0.3,22.3-0.5c7.2-0.1,14-0.1,20.3,0
		c-0.8,3.3-0.6,6.3,0.3,8.9c1,2.6,1.7,5.6,2.1,8.9c0.3,3.2,0.3,6.6,0,10.4c-0.3,3.8-0.3,7.2,0,10.4c0.1,2.4,0.6,5,1.4,7.8
		c0.8,2.8,1.2,5.4,1.5,7.9c0.2,2.5,0,4.7-0.7,6.6c-0.7,1.9-2.2,3.1-4.6,3.7c-1.2,0.3-2.4,0.2-3.6-0.2C378.9,69.2,377.7,69,376.5,69z
		 M304,22.2c1.2,0.5,2.1,0.5,2.6,0c0.5-0.5,0.8-0.9,0.8-1.5c0-0.5-0.3-0.8-0.8-0.9c-0.5-0.1-1.2,0.5-1.9,1.7c-0.3,0-0.6-0.1-0.9-0.2
		C303.4,21.1,303.5,21.4,304,22.2z M303.7,28.7v0.7c0.3,0,0.6,0.1,1,0.2c0.4,0.2,0.6-0.1,0.6-0.9c0-0.5-0.2-0.6-0.6-0.3
		C304.4,28.6,304,28.7,303.7,28.7z M355.8,41.6c0.5-2.1,0.7-4,0.8-5.7c0.1-1.7,0.1-3.5,0.1-5.6c-3.3-0.5-6.7-0.6-10.3-0.3
		c-3.5,0.2-7.1,0.3-10.7,0.3c-0.5-0.5-0.6-1-0.6-1.6c0.1-0.6-0.3-0.9-1-0.9c-0.5,0.8-0.5,1,0,0.7c0.5-0.3,0.7-0.2,0.7,0.2v0.7
		c-1.7,0.8-3.1,1.1-4.4,1.1c-1.3,0-2.8,0.2-4.4,0.5c0,1.7,0.1,3.4,0.5,5.3c0.3,1.9,0.5,3.7,0.5,5.3
		C336.9,42.2,346.6,42.2,355.8,41.6z"/>
	<path class="st0" d="M488.2,133.3h0.3c0.3,0,0.4,0.2,0.4,0.7l5.6,34.3h-22.6c0,0-3.7-9.7-4.7-14.6c-1.1-4.8-2.4-9.4-4.1-13.8
		c-4.4,0-9.2-0.1-14.6-0.5c-5.3-0.3-10.4-0.5-15.3-0.5c-2.1,4.4-3.5,9-4.2,13.9c-0.7,4.9-1.5,9.8-2.4,14.6c-3.9,0-8,0.2-12.2,0.6
		c-4.2,0.4-8.7,0.2-13.6-0.6l5.7-38.9c0.8,0.8,1.8,0.8,3.2,0c-0.8-0.5-1.4-0.6-1.8-0.5c-0.5,0.2-0.9,0-1.4-0.5
		c1.7-9.6,3.1-19.5,4.2-29.6c1.1-10.1,2.4-20.3,4-30.7l2.5-17.9c0.3-1.7,0.9-3,1.8-4c0.9-1,1.4-2.3,1.4-4c0.8-2.6,1.3-5.2,1.6-7.8
		c0.3-2.6,0.8-5.2,1.6-7.6c1.2-3.6,2.2-7.2,2.9-10.8c0.8-3.6,1.1-7.2,1.1-11.1h6.6c-0.5,0.6-0.8,0.7-0.9,0.5
		c-0.2-0.1-0.5-0.2-0.9-0.2c0,0.8,0.5,1,1.5,0.8c1-0.2,1.8-0.5,2.6-0.8c0.5,0,0.6,0.2,0.5,0.5c-0.2,0.3,0,0.7,0.5,1.1
		c0.3-0.5,0.6-0.8,0.9-0.9c0.3-0.1,0.2-0.4-0.2-1h16.3c2.9-0.2,5-0.5,6.6-0.6c1.5-0.1,2.6,1.2,3.2,4.1l2.3,12
		c0.8,1.7,1.4,3.4,1.9,5.3c0.5,1.9,1,3.7,1.5,5.3c0,0.3-0.2,0.4-0.5,0.3c-0.3-0.1-0.5,0-0.4,0.3v0.9c0-0.6-0.3-0.9-0.9-0.9
		c-0.5,0-1.1,0.5-1.1,0.5v0.5V31v0.9c0,0-1.1,0.1-1.5,0.2c-0.4,0.2-0.6,0.6-0.5,1.4v0.8h0.8h0.7l-0.7,0.8l0.2-0.7v0.7
		c0,0.8,1,1.6,1,1.6v0.9l1-0.9v0.5c0,0-0.4,0.5,0.1,0.5c0.9,0,1.4-0.3,1.6-0.9c0.1-0.6,0.2-1.1,0.3-1.6v-0.8h-2.6h0.7
		c0.5-0.3,0.9-0.6,1.2-0.8c0.4-0.1,0.6-0.4,0.6-0.7l1.6,5.4c2.7,9.5,4.9,19.2,6.4,29.2c1.6,9.9,3.4,19.9,5.5,29.8
		c0,1.1-0.2,1.6-0.7,1.6c0.8,1.2,1.4,2.7,1.8,4.5c0.5,1.8,0.9,3.5,1.4,5.2c0.5,3.6,1,7.3,1.6,11.1c0.6,3.8,0.9,7.3,0.9,10.6
		C488.9,131.1,488.2,133.3,488.2,133.3z M434.8,10.9l-0.7,1.4h1.6h2v-1.4l1,0.9v-1.5h-1v-1l-0.4,1h-0.9h-0.5c-0.2-0.1-0.3,0-0.5,0.2
		C435.3,10.6,435.1,10.7,434.8,10.9z M439.8,108.5c2,0.3,4.8,0.4,8.5,0.2c3.7-0.1,6.7-0.2,9.2-0.2c-1.2-7.2-2.5-14.4-3.7-21.5
		c-1.3-7.1-3-13.6-5.1-19.7c-1.7,6.5-3.4,13.1-5.1,20C441.8,94.2,440.5,101.3,439.8,108.5z M471.9,153.3h1.8h0.7l2.5,1.1l-0.9-2.5
		c-0.5-0.5-1.2-0.7-2.3-0.6h-0.9h-0.9l-1.1-0.9v0.9c0,0.8,0.3,1.2,0.5,1.4C471.4,152.7,471.6,152.8,471.9,153.3z"/>
	<path class="st0" d="M626.7,143.4v4.7v18.5c-5.7,0-11.6,0.2-17.6,0.7c-6,0.5-12,0.3-18-0.5c-2.6-0.3-5.2-0.3-7.9-0.1
		c-2.7,0.2-5.5,0.2-8.4-0.1c-7.3,0-15,0-23.2,0.1c-8.2,0.1-15.8,0.1-22.8,0.1c-0.6,0-2,0-4.2,0.1c-2.2,0.1-4.5,0.1-7,0.2
		c-2.5,0.1-4.8,0.1-6.8,0.1c-2,0-3.3-0.2-3.7-0.5c-0.9,0-1.4-0.8-1.6-2.5c-0.2-1.7-0.2-3.5-0.1-5.7c0.1-2.1,0.2-4.3,0.5-6.4
		c0.2-2.2,0.3-3.9,0.3-5.1c-0.5-3.2-0.6-6.2-0.5-9c0.1-2.9,0.3-5.7,0.5-8.6c0.5-7.1,0.8-14.5,1-22.4c0.2-7.8,0.4-15.7,0.5-23.5
		c0.1-7.8,0.1-15.5,0.1-22.9c0-7.5,0-20.1,0-20.1s0.5-3.3,0.4-6.2c-0.1-2.9-0.1-6-0.4-9.2v-8.7c0.3-2.6,0.4-4.3,0.5-4.9
		c0.1-0.8,1-1.2,2.6-1.5c1.6-0.2,3.4-0.4,5.3-0.6c2-0.1,3.8-0.3,5.5-0.6c1.7-0.2,2.9-0.7,3.5-1.5l68.7-3.4h9.5
		c-0.2,2.7-0.4,5.3-0.7,8c-0.3,2.7-0.5,5.5-0.7,8.2c-0.2,2.8-0.2,5.5,0,8.1c0.1,2.6,0.6,5.1,1.4,7.3c-2,0.8-3.9,1.2-5.8,1.4
		c-1.9,0.2-4.3,0.2-7.1,0.2c-8.7-0.9-16.9-1.3-24.4-1.1c-7.5,0.2-15.5,0.2-24,0.2c-0.3,6.5,0,13.1,0.8,20c0.8,6.9,0.9,13.9,0.1,21.1
		c-0.8,3.3-1.4,6.6-1.8,9.8c-0.5,3.2,0.1,5.9,1.8,8c-1.7,7.2-2.7,14.1-3.2,20.5c-0.5,6.4-1.1,13.3-1.8,20.7
		c3.6,1.2,7.5,1.8,11.5,1.9c4.1,0.1,8.3,0,12.7-0.3c5.3-0.3,10.5-0.6,15.6-1c5.1-0.4,9.9-1.2,14.2-2.4c-0.3-5.3-0.2-10,0.2-14.2
		c0.5-4.2,0.7-8.3,0.7-12.2c0-0.6,0.5-0.9,1.6-0.9c-1.2-0.3-1.6-0.9-1.1-1.7c0.5-0.8-0.5-3.6-0.5-3.6h-14.3v-1h-3v0.7l1.2,0.3h-21.4
		c0-1.8,0-4.1,0.1-6.9c0.1-2.8,0.1-5.7,0.2-8.7c0.1-3,0.1-6,0.2-8.9c0.1-2.9,0.1-5.5,0.1-7.8c8.2,0,16.9,0.3,26.2,0.9
		c9.3,0.6,18.7,1.1,28.2,1.6l16.1,22.6c0,8.6,0,16.5,0.1,23.7c0.1,7.2,0.3,14.9,0.8,23.1c-0.6,0.5-1.1,0.6-1.5,0.6
		c-0.4-0.1-0.7-0.2-0.9-0.5c-0.2-0.2-0.5-0.4-0.7-0.6c-0.2-0.1-0.6,0-1,0.5c0,0.8,0.1,1.2,0.5,1.4c0.3,0.2,0.7,0.2,1.1,0
		c0.5-0.1,0.8-0.3,1.1-0.3C626.6,142.8,626.7,143,626.7,143.4z M528.4,61.7l-1.6-1.6c0,0.8-0.1,1.2-0.3,1.5
		c-0.2,0.2-0.3,0.5-0.3,0.8c0.3,0.5,0.6,0.3,0.8-0.3C527.1,61.4,527.6,61.3,528.4,61.7z M526.1,160.1c0.3,0,0.7-0.1,1.1-0.5
		c0.5-0.3,0.8-0.5,1.1-0.5c-0.3-0.3-0.6-0.5-1-0.5c-0.4,0-0.6-0.4-0.6-1.1c-0.5,0-0.7,0.3-0.7,0.9c0.3,0,0.4,0.2,0.2,0.5
		C526.2,159.2,526.1,159.6,526.1,160.1z M534,70.3h-2.3c0.5,0.6,1,0.9,1.6,0.9c0,0.2,0.1,0.2,0.2,0C533.9,71.2,534,70.9,534,70.3z
		 M532.4,141.5c0.5,0.5,1,0.6,1.6,0.6c0.6-0.1,0.9-0.6,0.9-1.5c-0.5,0-1,0-1.6,0.1C532.8,140.8,532.4,141.1,532.4,141.5z
		 M537.7,152.8v-0.9c-0.5,0.5-0.7,0.8-0.8,1c-0.1,0.2-0.1,0.7-0.1,1.5c0.5-0.5,0.9-0.6,1.2-0.5c0.4,0.2,0.8,0,1.2-0.5
		c0-0.3-0.3-0.4-0.8-0.3C538,153.2,537.7,153.1,537.7,152.8z M536.5,156c0,0.5,0.5,0.8,1.5,0.9c1,0.2,1.3-0.1,1-0.9
		c-0.5-0.3-0.8-0.4-1-0.2C537.8,155.9,537.3,156,536.5,156z M540.6,154.4c0.5-0.5,0.8-0.9,1.1-1.4c0.3-0.5,0.5-1.1,0.5-1.8
		c-0.8-0.8-1.4-0.9-1.9-0.5c-0.5,0.5-0.9,0.8-1.2,1.1c0.3,0.5,0.5,1,0.5,1.6C539.5,154.1,539.8,154.4,540.6,154.4z M540.7,147.8v0.9
		c0.5,0.5,1,0.7,1.6,0.7c0.6,0,0.9-0.2,0.9-0.7c-0.5,0-0.8-0.1-1-0.5C542,148,541.5,147.8,540.7,147.8z M543.8,154.4
		c0,0.6,0.5,0.9,1.6,0.9C545.3,154.7,544.8,154.4,543.8,154.4z M556.6,164.1c0,0.3,0.4,0.3,1.2,0.1c0.8-0.2,1.2-0.6,1.2-1
		c-0.5,0-1,0-1.6,0.1C556.9,163.4,556.6,163.7,556.6,164.1z M559.1,145.6c0,0.3,0.4,0.5,1.2,0.5c0.8,0,1.2-0.1,1.2-0.5
		c-0.5,0-0.8-0.1-0.9-0.2c-0.3,0-0.6,0-0.8-0.1C559.7,145.2,559.4,145.3,559.1,145.6z M572,152.3h0.9c0.3,0,0.5-0.3,0.5-0.8
		c0-0.5-0.2-0.8-0.5-0.8c-0.5,0.5-0.8,0.8-1,0.9C571.7,151.8,571.7,152,572,152.3z M572,150.3c1.5-0.6,2.6-1.7,3.2-3.2
		c-0.8,0-1.5,0.3-2.1,1C572.3,148.9,572,149.6,572,150.3z M588.3,141.9c0.8,0,1.2-0.1,1.4-0.2c0.1-0.1,0.2-0.6,0.2-1.4h-0.9
		c0,0.3-0.1,0.5-0.3,0.7C588.4,141.1,588.3,141.4,588.3,141.9z M588.9,163c0-0.5,0.1-0.7,0.5-0.7h0.5c-0.5-0.5-0.8-0.8-1.1-0.9
		c-0.3-0.1-0.5,0.2-0.5,0.9c0.3,0,0.4,0.1,0.3,0.3C588.5,162.8,588.6,163,588.9,163z M598.7,136.8c0,0.3,0.3,0.4,0.8,0.3
		c0.5-0.1,0.8-0.5,0.8-1.2c-0.3,0.5-0.6,0.6-1,0.5C598.9,136.2,598.7,136.3,598.7,136.8z"/>
	<path class="st0" d="M700.6,142.4l1.8,24.9c-11.3-0.9-22.1-1.1-32.4-0.5c-10.3,0.6-20.5,0.8-30.6,0.5c0-5.3,0.1-10.6,0.2-15.9
		c0.1-5.3,0.6-10.2,1.4-14.6c1.7-0.5,3.4-0.5,5.3-0.1c1.9,0.4,3.7,0.4,5.3,0.1c0.3-5.3,0.6-10.1,1-14.6c0.4-4.4,0.6-9.3,0.6-14.6
		c0.3-0.8,0.8-0.8,1.5-0.2c0.7,0.6,1.2,0.7,1.7,0.2c0-0.6-0.2-1-0.5-1.1c-0.3-0.1-0.7-0.3-1.1-0.3c-0.5-0.1-0.8-0.1-1.1-0.2
		c-0.3-0.1-0.5-0.3-0.5-0.8c0.3-6.8,0.5-13.8,0.6-21c0.1-7.2,0.1-14.7,0.1-22.4c0-0.6,0.5-0.9,1.6-0.9c0-0.8-0.3-1.1-0.8-1
		c-0.5,0.1-0.8-0.1-0.8-0.6c0-1.2,0-2.3,0.1-3.4c0.1-1.1,0.3-1.8,0.8-2.3c-0.8-2.1-0.9-4.5-0.6-7.2c0.4-2.7,0.6-5.6,0.6-8.8
		c-1.7-0.3-4-0.3-7,0c-3,0.3-5.5,0.3-7.5,0l1.6-29.8c6.5-0.5,13.8-0.5,21.9-0.1c8.1,0.4,15.9,0.1,23.3-0.8c2.9-0.3,5.5-0.6,7.8-1
		c2.3-0.4,7.9-0.6,7.9-0.6v32h-19.1c-0.3,15.8-0.6,31.7-1,48.1c-0.4,16.3-0.6,33.2-0.6,50.5c3.3,0.5,6.5,0.6,9.6,0.3
		c3.1-0.2,9.1-0.3,9.1-0.3v5.4H699h-0.3v0.2c-0.4,0.8-0.3,1.2-0.1,1.5c0.2,0.2,0.3,1.3,0.3,1.3h0.7v-1h0.4
		C700.4,143.1,700.6,142.9,700.6,142.4z M660.4,27.2c0.3,0.3,0.6,0.4,1,0.3c0.4-0.1,0.6-0.5,0.6-1.2c0,0.5-0.3,0.6-0.8,0.5
		C660.6,26.6,660.4,26.7,660.4,27.2z M669.2,14.3h-1.6c0,0.9,0.4,1.4,1.1,1.4C669.5,15.6,669.6,15.2,669.2,14.3z M670.1,45.7
		l-2.5-1.8c0,1.7,0.3,2.7,0.9,3.2c0.6,0.5,1.1,1.1,1.6,1.8c0.3,0,0.5-0.2,0.7-0.6c0.1-0.4,0.5-0.7,0.9-1c-0.8,0-1.2-0.2-1.4-0.6
		C670.2,46.3,670.1,46,670.1,45.7z M670.1,91.6c0.8,0.3,1.2,0.2,1.4-0.3c0.1-0.5,0.2-0.9,0.2-1.2c-0.8,0-1.2,0.2-1.4,0.5
		C670.2,90.7,670.1,91.1,670.1,91.6z M675.7,51.3c0.3,0.3,0.6,0.3,1,0.1c0.4-0.2,0.6-0.6,0.6-1c-0.8-0.5-1.2-0.5-1.4-0.2
		C675.8,50.5,675.7,50.9,675.7,51.3z M677.7,54.5v-1.6c-0.5,0-0.8,0.1-0.9,0.3c-0.2,0.2-0.4,0.3-0.7,0.3
		C676.2,54.2,676.7,54.5,677.7,54.5z M678,29.4c0.5,0.5,1,0.6,1.6,0.6c0.6-0.1,0.9-0.5,0.9-1.2c-0.3-0.5-0.8-0.5-1.5-0.2
		C678.3,28.8,678,29.1,678,29.4z M681.4,155.3c1.1,0,1.6-0.3,1.6-0.9l-0.9-0.9c0,0.5-0.1,0.8-0.3,0.9
		C681.5,154.6,681.4,154.9,681.4,155.3z M687.3,16.3h-1.6v0.9c0-0.5,0.3-0.6,0.8-0.5C687.1,16.9,687.3,16.7,687.3,16.3z
		 M688.6,157.6c0.3-0.3,0.6-0.6,1-0.8c0.4-0.2,0.6-0.7,0.6-1.5c-0.8,0-1.3,0.3-1.7,0.9C688.1,156.8,688.2,157.3,688.6,157.6z"/>
	<path class="st0" d="M713.7,167.3l2.5-30.5c1.7,0,3.7-0.1,5.9-0.3c2.2-0.2,4.7-0.1,7.3,0.3c1.2-5.7,1.9-11.2,2.1-16.6
		c0.2-5.4,0-10.3-0.5-14.8c0-0.4,0.5-0.7,1.6-0.7c0-0.4-0.3-0.6-0.8-0.6c-0.5,0.1-0.8-0.3-0.8-1c0.4-3.8,0.6-7.2,0.4-10.4
		c-0.2-3.6-0.4-7.1-0.4-10.7c0-2.5,0-5.3-0.1-8.5c-0.1-3.3-0.2-6.7-0.2-10.3c-0.1-3.6-0.1-7.2-0.1-10.8c0-3.6,0.2-6.9,0.5-10.1
		c0.5,0,0.5-0.3,0.1-0.8c-0.4-0.5-0.1-0.8,0.8-0.8c-0.5-0.4-0.7-1-0.8-1.7c-0.1-0.7-0.1-1.2-0.1-1.7c-2.9,0.4-5.8,0.7-8.8,0.9
		c-2.9,0.2-5.2-0.4-6.9-1.6c1.2-4.8,1.7-9.7,1.4-14.7c-0.3-5-0.5-10.5-0.5-16.5c12,0,23.9,0.2,35.8,0.6c11.8,0.4,23.8,0.9,35.8,1.7
		c0.5,0.9,1.1,1.3,2,1.1c0.8-0.1,1.9-0.2,3.1-0.2l1.6,1.6c0.3-0.3,0.2-0.6-0.2-0.8c-0.5-0.2-0.7-0.8-0.7-1.7
		c1.2,0.4,2.3,1.2,3.1,2.2c0.8,1,1.5,1.9,2,2.7l4.8,5.6c0.5,0.4,1.1,1.1,1.8,2c0.8,0.9,1.6,1.9,2.4,2.9c0.8,1,1.7,2.1,2.4,3.2
		c0.8,1.1,1.3,2.1,1.6,3c1.1,2.8,1.3,6,0.8,9.6c-0.5,3.6-0.8,7-0.8,10.3v63.9c-0.6,0-0.9-0.1-0.9-0.2c-0.2-0.1-0.2-0.3,0-0.4
		c-0.3,0.7-0.3,1.2-0.1,1.2c0.2,0.1,0.6-0.1,1-0.6v13.7l-0.9-0.9h-1.1v0.9c-0.2,0.2-0.2,0.3-0.2,0.5c-0.2,0.2-0.4,0.2-0.7,0.2
		c-0.2,0.2-0.2,0.4-0.2,0.7c0,0.3,0,0.6-0.1,0.9c-0.1,0.3,0,0.6,0.3,0.9c0.5,0,0.9-0.2,1.2-0.6c0.4-0.4,0.8-0.7,1.2-1
		c0,2.9,0.1,5.6,0.2,8.4c0.1,2.7,0.1,5.3-0.2,7.7c0,2.9-1,5.3-2.9,7.5c-2,2.1-3.9,4.2-5.9,6.3c-1.1,2-2.1,3.7-3.2,5.1
		c-1.1,1.4-2.2,2.8-3.4,4c-1.2-0.3-2.7-0.3-4.4-0.1c-1.7,0.2-3,0.2-3.7-0.1v-1.3c-0.8,0-1.3,0.1-1.5,0.3s-0.5,0.5-0.8,0.8h-39.7
		h-10.6c-0.5-0.3-0.8-0.2-1.2,0.2c-0.3,0.4-0.5,0.3-0.5-0.4c-2.9,0.7-6.2,1-9.9,0.7C719.9,167.4,716.6,167.3,713.7,167.3z
		 M743.3,64.3h-1.6v1.6c0.3-0.5,0.6-0.8,1-0.9C743.1,64.8,743.3,64.6,743.3,64.3z M743.3,34.4c0.3,0.3,0.3,0.5-0.1,0.7
		c-0.4,0.2-0.3,0.5,0.1,0.9c0.8,0,1.2,0.3,1.2,1c0.1,0.7,0.7,0.9,1.9,0.6c0.5,0,0.7-0.3,0.8-0.9c0.1-0.6,0.1-1.1,0.1-1.6
		c-0.8-0.3-1.4-0.4-2-0.3C744.7,34.8,744.1,34.7,743.3,34.4z M749.9,51.3c0.8-1.7,0.6-2.9-0.5-3.6c-1.1-0.8-1.7-1.7-2-2.9l-1.6,1.6
		c0.3,0.5,0.8,0.8,1.4,1c0.6,0.2,0.9,0.7,0.9,1.5c-0.8,0.8-1.4,1.1-2,1.1c-0.6,0-1.5,0.5-2.7,1.4c1.7,0.3,2.9,0.2,3.8-0.5
		C748.1,50.3,749,50.4,749.9,51.3z M748.1,19c-0.8,0-1.2,0.3-1.5,0.9c-0.2,0.6-0.5,1.1-0.8,1.6c0.3,0,0.8-0.2,1.4-0.7
		C747.7,20.4,748.1,19.8,748.1,19z M745.8,69.9c1.1,0,1.6-0.3,1.6-0.9c0-0.5-0.3-0.6-0.8-0.6C746.1,68.5,745.8,69,745.8,69.9z
		 M750.4,45.7c0.5-0.9,0.5-1.5,0-1.8c-0.5-0.3-0.7-0.3-0.7,0v0.7C749.7,44.9,750,45.2,750.4,45.7z M753.7,40.7
		c-0.3,0-0.9-0.2-1.8-0.6c-0.9-0.4-1.4-0.2-1.4,0.6c0.5,0.5,0.9,0.8,1.4,1c0.5,0.2,0.3,0.7-0.5,1.5c0.8-0.5,1.2-0.9,1.5-1.2
		C753.1,41.6,753.4,41.2,753.7,40.7z M753,81.2c-0.5-0.5-0.6-1-0.5-1.6c0.1-0.6,0-0.9-0.5-0.9c-0.3,0.3-0.4,0.8-0.3,1.5
		C751.9,80.8,752.3,81.2,753,81.2z M776.3,35.1c-2.1,0.5-4.5,0.6-7.1,0.5c-2.6-0.1-4.8,0-6.4,0.5c0,17.8,0,34.8,0.1,51.2
		c0.1,16.3,0.3,33.4,0.6,51.2c2.6,0,5.5-0.1,8.8-0.2c3.3-0.1,6-0.6,8.1-1.4l-1.6-23.5c-0.2-2.4-0.5-4.8-0.9-7.1
		c-0.5-2.3-0.7-4.6-0.7-6.7c0-0.1,0.1-0.3,0.2-0.5c0.3-0.3,0.5-0.7,0.5-1.1c0-0.3-0.2-0.5-0.6-0.7c-0.4-0.1-0.2-0.5,0.6-0.9
		c-1.1,0-1.6-0.2-1.6-0.7c0-1.2,0.3-2.6,0.8-4.1c0.5-1.5,0.8-2.9,0.8-4.1c-0.3-3.2-0.8-6.2-1.4-9c-0.6-2.9-0.9-5.7-0.9-8.6
		c0-5.7,0.3-11.3,0.9-16.8C777.1,47.5,777.1,41.6,776.3,35.1z"/>
	<path class="st0" d="M910.1,71.5c-0.2,1.2,0,2.3,0.3,3.3c0.4,1,0.8,2.3,1.2,4c0,2.4-0.2,4.9-0.5,7.6c-0.3,2.6-0.5,5.2-0.5,7.8
		c0,4.4,0,8.8,0,13.3s-0.2,9.4-0.7,14.7c-0.3,3.3-0.5,6.3-0.7,8.8c-0.2,2.6,0.1,5.3,0.7,8.1c0,0.5,0.1,1,0.3,1.7s0.3,1.2,0.3,1.7
		c0,1.2-0.3,2.4-0.8,3.6c-0.5,1.2-0.8,2.4-0.8,3.6c-0.3,2.9-0.2,5.8,0.5,8.8c0.6,3,0.8,6,0.5,8.8c-1.2,0.3-2,0.2-2.4-0.2
		c-0.4-0.5-0.9-0.7-1.7-0.7c-4.1,0-7.8-0.4-11.1-1.1c-3.3-0.8-6.6-1.1-9.9-1.1c-2.9,0.3-5.8,0.7-8.8,1.1c-3,0.5-6,0.3-8.8-0.5
		c-0.3-0.1-0.5-0.5-0.5-1.1c0-0.6-0.1-1.2-0.2-1.9c-0.2-0.7-0.3-1.4-0.6-2c-0.2-0.7-0.6-1.1-1.2-1.2c0.8-0.5,1-1.3,0.8-2.6
		c-0.2-1.3-0.5-2.3-0.8-3.1c0.8-1.2,0.9-2.6,0.6-4.2c-0.4-1.6-0.6-3.4-0.6-5.5c0-1.2,0.1-2.2,0.3-3.1c0.2-0.8,0.3-1.4,0.3-1.7
		c-0.3-1.2-0.8-1.8-1.4-1.9c-0.6-0.1-0.9-0.6-0.9-1.5c3.2-0.8,6.2-1.1,9.3-0.9c3,0.2,5.6,0.2,7.7,0.2c0.8-1.2,1-2.4,0.8-3.7
		c-0.2-1.3,0-1.9,0.8-1.9c-0.8-4.8-1-10.4-0.8-16.8c0.2-6.4,0.2-12.6-0.1-18.6c-0.5-9.9-0.9-19.5-1.4-28.8
		c-0.5-9.3-0.5-18.2-0.2-26.8c-2.6-0.8-4.7-1.2-6.6-1.2c-1.8-0.1-3.6,0-5.3,0.1c-1.7,0.2-3.5,0.4-5.4,0.7c-1.9,0.3-4.2,0.5-6.9,0.5
		c-0.3,8.4-0.3,16.7,0.1,24.9c0.4,8.1,0.8,16.2,1.2,24.1c0.5,7.9,0.8,15.7,1,23.5c0.2,7.8,0,15.6-0.8,23.4c0.5,0.6,1.1,1,1.8,1.2
		c0.8,0.2,1.5,0.5,2.3,0.7c0.8,0.2,1.4,0.6,2,1c0.6,0.5,1,1.1,1.1,2c-0.3,0-0.8-0.1-1.4-0.3c-0.6-0.2-0.9-0.1-0.9,0.3
		c0.3,2.4,0.6,5,1,7.9c0.4,2.9,0.3,6.1-0.3,9.7c0,0.5-0.1,1.1-0.3,1.8c-0.2,0.8-0.3,1.5-0.3,2.3c0,0.8,0.4,1.5,1.1,2.4
		c0.8,0.8,1.1,1.6,1.1,2.4c-5.7,0.8-11.8,0.9-18.1,0.6c-6.3-0.4-12.1-0.6-17.4-0.6c-1.7-16-2.7-31.8-3.1-47.5
		c-0.4-15.7-0.7-31.3-1-46.8c-0.2-6.5,0.3-13.1,1.5-19.8c1.1-6.7,1.5-13.3,1-19.8c-0.3-4.4-0.8-8.5-1.6-12.3
		c-0.8-3.8-0.8-7.8,0-11.9c10.1,0,20.8,0,32.1-0.1c11.3-0.1,22.1-0.3,32.5-0.6c3.2-0.5,6.3-0.6,9.5-0.3s6.2,1.2,9,2.8
		c0.6,2.4,0.8,4.9,0.7,7.3c-0.2,2.5-0.4,5-0.7,7.5c-0.3,2.5-0.5,5-0.7,7.5c-0.2,2.5,0.1,4.9,0.7,7.3c0,0.9,0.3,1.8,0.9,2.6
		c0.6,0.8,1.1,1.8,1.4,3.1c0.5,2.1,0.2,4.3-0.7,6.7c-0.9,2.3-1.2,4.7-0.9,7.1c0,0.8,0.3,1.4,0.8,2c0.5,0.6,0.8,1.3,0.8,2
		c0,1.7-0.2,3.3-0.6,4.9C909.8,68.2,909.8,69.8,910.1,71.5z M833,115.8c0,0.3,0.3,0.3,1,0.1c0.7-0.2,0.9-0.6,0.6-1
		C833.6,114.9,833,115.2,833,115.8z M836.2,86.6c0.3-0.3,0.6-0.5,1-0.7c0.4-0.1,0.6-0.5,0.6-0.9c-0.8-0.3-1.3-0.2-1.7,0.3
		C835.7,85.9,835.7,86.3,836.2,86.6z M839.4,36c0-0.8-0.3-1.3-1-1.7c-0.7-0.4-1.4-0.3-2.1,0.1c0,0.8,0.3,1.2,1,1.4
		C837.9,35.9,838.6,36,839.4,36z M835.7,44.7v1.6h1.6C837.3,45.2,836.8,44.7,835.7,44.7z M837.8,49.5c-0.5,0.5-0.2,0.7,0.8,0.7
		c1,0,1.2-0.2,0.8-0.7c0-0.3-0.2-0.4-0.5-0.2C838.6,49.5,838.2,49.5,837.8,49.5z M843.4,15.9l-3.2,3.8c0.8,0,1.7-0.5,2.7-1.4
		C844,17.4,844.2,16.6,843.4,15.9z M841.8,28.7c0,0.3,0.1,0.6,0.2,1c0.1,0.4,0.6,0.6,1.4,0.6c0.5-0.5,0.5-0.9,0.1-1.5
		C843.2,28.3,842.6,28.3,841.8,28.7z M843.4,78.7c0.5,0.3,1,0.3,1.6,0.1c0.6-0.2,0.9-0.6,0.9-1c-0.8,0-1.3-0.4-1.6-1.1
		c-0.3-0.8-0.8-1.1-1.6-1.1c-0.5,0.8-0.3,1.4,0.3,1.8C843.8,77.8,843.9,78.2,843.4,78.7z M885.5,147.8c0-0.8,0.1-1.3,0.3-1.6
		c0.2-0.3,0.3-0.8,0.3-1.6c-0.8-0.3-1.4-0.3-2,0.1c-0.6,0.4-1.5,0.3-2.7-0.1c0.3,0.8,0.4,1.2,0.2,1.5c-0.2,0.2-0.2,0.6-0.2,1
		c0.8,0,1.4,0,2,0.1C884,147.4,884.7,147.5,885.5,147.8z M889.5,135.9c0.3-0.5,0.4-0.9,0.2-1.2c-0.2-0.4-0.2-0.8-0.2-1.2
		c-1.2,0-1.8,0.5-1.8,1.6c0.5,0,0.8,0.2,0.9,0.5C888.8,135.7,889.1,135.9,889.5,135.9z M895.9,152.3h-1.6c0,0.5,0.3,0.8,0.8,0.9
		C895.6,153.3,895.9,153,895.9,152.3z"/>
	<path class="st0" d="M944.5,4.1c13.2-0.8,26.4-1.5,39.4-2.3c13-0.8,25.6-1.4,37.8-1.8c-0.2,2.4-0.4,5-0.8,7.8
		c-0.4,2.8-0.7,5.6-0.9,8.4c-0.2,2.8-0.3,5.6-0.2,8.4c0.1,2.8,0.5,5.4,1.2,7.8c-2.1,0.6-4.5,1-7.2,1.1c-2.7,0.2-5.6,0.2-8.6,0.1
		c-3-0.1-6.1-0.2-9.1-0.5c-3.1-0.2-6.1-0.5-8.9-0.8h-27.1c-0.3,5.3-0.2,10.4,0.2,15.3c0.5,5,0.7,10.6,0.7,16.9l54.5,2.3l4.1,32.2
		c0.5,0.8,0.3,1.1-0.6,1.1c-0.8,0-1.2,0.5-1,1.4c0.3,6,0.3,11.7-0.1,17c-0.4,5.3-0.6,10.6-0.6,15.9c0,1.4,0.1,3.6,0.2,6.6
		c0.1,3.1,0.2,6.3,0.2,9.6c0,3.3-0.2,6.4-0.4,9.2c-0.3,2.9-0.9,4.8-1.8,5.9c-0.5,0.5-2,0.8-4.6,1.1c-2.6,0.3-5.6,0.5-8.9,0.7
		c-3.3,0.1-6.5,0.2-9.6,0.2c-3.1,0-5.3-0.1-6.6-0.2c0-0.7-0.3-1.1-0.9-1.1c-0.6,0-1.1,0-1.4,0h-0.9h-0.9v1l0.9,0.2
		c-2-0.3-3.8-0.4-5.2-0.3c-1.5,0.1-3,0.1-4.6,0.1h3v-0.9c0-0.7-0.2-1.4-0.6-2.1c-0.4-0.7-1-1-1.7-1h-1.1l-0.9,0.8l-0.6,0.7v0.9v0.6
		h0.6h1.4v1.2c-4.2-0.1-8.2-0.2-12-0.2c-3.8,0-7.5,0-11.2,0c-3.7,0-7.4,0-11.3,0.1c-3.8,0.1-7.9,0.1-12.3,0.1c0-5.3,0-10.8,0.1-16.6
		c0.1-5.8,0.3-10.7,0.6-14.8c1.2,0.5,2.6,0.5,4.1,0c1.5-0.5,3.1-0.5,4.7,0c1.2,0,2.1,0.3,2.8,0.8c0.7,0.5,1.6,0.8,2.8,0.8
		c1.7,0.5,3.3,0.5,5,0.2c1.7-0.3,3.5-0.4,5.6-0.2c5.7,0.3,11.7,0.7,18.1,1.1c6.3,0.5,12.3,0.1,18.1-1.1c0-6.5-0.3-12.7-0.9-18.7
		c-0.6-6-1.1-12.6-1.4-19.9c-9.5,0.3-19.2,0-29-0.8c-9.9-0.8-19.5-1.6-29-2.4c0-5.3-0.5-10.6-1.4-16c-0.9-5.4-1-10.5-0.2-15.4
		c0-0.9,0.1-1.7,0.3-2.5c0.2-0.8,0.3-1.3,0.3-1.6c0.1-0.9,0.3-2.7,0.3-5.5c0.1-2.8,0.1-6,0.1-9.6c0-3.6,0-7.4-0.1-11.5
		c-0.1-4.1-0.1-7.9-0.1-11.5s0-6.8-0.1-9.5c-0.1-2.7-0.1-4.6-0.1-5.6c0.1-1.4,0.6-2.2,1.4-2.5c0.8-0.3,1.8-0.4,3.2-0.2
		c1.4,0.2,3.1,0.3,5.3,0.3C938.7,4.9,941.4,4.7,944.5,4.1z M935.9,61.7c0.5,0.3,0.9,0.4,1.5,0.3c0.5-0.1,0.6-0.5,0.1-1.2
		C936.4,60.8,935.9,61.1,935.9,61.7z M940.1,72.1c0,0.5-0.2,0.8-0.5,1c-0.3,0.2-0.5,0.7-0.5,1.5c0.8-0.5,1.2-0.6,1.5-0.5
		c0.2,0.2,0.6,0,1-0.5c0-0.3-0.2-0.4-0.5-0.3c-0.3,0.1-0.5,0-0.5-0.3v-0.5C940.7,72.3,940.5,72.1,940.1,72.1z M939.9,76.2
		c-0.5,0.8-0.2,1.1,0.9,1.1c1.1,0,1.6-0.4,1.6-1.1c-0.9-0.3-1.5-0.4-1.7-0.2C940.5,76.1,940.2,76.2,939.9,76.2z M943.1,74.6
		c0.5-0.5,0.8-0.9,1.1-1.4c0.3-0.5,0.5-1.1,0.5-1.8c-0.3-0.8-0.8-0.8-1.5-0.2c-0.7,0.6-1.2,0.9-1.7,0.9c0.5,0.5,0.6,1,0.6,1.6
		C942,74.3,942.3,74.6,943.1,74.6z M942.7,68.1v1.8c0.5,0,1,0,1.7-0.1c0.7-0.1,1.2-0.3,1.5-0.8c-0.8,0-1.3-0.1-1.6-0.5
		C944,68.2,943.5,68.1,942.7,68.1z M946.2,74.6c0,0.6,0.6,0.9,1.8,0.9C948.1,74.9,947.5,74.6,946.2,74.6z M961.6,83.4
		c-0.3,0-0.8,0-1.4,0.1c-0.6,0.1-0.9,0.3-0.9,0.8c0.3,0.3,0.8,0.4,1.4,0.3C961.3,84.6,961.6,84.2,961.6,83.4z M964.8,65.8
		c-0.3,0-0.7-0.1-1.1-0.3c-0.5-0.2-0.8-0.1-1.1,0.3c-0.5,0.8-0.2,1.1,0.8,1.1C964.3,66.9,964.8,66.6,964.8,65.8z M964.8,15
		c0.6,0,0.9-0.3,0.9-0.9C965.1,13.6,964.8,13.9,964.8,15z"/>
	<path class="st0" d="M67.8,206.3h0.9v-3.2c3.6,0,7.2,0,10.9-0.1c3.7-0.1,11.1-0.8,11.1-0.8v32.3v42c-3.4,0.5-7.6,0.7-12.1,0.8
		c-4.5,0.1-9.1,0-13.7-0.1c-4.6-0.1-9.2-0.3-13.7-0.5c-4.5-0.1-8.7-0.2-12.4-0.2c-1.1,5.3-1.6,10.6-1.6,16c0,5.4,0.1,10.9,0.5,16.4
		c0.3,5.5,0.6,11.1,0.8,16.7s0,11.3-0.6,16.8c-0.3,3.2-0.6,6.3-0.9,9.3c-0.3,3-0.2,6.3,0.2,9.9c-2.4,0-5.1,0-8.1-0.1
		c-3-0.1-6.1-0.1-9.4-0.1c-3.2,0-6.5,0.1-9.7,0.2c-3.2,0.2-6.3,0.5-9.3,0.9v-12.9c0.2-2.1,0-4.3-0.3-6.6C0.1,341,0,338.6,0,336
		c0-0.8,0.1-1.8,0.5-3.3c0.3-1.4,0.5-2.7,0.5-4c0.5-1.7,0.7-3.3,0.8-4.9c0.1-1.6,0.1-3.2,0.1-4.9c0.5,0.6,1,0.9,1.6,0.9
		c0.8,0,1.3-0.1,1.7-0.2c0.4-0.1,0.6-0.6,0.6-1.5H5c0-0.5-1.6-1-1.6-1H1.8c0,0,0.1-19-0.7-28.8c-0.8-9.9-0.5-19.8,0.7-29.7
		c-1.2-4.1-1.5-8.6-0.8-13.7c0.7-5,1.2-10.4,1.5-16.2c0.3-4.5,0.3-8.9,0.1-13.2s-0.5-8.5-0.8-12.5c3.6,0,7.6,0,12-0.1
		c4.4-0.1,9-0.3,13.8-0.8c0.5,0,0.7,0.2,0.2,0.5v0.5c0.2,0,0,0.2-0.2,0.6c-0.2,0.4-0.5,0.7-0.9,1c-0.2,0.2-0.2,0.3,0,0.5
		c0,0.6,0.3,1,0.9,1.1h0.7h0.5c0.3,0,0.5-0.2,0.5-0.7c0.3,0,0.4-0.2,0.2-0.6c-0.2-0.4-0.6-1-0.6-1v-0.9c0,0,3.7-0.7,5.3-0.8
		c1.6-0.1,3.4-0.1,5.5-0.1h9.7c0.8-0.1,1.4,0.1,2,0.5c0.6,0.4,1.3,0.8,2,1.2c1.7,0,3.4,0,5.2-0.1c1.8-0.1,3.5-0.3,5.2-0.8v0.9
		c-0.5,0.5-0.7,1-0.7,1.6l0.7,0.7l0.9-1h0.7h0.9C67.3,205.6,67.8,205.8,67.8,206.3z M7.2,341.7c1.2,0,1.8-0.2,1.8-0.7
		c-0.9,0-1.4,0-1.6,0.1C7.3,341.2,7.2,341.4,7.2,341.7z M9.7,254c0.8-0.5,1.4-0.8,1.8-1.1c0.5-0.3,0.7-1.1,0.7-2.3
		c-1.2,0-1.9,0.4-2.1,1.1C9.8,252.5,9.7,253.2,9.7,254z M21,283.8c1.2,0.3,2,0,2.5-0.9c0.5-0.9,0.7-1.7,0.7-2.5
		c-1.2,0-1.8,0.3-1.9,1C22.2,282.1,21.8,282.9,21,283.8z M21,308.7c0.8,0,1.2-0.2,1.4-0.6c0.1-0.4,0.2-1,0.2-1.9
		C21.5,306.2,21,307,21,308.7z M21,311.8c0.5,0,0.8-0.3,1-0.8c0.2-0.5,0.2-0.8-0.1-0.8c0,0.5-0.2,0.8-0.5,0.9
		C21.2,311.3,21,311.5,21,311.8z M22.6,308.7c0.8,0,1.2-0.1,1.4-0.5c0.1-0.3,0.2-0.7,0.2-1.1c-0.3,0-0.5,0.2-0.7,0.6
		C23.4,308,23.1,308.4,22.6,308.7z M24.2,274.8c0.5,0.5,0.8,0.5,1.1,0.2c0.3-0.3,0.2-0.6-0.2-0.9C24.5,274.1,24.2,274.3,24.2,274.8z
		 M33.2,268.4c0.3,0,0.7-0.2,1.1-0.6c0.5-0.4,0.8-0.7,1.1-1c-0.3,0-0.7,0-1.2-0.1c-0.5-0.1-0.6-0.3-0.3-0.8c-0.3,0-0.5,0-0.7,0.1
		c-0.2,0.1-0.5,0.3-0.9,0.8C32.9,266.9,33.2,267.4,33.2,268.4z M58.3,244.3c0.5-2.1,0.7-4.3,0.8-6.6c0.1-2.3,0.1-4.7,0.1-7.2
		c-3.6-0.3-7.5-0.5-11.6-0.7c-4.1-0.1-8.1,0.4-11.9,1.6v10.4c3.8,0.8,7.7,1.4,11.8,2C51.6,244.4,55.2,244.6,58.3,244.3z M39.5,249.9
		c0.5,0.3,1,0.4,1.6,0.3c0.6-0.1,0.9-0.5,0.9-1.2C40.4,249,39.5,249.3,39.5,249.9z M43.8,261.9c0.5,0,0.9,0.1,1.2,0.3
		c0.4,0.2,0.8,0.1,1.2-0.3c0-0.3-0.3-0.4-0.8-0.3c-0.5,0.1-0.8,0-0.8-0.3v-0.9C44.1,260.9,43.8,261.4,43.8,261.9z M43.6,264.4
		c0,0.5,0.5,0.8,1.5,0.9c1,0.2,1.3-0.1,1-0.9c-0.5-0.5-0.8-0.6-1-0.3C44.9,264.3,44.4,264.4,43.6,264.4z M47.7,261.9
		c1.1,0,1.6-0.8,1.6-2.3c-0.8-0.9-1.5-1.1-2.3-0.6c-0.8,0.5-1.4,0.9-1.8,1.2c0.8,0,1.2,0.4,1.2,1.1
		C46.5,262.2,46.9,262.3,47.7,261.9z M47.7,256.2v0.9c0,0.3,0.4,0.5,1.2,0.5c0.8,0,1.2-0.1,1.2-0.5c-0.5,0-0.8-0.1-1-0.5
		C49,256.4,48.5,256.2,47.7,256.2z M50.8,262.8c-0.5,0.5-0.2,0.7,0.9,0.7C51.8,263,51.5,262.8,50.8,262.8z M63.7,272.5
		c0,0.3,0.4,0.3,1.1,0.1c0.8-0.2,0.9-0.6,0.5-1c-0.2-0.1-0.5-0.2-0.9-0.2C64,271.4,63.7,271.8,63.7,272.5z M66.2,254
		c0,0.3,0.4,0.5,1.2,0.5c0.8,0,1.2-0.1,1.2-0.5c-0.5,0-0.8-0.1-0.9-0.2c-0.3,0-0.6,0-0.8-0.1C66.8,253.6,66.5,253.7,66.2,254z"/>
	<path class="st0" d="M175.8,328.3h0.3c0.3,0,0.4,0.2,0.4,0.7l5.6,34.3h-22.6c0,0-3.7-9.3-4.7-14.2c-1.1-4.8-2.4-9.4-4.1-13.8
		c-4.4,0-9.2-0.1-14.6-0.5c-5.4-0.3-10.4-0.5-15.3-0.5c-2.1,4.4-3.5,9-4.2,13.9c-0.7,4.9-1.5,9.8-2.4,14.6c-3.9,0-8,0.2-12.2,0.6
		c-4.2,0.4-8.7,0.2-13.6-0.6l5.6-38.9c0.8,0.8,1.8,0.8,3.2,0c-0.8-0.5-1.4-0.6-1.8-0.5c-0.5,0.2-0.9,0-1.4-0.5
		c1.7-9.6,3.1-19.5,4.2-29.6c1.1-10.1,2.4-20.3,4-30.7l2.5-17.9c0.3-1.7,0.9-3,1.8-4c0.9-1,1.4-2.3,1.4-4c0.8-2.6,1.3-5.2,1.6-7.8
		c0.3-2.6,0.8-5.2,1.6-7.6c1.2-3.6,2.2-7.2,2.9-10.8c0.8-3.6,1.1-7.2,1.1-11.5h6.6c-0.5,1-0.8,1.1-0.9,0.9c-0.2-0.1-0.5-0.2-0.9-0.2
		c0,0.8,0.5,1,1.5,0.8c1-0.2,1.8-0.5,2.6-0.8c0.5,0,0.6,0.2,0.5,0.5c-0.2,0.3,0,0.7,0.5,1.1c0.3-0.5,0.6-0.8,0.9-0.9
		c0.3-0.1,0.2-0.4-0.2-1.4h16.3c2.9,0.2,5-0.1,6.6-0.2c1.5-0.1,2.6,1.2,3.2,4.1l2.3,12c0.8,1.7,1.4,3.4,1.9,5.3
		c0.5,1.9,1,3.7,1.5,5.3c0,0.3-0.2,0.4-0.5,0.3c-0.3-0.1-0.5,0-0.1,0.3v0.9c-0.3-0.6-0.6-0.9-1.2-0.9c-0.5,0-0.8,0.5-0.8,0.5v0.5
		l-1-0.9v0.9c0,0-0.5,0.1-0.8,0.2c-0.4,0.2-0.6,0.6-1.2,1.4v1.4h1.5h0.7l-0.7,0.2l0.5-0.7v0.7c-0.3,0.8-1,1.6-1,1.6v0.9l2-0.9v0.5
		c0,0,0.3,0.5,0.8,0.5c0.9,0,1.4-0.3,1.6-0.9c0.1-0.6,0.2-1.1-0.3-1.6v-0.2h-1.9h0.7c0.5-0.9,0.9-1.2,1.2-1.4
		c0.4-0.1,0.6-0.4,0.6-0.7l1.6,5.4c2.7,9.5,4.9,19.2,6.4,29.2c1.6,9.9,3.4,19.9,5.5,29.8c0,1.1-0.2,1.6-0.7,1.6
		c0.8,1.2,1.4,2.7,1.8,4.5c0.5,1.8,0.9,3.5,1.4,5.2c0.5,3.6,1,7.3,1.6,11.1c0.6,3.8,0.9,7.3,0.9,10.6
		C176.6,326.5,175.8,328.3,175.8,328.3z M122.5,206.3l-0.7,1h1.6h2.3v-1l1,0.9v-1.9h-1v-0.6l-0.8,0.6h-0.9h-0.5
		c-0.2,0.3-0.3,0.4-0.5,0.6C123,206,122.8,206.1,122.5,206.3z M127.5,303.9c2,0.3,4.8,0.4,8.5,0.2c3.7-0.1,6.7-0.2,9.2-0.2
		c-1.2-7.2-2.5-14.4-3.7-21.5c-1.3-7.1-3-13.6-5.1-19.7c-1.7,6.5-3.4,13.1-5.1,20C129.5,289.6,128.2,296.7,127.5,303.9z
		 M159.6,348.3h1.8h0.7l2.5,1.5l-0.9-2.5c-0.5-0.5-1.2-0.7-2.3-1h-0.9h-0.9l-1.8-0.5v0.9c0.7,0.8,1,1.2,1.1,1.4
		C159,348.1,159.3,348.2,159.6,348.3z"/>
	<path class="st0" d="M276.2,264.4c-1.7-0.5-3.1-0.5-4.4,0c-1.3,0.5-2.8,0.5-4.4,0c1.2,8.1,2.7,16.3,4.5,24.5
		c1.8,8.2,3.7,16.5,5.5,24.7c1.9,8.3,3.7,16.5,5.5,24.7c1.8,8.2,4.5,24.9,4.5,24.9h-29.1l-7.2-23.5c-1.4-4.4-2.7-8.5-4.1-12.4
		c-1.4-3.9-2.4-7.8-3.2-11.8c0-1.2-0.1-2.1-0.2-2.7c-0.2-0.6-0.1-1.1,0.2-1.4c0-0.5-0.3-0.8-0.8-1c-0.5-0.2-0.8-0.7-0.8-1.5
		c-1.2-6.9-2.5-14.1-3.7-21.4c-1.3-7.3-3-14.4-5.1-21.4h-7.2c0,8.5,0.3,16.2,0.9,23.2c0.6,7,1.1,14.4,1.4,22.1
		c0.5,9.1,0.5,17.7,0.1,26c-0.4,8.3-1.2,16.5-2.4,24.7h-9.7h0.2v-2h-0.2h-0.9h-0.7c-0.6-0.1-0.9,0.1-0.9,0.4
		c-0.2,0.2-0.3,0.5-0.3,0.5v1.2h1.2h-5.7c-1.7-0.5-3.4-0.4-5.2-0.2c-1.8,0.2-3.3,0.1-4.5-0.3c-1.4-0.8-2.2-2-2.6-3.6
		c-0.4-1.7-0.5-3.5-0.5-5.7c0.1-2.1,0.2-4.3,0.5-6.4c0.2-2.2,0.3-4.2,0.1-6c0-1.7-0.5-3.2-1.4-4.7c-0.9-1.5-1.5-2.9-1.8-4.1
		c-0.6-2.4-0.5-5.3,0.3-8.6c0.8-3.3,1.2-6.3,1.2-9c0-6.3-0.2-12-0.5-17.1c-0.3-5-0.5-10.4-0.5-16.2c0-3.2-0.1-6.3-0.2-9.5
		c-0.2-3.2-0.1-6.2,0.2-9c0-0.8,0-1.3-0.1-1.6c-0.1-0.3,0.3-0.8,1-1.6c0-0.5-0.2-0.6-0.7-0.6c-0.5,0.1-0.5-0.3-0.2-1
		c0-7.2,0-15.8,0.1-25.7c0.1-9.9,0.3-19.8,0.8-29.9c7.2,0.2,14.7,0.2,22.4,0c7.7-0.1,15.3-0.3,22.9-0.5c7.6-0.1,15-0.3,22.3-0.5
		c7.2-0.1,14-0.1,20.3,0c-0.8,3.3-0.6,6.3,0.3,8.9c1,2.6,1.7,5.6,2.1,8.9c0.3,3.2,0.3,6.6,0,10.4c-0.3,3.8-0.3,7.2,0,10.4
		c0.1,2.4,0.6,5,1.4,7.8c0.8,2.8,1.2,5.4,1.5,7.9c0.2,2.5,0,4.7-0.7,6.6c-0.7,1.9-2.2,3.1-4.6,3.7c-1.2,0.3-2.4,0.2-3.6-0.2
		C278.6,264.6,277.4,264.4,276.2,264.4z M203.6,217.6c1.2,0.5,2.1,0.5,2.6,0c0.5-0.5,0.8-0.9,0.8-1.5c0-0.5-0.3-0.8-0.8-0.9
		c-0.5-0.1-1.2,0.5-1.9,1.7c-0.3,0-0.6-0.1-0.9-0.2C203.1,216.5,203.2,216.8,203.6,217.6z M203.7,224.1v0.7c0.3,0,0.6,0.1,1,0.2
		c0.4,0.2,0.6-0.1,0.6-0.9c0-0.5-0.2-0.6-0.6-0.3C204.4,224,204,224.1,203.7,224.1z M254.8,237c0.5-2.1,0.7-4,0.8-5.7
		c0.1-1.7,0.1-3.5,0.1-5.6c-3.3-0.5-6.7-0.6-10.3-0.3c-3.5,0.2-7.1,0.3-10.7,0.3c-0.5-0.5-0.6-1-0.6-1.6c0.1-0.6-0.3-0.9-1-0.9
		c-0.5,0.8-0.5,1,0,0.7c0.5-0.3,0.7-0.2,0.7,0.2v0.7c-1.7,0.8-3.1,1.1-4.4,1.1c-1.3,0-2.8,0.2-4.4,0.5c0,1.7,0.1,3.4,0.5,5.3
		c0.3,1.9,0.5,3.7,0.5,5.3C235.9,237.6,245.6,237.6,254.8,237z"/>
	<path class="st0" d="M387.8,328.3h0.3c0.3,0,0.4,0.2,0.4,0.7l5.6,34.3h-22.6c0,0-3.7-9.3-4.7-14.2c-1.1-4.8-2.4-9.4-4.1-13.8
		c-4.4,0-9.2-0.1-14.6-0.5c-5.3-0.3-10.4-0.5-15.3-0.5c-2.1,4.4-3.5,9-4.2,13.9c-0.7,4.9-1.5,9.8-2.4,14.6c-3.9,0-8,0.2-12.2,0.6
		c-4.2,0.4-8.7,0.2-13.6-0.6l5.7-38.9c0.8,0.8,1.8,0.8,3.2,0c-0.8-0.5-1.4-0.6-1.8-0.5c-0.5,0.2-0.9,0-1.4-0.5
		c1.7-9.6,3.1-19.5,4.2-29.6c1.1-10.1,2.4-20.3,4-30.7l2.5-17.9c0.3-1.7,0.9-3,1.8-4c0.9-1,1.4-2.3,1.4-4c0.8-2.6,1.3-5.2,1.6-7.8
		c0.3-2.6,0.8-5.2,1.6-7.6c1.2-3.6,2.2-7.2,2.9-10.8c0.8-3.6,1.1-7.2,1.1-11.5h6.6c-0.5,1-0.8,1.1-0.9,0.9c-0.2-0.1-0.5-0.2-0.9-0.2
		c0,0.8,0.5,1,1.5,0.8c1-0.2,1.8-0.5,2.6-0.8c0.5,0,0.6,0.2,0.5,0.5c-0.2,0.3,0,0.7,0.5,1.1c0.3-0.5,0.6-0.8,0.9-0.9
		c0.3-0.1,0.2-0.4-0.2-1.4h16.3c2.9,0.2,5-0.1,6.6-0.2c1.5-0.1,2.6,1.2,3.2,4.1l2.3,12c0.8,1.7,1.4,3.4,1.9,5.3
		c0.5,1.9,1,3.7,1.5,5.3c0,0.3-0.2,0.4-0.5,0.3c-0.3-0.1-0.5,0-0.1,0.3v0.9c-0.4-0.6-0.7-0.9-1.3-0.9c-0.5,0-0.7,0.5-0.7,0.5v0.5
		l-1-0.9v0.9c0,0-0.5,0.1-0.9,0.2c-0.4,0.2-0.6,0.6-1.1,1.4v1.4h1.5h0.7l-0.7,0.2l0.5-0.7v0.7c-0.3,0.8-1,1.6-1,1.6v0.9l2-0.9v0.5
		c0,0,0.3,0.5,0.7,0.5c0.9,0,1.4-0.3,1.6-0.9c0.1-0.6,0.2-1.1-0.3-1.6v-0.2h-1.9h0.7c0.5-0.9,0.9-1.2,1.2-1.4
		c0.4-0.1,0.6-0.4,0.6-0.7l1.6,5.4c2.7,9.5,4.9,19.2,6.4,29.2c1.6,9.9,3.4,19.9,5.5,29.8c0,1.1-0.2,1.6-0.7,1.6
		c0.8,1.2,1.4,2.7,1.8,4.5c0.5,1.8,0.9,3.5,1.4,5.2c0.5,3.6,1,7.3,1.6,11.1c0.6,3.8,0.9,7.3,0.9,10.6
		C388.6,326.5,387.8,328.3,387.8,328.3z M334.5,206.3l-0.7,1h1.6h2.4v-1l1,0.9v-1.9h-1v-0.6l-0.8,0.6h-0.9h-0.5
		c-0.2,0.3-0.3,0.4-0.5,0.6C335,206,334.8,206.1,334.5,206.3z M339.5,303.9c2,0.3,4.8,0.4,8.5,0.2c3.7-0.1,6.7-0.2,9.2-0.2
		c-1.2-7.2-2.5-14.4-3.7-21.5c-1.3-7.1-3-13.6-5.1-19.7c-1.7,6.5-3.4,13.1-5.1,20C341.4,289.6,340.2,296.7,339.5,303.9z
		 M371.5,348.3h1.8h0.7l2.5,1.5l-0.9-2.5c-0.5-0.5-1.2-0.7-2.3-1h-0.9h-0.9l-1.8-0.5v0.9c0.7,0.8,1,1.2,1.1,1.4
		C371,348.1,371.2,348.2,371.5,348.3z"/>
	<path class="st0" d="M499.5,199.1c13.2-0.8,26.4-1.5,39.4-2.3c13-0.8,25.6-1.4,37.8-1.8c-0.2,2.4-0.4,5-0.8,7.8
		c-0.4,2.8-0.7,5.6-0.9,8.4c-0.2,2.8-0.3,5.6-0.2,8.4c0.1,2.8,0.5,5.4,1.2,7.8c-2.1,0.6-4.5,1-7.2,1.1c-2.7,0.2-5.6,0.2-8.6,0.1
		c-3-0.1-6.1-0.2-9.1-0.5c-3.1-0.2-6.1-0.5-8.9-0.8h-27.1c-0.3,5.3-0.2,10.4,0.2,15.3c0.5,5,0.7,10.6,0.7,16.9l54.5,2.3l4.1,32.2
		c0.5,0.8,0.3,1.1-0.6,1.1c-0.8,0-1.2,0.4-1,1.4c0.3,6,0.3,11.7-0.1,17c-0.4,5.3-0.6,10.6-0.6,15.9c0,1.4,0.1,3.6,0.2,6.6
		c0.1,3.1,0.2,6.3,0.2,9.6c0,3.3-0.2,6.4-0.4,9.2c-0.3,2.9-0.9,4.8-1.8,5.9c-0.5,0.5-2,0.8-4.6,1.1c-2.6,0.3-5.6,0.5-8.9,0.7
		c-3.3,0.1-6.5,0.2-9.6,0.2c-3.1,0-5.3-0.1-6.6-0.2c0-0.7-0.3-1.1-0.9-1.1c-0.6,0-1.1,0-1.4,0h-0.9h-0.9v1l0.9,0.2
		c-2-0.3-3.8-0.4-5.2-0.3c-1.5,0.1-3,0.1-4.6,0.1h3v-0.9c0-0.7-0.2-1.4-0.6-2.1c-0.4-0.7-1-1-1.7-1h-1.1l-0.9,1.2l-0.6,0.7v0.9v0.2
		h0.6h1.4v1.2c-4.2-0.1-8.2-0.2-12-0.2c-3.8,0-7.5,0-11.2,0c-3.7,0-7.4,0-11.3,0.1c-3.8,0.1-7.9,0.1-12.3,0.1c0-5.3,0-10.8,0.1-16.6
		c0.1-5.8,0.3-10.7,0.6-14.8c1.2,0.5,2.6,0.5,4.1,0c1.5-0.5,3.1-0.5,4.7,0c1.2,0,2.1,0.3,2.8,0.8c0.7,0.5,1.6,0.8,2.8,0.8
		c1.7,0.5,3.3,0.5,5,0.2c1.7-0.3,3.5-0.4,5.6-0.2c5.7,0.3,11.7,0.7,18.1,1.1c6.3,0.5,12.3,0.1,18.1-1.1c0-6.5-0.3-12.7-0.9-18.7
		c-0.6-6-1.1-12.6-1.4-19.9c-9.5,0.3-19.2,0-29-0.8c-9.9-0.8-19.5-1.6-29-2.4c0-5.3-0.5-10.6-1.4-16c-0.9-5.4-1-10.5-0.2-15.4
		c0-0.9,0.1-1.7,0.3-2.5c0.2-0.8,0.3-1.3,0.3-1.6c0.1-0.9,0.3-2.7,0.3-5.5c0.1-2.8,0.1-6,0.1-9.6c0-3.6,0-7.5-0.1-11.5
		c-0.1-4.1-0.1-7.9-0.1-11.5c0-3.6,0-6.8-0.1-9.5c-0.1-2.7-0.1-4.6-0.1-5.6c0.1-1.4,0.6-2.2,1.4-2.5c0.8-0.3,1.8-0.4,3.2-0.2
		c1.4,0.2,3.1,0.3,5.3,0.3C493.7,199.9,496.4,199.7,499.5,199.1z M490.9,257.1c0.5,0.3,0.9,0.4,1.5,0.3c0.5-0.1,0.6-0.5,0.1-1.2
		C491.4,256.2,490.9,256.5,490.9,257.1z M495.1,267.5c0,0.5-0.2,0.8-0.5,1c-0.3,0.2-0.5,0.7-0.5,1.5c0.8-0.5,1.2-0.6,1.5-0.5
		c0.2,0.2,0.6,0,1-0.5c0-0.3-0.2-0.4-0.5-0.3c-0.3,0.1-0.5,0-0.5-0.3V268C495.7,267.7,495.5,267.5,495.1,267.5z M494.9,271.6
		c-0.5,0.8-0.2,1.1,0.9,1.1c1.1,0,1.6-0.4,1.6-1.1c-0.9-0.3-1.5-0.4-1.7-0.2C495.5,271.5,495.2,271.6,494.9,271.6z M498.1,270
		c0.5-0.5,0.8-0.9,1.1-1.4c0.3-0.5,0.5-1.1,0.5-1.8c-0.3-0.8-0.8-0.8-1.5-0.2c-0.7,0.6-1.2,0.9-1.7,0.9c0.5,0.5,0.6,1,0.6,1.6
		C497,269.7,497.3,270,498.1,270z M497.7,263.5v1.8c0.5,0,1,0,1.7-0.1c0.7-0.1,1.2-0.3,1.5-0.8c-0.8,0-1.3-0.1-1.6-0.5
		C499,263.6,498.5,263.5,497.7,263.5z M501.3,270c0,0.6,0.6,0.9,1.8,0.9C503.1,270.3,502.5,270,501.3,270z M516.6,278.8
		c-0.3,0-0.8,0-1.4,0.1c-0.6,0.1-0.9,0.3-0.9,0.8c0.3,0.3,0.8,0.4,1.4,0.3C516.3,280,516.6,279.6,516.6,278.8z M519.8,261.2
		c-0.3,0-0.7-0.1-1.1-0.3c-0.5-0.2-0.8-0.1-1.1,0.3c-0.5,0.8-0.2,1.1,0.8,1.1C519.3,262.3,519.8,262,519.8,261.2z M519.8,210.4
		c0.6,0,0.9-0.3,0.9-0.9C520.1,209,519.8,209.3,519.8,210.4z"/>
	<path class="st0" d="M671.5,355.6c0,1.7,0.2,3.1,0.6,4.3c0.4,1.2,0.2,2.2-0.6,2.9c-4.1,0-8.2,0-12.3,0.1c-4.1,0.1-7.8-0.3-11-1
		c0-0.5-0.3-0.7-0.9-0.7h-0.9h-0.7v0.7c-0.6,0.6-1.7,0.9-3.2,0.9c-0.5-0.5-1.1-0.5-2-0.2c-0.9,0.3-1.4,0.1-1.4-0.7
		c-1.7,0.5-3.4,0.9-5.2,1.4c-1.8,0.5-3.3,0.3-4.5-0.5c-0.3,0-0.7,0-1.1,0.1c-0.5,0.1-0.8,0.1-1.1,0.1c-6.9,0.3-13.3,0.4-19.1,0.2
		c-5.8-0.2-11.6-0.2-17.3-0.2c-0.8-8.1-1.3-15.9-1.7-23.2c-0.4-7.3-0.3-14.4,0.1-21.4c0.5-5.7,0.5-11.5,0.1-17.3
		c-0.4-5.8-0.4-11.3-0.1-16.6c0.1-1.7,0.4-3.2,0.7-4.7c0.3-1.5,0.6-2.9,0.9-4.1c-0.6-1.8-0.9-3.5-1-5.2c-0.1-1.7,0-3.3,0.1-5
		c0.1-1.7,0.2-3.4,0.2-5.1c0-1.7-0.3-3.7-0.9-5.8c0.8-3.8,1.1-8.1,1.1-12.9c0-4.8-0.1-9.7-0.2-14.6c-0.2-4.9-0.1-9.6,0.1-14.1
		c0.2-4.5,0.9-8.4,2.1-11.5c2.9,0,5.7,0,8.5-0.1c2.8-0.1,5.6-0.3,8.5-0.8c5-0.1,10.2-0.3,15.7-0.5c5.5-0.1,11-0.2,16.4-0.1
		c5.4,0.1,10.8,0.3,16,0.8c5.3,0.5,10.2,1.2,14.9,2.3c0,4.8-0.2,10-0.5,15.6c-0.3,5.6-0.5,10.5-0.5,14.9c-3.6-1.8-7.5-2.9-11.8-3.3
		c-4.2-0.4-8.6-0.5-13.1-0.2c-4.5,0.2-9,0.5-13.6,0.9c-4.5,0.4-8.9,0.5-13.1,0.3c-0.9,5.3-1.2,10.8-1,16.7c0.2,5.9,0.6,11,1,15.4
		c2,0.5,4.2,0.4,6.7-0.1c2.5-0.5,4.8-0.2,6.9,1c0.5-0.5,0.5-0.7,0.1-0.8c-0.4-0.1-0.9-0.1-1.7-0.1c0.5-0.3,1.1-0.4,1.8-0.3
		c0.8,0.1,1,0.5,0.7,1.2c2.9-1.7,6.3-2.5,10.2-2.6c3.9-0.1,7.5-0.3,10.8-0.6c0.5,2.9,0.6,5.6,0.6,8.1c-0.1,2.6-0.2,5.1-0.2,7.7
		c-0.1,2.6-0.2,5.2-0.2,7.8c-0.1,2.6,0.1,5.5,0.6,8.5c-6.5,0.5-12.4,0.8-17.9,1.1c-5.4,0.3-11.5,0.5-18.3,0.5
		c0.8,6.3,0.8,12.5,0.2,18.6c-0.6,6.1-0.7,12.3-0.2,18.6c9.6,0,18.9,0.1,27.9,0.2c9,0.2,17.1,0.1,24.5-0.2c0.3,3.2,0.1,6.9-0.6,11.3
		C671.2,348,671,352,671.5,355.6z M601.2,306.7c-0.5,0.8-0.7,1.3-0.7,1.6h1.6C602.1,307.2,601.8,306.7,601.2,306.7z M602.1,311.8
		c0,0.5,0.4,0.7,1.2,0.7c0.8,0,1.2-0.2,1.2-0.7c-0.5-0.3-0.9-0.4-1.2-0.2C602.9,311.8,602.5,311.8,602.1,311.8z M604.5,282
		c0.5,0,1-0.1,1.6-0.3c0.6-0.2,1.2-0.5,1.7-0.9c0.5-0.4,0.9-0.8,1.1-1.2c0.2-0.5,0.1-0.9-0.3-1.4c-0.9,0.8-1.7,1.4-2.5,1.9
		C605.4,280.6,604.8,281.2,604.5,282z M606.1,291c0,1.1,0.5,1.6,1.6,1.6c0.5-0.5,0.5-0.9,0.1-1.5C607.4,290.6,606.9,290.6,606.1,291
		z M607.7,341c0.5,0.3,1,0.3,1.6,0c0.6-0.3,0.9-0.8,0.9-1.6c-0.8,0.3-1.2,0.1-1.5-0.6c-0.2-0.7-0.6-1-1-1c-0.5,0.8-0.4,1.4,0.2,1.8
		C608.5,340.1,608.5,340.5,607.7,341z M625.6,221.7c-0.6,0-0.9,0.2-0.9,0.5c-0.2,0.2-0.2,0.3,0,0.5c0.6,0,0.9,0.5,0.9,1.6
		c0.5,0,1-0.3,1.6-0.9c-0.5-0.3-0.8-0.5-1.1-0.5C625.7,222.8,625.6,222.4,625.6,221.7z M633.5,204.7c-0.3,0-0.6,0.1-1,0.2
		c-0.4,0.2-0.6,0.6-0.6,1.4c0.5,0.5,0.9,0.5,1.5,0.1C633.9,206,633.9,205.5,633.5,204.7z M636,215.7c0,0.5-0.2,0.9-0.5,1.2
		c-0.3,0.4-0.5,0.8-0.5,1.2c0.9-0.5,1.5-0.6,1.7-0.5c0.2,0.2,0.5,0,0.8-0.5h-0.5c-0.2,0-0.2-0.2-0.2-0.7c-0.2-0.1-0.2-0.3-0.2-0.5
		C636.3,215.9,636.1,215.7,636,215.7z M637.5,220.3h-2.5c0,0.8,0.5,1.2,1.6,1.5C637.7,222,638,221.5,637.5,220.3z M640.7,215.1
		c-0.8-0.3-1.4-0.2-1.8,0.3c-0.5,0.5-0.9,1-1.4,1.5c0.5,0,0.6,0.3,0.6,0.8c-0.1,0.5,0.3,0.8,1,0.8c0.5-0.5,0.8-0.9,1.1-1.4
		C640.6,216.7,640.7,216,640.7,215.1z M638.7,211.9v1.6c0.5,0,1,0,1.6-0.1c0.6-0.1,0.9-0.3,0.9-0.6c-0.5,0-0.8-0.1-1-0.5
		C640,212.1,639.5,211.9,638.7,211.9z M642.3,218.5c0,0.8,0.1,1.1,0.5,0.9c0.3-0.1,0.7-0.2,1.1-0.2
		C643.9,218.7,643.3,218.5,642.3,218.5z"/>
	<path class="st0" d="M749.6,245.8l25.1-43.6c5.7-0.3,11.5-0.5,17.3-0.6c5.8-0.1,11.6-0.1,17.3-0.1c-1.2,7.2-1.8,14.8-1.7,22.6
		c0.1,7.8-0.1,15.6-0.6,23.3c-0.3,4.8-0.5,10-0.7,15.6c-0.2,5.6-0.5,11.4-1.1,17.4c-0.3,3.3-0.8,6.4-1.4,9.3
		c-0.6,2.9-0.9,5.7-0.9,8.6c-0.5,3.6-0.3,7.3,0.6,11c0.8,3.7,1.4,7.6,1.7,11.6c0.3,4.4,0,9.1-0.9,14.1c-0.9,5.1-1.1,10-0.7,14.8
		c0.3,3.3,0.2,6-0.3,7.9c-0.5,2-2,3.3-4.4,4.1c-2.3,0.6-4.6,0.8-7,0.7c-2.4-0.1-4.9-0.3-7.5-0.6c-2.6-0.2-5.1-0.4-7.6-0.6
		c-2.5-0.1-4.9,0-7.1,0.5c-1.2-2-1.5-4.1-0.9-6.4c0.6-2.3,0.9-4.7,0.9-7.1c0.5-3.6,0.7-7.5,0.7-11.5s0.6-7.8,1.8-11.1
		c-0.2-0.5-0.3-1.7-0.3-3.7c-0.1-2-0.1-4.3-0.1-6.8c0-2.5,0-4.7,0.1-6.8c0.1-2,0.2-3.3,0.3-3.7c-0.8-3.6-0.7-7.2,0.2-10.6
		c0.9-3.5,1.4-7.5,1.4-12c-1.1,1.8-2.6,4.4-4.5,7.7c-2,3.3-4,6.8-6.2,10.5c-2.2,3.7-4.2,7.2-6.1,10.5c-1.9,3.3-4.2,7.6-4.2,7.6
		h-10.1c-0.5-2-1.5-4.6-3.1-7.8c-1.6-3.2-3.3-6.5-5.1-9.8c-1.8-3.3-3.5-6.5-5.1-9.6c-1.6-3.1-2.6-5.5-3.1-7.3
		c-0.2,5-0.4,10.8-0.7,17.4c-0.3,6.6-0.6,13.4-0.8,20.5c-0.2,7-0.5,13.9-0.7,20.7c-0.2,6.8-0.3,12.7-0.3,17.9c0-0.3-0.1-0.5-0.3-0.5
		c-0.2,0-0.3,0.2-0.3,0.5c-3.5,0-6.5,0-9.2-0.1c-2.6-0.1-5.2-0.1-7.7-0.2c-2.5-0.1-5-0.1-7.6-0.2c-2.6-0.1-5.5-0.1-8.8-0.1
		c-1.4-3.8-2.3-7.8-2.7-12c-0.5-4.2-0.7-8.5-0.7-12.9c0-4.4,0.1-8.7,0.2-13.1c0.1-4.4,0.1-8.7,0-12.9c-0.2-5.4-0.1-10.6,0.2-15.6
		c0.3-5,0.6-9.8,1-14.6c0.4-4.7,0.6-9.4,0.8-14c0.1-4.6,0-9.2-0.5-13.9c0-0.5,0.5-0.7,1.6-0.7c-0.5-1.8-0.8-4-0.9-6.7
		c-0.2-2.6-0.3-5.5-0.3-8.6c-0.1-3.1-0.1-6.2-0.1-9.3c0-3.1-0.1-5.9-0.2-8.5c-0.2-2.1-0.4-4-0.7-5.5c-0.3-1.6-0.1-3,0.7-4.2
		c0.9-2.4,2.7-3.9,5.3-4.4c2.6-0.5,5.5-0.9,8.5-1.2c2.4,0,4.9,0.1,7.5,0.2c2.6,0.2,4.9,0.6,7,1.4c0.8-0.5,1.7-0.6,2.9-0.3
		c1.2,0.2,2.4,0.3,3.6,0.3c0,0.5,0.2,1,0.6,1.6c0.4,0.6,0.2,0.9-0.6,0.9c-0.8-0.5-1-0.8-0.7-1c0.3-0.2,0.2-0.7-0.2-1.5
		c-0.3,0-0.5,0.1-0.7,0.3c-0.2,0.2-0.5,0.1-0.9-0.3v1.3h0c0-0.9-0.3-1.2-0.9-1h-1.1v1.4v1.6l1.1-1h0.9c0.1,0.5,0.3,0.5,0.5,0.3
		c0.1,0,0.5-0.3,0.6-0.9V204v1.6c0.6,0.3,0.9,0.5,1.5,0.6c0.6,0.1,1.1,0.1,1.4,0.1c0.9,1.8,2.4,4.5,4.5,8.1
		c2.1,3.6,4.3,7.4,6.7,11.4c2.3,4,4.5,7.9,6.6,11.8c2,3.8,3.4,6.9,4.2,9.2c-0.8,0-1.1,0.1-0.9,0.3c0.1,0.2,0.5,0.3,0.9,0.3
		c0,0.6-0.2,0.8-0.5,0.5l-0.5-0.5c0,0.8,0.2,1.1,0.6,1.1c0.4,0,0.7,0.2,1,0.5c-0.3,0.5-0.6,0.6-0.8,0.5c-0.2-0.1,0,0,0.8,0.5
		c0.9-0.5,1.5-1.1,1.7-1.8C749.1,247.3,749.3,246.6,749.6,245.8z M719.8,252.8c-0.8-0.9-0.9-1.4-0.6-1.4c0.4,0,0.6-0.4,0.6-1.1h-0.9
		c0,1.2-0.6,1.9-1.7,2.1s-1.8,0.3-2.1,0.3c0,0.3-0.3,0.5-0.8,0.7c-0.5,0.2-0.6,0.5-0.1,0.9c1.2,0,2-0.3,2.5-1
		C717.1,252.7,718.1,252.5,719.8,252.8z M719.8,275.7c0,0.5,0.3,0.6,0.8,0.6c0.5-0.1,0.8-0.6,0.8-1.5c-0.2,0.2-0.5,0.2-0.9,0.2
		C720,275.3,719.8,275.5,719.8,275.7z M732,262.8c-0.5,0.8-0.3,1,0.5,0.8c0.8-0.2,1.1-0.5,1.1-0.8c-0.8-0.5-1.1-0.6-1.1-0.3
		C732.5,262.7,732.3,262.8,732,262.8z M741.5,278.2c0.5,0.3,1,0.4,1.6,0.3c0.6-0.1,0.9-0.5,0.9-1.2c-0.3-0.3-0.8-0.3-1.5-0.1
		C741.8,277.4,741.5,277.7,741.5,278.2z M751.2,265.3h-1.6c0.5,0,0.8,0.1,1.1,0.2C751.1,265.7,751.2,265.6,751.2,265.3z
		 M773.8,241.3h1.6c0-0.5-0.1-0.8-0.3-0.9c-0.2-0.1-0.3-0.5-0.3-0.9C774.1,239.5,773.8,240.1,773.8,241.3z M777,239.3
		c0,0.5,0.2,0.6,0.6,0.6c0.4-0.1,0.8-0.5,1.2-1.2C777.6,238.6,777,238.8,777,239.3z M790.8,286.1c1.1,0,1.6-0.2,1.6-0.7
		c-0.5,0-0.7-0.1-0.7-0.5v-0.5C791.1,285.1,790.8,285.6,790.8,286.1z M798,288.6c0-0.5,0.3-0.8,0.8-1c0.5-0.2,0.8-0.7,0.8-1.5
		c-0.8,0-1.3,0.3-1.6,0.9C797.7,287.6,797.7,288.1,798,288.6z"/>
	<path class="st0" d="M891.8,206.3h0.9v-3.2c3.6,0,7.2,0,10.9-0.1c3.7-0.1,11.1-0.8,11.1-0.8v32.3v42c-3.4,0.5-7.6,0.7-12.1,0.8
		c-4.5,0.1-9.1,0-13.7-0.1c-4.6-0.1-9.2-0.3-13.7-0.5c-4.5-0.1-8.7-0.2-12.4-0.2c-1.1,5.3-1.6,10.6-1.6,16c0,5.4,0.1,10.9,0.5,16.4
		c0.3,5.5,0.6,11.1,0.8,16.7s0,11.3-0.6,16.8c-0.3,3.2-0.6,6.3-0.9,9.3c-0.3,3-0.2,6.3,0.2,9.9c-2.4,0-5.1,0-8.1-0.1
		c-3-0.1-6.1-0.1-9.4-0.1c-3.2,0-6.5,0.1-9.7,0.2c-3.2,0.2-6.3,0.5-9.3,0.9v-12.9c0.2-2.1,0-4.3-0.3-6.6c-0.3-2.3-0.5-4.7-0.5-7.2
		c0-0.8,0.1-1.8,0.5-3.3c0.3-1.4,0.5-2.7,0.5-4c0.5-1.7,0.7-3.3,0.8-4.9c0.1-1.6,0.1-3.2,0.1-4.9c0.5,0.6,1,0.9,1.6,0.9
		c0.8,0,1.3-0.1,1.7-0.2c0.4-0.1,0.6-0.6,0.6-1.5H829c0-0.5-1.6-1-1.6-1h-1.6c0,0,0.1-19-0.7-28.8c-0.8-9.9-0.5-19.8,0.7-29.7
		c-1.2-4.1-1.5-8.6-0.8-13.7c0.7-5,1.2-10.4,1.5-16.2c0.3-4.5,0.3-8.9,0.1-13.2c-0.2-4.3-0.5-8.5-0.8-12.5c3.6,0,7.6,0,12-0.1
		c4.4-0.1,9-0.3,13.8-0.8c0.5,0,0.7,0.2,0.2,0.5v0.5c0.2,0,0,0.2-0.2,0.6c-0.2,0.4-0.5,0.7-0.9,1c-0.2,0.2-0.2,0.3,0,0.5
		c0,0.6,0.3,1,0.9,1.1h0.7h0.5c0.3,0,0.5-0.2,0.5-0.7c0.3,0,0.4-0.2,0.2-0.6c-0.2-0.4-0.6-1-0.6-1v-0.9c0,0,3.7-0.7,5.3-0.8
		c1.6-0.1,3.4-0.1,5.5-0.1h9.7c0.8-0.1,1.4,0.1,2,0.5c0.6,0.4,1.3,0.8,2,1.2c1.7,0,3.4,0,5.2-0.1c1.8-0.1,3.5-0.3,5.2-0.8v0.9
		c-0.5,0.5-0.7,1-0.7,1.6l0.7,0.7l0.9-1h0.7h0.9C891.3,205.6,891.8,205.8,891.8,206.3z M831.2,341.7c1.2,0,1.8-0.2,1.8-0.7
		c-0.9,0-1.4,0-1.6,0.1C831.3,341.2,831.2,341.4,831.2,341.7z M833.7,254c0.8-0.5,1.4-0.8,1.8-1.1c0.5-0.3,0.7-1.1,0.7-2.3
		c-1.2,0-1.9,0.4-2.1,1.1C833.8,252.5,833.7,253.2,833.7,254z M845,283.8c1.2,0.3,2,0,2.5-0.9c0.5-0.9,0.7-1.7,0.7-2.5
		c-1.2,0-1.8,0.3-1.9,1C846.2,282.1,845.8,282.9,845,283.8z M845,308.7c0.8,0,1.2-0.2,1.4-0.6c0.1-0.4,0.2-1,0.2-1.9
		C845.5,306.2,845,307,845,308.7z M845,311.8c0.5,0,0.8-0.3,1-0.8c0.2-0.5,0.2-0.8-0.1-0.8c0,0.5-0.2,0.8-0.5,0.9
		C845.2,311.3,845,311.5,845,311.8z M846.6,308.7c0.8,0,1.2-0.1,1.4-0.5c0.1-0.3,0.2-0.7,0.2-1.1c-0.3,0-0.5,0.2-0.7,0.6
		C847.3,308,847,308.4,846.6,308.7z M848.2,274.8c0.5,0.5,0.8,0.5,1.1,0.2c0.3-0.3,0.2-0.6-0.2-0.9
		C848.5,274.1,848.2,274.3,848.2,274.8z M857.2,268.4c0.3,0,0.7-0.2,1.1-0.6c0.5-0.4,0.8-0.7,1.1-1c-0.3,0-0.7,0-1.2-0.1
		c-0.5-0.1-0.6-0.3-0.3-0.8c-0.3,0-0.5,0-0.7,0.1c-0.2,0.1-0.5,0.3-0.9,0.8C856.9,266.9,857.2,267.4,857.2,268.4z M882.3,244.3
		c0.5-2.1,0.7-4.3,0.8-6.6c0.1-2.3,0.1-4.7,0.1-7.2c-3.6-0.3-7.5-0.5-11.6-0.7c-4.1-0.1-8.1,0.4-11.9,1.6v10.4
		c3.8,0.8,7.7,1.4,11.8,2C875.6,244.4,879.2,244.6,882.3,244.3z M863.5,249.9c0.5,0.3,1,0.4,1.6,0.3c0.6-0.1,0.9-0.5,0.9-1.2
		C864.4,249,863.5,249.3,863.5,249.9z M867.8,261.9c0.5,0,0.9,0.1,1.2,0.3c0.4,0.2,0.8,0.1,1.2-0.3c0-0.3-0.3-0.4-0.8-0.3
		c-0.5,0.1-0.8,0-0.8-0.3v-0.9C868.1,260.9,867.8,261.4,867.8,261.9z M867.6,264.4c0,0.5,0.5,0.8,1.5,0.9c1,0.2,1.3-0.1,1-0.9
		c-0.5-0.5-0.8-0.6-1-0.3C868.8,264.3,868.4,264.4,867.6,264.4z M871.7,261.9c1.1,0,1.6-0.8,1.6-2.3c-0.8-0.9-1.5-1.1-2.3-0.6
		c-0.8,0.5-1.4,0.9-1.8,1.2c0.8,0,1.2,0.4,1.2,1.1C870.5,262.2,870.9,262.3,871.7,261.9z M871.7,256.2v0.9c0,0.3,0.4,0.5,1.2,0.5
		c0.8,0,1.2-0.1,1.2-0.5c-0.5,0-0.8-0.1-1-0.5C873,256.4,872.5,256.2,871.7,256.2z M874.8,262.8c-0.5,0.5-0.2,0.7,0.9,0.7
		C875.7,263,875.4,262.8,874.8,262.8z M887.7,272.5c0,0.3,0.4,0.3,1.1,0.1c0.8-0.2,0.9-0.6,0.5-1c-0.2-0.1-0.5-0.2-0.9-0.2
		S887.7,271.8,887.7,272.5z M890.2,254c0,0.3,0.4,0.5,1.2,0.5c0.8,0,1.2-0.1,1.2-0.5c-0.5,0-0.8-0.1-0.9-0.2c-0.3,0-0.6,0-0.8-0.1
		C890.8,253.6,890.5,253.7,890.2,254z"/>
	<path class="st0" d="M1009.3,264.4c-1.7-0.5-3.1-0.5-4.4,0c-1.3,0.5-2.8,0.5-4.4,0c1.2,8.1,2.7,16.3,4.5,24.5
		c1.8,8.2,3.7,16.5,5.5,24.7c1.9,8.3,3.7,16.5,5.5,24.7c1.8,8.2,4.5,24.9,4.5,24.9h-29.1l-7.2-23.5c-1.4-4.4-2.7-8.5-4.1-12.4
		c-1.4-3.9-2.4-7.8-3.2-11.8c0-1.2-0.1-2.1-0.2-2.7c-0.2-0.6-0.1-1.1,0.2-1.4c0-0.5-0.3-0.8-0.8-1c-0.5-0.2-0.8-0.7-0.8-1.5
		c-1.2-6.9-2.5-14.1-3.7-21.4c-1.3-7.3-3-14.4-5.1-21.4h-7.2c0,8.5,0.3,16.2,0.9,23.2c0.6,7,1.1,14.4,1.4,22.1
		c0.5,9.1,0.5,17.7,0.1,26c-0.4,8.3-1.2,16.5-2.4,24.7h-9.7h1.1v-2h-1.1h-0.9h-0.7c-0.6-0.1-0.9,0.1-0.9,0.4
		c-0.2,0.2,0.6,0.5,0.6,0.5v1.2h0.3h-5.7c-1.7-0.5-3.4-0.4-5.2-0.2c-1.8,0.2-3.3,0.1-4.5-0.3c-1.4-0.8-2.2-2-2.6-3.6
		c-0.4-1.7-0.5-3.5-0.5-5.7c0.1-2.1,0.2-4.3,0.5-6.4c0.2-2.2,0.3-4.2,0.1-6c0-1.7-0.5-3.2-1.4-4.7c-0.9-1.5-1.5-2.9-1.8-4.1
		c-0.6-2.4-0.5-5.3,0.3-8.6c0.8-3.3,1.2-6.3,1.2-9c0-6.3-0.2-12-0.5-17.1c-0.3-5-0.5-10.4-0.5-16.2c0-3.2-0.1-6.3-0.2-9.5
		c-0.2-3.2-0.1-6.2,0.2-9c0-0.8,0-1.3-0.1-1.6c-0.1-0.3,0.3-0.8,1-1.6c0-0.5-0.2-0.6-0.7-0.6c-0.5,0.1-0.5-0.3-0.2-1
		c0-7.2,0-15.8,0.1-25.7c0.1-9.9,0.3-19.8,0.8-29.9c7.2,0.2,14.7,0.2,22.4,0c7.7-0.1,15.3-0.3,22.9-0.5c7.6-0.1,15-0.3,22.3-0.5
		c7.2-0.1,14-0.1,20.3,0c-0.8,3.3-0.6,6.3,0.3,8.9c1,2.6,1.7,5.6,2.1,8.9c0.3,3.2,0.3,6.6,0,10.4c-0.3,3.8-0.3,7.2,0,10.4
		c0.1,2.4,0.6,5,1.4,7.8c0.8,2.8,1.2,5.4,1.5,7.9c0.2,2.5,0,4.7-0.7,6.6c-0.7,1.9-2.2,3.1-4.6,3.7c-1.2,0.3-2.4,0.2-3.6-0.2
		C1011.7,264.6,1010.5,264.4,1009.3,264.4z M936.8,217.6c1.2,0.5,2.1,0.5,2.6,0c0.5-0.5,0.8-0.9,0.8-1.5c0-0.5-0.3-0.8-0.8-0.9
		c-0.5-0.1-1.2,0.5-1.9,1.7c-0.3,0-0.6-0.1-0.9-0.2C936.2,216.5,936.3,216.8,936.8,217.6z M936.7,224.1v0.7c0.3,0,0.6,0.1,1,0.2
		c0.4,0.2,0.6-0.1,0.6-0.9c0-0.5-0.2-0.6-0.6-0.3C937.4,224,937,224.1,936.7,224.1z M988.8,237c0.5-2.1,0.7-4,0.8-5.7
		c0.1-1.7,0.1-3.5,0.1-5.6c-3.3-0.5-6.7-0.6-10.3-0.3c-3.5,0.2-7.1,0.3-10.7,0.3c-0.5-0.5-0.6-1-0.6-1.6c0.1-0.6-0.3-0.9-1-0.9
		c-0.5,0.8-0.5,1,0,0.7c0.5-0.3,0.7-0.2,0.7,0.2v0.7c-1.7,0.8-3.1,1.1-4.4,1.1c-1.3,0-2.8,0.2-4.4,0.5c0,1.7,0.1,3.4,0.5,5.3
		c0.3,1.9,0.5,3.7,0.5,5.3C969.9,237.6,979.6,237.6,988.8,237z"/>
	<path class="st0" d="M1117.5,355.6c0,1.7,0.2,3.1,0.6,4.3c0.4,1.2,0.2,2.2-0.6,2.9c-4.1,0-8.2,0-12.3,0.1c-4.1,0.1-7.8-0.3-11-1
		c0-0.5-0.3-0.7-0.9-0.7h-0.9h-0.7v0.7c-0.6,0.6-1.7,0.9-3.2,0.9c-0.5-0.5-1.1-0.5-2-0.2c-0.9,0.3-1.4,0.1-1.4-0.7
		c-1.7,0.5-3.4,0.9-5.2,1.4c-1.8,0.5-3.3,0.3-4.5-0.5c-0.3,0-0.7,0-1.1,0.1c-0.5,0.1-0.8,0.1-1.1,0.1c-6.9,0.3-13.3,0.4-19.1,0.2
		c-5.8-0.2-11.6-0.2-17.3-0.2c-0.8-8.1-1.3-15.9-1.7-23.2c-0.4-7.3-0.3-14.4,0.1-21.4c0.5-5.7,0.5-11.5,0.1-17.3
		c-0.4-5.8-0.4-11.3-0.1-16.6c0.1-1.7,0.4-3.2,0.7-4.7c0.3-1.5,0.6-2.9,0.9-4.1c-0.6-1.8-0.9-3.5-1-5.2c-0.1-1.7,0-3.3,0.1-5
		c0.1-1.7,0.2-3.4,0.2-5.1c0-1.7-0.3-3.7-0.9-5.8c0.8-3.8,1.1-8.1,1.1-12.9c0-4.8-0.1-9.7-0.2-14.6c-0.2-4.9-0.1-9.6,0.1-14.1
		c0.2-4.5,0.9-8.4,2.1-11.5c2.9,0,5.7,0,8.5-0.1c2.8-0.1,5.6-0.3,8.5-0.8c5-0.1,10.2-0.3,15.7-0.5c5.5-0.1,11-0.2,16.4-0.1
		c5.4,0.1,10.8,0.3,16,0.8c5.3,0.5,10.2,1.2,14.9,2.3c0,4.8-0.2,10-0.5,15.6c-0.3,5.6-0.5,10.5-0.5,14.9c-3.6-1.8-7.5-2.9-11.8-3.3
		c-4.2-0.4-8.6-0.5-13.1-0.2c-4.5,0.2-9,0.5-13.6,0.9c-4.5,0.4-8.9,0.5-13.1,0.3c-0.9,5.3-1.2,10.8-1,16.7c0.2,5.9,0.6,11,1,15.4
		c2,0.5,4.2,0.4,6.7-0.1c2.5-0.5,4.8-0.2,6.9,1c0.5-0.5,0.5-0.7,0.1-0.8c-0.4-0.1-0.9-0.1-1.7-0.1c0.5-0.3,1.1-0.4,1.8-0.3
		c0.8,0.1,1,0.5,0.7,1.2c2.9-1.7,6.3-2.5,10.2-2.6c3.9-0.1,7.5-0.3,10.8-0.6c0.5,2.9,0.6,5.6,0.6,8.1c-0.1,2.6-0.2,5.1-0.2,7.7
		c-0.1,2.6-0.2,5.2-0.2,7.8c-0.1,2.6,0.1,5.5,0.6,8.5c-6.5,0.5-12.4,0.8-17.9,1.1c-5.4,0.3-11.5,0.5-18.3,0.5
		c0.8,6.3,0.8,12.5,0.2,18.6c-0.6,6.1-0.7,12.3-0.2,18.6c9.6,0,18.9,0.1,27.9,0.2c9,0.2,17.1,0.1,24.5-0.2c0.3,3.2,0.1,6.9-0.6,11.3
		C1117.2,348,1117,352,1117.5,355.6z M1047,306.7c-0.5,0.8-0.7,1.3-0.7,1.6h1.6C1048,307.2,1047.6,306.7,1047,306.7z M1048,311.8
		c0,0.5,0.4,0.7,1.2,0.7c0.8,0,1.2-0.2,1.2-0.7c-0.5-0.3-0.9-0.4-1.2-0.2C1048.8,311.8,1048.4,311.8,1048,311.8z M1050.4,282
		c0.5,0,1-0.1,1.6-0.3c0.6-0.2,1.2-0.5,1.7-0.9c0.5-0.4,0.9-0.8,1.1-1.2c0.2-0.5,0.1-0.9-0.3-1.4c-0.9,0.8-1.7,1.4-2.5,1.9
		C1051.3,280.6,1050.7,281.2,1050.4,282z M1052,291c0,1.1,0.5,1.6,1.6,1.6c0.5-0.5,0.5-0.9,0.1-1.5
		C1053.3,290.6,1052.8,290.6,1052,291z M1053.6,341c0.5,0.3,1,0.3,1.6,0c0.6-0.3,0.9-0.8,0.9-1.6c-0.8,0.3-1.2,0.1-1.5-0.6
		c-0.2-0.7-0.6-1-1-1c-0.5,0.8-0.4,1.4,0.2,1.8C1054.4,340.1,1054.4,340.5,1053.6,341z M1071.5,221.7c-0.6,0-0.9,0.2-0.9,0.5
		c-0.2,0.2-0.2,0.3,0,0.5c0.6,0,0.9,0.5,0.9,1.6c0.5,0,1-0.3,1.6-0.9c-0.5-0.3-0.8-0.5-1.1-0.5
		C1071.6,222.8,1071.5,222.4,1071.5,221.7z M1079.4,204.7c-0.3,0-0.6,0.1-1,0.2c-0.4,0.2-0.6,0.6-0.6,1.4c0.5,0.5,0.9,0.5,1.5,0.1
		C1079.8,206,1079.8,205.5,1079.4,204.7z M1081.9,215.7c0,0.5-0.2,0.9-0.5,1.2c-0.3,0.4-0.5,0.8-0.5,1.2c0.9-0.5,1.5-0.6,1.7-0.5
		c0.2,0.2,0.5,0,0.8-0.5h-0.5c-0.2,0-0.2-0.2-0.2-0.7c-0.2-0.1-0.2-0.3-0.2-0.5C1082.2,215.9,1082,215.7,1081.9,215.7z
		 M1083.4,220.3h-2.5c0,0.8,0.5,1.2,1.6,1.5C1083.6,222,1083.9,221.5,1083.4,220.3z M1086.6,215.1c-0.8-0.3-1.4-0.2-1.8,0.3
		c-0.5,0.5-0.9,1-1.4,1.5c0.5,0,0.6,0.3,0.6,0.8c-0.1,0.5,0.3,0.8,1,0.8c0.5-0.5,0.8-0.9,1.1-1.4
		C1086.4,216.7,1086.6,216,1086.6,215.1z M1084.7,211.9v1.6c0.5,0,1,0,1.6-0.1c0.6-0.1,0.9-0.3,0.9-0.6c-0.5,0-0.8-0.1-1-0.5
		C1086,212.1,1085.5,211.9,1084.7,211.9z M1088.2,218.5c0,0.8,0.1,1.1,0.5,0.9c0.3-0.1,0.7-0.2,1.1-0.2
		C1089.8,218.7,1089.2,218.5,1088.2,218.5z"/>
</g>
</svg>
