<?xml version="1.0" encoding="utf-8"?>
<!-- Generator: Adobe Illustrator 22.0.1, SVG Export Plug-In . SVG Version: 6.00 Build 0)  -->
<svg version="1.1" id="Layer_1" xmlns="http://www.w3.org/2000/svg" xmlns:xlink="http://www.w3.org/1999/xlink" x="0px" y="0px"
	 viewBox="0 0 66.992 68.327" style="enable-background:new 0 0 66.992 68.327;" xml:space="preserve">
<style type="text/css">
	.st0{fill:#FFFFFF;}
</style>
<g>
	<path class="st0" d="M0,5.825c7.221-7.001,7.072-6.859,14.103,0.523c6.146,6.452,12.678,12.537,20.16,19.884
		c6.757-7.24,13.404-13.929,19.536-21.061c5.727-6.661,5.486-6.868,11.769-0.728c0.473,0.462,0.949,0.921,1.424,1.382
		c0,0.333,0,0.667,0,1c-1.415,1.035-3.006,1.898-4.216,3.134c-8.447,8.623-16.885,17.258-25.172,26.033
		c-2.945,3.118-5.27,3.118-8.215,0c-8.288-8.776-16.725-17.41-25.172-26.033C3.006,8.723,1.415,7.86,0,6.825
		C0,6.491,0,6.158,0,5.825z"/>
	<path class="st0" d="M66.992,36.821c-1.415,1.035-3.006,1.898-4.216,3.134c-8.447,8.623-16.885,17.258-25.172,26.033
		c-2.945,3.118-5.27,3.118-8.215,0c-8.288-8.776-16.725-17.41-25.172-26.033C3.006,38.719,1.415,37.856,0,36.821
		c0-0.333,0-0.667,0-1c7.221-7.001,7.072-6.859,14.103,0.523c6.146,6.453,12.678,12.537,20.159,19.884
		c6.757-7.24,13.404-13.929,19.536-21.061c5.727-6.661,5.486-6.868,11.769-0.728c0.473,0.462,0.949,0.921,1.424,1.382
		C66.992,36.154,66.992,36.488,66.992,36.821z"/>
</g>
</svg>
