<?xml version="1.0" encoding="utf-8"?>
<!-- Generator: Adobe Illustrator 22.0.1, SVG Export Plug-In . SVG Version: 6.00 Build 0)  -->
<svg version="1.1" id="Layer_1" xmlns="http://www.w3.org/2000/svg" xmlns:xlink="http://www.w3.org/1999/xlink" x="0px" y="0px"
	 viewBox="0 0 784.6 181.3" style="enable-background:new 0 0 784.6 181.3;" xml:space="preserve">
<style type="text/css">
	.st0{fill:#FFFFFF;}
</style>
<g>
	<path class="st0" d="M171.3,77.7c-6,4-23-0.8-31.8-2.4c-34.6-6.6-77.6-4.2-115-2.4c-5.2,1.8-10.8,0.8-15,4.8
		c-2.6,1.4-5.6,0.4-7-1.6c-3.2-5-2.4-9.8-2.4-16.4c1.2-4.2,3-9,6.4-11.6c2.2-2.6,5,0.2,6.8,1.6c6.2,0,9.8,0.6,13.6,0.8
		c16,0.8,35.2-1.4,54-1.2c3.6-10.6-6.6-17.6-4.8-27.8c2.6-3.4,7-1.8,10-1.2c3.6,3.4,8.4,4.2,12,7.6c2.4,1.2,4.4,4.2,4.4,6
		c-2.2,3-4,11.8-5.6,15.4c25.8,0.8,46.4,1.4,71.6,0c4.6-0.8,5.8-2,11.8-4l2.2,0.4c3.8,4-0.2,8.8,0.4,14.4
		C180.7,67.3,176.3,71.9,171.3,77.7z M149.9,148.4l-6,2c-27.8-5.4-61.8-7-89.6-1.6c-3,1.4-5.8,4.8-10,4c-6.6-2.8-4.2-10-8.2-14.4
		c-1.2-4.6,2.6-7.2,3.8-10.8c2-12,0.8-24.2-2-35c0.8-6.4,5.8-12,11.2-15.4c2-0.4,4.2,0.4,4.4,2.4c-2.8,13.8-2.2,27.6-0.8,42l4.8,3.6
		h72.2c9.2,0,17.4-2.8,24.4-9.4c3.8-3.4,5.4-0.6,6,1.6C162.3,129.6,157.1,140,149.9,148.4z"/>
	<path class="st0" d="M382.1,66.6c-1,4.6-9.4,15-20.4,16.6c-1.2,0.6-5-3.4-7-4.8c-25.2-17-50.8-34.2-73-44c-4-1.8-13-1-17.8,1.6
		c-6.2,4.8-14,12-19.6,16.2l64,0.4c3.4,1.4,1.8,4,1.6,6.4c-1.2,3-2.6,5.4-3.4,7.6l-3.2,2.8c-18.2,0-38.6,0-60.2-0.4
		c-1.4,0.6-4.4,4.8-6.8,2.8c-2.6-2.4-3.6-6.2-3.6-10c-5.8,2.6-11.4,10-18.6,7.6c-4.8-2.8-9.8-2.2-13.6-7.6c-1.6-6.8-1.4-13.8,2-19.6
		c1.4-0.4,4.2,2.8,5.6,1.6c12.6,0,25.8-5,36.6-11c12.4-7,19-14,27.4-25.6c0.8-2.8,1.2-6.6,4.4-7.2c5.6,4,13.2,7.2,11.2,15.6
		c0.4,2-3.4,4.4-5.6,6l19.4,8.2l52.2,20c8.2,2.2,21,6.2,30,6.4C387.9,55,383.1,64.6,382.1,66.6z M263.5,119c3,0.6,7.6-0.8,10.6,2
		c1.4,4.8-3.8,7.8-4.4,12.4l-4.2,3.2c-10.2,0.4-24.2-1-35.2,1.2l-5.2,2.8c-3,2.4-6.2-2.4-6.6-10.8c3.6-9.4,6-20.6,3.4-31.2
		c0.6-5.4-6.8-10.8-3.8-15.8c2.6-4.2,8.4-4.6,12.8-1.6h34c2.2-2.6,4.2-2.8,7.2-1.2c1.8,2.4,5.4,5.4,4,9.2
		C271.3,98.8,272.3,110.8,263.5,119z M257.5,99.2L236.3,99l-3.4,1.4l-0.8,19.4c6.6-0.2,20.4-0.4,25.4-1.2
		C258.9,113.2,262.1,104.2,257.5,99.2z M338.1,131.4c-4.7,7.9-9.7,14.2-18.2,19c-2.8,1.6-5.7,6.1-8.9,2c-2.4-3-2.2-5.9,0.4-9.3
		c15.6-5.5,19-22.9,19.8-38.2c-0.8-2-1.4-4.9-3.6-5.7l-26.7,0.2l-1.8,2.6c-1.8,22.7-2,41.7-2.4,64.7c0.4,4.4-2.8,12.1-6.1,14.6
		c-4.7-0.8-3.2-6.7-4.9-10.5c-2-4.7-3-11.3-0.8-16.2c1.4-19,2.2-38,2.4-57.4l-2.4-8.9c0.8-6.1,4.4-10.1,8.9-13.6
		c4.7-0.2,3.8,6.5,8.9,6.5h32.2c4.2-0.6,9.5-5.7,12.9-0.2c0.4,2.6,2,5.1,1,8.1C344.4,102.8,344.2,118.2,338.1,131.4z"/>
	<path class="st0" d="M575.1,151.5c-1.4,1.4-1.6,2.8-2.8,4.2c-3,4.8-6,5.6-8.8,8.2c-6.2,1.2-11.8-1.8-18-2.4
		c-22.2-2.2-48.4-4-69.4-3.8c-13,0.2-24.6,0.6-37.2,1.2c-6.4,1-13.2,1.2-19.8,2.4c-6.4,1-8.2,5.6-12.4,4.8c-2-0.4-3.2-1.8-4.2-3.6
		l-0.4-5.4l2.6-9c3.6-3.6,4.6-11.2,11.2-10.2c1,0.4,2.2,0.8,3,2c1.8-0.6,4.8,0.3,4.8,0.3h6.5c18.5,0,35.5-0.6,54-0.4
		c-0.2-2.2-1-5.4-1-7.8c-0.2-7,0.2-10.6,0.2-20.7c-14.4-0.8-25.1,1-39.3,0.4c-2.8,0-6.4,4.8-9.4,3.4c-4.2-2-2.6-7-4.8-10
		c-0.2-2.8,2.2-4.8,1.4-7.8c1.6-1.8,3.6-7.4,8-4c11.6,1.2,34.3,0.6,44.5,0c0-7.4,0.4-16.8,0.4-24.3c-10.8,0-21.1,1-31.7,0.8
		c-6.4,2.8-6,0-11,0c-3,5.8-4.6,12.4-9.6,19.1c-4.6,2.6-8.4-1.6-12.6-2.2c-4,0-8-1.2-10.2-4.8c-1.8-2.2,0-5.4-2-7.6
		c1.2-4.2,1.8-8.4,2.8-9.8c3.6,1.6,8,0.2,11.2-1.4c9.8-5,15.4-15,17.9-24.9c0-3.8,0.2-8-2.2-11.2c-0.8-2,0.6-3.8,1.2-5.4
		c1.2-1.2,3-0.4,4.4-0.2c3,0.8,4,4.4,6.6,5.6c2.2,2.6,2.6,6,2.6,9.4c-1.2,4.4-2.8,8.8-3.8,13.4c7.4,2.2,26.3,0,36.3,0
		c0-7.6,0-16-1.4-23.7c0.2-6.2,4.8-10.2,7.4-15.4c1.4-1.4,3-2.6,4.8-1.8l3.4,5c-1.8,10.8-1.4,24.7-1.6,35.7
		c13.8,0,29.9,0.2,43.1-1.2c4.2,0,10.2-2.2,11.6,1c-1,2.6,0.2,1.4-1.6,6.4c-1,3.2-3.4,13.4-11.6,13.4l-41.4-0.4
		c-0.6,7-0.2,17.2,0.2,24.4c16.6-0.2,31.8,0,49-1.6c1.4,1,3,2.6,3,4.4c0.4,2.4-3.4,8.8-4,10c-5,7-14.6,4.6-22.6,5.6l-25.6-0.6
		c-0.8,10.2-0.2,18.2-1.4,28.2c10.8,0,30,0,30,0h26.4c0,0,13.8,0.7,19.6-2.1c2.8-1.4,11.2-2.2,9.6,3.2
		C579.3,145.7,577.9,149.3,575.1,151.5z"/>
	<path class="st0" d="M640.3,84.9c-8.2,3-22.4,0.4-29.8,5.2c-6.2-3.8-5.2-11.4-5.2-18.2c-0.4-1.2,0.4-5.8,4-6.8
		c6.6,1.2,13.8,2,20.2,2.8l19.2,2.4C649.3,76.1,644.9,82.3,640.3,84.9z M632.5,135.1c-2,3.2-6.2,3.8-10,2.8c-3-3.2-9.6-1.4-11.2-7.2
		c-0.2-5.4-6.4-11.6,0.4-15.2c9.2,0,18.2-2.8,26.2-7c2.8,1.6,1.4,6.8,1.2,9.8C638.7,124.7,632.5,128.5,632.5,135.1z M759.9,101.3
		c-19.8-4.4-43-1.9-65-1.9c-5.4,0-8,5-13.6,2.5c-3.2-2.7-4.2-6-4.8-10c2-4.8,1.6-8.5,5.6-11.6c11,1.5,23,0.4,34.6,0.8l-0.4-11h-26.6
		c-4-1-3.8-5.4-4.8-8.4c0.6-3,0-8.6,4.4-9.6l26.1,0.4c0.4-4.4,2-9.1,4.8-12.1c-11.7-0.6-26.2-0.6-38.8,0c-2.4,1.2-6.2,1.8-6.4,5.2
		l-2.4,56.9c-2.2,14.9-4.2,31.8-11.9,45.3c-4.6,8.2-7.2,17.3-12.9,25.1c-3,3.2-7.4,5-11.7,4c-5.2-1.2-9.5-5.6-15.5-5.2
		c-3.2-2.2-4.8-5.6-6.8-9.3c1.8-5.6-4.2-13.3,3.6-14.7c7.8,2.4,14.9-1.8,21.1-5.6c23.9-22.1,22.9-54.1,22.9-88.1
		c2.4-8.7-9.1-12.3-6.4-20.7c2.8-6,2-14.5,8.9-17.7c2.4-1.8,4.8,0.2,5.8,2.4H764c4.2,0,6.6,2.8,6.2,6.4c-0.6,5-2.6,16.5-9.1,15.9
		c-10.5,0.2-19.3,0-31.8-0.4l0.4,12.1l35.1-0.2c3.2,4.2-3.6,14.8-6.1,18.2c-7.7,0-20.1-0.2-29-0.2c-0.6,3.2-0.6,7.6-1.3,11.2
		l47.1-0.6C780.9,81.6,769.7,105.9,759.9,101.3z M622.1,44.7c-5.6-1.8-7.4-7.8-8-13c-0.6-5.2,5.2-7,6-12c1.8-2.6,4.2-1.6,6.4-1.6
		c3.4,1.6,6.4,6,8.6,8.8l9.2,5.2C640.7,40.7,628.9,40.1,622.1,44.7z M765.8,165.1c-20.2-7.5-45.4-7.9-82.5-5.5
		c-4.7,0.2-10.6,5.3-13.4-0.8c-1.6-5.5-1-11,1-15.5c1.4-1.4,2.2-3.3,3.7-4.3c13.4,2.7,28.9,1.4,43,1.2c0.4-3.5,0.2-7.7-0.8-11
		l-30.4,0.4c-5.7-2.9-4.9-10.4-4.9-16.1c0.6-1.6,1.6-3.1,3.3-4.5c9,1.4,20.8,1.4,30.8,1.4c0-4.5,2.5-8,5.7-10
		c2.9-0.8,6.7,0.8,7.8,4.1l-0.4,5.7l35.8-0.2c4.7-0.6-1.4,21.5-6.3,19.2h-29.5c-0.2,3.9,0.2,7.5,0,11l53.2-0.2
		C789.6,140,779.4,172,765.8,165.1z"/>
</g>
</svg>
