<?xml version="1.0" encoding="utf-8"?>
<!-- Generator: Adobe Illustrator 22.0.1, SVG Export Plug-In . SVG Version: 6.00 Build 0)  -->
<svg version="1.1" id="Layer_1" xmlns="http://www.w3.org/2000/svg" xmlns:xlink="http://www.w3.org/1999/xlink" x="0px" y="0px"
	 viewBox="0 0 996 383.1" style="enable-background:new 0 0 996 383.1;" xml:space="preserve">
<style type="text/css">
	.st0{fill:#FFFFFF;}
</style>
<g>
	<path class="st0" d="M242.3,95.2c0.4,5.3,0.6,10.7,0.3,16.4c-0.2,5.7-0.3,11.5-0.3,17.5c0.4,2.6,0.7,5.1,0.9,7.6
		c0.1,2.5-0.2,4.6-0.9,6.2c-0.7,1.7-2.1,3.4-3.9,5.2c-1.9,1.8-3.2,3.5-4.1,5.2c-1.6,1.7-2.9,3.4-3.9,5.2c-1,1.8-2.3,3.3-3.9,4.5
		c-2.8-0.8-5.9-1-9.3-0.7c-3.4,0.3-6.7,0.6-10,0.9h-13.1v0.8c-0.5-1.1-0.7-1.6-1-1.6v-1.2h-1.7l-0.9,1.2c0,0.8,0.2,1.2,0.6,1.2
		c0.4,0.1,1-0.5,1-0.5h0.9h-42h-1.6l0.9,1h1.6h0.3v-1.1c0,0-0.3-0.6-0.8-1c-0.5-0.4-0.8-0.6-1.2-0.6V160v-0.7v-1.1h1.7l0.7-0.5
		l-0.7-1.5h-1.6c0,0-0.8,0.6-0.9,0.7c-0.2,0.1-0.9,1.3-0.9,1.3h-0.3v0.6c-0.6,0-0.7,0.1-0.4,0.4l0.4,0.4c0,1-0.3,1.5-0.8,1.5
		l-0.6,0.6l1.5,0.8v0.6h-1.7c0,0.8,0.3,1.1,0.9,1.1c-1.2,0-2.4,0.1-3.6,0.2c-1.2,0.1-2.4,0.1-3.6-0.2v-30.1c2.4,0.5,4.7,0.5,7,0.2
		c2.3-0.3,4.2-0.1,5.9,0.7c0.8-7.1,1.2-14.8,1.4-23.3c0.1-8.4,0.2-17.1,0.2-26c0-8.9,0-17.7,0.1-26.6c0.1-8.8,0.3-17.1,0.8-25
		c-3.3-0.3-6.3-0.3-9,0.1c-2.7,0.4-5.1-0.2-7.2-1.7c1.2-4.4,1.7-9.3,1.4-14.7c-0.3-5.4-0.5-11-0.5-16.7c14.2,0.8,27.7,1.3,40.6,1.7
		c12.9,0.4,26.2,0.9,40.1,1.5c1.2,0,2.4,0,3.5-0.1c1.1-0.1,2.1,0.5,2.8,1.7V6c0-0.6-0.2-0.9-0.7-0.9l0.7,0.9l15.2,20.1
		c0,4.4,0,8.3-0.1,11.9c-0.1,3.5-0.1,6.9-0.1,10.2c0,3.2,0,6.4,0,9.6s0.1,6.6,0.2,10.2c-0.6,1.2-1.5,2.4-2.8,3.6
		c-1.3,1.2-2.5,2.4-3.7,3.6c-1.2,1.2-2.2,2.5-3,3.8c-0.8,1.4-1.1,2.8-0.8,4.3c0.1,1.2,0.6,2.3,1.5,3.4c0.8,1.1,1.8,2.1,2.8,3.1
		c1,1,2.1,1.9,3.2,2.8C240.6,93.4,241.5,94.3,242.3,95.2z M162.2,96.5c0.8,0,1.2-0.1,1.5-0.5c0.2-0.3,0.6-0.7,1-1.1
		c-1.1,0-1.6-0.2-1.6-0.7h-0.9c0.5,0,0.6,0.3,0.3,0.9C162.3,95.8,162.2,96.2,162.2,96.5z M168.7,78c0.3,0.3,0.8,0.4,1.4,0.2
		c0.6-0.1,0.9-0.8,0.9-2c-0.3,0-0.8,0.2-1.4,0.6C169,77.1,168.7,77.5,168.7,78z M173.5,87.7c-0.5,0.8-0.7,1.6-0.7,2.5
		c1.1,0,1.8-0.3,2.3-0.9h-1.6c0-0.3,0.1-0.6,0.3-1C174,87.9,173.9,87.7,173.5,87.7z M172.8,91.5c0,0.8,0.5,1.2,1.5,1.5
		c1,0.2,1.2-0.3,0.8-1.5c-0.3,0-0.6,0.1-0.8,0.3C174,92.1,173.5,92,172.8,91.5z M176.6,90c0.5-0.5,0.9-0.9,1.2-1.2
		c0.4-0.4,0.6-0.8,0.6-1.2c-0.9-0.8-1.6-0.9-2-0.5c-0.5,0.5-0.9,0.9-1.4,1.4c0.5,0,0.6,0.3,0.6,0.8C175.5,89.7,175.9,90,176.6,90z
		 M177.1,83.4v1.8c0.5,0.3,1,0.5,1.6,0.5c0.6,0,0.9-0.1,0.9-0.5c-0.3-0.5-0.6-0.9-0.8-1.2C178.5,83.6,178,83.4,177.1,83.4z M180,90
		c0,0.8,0.1,1.2,0.5,1.4c0.3,0.2,0.7,0.2,1.1,0.2C181.6,90.5,181.1,90,180,90z M208.9,34.4c-3.9-0.5-7.8-0.6-11.5-0.3
		c-3.8,0.2-7.5,0.3-11.1,0.3c0.5,5.7,0.6,11.5,0.5,17.3c-0.2,5.8,0,11.9,0.5,18.2c3.2-0.8,6.6-1.4,10.2-1.9
		c3.6-0.5,7.2-0.9,10.8-1.2c0-5.7,0.1-11,0.3-15.7S208.9,40.7,208.9,34.4z M187.2,135.2c4.1-0.5,8.3-0.6,12.8-0.6
		c4.4,0.1,8.5-0.3,12.3-1c-0.5-2.1-0.6-4.3-0.6-6.7c0.1-2.3,0-4.7-0.3-7.1c-0.6-3.6-1-7.4-1.1-11.3c-0.2-3.9-0.8-7.2-2-9.7
		c-0.5,0.5-0.8,0.9-1,1.2c-0.2,0.4,1,1.2,1,1.2h-4.1l0.7-0.9l0.9-0.7l-0.9-0.4h-0.7h-1.6c-0.6-0.5-1.6,0.4-1.6,0.4v0.6h1v1v0.7
		c-2.8,0-5.2,0-7.6,0.1c-2.4,0.1-4.8,0.3-7.2,0.8c-0.3,2.9-0.5,5.5-0.5,8c0,2.5,0,5,0.1,7.6c0.1,2.6,0.1,5.2,0.2,7.9
		C187.2,129.1,187.2,132,187.2,135.2z"/>
	<path class="st0" d="M344.1,129.3h0.3c0.3,0,0.4,0.2,0.4,0.7l5.6,34.3h-22.6c0,0-3.7-8.9-4.7-13.7c-1.1-4.8-2.4-9.4-4.1-13.8
		c-4.4,0-9.2-0.1-14.6-0.5c-5.4-0.3-10.4-0.5-15.3-0.5c-2.1,4.4-3.5,9-4.2,13.9c-0.7,4.9-1.5,9.8-2.4,14.6c-3.9,0-8,0.2-12.2,0.6
		c-4.2,0.4-8.7,0.2-13.6-0.6l5.6-38.9c0.8,0.8,1.8,0.8,3.2,0c-0.8-0.5-1.4-0.6-1.8-0.5c-0.5,0.2-0.9,0-1.4-0.5
		c1.7-9.6,3.1-19.5,4.2-29.6c1.1-10.1,2.4-20.3,4-30.7l2.5-17.9c0.3-1.7,0.9-3,1.8-4c0.9-1,1.4-2.3,1.4-4c0.8-2.6,1.3-5.2,1.6-7.8
		c0.3-2.6,0.8-5.2,1.6-7.6c1.2-3.6,2.2-7.2,2.9-10.8c0.8-3.6,1.1-7.2,1.1-11h6.6c-0.5,0.4-0.8,0.5-0.9,0.3c-0.2-0.1-0.5-0.2-0.9-0.2
		c0,0.8,0.5,1,1.5,0.8c1-0.2,1.8-0.5,2.6-0.8c0.5,0,0.6,0.2,0.5,0.5c-0.2,0.3,0,0.7,0.5,1.1c0.3-0.5,0.6-0.8,0.9-0.9
		c0.3-0.1,0.2-0.4-0.2-0.8h16.3c2.9-0.3,5-0.6,6.6-0.8c1.5-0.1,2.6,1.2,3.2,4.1l2.3,12c0.8,1.7,1.4,3.4,1.9,5.3
		c0.5,1.9,1,3.7,1.5,5.3c0,0.3-0.2,0.4-0.5,0.3c-0.3-0.1-0.5,0,0,0.3v0.9c-0.4-0.6-0.7-0.9-1.3-0.9c-0.5,0-0.7,0.5-0.7,0.5v0.5
		l-1-0.9v0.9c0,0-0.5,0.1-0.9,0.2c-0.4,0.2-0.6,0.6-1.1,1.4v1h1.4h0.7l-0.7,0.6l0.6-0.7v0.7c-0.4,0.8-1,1.6-1,1.6v0.9l2-0.9v0.5
		c0,0,0.2,0.5,0.7,0.5c0.9,0,1.4-0.3,1.6-0.9c0.1-0.6,0.2-1.1-0.3-1.6v-0.6h-2h0.7c0.5-0.5,0.9-0.8,1.2-1c0.4-0.1,0.6-0.4,0.6-0.7
		l1.6,5.4c2.7,9.5,4.9,19.2,6.4,29.2c1.6,9.9,3.4,19.9,5.5,29.8c0,1.1-0.2,1.6-0.7,1.6c0.8,1.2,1.4,2.7,1.8,4.5
		c0.5,1.8,0.9,3.5,1.4,5.2c0.5,3.6,1,7.3,1.6,11.1c0.6,3.8,0.9,7.3,0.9,10.6C344.8,127.9,344.1,129.3,344.1,129.3z M290.7,7.7
		l-0.7,1.6h1.6h2.4V7.7l1,0.9V7.3h-1V6.1l-0.8,1.1h-0.9h-0.5c-0.2-0.2-0.3-0.2-0.5,0C291.3,7.4,291,7.5,290.7,7.7z M295.7,105.3
		c2,0.3,4.8,0.4,8.5,0.2c3.7-0.1,6.7-0.2,9.2-0.2c-1.2-7.2-2.5-14.4-3.7-21.5c-1.3-7.1-3-13.6-5.1-19.7c-1.7,6.5-3.4,13.1-5.1,20
		C297.7,91.1,296.5,98.1,295.7,105.3z M327.8,150.3h1.8h0.7l2.5,0.9l-0.9-2.5c-0.5-0.5-1.2-0.7-2.3-0.5h-0.9h-0.9l-1.8-1.1v0.9
		c0.6,0.8,0.9,1.2,1.1,1.4C327.3,149.5,327.5,149.6,327.8,150.3z"/>
	<path class="st0" d="M467.2,63c0,0.3-0.3,0.6-0.8,0.8c-0.5,0.2-0.8,0.7-0.8,1.5c0.7,1.2,1.2,3.3,1.4,6.4c0.1,3.1-0.1,6-0.7,8.9
		c-0.2,0-0.2,0.2-0.2,0.4c0,0.3,0,0.6-0.1,0.9c-0.1,0.3-0.1,0.6-0.1,0.9c-0.2,0.2-0.2,0.4-0.2,0.9c0.7,2.9,0.9,5.9,0.6,9.1
		c-0.4,3.2-0.6,6.6-0.6,10.2c0,5.3,0,10.6-0.1,16.1c-0.1,5.5-0.3,10.8-0.8,16.1h-0.7v0.6v0.9l-0.9-0.9c-0.3,0-0.8,0.2-1.5,0.6
		c-0.7,0.4-1,0.7-0.7,1v1.8l0.5-1h0.9c0.1,0.2,0.3,0.2,0.5,0.1c0.1,0,1.1-0.9,1.1-0.9v0.9l1-0.9v0.9c0.2,0,0.2,0.2-0.1,0.7
		c-0.3,0.5-0.6,0.5-0.9,0.2c-0.2,0-0.3-0.1-0.5-0.2c-0.3,0-0.5,0.1-0.5,0.2c0,0.8,0.2,1.1,0.6,1.1c0.4,0,0.7-0.4,1-1.1
		c0.5,1.7,0.3,3-0.5,4c-0.8,1-1.1,2.1-1.1,3.3c-0.8,2.4-0.8,5-0.1,7.8c0.7,2.8,1,5.8,1,9h-29.2c-2.9-5.7-5.6-11.3-8.1-17.1
		c-2.6-5.8-5.5-11.3-8.8-16.6c0-0.8,0.1-1.3,0.5-1.6c0.3-0.3,0.5-0.9,0.5-1.8c-4.1-5.3-7.3-11.1-9.8-17.5c-2.5-6.4-5.2-12.6-8-18.6
		c-1.7,11.8-2.4,23.6-2.1,35.6s0.1,24.3-0.3,37c-2.4,0.2-7.9,0.8-7.9,0.8s-5.8,0-8.7,0s-5.8,0-8.5-0.1c-2.7-0.1-5.1-0.1-7-0.1
		c-1.2-3.3-2.2-7.1-2.9-11.4c-0.8-4.3-0.3-8.3,1.4-11.9c-0.6-5.3-1.4-10-2.5-14.3c-1.1-4.2-1.4-9.2-0.9-14.9c0.3-4.4,0.6-8.6,1-12.8
		c0.4-4.1,0.6-8.2,0.6-12.1c0-2.9,0.1-5.7,0.5-8.5c0.3-2.8,0.5-5.6,0.5-8.5c0-0.1,0.1-0.4,0.5-0.7c0.1,0,0.3-0.1,0.5-0.2
		c-0.6,0-0.9-0.1-0.9-0.2c-0.2-0.1-0.2-0.3,0-0.5c0-9.5,0-18.9,0.1-28.3c0.1-9.4-0.5-19.3-1.7-29.9c3.2-0.8,6.6-0.9,10.2-0.5
		c3.6,0.5,7.2,0.3,10.9-0.5c0.3,0,0.8-0.1,1.5-0.3c0.7-0.2,1.2-0.3,1.7-0.3c0.8,0,1.5,0.1,2.4,0.3c0.8,0.2,1.6,0.3,2.4,0.3
		c0.8,0.5,1.5,0.5,2.4,0.2c0.8-0.3,1.4-0.1,1.7,0.7c0.5-1.2,1.1-1.7,1.8-1.5c0.8,0.2,1.5,0.2,2.3-0.1c0.8,1.7,1.2,3.1,1.5,4.3
		c0.2,1.2,0.6,2.4,1,3.6h-0.9v0.6c0,0-0.3,0.7-0.7,0.7c0-1.1-0.3-1.8-0.9-2.3c-0.5,0.8-0.5,1.3-0.1,1.7c0.4,0.4,0.1,0.6-0.8,0.6
		c0.9,0,1.1,0,0.5,0.1c-0.6,0.1-0.8,0.3-0.5,0.8c0.5,0.5,0.8,0.4,0.9-0.1c0.1-0.5,0.5-0.8,0.9-0.8c0,0.5,0.1,0.8,0.3,0.9
		c0.2,0.2,0.3,0.5,0.3,0.8h-1.6c0,0.4,0.1,0.6,0.5,0.7c0.3,0.2,0.5,0.5,0.5,0.9c0.3-0.8,0.6-1.4,1-1.9c0.4-0.5,0.6-1,0.6-1.5
		c0,1.1,0.1,2,0.2,2.9c0.1,0.9,0.6,1.8,1.4,2.7c0.3,1.2,0.9,2.1,1.9,2.8c1,0.7,1.7,1.6,2.1,2.8c2.1,2.9,3.8,6.1,5.2,9.7
		c1.4,3.6,2.9,6.9,4.5,9.7c1.2,4.8,3.1,9.8,5.7,14.9c2.6,5.1,4.7,10.1,6.3,14.9c1.2-3.3,1.4-6.6,0.5-9.7s-1.6-6.4-2-9.7
		c0-1.2,0.1-2.5,0.5-4c0.3-1.4,0.5-2.7,0.5-4c0.3-7.7,0.5-14.8,0.5-21.4c0-6.6,1.1-20.1,1.1-20.1h34.6c0.7,5.3,0.8,11,0.2,17.1
		c-0.6,6.2-0.9,12.2-0.9,18.2c-0.5,3.3-0.6,6.8-0.3,10.6C464,57.9,465.1,60.9,467.2,63z M380.9,64.2c0,0.3,0.4,0.5,1.2,0.5
		c0.8,0,1.2-0.1,1.2-0.5c-0.5,0-0.9-0.1-1.4-0.3C381.6,63.6,381.2,63.7,380.9,64.2z M392.9,70.3h1.8c-0.2-0.1-0.2-0.4-0.2-0.7
		c-0.2-0.6-0.4-0.9-0.7-0.9l-0.5,0.5C393,69.4,392.9,69.8,392.9,70.3z M393.8,68.3c0.5,0,1-0.2,1.6-0.7c0.6-0.5,0.9-1.1,0.9-1.8
		c-0.8,0-1.5,0.3-2.1,0.9C393.5,67.3,393.3,67.8,393.8,68.3z M409.2,63.3c0.8,0,1.1-0.3,1.1-1c0-0.7,0.5-0.9,1.4-0.6l-1.8-1.6
		c0,0.8-0.1,1.3-0.3,1.6C409.3,62,409.2,62.5,409.2,63.3z M411.9,58.3h-1.8v1.6C411.3,59.8,411.9,59.3,411.9,58.3z M416.4,72.1
		c0-0.5,0.1-0.8,0.5-0.9c0.3-0.1,0.5-0.5,0.5-0.9h-1.8c0,0.5,0,0.8,0.1,0.9C415.7,71.3,415.9,71.6,416.4,72.1z"/>
	<path class="st0" d="M478,164.3l2.5-30.5c1.7,0,3.7-0.1,5.9-0.3c2.2-0.2,4.7-0.1,7.3,0.3c1.2-5.7,1.9-11.2,2.1-16.6
		c0.2-5.4,0-10.3-0.5-14.8c0-0.4,0.5-0.7,1.6-0.7c0-0.4-0.3-0.6-0.8-0.6c-0.5,0.1-0.8-0.3-0.8-1c0.4-3.8,0.6-7.2,0.4-10.4
		c-0.2-3.6-0.4-7.1-0.4-10.7c0-2.5,0-5.3-0.1-8.5c-0.1-3.3-0.2-6.7-0.2-10.3c-0.1-3.6-0.1-7.2-0.1-10.8c0-3.6,0.2-6.9,0.5-10.1
		c0.5,0,0.5-0.3,0.1-0.8c-0.4-0.5-0.1-0.8,0.8-0.8c-0.5-0.4-0.7-1-0.8-1.7c-0.1-0.7-0.1-1.2-0.1-1.7c-2.9,0.4-5.8,0.7-8.8,0.9
		c-2.9,0.2-5.2-0.4-6.9-1.6c1.2-4.8,1.7-9.7,1.4-14.7c-0.3-5-0.5-10.5-0.5-16.5c12,0,23.9,0.2,35.8,0.6c11.8,0.4,23.8,0.9,35.8,1.7
		c0.5,0.9,1.1,1.3,2,1.1c0.8-0.1,1.9-0.2,3.1-0.2l1.6,1.6c0.3-0.3,0.2-0.6-0.2-0.8c-0.5-0.2-0.7-0.8-0.7-1.7
		c1.2,0.4,2.3,1.2,3.1,2.2c0.8,1,1.5,1.9,2,2.7l4.8,5.6c0.5,0.4,1.1,1.1,1.8,2c0.8,0.9,1.6,1.9,2.4,2.9c0.8,1,1.7,2.1,2.4,3.2
		c0.8,1.1,1.3,2.1,1.6,3c1.1,2.8,1.3,6,0.8,9.6c-0.5,3.6-0.8,7-0.8,10.3v63.9c-0.6,0-0.9-0.1-0.9-0.2c-0.2-0.1-0.2-0.3,0-0.4
		c-0.3,0.7-0.3,1.2-0.1,1.2c0.2,0.1,0.6-0.1,1-0.6v13.7l-0.9-0.9h-1.1v0.9c-0.2,0.2-0.2,0.3-0.2,0.5c-0.2,0.2-0.4,0.2-0.7,0.2
		c-0.2,0.2-0.2,0.4-0.2,0.7c0,0.3,0,0.6-0.1,0.9c-0.1,0.3,0,0.6,0.3,0.9c0.5,0,0.9-0.2,1.2-0.6c0.4-0.4,0.8-0.7,1.2-1
		c0,2.9,0.1,5.7,0.2,8.4c0.1,2.7,0.1,5.3-0.2,7.7c0,3.5-1.5,6.5-4.5,8.9c-1.5,1.7-3,3.4-4.5,5.2c-1,1.8-2,3.4-3,4.8
		c-1.1,1.4-2.2,2.8-3.4,4c-1.2-0.3-2.7-0.3-4.4-0.1c-1.7,0.2-3,0.2-3.7-0.1v-1.3c-0.8,0-1.3,0.1-1.5,0.3c-0.2,0.2-0.5,0.5-0.8,0.8
		h-39.7h-10.6c-0.5-0.3-0.8-0.2-1.2,0.2c-0.3,0.4-0.5,0.3-0.5-0.4c-2.9,0.7-6.2,1-9.9,0.7C484.2,164.4,480.9,164.3,478,164.3z
		 M508.6,61.3h-1.6v1.6c0.3-0.5,0.6-0.8,1-0.9C508.4,61.8,508.6,61.6,508.6,61.3z M508.2,31.2c0.3,0.3,0.3,0.5-0.1,0.7
		c-0.4,0.2-0.3,0.5,0.1,0.9c0.8,0,1.2,0.3,1.2,1c0.1,0.7,0.7,0.9,1.9,0.6c0.5,0,0.7-0.3,0.8-0.9c0.1-0.6,0.1-1.1,0.1-1.6
		c-0.8-0.3-1.4-0.4-2-0.3C509.6,31.6,508.9,31.5,508.2,31.2z M514.7,48.1c0.8-1.7,0.6-2.9-0.5-3.6c-1.1-0.8-1.7-1.7-2-2.9l-1.6,1.6
		c0.3,0.5,0.8,0.8,1.4,1c0.6,0.2,0.9,0.7,0.9,1.5c-0.8,0.8-1.4,1.1-2,1.1c-0.6,0-1.5,0.5-2.7,1.4c1.7,0.3,2.9,0.2,3.8-0.5
		C512.9,47.1,513.8,47.2,514.7,48.1z M512.9,15.8c-0.8,0-1.2,0.3-1.5,0.9c-0.2,0.6-0.5,1.1-0.8,1.6c0.3,0,0.8-0.2,1.4-0.7
		C512.6,17.2,512.9,16.6,512.9,15.8z M510.6,66.7c1.1,0,1.6-0.3,1.6-0.9c0-0.5-0.3-0.6-0.8-0.6C510.9,65.3,510.6,65.8,510.6,66.7z
		 M515.7,42.5c0.5-0.9,0.5-1.5,0-1.8c-0.5-0.3-0.7-0.3-0.7,0v0.7C515.1,41.7,515.3,42,515.7,42.5z M518.5,37.5
		c-0.3,0-0.9-0.2-1.8-0.6c-0.9-0.4-1.4-0.2-1.4,0.6c0.5,0.5,0.9,0.8,1.4,1c0.5,0.2,0.3,0.7-0.5,1.5c0.8-0.5,1.2-0.9,1.5-1.2
		C518,38.4,518.2,38,518.5,37.5z M517.9,78c-0.5-0.5-0.6-1-0.5-1.6c0.1-0.6,0-0.9-0.5-0.9c-0.3,0.3-0.4,0.8-0.3,1.5
		C516.7,77.6,517.1,78,517.9,78z M541.1,31.9c-2.1,0.5-4.5,0.6-7.1,0.5c-2.6-0.1-4.8,0-6.4,0.5c0,17.8,0,34.8,0.1,51.2
		c0.1,16.3,0.3,33.4,0.6,51.2c2.6,0,5.5-0.1,8.8-0.2c3.3-0.1,6-0.6,8.1-1.4l-1.6-23.5c-0.2-2.4-0.5-4.8-0.9-7.1
		c-0.5-2.3-0.7-4.6-0.7-6.7c0-0.1,0.1-0.3,0.2-0.5c0.3-0.3,0.5-0.7,0.5-1.1c0-0.3-0.2-0.5-0.6-0.7c-0.4-0.1-0.2-0.5,0.6-0.9
		c-1.1,0-1.6-0.2-1.6-0.7c0-1.2,0.3-2.6,0.8-4.1c0.5-1.5,0.8-2.9,0.8-4.1c-0.3-3.2-0.8-6.2-1.4-9c-0.6-2.9-0.9-5.7-0.9-8.6
		c0-5.7,0.3-11.3,0.9-16.8C542,44.3,541.9,38.4,541.1,31.9z"/>
	<path class="st0" d="M683.4,111.7c0,0.4-0.2,0.9-0.4,1.2c-0.3,0.4-0.4,0.8-0.4,1.2c-0.2,2.4-0.2,5.6-0.2,9.7c0,4,0.1,8.2,0.2,12.6
		c0.1,4.3,0.2,8.5,0.2,12.5c0,4-0.1,7.1-0.2,9.3c-0.2,1.6-0.9,2.7-2.1,3.1c-1.3,0.4-2.6,0.7-4.1,0.7c-1.5,0-2.9-0.1-4.4-0.2
		c-1.4-0.1-2.4,0-3,0.4h-32.2c-1.2,0.3-3.1,0.6-5.6,0.9c-2.5,0.3-4.6,0.2-6.3-0.2c-1.2,0-2.2-0.1-3.1-0.3c-0.9-0.2-1.7-0.3-2.5-0.3
		c-5.2,0.3-10.5,0.4-15.9,0.4c-5.4,0-10.2-0.1-14.6-0.4c0-5.7-0.1-10.7-0.3-15.1c-0.2-4.4-0.1-9.2,0.3-14.4c1.2,0,2.5-0.1,4-0.4
		c1.5-0.3,3.1-0.4,4.7-0.4c0.7,0,1.5,0.3,2.4,0.9c0.8,0.6,1.7,0.9,2.6,0.9c0.3,0.3,0.8,0.5,1.6,0.6c0.7,0.1,1.5,0.1,2.2,0.1h0.9v1.6
		v0.4h-1v1.2l-0.3,0.7c-0.2,0.2-0.2,0.5-0.2,1.1l0.7,0.7c1.1,0,1.9-0.5,2.5-1.6l0.9-1.1h-1.5c0-0.5,0.3-0.7,0.9-0.7v-3.2
		c0,0.5,0.5,0.7,1.6,0.7c3.7,0,7.4,0.2,11.3,0.5c3.9,0.3,7.4,0.5,10.6,0.5c0.8,0,1.6-0.1,2.5-0.5c0.9-0.3,1.7-0.5,2.5-0.5
		c1.2,0,2.3,0.2,3.2,0.5c0.9,0.3,2,0.5,3.2,0.5c1.7,0,3.5-0.1,5.4-0.3c1.9-0.2,3.7-0.1,5.4,0.3l-2.5-29.2c-0.5-0.3-0.4-0.5,0.1-0.6
		c0.5-0.1,1-0.1,1.5-0.1c-1.2-0.5-2.2-1.9-3-4.4c-0.8-2.5-1.1-4.8-1.1-6.9c0-0.8,0.1-1.4,0.5-2c0.3-0.6,0.5-1.3,0.5-2
		c-2.2-0.8-4.1-1.1-5.9-1c-1.8,0.1-4,0.1-6.6,0.1v-0.5v-0.9v-0.7c0.3-0.6-2-0.9-2-0.9V87c-0.4,0-0.7,0.5-0.7,1.6l0.7,0.7h-2.2
		c0-0.3,0.3-0.4,0.8-0.4c0.5,0,0.6-0.4,0.1-1.1c-0.7-0.3-1.4-0.1-1.9,0.6c-0.5,0.7-0.9,1-1.2,1c-4.8-0.3-10.4-0.2-16.8,0.3
		c-6.5,0.5-12.3,1-17.5,1.5c-1.6-1.6-2.9-3.4-3.9-5.3c-1-1.9-2-3.6-3.2-5.3c-1.2-1.6-2.8-3.3-4.7-4.8c-1.9-1.6-3.3-3.4-4-5.5
		c-0.4-2.8-0.4-5.7,0-8.4c0.4-2.8,0.7-5.6,0.7-8.4c0-3.7,0-7.4,0-10.9c0-3.5,0-7.1,0-10.8c0-3.7,0.1-7.5,0.2-11.6
		c0.1-4,0.4-8.5,0.7-13.3c6.2,0,11.7,0.2,16.3,0.4c4.6,0.3,10,0.4,16.3,0.4l-2.2,40.9c0,0.8-0.2,1-0.6,0.7c-0.4-0.3-0.8-0.3-1.2,0
		c0.9,0.4,1.4,1,1.6,1.8c0.1,0.8,0.2,1.6,0.1,2.5c-0.1,0.9-0.2,1.8-0.4,2.8c-0.2,1-0.3,1.8-0.3,2.6c5.2,1.6,11.2,2.5,18,2.5
		c6.8,0,13-0.6,18.6-1.8c1.2-6.7,1.7-12.9,1.7-18.4c-0.1-5.5-0.1-11.1-0.1-16.6c0-0.4,0-0.8,0.1-1.1c0.1-0.3,0.3-0.2,0.8,0.2
		c-0.4-0.4-0.6-0.8-0.4-1.1c0.1-0.3,0-0.4-0.4-0.4c0.4-2.8,0.6-5.5,0.3-8.1c-0.2-2.5-0.3-5.2-0.3-7.9c4.5-0.4,9.5-0.4,15.1,0
		c5.6,0.4,11.2,0.7,16.8,0.7l1.6,8.8c0.4,15.4,0.5,31.6,0.2,48.4C684,80.8,683.7,96.7,683.4,111.7z M660.5,80.7l-0.5,0.5
		c-0.5,0.5-0.3,0.8,0.5,1.1h0.7c0.5-0.3,0.5-0.6,0.2-1C661.1,80.9,660.8,80.7,660.5,80.7z M662.7,23.1c-1.1,0-1.6,0.5-1.6,1.6
		C662.2,24.6,662.7,24.1,662.7,23.1z M661.2,85.2c0,0.3,0.4,0.5,1.2,0.5c0.8,0,1.2-0.1,1.2-0.5c-0.5-0.5-0.9-0.6-1.2-0.3
		C662,85.1,661.6,85.2,661.2,85.2z M664.3,55.4c0.5,0,1.3-0.5,2.6-1.5c1.3-1,1.5-1.8,0.8-2.6c-0.8,0.8-1.5,1.3-2.3,1.7
		C664.7,53.4,664.3,54.2,664.3,55.4z M666.8,65.8c0.5-0.5,0.5-0.9,0.2-1.5c-0.3-0.5-0.6-0.6-0.9-0.1
		C666.1,65.2,666.4,65.8,666.8,65.8z"/>
	<path class="st0" d="M691,165c-0.6-0.2-1-1.3-1.1-3.5c-0.2-2.2-0.2-4.7-0.1-7.7c0.1-2.9,0.2-5.9,0.5-8.8c0.2-2.9,0.5-5.2,0.8-6.7
		c0.1-4.1,0.2-7.9,0.1-11.5v-11.3c0.2-3.9,0.1-8.2,0-12.8c-0.1-4.6-0.1-9.9,1-15.9V44.1c-0.9-1.4-0.8-3.8-1-7.3V25.5
		c0.2-3.9,0.2-7.6,0.3-11c0.1-3.4,0.2-5.7,0.3-6.9c0.1-1.1,1-1.6,2.5-1.6c1.5,0,3.2,0.2,5,0.5c1.8,0.3,3.6,0.5,5.3,0.6
		c1.7,0.1,2.9-0.3,3.5-1c5.3-0.3,10.4-0.5,15.3-0.6c4.9-0.1,15.3-2.3,15.3-2.3h1.6v0.9v0.9l0.2-0.5c0.3-0.3,0.5-0.8,0.5-1.4
		c6.3,0,13.3-0.6,20.9-1.8c7.6-1.2,15.2-1.7,22.9-1.4c0,5.3-0.4,10.6-1.1,16.1c-0.8,5.4-0.4,10.9,1.1,16.3c-2.3,0.6-4.8,0.9-7.5,1
		c-2.7,0.1-5.6,0-8.7-0.1c-3.1-0.1-6.3-0.3-9.6-0.3c-3.3-0.1-6.6,0-9.7,0.1c-4.4,0.3-8.8,0.6-13.1,1c-4.4,0.4-8.4,0.6-12,0.6
		c0,4.5,0.2,8.7,0.6,12.4c0.4,3.8,0.7,7.5,1,11.1h-0.7c-0.6,0-1.1,0.2-1.6,0.7v1.2c0,0-0.5,1-0.2,1.1l0.5,1h0.7
		c0.5-0.6,0.8-0.7,0.9-1c0.1-0.3,0.4-0.7,0.2-1.1v9.7c0.5,2.9,0.2,5.8-0.5,8.7c-0.7,2.9-0.9,6.2-0.6,9.8c0,0.3,0.1,0.8,0.5,1.6
		c0.3,0.8,0.5,1.3,0.5,1.6c0.3,3.3,0.2,6.8-0.3,10.5c-0.5,3.7-0.9,7.2-1.2,10.5c-0.3,3.6-0.7,7.2-1.1,10.7c-0.5,3.5-0.7,7-0.7,10.3
		c0.9,1.2,2.7,1.7,5.3,1.5c2.6-0.2,6.9,0.2,6.9,0.2h-0.9l1.8,0.6c0,0.8,0.4,0.9,1.1,0.5c0.8-0.5,1.1-0.8,1.1-1.1
		c2.9,0,5.7-0.1,8.5-0.5c2.8-0.3,5.6-0.5,8.5-0.5c2.6,0,5.1,0,7.7-0.1c2.6-0.1,4.8-0.3,6.8-0.6c0.9,0,1.8-0.3,2.6-0.9
		c0.8-0.6,1.6-0.9,2.4-0.9c1.7,0,3.3,0.2,4.9,0.5c1.6,0.3,3.2,0.5,4.9,0.5c-0.5,2.4-0.5,5.1-0.2,8.1c0.3,3,0.1,5.1-0.7,6.3
		c0.5,2.9,0.6,5.9,0.3,9c-0.2,3.2-0.3,5.8-0.3,7.9c-6.5-0.5-13-0.6-19.7-0.3c-6.6,0.2-14,0.3-22.1,0.3c-2.9,0-5.8,0-8.9,0.1
		c-3.1,0.1-6.1,0.1-8.9,0.1c-1.2,0-3.3,0.1-6.3,0.2c-3,0.1-6.2,0.3-9.6,0.3c-3.4,0.1-6.6,0.1-9.5,0.2C694,165.2,692,165.1,691,165z
		 M701.4,62.6c-1.1,0-1.6,0.2-1.6,0.7c0,0.6,0.3,0.9,0.9,0.9c0.3,0,0.5-0.1,0.6-0.2C701.3,63.8,701.4,63.4,701.4,62.6z M706.4,122.3
		c-0.5-0.5-0.9-0.4-1.5,0.1c-0.5,0.5-0.6,1-0.3,1.5c0.9,0,1.4-0.2,1.6-0.6C706.3,122.9,706.4,122.6,706.4,122.3z M706.4,47.3h-1.8
		c0,0.5,0.3,0.8,0.9,0.9C706.1,48.3,706.4,48,706.4,47.3z M705.5,120.5c0.8,0,1.3,0.1,1.7,0.2c0.4,0.2,0.3-0.1-0.1-0.9
		c-0.3,0-0.5,0.1-0.7,0.3C706.2,120.4,705.9,120.5,705.5,120.5z M713.6,65.8c0-0.5-0.3-0.7-0.9-0.8c-0.6-0.1-1.1-0.1-1.6-0.1
		c0,1.2,0.5,2.1,1.4,2.8c0.9,0.7,1.5,1.4,1.8,2.1c0.5,0,0.6-0.3,0.5-0.8c-0.2-0.5,0-0.8,0.5-0.8c-0.8,0-1.2-0.2-1.4-0.7
		C713.7,67.1,713.6,66.5,713.6,65.8z M713.6,34.4c-0.5,0-0.8,0.1-0.9,0.3c-0.2,0.2-0.4,0.3-0.7,0.3c-0.5,0.9-0.3,1.2,0.5,0.9
		C713.2,35.6,713.6,35.1,713.6,34.4z"/>
	<path class="st0" d="M856,139.2l1.8,24.9c-11.3-0.9-22.1-1.1-32.4-0.5c-10.3,0.6-20.5,0.8-30.6,0.5c0-5.3,0.1-10.6,0.2-15.9
		c0.1-5.3,0.6-10.2,1.4-14.6c1.7-0.5,3.4-0.5,5.3-0.1c1.9,0.4,3.7,0.4,5.3,0.1c0.3-5.3,0.6-10.1,1-14.6c0.4-4.4,0.6-9.3,0.6-14.6
		c0.3-0.8,0.8-0.8,1.5-0.2c0.7,0.6,1.2,0.7,1.7,0.2c0-0.6-0.2-1-0.5-1.1c-0.3-0.1-0.7-0.3-1.1-0.3c-0.5-0.1-0.8-0.1-1.1-0.2
		c-0.3-0.1-0.5-0.3-0.5-0.8c0.3-6.8,0.5-13.8,0.6-21c0.1-7.2,0.1-14.7,0.1-22.4c0-0.6,0.5-0.9,1.6-0.9c0-0.8-0.3-1.1-0.8-1
		c-0.5,0.1-0.8-0.1-0.8-0.6c0-1.2,0-2.3,0.1-3.4c0.1-1.1,0.3-1.8,0.8-2.3c-0.8-2.1-0.9-4.5-0.6-7.2c0.4-2.7,0.6-5.7,0.6-8.8
		c-1.7-0.3-4-0.3-7,0c-3,0.3-5.5,0.3-7.5,0l1.6-29.8c6.5-0.5,13.8-0.5,21.9-0.1c8.1,0.4,15.9,0.1,23.3-0.8c2.9-0.3,5.5-0.6,7.8-1
		c2.3-0.4,7.9-0.6,7.9-0.6v32.2h-19c-0.3,15.6-0.6,31.6-1,47.9c-0.4,16.3-0.6,33.2-0.6,50.5c3.3,0.5,6.5,0.6,9.6,0.3
		c3.1-0.2,9-0.3,9-0.3v4.6h-1.7h-0.3v1.1c-0.4,0.8-0.2,1.2,0,1.5c0.2,0.2,0.3,0.5,0.3,0.5h0.7l0,0h0.5
		C855.8,139.9,856,139.7,856,139.2z M815.7,24c0.3,0.3,0.6,0.4,1,0.3c0.4-0.1,0.6-0.5,0.6-1.2c0,0.5-0.3,0.6-0.8,0.5
		C816,23.4,815.7,23.5,815.7,24z M824.6,11.3H823c0,0.9,0.4,1.4,1.1,1.4C824.9,12.6,825,12.2,824.6,11.3z M825.5,42.5l-2.5-1.8
		c0,1.7,0.3,2.7,0.9,3.2c0.6,0.5,1.1,1.1,1.6,1.8c0.3,0,0.5-0.2,0.7-0.6c0.1-0.4,0.5-0.7,0.9-1c-0.8,0-1.2-0.2-1.4-0.6
		C825.5,43.1,825.5,42.8,825.5,42.5z M825.5,88.4c0.8,0.3,1.2,0.2,1.4-0.3c0.1-0.5,0.2-0.9,0.2-1.2c-0.8,0-1.2,0.2-1.4,0.5
		C825.5,87.5,825.5,87.9,825.5,88.4z M831.1,48.1c0.3,0.3,0.6,0.3,1,0.1c0.4-0.2,0.6-0.6,0.6-1c-0.8-0.5-1.2-0.5-1.4-0.2
		C831.2,47.3,831.1,47.7,831.1,48.1z M833.1,51.3v-1.6c-0.5,0-0.8,0.1-0.9,0.3c-0.2,0.2-0.4,0.3-0.7,0.3
		C831.5,51,832,51.3,833.1,51.3z M833.4,26.2c0.5,0.5,1,0.6,1.6,0.6c0.6-0.1,0.9-0.5,0.9-1.2c-0.3-0.5-0.8-0.5-1.5-0.2
		C833.7,25.6,833.4,25.9,833.4,26.2z M836.8,152.1c1.1,0,1.6-0.3,1.6-0.9l-0.9-0.9c0,0.5-0.1,0.8-0.3,0.9
		C836.9,151.4,836.8,151.7,836.8,152.1z M842.6,13.3h-1.6v0.9c0-0.5,0.3-0.6,0.8-0.5C842.4,13.9,842.6,13.7,842.6,13.3z M844,154.4
		c0.3-0.3,0.6-0.6,1-0.8c0.4-0.2,0.6-0.7,0.6-1.5c-0.8,0-1.3,0.3-1.7,0.9C843.5,153.6,843.5,154.1,844,154.4z"/>
	<path class="st0" d="M87.2,347.3h0.3c0.3,0,0.4,0.2,0.4,0.7l5.6,34.3H71c0,0-3.7-8.9-4.7-13.7c-1.1-4.8-2.4-9.4-4.1-13.8
		c-4.4,0-9.2-0.1-14.6-0.5c-5.4-0.3-10.4-0.5-15.3-0.5c-2.1,4.4-3.5,9-4.2,13.9c-0.7,4.9-1.5,9.8-2.4,14.6c-3.9,0-8,0.2-12.2,0.6
		c-4.2,0.4-8.7,0.2-13.6-0.6l5.6-38.9c0.8,0.8,1.8,0.8,3.2,0C8.1,343,7.5,342.8,7,343c-0.5,0.2-0.9,0-1.4-0.5
		c1.7-9.6,3.1-19.5,4.2-29.6c1.1-10.1,2.4-20.3,4-30.7l2.5-17.9c0.3-1.7,0.9-3,1.8-4c0.9-1,1.4-2.3,1.4-4c0.8-2.6,1.3-5.2,1.6-7.8
		c0.3-2.6,0.8-5.2,1.6-7.6c1.2-3.6,2.2-7.2,2.9-10.8c0.8-3.6,1.1-7.2,1.1-11h6.6c-0.5,0.4-0.8,0.5-0.9,0.3c-0.2-0.1-0.5-0.2-0.9-0.2
		c0,0.8,0.5,1,1.5,0.8c1-0.2,1.8-0.5,2.6-0.8c0.5,0,0.6,0.2,0.5,0.5c-0.2,0.3,0,0.7,0.5,1.1c0.3-0.5,0.6-0.8,0.9-0.9
		c0.3-0.1,0.2-0.4-0.2-0.8h16.3c2.9-0.3,5-0.6,6.6-0.8c1.5-0.1,2.6,1.2,3.2,4.1l2.3,12c0.8,1.7,1.4,3.4,1.9,5.3
		c0.5,1.9,1,3.7,1.5,5.3c0,0.3-0.2,0.4-0.5,0.3c-0.3-0.1-0.5,0-0.2,0.3v0.9c-0.3-0.6-0.6-0.9-1.2-0.9c-0.5,0-0.8,0.5-0.8,0.5v0.5
		l-1-0.9v0.9c0,0-0.4,0.1-0.8,0.2c-0.4,0.2-0.6,0.6-1.2,1.4v1h1.6h0.7l-0.7,0.6l-0.6-0.7v0.7c0.8,0.8,1,1.6,1,1.6v0.9l1-0.9v0.5
		c0,0,0.4,0.5,0.8,0.5c0.9,0,1.4-0.3,1.6-0.9c0.1-0.6,0.2-1.1-0.4-1.6v-0.6h-1.8h0.7c0.5-0.5,0.9-0.8,1.2-1c0.4-0.1,0.6-0.4,0.6-0.7
		l1.6,5.4c2.7,9.5,4.9,19.2,6.4,29.2c1.6,9.9,3.4,19.9,5.5,29.8c0,1.1-0.2,1.6-0.7,1.6c0.8,1.2,1.4,2.7,1.8,4.5
		c0.5,1.8,0.9,3.5,1.4,5.2c0.5,3.6,1,7.3,1.6,11.1c0.6,3.8,0.9,7.3,0.9,10.6C88,345.9,87.2,347.3,87.2,347.3z M33.9,225.7l-0.7,1.6
		h1.6h2.3v-1.6l1,0.9v-1.3h-1v-1.1l-0.7,1.1h-0.9H35c-0.2-0.2-0.3-0.2-0.5,0C34.4,225.4,34.2,225.5,33.9,225.7z M38.9,323.3
		c2,0.3,4.8,0.4,8.5,0.2c3.7-0.1,6.7-0.2,9.2-0.2c-1.2-7.2-2.5-14.4-3.7-21.5c-1.3-7.1-3-13.6-5.1-19.7c-1.7,6.5-3.4,13.1-5.1,20
		C40.9,309.1,39.6,316.1,38.9,323.3z M71,368.3h1.8h0.7l2.5,0.9l-0.9-2.5c-0.5-0.5-1.2-0.7-2.3-0.5h-0.9H71l-1.9-1.1v0.9
		c0.8,0.8,1.1,1.2,1.2,1.4C70.4,367.5,70.7,367.6,71,368.3z"/>
	<path class="st0" d="M199.1,233.8c0.5,2.7,0.5,4.6,0.4,5.8c-0.1,1.1-0.2,2-0.3,2.6c-0.2,0.6-0.3,1.2-0.3,1.7
		c-0.1,0.5-0.1,1.5-0.1,2.8c0,0.3,0.1,0.5,0.5,0.5c-2.3,4.2-4.6,8.3-6.9,12.2c-2.3,3.9-4.9,8.2-7.8,12.9c-0.8,1.2-1.4,2.6-1.9,4.1
		c-0.5,1.5-1.2,2.9-1.9,4.1c-1.1,2.1-2.5,4.7-4.2,7.8c-1.7,3.1-3.7,6.4-5.8,9.8l-8.1,12.9c-0.9,1.4-2.4,3.7-4.4,6.9
		c-2,3.2-4.4,6.9-7,10.8c-2.6,4-5.3,8.1-8.1,12.3c-2.8,4.2-5.3,8-7.6,11.3c1.5,0.5,3.4,0.8,5.8,1.1c2.3,0.3,4.5,0.5,6.4,0.5
		c0.1,0,0.9-0.1,2.4-0.2c1.4-0.1,3.2-0.3,5.2-0.5c2-0.1,4.2-0.3,6.4-0.5c2.3-0.1,4.2-0.2,5.9-0.4h14c0.1,0.2,0.9,0.3,2.4,0.4
		c1.4,0.2,3,0.3,4.6,0.6c1.7,0.2,3.2,0.4,4.6,0.6c1.4,0.2,2.2,0.2,2.4,0.2c1.1,0,1.6-0.2,1.6-0.2v27.9c-1.2-0.3-2.3-0.5-3.3-0.5
		c-1,0-1.8,0-2.6,0h-18.5c-3.6,0-6.2,0-7.7,0c-1.5,0-2.9,0-4.1-0.1c-1.2-0.1-2.9-0.1-5-0.2c-2.1-0.1-5.5-0.2-10.2-0.3
		c-1.2,0-2.3,0-3.4-0.1c-1.1-0.1-2.1,0-3.2,0.3l-0.2,0.5l-0.2-0.5c-0.8-0.3-1.8-0.5-3.1-0.5c-1.3,0-2.5,0.1-3.5,0.2
		c-1.8,0-4,0-6.4,0.1c-2.5,0.1-4.9,0.2-7.1,0.5c-2.3,0.2-4.2,0.4-5.8,0.6c-1.6,0.2-2.5,0.2-2.6,0.2c-2.3,0-4-0.3-5.1-0.9
		c-1.1-0.6-1.6-2.6-1.5-6.1c0.1-5.7,0.1-9.6,0-11.7c-0.2-2.1-0.2-3.3-0.2-3.6c0-1.8,0.1-2.9,0.2-3.4c0.1-0.9,0.3-1.8,0.3-2.6
		c0.1-0.8,0.3-1.5,0.6-1.9c3.2-6.3,6.7-12.4,10.6-18.3c3.9-5.9,7.5-12,10.8-18.3l21.2-40.4c0.5-0.9,1.4-2.4,2.8-4.5
		c1.4-2.1,3-4.4,4.7-7c1.7-2.6,3.4-5.1,5.1-7.7c1.7-2.6,3-4.8,4.1-6.8c-1.7-0.5-3.4-0.6-5.3-0.6c-1.9,0.1-3.7,0.1-5.3,0.1H134
		c-0.2,0-1.3,0.1-3.4,0.2c-2.1,0.2-4.4,0.3-6.9,0.6c-2.5,0.2-4.7,0.4-6.8,0.6c-2,0.2-3.1,0.2-3.3,0.2c-1.7,0-3.4-0.1-5.1-0.5
		c-1.7-0.3-3.4-0.9-5.1-1.8c0-1.7,0.4-3,1.2-4.2c0.8-1.1,1.2-2.3,1.2-3.5c0-0.3-0.2-0.6-0.5-1c-0.3-0.4-0.5-0.7-0.5-1v-13.1
		c0,0,0.4-0.7,0.7-1.1c0.3-0.5,0.5-0.8,0.5-0.9c0-0.3-0.2-0.8-0.7-1.6c-0.5-0.8-0.7-1.3-0.7-1.6c0-0.6,0.3-1.1,0.9-1.4
		c0.6-0.3,1.3-0.5,2.1-0.6c0.8-0.1,1.6-0.1,2.3-0.4h1.2c0.1,0.3,0.7,0.3,1.6,0.4c0.9,0.1,1.9,0.2,3.1,0.2c1.1,0.1,2.3,0.2,3.6,0.2
		c1.3,0.1,2.4,0.1,3.3,0.1c-0.2,0.2-0.8,0.4-1.8,0.7c0.5,0.3,0.9,0.3,1.4,0c-0.2,0.5,0,0.9,0.5,1.5c0.5,0.5,0.7,1.2,0.7,1.9
		c0.6-0.3,0.9-0.6,0.8-1c-0.1-0.4,0.3-0.6,1-0.8c-0.3-0.3-0.7-0.6-1.1-1c-0.5-0.4-0.6-0.7-0.5-1c0.1-0.1,0.5-0.2,0.9-0.2
		c4.4,0,7.4,0.2,9,0.7c1.7,0.5,3,0.7,4.1,0.7c0.1,0,0.7,0,1.7-0.1c1-0.1,2.1-0.1,3.3-0.2c1.2-0.1,2.3-0.1,3.3-0.2
		c1-0.1,1.7-0.8,1.7-0.8h6.8c0,0,4.2,1,6.3,1.6c0.5,0.2,0.6,0.5,0.6,1.1c-0.1,0.6,0.3,1.3,1.2,2c0.5,0,0.7-0.2,0.7-0.7
		c0-0.3-0.1-0.6-0.2-0.8c-0.2-0.2-0.3-0.6-0.5-1c3.2-0.1,5.8-0.3,7.8-0.6c2-0.2,3.8-0.5,5.4-0.7c1.6-0.2,3.1-0.4,4.5-0.6
		c1.4-0.1,3.1-0.2,5.1-0.2c2.4,0,5,0.2,7.8,0.6c2.8,0.4,4.6,1.5,5.5,3.5c0.1,0.5,0.3,1.2,0.3,2.1c0.1,1,0.1,2.1,0.2,3.3
		c0.1,1.2,0.1,2.4-0.4,3.5V233.8z M120.9,360l0.2-0.2c-0.2-0.3-0.4-0.6-0.7-0.8c-0.3-0.2-0.5-0.3-0.5-0.1c-0.8,0.8-1,1.2-0.7,1.4
		h1.4C120.8,360.3,120.9,360.2,120.9,360z M123.1,364.5V364c-0.3-0.3-0.6-0.5-0.9-0.5c-0.3,0-0.6,0.1-0.8,0.2
		c-0.2,0.2-0.5,0.3-0.8,0.5c0.1,0.3,0.4,0.5,0.7,0.6c0.3,0.1,0.5,0.1,0.7,0.1C122.4,364.9,122.8,364.8,123.1,364.5z M131.1,343.9
		v0.7l1.1-0.7L132,343C131.4,343,131.1,343.3,131.1,343.9z M140.6,331.8l-0.2-0.7c-0.8,0.3-1.6,0.7-2.6,1.1c-1,0.5-1.8,1.1-2.4,2
		h0.9c0.3,0,1-0.3,2.1-1S140.3,332.1,140.6,331.8z M150.1,182.3h1.8l0.7-2h-0.7c2.4,0.5,4.9,0.7,7.3,0.8c2.5,0.1,4.6,0.1,5.8,0.1
		v27.3c-1.7,0.5-4,0.6-6.3,0.3c-2.3-0.2-4.9-0.3-7.8-0.3c0-1.1,0.3-1.8,0.9-2.3l0.7-1.8l-1.6,0.9c-0.8,0-1.2,0.3-1.4,1
		c-0.2,0.7-0.2,1.4-0.2,2.1c-4.2-0.6-8-0.6-11.3,0v-15.4c0-1.4,0-2.8-0.1-4.4c-0.1-1.6-0.1-3.1,0-4.4c0.1-1.4,0.2-2.4,0.5-3.2
		c0.2-0.8,0.6-1.1,1.2-0.9h8.1C148.7,181.5,149.5,182.1,150.1,182.3z M176.7,264.1l-0.5-0.5c-1.4,0.3-2.1,0.8-2.3,1.6h1.6
		c0.1,0,0.4-0.1,0.7-0.5C176.6,264.5,176.7,264.3,176.7,264.1z M182.4,255.5c-0.5,0.3-1,0.7-1.7,1.1c-0.7,0.5-1.2,0.7-1.5,0.7h-0.7
		c0.1,0.2,0.6,0.2,1.4,0.2C181.3,257.5,182.1,256.8,182.4,255.5z"/>
	<path class="st0" d="M357.3,226.3h0.8v-3.7c3.8,0,7.4,0,11.1-0.1c3.7-0.1,11.9-0.8,11.9-0.8v32.3v42c-4.2,0.5-8.4,0.7-12.9,0.8
		c-4.5,0.1-9.1,0-13.7-0.1c-4.6-0.1-9.2-0.3-13.7-0.5c-4.5-0.1-8.7-0.2-12.4-0.2c-1.1,5.3-1.6,10.6-1.6,16s0.1,10.9,0.5,16.4
		c0.3,5.5,0.6,11.1,0.8,16.7s0,11.3-0.6,16.8c-0.3,3.2-0.6,6.3-0.9,9.3c-0.3,3-0.2,6.3,0.2,9.9c-2.4,0-5.1,0-8.1-0.1
		c-3-0.1-6.1-0.1-9.4-0.1c-3.2,0-6.5,0.1-9.7,0.2c-3.2,0.2-6.3,0.5-8.5,0.9v-12.9c-0.6-2.1-0.8-4.3-1.1-6.6
		c-0.3-2.3-0.5-4.7-0.5-7.2c0-0.8,0.1-1.8,0.5-3.3c0.3-1.4,0.5-2.7,0.5-4c0.5-1.7,0.7-3.3,0.8-4.9c0.1-1.6,0.1-3.2,0.1-4.9
		c0.5,0.6,1,0.9,1.6,0.9c0.8,0,1.3-0.1,1.7-0.2c0.4-0.1,0.6-0.6,0.6-0.9h-0.7c0-1.1-1.6-1-1.6-1h-1.6c0,0,0.1-19.5-0.7-29.4
		c-0.8-9.9-0.5-19.8,0.7-29.7c-1.2-4.1-1.5-8.6-0.8-13.7c0.7-5,1.2-10.4,1.5-16.2c0.3-4.5,0.3-8.9,0.1-13.2
		c-0.2-4.3-0.5-8.5-0.8-12.5c3.6,0,7.6,0,12-0.1c4.4-0.1,9-0.3,13.8-0.8c0.5,0,0.7,0.2,1,0.5v0.5c-0.6,0-0.8,0.2-1,0.6
		c-0.2,0.4-0.5,0.7-0.9,1c-0.2,0.2-0.2,0.3,0,0.5c0,0.6,0.3,1,0.9,1.7h0.7h0.5c0.3-0.6,0.5-0.8,0.5-1.2c0.3,0,0.4-0.2,0.2-0.6
		c-0.2-0.4-0.8-1-0.8-1v-0.9c0,0,3.9-0.7,5.5-0.8c1.6-0.1,3.4-0.1,5.5,0.5h9.7c0.8-0.6,1.4-0.4,2-0.1c0.6,0.4,1.3,0.8,2,1.2
		c1.7,0,3.4,0,5.2-0.1c1.8-0.1,3.5-0.3,5-0.8v0.9c-0.3,0.5-0.5,1-0.5,1.6l0.7,0.7l0.9-0.4h0.7h0.9
		C356.8,225,357.3,225.2,357.3,226.3z M296.7,361.1c1.2,0,1.8-0.2,1.8-0.7c-0.9,0-1.4,0-1.6,0.1
		C296.8,360.6,296.7,360.8,296.7,361.1z M299.2,273.4c0.8-0.5,1.4-0.8,1.8-1.1c0.5-0.3,0.7-1.1,0.7-2.3c-1.2,0-1.9,0.4-2.1,1.1
		C299.3,271.9,299.2,272.6,299.2,273.4z M310.5,303.2c1.2,0.3,2,0,2.5-0.9c0.5-0.9,0.7-1.7,0.7-2.5c-1.2,0-1.8,0.3-1.9,1
		C311.7,301.5,311.3,302.3,310.5,303.2z M310.5,328.1c0.8,0,1.2-0.2,1.4-0.6c0.1-0.4,0.2-1,0.2-1.9
		C311,325.6,310.5,326.4,310.5,328.1z M310.5,331.2c0.5,0,0.8-0.3,1-0.8c0.2-0.5,0.2-0.8-0.1-0.8c0,0.5-0.2,0.8-0.5,0.9
		C310.7,330.7,310.5,330.9,310.5,331.2z M312.1,328.1c0.8,0,1.2-0.1,1.4-0.5c0.1-0.3,0.2-0.7,0.2-1.1c-0.3,0-0.5,0.2-0.7,0.6
		C312.9,327.4,312.6,327.8,312.1,328.1z M313.7,294.2c0.5,0.5,0.8,0.5,1.1,0.2c0.3-0.3,0.2-0.6-0.2-0.9
		C314,293.5,313.7,293.7,313.7,294.2z M322.7,287.8c0.3,0,0.7-0.2,1.1-0.6c0.5-0.4,0.8-0.7,1.1-1c-0.3,0-0.7,0-1.2-0.1
		c-0.5-0.1-0.6-0.3-0.3-0.8c-0.3,0-0.5,0-0.7,0.1c-0.2,0.1-0.5,0.3-0.9,0.8C322.4,286.3,322.7,286.8,322.7,287.8z M347.7,263.7
		c0.5-2.1,0.7-4.3,0.8-6.6c0.1-2.3,0.1-4.7,0.1-7.2c-3.6-0.3-7.5-0.5-11.6-0.7c-4.1-0.1-8.1,0.4-11.9,1.6v10.4
		c3.8,0.8,7.7,1.4,11.8,2C340.9,263.8,344.5,264,347.7,263.7z M329.1,269.3c0.5,0.3,1,0.4,1.6,0.3c0.6-0.1,0.9-0.5,0.9-1.2
		C329.9,268.4,329.1,268.7,329.1,269.3z M333.2,281.3c0.5,0,0.9,0.1,1.2,0.3c0.4,0.2,0.8,0.1,1.2-0.3c0-0.3-0.3-0.4-0.8-0.3
		c-0.5,0.1-0.8,0-0.8-0.3v-0.9C333.5,280.3,333.2,280.8,333.2,281.3z M333.1,283.8c0,0.5,0.5,0.8,1.5,0.9c1,0.2,1.3-0.1,1-0.9
		c-0.5-0.5-0.8-0.6-1-0.3S333.9,283.8,333.1,283.8z M337.2,281.3c1.1,0,1.6-0.8,1.6-2.3c-0.8-0.9-1.5-1.1-2.3-0.6
		c-0.8,0.5-1.4,0.9-1.8,1.2c0.8,0,1.2,0.4,1.2,1.1C336,281.6,336.4,281.7,337.2,281.3z M337.1,275.6v0.9c0,0.3,0.4,0.5,1.2,0.5
		c0.8,0,1.2-0.1,1.2-0.5c-0.5,0-0.8-0.1-1-0.5C338.3,275.8,337.8,275.6,337.1,275.6z M340.4,282.2c-0.5,0.5-0.2,0.7,0.9,0.7
		C341.3,282.4,341,282.2,340.4,282.2z M353.2,291.9c0,0.3,0.4,0.3,1.1,0.1c0.8-0.2,0.9-0.6,0.5-1c-0.2-0.1-0.5-0.2-0.9-0.2
		C353.5,290.8,353.2,291.2,353.2,291.9z M355.7,273.4c0,0.3,0.4,0.5,1.2,0.5c0.8,0,1.2-0.1,1.2-0.5c-0.5,0-0.8-0.1-0.9-0.2
		c-0.3,0-0.6,0-0.8-0.1C356.3,273,356,273.1,355.7,273.4z"/>
	<path class="st0" d="M477.4,286.3c-0.2,1.2,0,2.3,0.3,3.3c0.4,1,0.8,2.3,1.2,4c0,2.4-0.2,4.9-0.5,7.6c-0.3,2.6-0.5,5.2-0.5,7.8
		c0,4.4,0,8.8,0,13.3s-0.2,9.4-0.7,14.7c-0.3,3.3-0.5,6.3-0.7,8.8c-0.2,2.6,0.1,5.3,0.7,8.1c0,0.5,0.1,1,0.3,1.7
		c0.2,0.7,0.3,1.2,0.3,1.7c0,1.2-0.3,2.4-0.8,3.6c-0.5,1.2-0.8,2.4-0.8,3.6c-0.3,2.9-0.2,5.8,0.5,8.8c0.6,3,0.8,6,0.5,8.8
		c-1.2,0.3-2,0.2-2.4-0.2c-0.4-0.5-0.9-0.7-1.7-0.7c-4.1,0-7.8-0.4-11.1-1.1c-3.3-0.8-6.6-1.1-9.9-1.1c-2.9,0.3-5.8,0.7-8.8,1.1
		c-3,0.5-6,0.3-8.8-0.5c-0.3-0.1-0.5-0.5-0.5-1.1c0-0.6-0.1-1.2-0.2-1.9c-0.2-0.7-0.3-1.4-0.6-2c-0.2-0.7-0.6-1.1-1.2-1.2
		c0.8-0.5,1-1.3,0.8-2.6c-0.2-1.3-0.5-2.3-0.8-3.1c0.8-1.2,0.9-2.6,0.6-4.2c-0.4-1.6-0.6-3.4-0.6-5.5c0-1.2,0.1-2.2,0.3-3.1
		c0.2-0.8,0.3-1.4,0.3-1.7c-0.3-1.2-0.8-1.8-1.4-1.9c-0.6-0.1-0.9-0.6-0.9-1.5c3.2-0.8,6.3-1.1,9.3-0.9c3,0.2,5.6,0.2,7.7,0.2
		c0.8-1.2,1-2.4,0.8-3.7c-0.2-1.3,0-1.9,0.8-1.9c-0.8-4.8-1-10.4-0.8-16.8c0.2-6.4,0.2-12.6-0.1-18.6c-0.5-9.9-0.9-19.5-1.4-28.8
		c-0.5-9.3-0.5-18.2-0.2-26.8c-2.6-0.8-4.7-1.2-6.6-1.2c-1.8-0.1-3.6,0-5.3,0.1c-1.7,0.2-3.5,0.4-5.4,0.7c-1.9,0.3-4.2,0.5-6.9,0.5
		c-0.3,8.4-0.3,16.7,0.1,24.9c0.4,8.1,0.8,16.2,1.2,24.1c0.5,7.9,0.8,15.7,1,23.5c0.2,7.8,0,15.6-0.8,23.4c0.5,0.6,1.1,1,1.8,1.2
		c0.8,0.2,1.5,0.5,2.3,0.7c0.8,0.2,1.4,0.6,2,1c0.6,0.5,1,1.1,1.1,2c-0.3,0-0.8-0.1-1.4-0.3c-0.6-0.2-0.9-0.1-0.9,0.3
		c0.3,2.4,0.6,5,1,7.9c0.4,2.9,0.3,6.1-0.3,9.7c0,0.5-0.1,1.1-0.3,1.8c-0.2,0.8-0.3,1.5-0.3,2.3c0,0.8,0.4,1.5,1.1,2.4
		c0.8,0.8,1.1,1.6,1.1,2.4c-5.7,0.8-11.8,0.9-18.1,0.6c-6.3-0.4-12.1-0.6-17.4-0.6c-1.7-16-2.7-31.8-3.1-47.5
		c-0.4-15.7-0.7-31.3-1-46.8c-0.2-6.5,0.3-13.1,1.5-19.8c1.1-6.7,1.5-13.3,1-19.8c-0.3-4.4-0.8-8.5-1.6-12.3
		c-0.8-3.8-0.8-7.8,0-11.9c10.1,0,20.8,0,32.1-0.1c11.3-0.1,22.1-0.3,32.5-0.6c3.2-0.5,6.3-0.6,9.5-0.3s6.2,1.2,9,2.8
		c0.6,2.4,0.8,4.9,0.7,7.3c-0.2,2.5-0.4,5-0.7,7.5c-0.3,2.5-0.5,5-0.7,7.5c-0.2,2.5,0.1,4.9,0.7,7.3c0,0.9,0.3,1.8,0.9,2.6
		c0.6,0.8,1.1,1.8,1.4,3.1c0.5,2.1,0.2,4.3-0.7,6.7c-0.9,2.3-1.2,4.7-0.9,7.1c0,0.8,0.3,1.4,0.8,2c0.5,0.6,0.8,1.3,0.8,2
		c0,1.7-0.2,3.3-0.6,4.9C477.1,283,477.1,284.6,477.4,286.3z M400.5,330.6c0,0.3,0.3,0.3,1,0.1c0.7-0.2,0.9-0.6,0.6-1
		C401,329.7,400.5,330,400.5,330.6z M403.6,301.4c0.3-0.3,0.6-0.5,1-0.7c0.4-0.1,0.6-0.5,0.6-0.9c-0.8-0.3-1.3-0.2-1.7,0.3
		C403.1,300.7,403.2,301.1,403.6,301.4z M406.8,250.8c0-0.8-0.3-1.3-1-1.7c-0.7-0.4-1.4-0.3-2.1,0.1c0,0.8,0.3,1.2,1,1.4
		C405.3,250.7,406,250.8,406.8,250.8z M404.1,259.7v1.6h1.6C405.6,260.2,405.1,259.7,404.1,259.7z M405.2,264.3
		c-0.5,0.5-0.2,0.7,0.8,0.7c1,0,1.2-0.2,0.8-0.7c0-0.3-0.2-0.4-0.5-0.2C406,264.3,405.7,264.3,405.2,264.3z M410.9,230.7l-3.2,3.8
		c0.8,0,1.7-0.5,2.7-1.4C411.5,232.2,411.6,231.4,410.9,230.7z M409.3,243.5c0,0.3,0.1,0.6,0.2,1c0.1,0.4,0.6,0.6,1.4,0.6
		c0.5-0.5,0.5-0.9,0.1-1.5C410.6,243.1,410,243.1,409.3,243.5z M410.9,293.5c0.5,0.3,1,0.3,1.6,0.1c0.6-0.2,0.9-0.6,0.9-1
		c-0.8,0-1.3-0.4-1.6-1.1c-0.3-0.8-0.8-1.1-1.6-1.1c-0.5,0.8-0.3,1.4,0.3,1.8C411.2,292.6,411.3,293,410.9,293.5z M452.9,362.6
		c0-0.8,0.1-1.3,0.3-1.6c0.2-0.3,0.3-0.8,0.3-1.6c-0.8-0.3-1.4-0.3-2,0.1c-0.6,0.4-1.5,0.3-2.7-0.1c0.3,0.8,0.4,1.2,0.2,1.5
		c-0.2,0.2-0.2,0.6-0.2,1c0.8,0,1.4,0,2,0.1C451.5,362.2,452.1,362.3,452.9,362.6z M457,350.7c0.3-0.5,0.4-0.9,0.2-1.2
		c-0.2-0.4-0.2-0.8-0.2-1.2c-1.2,0-1.8,0.5-1.8,1.6c0.5,0,0.8,0.2,0.9,0.5C456.2,350.5,456.5,350.7,457,350.7z M463.3,366.3h-1.6
		c0,0.5,0.3,0.8,0.8,0.9C463,367.3,463.3,367,463.3,366.3z"/>
	<path class="st0" d="M680.7,257.6c-5.7,7.8-11.9,15.2-18.4,22.1c-6.6,6.9-13.3,13.8-20.2,20.6c7.2,11.3,14.5,22.3,21.8,33.1
		c7.3,10.8,14.6,21.7,21.8,32.7c-5.1,2.1-10,4.5-14.7,7.2c-4.7,2.7-9.4,5.2-14.2,7.5c-1.2-1.7-2.5-3.1-3.8-4.4
		c-1.4-1.3-2.6-2.7-3.6-4.4c-0.8-1.2-1.4-2.4-2-3.6c-0.6-1.2-1.3-2.6-2-4.1c-2.1-4.4-4.8-8.4-8.1-12.1c-3.3-3.7-6.5-7.5-9.5-11.4
		c-0.3-0.3-0.4-0.7-0.4-1.1c0,0.5,0.9,0.7,0.9,0.7h1v0.2v1.1l0.1-0.5c0.1-0.1,0.5-0.2,0.9-0.2c0.8-0.1,2-0.9,2-0.9v-0.7l-0.8-0.2
		c-1.2-0.9-2.4-1.3-3.7-1.1l-0.5,0.2v0.2c0.1,0.2,0.1,0.3,0.1,0.6c0,0.2,0.1,0.3,0.2,0.3c-0.3-0.3-0.4-0.7-0.4-1.1
		c-3-3-5.7-6.3-8-9.8c-2.3-3.5-4.6-7.1-6.9-11.1h-7.8c-2.6,0.4-4.9,0.3-6.7,0.2c-0.2,3.9-0.3,8.3-0.3,13.1c-0.1,4.8-0.2,9.8-0.3,15
		c-0.2,5.2-0.4,10.4-0.7,15.5c-0.3,5.1-0.8,9.9-1.4,14.5c-6.3-0.3-12.1-0.4-17.2-0.2c-5.1,0.2-10.2,0.1-15.1-0.2
		c0.8-10.5,1.2-22,1.4-34.2c0.1-12.3,0.5-25,1.1-38.3c0.3-6.8,0.3-13.4,0.1-19.8c-0.2-6.4,0-12.8,0.6-19.1c0.8,0,1.4-0.1,1.9-0.2
		c0.5-0.1,0.9-0.1,1,0.2c0.3-0.3,0.1-0.6-0.5-1c-0.6-0.4-1.3-0.6-2-0.6c-0.5-2.3-0.4-4.3,0.1-6.2c0.5-1.9,0.5-3.8-0.1-5.8
		c-0.2-0.6-0.5-1.2-0.9-1.7c-0.5-0.5-0.8-1.2-0.9-1.9c-0.6-2.6-0.6-5.5,0-8.8c0.6-3.3,1.1-6.5,1.4-9.5c0-1.2-0.1-2.4-0.2-3.7
		c-0.2-1.3-0.1-2.6,0.2-4c0.5-0.5,1-0.5,1.7,0c0.7,0.5,1.3,0.7,1.9,0.7c0.5,0,0.9-0.2,1.5-0.7c0.5-0.5,1.2-0.8,1.9-0.9
		c0.6-0.1,1.2-0.1,1.9,0.1c0.7,0.2,1.4,0.3,2.1,0.3c3,0,6.3-0.2,9.7-0.7c3.5-0.5,6.9-0.4,10.2,0.2c0.3,1.4,0.5,2.8,0.6,4.2
		c0.1,1.4-0.3,2.6-1,3.5c-0.2,0.8,0.1,1.1,0.9,1c0.8-0.1,1.1,0.2,1.1,0.8c0.1,3.9,0.1,8.1,0,12.5c-0.2,4.4-0.3,9-0.6,13.8
		c-0.2,4.7-0.4,9.5-0.5,14.2c-0.1,4.7,0,9.3,0.3,13.7c1.2,0.5,2.5,0.7,3.8,0.7c1.3,0,2.9,0.1,4.7,0.2c1.6,0,3.4,0.1,5.3,0.2
		c1.9,0.2,3.5,0.1,4.8-0.2c0.6-0.3,1.3-0.9,2.2-1.9c0.9-1,1.8-2.1,2.8-3.3c1-1.2,1.9-2.4,2.8-3.5c0.9-1.1,1.6-2,2-2.6
		c4.8-5.9,9.9-11.6,15.2-17.3c5.3-5.7,10.3-11.1,14.8-16.4c4.4,2.9,8.5,5.9,12.3,9.2C672.2,251.6,676.3,254.7,680.7,257.6z
		 M588,306.6c-0.2-0.8-0.2-1.4-0.1-1.9c0.1-0.5,0.2-1,0.3-1.5h-0.9c0.1,0.6,0.1,1-0.2,1.2c-0.3,0.2-0.7,0.4-1.1,0.6
		c-0.5,0.2-0.9,0.3-1.4,0.6c-0.5,0.2-0.7,0.6-0.7,1c0.9,0.2,1.6,0.2,2,0.1C586.5,306.7,587.1,306.6,588,306.6z M601.6,299.4
		c0.3,0.5,0.8,0.9,1.5,1.2c0.7,0.4,1.2,0.2,1.5-0.6c-0.3-0.3-0.8-0.7-1.5-1.1C602.4,298.5,601.9,298.6,601.6,299.4z M604.3,303.7
		c0.3,0.2,0.7,0.2,1.2,0c0.5-0.1,0.9-0.4,1-0.7c-0.2,0-0.5,0-1.1,0.1C604.8,303.2,604.5,303.4,604.3,303.7z M610.1,306.3h2.1
		c0-0.8,0.6-1.2,1.8-1.5c1.2-0.2,1.7-0.7,1.4-1.5c-0.3,0.5-0.7,0.7-1.1,0.7c0.1-0.9,0-1.5-0.5-1.8c-0.5-0.3-0.9-0.6-1.4-0.9
		c-0.6,0.8-1,1.5-1.3,2.1c-0.3,0.7-1,1-2.1,1c0.4,0.5,0.5,0.9,0.2,1.5c-0.3,0.5-0.5,1.1-0.7,1.7c0,0.3,0.4,0.5,1.3,0.5
		c0.1-0.3,0.1-0.7,0-1.1S609.8,306.3,610.1,306.3z M612.1,295.8v0.9c-0.8,0-1.6,0.2-2.2,0.6c-0.6,0.4-1,1.2-1,2.4
		c0.6-0.1,1-0.1,1.2,0.2c0.2,0.3,0.5,0.5,0.8,0.7c-0.1-0.8,0.2-1,1-0.8c0.8,0.2,1.2,0,1.2-0.8c-0.9-0.6-1.1-1.2-0.6-1.7
		c0.5-0.5,0.9-1,1-1.5c-0.2,0.2-0.3,0.2-0.5,0.2c-0.2,0-0.2,0.1-0.2,0.2l-0.2-0.2C612.4,296,612.2,295.9,612.1,295.8z M626,315.4
		c0.3,0.3,0.7,0.4,1.1,0.2c0.5-0.1,0.7-0.5,0.7-0.9c0-0.3-0.5-0.5-1.6-0.5c0.1,0.3,0.1,0.5,0,0.6C626.1,314.9,626,315.1,626,315.4z
		 M628.5,291.5c0.5-0.3,0.9-0.5,1.2-0.7c0.4-0.1,0.7-0.5,1-0.9c0-0.3-0.1-0.5-0.2-0.5c-0.2,0-0.2-0.1-0.2-0.5
		c-1.4-0.3-2.3,0.1-2.9,1.1c-0.3,0.8-0.3,1.4-0.1,2c0.2,0.6,0.3,1.3,0.1,2c0.3,0.2,0.5,0.1,0.6-0.1c0.1-0.2,0.3-0.3,0.8-0.3
		C628.9,293.6,628.8,292.8,628.5,291.5z M632.3,287.4c0.1-0.3,0.3-0.5,0.5-0.7c0.1-0.1,0.2-0.4,0.2-0.7c-0.6,0.3-1.5,0.4-2.6,0.2
		c-1.1-0.1-1.5,0.4-1.2,1.6c0.8,0,1.4-0.1,1.8-0.5C631.4,287.1,631.9,287.1,632.3,287.4z"/>
	<path class="st0" d="M776.8,283.8c-1.7-0.5-3.1-0.5-4.4,0c-1.3,0.5-2.8,0.5-4.4,0c1.2,8.1,2.7,16.3,4.5,24.5
		c1.8,8.2,3.7,16.5,5.5,24.7c1.9,8.3,3.7,16.5,5.5,24.7c1.8,8.2,4.5,24.5,4.5,24.5h-29.1l-7.2-23.5c-1.4-4.4-2.7-8.5-4.1-12.4
		c-1.4-3.9-2.4-7.8-3.2-11.8c0-1.2-0.1-2.1-0.2-2.7c-0.2-0.6-0.1-1.1,0.2-1.4c0-0.5-0.3-0.8-0.8-1c-0.5-0.2-0.8-0.7-0.8-1.5
		c-1.2-6.9-2.5-14.1-3.7-21.4c-1.3-7.3-3-14.4-5.1-21.4h-7.2c0,8.5,0.3,16.2,0.9,23.2c0.6,7,1.1,14.4,1.4,22.1
		c0.5,9.1,0.5,17.7,0.1,26c-0.4,8.3-1.2,16.5-2.4,24.7h-9.7h1v-2h-1h-0.9h-0.7c-0.6,0.3-0.9,0.5-0.9,0.8c-0.2,0.2,0.5,0.5,0.5,0.5
		v0.8h0.5h-5.7c-1.7-0.1-3.4,0-5.2,0.3c-1.8,0.2-3.3,0.1-4.5-0.3c-1.4-0.8-2.2-2-2.6-3.6c-0.4-1.7-0.5-3.5-0.5-5.6
		c0.1-2.1,0.2-4.3,0.5-6.4c0.2-2.2,0.3-4.2,0.1-6c0-1.7-0.5-3.2-1.4-4.7c-0.9-1.5-1.5-2.9-1.8-4.1c-0.6-2.4-0.5-5.3,0.3-8.6
		c0.8-3.3,1.2-6.3,1.2-9c0-6.3-0.2-12-0.5-17.1c-0.3-5-0.5-10.4-0.5-16.2c0-3.2-0.1-6.3-0.2-9.5c-0.2-3.2-0.1-6.2,0.2-9
		c0-0.8,0-1.3-0.1-1.6c-0.1-0.3,0.3-0.8,1-1.6c0-0.5-0.2-0.6-0.7-0.6c-0.5,0.1-0.5-0.3-0.2-1c0-7.2,0-15.8,0.1-25.7
		c0.1-9.9,0.3-19.8,0.8-29.9c7.2,0.2,14.7,0.2,22.4,0c7.7-0.1,15.3-0.3,22.9-0.5c7.6-0.1,15-0.3,22.3-0.5c7.2-0.1,14-0.1,20.3,0
		c-0.8,3.3-0.6,6.3,0.3,8.9c1,2.6,1.7,5.6,2.1,8.9c0.3,3.2,0.3,6.6,0,10.4c-0.3,3.8-0.3,7.2,0,10.4c0.1,2.4,0.6,5,1.4,7.8
		c0.8,2.8,1.2,5.4,1.5,7.9c0.2,2.5,0,4.7-0.7,6.6c-0.7,1.9-2.2,3.1-4.6,3.7c-1.2,0.3-2.4,0.2-3.6-0.2
		C779.2,284,778,283.8,776.8,283.8z M704.2,237c1.2,0.5,2.1,0.5,2.6,0c0.5-0.5,0.8-0.9,0.8-1.5c0-0.5-0.3-0.8-0.8-0.9
		c-0.5-0.1-1.2,0.5-1.9,1.7c-0.3,0-0.6-0.1-0.9-0.2C703.7,235.9,703.8,236.2,704.2,237z M704.1,243.5v0.7c0.3,0,0.6,0.1,1,0.2
		c0.4,0.2,0.6-0.1,0.6-0.9c0-0.5-0.2-0.6-0.6-0.3C704.7,243.4,704.4,243.5,704.1,243.5z M756.1,256.4c0.5-2.1,0.7-4,0.8-5.7
		c0.1-1.7,0.1-3.5,0.1-5.7c-3.3-0.5-6.7-0.6-10.3-0.3c-3.5,0.2-7.1,0.3-10.7,0.3c-0.5-0.5-0.6-1-0.6-1.6c0.1-0.6-0.3-0.9-1-0.9
		c-0.5,0.8-0.5,1,0,0.7c0.5-0.3,0.7-0.2,0.7,0.2v0.7c-1.7,0.8-3.1,1.1-4.4,1.1c-1.3,0-2.8,0.2-4.4,0.5c0,1.7,0.1,3.4,0.5,5.3
		c0.3,1.9,0.5,3.7,0.5,5.3C737.2,257,746.9,257,756.1,256.4z"/>
	<path class="st0" d="M884.8,374.6c0,1.7,0.2,3.1,0.6,4.3c0.4,1.2,0.2,2.2-0.6,2.9c-4.1,0-8.2,0-12.3,0.1c-4.1,0.1-7.8-0.3-11-1
		c0-0.5-0.3-0.7-0.9-0.7h-0.9h-0.7v0.7c-0.6,0.6-1.7,0.9-3.2,0.9c-0.5-0.5-1.1-0.5-2-0.2c-0.9,0.3-1.4,0.1-1.4-0.7
		c-1.7,0.5-3.4,0.9-5.2,1.4c-1.8,0.5-3.3,0.3-4.5-0.5c-0.3,0-0.7,0-1.1,0.1c-0.5,0.1-0.8,0.1-1.1,0.1c-6.9,0.3-13.3,0.4-19.1,0.2
		c-5.8-0.2-11.6-0.2-17.3-0.2c-0.8-8.1-1.3-15.9-1.7-23.2c-0.4-7.3-0.3-14.4,0.1-21.4c0.5-5.7,0.5-11.5,0.1-17.3
		c-0.4-5.8-0.4-11.3-0.1-16.6c0.1-1.7,0.4-3.2,0.7-4.7c0.3-1.5,0.6-2.9,0.9-4.1c-0.6-1.8-0.9-3.5-1-5.2c-0.1-1.7,0-3.3,0.1-5
		c0.1-1.7,0.2-3.4,0.2-5.1c0-1.7-0.3-3.7-0.9-5.8c0.8-3.8,1.1-8.1,1.1-12.9c0-4.8-0.1-9.7-0.2-14.6c-0.2-4.9-0.1-9.6,0.1-14.1
		s0.9-8.4,2.1-11.5c2.9,0,5.7,0,8.5-0.1c2.8-0.1,5.6-0.3,8.5-0.8c5-0.1,10.2-0.3,15.7-0.5c5.5-0.1,11-0.2,16.4-0.1
		c5.4,0.1,10.8,0.3,16,0.8c5.3,0.5,10.2,1.2,14.9,2.3c0,4.8-0.2,10-0.5,15.6c-0.3,5.6-0.5,10.5-0.5,14.9c-3.6-1.8-7.5-2.9-11.8-3.3
		c-4.2-0.4-8.6-0.5-13.1-0.2c-4.5,0.2-9,0.5-13.6,0.9c-4.5,0.4-8.9,0.5-13.1,0.3c-0.9,5.3-1.2,10.8-1,16.7c0.2,5.9,0.6,11,1,15.4
		c2,0.5,4.2,0.4,6.7-0.1c2.5-0.5,4.8-0.2,6.9,1c0.5-0.5,0.5-0.7,0.1-0.8c-0.4-0.1-0.9-0.1-1.7-0.1c0.5-0.3,1.1-0.4,1.8-0.3
		c0.8,0.1,1,0.5,0.7,1.2c2.9-1.7,6.3-2.5,10.2-2.6c3.9-0.1,7.5-0.3,10.8-0.6c0.5,2.9,0.6,5.6,0.6,8.1c-0.1,2.6-0.2,5.1-0.2,7.7
		c-0.1,2.6-0.2,5.2-0.2,7.8c-0.1,2.6,0.1,5.5,0.6,8.5c-6.5,0.5-12.4,0.8-17.9,1.1c-5.4,0.3-11.5,0.5-18.3,0.5
		c0.8,6.3,0.8,12.5,0.2,18.6c-0.6,6.1-0.7,12.3-0.2,18.6c9.6,0,18.9,0.1,27.9,0.2c9,0.2,17.1,0.1,24.5-0.2c0.3,3.2,0.1,6.9-0.6,11.3
		C884.5,367,884.4,371,884.8,374.6z M814.5,326.7c-0.5,0.8-0.7,1.3-0.7,1.6h1.6C815.4,327.2,815.1,326.7,814.5,326.7z M815.4,331.2
		c0,0.5,0.4,0.7,1.2,0.7c0.8,0,1.2-0.2,1.2-0.7c-0.5-0.3-0.9-0.4-1.2-0.2C816.3,331.2,815.8,331.2,815.4,331.2z M817.9,301.4
		c0.5,0,1-0.1,1.6-0.3c0.6-0.2,1.2-0.5,1.7-0.9c0.5-0.4,0.9-0.8,1.1-1.2c0.2-0.5,0.1-0.9-0.3-1.4c-0.9,0.8-1.7,1.4-2.5,1.9
		C818.7,300,818.2,300.6,817.9,301.4z M819.5,310.4c0,1.1,0.5,1.6,1.6,1.6c0.5-0.5,0.5-0.9,0.1-1.5C820.8,310,820.2,310,819.5,310.4
		z M821,360.4c0.5,0.3,1,0.3,1.6,0c0.6-0.3,0.9-0.8,0.9-1.6c-0.8,0.3-1.2,0.1-1.5-0.6c-0.2-0.7-0.6-1-1-1c-0.5,0.8-0.4,1.4,0.2,1.8
		C821.9,359.5,821.8,359.9,821,360.4z M838.9,241.1c-0.6,0-0.9,0.2-0.9,0.5c-0.2,0.2-0.2,0.3,0,0.5c0.6,0,0.9,0.5,0.9,1.6
		c0.5,0,1-0.3,1.6-0.9c-0.5-0.3-0.8-0.5-1.1-0.5C839,242.2,838.9,241.8,838.9,241.1z M846.8,224.1c-0.3,0-0.6,0.1-1,0.2
		c-0.4,0.2-0.6,0.6-0.6,1.4c0.5,0.5,0.9,0.5,1.5,0.1C847.2,225.4,847.3,224.9,846.8,224.1z M849.3,235.7c0,0.5-0.2,0.9-0.5,1.2
		c-0.3,0.4-0.5,0.8-0.5,1.2c0.9-0.5,1.5-0.6,1.7-0.5c0.2,0.2,0.5,0,0.8-0.5h-0.5c-0.2,0-0.2-0.2-0.2-0.7c-0.2-0.1-0.2-0.3-0.2-0.5
		C849.7,235.8,849.4,235.7,849.3,235.7z M850.9,239.3h-2.5c0,0.8,0.5,1.2,1.6,1.5C851,241,851.3,240.5,850.9,239.3z M854,234.5
		c-0.8-0.3-1.4-0.2-1.8,0.3c-0.5,0.5-0.9,1-1.4,1.5c0.5,0,0.6,0.3,0.6,0.8c-0.1,0.5,0.3,0.8,1,0.8c0.5-0.5,0.8-0.9,1.1-1.4
		C853.9,236.1,854,235.4,854,234.5z M852.1,231.3v1.6c0.5,0,1,0,1.6-0.1c0.6-0.1,0.9-0.3,0.9-0.6c-0.5,0-0.8-0.1-1-0.5
		C853.3,231.5,852.8,231.3,852.1,231.3z M855.6,237.9c0,0.8,0.1,1.1,0.5,0.9c0.3-0.1,0.7-0.2,1.1-0.2
		C857.2,238.1,856.7,237.9,855.6,237.9z"/>
	<path class="st0" d="M918.8,219c13.2-0.8,26.4-1.5,39.4-2.3c13-0.8,25.6-1.4,37.8-1.8c-0.2,2.4-0.4,5-0.8,7.8
		c-0.4,2.8-0.7,5.6-0.9,8.4c-0.2,2.8-0.3,5.6-0.2,8.4c0.1,2.8,0.5,5.4,1.2,7.8c-2.1,0.6-4.5,1-7.2,1.1c-2.7,0.2-5.6,0.2-8.6,0.1
		c-3-0.1-6.1-0.2-9.1-0.5c-3.1-0.2-6.1-0.5-8.9-0.8h-27.1c-0.3,5.3-0.2,10.4,0.2,15.3c0.5,5,0.7,10.6,0.7,16.9l54.5,2.3l4.1,32.2
		c0.5,0.8,0.3,1.1-0.6,1.1c-0.8,0-1.2,0.5-1,1.4c0.3,6,0.3,11.7-0.1,17c-0.4,5.3-0.6,10.6-0.6,15.9c0,1.4,0.1,3.6,0.2,6.6
		c0.1,3.1,0.2,6.3,0.2,9.6c0,3.3-0.2,6.4-0.4,9.2c-0.3,2.9-0.9,4.8-1.8,5.9c-0.5,0.4-2,0.8-4.6,1.1c-2.6,0.3-5.6,0.5-8.9,0.7
		c-3.3,0.1-6.5,0.2-9.6,0.2c-3.1,0-5.3-0.1-6.6-0.2c0-0.7-0.3-1.1-0.9-1.1c-0.6,0-1.1,0-1.4,0H957h-0.9v1l0.9,0.2
		c-2-0.3-3.8-0.4-5.2-0.3c-1.5,0.1-3,0.1-4.6,0.1h3v-0.9c0-0.7-0.2-1.4-0.6-2.1c-0.4-0.7-1-1-1.7-1h-1l-0.9,0.7l-0.7,0.7v0.9v0.8
		h0.7h1.3v1.2c-4.2-0.1-8.2-0.2-12-0.2c-3.8,0-7.5,0-11.2,0c-3.7,0-7.4,0-11.3,0.1c-3.8,0.1-7.9,0.1-12.3,0.1c0-5.3,0-10.8,0.1-16.6
		c0.1-5.8,0.3-10.7,0.6-14.8c1.2,0.5,2.6,0.5,4.1,0c1.5-0.5,3.1-0.5,4.7,0c1.2,0,2.1,0.3,2.8,0.8c0.7,0.5,1.6,0.8,2.8,0.8
		c1.7,0.5,3.3,0.5,5,0.2c1.7-0.3,3.5-0.4,5.6-0.2c5.7,0.3,11.7,0.7,18.1,1.1c6.3,0.5,12.3,0.1,18.1-1.1c0-6.5-0.3-12.7-0.9-18.7
		c-0.6-6-1.1-12.6-1.4-19.9c-9.5,0.3-19.2,0-29-0.8c-9.9-0.8-19.5-1.6-29-2.4c0-5.3-0.5-10.6-1.4-16c-0.9-5.4-1-10.5-0.2-15.4
		c0-0.9,0.1-1.7,0.3-2.5c0.2-0.8,0.3-1.3,0.3-1.6c0.1-0.9,0.3-2.7,0.3-5.5c0.1-2.8,0.1-6,0.1-9.6s0-7.4-0.1-11.5
		c-0.1-4.1-0.1-7.9-0.1-11.5c0-3.6,0-6.8-0.1-9.5c-0.1-2.7-0.1-4.6-0.1-5.6c0.1-1.4,0.6-2.2,1.4-2.5c0.8-0.3,1.8-0.4,3.2-0.2
		c1.4,0.2,3.1,0.3,5.3,0.3C913,219.9,915.7,219.6,918.8,219z M910.3,276.5c0.5,0.3,0.9,0.4,1.5,0.3c0.5-0.1,0.6-0.5,0.1-1.2
		C910.8,275.6,910.3,275.9,910.3,276.5z M914.4,286.9c0,0.5-0.2,0.8-0.5,1c-0.3,0.2-0.5,0.7-0.5,1.5c0.8-0.5,1.2-0.6,1.5-0.5
		c0.2,0.2,0.6,0,1-0.5c0-0.3-0.2-0.4-0.5-0.3c-0.3,0.1-0.5,0-0.5-0.3v-0.5C915.1,287.1,914.8,286.9,914.4,286.9z M914.4,291
		c-0.5,0.8-0.2,1.1,0.9,1.1c1.1,0,1.6-0.4,1.6-1.1c-0.9-0.3-1.5-0.4-1.7-0.2C914.9,290.9,914.7,291,914.4,291z M917.5,289.4
		c0.5-0.5,0.8-0.9,1.1-1.4c0.3-0.5,0.5-1.1,0.5-1.8c-0.3-0.8-0.8-0.8-1.5-0.2c-0.7,0.6-1.2,0.9-1.7,0.9c0.5,0.5,0.6,1,0.6,1.6
		C916.5,289.1,916.8,289.4,917.5,289.4z M917.1,282.9v1.8c0.5,0,1,0,1.7-0.1c0.7-0.1,1.2-0.3,1.5-0.8c-0.8,0-1.3-0.1-1.6-0.5
		C918.3,283,917.8,282.9,917.1,282.9z M920.7,289.4c0,0.6,0.6,0.9,1.8,0.9C922.5,289.7,921.9,289.4,920.7,289.4z M936.1,298.2
		c-0.3,0-0.8,0-1.4,0.1c-0.6,0.1-0.9,0.3-0.9,0.8c0.3,0.3,0.8,0.4,1.4,0.3C935.8,299.4,936.1,299,936.1,298.2z M939.2,280.6
		c-0.3,0-0.7-0.1-1.1-0.3c-0.5-0.2-0.8-0.1-1.1,0.3c-0.5,0.8-0.2,1.1,0.8,1.1C938.8,281.7,939.2,281.4,939.2,280.6z M939.2,229.8
		c0.6,0,0.9-0.3,0.9-0.9C939.5,228.4,939.2,228.7,939.2,229.8z"/>
</g>
</svg>
