<?xml version="1.0" encoding="utf-8"?>
<!-- Generator: Adobe Illustrator 22.0.1, SVG Export Plug-In . SVG Version: 6.00 Build 0)  -->
<svg version="1.1" id="Layer_1" xmlns="http://www.w3.org/2000/svg" xmlns:xlink="http://www.w3.org/1999/xlink" x="0px" y="0px"
	 viewBox="0 0 50 61" style="enable-background:new 0 0 50 61;" xml:space="preserve">
<style type="text/css">
	.st0{fill:#ED2124;}
	.st1{fill:#FFFFFF;}
</style>
<g>
	<g id="PEGI_repeat_3_">
		<g>
			<rect id="SVGID_1_" class="st0" width="50" height="50"/>
		</g>
	</g>
	<g>
		<path class="st1" d="M17.6,42.9H9.8V15.8H4.7v-4.6c3.5,0.1,5.8-1.4,7.1-4.8h5.8V42.9z"/>
		<path class="st1" d="M24.8,32.5c0-3.6,0.8-6.2,3.8-8.4c-2.5-2.4-3.3-4.6-3.3-7.9c0-5.8,3.7-9.8,9.7-9.8s9.7,4.1,9.7,9.8
			c0,3.3-0.9,5.5-3.3,7.9c2.9,2.3,3.8,4.8,3.8,8.4c0,6.5-2.1,11-10.1,11C26.8,43.5,24.8,39,24.8,32.5z M34.8,27.4
			c-1.8,0-2.2,1.2-2.2,4.7s0.5,4.7,2.2,4.7c1.8,0,2.3-1.2,2.3-4.7C37.1,28.6,36.6,27.4,34.8,27.4z M34.8,13c-1.7,0-2,0.8-2,4.2
			c0,3.5,0.4,4.2,2,4.2c1.7,0,2-0.8,2-4.2C36.9,13.8,36.5,13,34.8,13z"/>
	</g>
	<g id="border_3_">
		<path class="st1" d="M0,0v61h50V0H0z M49,49H1V1h48V49z"/>
	</g>
	<path id="TM_3_" class="st1" d="M44.8,2v0.4H44v2.5h-0.5V2.4h-0.8V2H44.8z M48,4.9h-0.5V2.6l0,0l-0.8,2.3h-0.4l-0.8-2.3l0,0v2.3H45
		V2h0.7l0.7,2.1l0,0L47.1,2h0.7v2.9H48z"/>
	<g id="www.pegi.info_2_">
		<g>
			<polygon points="3.2,57.1 4,57.1 4.8,53.3 4.8,53.3 5.6,57.1 6.4,57.1 7.5,52.5 6.8,52.5 6,56.3 6,56.3 5.3,52.5 4.4,52.5 
				3.6,56.3 3.6,56.3 2.9,52.5 2.1,52.5 			"/>
			<polygon points="8.8,57.1 9.6,57.1 10.4,53.3 10.4,53.3 11.2,57.1 12,57.1 13.1,52.5 12.4,52.5 11.7,56.3 11.6,56.3 10.9,52.5 
				10,52.5 9.2,56.3 9.2,56.3 8.5,52.5 7.7,52.5 			"/>
			<polygon points="14.4,57.1 15.2,57.1 16,53.3 16,53.3 16.9,57.1 17.7,57.1 18.8,52.5 18,52.5 17.3,56.3 17.3,56.3 16.5,52.5 
				15.6,52.5 14.8,56.3 14.8,56.3 14.1,52.5 13.3,52.5 			"/>
			<polygon points="19.2,57.1 20,57.1 20,56.2 19.2,56.2 			"/>
			<path d="M21.8,54.8c0-1.1,0.1-1.8,0.9-1.8c0.7,0,0.8,0.7,0.8,1.7c0,1.2-0.2,1.9-0.8,1.9C21.9,56.6,21.8,55.7,21.8,54.8L21.8,54.8
				z M21.1,58.6h0.7v-2.1l0,0c0.2,0.4,0.6,0.7,1,0.7c1.2,0,1.5-1.5,1.5-2.5c0-1.4-0.4-2.4-1.5-2.4c-0.5,0-0.9,0.3-1,0.7l0,0v-0.6
				h-0.7V58.6L21.1,58.6z"/>
			<path d="M25.7,54.3v-0.2c0-0.3,0.1-1.2,0.8-1.2c0.6,0,0.8,0.6,0.8,1.1v0.3L25.7,54.3L25.7,54.3z M28.1,54.9v-0.3
				c0-1-0.1-2.2-1.5-2.2s-1.7,1.3-1.7,2.5c0,1.6,0.5,2.4,1.6,2.4c1.3,0,1.6-1.2,1.6-1.6h-0.7c0,0.3-0.1,1.1-0.8,1.1
				c-0.9,0-0.9-1.1-0.9-1.8h2.4V54.9z"/>
			<path d="M30.4,53c0.8,0,0.9,0.9,0.9,1.8c0,1-0.2,1.7-0.9,1.7c-0.7,0-0.8-0.9-0.8-1.7C29.5,53.7,29.7,53,30.4,53L30.4,53z
				 M32,52.5h-0.7v0.6l0,0c-0.1-0.4-0.5-0.7-1-0.7c-1.2,0-1.5,1.2-1.5,2.4c0,0.6,0.1,2.3,1.4,2.3c0.5,0,0.9-0.2,1-0.6l0,0v0.6
				c0,0.3,0,1-0.9,1c-0.4,0-0.7-0.2-0.7-0.6h-0.7c0.1,1.2,1.2,1.2,1.5,1.2c0.9,0,1.6-0.5,1.6-1.9L32,52.5L32,52.5z"/>
			<path d="M33,57.1h0.7v-4.6H33V57.1L33,57.1z M33,51.8h0.7V51H33V51.8L33,51.8z"/>
			<polygon points="34.9,57.1 35.7,57.1 35.7,56.2 34.9,56.2 			"/>
			<path d="M36.8,57.1h0.7v-4.6h-0.7V57.1L36.8,57.1z M36.8,51.8h0.7V51h-0.7V51.8L36.8,51.8z"/>
			<path d="M38.6,57.1h0.7v-3.2c0-0.7,0.5-0.9,0.9-0.9c0.7,0,0.7,0.6,0.7,0.9v3.2h0.7v-3.3c0-0.5,0-1.5-1.2-1.5
				c-0.4,0-0.9,0.2-1.1,0.7l0,0v-0.5h-0.7V57.1L38.6,57.1z"/>
			<path d="M42.8,57.1h0.7V53h0.8v-0.6h-0.8v-0.5c0-0.3,0.2-0.4,0.5-0.4h0.3v-0.6h-0.5c-0.7,0-1,0.4-1,1.1v0.5h-0.7v0.6h0.7V57.1
				L42.8,57.1z"/>
			<path d="M44.6,54.8c0,1.3,0.3,2.4,1.7,2.4c1.3,0,1.7-1.1,1.7-2.4s-0.3-2.4-1.7-2.4S44.6,53.5,44.6,54.8L44.6,54.8z M46.2,56.7
				c-0.7,0-0.9-0.9-0.9-1.9s0.2-1.9,0.9-1.9c0.8,0,0.9,0.9,0.9,1.9C47.2,55.8,47,56.7,46.2,56.7L46.2,56.7z"/>
		</g>
	</g>
</g>
</svg>
