<?xml version="1.0" standalone="no"?>
<!DOCTYPE svg PUBLIC "-//W3C//DTD SVG 20010904//EN"
 "http://www.w3.org/TR/2001/REC-SVG-20010904/DTD/svg10.dtd">
<svg version="1.0" xmlns="http://www.w3.org/2000/svg"
 width="1024.000000pt" height="1024.000000pt" viewBox="0 0 1024.000000 1024.000000"
 preserveAspectRatio="xMidYMid meet">
<metadata>
Created by potrace 1.11, written by Peter Selinger 2001-2013
</metadata>
<g transform="translate(0.000000,1024.000000) scale(0.100000,-0.100000)"
fill="#000000" stroke="none">
<path d="M3026 9253 c-3 -10 -28 -128 -56 -263 -28 -135 -55 -263 -60 -285
-10 -42 -89 -414 -96 -453 -3 -12 -20 -95 -39 -185 -18 -89 -36 -173 -39 -187
-2 -14 -20 -99 -40 -190 -44 -208 -95 -447 -100 -474 -8 -39 -107 -511 -111
-526 -5 -21 -55 -260 -61 -290 -4 -21 -9 -47 -20 -95 -3 -13 -53 -253 -59
-280 -15 -73 -90 -432 -100 -475 -2 -8 -18 -82 -35 -165 -18 -82 -34 -159 -36
-170 -3 -11 -7 -31 -10 -45 -4 -24 -9 -51 -18 -95 -3 -11 -16 -73 -30 -137
-14 -64 -28 -129 -30 -144 -3 -15 -10 -50 -16 -78 -6 -28 -12 -60 -14 -71 -2
-11 -11 -50 -20 -88 -9 -37 -18 -79 -21 -95 -12 -63 -17 -88 -54 -263 -22
-101 -38 -185 -36 -188 2 -4 315 -6 697 -6 l693 0 22 100 c13 55 25 114 28
130 3 17 30 145 60 285 30 140 56 266 59 280 2 14 27 131 55 260 27 129 52
246 55 260 8 42 25 124 30 145 3 11 23 108 46 215 22 107 43 206 46 220 l5 25
489 -1 c268 -1 520 -5 559 -8 339 -31 533 -220 568 -554 12 -120 6 -417 -14
-697 -5 -55 -8 -194 -8 -310 0 -171 4 -226 19 -295 29 -126 46 -156 148 -264
51 -55 104 -111 118 -126 14 -14 93 -98 175 -185 83 -87 166 -175 185 -195 19
-21 67 -71 105 -111 288 -305 340 -362 337 -372 -2 -7 -15 -37 -29 -67 -14
-30 -40 -86 -58 -125 -36 -78 -80 -172 -132 -285 -20 -41 -48 -102 -63 -135
-105 -228 -289 -625 -325 -700 -23 -49 -53 -112 -65 -140 -13 -27 -60 -130
-105 -227 -46 -98 -81 -178 -78 -178 4 0 332 195 798 473 110 66 214 128 230
137 17 9 60 36 98 58 37 23 72 42 77 42 6 0 10 4 10 9 0 5 8 11 18 15 9 3 69
37 132 75 63 38 158 95 210 126 52 31 102 60 110 65 153 94 163 99 189 82 14
-9 31 -21 37 -27 7 -5 56 -44 109 -85 54 -41 162 -124 241 -185 78 -60 207
-159 286 -220 78 -60 166 -127 194 -150 28 -22 65 -51 84 -65 18 -14 116 -89
218 -167 102 -79 187 -143 189 -143 4 0 -2 48 -17 140 -5 30 -12 75 -14 100
-3 25 -7 54 -10 65 -2 11 -7 42 -10 68 -4 27 -9 56 -10 65 -2 10 -7 44 -11 77
-4 32 -8 66 -10 75 -1 8 -5 36 -9 61 -4 25 -9 57 -11 70 -2 13 -9 60 -15 104
-6 44 -13 92 -16 108 -11 70 -13 85 -19 132 -3 28 -8 57 -10 65 -2 8 -6 38
-10 65 -6 48 -15 116 -35 250 -5 33 -12 78 -15 100 -3 22 -10 69 -16 105 -5
36 -11 75 -13 87 -3 20 52 61 386 295 214 150 435 305 491 345 56 39 138 97
182 128 44 31 143 101 220 155 77 54 180 126 228 159 l89 61 -886 0 c-487 0
-886 3 -886 8 0 4 -9 61 -20 127 -12 66 -23 134 -25 150 -8 60 -16 111 -25
160 -5 28 -12 68 -15 90 -5 38 -21 141 -30 195 -2 14 -18 113 -35 220 -16 107
-39 251 -50 320 -12 69 -23 139 -25 155 -3 17 -7 41 -10 55 -3 14 -7 43 -10
65 -3 22 -7 49 -9 60 -8 42 -20 121 -21 132 0 7 -5 12 -10 10 -9 -2 -41 -54
-265 -432 -42 -71 -117 -197 -166 -280 -49 -82 -92 -157 -96 -165 -4 -8 -119
-204 -256 -435 l-249 -420 -97 -1 -97 -1 -28 56 c-59 116 -113 322 -128 483
-9 92 -8 311 2 593 15 434 12 674 -10 826 -10 69 -56 214 -88 274 -50 93 -158
196 -258 244 -46 22 -105 46 -131 52 -27 7 -48 17 -48 21 0 4 17 10 38 13 402
68 706 233 906 494 120 155 222 397 251 593 4 23 8 45 10 48 9 15 19 183 20
320 0 207 -12 326 -46 464 -117 465 -434 743 -973 851 -66 13 -148 27 -181 31
-33 3 -69 9 -80 12 -11 4 -705 8 -1542 9 -1453 4 -1522 3 -1527 -14z m2464
-1086 c14 -4 61 -16 105 -27 271 -69 407 -239 408 -515 2 -256 -108 -465 -301
-578 -91 -53 -213 -96 -322 -113 -19 -3 -51 -8 -70 -11 -64 -11 -1350 -15
-1350 -4 0 5 6 41 14 78 8 38 17 80 20 93 3 14 7 34 9 45 6 25 66 313 71 340
8 43 38 182 46 220 10 44 57 265 64 305 3 14 12 57 20 95 9 39 16 74 16 78 0
10 1232 3 1270 -6z"/>
</g>
</svg>
